<?xml version="1.0" encoding="UTF-8" standalone="no"?>
<svg
   data-name="Layer 1"
   viewBox="0 0 100 125"
   x="0px"
   y="0px"
   version="1.1"
   id="svg17022"
   sodipodi:docname="artichoke.svg"
   inkscape:version="1.2.2 (b0a8486541, 2022-12-01)"
   xmlns:inkscape="http://www.inkscape.org/namespaces/inkscape"
   xmlns:sodipodi="http://sodipodi.sourceforge.net/DTD/sodipodi-0.dtd"
   xmlns:xlink="http://www.w3.org/1999/xlink"
   xmlns="http://www.w3.org/2000/svg"
   xmlns:svg="http://www.w3.org/2000/svg">
  <defs
     id="defs17026">
    <linearGradient
       inkscape:collect="always"
       id="linearGradient17606">
      <stop
         style="stop-color:#780ba3;stop-opacity:1;"
         offset="0"
         id="stop17602" />
      <stop
         style="stop-color:#4bcf4b;stop-opacity:1;"
         offset="1"
         id="stop17604" />
    </linearGradient>
    <linearGradient
       inkscape:collect="always"
       xlink:href="#linearGradient17606"
       id="linearGradient17608"
       x1="42.097637"
       y1="61.048332"
       x2="45.967808"
       y2="53.066051"
       gradientUnits="userSpaceOnUse" />
    <linearGradient
       inkscape:collect="always"
       xlink:href="#linearGradient17606"
       id="linearGradient18344"
       x1="46.272087"
       y1="51.185013"
       x2="50.906013"
       y2="39.627373"
       gradientUnits="userSpaceOnUse" />
    <linearGradient
       inkscape:collect="always"
       xlink:href="#linearGradient17606"
       id="linearGradient18382"
       x1="29.39323"
       y1="64.889122"
       x2="22.283997"
       y2="54.179153"
       gradientUnits="userSpaceOnUse" />
    <linearGradient
       inkscape:collect="always"
       xlink:href="#linearGradient17606"
       id="linearGradient18390"
       x1="32.217064"
       y1="52.33234"
       x2="33.091339"
       y2="42.059223"
       gradientUnits="userSpaceOnUse" />
    <linearGradient
       inkscape:collect="always"
       xlink:href="#linearGradient17606"
       id="linearGradient18398"
       x1="41.460533"
       y1="40.458157"
       x2="42.120575"
       y2="27.496395"
       gradientUnits="userSpaceOnUse" />
    <linearGradient
       inkscape:collect="always"
       xlink:href="#linearGradient17606"
       id="linearGradient18406"
       x1="53.88475"
       y1="35.252777"
       x2="56.148918"
       y2="25.042864"
       gradientUnits="userSpaceOnUse" />
    <linearGradient
       inkscape:collect="always"
       xlink:href="#linearGradient17606"
       id="linearGradient18414"
       x1="64.021545"
       y1="30.71431"
       x2="68.399094"
       y2="22.161333"
       gradientUnits="userSpaceOnUse" />
    <linearGradient
       inkscape:collect="always"
       xlink:href="#linearGradient17606"
       id="linearGradient18422"
       x1="75.1287"
       y1="41.550056"
       x2="74.440063"
       y2="30.798574"
       gradientUnits="userSpaceOnUse" />
    <linearGradient
       inkscape:collect="always"
       xlink:href="#linearGradient17606"
       id="linearGradient19156"
       x1="59.114735"
       y1="46.738861"
       x2="63.882389"
       y2="34.903618"
       gradientUnits="userSpaceOnUse" />
    <linearGradient
       inkscape:collect="always"
       xlink:href="#linearGradient17606"
       id="linearGradient19164"
       x1="68.032646"
       y1="56.840355"
       x2="68.340317"
       y2="49.588634"
       gradientUnits="userSpaceOnUse" />
    <linearGradient
       inkscape:collect="always"
       xlink:href="#linearGradient17606"
       id="linearGradient19172"
       x1="72.709602"
       y1="57.694645"
       x2="79.729858"
       y2="48.542469"
       gradientUnits="userSpaceOnUse" />
    <linearGradient
       inkscape:collect="always"
       xlink:href="#linearGradient17606"
       id="linearGradient19180"
       x1="74.283035"
       y1="76.532623"
       x2="79.495804"
       y2="63.992226"
       gradientUnits="userSpaceOnUse" />
    <linearGradient
       inkscape:collect="always"
       xlink:href="#linearGradient17606"
       id="linearGradient19188"
       x1="55.606869"
       y1="72.946106"
       x2="59.531879"
       y2="68.981606"
       gradientUnits="userSpaceOnUse" />
    <linearGradient
       inkscape:collect="always"
       xlink:href="#linearGradient17606"
       id="linearGradient19196"
       x1="61.762936"
       y1="80.817612"
       x2="67.040131"
       y2="75.026398"
       gradientUnits="userSpaceOnUse" />
    <linearGradient
       inkscape:collect="always"
       xlink:href="#linearGradient17606"
       id="linearGradient19204"
       x1="42.242813"
       y1="65.722321"
       x2="36.491089"
       y2="53.308327"
       gradientUnits="userSpaceOnUse" />
    <linearGradient
       inkscape:collect="always"
       xlink:href="#linearGradient17606"
       id="linearGradient19212"
       x1="40.946388"
       y1="56.076317"
       x2="38.152092"
       y2="46.871471"
       gradientUnits="userSpaceOnUse" />
    <linearGradient
       inkscape:collect="always"
       xlink:href="#linearGradient17606"
       id="linearGradient19220"
       x1="53.545818"
       y1="68.402496"
       x2="65.65731"
       y2="59.426926"
       gradientUnits="userSpaceOnUse" />
    <linearGradient
       inkscape:collect="always"
       xlink:href="#linearGradient17606"
       id="linearGradient19956"
       x1="48.376949"
       y1="73.106796"
       x2="43.988323"
       y2="81.792381"
       gradientUnits="userSpaceOnUse" />
  </defs>
  <sodipodi:namedview
     id="namedview17024"
     pagecolor="#ffffff"
     bordercolor="#000000"
     borderopacity="0.25"
     inkscape:showpageshadow="2"
     inkscape:pageopacity="0.0"
     inkscape:pagecheckerboard="0"
     inkscape:deskcolor="#d1d1d1"
     showgrid="false"
     inkscape:zoom="6.304"
     inkscape:cx="50.206218"
     inkscape:cy="37.119289"
     inkscape:window-width="1857"
     inkscape:window-height="1011"
     inkscape:window-x="0"
     inkscape:window-y="0"
     inkscape:window-maximized="1"
     inkscape:current-layer="svg17022" />
  <path
     d="m 81.249291,55.239983 a 1,1 0 0 0 -0.191483,-0.779638 1.08,1.08 0 0 0 -0.730233,-0.350512 c -0.465547,-0.0238 -0.933618,0.0732 -1.403131,0.08077 2.884878,-5.270662 2.138786,-14.924172 2.100202,-15.375294 a 1,1 0 0 0 -0.549568,-0.796225 l -0.06311,-0.03029 a 1,1 0 0 0 -1.025573,0.19545 8,8 0 0 1 -1.811701,1.093726 c 2.134092,-8.004802 -4.253372,-15.79613 -4.55412,-16.140152 a 1,1 0 0 0 -0.877723,-0.343661 1,1 0 0 0 -0.75151,0.548846 6.4,6.4 0 0 1 -1.54413,1.599301 20.18,20.18 0 0 0 -2.495406,-10.792676 1,1 0 0 0 -1.018721,-0.488987 20.59,20.59 0 0 0 -9.053459,4.117789 5.29,5.29 0 0 1 0.209515,-1.152867 1,1 0 0 0 -0.04183,-0.929651 1.08,1.08 0 0 0 -0.808125,-0.465547 C 56.169315,15.215583 46.099302,15.096212 41.18852,21.7682 a 7.76,7.76 0 0 1 -0.270815,-2.093337 1,1 0 0 0 -0.475643,-0.927127 1,1 0 0 0 -1.046128,0.03029 c -0.376115,0.252066 -8.366139,5.690046 -10.69604,11.260375 -0.274423,-0.375755 -0.500524,-0.805962 -0.801272,-1.149984 a 1,1 0 0 0 -0.721218,-0.346185 1,1 0 0 0 -0.737447,0.311565 25.08,25.08 0 0 0 -4.938923,21.8439 c -0.497279,-0.327434 -0.998887,-0.645852 -1.464793,-0.969319 a 1,1 0 0 0 -0.9942,-0.07789 1,1 0 0 0 -0.531899,0.853923 c -0.159034,5.669498 1.249863,9.828766 4.162501,12.380439 a 9.77,9.77 0 0 0 2.292031,1.510594 12,12 0 0 0 6.212214,1.085079 11.76,11.76 0 0 0 3.078158,2.830785 l -7.849029,10.29755 a 2.42,2.42 0 0 0 0.330675,3.30895 27.3,27.3 0 0 0 6.41271,4.36482 22.44,22.44 0 0 0 6.608163,2.062691 2.56,2.56 0 0 0 2.755056,-1.949812 c 0.766298,-3.514497 2.21559,-7.66619 3.498999,-8.79165 a 6.39,6.39 0 0 0 1.877695,-3.103041 10,10 0 0 0 1.936471,-0.01334 11.79,11.79 0 0 0 4.66051,4.156025 9.78,9.78 45 0 0 2.562849,0.830846 c 3.786397,0.70824 7.930158,-0.830116 12.276585,-4.500753 a 1,1 0 0 0 0.306518,-0.962105 0.94,0.94 0 0 0 -0.758721,-0.730235 C 68.272031,73.147825 67.687844,72.978339 67.09933,72.817867 A 25.63,25.63 0 0 0 81.249291,55.239983 Z m -2.064836,-14.60143 c 0.130177,3.911528 -0.210605,10.791591 -2.695205,13.703148 a 47.61,47.61 0 0 0 -9.661444,2.19538 15.88,15.88 0 0 0 2.872984,-12.109255 68.73,68.73 0 0 0 9.483665,-3.789273 z M 61.237273,65.711336 a 1,1 0 0 0 -0.0083,-0.791537 0.91,0.91 0 0 0 -0.603299,-0.522524 27.17,27.17 0 0 0 -12.399548,-0.627471 c 2.174836,-2.42798 7.149444,-6.251875 16.846225,-5.424269 0.300026,1.685849 0.795138,6.316071 -1.890682,9.78549 a 11.4,11.4 0 0 1 -6.691829,3.842646 18.83,18.83 0 0 0 4.747426,-6.262335 z M 28.91335,58.526169 a 13.86,13.86 0 0 1 -1.200464,-4.269975 v 0 a 9.76,9.76 0 0 1 0.203747,-2.897134 c 0.967878,-4.32731 4.727232,-6.959754 6.215828,-7.842524 6.633761,6.977794 6.797472,13.245904 6.298747,16.434049 a 27.3,27.3 0 0 0 -8.302659,-9.231964 1,1 0 0 0 -0.789374,-0.134868 0.92,0.92 0 0 0 -0.613757,0.492952 19.09,19.09 45 0 0 -1.812068,7.449464 z M 55.915422,43.013144 a 16.23,16.23 0 0 0 -1.174503,-1.82829 c -0.06419,-0.09736 -0.198335,-0.0952 -0.306518,-0.147128 a 0.9,0.9 0 0 0 -0.387654,-0.186075 7.78,7.78 0 0 0 -1.773116,0.158306 46.88,46.88 0 0 0 -2.972136,-6.240706 c 3.125405,-5.609995 9.52009,-7.631925 11.871263,-8.000826 1.128705,2.039246 3.561009,8.364694 1.157543,14.36559 a 41.86,41.86 0 0 0 -6.414879,1.879129 z m 11.438885,-0.421542 c 0.524685,2.026624 1.854966,9.076536 -2.983693,13.841982 a 28.4,28.4 0 0 0 -5.64137,0.198331 23.73,23.73 0 0 0 -1.93538,-11.843851 C 58.687063,44.03295 63.79221,42.20178 67.354307,42.591602 Z M 50.386563,41.313228 a 23.78,23.78 0 0 0 -10.905189,6.057504 28.62,28.62 0 0 0 -3.432996,-4.587313 c 0.696342,-6.742671 7.069392,-10.106067 8.93843,-10.97261 2.523902,2.575834 4.593795,7.507167 5.399755,9.502419 z m -9.946691,7.804296 a 21.93,21.93 0 0 1 11.369293,-6.123135 c 0.927487,-0.175977 1.369233,-0.241246 1.676833,-0.304353 a 22.21,22.21 0 0 1 3.238979,14.188894 c -7.455957,1.667811 -10.670432,6.192372 -11.419418,7.45234 a 21.54,21.54 0 0 0 -2.471256,0.688401 C 42.540047,64.246164 42.209369,63.43299 41.80152,62.549497 42.354696,61.073524 43.697249,55.850101 40.439872,49.117524 Z M 68.781251,28.179856 a 0.77,0.77 0 0 0 0.234396,-0.164799 21.86,21.86 0 0 0 3.249452,-2.633165 c 1.720825,2.423295 5.587632,8.949244 2.977898,14.917685 -1.946209,0.796223 -4.084983,1.577661 -5.908945,2.188532 -0.138834,-0.565796 -0.271177,-1.006461 -0.294617,-1.073173 a 1,1 0 0 0 -0.730594,-0.650179 12.54,12.54 0 0 0 -3.75322,-0.03787 18.63,18.63 0 0 0 0.228274,-9.973369 c 0.877002,-0.532979 2.373892,-1.456138 3.997356,-2.573664 z M 66.00457,15.754702 c 0.804879,1.65087 2.728004,6.356461 1.539792,10.888597 -1.110316,0.764851 -2.239384,1.476332 -3.329146,2.129034 a 18.19,18.19 0 0 0 -1.652308,-3.721489 c 0,0 -0.08114,-0.03895 -0.126213,-0.06058 a 0.84,0.84 0 0 0 -0.321303,-0.231872 1.19,1.19 0 0 0 -0.310124,-0.0934 c 0,0 -0.09917,-0.0476 -0.144243,-0.06924 a 23.29,23.29 0 0 0 -4.057216,1.080743 c -0.200858,-1.638248 -0.360606,-3.500795 -0.419384,-5.203952 0.535866,-0.607987 3.20654,-3.352582 8.815818,-4.708828 z m -10.710095,1.514549 a 41.18,41.18 0 0 0 0.443902,9.220057 17.89,17.89 0 0 0 -7.500677,6.382777 14.6,14.6 0 0 0 -2.403458,-2.872976 1,1 0 0 0 -0.968957,-0.176699 c -0.06671,0.02344 -0.484299,0.200138 -1.025934,0.4504 -0.668928,-1.818553 -1.406372,-4.002764 -1.974691,-5.961594 2.992341,-5.818066 10.462362,-6.891233 13.460828,-7.060356 z m -16.18703,4.143386 a 67.15,67.15 0 0 0 2.97069,9.756285 15.92,15.92 0 0 0 -7.651415,9.793419 47.16,47.16 0 0 0 -4.338842,-8.893349 c 0.775674,-4.042428 6.381348,-8.672646 9.019567,-10.656355 z m -11.955647,9.70182 a 41.47,41.47 0 0 1 5.584024,10.944134 c -1.912672,1.211646 -5.654356,4.107695 -6.727533,8.839248 a 12.37,12.37 0 0 0 -0.174176,2.234695 16.05,16.05 0 0 1 -2.073502,-0.995283 23.21,23.21 0 0 1 3.391187,-21.022794 z m -3.245509,30.332642 c -2.150312,-1.87517 -3.326616,-4.924482 -3.487084,-9.050213 a 20.76,20.76 0 0 0 5.514795,2.769123 19.1,19.1 0 0 0 3.660176,8.412296 8.94,8.94 0 0 1 -5.687887,-2.131206 z m 7.969462,1.88419 c -1.984069,-3.76981 -0.64368,-8.295455 0.133434,-10.307293 6.615733,5.02798 9.29974,13.093729 10.151496,16.264567 -5.247584,-0.899364 -8.67914,-2.90147 -10.293945,-5.961601 z m 8.167418,23.032479 A 22.4,22.4 0 0 1 28.037772,80.501333 c -0.135229,-0.06491 -0.340415,-0.307599 -0.06996,-0.732397 l 7.92007,-10.330005 a 22.56,22.56 0 0 0 4.365534,1.396644 21.82,21.82 0 0 0 3.904674,2.495419 12.79,12.79 0 0 0 1.932865,0.595007 4,4 0 0 1 -1.396281,2.169424 c -2.399135,2.109561 -3.9732,9.063188 -4.131508,9.785848 -0.06707,0.278391 -0.318779,0.47925 -0.519999,0.482495 z M 51.497212,72.461211 a 10.05,10.05 0 0 1 -7.383473,-1.325606 1,1 0 0 0 0.246297,-0.813534 30.71,30.71 0 0 0 -0.900078,-3.393695 17.4,17.4 0 0 1 2.75181,-0.764489 27.3,27.3 0 0 1 12.761961,-0.196881 c -1.062357,1.797275 -3.556694,5.491715 -7.476517,6.494205 z m 15.077791,2.234708 c -3.289119,2.392279 -6.346365,3.354021 -9.132071,2.848805 a 8.7,8.7 0 0 1 -5.166806,-3.101244 19.75,19.75 0 0 0 8.607744,-2.079986 18.36,18.36 0 0 0 5.691133,2.332425 z m -2.173029,-2.729092 a 16.82,16.82 0 0 1 -1.697387,-0.692732 11.79,11.79 0 0 0 2.048262,-1.956303 c 2.931035,-3.79541 2.675728,-8.532373 2.334954,-10.80349 A 41.83,41.83 0 0 1 79.066162,56.0445 23.6,23.6 0 0 1 64.401974,71.966827 Z"
     id="path17016" />
  <path
     style="fill:url(#linearGradient17608);stroke:#000000;stroke-width:0.793147;stroke-linecap:round;stroke-linejoin:round;paint-order:fill markers stroke;fill-opacity:1"
     d="m 53.337291,42.595413 c -4.779429,0.676456 -9.49947,2.767488 -12.824509,6.325659 -0.363246,0.692023 0.472017,1.437673 0.546838,2.134991 1.325276,3.094715 1.455646,6.540546 1.037597,9.823872 -0.192597,0.890995 -0.698886,1.793342 -0.06725,2.634012 0.306036,0.548666 0.475545,1.915866 1.397204,1.496826 1.097885,-0.23396 2.272053,-0.609122 2.814238,-1.690981 2.568063,-3.333759 6.517641,-5.265626 10.494329,-6.322251 0.468144,-1.700776 0.292262,-3.610014 0.07994,-5.383177 -0.424504,-3.157012 -1.502946,-6.247411 -3.173519,-8.952029 -0.0861,-0.06799 -0.200748,-0.06944 -0.304866,-0.06692 z"
     id="path17214" />
  <path
     style="fill:url(#linearGradient18344);fill-opacity:1;stroke:#000000;stroke-width:0.793147;stroke-linecap:round;stroke-linejoin:round;paint-order:fill markers stroke"
     d="m 44.863628,31.798697 c -3.009465,1.137091 -5.477592,3.476775 -7.275886,6.104755 -4.200351,5.549301 -2.604169,4.404931 -1.626572,4.915344 1.12191,1.538371 2.3956,2.974378 3.369327,4.628138 0.65485,0.124045 1.07339,-0.918654 1.670491,-1.206402 2.799163,-2.247519 6.066899,-3.915403 9.508465,-4.856678 -0.897684,-2.647581 -2.311045,-5.194193 -3.77946,-7.605653 -0.539589,-0.651065 -0.951649,-1.81809 -1.866365,-1.979504 z"
     id="path18336"
     sodipodi:nodetypes="cccccccc" />
  <path
     style="fill:url(#linearGradient18398);stroke:#000000;stroke-width:0.793147;stroke-linecap:round;stroke-linejoin:round;paint-order:fill markers stroke;fill-opacity:1"
     d="m 38.959639,21.330393 c -3.339723,2.577047 -6.67072,5.461266 -8.591086,9.295623 -0.515504,0.787771 -0.363181,1.717563 0.160489,2.455039 1.468726,2.554712 2.672516,5.279759 3.832202,7.955638 0.586724,-0.343742 0.530404,-1.358849 0.898797,-1.959321 1.265031,-3.158823 3.704587,-5.676272 6.474683,-7.589118 0.857024,-0.606654 -0.124805,-1.603553 -0.208262,-2.358804 -0.934678,-2.557177 -1.587947,-5.216683 -2.380591,-7.794098 -0.03759,-0.05808 -0.124178,-0.0033 -0.186232,-0.005 z"
     id="path18346" />
  <path
     style="fill:url(#linearGradient18406);stroke:#000000;stroke-width:0.793147;stroke-linecap:round;stroke-linejoin:round;paint-order:fill markers stroke;fill-opacity:1"
     d="m 53.999693,17.230813 c -3.196879,0.353093 -6.397678,1.377488 -9.031654,3.251594 -1.213682,1.172955 -2.68289,2.309481 -3.272352,3.929487 0.696808,1.920423 1.184732,3.947817 2.003316,5.808874 0.699074,0.291835 1.550825,-0.710714 2.187971,0.06073 0.905099,0.776982 1.453728,1.948396 2.372006,2.670366 0.95735,-0.982074 1.742991,-2.213755 2.822679,-3.104717 1.387239,-1.288121 2.928374,-2.366173 4.638482,-3.178497 0.137342,-1.330307 -0.230196,-2.76303 -0.244451,-4.137997 -0.17531,-1.788798 -0.0735,-3.588136 -0.06011,-5.355293 -0.450348,-0.103887 -0.950795,0.05486 -1.415891,0.05546 z"
     id="path18348" />
  <path
     style="fill:url(#linearGradient18414);stroke:#000000;stroke-width:0.793147;stroke-linecap:round;stroke-linejoin:round;paint-order:fill markers stroke;fill-opacity:1"
     d="m 65.924475,15.613846 c -3.27951,0.899556 -6.646958,2.304348 -8.949551,4.865153 0.23653,1.697919 0.0784,3.495941 0.586805,5.137177 0.503844,0.392218 1.175478,-0.296349 1.736869,-0.276362 0.915378,-0.08806 2.008277,-0.898713 2.868962,-0.293093 0.953234,1.018028 1.305652,2.427748 1.924621,3.618425 0.777889,0.259409 1.42338,-0.673875 2.090377,-0.933498 0.845368,-0.469407 1.773472,-1.096664 1.732221,-2.193857 0.290801,-3.048998 -0.135233,-6.16748 -1.374523,-8.979483 -0.182371,-0.284544 -0.198107,-0.920648 -0.615781,-0.944462 z"
     id="path18350" />
  <path
     style="fill:url(#linearGradient19156);stroke:#000000;stroke-width:0.793147;stroke-linecap:round;stroke-linejoin:round;paint-order:fill markers stroke;fill-opacity:1"
     d="m 60.680719,26.720076 c -4.157773,0.931115 -8.13608,3.226583 -10.705319,6.672971 -0.638588,0.717705 -1.062682,1.538449 -0.312068,2.362281 0.888309,1.71601 1.598883,3.555346 2.519868,5.236441 0.836353,0.34005 2.071756,-0.342712 2.646199,0.649079 0.450446,0.432807 0.638795,1.332799 1.286386,1.451831 2.085161,-0.781719 4.307123,-1.256605 6.387482,-1.955395 1.657526,-4.529561 1.151599,-9.753873 -1.040865,-14.021564 -0.159318,-0.272778 -0.465886,-0.433397 -0.781683,-0.395644 z"
     id="path18352" />
  <path
     style="fill:url(#linearGradient18422);stroke:#000000;stroke-width:0.793147;stroke-linecap:round;stroke-linejoin:round;paint-order:fill markers stroke;fill-opacity:1"
     d="m 72.11598,25.291172 c -2.220443,2.157659 -4.987822,3.663483 -7.459301,5.442663 0.725798,3.239792 0.628505,6.622814 -0.223073,9.82573 0.44142,0.574288 1.58438,0.109164 2.301665,0.261383 0.790651,0.0069 1.999255,-0.09705 2.214627,0.921522 -0.0018,0.597018 0.522729,0.962384 1.051849,0.656205 1.746833,-0.675564 3.667679,-1.054408 5.23756,-2.104938 0.842527,-0.998074 0.848511,-2.441377 1.004447,-3.687515 0.134239,-4.103048 -1.546345,-8.15459 -3.97658,-11.365242 l -0.150551,0.04998 z"
     id="path18354" />
  <path
     style="fill:url(#linearGradient19172);stroke:#000000;stroke-width:0.793147;stroke-linecap:round;stroke-linejoin:round;paint-order:fill markers stroke;fill-opacity:1"
     d="m 78.94789,40.525175 c -2.943947,1.531254 -6.124444,2.596435 -9.21352,3.793164 -0.304922,0.990563 0.151391,2.124614 -3.1e-4,3.134481 -0.0071,3.164479 -1.207727,6.156649 -2.846655,8.81075 0.09624,0.709519 0.993661,-0.06565 1.403499,-0.05112 2.696586,-0.802656 5.496943,-1.201956 8.225494,-1.814943 1.140691,-1.061018 1.532825,-2.71775 1.977601,-4.168671 0.694017,-2.935846 0.880071,-5.987935 0.832185,-8.995095 -0.08954,-0.216398 0.02979,-0.815682 -0.378294,-0.708565 z"
     id="path18356" />
  <path
     style="fill:url(#linearGradient19164);stroke:#000000;stroke-width:0.793147;stroke-linecap:round;stroke-linejoin:round;paint-order:fill markers stroke;fill-opacity:1"
     d="m 66.256296,42.392479 c -3.214365,0.133585 -6.387118,1.000924 -9.349533,2.217714 -0.373214,0.625581 0.324666,1.386164 0.437534,2.034586 0.999656,3.20413 1.602964,6.59694 1.183151,9.93667 0.379696,0.508872 1.292462,-0.06647 1.887133,0.05918 1.395893,-0.111398 2.828157,0.05327 4.198413,-0.12238 2.040123,-2.326822 3.426751,-5.339465 3.313414,-8.480298 -0.01786,-1.853895 0.184943,-3.879522 -0.540029,-5.589696 -0.320076,-0.133341 -0.773932,-0.01708 -1.130083,-0.05577 z"
     id="path18358" />
  <path
     style="fill:url(#linearGradient19220);stroke:#000000;stroke-width:0.793147;stroke-linecap:round;stroke-linejoin:round;paint-order:fill markers stroke;fill-opacity:1"
     d="m 63.916201,58.098033 c -3.863994,-0.01888 -7.885202,0.280319 -11.335788,2.188783 -1.629174,0.900757 -3.310737,1.936858 -4.39641,3.46425 0.483501,0.342578 1.254588,-0.162869 1.868233,-0.09698 3.503995,-0.191586 7.147313,-0.166759 10.495878,0.970366 0.921474,0.280582 0.379269,1.317313 0.07374,1.878458 -0.939768,1.894538 -2.404276,3.427897 -3.722215,5.052905 -0.257888,0.66017 0.688715,0.34866 1.001039,0.220594 3.492505,-1.02535 6.421926,-3.893536 7.217949,-7.486566 0.365763,-1.923295 0.371851,-3.941803 0.114635,-5.870219 -0.255083,-0.439464 -0.900314,-0.276 -1.317059,-0.321596 z"
     id="path18360" />
  <path
     style="fill:url(#linearGradient19180);stroke:#000000;stroke-width:0.793147;stroke-linecap:round;stroke-linejoin:round;paint-order:fill markers stroke;fill-opacity:1"
     d="m 78.505152,55.908203 c -3.846168,0.353325 -7.667681,1.096577 -11.3135,2.388427 -0.323223,1.276503 -0.05492,2.743044 -0.165136,4.090284 -0.02588,3.347184 -1.773918,6.477301 -4.218878,8.676549 -0.422294,0.655733 0.922731,0.701253 1.320792,0.992102 0.92665,0.181761 1.74494,-0.66257 2.588263,-0.948988 3.539867,-1.65121 6.504905,-4.344798 8.861871,-7.426151 1.466979,-2.273272 2.895828,-4.688311 3.520519,-7.34002 0.01,-0.327338 -0.311808,-0.462878 -0.593931,-0.432203 z"
     id="path18362" />
  <path
     style="fill:url(#linearGradient19188);fill-opacity:1;stroke:#000000;stroke-width:0.793147;stroke-linecap:round;stroke-linejoin:round;paint-order:fill markers stroke"
     d="m 52.751725,65.192983 c -3.153835,-0.04381 -6.269134,0.6169 -9.262472,1.555002 -0.235997,0.724822 -0.509568,3.899154 -0.432238,4.654216 0.257727,0.695382 0.946149,-0.87325 1.116327,-0.161161 1.469068,1.077461 3.380274,1.547908 5.199142,1.513796 3.222506,0.229461 6.021243,-1.859084 7.984142,-4.212356 0.641344,-0.828975 1.336963,-1.679902 1.778694,-2.613048 -1.373822,-0.520748 -2.978442,-0.568961 -4.467649,-0.693384 -0.638105,-0.03233 -1.277052,-0.04655 -1.915946,-0.04306 z"
     id="path18364"
     sodipodi:nodetypes="scccccccss" />
  <path
     style="fill:url(#linearGradient19196);stroke:#000000;stroke-width:0.793147;stroke-linecap:round;stroke-linejoin:round;paint-order:fill markers stroke;fill-opacity:1"
     d="m 60.143795,72.533932 c -2.507404,1.104127 -5.27139,1.630819 -7.955019,1.832913 0.1392,0.685016 1.037099,1.121991 1.539821,1.638965 2.424573,2.009586 5.912859,2.305299 8.760563,1.078049 1.465894,-0.597748 2.99458,-1.258518 4.154415,-2.332833 -0.627299,-0.579696 -1.73849,-0.572656 -2.531256,-0.997011 -1.176283,-0.387566 -2.23248,-1.14195 -3.384197,-1.516584 -0.194776,0.09883 -0.389551,0.197667 -0.584327,0.296501 z"
     id="path18366" />
  <path
     style="fill:url(#linearGradient19212);stroke:#000000;stroke-width:0.793147;stroke-linecap:round;stroke-linejoin:round;paint-order:fill markers stroke;fill-opacity:1"
     d="m 34.062265,43.365943 c -3.229379,1.959815 -6.012025,5.136168 -6.452687,9.011516 -0.260064,2.117215 0.33853,4.289198 1.186003,6.187168 0.608947,-0.326506 0.230653,-1.450158 0.483182,-2.080182 0.361926,-1.897138 0.743493,-3.934378 1.848857,-5.573379 0.746748,-0.49948 1.506629,0.501368 2.117331,0.852323 2.724412,2.233779 5.058233,4.950602 6.913084,7.941387 0.567417,0.420205 0.586232,-0.605234 0.566046,-0.941553 0.234454,-4.41881 -1.33635,-8.771948 -3.948197,-12.296985 -0.819812,-1.078005 -1.639035,-2.219184 -2.619123,-3.127869 z"
     id="path18368" />
  <path
     style="fill:url(#linearGradient18390);stroke:#000000;stroke-width:0.793147;stroke-linecap:round;stroke-linejoin:round;paint-order:fill markers stroke;fill-opacity:1"
     d="m 27.014718,31.017323 c -3.860962,5.30636 -5.460533,12.227272 -4.042882,18.661885 0.2291,0.876109 0.324155,1.828882 0.692455,2.641553 0.718833,0.159256 1.591089,1.120738 2.231965,0.767742 0.159928,-2.468647 0.97594,-4.903314 2.523312,-6.840965 1.124136,-1.578862 2.671563,-2.769759 4.155236,-3.973721 0.440562,-0.944736 -0.439517,-1.923913 -0.652589,-2.827054 -1.305392,-2.963531 -2.796295,-5.923403 -4.743601,-8.492334 l -0.148099,0.05683 z"
     id="path18370" />
  <path
     style="fill:url(#linearGradient19204);stroke:#000000;stroke-width:0.793147;stroke-linecap:round;stroke-linejoin:round;paint-order:fill markers stroke;fill-opacity:1"
     d="m 31.882969,52.973249 c -1.15723,2.740153 -1.496789,5.898135 -0.787881,8.796808 0.762791,2.54327 2.633155,4.663154 5.047949,5.759302 1.885627,0.902292 3.920061,1.650888 5.996007,1.884034 C 42.620328,69.029099 41.866405,68.2893 41.872906,67.799834 40.046211,62.064751 36.868901,56.528571 32.023938,52.869148 l -0.127607,0.09423 z"
     id="path18372" />
  <path
     style="fill:url(#linearGradient18382);stroke:#000000;stroke-width:0.793147;stroke-linecap:round;stroke-linejoin:round;paint-order:fill markers stroke;fill-opacity:1"
     d="m 20.30116,52.476602 c 0.03845,3.717064 1.312506,7.812448 4.622562,9.881189 1.358853,0.80999 2.98071,1.435889 4.572369,1.305595 0.365515,-0.497431 -0.494944,-1.017206 -0.658064,-1.475068 -1.346538,-2.152617 -2.222086,-4.553378 -2.794605,-6.994877 -0.658798,-0.592928 -1.668905,-0.657707 -2.412511,-1.157903 -1.107734,-0.484335 -2.134565,-1.18832 -3.20861,-1.685654 l -0.109616,0.114663 z"
     id="path18374" />
  <path
     style="fill:url(#linearGradient19956);stroke:#000000;stroke-width:0.793147;stroke-linecap:round;stroke-linejoin:round;paint-order:fill markers stroke;fill-opacity:1"
     d="m 35.728184,69.390776 c -2.688565,3.554946 -5.538727,7.005435 -7.996535,10.725147 -0.0097,0.709733 0.950319,1.043169 1.381486,1.523671 3.167479,2.59143 7.060322,4.33415 11.102217,4.900822 0.771129,-0.679429 0.718075,-1.908748 1.073537,-2.82094 0.790813,-2.922771 1.880409,-5.89331 4.057443,-8.0932 0.295181,-0.524799 1.076515,-1.199378 0.700511,-1.834772 -2.055398,-0.54329 -3.833453,-1.760875 -5.572789,-2.932786 -1.467241,-0.611977 -3.054283,-0.900769 -4.520319,-1.533934 l -0.152247,0.04454 z"
     id="path19948" />
</svg>
