<?xml version="1.0" encoding="UTF-8" standalone="no"?>
<svg
   version="1.1"
   x="0px"
   y="0px"
   viewBox="0 0 100 125"
   style="enable-background:new 0 0 100 100;"
   xml:space="preserve"
   id="svg138"
   sodipodi:docname="asaparagus.svg"
   inkscape:version="1.2.2 (b0a8486541, 2022-12-01)"
   xmlns:inkscape="http://www.inkscape.org/namespaces/inkscape"
   xmlns:sodipodi="http://sodipodi.sourceforge.net/DTD/sodipodi-0.dtd"
   xmlns:xlink="http://www.w3.org/1999/xlink"
   xmlns="http://www.w3.org/2000/svg"
   xmlns:svg="http://www.w3.org/2000/svg"><defs
     id="defs142"><linearGradient
       inkscape:collect="always"
       id="linearGradient4435"><stop
         style="stop-color:#55d400;stop-opacity:1;"
         offset="0"
         id="stop4431" /><stop
         style="stop-color:#a4d486;stop-opacity:1;"
         offset="0.99999988"
         id="stop4433" /></linearGradient><linearGradient
       inkscape:collect="always"
       id="linearGradient4390"><stop
         style="stop-color:#afd49b;stop-opacity:1;"
         offset="0.00000042"
         id="stop4388" /><stop
         style="stop-color:#55d400;stop-opacity:1;"
         offset="1"
         id="stop4386" /></linearGradient><inkscape:path-effect
       effect="fill_between_many"
       method="originald"
       linkedpaths="#path132,0,1"
       id="path-effect304" /><linearGradient
       inkscape:collect="always"
       xlink:href="#linearGradient4390"
       id="linearGradient4392"
       x1="39.067398"
       y1="71.063718"
       x2="75.509956"
       y2="71.063718"
       gradientUnits="userSpaceOnUse"
       gradientTransform="matrix(1.0954435,0,0,1.0954435,-8.6141532,3.4070251)" /><linearGradient
       inkscape:collect="always"
       xlink:href="#linearGradient4435"
       id="linearGradient4437"
       x1="26.167089"
       y1="69.0121"
       x2="23.88233"
       y2="91.666756"
       gradientUnits="userSpaceOnUse"
       gradientTransform="matrix(1.0954435,0,0,1.0954435,-8.6141532,3.4070251)" /></defs><sodipodi:namedview
     id="namedview140"
     pagecolor="#ffffff"
     bordercolor="#000000"
     borderopacity="0.25"
     inkscape:showpageshadow="2"
     inkscape:pageopacity="0.0"
     inkscape:pagecheckerboard="0"
     inkscape:deskcolor="#d1d1d1"
     showgrid="false"
     showguides="true"
     inkscape:zoom="5.2436454"
     inkscape:cx="78.47594"
     inkscape:cy="51.87231"
     inkscape:window-width="1857"
     inkscape:window-height="1011"
     inkscape:window-x="0"
     inkscape:window-y="0"
     inkscape:window-maximized="1"
     inkscape:current-layer="svg138"><sodipodi:guide
       position="124.8453,2.9393564"
       orientation="0,-1"
       id="guide194"
       inkscape:locked="false" /></sodipodi:namedview><path
     d="M 0,0"
     id="path306"
     style="fill:#7fff2a"
     inkscape:original-d="M 0,0"
     inkscape:path-effect="#path-effect304"
     class="UnoptimicedTransforms" /><path
     d="m 54.9,67.7 c 0,0 0,0 0,0 0,0 0,0 0,0 -0.2,-4.1 -0.4,-8.6 -0.7,-13.8 -0.3,-5.7 -0.5,-10.7 -0.6,-13.5 0,-1 -0.1,-2 -0.1,-2.9 0,0 0,0 0,0 0,0 0,0 0,0 -0.1,-5.1 0,-8.5 0.2,-11.6 0,-0.9 0.1,-1.7 0.1,-2.5 0,-0.1 0,-0.1 0,-0.2 0.3,-0.5 0.5,-1.1 0.6,-1.9 0.2,-1.4 0.2,-6.5 -1,-8.1 0,0 0,-0.1 0,-0.1 -0.1,-0.5 -0.1,-1.1 -0.2,-1.6 0,-0.4 -0.1,-0.8 -0.3,-1.3 C 53,9.4 52.8,8.4 52.3,7.4 51.6,6.1 48.5,2 46.7,1.5 c 0,0 0,0 -0.1,0 -0.2,-0.2 -0.4,-0.4 -0.4,-0.4 -0.4,-0.4 -1,-0.3 -1.4,0 -0.2,0.2 -5.4,5.4 -5.5,11.6 -0.6,1.8 -0.5,4.7 -0.2,6 0.3,1.3 0.6,2.6 1.7,3.1 1.6,6.1 2.3,12.4 2.3,18.7 0.1,6.4 0.5,19.4 0.9,32.1 0.3,9.8 0.6,19 0.8,24.8 0,0.4 0.3,0.8 0.8,0.9 0.1,0 2.1,0.5 4.4,0.5 1.5,0 3.1,-0.2 4.5,-0.8 1.3,-0.2 1.8,-1.7 0.4,-30.3 z m -1.5,10.2 c -0.3,0.1 -0.7,0.1 -1,-0.1 -0.5,-0.3 -0.7,-1.2 -0.6,-2.4 0.1,-3 0.6,-5 1.2,-5.9 0.1,2.8 0.3,5.7 0.4,8.4 z M 45.6,54.7 c 0,-0.1 0,-0.2 0,-0.3 0,-1.1 0.8,-2.7 1.7,-4 0.6,1.5 0.8,2.4 0.8,5.2 0,3.4 -0.4,3.4 -1.3,3.4 -0.5,0 -0.9,-0.3 -1.2,-0.8 0.1,-1.1 0.1,-2.3 0,-3.5 z m 5.5,-42.1 c 0.1,0 0.1,-0.1 0.2,-0.1 0,0.1 0,0.2 0,0.3 -0.4,0.1 -0.7,0.3 -1.1,0.6 0,-0.2 -0.1,-0.3 -0.1,-0.5 0.2,-0.1 0.4,-0.1 0.6,-0.2 z m -4.9,7.5 c -0.1,0 -0.2,0 -0.3,0 0.1,-0.2 0.2,-0.4 0.3,-0.6 0.2,0.1 0.4,0.1 0.6,0.2 0,0.2 -0.1,0.4 -0.1,0.5 -0.2,0 -0.4,-0.1 -0.5,-0.1 z m 3,-1.4 c 0,-0.1 0.1,-0.1 0.1,-0.2 0.2,-0.6 0.5,-1.2 0.8,-1.7 0,0 0,0 0,0 0.6,-1.1 1.3,-2 1.9,-2.2 0.5,1 0.8,4.7 0.5,6.3 -0.1,0.8 -0.4,1.5 -0.8,1.7 -0.1,0.1 -0.3,0.1 -0.6,0 l -0.4,-0.1 c -1.6,-0.5 -2.1,-0.8 -2,-1.6 -0.1,-0.6 0.1,-1.4 0.5,-2.2 z m -1.1,-5.5 c 0.3,0.9 0.4,1.8 0.2,2.7 -0.3,0.6 -0.6,1.3 -0.9,1.9 0,0 0,0 0,0 -0.2,0 -0.7,-0.2 -1,-0.3 -0.1,0 -0.1,-0.1 -0.2,-0.1 -0.1,-0.6 -0.4,-1.4 -0.7,-2.2 0.2,-1.1 0.6,-2.1 0.9,-2.6 0.6,0.4 1.1,0.6 1.7,0.6 z M 45,10.1 c -0.1,1.1 -0.9,2 -1.3,2.2 -0.6,-0.6 -1.3,-1 -2.1,-1.1 0.5,-2.2 1.5,-4.2 2.6,-5.7 0,1.5 0.4,3.3 0.8,4.6 z m -3.6,3.4 c 0,0 0,0 0,0 0,-0.1 0.1,-0.2 0.1,-0.2 0.4,0 0.7,0.3 1.1,0.8 0,0 0,0 0,0 0.8,1 1.6,2.9 1.8,4.2 0.1,0.9 -0.3,1.2 -1.9,1.8 l -0.4,0.2 c -0.2,0.1 -0.2,0.1 -0.2,0.1 C 41.7,20.2 41.4,19.2 41.3,18.6 40.9,17 41,14.4 41.4,13.5 Z M 43,22 43.2,21.9 c 0.5,-0.2 1.1,-0.4 1.7,-0.8 -0.4,0.6 -1,1.5 -1.5,2.5 C 43.2,23.1 43.1,22.5 43,22 Z m 1.2,5.7 c 0,0 0,-0.1 0,-0.1 0,-1.6 1.1,-3.4 1.8,-4.6 0.8,1.6 1.2,3.4 1.2,5.3 0,0.4 -0.2,0.8 -0.7,1.2 -0.5,0.5 -1.3,0.9 -2,1 0,-1 -0.2,-1.9 -0.3,-2.8 z m 5.3,4 c 0.9,1.9 2,4.3 2,5.8 0,0 0,0 0,0 0,0.2 0,0.4 0,0.6 -1.1,0 -2.5,0.1 -2.8,-0.3 0,0 -0.1,-0.1 -0.1,-0.3 0.1,-1.9 0.4,-3.9 0.9,-5.8 z m 0.6,-3 c -0.2,-0.3 -0.5,-0.5 -0.9,-0.5 0,-1.4 -0.2,-2.9 -0.6,-4.2 0.5,0.2 1,0.4 1.4,0.5 l 0.4,0.1 c 0.3,0.1 0.6,0.1 0.9,0.1 0.2,0 0.3,0 0.4,-0.1 0,0.4 0,0.8 0,1.1 -0.1,1.6 -0.1,3.4 -0.2,5.5 -0.7,-1.3 -1.3,-2.4 -1.4,-2.5 z M 50.6,8.4 c 0.4,0.8 0.5,1.4 0.3,1.8 0,0.1 -0.2,0.3 -0.5,0.4 L 50,10.7 c -1.6,0.6 -2.1,0.6 -2.6,-0.1 -0.2,-0.3 -0.3,-0.6 -0.5,-1 0,-0.1 0,-0.1 -0.1,-0.2 -0.7,-2 -1.1,-5 -0.5,-5.9 1.1,0.7 3.6,3.5 4.3,4.9 z m 3,88.1 c -2.4,0.8 -5.3,0.4 -6.6,0.2 -0.1,-5.8 -0.4,-14.6 -0.7,-24 -0.1,-4 -0.3,-8 -0.4,-11.9 0.3,0.1 0.7,0.2 1.1,0.2 2.8,0 3.3,-1.8 3.3,-5.4 C 50.3,52 49.9,51 49.1,49.1 49,48.8 48.8,48.4 48.7,48 48.6,47.7 48.3,47.4 47.9,47.4 47.5,47.3 47.2,47.5 47,47.8 46.9,48 46.3,48.7 45.6,49.7 45.5,46.1 45.4,43 45.4,40.8 45.4,38 45.3,35.3 45,32.5 c 1,-0.2 1.9,-0.6 2.7,-1.2 -0.6,2.1 -0.9,4.2 -0.9,6.4 0,0.9 0.4,1.5 0.7,1.8 0.7,0.7 1.8,0.9 3.1,0.9 0.4,0 0.8,0 1.2,0 0,0.1 0,0.2 0,0.3 0.1,2.8 0.4,7.8 0.6,13.5 0.2,3.7 0.4,8.2 0.6,12.9 -1.8,0.8 -3,3.8 -3.1,8.4 -0.1,2 0.5,3.4 1.5,4.1 0.6,0.4 1.2,0.5 1.7,0.5 0.2,0 0.3,0 0.5,0 0.1,7.9 0.3,14.7 0,16.4 z"
     id="path557"
     transform="matrix(1.0892902,0.11594534,-0.11594534,1.0892902,-26.35358,3.3729003)"
     class="UnoptimicedTransforms" /><path
     style="fill:#892ca0;stroke-width:0.0560353"
     d="m 21.027168,33.636703 c -0.883054,1.062945 -1.647785,2.254037 -2.200421,3.528594 -0.360783,0.777217 -0.434334,1.640731 -0.368758,2.485249 0.04669,0.69741 -0.02366,1.402925 0.0472,2.096097 0.148888,0.310783 0.559572,0.0763 0.810808,0.04569 0.911589,-0.253778 1.817696,-0.727276 2.393461,-1.496658 0.343788,-0.630345 0.256417,-1.390286 0.294683,-2.083254 -0.02642,-1.530517 -0.220444,-3.096699 -0.803282,-4.51569 -0.03003,-0.0795 -0.110336,-0.04937 -0.173694,-0.06003 z"
     id="path559" /><path
     style="fill:#892ca0;stroke-width:0.0560353"
     d="m 17.400832,22.556179 c -0.403522,-0.0042 -0.442366,0.516659 -0.582313,0.795954 -0.652734,2.143109 -0.735362,4.467942 -0.230311,6.651253 0.06113,0.249315 0.191852,0.680926 0.534645,0.51956 0.833333,-0.333652 1.820774,-0.413857 2.535923,-1.01417 0.558467,-0.580057 0.337611,-1.457941 0.231534,-2.165925 C 19.555102,25.80391 19.120311,24.195241 18.074981,22.973752 17.892314,22.78393 17.6766,22.579456 17.400832,22.556179 Z"
     id="path561" /><path
     style="fill:#892ca0;stroke-width:0.0560353"
     d="m 19.940401,31.536713 c -0.663176,0.195285 -1.321396,0.402019 -1.969109,0.644049 -0.333528,0.197957 -0.07959,0.651516 -0.102522,0.952794 0.07582,0.331943 0.0215,0.732989 0.239729,1.013216 0.308568,0.110146 0.402985,-0.352031 0.587834,-0.516652 0.443395,-0.642916 0.945052,-1.2339 1.410463,-1.858542 0.04334,-0.126225 -0.03781,-0.232344 -0.1664,-0.234865 z"
     id="path563" /><path
     style="fill:#892ca0;stroke-width:0.0560353"
     d="m 22.744184,22.392356 c -0.345038,0.05884 -0.428346,0.503246 -0.607684,0.754072 -0.329857,0.667573 -0.648633,1.3577 -0.837446,2.075126 0.241948,0.836836 0.362156,1.704294 0.581229,2.543771 0.337136,0.300443 0.799076,0.453597 1.219371,0.611205 0.327382,-0.02323 0.422364,-0.452129 0.618585,-0.66211 0.46785,-0.751301 1.017822,-1.515726 1.060925,-2.433366 0.04668,-0.648992 0.06526,-1.336735 -0.152755,-1.955446 -0.259048,-0.263636 -0.690595,-0.227199 -0.995794,-0.429578 -0.322152,-0.120129 -0.552473,-0.423091 -0.886431,-0.503674 z"
     id="path565" /><path
     style="fill:#892ca0;stroke-width:0.0560353"
     d="m 28.518895,25.161823 c -0.946582,0.371092 -1.572937,1.237108 -2.197221,1.996098 -0.714088,0.930359 -1.241382,1.97209 -1.80469,2.990357 -0.303958,0.685689 -0.413926,1.456443 -0.409445,2.19949 0.242247,0.709441 1.017569,1.016506 1.635564,1.327322 0.5226,0.168392 1.046233,0.610563 1.621341,0.455878 0.938828,-0.521761 1.152855,-1.675287 1.358593,-2.635563 0.299571,-1.841764 0.374454,-3.73207 0.15831,-5.587191 -0.07774,-0.228595 -0.02569,-0.781381 -0.362452,-0.746391 z"
     id="path567" /><path
     style="fill:#892ca0;stroke-width:0.0560353"
     d="m 23.878744,35.093902 c -0.312425,0.106236 -0.103651,0.519485 -0.109468,0.755372 0.173413,1.296219 0.161744,2.598626 0.08283,3.899738 0.09825,0.303418 0.56648,0.21164 0.711774,0.51183 0.630817,0.92679 0.918344,2.044101 1.41243,3.035055 0.273875,0.202787 0.325287,-0.259989 0.358349,-0.446773 0.327844,-2.149519 0.631035,-4.304512 0.89155,-6.463054 0.05556,-0.199794 -0.10938,-0.389537 -0.313913,-0.316273 -1.055135,0.0046 -2.009092,-0.557725 -2.955719,-0.96684 -0.0253,-0.0069 -0.05156,-0.01052 -0.07783,-0.0091 z"
     id="path569" /><path
     style="fill:#892ca0;stroke-width:0.0560353"
     d="m 23.844224,43.531124 c -0.259656,0.313585 -0.315376,0.766637 -0.475334,1.142371 -0.527614,1.669188 -0.99842,3.367573 -1.247521,5.102545 -0.08605,0.402737 0.200672,0.781062 0.600797,0.844071 0.838382,0.238253 1.719462,0.261635 2.578901,0.381261 0.337247,-0.09043 0.142508,-0.565524 0.223216,-0.824452 0.111402,-1.964414 -0.610803,-3.84393 -1.186891,-5.687581 -0.13503,-0.309469 -0.159282,-0.682098 -0.366431,-0.950448 -0.04224,-0.0026 -0.0845,-0.0051 -0.126737,-0.0078 z"
     id="path571" /><path
     style="fill:#892ca0;stroke-width:0.0560353"
     d="m 23.697542,12.475083 c -0.358428,0.05218 -0.401296,0.527268 -0.501554,0.806791 -0.393309,1.870108 -0.198928,3.814415 0.172566,5.671457 0.273374,0.687346 0.381754,1.507242 0.95096,2.030614 0.634351,0.492627 1.495251,0.19128 2.203934,0.07849 0.512842,-0.15257 1.242871,-0.08366 1.522524,-0.640704 0.430588,-0.924489 -0.0631,-1.928096 -0.440279,-2.779162 -0.858673,-1.60287 -1.908651,-3.108874 -3.106814,-4.476461 -0.252798,-0.227876 -0.4537,-0.603214 -0.801337,-0.691023 z"
     id="path573" /><path
     style="fill:#892ca0;fill-opacity:1;stroke-width:0.0560353"
     d="m 20.950557,14.471216 c -1.473058,1.727752 -2.657244,3.708629 -3.422432,5.848839 0.0054,0.338518 0.480784,0.269048 0.70044,0.43633 0.578892,0.267899 1.080841,0.676758 1.491743,1.158479 0.289783,0.150601 0.520635,-0.231573 0.745059,-0.360284 0.581048,-0.507627 1.041724,-1.20847 1.164653,-1.968767 -0.284398,-1.559872 -0.415396,-3.145215 -0.372453,-4.730379 0.01133,-0.189181 -0.02458,-0.584298 -0.30701,-0.384218 z"
     id="path575" /><path
     style="fill:url(#linearGradient4437);fill-opacity:1;stroke-width:0.120047"
     d="m 21.686851,43.114178 c -0.90782,0.290051 -1.818883,0.611816 -2.756445,0.788891 -0.405088,0.390533 -0.02352,1.085868 -0.16716,1.577425 -0.216379,5.613156 -0.959546,11.224209 -1.265481,16.842542 0.05913,1.043563 0.890828,-0.348173 1.214872,-0.603771 0.472048,-0.477559 1.150967,-1.471856 1.922292,-0.898191 0.664055,0.853553 0.694052,2.044451 1.026166,3.042068 0.714119,2.666014 0.233539,5.50454 -0.186007,8.164887 -0.214034,1.325779 -0.865913,2.913501 -2.381492,3.087562 -0.86964,0.05864 -1.746879,-0.225973 -2.603647,-0.152636 -0.738082,9.766645 -1.430141,19.568884 -2.19242,29.344385 -0.251647,3.26844 -0.515623,6.53591 -0.773204,9.80389 0.377298,0.41054 1.144568,0.36748 1.692964,0.54521 1.813197,0.25954 3.692701,0.51987 5.511471,0.20112 0.51729,-0.28063 0.262838,-1.09438 0.452947,-1.5705 0.688635,-5.42843 1.189013,-10.87845 1.654697,-16.329846 C 22.46279,96.536969 21.656937,96.69342 21.166947,96.332921 19.527702,95.637423 19.185484,93.62225 19.3157,92.02907 c 0.37166,-2.928883 0.911719,-6.101135 2.946243,-8.384795 0.379879,-0.482364 1.029767,-0.643318 1.43713,-1.056412 0.6501,-9.711671 1.182207,-19.431057 1.804379,-29.144571 -0.406377,-0.413929 -1.233224,-0.240714 -1.802923,-0.423401 -1.234811,-0.145326 -2.683932,-0.548834 -3.144629,-1.854693 -0.416682,-1.38982 0.06793,-2.850038 0.314491,-4.222259 0.267883,-1.238951 0.745035,-2.436427 1.047078,-3.662737 -0.01915,-0.106565 -0.125663,-0.175587 -0.230618,-0.166024 z"
     id="path1407" /><path
     style="fill:#55d400;fill-opacity:1;stroke-width:0.120047"
     d="m 23.866063,35.026187 c -0.473973,0.122701 -0.161131,0.837556 -0.219459,1.186729 0.16326,1.225641 0.04115,2.492068 0.112448,3.698663 1.174493,0.585393 1.355164,2.050007 1.948701,3.099113 0.04704,0.383936 0.596438,0.676505 0.651594,0.14528 0.492579,-2.306066 0.682787,-4.664049 0.984406,-6.999892 -0.338231,-0.416231 -1.116249,-0.206438 -1.603328,-0.479077 -0.640594,-0.168974 -1.218324,-0.542106 -1.874367,-0.650817 z"
     id="path1409" /><path
     style="fill:#55d400;fill-opacity:1;stroke-width:0.120047"
     d="m 20.033573,31.425618 c -0.783237,0.141554 -1.623459,0.367039 -2.300378,0.731589 -0.0087,0.653407 -0.111109,1.522644 0.330224,2.082749 0.492782,0.0822 0.703606,-0.641979 1.030393,-0.910282 0.362571,-0.58666 1.010686,-1.106702 1.131625,-1.792618 -0.03098,-0.07731 -0.114121,-0.113387 -0.191864,-0.111438 z"
     id="path1411" /><path
     style="fill:#55d400;fill-opacity:1;stroke-width:0.0689666"
     d="m 21.696784,29.87704 c -0.244614,0.101197 -0.423653,0.427901 -0.44517,0.687628 0.22318,0.220264 0.587422,0.304204 0.89444,0.351363 0.241782,-0.110924 0.371099,-0.499802 0.2704,-0.742129 -0.183974,-0.180327 -0.475264,-0.241209 -0.71967,-0.296862 z"
     id="path1415" /><path
     style="fill:#55d400;fill-opacity:1;stroke-width:0.0455272"
     d="m 28.001724,22.827156 c -0.442346,0.117447 -0.924267,0.126824 -1.346449,0.300503 -0.133735,0.200166 -0.07461,0.512321 0.04721,0.708585 0.2265,0.15424 0.449791,-0.135501 0.668436,-0.198281 0.254481,-0.177142 0.737265,-0.118779 0.809512,-0.494544 0.04817,-0.137361 -0.0049,-0.321243 -0.178715,-0.316263 z"
     id="path1421" /><path
     style="fill:#892ca0;fill-opacity:1;stroke-width:0.0455272"
     d="m 19.242632,63.668126 c -0.769408,0.80815 -1.379954,1.764884 -1.901101,2.749482 -0.367851,0.684705 -0.4988,1.45854 -0.526532,2.227386 -0.05003,1.08856 -0.17358,2.162215 -0.352536,3.238535 -0.05843,0.440575 0.317404,0.776143 0.610826,1.046966 0.441003,0.338096 1.06891,0.38291 1.583002,0.209632 0.558756,-0.311003 0.655931,-1.023073 0.789269,-1.587857 0.265407,-1.553716 0.400729,-3.129331 0.476497,-4.702871 0.02893,-1.054912 -0.162291,-2.108353 -0.453594,-3.117263 -0.0691,-0.07128 -0.127394,-0.109216 -0.225864,-0.06401 z"
     id="path1630" /><path
     style="fill:#892ca0;fill-opacity:1;stroke-width:0.0455272"
     d="m 23.169056,85.187903 c -0.567458,0.7013 -0.845424,1.58412 -1.146635,2.421755 -0.484843,1.597028 -0.809502,3.24801 -0.947477,4.911671 -0.06259,0.721256 0.09321,1.626207 0.82237,1.963857 0.299286,0.07858 0.637876,0.168971 0.940705,0.07411 0.178935,-0.229534 0.08114,-0.565109 0.136979,-0.838539 0.164049,-2.735831 0.310066,-5.47379 0.468684,-8.207811 0.02514,-0.178213 -0.0344,-0.458626 -0.274625,-0.325041 z"
     id="path1632" /><path
     d="m 54.9,67.7 c 0,0 0,0 0,0 0,0 0,0 0,0 -0.2,-4.1 -0.4,-8.6 -0.7,-13.8 -0.3,-5.7 -0.5,-10.7 -0.6,-13.5 0,-1 -0.1,-2 -0.1,-2.9 0,0 0,0 0,0 0,0 0,0 0,0 -0.1,-5.1 0,-8.5 0.2,-11.6 0,-0.9 0.1,-1.7 0.1,-2.5 0,-0.1 0,-0.1 0,-0.2 0.3,-0.5 0.5,-1.1 0.6,-1.9 0.2,-1.4 0.2,-6.5 -1,-8.1 0,0 0,-0.1 0,-0.1 -0.1,-0.5 -0.1,-1.1 -0.2,-1.6 0,-0.4 -0.1,-0.8 -0.3,-1.3 C 53,9.4 52.8,8.4 52.3,7.4 51.6,6.1 48.5,2 46.7,1.5 c 0,0 0,0 -0.1,0 -0.2,-0.2 -0.4,-0.4 -0.4,-0.4 -0.4,-0.4 -1,-0.3 -1.4,0 -0.2,0.2 -5.4,5.4 -5.5,11.6 -0.6,1.8 -0.5,4.7 -0.2,6 0.3,1.3 0.6,2.6 1.7,3.1 1.6,6.1 2.3,12.4 2.3,18.7 0.1,6.4 0.5,19.4 0.9,32.1 0.3,9.8 0.6,19 0.8,24.8 0,0.4 0.3,0.8 0.8,0.9 0.1,0 2.1,0.5 4.4,0.5 1.5,0 3.1,-0.2 4.5,-0.8 1.3,-0.2 1.8,-1.7 0.4,-30.3 z m -1.5,10.2 c -0.3,0.1 -0.7,0.1 -1,-0.1 -0.5,-0.3 -0.7,-1.2 -0.6,-2.4 0.1,-3 0.6,-5 1.2,-5.9 0.1,2.8 0.3,5.7 0.4,8.4 z M 45.6,54.7 c 0,-0.1 0,-0.2 0,-0.3 0,-1.1 0.8,-2.7 1.7,-4 0.6,1.5 0.8,2.4 0.8,5.2 0,3.4 -0.4,3.4 -1.3,3.4 -0.5,0 -0.9,-0.3 -1.2,-0.8 0.1,-1.1 0.1,-2.3 0,-3.5 z m 5.5,-42.1 c 0.1,0 0.1,-0.1 0.2,-0.1 0,0.1 0,0.2 0,0.3 -0.4,0.1 -0.7,0.3 -1.1,0.6 0,-0.2 -0.1,-0.3 -0.1,-0.5 0.2,-0.1 0.4,-0.1 0.6,-0.2 z m -4.9,7.5 c -0.1,0 -0.2,0 -0.3,0 0.1,-0.2 0.2,-0.4 0.3,-0.6 0.2,0.1 0.4,0.1 0.6,0.2 0,0.2 -0.1,0.4 -0.1,0.5 -0.2,0 -0.4,-0.1 -0.5,-0.1 z m 3,-1.4 c 0,-0.1 0.1,-0.1 0.1,-0.2 0.2,-0.6 0.5,-1.2 0.8,-1.7 0,0 0,0 0,0 0.6,-1.1 1.3,-2 1.9,-2.2 0.5,1 0.8,4.7 0.5,6.3 -0.1,0.8 -0.4,1.5 -0.8,1.7 -0.1,0.1 -0.3,0.1 -0.6,0 l -0.4,-0.1 c -1.6,-0.5 -2.1,-0.8 -2,-1.6 -0.1,-0.6 0.1,-1.4 0.5,-2.2 z m -1.1,-5.5 c 0.3,0.9 0.4,1.8 0.2,2.7 -0.3,0.6 -0.6,1.3 -0.9,1.9 0,0 0,0 0,0 -0.2,0 -0.7,-0.2 -1,-0.3 -0.1,0 -0.1,-0.1 -0.2,-0.1 -0.1,-0.6 -0.4,-1.4 -0.7,-2.2 0.2,-1.1 0.6,-2.1 0.9,-2.6 0.6,0.4 1.1,0.6 1.7,0.6 z M 45,10.1 c -0.1,1.1 -0.9,2 -1.3,2.2 -0.6,-0.6 -1.3,-1 -2.1,-1.1 0.5,-2.2 1.5,-4.2 2.6,-5.7 0,1.5 0.4,3.3 0.8,4.6 z m -3.6,3.4 c 0,0 0,0 0,0 0,-0.1 0.1,-0.2 0.1,-0.2 0.4,0 0.7,0.3 1.1,0.8 0,0 0,0 0,0 0.8,1 1.6,2.9 1.8,4.2 0.1,0.9 -0.3,1.2 -1.9,1.8 l -0.4,0.2 c -0.2,0.1 -0.2,0.1 -0.2,0.1 C 41.7,20.2 41.4,19.2 41.3,18.6 40.9,17 41,14.4 41.4,13.5 Z M 43,22 43.2,21.9 c 0.5,-0.2 1.1,-0.4 1.7,-0.8 -0.4,0.6 -1,1.5 -1.5,2.5 C 43.2,23.1 43.1,22.5 43,22 Z m 1.2,5.7 c 0,0 0,-0.1 0,-0.1 0,-1.6 1.1,-3.4 1.8,-4.6 0.8,1.6 1.2,3.4 1.2,5.3 0,0.4 -0.2,0.8 -0.7,1.2 -0.5,0.5 -1.3,0.9 -2,1 0,-1 -0.2,-1.9 -0.3,-2.8 z m 5.3,4 c 0.9,1.9 2,4.3 2,5.8 0,0 0,0 0,0 0,0.2 0,0.4 0,0.6 -1.1,0 -2.5,0.1 -2.8,-0.3 0,0 -0.1,-0.1 -0.1,-0.3 0.1,-1.9 0.4,-3.9 0.9,-5.8 z m 0.6,-3 c -0.2,-0.3 -0.5,-0.5 -0.9,-0.5 0,-1.4 -0.2,-2.9 -0.6,-4.2 0.5,0.2 1,0.4 1.4,0.5 l 0.4,0.1 c 0.3,0.1 0.6,0.1 0.9,0.1 0.2,0 0.3,0 0.4,-0.1 0,0.4 0,0.8 0,1.1 -0.1,1.6 -0.1,3.4 -0.2,5.5 -0.7,-1.3 -1.3,-2.4 -1.4,-2.5 z M 50.6,8.4 c 0.4,0.8 0.5,1.4 0.3,1.8 0,0.1 -0.2,0.3 -0.5,0.4 L 50,10.7 c -1.6,0.6 -2.1,0.6 -2.6,-0.1 -0.2,-0.3 -0.3,-0.6 -0.5,-1 0,-0.1 0,-0.1 -0.1,-0.2 -0.7,-2 -1.1,-5 -0.5,-5.9 1.1,0.7 3.6,3.5 4.3,4.9 z m 3,88.1 c -2.4,0.8 -5.3,0.4 -6.6,0.2 -0.1,-5.8 -0.4,-14.6 -0.7,-24 -0.1,-4 -0.3,-8 -0.4,-11.9 0.3,0.1 0.7,0.2 1.1,0.2 2.8,0 3.3,-1.8 3.3,-5.4 C 50.3,52 49.9,51 49.1,49.1 49,48.8 48.8,48.4 48.7,48 48.6,47.7 48.3,47.4 47.9,47.4 47.5,47.3 47.2,47.5 47,47.8 46.9,48 46.3,48.7 45.6,49.7 45.5,46.1 45.4,43 45.4,40.8 45.4,38 45.3,35.3 45,32.5 c 1,-0.2 1.9,-0.6 2.7,-1.2 -0.6,2.1 -0.9,4.2 -0.9,6.4 0,0.9 0.4,1.5 0.7,1.8 0.7,0.7 1.8,0.9 3.1,0.9 0.4,0 0.8,0 1.2,0 0,0.1 0,0.2 0,0.3 0.1,2.8 0.4,7.8 0.6,13.5 0.2,3.7 0.4,8.2 0.6,12.9 -1.8,0.8 -3,3.8 -3.1,8.4 -0.1,2 0.5,3.4 1.5,4.1 0.6,0.4 1.2,0.5 1.7,0.5 0.2,0 0.3,0 0.5,0 0.1,7.9 0.3,14.7 0,16.4 z"
     id="path1653"
     transform="matrix(0.91511452,0.60213109,-0.60213109,0.91511452,49.471786,-7.4666625)"
     class="UnoptimicedTransforms" /><path
     style="fill:#892ca0;stroke-width:0.0560353"
     d="m 77.72135,41.141929 c -1.271919,0.540236 -2.497376,1.248592 -3.572551,2.12831 -0.67678,0.525546 -1.137786,1.259398 -1.466423,2.040109 -0.27803,0.641295 -0.663795,1.236177 -0.918396,1.884781 -0.01008,0.34446 0.462431,0.324191 0.699772,0.412091 0.926554,0.192079 1.948902,0.186346 2.813184,-0.233741 0.594382,-0.402783 0.864897,-1.1183 1.216401,-1.716727 0.677734,-1.372537 1.222842,-2.853559 1.354903,-4.381889 0.0097,-0.08441 -0.07545,-0.09444 -0.126889,-0.132941 z"
     id="path1655" /><path
     style="fill:#892ca0;stroke-width:0.0560353"
     d="m 79.574683,29.631347 c -0.356765,-0.188588 -0.629918,0.256568 -0.882276,0.440705 -1.562085,1.605886 -2.700679,3.634502 -3.252064,5.806573 -0.05989,0.249617 -0.141442,0.693154 0.237187,0.706775 0.89359,0.08523 1.808044,0.466343 2.718757,0.260398 0.762164,-0.259727 0.968065,-1.141239 1.198148,-1.819144 0.407126,-1.521495 0.757684,-3.150596 0.388164,-4.71527 -0.0754,-0.252417 -0.173458,-0.533 -0.407916,-0.680037 z"
     id="path1657" /><path
     style="fill:#892ca0;stroke-width:0.0560353"
     d="m 77.717492,38.777399 c -0.678949,-0.130259 -1.358738,-0.248071 -2.045358,-0.329695 -0.38716,0.02315 -0.369247,0.542645 -0.527657,0.799939 -0.0847,0.329789 -0.316717,0.661383 -0.251129,1.010451 0.223811,0.239279 0.519488,-0.128277 0.759217,-0.189912 0.68868,-0.368322 1.405352,-0.66379 2.105229,-1.005782 0.09634,-0.09235 0.07284,-0.22385 -0.0403,-0.285001 z"
     id="path1659" /><path
     style="fill:#892ca0;stroke-width:0.0560353"
     d="m 84.39928,31.93385 c -0.333651,-0.105787 -0.611311,0.251067 -0.885636,0.391852 -0.599058,0.442257 -1.198597,0.909639 -1.695126,1.46083 -0.168344,0.854688 -0.45893,1.68082 -0.64882,2.527377 0.162017,0.421516 0.502454,0.769293 0.80383,1.101948 0.301643,0.129344 0.582575,-0.208372 0.853195,-0.305116 0.760075,-0.453458 1.599158,-0.880955 2.057897,-1.676869 0.338829,-0.555485 0.670446,-1.158283 0.760132,-1.808122 -0.109467,-0.353024 -0.509755,-0.518354 -0.688315,-0.838072 -0.231313,-0.254377 -0.297231,-0.629194 -0.557157,-0.853828 z"
     id="path1661" /><path
     style="fill:#892ca0;stroke-width:0.0560353"
     d="m 88.263378,37.041292 c -1.011406,-0.103837 -1.96493,0.378968 -2.867576,0.767588 -1.060985,0.499799 -2.006962,1.184177 -2.974199,1.831197 -0.584336,0.470225 -1.035212,1.10494 -1.371664,1.767465 -0.109713,0.741588 0.43876,1.369751 0.845673,1.929169 0.387372,0.389113 0.650227,1.022053 1.232294,1.148051 1.073546,-0.03364 1.792288,-0.960917 2.415124,-1.720215 1.110105,-1.499835 2.042732,-3.145762 2.700553,-4.893749 0.03562,-0.23881 0.335162,-0.706316 0.0198,-0.829506 z"
     id="path1663" /><path
     style="fill:#892ca0;stroke-width:0.0560353"
     d="m 79.588396,43.74367 c -0.326377,-0.04872 -0.330145,0.414262 -0.443382,0.621275 -0.439736,1.231619 -1.046822,2.383942 -1.713086,3.504305 -0.05168,0.314712 0.406561,0.44766 0.398174,0.781057 0.136093,1.112811 -0.120241,2.237688 -0.135081,3.344887 0.150531,0.30573 0.408255,-0.08206 0.523219,-0.23294 1.276238,-1.760435 2.533071,-3.537032 3.753594,-5.336335 0.140924,-0.152134 0.08125,-0.39636 -0.134123,-0.424948 -0.93999,-0.479321 -1.530291,-1.416233 -2.184278,-2.213591 -0.01933,-0.0177 -0.041,-0.03301 -0.06504,-0.04371 z"
     id="path1665" /><path
     style="fill:#892ca0;stroke-width:0.0560353"
     d="m 75.692102,51.227439 c -0.374473,0.159772 -0.631573,0.536947 -0.945902,0.797638 -1.233736,1.241957 -2.430356,2.535894 -3.446671,3.963929 -0.261007,0.318554 -0.179482,0.786202 0.147308,1.02553 0.636054,0.595889 1.408506,1.02035 2.117626,1.520444 0.3412,0.07414 0.385774,-0.437385 0.576142,-0.630561 0.999041,-1.695066 1.218218,-3.696597 1.55084,-5.599301 0.02177,-0.336944 0.170931,-0.679273 0.109751,-1.01271 -0.03635,-0.02169 -0.07276,-0.04328 -0.109096,-0.06496 z"
     id="path1667" /><path
     style="fill:#892ca0;stroke-width:0.0560353"
     d="m 89.790404,23.555485 c -0.342499,-0.117845 -0.598273,0.284813 -0.815456,0.487339 -1.206412,1.482081 -1.924439,3.299373 -2.445056,5.120245 -0.07193,0.736208 -0.35123,1.514644 -0.08507,2.240642 0.338152,0.728517 1.241446,0.855089 1.923047,1.079526 0.525752,0.09935 1.14308,0.49507 1.646871,0.128059 0.806301,-0.62447 0.82729,-1.742735 0.881954,-2.672028 -0.02888,-1.818155 -0.272173,-3.637854 -0.710607,-5.402412 -0.120299,-0.318374 -0.12691,-0.744047 -0.395683,-0.981371 z"
     id="path1669" /><path
     style="fill:#892ca0;fill-opacity:1;stroke-width:0.0560353"
     d="m 86.434143,24.071222 c -2.100946,0.860847 -4.061093,2.079039 -5.721807,3.630825 -0.150364,0.303337 0.304086,0.459424 0.42269,0.708755 0.391818,0.503354 0.650662,1.096749 0.795195,1.713195 0.188578,0.266633 0.568872,0.0327 0.827327,0.02111 0.749051,-0.185001 1.479631,-0.596894 1.937237,-1.216377 0.46188,-1.516822 1.071784,-2.986002 1.836216,-4.375331 0.09674,-0.162969 0.245852,-0.530626 -0.09686,-0.482179 z"
     id="path1671" /><path
     style="fill:url(#linearGradient4392);fill-opacity:1;stroke-width:0.120047"
     d="m 73.965508,49.868404 c -0.939823,-0.158111 -1.897058,-0.289518 -2.811558,-0.561678 -0.538997,0.161537 -0.518408,0.95442 -0.871299,1.325539 -2.764064,4.890223 -5.99541,9.537224 -8.841452,14.391018 -0.425562,0.954681 0.95135,0.09867 1.356488,0.01994 0.638388,-0.208213 1.697406,-0.780958 2.120181,0.08234 0.199193,1.062943 -0.319767,2.135239 -0.481631,3.174152 -0.586708,2.696917 -2.314383,4.999812 -3.906173,7.172292 -0.797669,1.080381 -2.104537,2.192993 -3.531437,1.65333 -0.799862,-0.346313 -1.449214,-1.001213 -2.244369,-1.328565 -5.130759,8.343107 -10.236917,16.738938 -15.393242,25.078828 -1.721154,2.78992 -3.452824,5.57333 -5.179042,8.36012 0.147276,0.53779 0.849005,0.85104 1.255031,1.26027 1.492785,1.06144 3.04414,2.15396 4.80683,2.70391 0.588376,-0.0125 0.735029,-0.85233 1.122155,-1.18844 3.099201,-4.50966 6.040957,-9.12474 8.952512,-13.75697 -0.139552,-0.544718 -0.92753,-0.774871 -1.197903,-1.319799 -1.138423,-1.369245 -0.519335,-3.31726 0.326344,-4.673728 1.672259,-2.433113 3.605704,-5.005394 6.460414,-6.103129 0.558663,-0.254713 1.210072,-0.100025 1.761427,-0.280574 5.027369,-8.334552 9.953391,-16.730021 14.95678,-25.079007 -0.17157,-0.554115 -0.985889,-0.778979 -1.408578,-1.202378 -1.031001,-0.694919 -2.134208,-1.717516 -1.945414,-3.089327 0.266388,-1.426276 1.36616,-2.502187 2.214019,-3.608947 0.805753,-0.978532 1.778516,-1.824317 2.60884,-2.775964 0.0318,-0.103497 -0.03125,-0.213646 -0.128923,-0.253232 z"
     id="path1673" /><path
     style="fill:#55d400;fill-opacity:1;stroke-width:0.120047"
     d="m 79.608149,43.677671 c -0.477517,-0.108087 -0.52696,0.670653 -0.738785,0.954298 -0.416425,1.164233 -1.105197,2.233973 -1.594634,3.339146 0.775767,1.058446 0.265329,2.443072 0.312247,3.647525 -0.134089,0.362823 0.220206,0.87459 0.512619,0.427671 1.494389,-1.824111 2.743797,-3.832902 4.08209,-5.770969 -0.109943,-0.52494 -0.897618,-0.694919 -1.205655,-1.16042 -0.491986,-0.443691 -0.834558,-1.040052 -1.367887,-1.437255 z"
     id="path1675" /><path
     style="fill:#55d400;fill-opacity:1;stroke-width:0.120047"
     d="m 77.85121,38.721337 c -0.76105,-0.233026 -1.611207,-0.417558 -2.37992,-0.403658 -0.307018,0.576851 -0.79638,1.302524 -0.66071,2.002587 0.400355,0.298845 0.919542,-0.24827 1.33294,-0.337035 0.591063,-0.355349 1.405415,-0.520655 1.827174,-1.074935 0.0079,-0.0829 -0.04949,-0.153072 -0.119484,-0.186959 z"
     id="path1677" /><path
     style="fill:#55d400;fill-opacity:1;stroke-width:0.0689666"
     d="m 80.039084,38.106872 c -0.263791,-0.02213 -0.572619,0.186248 -0.710741,0.407253 0.09746,0.298039 0.382765,0.539531 0.634057,0.722113 0.265735,0.01218 0.558849,-0.274235 0.580366,-0.535768 -0.08091,-0.244577 -0.311934,-0.432151 -0.503682,-0.593598 z"
     id="path1679" /><path
     style="fill:#55d400;fill-opacity:1;stroke-width:0.0455272"
     d="m 88.873335,34.72913 c -0.446997,-0.09827 -0.879657,-0.310732 -1.334494,-0.349782 -0.210582,0.116649 -0.301049,0.421201 -0.282678,0.651473 0.130662,0.240872 0.461886,0.08563 0.684996,0.130005 0.307361,-0.04086 0.709752,0.232208 0.946131,-0.06869 0.105743,-0.100025 0.142795,-0.287805 -0.01396,-0.362998 z"
     id="path1681" /><path
     style="fill:#892ca0;fill-opacity:1;stroke-width:0.0455272"
     d="m 62.375889,67.018322 c -1.054166,0.365827 -2.0352,0.936509 -2.949537,1.572919 -0.640677,0.440077 -1.111615,1.067919 -1.48852,1.738616 -0.54321,0.944664 -1.144934,1.842398 -1.79713,2.717115 -0.25379,0.364844 -0.07347,0.835311 0.06326,1.210473 0.237091,0.502573 0.774685,0.83009 1.311034,0.911605 0.639152,-0.02044 1.05177,-0.608855 1.429052,-1.049783 0.947766,-1.259451 1.789936,-2.597967 2.578218,-3.961923 0.509032,-0.924426 0.821711,-1.948405 1.025025,-2.978658 -0.02876,-0.09502 -0.0632,-0.155444 -0.171438,-0.160377 z"
     id="path1683" /><path
     style="fill:#892ca0;fill-opacity:1;stroke-width:0.0455272"
     d="m 56.006431,87.94552 c -0.825705,0.363376 -1.477254,1.020734 -2.128763,1.627278 -1.16266,1.197414 -2.207655,2.516173 -3.092522,3.931735 -0.386089,0.612425 -0.662214,1.488191 -0.168784,2.12239 0.230024,0.206965 0.489572,0.442445 0.802209,0.496867 0.264214,-0.122044 0.331032,-0.465133 0.505942,-0.682592 1.399271,-2.356634 2.783489,-4.723422 4.177102,-7.080934 0.103991,-0.146891 0.179548,-0.42342 -0.09518,-0.414743 z"
     id="path1685" /></svg>
