<?xml version="1.0" encoding="UTF-8" standalone="no"?>
<svg
   version="1.1"
   viewBox="-5.0 -10.0 110.0 135.0"
   id="svg8688"
   sodipodi:docname="aubergine.svg"
   inkscape:version="1.2.2 (b0a8486541, 2022-12-01)"
   xmlns:inkscape="http://www.inkscape.org/namespaces/inkscape"
   xmlns:sodipodi="http://sodipodi.sourceforge.net/DTD/sodipodi-0.dtd"
   xmlns="http://www.w3.org/2000/svg"
   xmlns:svg="http://www.w3.org/2000/svg">
  <defs
     id="defs8692">
    <inkscape:path-effect
       effect="fill_between_many"
       method="originald"
       linkedpaths="#path8680,0,1|"
       id="path-effect8811" />
    <inkscape:path-effect
       effect="fill_between_many"
       method="originald"
       linkedpaths="#path8813,0,1|"
       id="path-effect8953" />
  </defs>
  <sodipodi:namedview
     id="namedview8690"
     pagecolor="#ffffff"
     bordercolor="#000000"
     borderopacity="0.25"
     inkscape:showpageshadow="2"
     inkscape:pageopacity="0.0"
     inkscape:pagecheckerboard="0"
     inkscape:deskcolor="#d1d1d1"
     showgrid="false"
     inkscape:zoom="5.837037"
     inkscape:cx="55.421954"
     inkscape:cy="67.5"
     inkscape:window-width="1857"
     inkscape:window-height="1011"
     inkscape:window-x="0"
     inkscape:window-y="0"
     inkscape:window-maximized="1"
     inkscape:current-layer="svg8688" />
  <path
     inkscape:original-d="M 0,0"
     inkscape:path-effect="#path-effect8953"
     d="M 0,0 Z"
     id="path8955"
     class="UnoptimicedTransforms"
     style="fill:#800080" />
  <path
     inkscape:original-d="M 0,0"
     inkscape:path-effect="#path-effect8811"
     d="m 90.395378,69.809188 c -5.0312,-10.555 -21.391,-18.539 -38.324,-25.594 -7.5469,-3.1445 -12.383,-6.4805 -15.105,-8.7109 0.69531,-0.30469 1.2383,-0.90234 1.4375,-1.6797 0.27344,-1.0859 -0.1875,-2.1992 -1.1484,-2.7734 -5.1406,-3.0547 -6.3242,-5.3633 -7.5781,-7.8047 -0.54297,-1.0625 -1.1094,-2.1602 -1.9688,-3.3359 -2.1094,-2.8828 -5.1992,-3.7422 -7.4219,-3.9531 -5.3477,-0.30469 -5.7031,-8.3164003 -6.2188,-11.5430003 -0.11719,-1.125 -0.94141,-2 -2.0586,-2.1797 -2.4647999,-0.4375 -3.0116999,2.4727 -3.9804999,4.0781 -1.5391,2.7227 0.019531,5.2578003 0.375,8.2500003 0.3125,2.1133 0.015625,4.2734 -0.8554701,6.2539 -1.5547,3.5352 -1.7109,9.1133 -0.3632799,12.754 l 1.2344,4.8164 c 0.24609,0.96094 1.0195,1.6289 1.9569999,1.8125 4.6406,15.242 35.473,54.141 61.289,52.449 12.68,0.5625 24.84,-10.34 18.727,-22.84 z"
     id="path8813"
     class="UnoptimicedTransforms"
     style="fill:#008000" />
  <path
     d="M 91.258,72.383 C 86.2268,61.828 69.867,53.844 52.934,46.789 45.3871,43.6445 40.551,40.3085 37.829,38.0781 38.52431,37.77341 39.0673,37.17576 39.2665,36.3984 39.53994,35.3125 39.079,34.1992 38.1181,33.625 32.9775,30.5703 31.7939,28.2617 30.54,25.8203 29.99703,24.7578 29.4306,23.6601 28.5712,22.4844 26.4618,19.6016 23.372,18.7422 21.1493,18.5313 15.8016,18.22661 15.4462,10.2149 14.9305,6.9883 c -0.11719,-1.125 -0.94141,-2 -2.0586,-2.1797 -2.4648,-0.4375 -3.0117,2.4727 -3.9805,4.0781 -1.5391,2.7227 0.019531,5.2578 0.375,8.25 0.3125,2.1133 0.015625,4.2734 -0.85547,6.2539 -1.5547,3.5352 -1.7109,9.1133 -0.36328,12.754 l 1.2344,4.8164 c 0.24609,0.96094 1.0195,1.6289 1.957,1.8125 4.6406,15.242 35.473,54.141 61.289,52.449 12.68,0.5625 24.84,-10.34 18.727,-22.84 z M 11.27,24.653 c 1.1094,-2.5195 1.4844,-5.2734 1.0859,-7.9727 -0.1875,-2.6914 -1.918,-4.8984 -0.26172,-7.1836 0.69922,5.1367 2.4648,11.695 8.7539,12.148 1.582,0.15234 3.7734,0.74219 5.1953,2.6875 2.8203,4.1797 2.6602,6.6914 8.4531,10.699 -2.9219,-0.51953 -6.3945,-2.4102 -9.3086,-7.5898 -0.27734,-0.49609 -0.85547,-0.8125 -1.3711,-0.79688 -0.56641,0.0039 -1.0898,0.31641 -1.3594,0.8125 -0.125,0.22656 -2.7617,5.1758 -0.72656,10.277 -2.0312,-1.0117 -4.3281,-3.1289 -5.7891,-7.5078 -0.21484,-0.64062 -0.8125,-1.0664 -1.4805,-1.0664 -0.75391,-0.0039 -1.4102,0.54688 -1.5391,1.2891 0,0 -0.54688,3.0898 -1.293,7.0898 l -0.57422,-2.2461 c -1.1406,-2.9258 -1.0469,-7.7578 0.21484,-10.637 z m 76.93,59.93 c -2.5391,4.25 -8,7.1836 -13.91,7.4727 -26.109,2.8906 -56.473,-37.344 -60.262,-50.793 0.56641,-1.8359 0.75391,-3.9141 1.1094,-5.5039 2.3516,3.5859 5.2891,4.9844 7.1094,5.5273 2.125,0.71484 4.0664,-1.8242 2.8789,-3.6992 -1.1797,-2.0195 -1.1602,-4.1797 -0.84766,-5.832 2.8398,3.7578 6.0078,5.4258 8.6953,6.1172 1.3828,1.4883 6.918,6.8711 18.758,11.805 11.344,5.0977 45.254,17.547 36.469,34.906 z"
     id="path8680"
     class="UnoptimicedTransforms"
     transform="translate(-0.86262195,-2.5738123)" />
  <path
     d="m72.578 85.848c-8.3398 0-16.812-3.7383-25.906-11.43-1.5586-1.3086-3.5781 1.0586-2.0156 2.3867 9.6797 8.1875 18.812 12.168 27.922 12.168 2.0469-0.035156 2.0586-3.0898 0-3.125z"
     id="path8682" />
  <path
     style="fill:#660080;stroke-width:0.17132"
     d="m 28.388226,39.274729 c -0.625154,0.392402 -0.227336,1.404268 -0.346655,2.021707 -0.109686,1.701003 0.882869,3.216381 1.293264,4.756802 0.247831,1.475953 -1.362229,2.990808 -2.849531,2.390111 -2.839144,-0.803554 -5.202119,-2.786439 -6.915698,-5.146286 -0.531084,-0.577 -0.637053,0.57146 -0.70892,0.911411 -0.206175,1.546218 -0.669565,3.05509 -0.830616,4.596922 1.187197,4.20257 3.506298,7.991395 5.784386,11.684212 7.182927,11.029736 16.021378,21.081377 26.503976,29.084523 6.525321,4.864838 13.957456,9.022089 22.145492,10.056696 3.482605,0.128002 7.065206,0.249016 10.454524,-0.687621 C 87.34912,97.615271 91.815571,94.750829 93.35624,90.168085 94.009822,88.054447 93.991841,85.757606 93.663745,83.588 91.994441,77.705056 87.121258,73.485218 82.267967,70.133372 72.176859,63.20872 60.492416,59.257423 49.573324,53.912533 45.335287,51.662821 41.302632,48.981137 37.775345,45.713275 c -1.369818,-1.157289 -3.249723,-1.301878 -4.65441,-2.422904 -1.723962,-1.051137 -2.995611,-2.650502 -4.491456,-3.960766 -0.07332,-0.03924 -0.157396,-0.06545 -0.241253,-0.05488 z m 22.332137,45.060453 c 1.353778,0.356689 2.272827,1.61043 3.430412,2.337912 6.370049,4.950099 13.918853,8.967382 22.128636,9.331801 0.935724,0.04901 2.361137,-0.02332 2.603318,1.152837 0.172687,1.107761 -1.073139,1.871124 -2.073184,1.599459 -8.61545,-0.283142 -16.662945,-4.181886 -23.436067,-9.306172 -1.340089,-1.106733 -2.95804,-2.025129 -3.96612,-3.460192 -0.207232,-0.784823 0.432357,-1.784971 1.313005,-1.655645 z"
     id="path9026"
     transform="translate(-5,-10)" />
</svg>
