<?xml version="1.0" encoding="UTF-8" standalone="no"?>
<svg
   data-name="Layer 1"
   viewBox="0 0 100 125"
   x="0px"
   y="0px"
   version="1.1"
   id="svg17769"
   sodipodi:docname="basil.svg"
   inkscape:version="1.2.2 (b0a8486541, 2022-12-01)"
   xmlns:inkscape="http://www.inkscape.org/namespaces/inkscape"
   xmlns:sodipodi="http://sodipodi.sourceforge.net/DTD/sodipodi-0.dtd"
   xmlns="http://www.w3.org/2000/svg"
   xmlns:svg="http://www.w3.org/2000/svg">
  <defs
     id="defs17773">
    <inkscape:path-effect
       effect="fill_between_many"
       method="originald"
       linkedpaths="#path17763,0,1|"
       id="path-effect17892" />
    <inkscape:path-effect
       effect="fill_between_many"
       method="originald"
       linkedpaths="#path17894,0,1|"
       id="path-effect21395" />
  </defs>
  <sodipodi:namedview
     id="namedview17771"
     pagecolor="#ffffff"
     bordercolor="#000000"
     borderopacity="0.25"
     inkscape:showpageshadow="2"
     inkscape:pageopacity="0.0"
     inkscape:pagecheckerboard="0"
     inkscape:deskcolor="#d1d1d1"
     showgrid="false"
     inkscape:zoom="6.304"
     inkscape:cx="50.047589"
     inkscape:cy="41.402284"
     inkscape:window-width="1857"
     inkscape:window-height="1011"
     inkscape:window-x="0"
     inkscape:window-y="0"
     inkscape:window-maximized="1"
     inkscape:current-layer="svg17769" />
  <path
     inkscape:original-d="M 0,0"
     inkscape:path-effect="#path-effect21395"
     d="M -0.15862944,2.366429 Z"
     id="path21397"
     class="UnoptimicedTransforms" />
  <path
     inkscape:original-d="M 0,0"
     inkscape:path-effect="#path-effect17892"
     d="M 81.32,54.45 A 29.25,29.25 0 0 0 69.83,47.11 c 6.16,-6.71 8.42,-17.64 7.6,-22.88 A 2,2 0 0 0 75.77,22.57 C 70.52,21.74 59.6,24.01 52.89,30.17 A 29.25,29.25 0 0 0 45.55,18.68 C 35.21,8.34 16.28,4.09 7.24,5.6 A 2,2 0 0 0 5.6,7.24 c -1.5,9 2.74,28 13.08,38.31 a 29.32,29.32 0 0 0 11.49,7.34 C 24,59.6 21.75,70.53 22.57,75.77 a 2,2 0 0 0 1.66,1.66 15,15 0 0 0 2.33,0.16 c 5.7,0 14.72,-2.4 20.55,-7.76 a 29.25,29.25 0 0 0 7.34,11.49 c 9,9 24.49,13.37 34.31,13.37 a 24.21,24.21 0 0 0 4,-0.29 2,2 0 0 0 1.64,-1.64 C 95.9,83.73 91.66,64.79 81.32,54.45 Z"
     id="path17894"
     class="UnoptimicedTransforms"
     style="fill:#00aa00"
     transform="translate(-0.15862944,2.366429)" />
  <path
     d="M 81.32,54.45 A 29.25,29.25 0 0 0 69.83,47.11 c 6.16,-6.71 8.42,-17.64 7.6,-22.88 A 2,2 0 0 0 75.77,22.57 C 70.52,21.74 59.6,24.01 52.89,30.17 A 29.25,29.25 0 0 0 45.55,18.68 C 35.21,8.34 16.28,4.09 7.24,5.6 A 2,2 0 0 0 5.6,7.24 c -1.5,9 2.74,28 13.08,38.31 a 29.32,29.32 0 0 0 11.49,7.34 C 24,59.6 21.75,70.53 22.57,75.77 a 2,2 0 0 0 1.66,1.66 15,15 0 0 0 2.33,0.16 c 5.7,0 14.72,-2.4 20.55,-7.76 a 29.25,29.25 0 0 0 7.34,11.49 c 9,9 24.49,13.37 34.31,13.37 a 24.21,24.21 0 0 0 4,-0.29 2,2 0 0 0 1.64,-1.64 C 95.9,83.73 91.66,64.79 81.32,54.45 Z M 54,34.82 a 15.24,15.24 0 0 1 1.1,-1.21 C 59.89,28.83 68.34,26.4 73.39,26.4 h 0.24 c 0.08,5 -2.35,13.67 -7.21,18.53 A 15.24,15.24 0 0 1 65.18,46 12.81,12.81 0 0 1 53.84,49 L 64.14,38.7 A 2.0011122,2.0011122 0 0 0 61.31,35.87 L 51,46.16 a 12.81,12.81 0 0 1 3,-11.34 z m -8,30.36 a 15.24,15.24 0 0 1 -1.1,1.21 C 40.11,71.17 31.66,73.6 26.61,73.6 H 26.4 c -0.08,-5 2.35,-13.67 7.21,-18.53 A 15.24,15.24 0 0 1 34.82,54 12.81,12.81 0 0 1 46.16,51 l -10.3,10.3 a 2.0011122,2.0011122 0 1 0 2.83,2.83 L 49,53.84 A 12.81,12.81 0 0 1 46,65.18 Z M 46.71,43.91 44.25,41.45 44.5,37.73 A 15.23,15.23 0 0 0 40.1,26 a 2.0011122,2.0011122 0 0 0 -2.83,2.83 11.22,11.22 0 0 1 3.27,8.68 v 0.22 l -4,-4 L 36.43,33.62 23.13,20.3 A 2.0011122,2.0011122 0 0 0 20.3,23.13 L 30.62,33.45 H 30.4 A 11.22,11.22 0 0 1 21.72,30.19 2,2 0 0 0 18.89,33 15.23,15.23 0 0 0 29.65,37.46 c 0.34,0 0.68,0 1,0 l 3.71,-0.24 9.53,9.53 a 16.48,16.48 0 0 0 -10.14,3 24.49,24.49 0 0 1 -12.26,-7 C 12.75,34 8.69,17.88 9.37,9.37 17.88,8.7 34,12.75 42.72,21.51 a 24.49,24.49 0 0 1 7,12.26 16.48,16.48 0 0 0 -2.98,10.14 z M 90.63,90.63 C 82.12,91.3 66,87.25 57.28,78.49 a 24.49,24.49 0 0 1 -7,-12.26 16.48,16.48 0 0 0 3,-10.14 l 9.53,9.53 -0.24,3.72 A 15.18,15.18 0 0 0 67,81.11 2.0011122,2.0011122 0 0 0 69.83,78.28 11.18,11.18 0 0 1 66.57,69.6 v -0.22 l 10.3,10.32 a 2,2 0 0 0 2.83,0 2,2 0 0 0 0,-2.83 L 62.31,59.48 h 0.22 a 11.27,11.27 0 0 1 8.68,3.27 2,2 0 0 0 1.42,0.58 2,2 0 0 0 1.37,-0.6 2,2 0 0 0 0,-2.83 15.29,15.29 0 0 0 -11.77,-4.43 l -3.72,0.25 -2.46,-2.46 h 0.59 a 16.4,16.4 0 0 0 9.55,-3 24.49,24.49 0 0 1 12.26,7 c 8.8,8.74 12.86,24.86 12.18,33.37 z"
     id="path17763"
     class="UnoptimicedTransforms"
     transform="translate(-0.15862944,2.366429)" />
</svg>
