<?xml version="1.0" encoding="UTF-8" standalone="no"?>
<svg
   version="1.1"
   viewBox="-5.0 -10.0 110.0 135.0"
   id="svg41264"
   sodipodi:docname="beetroot.svg"
   inkscape:version="1.2.2 (b0a8486541, 2022-12-01)"
   xmlns:inkscape="http://www.inkscape.org/namespaces/inkscape"
   xmlns:sodipodi="http://sodipodi.sourceforge.net/DTD/sodipodi-0.dtd"
   xmlns="http://www.w3.org/2000/svg"
   xmlns:svg="http://www.w3.org/2000/svg">
  <defs
     id="defs41268">
    <inkscape:path-effect
       effect="fill_between_many"
       method="originald"
       linkedpaths="#path41258,0,1|"
       id="path-effect41387" />
  </defs>
  <sodipodi:namedview
     id="namedview41266"
     pagecolor="#ffffff"
     bordercolor="#000000"
     borderopacity="0.25"
     inkscape:showpageshadow="2"
     inkscape:pageopacity="0.0"
     inkscape:pagecheckerboard="0"
     inkscape:deskcolor="#d1d1d1"
     showgrid="false"
     inkscape:zoom="5.837037"
     inkscape:cx="55.250635"
     inkscape:cy="68.527919"
     inkscape:window-width="1857"
     inkscape:window-height="1011"
     inkscape:window-x="0"
     inkscape:window-y="0"
     inkscape:window-maximized="1"
     inkscape:current-layer="svg41264" />
  <path
     inkscape:original-d="M 0,0"
     inkscape:path-effect="#path-effect41387"
     d="m 75.812,49.746 c -3.8516,-4.7148 -9.0078,-7.332 -14.207,-8.7188 1.6914,-0.99609 3.293,-2.3203 4.4258,-4.2031 1.6445,-2.7266 2.0938,-5.4141 2.1797,-7.1875 0.04297,-0.66016 0.37891,-1.293 0.94141,-1.7422 1.4492,-1.1406 2.7148,-2.9531 3.375,-4.8242 2.125,-5.9766 1.0703,-12.348 -2.3477,-14.203 -3.1094,-1.7031 -8.2695,0.26562 -12.078,4.4141 -1.5898,-4.7812 -4.8672,-8.2812 -8.1016,-8.2812 -3.2344,0 -6.5117,3.5 -8.1016,8.2812 -3.8125,-4.1484 -8.9727,-6.1172 -12.078,-4.4141 -3.418,1.8555 -4.4727,8.2266 -2.3477,14.203 0.66016,1.8828 1.9258,3.6836 3.3594,4.8242 0.57812,0.44922 0.91406,1.082 0.95703,1.7422 0.08594,1.7734 0.53516,4.457 2.1797,7.1875 1.1328,1.8828 2.7305,3.207 4.4219,4.2031 -5.1992,1.3906 -10.355,4.0078 -14.203,8.7227 -6.1797,7.5703 -6.3164,20.227 -0.29297,27.082 3.543,4.0352 7.2812,6.5508 10.898,8.9805 1.918,1.293 3.7305,2.5078 5.4727,3.9219 1.25,1.0117 2.2969,1.9141 3.1953,2.7422 1.8281,1.6797 4.1797,2.5234 6.5312,2.5234 2.3516,0 4.7031,-0.84375 6.5352,-2.5273 0.89844,-0.82812 1.9453,-1.7305 3.1914,-2.7422 1.7422,-1.4102 3.5508,-2.6211 5.4648,-3.9102 3.625,-2.4336 7.3711,-4.9492 10.922,-8.9922 6.0273,-6.8555 5.8906,-19.512 -0.29297,-27.082 z"
     id="path41389"
     class="UnoptimicedTransforms"
     style="fill:#008000" />
  <path
     d="m75.812 49.746c-3.8516-4.7148-9.0078-7.332-14.207-8.7188 1.6914-0.99609 3.293-2.3203 4.4258-4.2031 1.6445-2.7266 2.0938-5.4141 2.1797-7.1875 0.042968-0.66016 0.37891-1.293 0.94141-1.7422 1.4492-1.1406 2.7148-2.9531 3.375-4.8242 2.125-5.9766 1.0703-12.348-2.3477-14.203-3.1094-1.7031-8.2695 0.26562-12.078 4.4141-1.5898-4.7812-4.8672-8.2812-8.1016-8.2812s-6.5117 3.5-8.1016 8.2812c-3.8125-4.1484-8.9727-6.1172-12.078-4.4141-3.418 1.8555-4.4727 8.2266-2.3477 14.203 0.66016 1.8828 1.9258 3.6836 3.3594 4.8242 0.57812 0.44922 0.91406 1.082 0.95703 1.7422 0.085938 1.7734 0.53516 4.457 2.1797 7.1875 1.1328 1.8828 2.7305 3.207 4.4219 4.2031-5.1992 1.3906-10.355 4.0078-14.203 8.7227-6.1797 7.5703-6.3164 20.227-0.29297 27.082 3.543 4.0352 7.2812 6.5508 10.898 8.9805 1.918 1.293 3.7305 2.5078 5.4727 3.9219 1.25 1.0117 2.2969 1.9141 3.1953 2.7422 1.8281 1.6797 4.1797 2.5234 6.5312 2.5234 2.3516 0 4.7031-0.84375 6.5352-2.5273 0.89844-0.82812 1.9453-1.7305 3.1914-2.7422 1.7422-1.4102 3.5508-2.6211 5.4648-3.9102 3.625-2.4336 7.3711-4.9492 10.922-8.9922 6.0273-6.8555 5.8906-19.512-0.29297-27.082zm-16.855-33.621c3.2617-4.2461 7.9883-6.1719 10.027-5.0625s2.9805 6.1328 1.1797 11.18c-0.50781 1.4219-1.4766 2.8398-2.5586 3.6836-1.1406 0.89844-1.8281 2.207-1.8828 3.5859-0.085937 1.4922-0.44922 3.7422-1.8438 6.0312-1.4336 2.375-3.9141 3.6836-6.2852 4.6445-0.54297-0.085938-1.082-0.16016-1.6172-0.22656 1.7891-2.2148 3.6016-4.9805 3.7539-8.4141 0.011719-0.30469 0.007812-0.59375 0.003906-0.88672l2.7383-5.0195c0.32422-0.60547 0.097656-1.3633-0.50781-1.7031-0.60547-0.32422-1.3633-0.11328-1.7031 0.50781l-1.1484 2.1172c-0.27344-0.93359-0.59766-1.7383-0.90234-2.3828-0.29688-0.58984-0.29688-1.3203-0.015626-1.9844 0.73047-1.6875 0.96875-3.8672 0.66016-5.8359 0-0.027344-0.015625-0.054687-0.015625-0.085937 0.046875-0.050782 0.074218-0.09375 0.11719-0.14844zm-15.34 0.61719c0.82812-5.2891 4.0625-9.2383 6.3828-9.2383s5.5547 3.9531 6.3828 9.2539c0.23828 1.5195 0.054688 3.1914-0.47656 4.457-0.57812 1.3359-0.54688 2.8125 0.042969 4.0625 0.64844 1.3359 1.3906 3.4883 1.2812 6.1602-0.14844 3.3398-2.3711 6.0508-4.2812 8.2578-0.57422-0.03125-1.1406-0.054687-1.6953-0.066406l-0.003906-16.207c0-0.6875-0.5625-1.25-1.25-1.25s-1.25 0.5625-1.25 1.25v16.207c-0.55469 0.011719-1.1211 0.035156-1.6953 0.066406-0.90625-1.0391-1.8789-2.1992-2.6641-3.4883-0.88672-1.4219-1.5312-3.0078-1.6172-4.7656-0.11328-2.6719 0.63281-4.8242 1.2812-6.1719 0.58984-1.2383 0.60547-2.7148 0.042968-4.0508-0.55078-1.2852-0.72266-2.9453-0.48047-4.4766zm-7.5117 18.801c-1.3633-2.293-1.7422-4.543-1.8281-6.0312-0.054688-1.3789-0.75781-2.6875-1.8828-3.5859-1.0703-0.84375-2.0547-2.25-2.5586-3.6836-1.8008-5.0469-0.85938-10.07 1.1797-11.18 0.37891-0.21094 0.85938-0.30859 1.3906-0.30859 2.3633 0 5.9766 1.9258 8.6328 5.3867 0.042969 0.054687 0.085938 0.11328 0.125 0.16797-0.015624 0.015625-0.015624 0.042968-0.015624 0.054687-0.32422 1.9531-0.085938 4.1484 0.64844 5.8359 0.28125 0.66016 0.28125 1.3906-0.015625 1.9844-0.30469 0.64062-0.62109 1.4688-0.89453 2.4023l-1.1602-2.1328c-0.33594-0.61719-1.0977-0.82812-1.7031-0.50781-0.60547 0.33594-0.82813 1.0977-0.50781 1.7031l2.7422 5.0312c0 0.074218-0.015624 0.14062-0.015624 0.21484 0 0.21094 0 0.4375 0.015624 0.66016 0.15625 3.4297 1.9648 6.1992 3.7539 8.4141-0.53516 0.0625-1.0742 0.14062-1.6172 0.22656-2.3633-0.96875-4.8438-2.2773-6.2891-4.6523zm38.121 39.637c-3.332 3.8008-6.9414 6.2227-10.434 8.5664-1.8789 1.2617-3.8203 2.5625-5.6445 4.043-1.2969 1.0508-2.3789 1.9883-3.3125 2.8438-2.7109 2.5-6.9688 2.5-9.6875 0.003907-0.92969-0.85938-2.0156-1.7969-3.3125-2.8477-1.8281-1.4805-3.7734-2.7891-5.6523-4.0508-2.7539-1.8516-5.5781-3.7617-8.2891-6.3555h4.7109c0.69141 0 1.25-0.55859 1.25-1.25 0-0.69141-0.55859-1.25-1.25-1.25h-7.0703c-4.4805-5.4375-5.3594-16.273 0.58203-23.551 6.2227-7.6211 16.414-9.2188 23.871-9.2188 7.4609 0 17.66 1.5977 23.883 9.2188 1.6211 1.9844 2.7227 4.2383 3.3945 6.5703h-7.1562c-0.69141 0-1.25 0.55859-1.25 1.25s0.55859 1.25 1.25 1.25h7.7109c0.87891 5.6328-0.60547 11.379-3.5938 14.777zm-15.734-8.2578h-15.965c-0.69141 0-1.25-0.55859-1.25-1.25s0.55859-1.25 1.25-1.25h15.965c0.69141 0 1.25 0.55859 1.25 1.25s-0.55859 1.25-1.25 1.25zm-15.965-13.34h-12.078c-0.69141 0-1.25-0.55859-1.25-1.25 0-0.69141 0.55859-1.25 1.25-1.25h12.078c0.69141 0 1.25 0.55859 1.25 1.25 0 0.69141-0.55859 1.25-1.25 1.25zm25.68 19.754c0 0.69141-0.55859 1.25-1.25 1.25h-9.375c-0.69141 0-1.25-0.55859-1.25-1.25 0-0.69141 0.55859-1.25 1.25-1.25h9.375c0.69141 0 1.25 0.55859 1.25 1.25zm-11.629 12.621c0 0.69141-0.55859 1.25-1.25 1.25h-7.8438c-0.69141 0-1.25-0.55859-1.25-1.25 0-0.69141 0.55859-1.25 1.25-1.25h7.8438c0.69141 0 1.25 0.55859 1.25 1.25z"
     id="path41258"
     class="UnoptimicedTransforms" />
  <path
     style="fill:#ad0042;stroke-width:0.17132;fill-opacity:1"
     d="m 54.632276,51.709802 c -7.050933,0.08597 -14.457577,1.495962 -20.17692,5.859004 -4.199703,3.170727 -7.172577,7.986621 -7.752536,13.251651 -0.601924,4.545834 0.26164,9.385135 2.724367,13.28351 0.42505,0.910928 1.201694,1.370543 2.210761,1.135879 2.147865,0.117365 4.378193,-0.245061 6.476022,0.281525 0.722066,0.510466 -0.01345,1.666447 -0.810752,1.357685 -1.603417,0.127814 -3.28351,-0.0524 -4.838116,0.271525 -0.07314,0.890168 1.203725,1.289809 1.722567,1.950437 5.064536,4.200062 10.902012,7.389141 15.743811,11.874552 1.771603,1.63672 4.280307,2.21433 6.620448,1.75441 3.084978,-0.59592 4.988889,-3.378334 7.465812,-5.056265 5.730467,-4.414721 12.468723,-7.849803 16.732441,-13.890973 1.916923,-3.137108 2.808026,-6.85071 2.675868,-10.517764 -0.07148,-1.077816 0.167904,-2.309668 -0.445364,-3.252398 -2.742313,-0.178349 -5.54854,0.178902 -8.27187,-0.195747 -0.952977,-0.505841 0.01352,-1.901333 0.886715,-1.538532 2.295411,-0.0491 4.632854,0.09646 6.90278,-0.07068 0.412218,-0.646993 -0.312076,-1.538109 -0.483977,-2.252841 -2.583944,-6.654609 -9.03807,-11.117479 -15.779746,-12.840864 -3.777704,-1.001205 -7.699034,-1.41873 -11.602311,-1.40411 z m -13.053764,9.801367 c 2.11339,0 4.226781,0 6.34017,0 0.81984,0.46859 0.32433,1.824622 -0.572181,1.612815 -4.101066,-0.07336 -8.219525,0.149701 -12.310933,-0.130498 -0.686694,-0.344565 -0.244328,-1.639696 0.577506,-1.41177 1.985573,-0.106719 3.977799,-0.05323 5.965438,-0.07055 z m 13.929102,13.277284 c 2.726616,0 5.453234,0 8.179851,0 0.64702,0.294925 0.883835,1.36226 0.06759,1.569985 -4.844615,0.27638 -9.743474,0.05665 -14.610364,0.12849 -0.845311,-0.04415 -2.329233,0.349602 -2.432274,-0.857269 0.311097,-1.283405 1.873583,-0.732755 2.842504,-0.841206 1.984231,0 3.968462,0 5.952693,0 z m 11.789278,7.709391 c 1.712232,0.100703 3.491753,-0.192247 5.136584,0.198757 0.629348,0.539455 0.116569,1.689365 -0.744507,1.452204 -3.055959,0.02956 -6.257781,0.166074 -9.305474,-0.0783 -0.886003,-0.162719 -0.70285,-1.511837 0.162284,-1.495368 1.571212,-0.125599 3.163391,-0.05462 4.751113,-0.07729 z M 56.423438,95.175509 c 1.474396,0.08975 3.055321,-0.172074 4.452977,0.19976 0.560168,0.68866 -0.167145,1.656603 -1.019887,1.383274 -2.558199,0.03702 -5.167416,0.158322 -7.721102,-0.04183 -0.794158,-0.36413 -0.43419,-1.712143 0.480163,-1.493024 1.267677,-0.06699 2.538959,-0.03894 3.807849,-0.04818 z"
     id="path41391"
     transform="translate(-5,-10)" />
</svg>
