<?xml version="1.0" encoding="UTF-8" standalone="no"?>
<svg
   version="1.1"
   viewBox="-5.0 -10.0 110.0 135.0"
   id="svg8568"
   sodipodi:docname="blueberries.svg"
   inkscape:version="1.2.2 (b0a8486541, 2022-12-01)"
   xmlns:inkscape="http://www.inkscape.org/namespaces/inkscape"
   xmlns:sodipodi="http://sodipodi.sourceforge.net/DTD/sodipodi-0.dtd"
   xmlns="http://www.w3.org/2000/svg"
   xmlns:svg="http://www.w3.org/2000/svg">
  <defs
     id="defs8572" />
  <sodipodi:namedview
     id="namedview8570"
     pagecolor="#ffffff"
     bordercolor="#000000"
     borderopacity="0.25"
     inkscape:showpageshadow="2"
     inkscape:pageopacity="0.0"
     inkscape:pagecheckerboard="0"
     inkscape:deskcolor="#d1d1d1"
     showgrid="false"
     inkscape:zoom="7.184354"
     inkscape:cx="83.027646"
     inkscape:cy="61.661772"
     inkscape:window-width="1857"
     inkscape:window-height="1011"
     inkscape:window-x="0"
     inkscape:window-y="0"
     inkscape:window-maximized="1"
     inkscape:current-layer="svg8568" />
  <path
     id="path8550"
     d="M 11.615234,1.3691406 C 11.489746,1.3667 11.365235,1.3945326 11.25,1.453125 11.01562,1.5703149 10.859379,1.7929678 10.824219,2.0546875 9.5039201,12.507677 10.324253,19.046566 13.40625,22.601562 c 1.253899,1.429699 2.937477,2.414076 4.796875,2.796876 v 0.0039 C 11.625032,29.10934 7.1870928,35.714039 6.2460938,43.207031 5.3007847,50.703124 7.9608742,58.19888 13.417969,63.421875 9.9960722,69.753869 9.6133028,77.2886 12.375,83.933594 c 2.761697,6.644493 8.373491,11.685611 15.271484,13.724609 6.902293,2.035198 14.355256,0.84964 20.28125,-3.228515 5.929694,-4.078096 9.69892,-10.615117 10.261719,-17.78711 0.804689,0.08594 1.613282,0.128906 2.425781,0.128906 1.331999,0 2.66407,-0.113281 3.980469,-0.332031 C 76.69853,73.71626 84.58573,65.016137 84.521484,52.130859 84.337895,46.384765 82.083937,40.900636 78.181641,36.681641 87.263632,27.15045 92.578314,16.36941 93.945312,4.6074219 93.968752,4.3808621 93.894531,4.154298 93.738281,3.9863281 v -0.00195 c -0.15625,-0.1640598 -0.374999,-0.25781 -0.605469,-0.25 C 77.929828,4.2968744 65.687991,6.3437285 56.75,9.828125 50.757806,12.160123 46.125434,15.183672 42.898438,18.855469 42.218748,7.3714802 34.359298,6.3247489 26.066406,5.21875 21.308611,4.5859406 16.390571,3.9296475 11.984375,1.46875 h -0.0039 c -0.11328,-0.064455 -0.239746,-0.097169 -0.365235,-0.099609 z m 0.626954,1.9980469 c 4.406195,2.1718978 9.281485,2.8203381 13.613281,3.3984375 8.726591,1.1718988 15.625437,2.0858182 15.523437,14.003906 -0.21875,0.3125 -0.429692,0.628909 -0.632812,0.949219 -0.781249,-6.331994 -2.148404,-10.129314 -5.875,-11.695312 -0.393661,-0.1575022 -0.844284,0.02858 -1.007813,0.421874 -0.16797,0.39063 0.01563,0.847686 0.40625,1.015626 3.054697,1.285198 4.367176,4.492645 5.171875,12.648437 l -0.07031,0.15625 c -2.167998,-0.937499 -4.464809,-1.546888 -6.816406,-1.804687 -0.02344,0 -0.03906,-0.01563 -0.05859,-0.02344 -5.484395,-1.714798 -8.789114,-4.089784 -9.570313,-6.863281 v 0.0039 c -0.05078,-0.20703 -0.179691,-0.382811 -0.363281,-0.488281 -0.18359,-0.10547 -0.398443,-0.132809 -0.601562,-0.07422 -0.20313,0.05469 -0.375003,0.191406 -0.476563,0.378906 -0.10156,0.18359 -0.12109,0.402339 -0.0625,0.605469 0.703119,2.499997 2.968804,4.671945 6.625,6.402344 -0.687499,0.05469 -1.375001,0.140616 -2.0625,0.253906 l 0.0039,-0.0039 c -1.781198,0.296879 -3.523414,0.792945 -5.195312,1.484375 L 20.75,24.132812 C 18.046903,24.078123 16.031236,23.242197 14.585938,21.574219 11.95704,18.535122 11.187589,12.574178 12.242188,3.3671875 Z M 92.275391,5.328125 C 90.783192,16.383114 85.675516,26.545368 77.078125,35.568359 v 0.002 C 76.277346,34.816403 75.425843,34.117262 74.527344,33.476562 71.117147,31.031265 67.117296,29.531218 62.9375,29.136719 71.363292,26.300822 77.060925,22.332076 79.919922,17.300781 h -0.0039 c 0.214839,-0.374999 0.08594,-0.855482 -0.289063,-1.070312 -0.375,-0.21484 -0.851573,-0.08594 -1.070312,0.289062 -3.343797,5.882794 -10.990246,10.252331 -22.740235,12.986328 -0.04297,0.01172 -0.08594,0.02344 -0.125,0.04297 -2.300797,0.48438 -4.515621,1.308608 -6.574218,2.441406 -1.492199,-2.011698 -3.29304,-3.777276 -5.335938,-5.234375 -0.953119,-0.683589 -1.957001,-1.293025 -3,-1.828125 C 43.429647,19.11134 48.982561,14.523341 57.314453,11.277344 65.908245,7.9296471 77.669405,5.9296244 92.275391,5.328125 Z M 29.96875,23.880859 c 3.257797,0 6.472672,0.718727 9.417969,2.109375 0.02734,0.01562 0.05078,0.03125 0.07813,0.03906 h 0.02344 l 0.0039,0.0039 c 1.183598,0.56641 2.312513,1.230488 3.382812,1.992188 1.867198,1.335898 3.519539,2.949158 4.898438,4.785156 -0.42188,0.26562 -0.828106,0.54688 -1.234376,0.84375 -3.26051,-3.904362 -7.029405,-6.286538 -11.238281,-7.076172 h -0.0039 c -0.416503,-0.06787 -0.812755,0.208369 -0.890625,0.625 -0.07812,0.41797 0.191409,0.82031 0.605469,0.90625 3.878896,0.730469 7.25359,2.867216 10.304687,6.507813 l -0.0039,0.0039 c -1.535198,1.296898 -2.902314,2.78117 -4.070312,4.417968 -2.527298,3.519497 -4.039095,7.666239 -4.371094,11.990235 -4.425796,-0.46094 -8.890229,0.328159 -12.890625,2.273437 -3.999996,1.945298 -7.378903,4.968779 -9.75,8.734375 C 10.320273,58.166013 7.9804559,52.986335 7.6601562,47.494141 7.3398466,42.001946 9.0585847,36.584199 12.488281,32.283203 c 3.4289,-4.299797 8.32552,-7.182937 13.753907,-8.089844 1.234398,-0.207029 2.480463,-0.3125 3.726562,-0.3125 z m 30.765625,6.726563 c 4.602981,0.01442 9.109816,1.455085 12.882813,4.148437 1.019498,0.72656 1.976575,1.53517 2.859374,2.417969 0.01953,0.02734 0.04297,0.05469 0.07031,0.08203 0.01563,0.01953 0.03906,0.03516 0.0625,0.05078 3.828096,3.914096 6.085938,9.101824 6.335937,14.574218 -0.228914,4.531949 -0.638256,9.001194 -2.921988,12.290731 -3.689022,5.313746 -8.596929,9.437984 -15.681527,10.728801 -2.011698,0.332029 -4.054727,0.394527 -6.078125,0.179687 0.06641,-5.683594 -1.888701,-11.207223 -5.529297,-15.574219 -3.636696,-4.367195 -8.711406,-7.293007 -14.3125,-8.253906 0.39062,-5.285195 2.656216,-10.258441 6.382813,-14.023437 3.726596,-3.769497 8.67203,-6.085863 13.953124,-6.539063 0.659662,-0.05664 1.318994,-0.08409 1.976563,-0.08203 z M 34.414062,52.464844 c 5.273395,0.0078 10.375442,1.882772 14.398438,5.292968 4.023396,3.410197 6.710938,8.132743 7.585938,13.335938 0.999999,6.039094 -0.523394,12.222661 -4.21875,17.097656 -3.695297,4.878895 -9.234719,8.023413 -15.320313,8.695313 -6.081994,0.667969 -12.171848,-1.191442 -16.839844,-5.148438 -4.671895,-3.956996 -7.50775,-9.659737 -7.84375,-15.769531 -0.335939,-6.109394 1.855504,-12.090161 6.0625,-16.535156 4.203096,-4.445296 10.054788,-6.96475 16.175781,-6.96875 z"
     sodipodi:nodetypes="scccccccccccsccccccccccccscccccccccccccscccccccccccccccccsccccccccscccccccccscccccccsccsscccccsccccccsccccccccc" />
  <path
     d="m32.016 77.805-1.6055 0.25v-0.003907c-1 0.15625-2.0117-0.19141-2.707-0.92578l-1.1133-1.1719h0.003906c-0.20703-0.21875-0.51562-0.30078-0.80078-0.21484-0.28125 0.089844-0.49219 0.32812-0.54297 0.62109l-0.25 1.5977c-0.16406 1-0.80469 1.8516-1.7188 2.2852l-1.4688 0.69531c-0.26562 0.12891-0.44141 0.39453-0.44531 0.69141-0.003907 0.29688 0.16016 0.57422 0.42187 0.70703l1.4453 0.74219c0.90234 0.46484 1.5156 1.3398 1.6445 2.3438l0.20703 1.6094v0.003906c0.039062 0.29297 0.24219 0.54297 0.52344 0.63672h-0.003906c0.082031 0.027344 0.16797 0.042969 0.25391 0.042969 0.20703 0 0.40625-0.082032 0.55469-0.22656l1.1484-1.1445c0.71875-0.71094 1.7422-1.0234 2.7344-0.83984l1.5938 0.30078c0.29297 0.058593 0.59375-0.058594 0.77344-0.29688 0.17578-0.23828 0.20313-0.55859 0.070313-0.82422l-0.73438-1.4492c-0.45312-0.90234-0.43359-1.9688 0.046875-2.8594l0.78125-1.4219c0.14453-0.26172 0.12891-0.58203-0.042969-0.82422-0.17188-0.24609-0.46484-0.37109-0.76172-0.32422zm-1.3516 1.8203c-0.73047 1.3398-0.75781 2.9531-0.070312 4.3125l0.019531 0.035156h-0.039062l-0.003907 0.003906c-1.4961-0.28516-3.0391 0.1875-4.1211 1.2656l-0.03125 0.03125v-0.046876c-0.19141-1.5117-1.1211-2.832-2.4766-3.5312l-0.035156-0.019531 0.035156-0.015625v0.003906c1.3789-0.65625 2.3477-1.9453 2.5938-3.4531v-0.039063l0.027344 0.03125c1.0469 1.1094 2.5742 1.6328 4.082 1.3984h0.039063z"
     id="path8552" />
  <path
     d="m76.445 47.461-1.5117-0.21875h0.003906c-1.0625-0.15234-1.9805-0.82031-2.4531-1.7812l-0.67578-1.3672h-0.003906c-0.12891-0.26562-0.40234-0.4375-0.69922-0.4375s-0.57031 0.17188-0.69922 0.4375l-0.67578 1.3672c-0.47656 0.96094-1.3945 1.6289-2.4531 1.7812l-1.5117 0.21875c-0.29688 0.042968-0.54297 0.25-0.63281 0.53125-0.09375 0.28516-0.015624 0.59375 0.19922 0.80469l1.0938 1.0664c0.76562 0.74219 1.1133 1.8164 0.93359 2.8711l-0.25781 1.5078v-0.003907c-0.046874 0.29688 0.074219 0.58984 0.3125 0.76562 0.24219 0.17578 0.5625 0.19922 0.82422 0.058594l1.3516-0.71094c0.94922-0.49609 2.082-0.49609 3.0312 0l1.3516 0.71094h0.003906c0.26172 0.13672 0.57813 0.11719 0.82031-0.058594 0.24219-0.17578 0.35938-0.47266 0.3125-0.76562l-0.25781-1.5039c-0.18359-1.0547 0.16406-2.1328 0.92969-2.8828l1.0938-1.0664v0.003906c0.21484-0.21094 0.29297-0.51953 0.19922-0.80469-0.089844-0.28125-0.33594-0.48828-0.62891-0.53125zm-3.1445 5.4844c-1.3789-0.70312-3.0117-0.70312-4.3867 0 0.24219-1.5273-0.26172-3.082-1.3594-4.1719v-0.003907c1.5273-0.23828 2.8516-1.1953 3.5508-2.5781v0.003906c0.69922 1.3789 2.0234 2.3359 3.5508 2.5781v-0.003907c-1.0977 1.0938-1.6016 2.6484-1.3555 4.1758z"
     id="path8554" />
  <path
     d="m23.539 39.328-0.6875-0.48438c-1.082-0.75391-1.7227-1.9961-1.7109-3.3203v-0.83984c0-0.29688-0.16797-0.57031-0.43359-0.70312-0.26562-0.13281-0.58203-0.10547-0.82031 0.074219l-0.66797 0.51562c-1.0547 0.79688-2.4336 1.0195-3.6836 0.60156l-0.79688-0.26562c-0.28125-0.089844-0.58984-0.011719-0.79688 0.19922-0.20703 0.21094-0.27734 0.51953-0.17969 0.80078l0.27344 0.79688c0.43359 1.2461 0.22266 2.625-0.5625 3.6875l-0.5 0.67969v-0.003906c-0.17188 0.23828-0.19922 0.55469-0.066406 0.81641 0.13281 0.26563 0.40234 0.42969 0.69531 0.42969h0.015626l0.83984-0.015625c1.3203-0.019531 2.5664 0.60547 3.3359 1.6758l0.48828 0.68359c0.14844 0.20703 0.38672 0.32812 0.63672 0.32812v-0.003906c0.042969 0.003906 0.085937 0.003906 0.125 0h0.003906c0.29297-0.046875 0.53125-0.25781 0.61719-0.54297l0.24609-0.80469h0.003906c0.38281-1.2617 1.3633-2.2539 2.6211-2.6523l0.80469-0.25391h-0.003906c0.28516-0.089843 0.49219-0.33203 0.53906-0.625 0.042969-0.29687-0.082031-0.58984-0.32812-0.76172zm-4.9023 3.2188c-0.92188-1.0156-2.1875-1.6523-3.5547-1.7891 0.67969-1.1914 0.89062-2.5898 0.60156-3.9297 1.3438 0.27344 2.7383 0.042969 3.9219-0.64844 0.15625 1.3633 0.80469 2.6211 1.8281 3.5352-1.25 0.56641-2.2461 1.5742-2.7969 2.832z"
     id="path8556" />
  <path
     d="m66.852 32.852c-0.41016-0.13672-0.85156 0.082032-0.99219 0.49219-0.13672 0.41016 0.082031 0.85156 0.49219 0.99219 4.3164 1.4609 7.6641 3.9219 9.9609 7.3164v-0.003906c0.24609 0.34375 0.71875 0.42578 1.0703 0.19141 0.35156-0.23438 0.44922-0.70703 0.22656-1.0664-2.4922-3.6836-6.1094-6.3477-10.758-7.9219z"
     id="path8558" />
  <path
     d="m52.832 71.547c0.19531 0.76562 0.35547 1.5781 0.49609 2.4141 0.066406 0.375 0.39062 0.64844 0.77344 0.64844 0.042969 0 0.089844-0.003906 0.13281-0.007813 0.20312-0.035156 0.38672-0.15234 0.50781-0.32031 0.11719-0.16797 0.16406-0.37891 0.13281-0.58594-0.14844-0.875-0.32422-1.7266-0.52344-2.5273v0.003906c-0.046874-0.21094-0.17187-0.39062-0.35156-0.50391s-0.39844-0.14844-0.60156-0.097657c-0.20703 0.050782-0.38281 0.18359-0.49219 0.36719-0.10547 0.18359-0.13281 0.40234-0.070312 0.60938z"
     id="path8560" />
  <path
     d="m39.691 56.363c6.5312 3.2461 10.031 6.6797 12.086 11.855h0.003906c0.16016 0.40234 0.61719 0.59766 1.0156 0.43359 0.40234-0.16016 0.59375-0.61719 0.43359-1.0195-2.1797-5.4922-6.0234-9.2891-12.844-12.68v0.003906c-0.38672-0.19141-0.85547-0.035156-1.0469 0.35156-0.19141 0.38672-0.035156 0.85547 0.35156 1.0508z"
     id="path8562" />
  <path
     style="fill:#0044aa;stroke-width:0.139191"
     d="m 34.574644,33.730253 c -7.826906,0.09824 -15.443748,4.5791 -19.219311,11.456969 -3.837621,6.726854 -3.840589,15.46317 0.09646,22.150433 0.997212,1.716633 2.165699,3.373611 3.622044,4.72704 0.588516,-0.07819 0.805829,-0.891508 1.210312,-1.272568 2.255942,-2.870846 5.007614,-5.4882 8.345834,-7.055591 3.293112,-1.757878 6.998081,-2.722278 10.72202,-2.559641 0.867303,-0.05391 1.781036,0.0922 2.619356,-0.08657 0.46702,-4.567708 2.128155,-9.042588 4.980712,-12.674297 0.952427,-1.35605 2.266171,-2.388455 3.274531,-3.684765 0.246988,-0.700487 -0.706584,-1.126364 -1.045264,-1.609699 -2.128908,-2.169343 -4.704257,-3.936175 -7.645122,-4.788059 -0.675058,-0.257408 -1.668402,-0.285387 -2.014571,-0.997871 0.272221,-0.939239 1.430186,-0.437682 2.077544,-0.276188 3.590902,0.942553 6.651586,3.301853 9.185029,5.979136 0.392642,0.521358 1.155898,0.803751 1.64661,0.240143 0.538873,-0.197009 0.444337,-0.789638 0.06579,-1.096132 -4.260384,-5.353181 -11.0707,-8.604653 -17.921974,-8.45234 z m -9.061303,10.393408 c 0.825518,0.483011 0.349803,1.677955 0.632342,2.458957 0.247489,1.402541 1.471602,2.219882 2.432859,3.118756 0.392473,0.671688 -0.564261,0.958003 -1.036052,1.113258 -1.400567,0.48033 -2.539248,1.623091 -2.875443,3.084232 -0.120268,0.430388 -0.595029,1.324596 -1.096948,0.73456 -0.811147,-0.969309 -1.668813,-2.083593 -2.996964,-2.329824 -0.775097,-0.258079 -1.749518,0.07932 -2.413828,-0.433342 -0.535073,-0.529623 0.364805,-1.062229 0.537464,-1.554485 0.854776,-1.282499 0.803117,-2.90933 0.2985,-4.31031 -0.217921,-0.515638 0.159131,-1.068154 0.739182,-0.857169 1.423547,0.428512 3.057961,0.578496 4.347827,-0.316171 0.46527,-0.246292 0.867098,-0.726966 1.431061,-0.708462 z"
     id="path8814"
     transform="translate(-5,-10)" />
  <path
     style="fill:#0044aa;stroke-width:0.139191"
     d="m 64.642968,40.590321 c -3.584142,-0.08871 -7.087496,1.154317 -10.19468,2.858588 -6.348479,3.604625 -10.673408,10.496284 -11.181252,17.775443 0.421272,0.502104 1.357443,0.319226 1.976249,0.594897 4.991789,1.363495 9.625622,4.225691 12.783883,8.378871 3.301335,4.178183 5.080802,9.461835 5.070424,14.76968 0.187917,0.812982 1.515541,0.15012 2.162327,0.329143 2.484025,0.0013 4.994414,-0.184747 7.338161,-1.074209 5.248968,-1.715564 9.543594,-5.60455 12.618567,-10.101704 2.319437,-3.503153 2.699583,-7.850901 2.798803,-11.94164 0.06164,-4.731486 -1.818186,-9.357701 -4.64493,-13.092907 -3.576639,-4.634453 -9.077979,-7.737592 -14.881303,-8.448315 -1.28034,-0.07553 -2.564433,-0.04451 -3.846249,-0.04785 z m 6.998987,2.439383 c 2.215048,0.560482 4.227477,1.769597 6.116536,3.024693 1.788015,1.419926 3.546215,2.96853 4.729244,4.944556 0.316656,0.641285 -0.792012,1.116631 -1.077373,0.446934 -2.208667,-3.113374 -5.368884,-5.484076 -8.922928,-6.854902 -0.45519,-0.309345 -1.450907,-0.371998 -1.476732,-1.051275 0.07143,-0.273156 0.324647,-0.555802 0.631253,-0.510006 z m 4.531603,10.844964 c 0.788973,0.402404 0.917708,1.50266 1.503648,2.12593 0.808858,1.377153 2.558729,1.358113 3.918834,1.718959 0.778208,0.41783 -0.09462,1.100167 -0.433069,1.485977 -0.785007,0.791507 -1.576874,1.73885 -1.44846,2.93498 -0.07324,0.856582 0.239934,1.740387 0.121793,2.569603 -0.579237,0.626059 -1.322359,-0.243877 -1.929651,-0.384136 -1.153485,-0.63883 -2.568452,-0.621132 -3.699444,0.06144 -0.518019,0.126291 -1.068464,0.764372 -1.614837,0.545348 -0.663479,-0.544515 -0.03691,-1.448437 -0.135115,-2.153388 0.229263,-1.213943 -0.243987,-2.432672 -1.161116,-3.242069 -0.345477,-0.469851 -1.118896,-0.956773 -0.963455,-1.602987 1.077514,-0.682383 2.588329,-0.331377 3.583362,-1.254081 0.962922,-0.693521 1.134596,-1.984446 1.945961,-2.752564 0.09795,-0.03824 0.206066,-0.05947 0.311549,-0.05301 z"
     id="path8816"
     transform="translate(-5,-10)" />
  <path
     style="fill:#0044aa;stroke-width:0.139191"
     d="m 39.139686,62.346583 c -6.023815,0.05823 -12.031902,2.609589 -16.060106,7.127932 -4.085765,4.242571 -6.35278,10.179502 -6.019939,16.07108 0.04884,5.731599 2.7036,11.294346 6.746975,15.292565 3.771001,3.65334 8.874733,5.99385 14.131095,6.26713 3.103247,0.065 6.275402,-0.11746 9.179179,-1.31528 6.698327,-2.42303 12.089573,-8.186645 13.913084,-15.090257 0.976177,-3.54117 0.984739,-7.330297 0.262104,-10.91756 -1.54469,-6.640801 -6.157688,-12.547938 -12.41226,-15.353449 -3.03842,-1.414186 -6.388705,-2.132708 -9.740132,-2.082161 z m 5.90938,2.701997 c 2.611311,1.093929 5.003001,2.77362 7.231154,4.540031 2.532542,2.202308 4.668449,5.02186 5.734847,8.207396 0.311474,0.659955 -0.790652,1.00287 -1.006419,0.368096 -1.09093,-2.255567 -2.309079,-4.531477 -4.127949,-6.317097 -2.227112,-2.355072 -5.069816,-4.008596 -7.865072,-5.561471 -0.406497,-0.210109 -0.952579,-0.782587 -0.294422,-1.081996 0.102185,-0.05723 0.201172,-0.165981 0.327861,-0.154959 z m 13.564089,15.675611 c 0.746022,0.193376 0.616922,1.250131 0.861624,1.832549 0.04257,0.580601 0.576788,1.615644 -0.272507,1.863091 -0.470603,0.197036 -0.662074,-0.601542 -0.763106,-0.927309 -0.112387,-0.842862 -0.604692,-1.733898 -0.277024,-2.550844 0.104458,-0.138486 0.276484,-0.225912 0.451013,-0.217487 z m -27.593328,5.155517 c 1.308825,0.764176 2.199059,2.52673 3.935147,2.332544 0.855028,0.05239 1.770343,-0.404154 2.571778,-0.08618 0.500521,0.552373 -0.265271,1.292263 -0.43606,1.838032 -0.720597,1.169739 -0.724177,2.666152 0.006,3.832656 0.222718,0.503546 0.874302,1.464409 0.11989,1.800244 -1.493507,-0.04838 -3.310257,-0.699461 -4.542477,0.496685 -0.653619,0.43352 -1.145536,1.25613 -1.890501,1.469937 -0.895997,-0.600652 -0.521524,-1.922927 -0.951232,-2.798507 -0.222513,-1.113727 -1.218105,-1.703058 -2.150126,-2.172147 -0.485657,-0.223182 -1.530529,-0.783564 -0.887888,-1.385388 1.186582,-0.707866 2.74024,-1.207018 3.196236,-2.67726 0.419002,-0.821103 0.05173,-2.118009 0.936823,-2.648712 0.02977,-0.0052 0.06345,-0.01665 0.09243,-0.0019 z"
     id="path8818"
     transform="translate(-5,-10)" />
  <path
     style="fill:#002255;stroke-width:0.139191"
     d="m 75.95281,56.175675 c -0.626897,1.211589 -1.82222,1.90386 -3.033665,2.405401 -0.660809,0.494577 0.293637,1.10685 0.420226,1.631858 0.40239,0.839614 0.449911,1.775146 0.480984,2.685521 0.47172,0.335414 1.098675,-0.33027 1.670568,-0.229449 0.901054,-0.08978 1.822274,0.0088 2.658772,0.366737 0.544447,-0.168924 0.16772,-0.989419 0.322152,-1.446829 0.02001,-1.050221 0.799027,-1.829855 1.136367,-2.755826 -0.159272,-0.520487 -0.963662,-0.398524 -1.359562,-0.729123 -0.930538,-0.411636 -1.484138,-1.286326 -2.136533,-1.995439 l -0.128263,0.05406 z"
     id="path8820"
     transform="translate(-5,-10)" />
  <path
     style="fill:#002255;stroke-width:0.139191"
     d="m 31.405866,88.246234 c -0.332961,1.366068 -1.235936,2.499978 -2.390177,3.266919 -0.297881,0.522951 0.577153,0.681739 0.80606,1.035508 0.803289,0.703264 1.188342,1.756124 1.493316,2.718309 0.570943,0.162628 0.906498,-0.618878 1.451723,-0.725861 0.910295,-0.477723 1.971115,-0.427375 2.938514,-0.531211 -0.06259,-0.617811 -0.463538,-1.24348 -0.380873,-1.923124 -0.0897,-0.842621 0.19363,-1.660737 0.384407,-2.443189 C 34.684364,89.405066 33.505348,89.428926 32.570778,88.7943 32.188453,88.675576 31.77849,87.916822 31.405866,88.246234 Z"
     id="path8891"
     transform="translate(-5,-10)" />
  <path
     style="fill:#002255;stroke-width:0.139191"
     d="m 24.429171,46.094904 c -1.129986,0.659126 -2.421177,0.650766 -3.691018,0.612496 -0.442835,0.440919 -0.08936,1.334313 -0.211234,1.941067 0.07041,0.77654 -0.396469,1.447735 -0.565193,2.150942 1.061423,0.293568 2.202482,0.647988 3.055094,1.421322 0.26178,0.36045 0.82935,0.550259 0.975747,-0.0066 0.537862,-1.065856 1.575716,-1.714374 2.449441,-2.459228 0.06721,-0.54383 -0.699491,-0.789924 -0.831885,-1.306822 -0.499953,-0.698808 -0.605742,-1.586432 -0.984671,-2.327106 -0.06285,0.04883 -0.132723,-0.05909 -0.196281,-0.0261 z"
     id="path8893"
     transform="translate(-5,-10)" />
  <path
     style="fill:#008000;stroke-width:0.139191"
     d="m 96.152412,15.215899 c -10.867364,0.582505 -21.854569,1.72695 -32.198222,5.291959 -5.776112,2.033681 -11.458723,5.002135 -15.406504,9.808133 -1.128849,1.394339 -2.344764,2.881152 -2.789071,4.646323 0.408558,0.491271 1.173511,0.691207 1.675462,1.121686 2.522126,1.5562 4.707464,3.627356 6.50339,5.977617 0.708414,0.06394 1.398849,-0.588022 2.102671,-0.808753 3.632464,-1.589972 7.623025,-2.076767 11.335591,-3.444086 5.735768,-1.95658 11.605465,-4.692904 15.316765,-9.678889 0.509123,-0.565778 0.796575,-1.459866 1.464994,-1.825713 0.688986,-0.02839 0.803712,0.77025 0.412952,1.191011 -2.239,3.716393 -5.822309,6.445365 -9.601484,8.470827 -2.119797,1.195202 -4.455381,1.946 -6.646116,2.993702 -0.400906,0.512247 0.518829,0.436039 0.7973,0.496018 4.705356,0.665738 9.052171,2.909739 12.616666,5.996933 0.561079,0.54493 0.982341,-0.467381 1.372397,-0.753482 6.55278,-7.146662 11.591047,-15.84256 13.614839,-25.382833 0.24365,-1.2997 0.592805,-2.615824 0.675111,-3.926464 -0.293492,-0.311902 -0.872746,-0.124404 -1.246741,-0.173989 z"
     id="path8895"
     transform="translate(-5,-10)" />
  <path
     style="fill:#008000;stroke-width:0.139191"
     d="m 17.308935,13.345243 c -0.515015,0.560798 -0.288491,1.503798 -0.44305,2.210644 -0.313028,4.727578 -0.625275,9.748156 1.382863,14.173973 1.107404,2.532055 3.639214,4.352009 6.419658,4.454668 1.935864,0.190155 3.680652,-0.951846 5.55678,-1.182311 0.913296,-0.230398 1.905061,-0.246384 2.7754,-0.563562 -0.170419,-0.608182 -1.131584,-0.705067 -1.617829,-1.120328 -2.094473,-1.273161 -4.179551,-3.032945 -4.805907,-5.504855 -0.03469,-0.700221 1.064853,-0.849702 1.180136,-0.124511 1.102102,3.05108 4.202838,4.684061 6.998993,5.914555 2.618962,1.247092 5.571403,1.255417 8.236481,2.347213 0.448091,0.0027 1.219397,0.743872 1.503103,0.159038 0.01631,-2.210843 -0.47115,-4.411466 -0.916434,-6.571627 -0.538081,-2.403425 -1.614486,-4.99143 -3.971575,-6.119798 -0.432061,-0.195441 -0.960354,-0.75768 -0.385768,-1.128211 0.780515,-0.332279 1.556209,0.453611 2.179759,0.829167 2.74453,2.245876 3.459483,5.981726 3.994684,9.307879 0.02252,0.520204 0.174833,1.965479 0.792194,0.928939 0.544323,-0.931876 0.157862,-2.107058 0.203894,-3.133437 -0.164015,-3.355832 -1.568919,-6.86843 -4.526982,-8.694294 -3.566577,-2.217672 -7.90609,-2.384058 -11.937457,-3.063152 -4.201031,-0.584576 -8.406685,-1.31186 -12.297879,-3.069696 -0.101771,-0.03208 -0.211844,-0.09685 -0.321064,-0.05029 z"
     id="path8897"
     transform="translate(-5,-10)" />
</svg>
