<?xml version="1.0" encoding="UTF-8" standalone="no"?>
<svg
   data-name="Layer 2"
   viewBox="0 0 100 118.9"
   x="0px"
   y="0px"
   version="1.1"
   id="svg42833"
   sodipodi:docname="borage.svg"
   inkscape:version="1.2.2 (b0a8486541, 2022-12-01)"
   xmlns:inkscape="http://www.inkscape.org/namespaces/inkscape"
   xmlns:sodipodi="http://sodipodi.sourceforge.net/DTD/sodipodi-0.dtd"
   xmlns="http://www.w3.org/2000/svg"
   xmlns:svg="http://www.w3.org/2000/svg">
  <defs
     id="defs42837" />
  <sodipodi:namedview
     id="namedview42835"
     pagecolor="#ffffff"
     bordercolor="#000000"
     borderopacity="0.25"
     inkscape:showpageshadow="2"
     inkscape:pageopacity="0.0"
     inkscape:pagecheckerboard="0"
     inkscape:deskcolor="#d1d1d1"
     showgrid="false"
     inkscape:zoom="6.6274179"
     inkscape:cx="50.01948"
     inkscape:cy="58.092006"
     inkscape:window-width="1857"
     inkscape:window-height="1011"
     inkscape:window-x="0"
     inkscape:window-y="0"
     inkscape:window-maximized="1"
     inkscape:current-layer="svg42833" />
  <g
     id="g42827"
     style="fill:#0000ff;stroke:#000000;stroke-width:3.5;stroke-linecap:round;stroke-linejoin:round;stroke-dasharray:none;paint-order:stroke fill markers"
     transform="matrix(0.90103538,0,0,0.90103538,5.3772653,4.9212541)">
    <g
       id="g42825"
       style="fill:#0000ff;stroke:#000000;stroke-width:3.5;stroke-linecap:round;stroke-linejoin:round;stroke-dasharray:none;paint-order:stroke fill markers">
      <path
         d="M 38.6,53.16 C 36.18,49.84 37.22,46.75 40.98,45.28 36.89,41.47 32.99,36.74 27.32,34.87 20.26,32.19 5.97,31.86 0,36.34 c 1.82,6.09 12.21,14.61 21.21,17.23 5.75,1.85 11.77,0.26 17.39,-0.41 z"
         id="path42803"
         style="fill:#0000ff;stroke:#000000;stroke-width:3.5;stroke-linecap:round;stroke-linejoin:round;stroke-dasharray:none;paint-order:stroke fill markers" />
      <path
         d="m 42.9,44.18 c 0.45,-0.3 0.89,-0.62 1.32,-0.95 C 42.75,39.94 40.84,36.7 39.56,33.14 32.66,24.88 29.39,22.9 28.51,22.78 c -0.17,0.9 0.72,4.88 6.73,14.24 2.77,2.23 5.14,4.89 7.66,7.16 z"
         id="path42805"
         style="fill:#0000ff;stroke:#000000;stroke-width:3.5;stroke-linecap:round;stroke-linejoin:round;stroke-dasharray:none;paint-order:stroke fill markers" />
      <path
         d="m 45.85,41.75 c 2.78,-3.25 5.54,-3.21 8.31,0 C 56.51,36.71 59.93,31 59.84,25.54 60.21,18.01 56.11,4.27 50,-0.01 44.76,3.61 39.87,16.14 40.16,25.52 c 0.03,5.97 3.33,11.14 5.69,16.22 z"
         id="path42807"
         style="fill:#0000ff;stroke:#000000;stroke-width:3.5;stroke-linecap:round;stroke-linejoin:round;stroke-dasharray:none;paint-order:stroke fill markers" />
      <path
         d="m 55.36,45.65 0.09,-0.07 c -0.17,-0.12 -0.33,-0.23 -0.5,-0.36 l -0.04,0.1 c -5.69,-5.19 -4.14,-4.98 -9.86,-0.04 l -0.02,-0.04 c -0.16,0.12 -0.31,0.23 -0.47,0.34 l 0.08,0.07 c -6.95,3.91 -5.91,2.44 -2.95,9.38 h -0.05 c 0.05,0.16 0.1,0.31 0.15,0.47 l 0.12,-0.07 c 1.38,7.85 0.39,6.49 7.89,5.71 l -0.02,0.06 c 0.15,0 0.29,0 0.43,0 l -0.02,-0.06 c 7.45,0.75 6.51,2.21 7.89,-5.71 l 0.12,0.07 c 0.05,-0.16 0.1,-0.31 0.15,-0.47 H 58.3 c 2.94,-6.94 4.09,-5.44 -2.95,-9.38 z m -9.22,9.96 c -0.91,0.3 -1.89,-0.2 -2.19,-1.11 -0.3,-0.91 0.2,-1.89 1.11,-2.19 0.91,-0.3 1.89,0.2 2.19,1.11 0.3,0.91 -0.2,1.89 -1.11,2.19 z m -0.26,-5.8 c -0.56,-0.77 -0.39,-1.86 0.38,-2.42 0.77,-0.56 1.86,-0.39 2.42,0.38 0.56,0.77 0.39,1.86 -0.38,2.42 -0.77,0.56 -1.86,0.39 -2.42,-0.38 z M 50,58.89 c -0.96,0 -1.73,-0.78 -1.73,-1.73 0,-0.95 0.78,-1.73 1.73,-1.73 0.95,0 1.73,0.78 1.73,1.73 0,0.95 -0.78,1.73 -1.73,1.73 z m 1.7,-8.7 c -0.77,-0.56 -0.95,-1.65 -0.38,-2.42 0.56,-0.77 1.65,-0.95 2.42,-0.38 0.77,0.56 0.95,1.65 0.38,2.42 -0.56,0.77 -1.65,0.95 -2.42,0.38 z m 4.35,4.3 c -0.3,0.91 -1.27,1.41 -2.19,1.11 -0.91,-0.3 -1.41,-1.27 -1.11,-2.19 0.3,-0.91 1.27,-1.41 2.19,-1.11 0.91,0.3 1.41,1.27 1.11,2.19 z"
         id="path42809"
         style="fill:#0000ff;stroke:#000000;stroke-width:3.5;stroke-linecap:round;stroke-linejoin:round;stroke-dasharray:none;paint-order:stroke fill markers" />
      <path
         d="m 57.11,44.18 c 2.68,-2.42 5.09,-5.16 8.14,-7.53 5.73,-9.12 6.61,-12.85 6.45,-13.73 -0.91,0.12 -4.43,2.2 -11.5,10.85 -1.27,3.27 -3,6.38 -4.4,9.46 0.42,0.33 0.86,0.64 1.31,0.94 z"
         id="path42811"
         style="fill:#0000ff;stroke:#000000;stroke-width:3.5;stroke-linecap:round;stroke-linejoin:round;stroke-dasharray:none;paint-order:stroke fill markers" />
      <path
         d="m 49.24,63.32 c -0.78,3.58 -1.13,7.44 -2.21,11.13 0.72,10.74 2.21,14.26 2.85,14.88 0.66,-0.63 2.29,-4.37 2.92,-15.48 -0.95,-3.5 -1.3,-7.16 -2.04,-10.53 -0.5,-0.02 -1.01,-0.02 -1.52,0 z"
         id="path42813"
         style="fill:#0000ff;stroke:#000000;stroke-width:3.5;stroke-linecap:round;stroke-linejoin:round;stroke-dasharray:none;paint-order:stroke fill markers" />
      <path
         d="m 71.09,56.48 c -3.59,-0.18 -7.14,-0.96 -10.55,-1.3 -0.18,0.48 -0.33,0.98 -0.47,1.48 3.14,1.83 6.66,3.34 9.82,5.49 10.43,2.63 14.25,2.31 15.03,1.89 -0.39,-0.82 -3.45,-3.53 -13.83,-7.57 z"
         id="path42815"
         style="fill:#0000ff;stroke:#000000;stroke-width:3.5;stroke-linecap:round;stroke-linejoin:round;stroke-dasharray:none;paint-order:stroke fill markers" />
      <path
         d="m 67.1,37.86 v 0 c -2.97,2.23 -5.44,4.96 -8.07,7.41 3.77,1.62 4.8,4.53 2.38,7.89 5.63,0.67 11.63,2.26 17.39,0.41 C 87.94,50.89 98.13,42.54 100,36.36 93.24,31.48 75.52,31.41 67.1,37.87 Z"
         id="path42817"
         style="fill:#0000ff;stroke:#000000;stroke-width:3.5;stroke-linecap:round;stroke-linejoin:round;stroke-dasharray:none;paint-order:stroke fill markers" />
      <path
         d="m 39.94,56.67 c -0.14,-0.5 -0.3,-1 -0.47,-1.48 -3.62,0.37 -7.36,1.21 -11.18,1.33 -9.99,4.01 -12.88,6.51 -13.27,7.3 0.8,0.43 4.87,0.83 15.63,-2.01 3.01,-1.97 6.34,-3.42 9.3,-5.15 z"
         id="path42819"
         style="fill:#0000ff;stroke:#000000;stroke-width:3.5;stroke-linecap:round;stroke-linejoin:round;stroke-dasharray:none;paint-order:stroke fill markers" />
      <path
         d="m 59.65,58.85 c -0.42,4.08 -2.61,5.96 -6.68,4.7 1.11,5.56 1.44,11.78 4.98,16.69 4.14,6.31 15.5,14.98 22.97,14.87 2.11,-6 -1.3,-19.02 -7.05,-26.43 -3.55,-4.84 -9.3,-7.08 -14.22,-9.82 z"
         id="path42821"
         style="fill:#0000ff;stroke:#000000;stroke-width:3.5;stroke-linecap:round;stroke-linejoin:round;stroke-dasharray:none;paint-order:stroke fill markers" />
      <path
         d="m 40.36,58.85 c -4.92,2.74 -10.66,4.98 -14.22,9.82 -5.83,7.55 -9.18,20.34 -7.04,26.44 6.54,0.09 17.66,-7.13 22.96,-14.87 3.54,-4.91 3.86,-11.13 4.98,-16.69 -4.1,1.3 -6.29,-0.72 -6.68,-4.69 z"
         id="path42823"
         style="fill:#0000ff;stroke:#000000;stroke-width:3.5;stroke-linecap:round;stroke-linejoin:round;stroke-dasharray:none;paint-order:stroke fill markers" />
    </g>
  </g>
  <path
     style="fill:#f2f2f2;stroke:#000000;stroke-width:0.528109;stroke-linecap:round;stroke-linejoin:round;stroke-dasharray:none;paint-order:stroke fill markers"
     d="m 50.363989,42.138807 c -1.460812,0.23268 -2.3508,1.651239 -3.493124,2.455472 -1.622596,1.591063 -3.757388,2.405879 -5.570195,3.764251 -0.861367,0.605608 -0.683709,1.775743 -0.228101,2.576595 1.028441,2.209974 2.112126,4.431512 2.336255,6.888227 0.226785,1.080849 0.397911,2.770498 1.791071,2.918336 2.242378,0.06858 4.447307,-0.650388 6.681515,-0.328136 1.425325,0.03649 2.916926,0.646524 4.314471,0.194929 1.155606,-0.834832 1.087931,-2.48925 1.421239,-3.743763 0.267781,-2.542899 1.858075,-4.660233 2.529265,-7.073044 0.211478,-1.369579 -1.397295,-1.936339 -2.300339,-2.561088 -1.84362,-0.867456 -3.412241,-2.157729 -4.877038,-3.554512 -0.771707,-0.605122 -1.549043,-1.514201 -2.605019,-1.537267 z M 47.987498,47.5979 c 1.155049,-0.02422 1.728117,1.543356 0.863482,2.296921 -1.00053,0.83229 -2.675798,-0.335259 -2.055264,-1.546016 0.187026,-0.476542 0.68104,-0.789671 1.191782,-0.750905 z m 4.813396,8.84e-4 c 1.2392,-0.171383 1.953115,1.772142 0.768293,2.35262 -1.05415,0.945566 -2.612085,-0.776116 -1.733447,-1.783842 0.232972,-0.315947 0.531297,-0.631028 0.965154,-0.568778 z m -6.26157,4.584117 c 1.291288,0.08899 1.701411,2.116858 0.409933,2.5318 -0.812631,0.362369 -1.877903,-0.220689 -1.77176,-1.167322 0.0025,-0.710164 0.668925,-1.341879 1.361827,-1.364478 z m 7.816133,0.0109 c 1.078587,0.02177 1.849334,1.425401 0.968102,2.220298 -0.827115,0.985518 -2.561262,0.01369 -2.190533,-1.214474 0.106658,-0.578882 0.647353,-0.986537 1.222431,-1.005824 z m -4.028895,2.913146 c 1.245237,-0.06292 2.009295,1.806968 0.752378,2.425707 -1.203699,0.73297 -2.621861,-0.946698 -1.588158,-1.992492 0.207528,-0.241121 0.512868,-0.421585 0.83578,-0.433215 z"
     id="path43457" />
  <path
     style="fill:#0066ff;stroke:#000000;stroke-width:0.528109;stroke-linecap:round;stroke-linejoin:round;stroke-dasharray:none;paint-order:stroke fill markers"
     d="m 82.060263,34.305876 c -6.246766,0.08596 -12.918396,1.385991 -17.701382,5.685719 -1.997986,1.815445 -4.078404,3.570497 -5.888476,5.573438 0.02417,0.674739 1.020745,0.740787 1.433439,1.162312 1.731389,1.094391 2.197043,3.549755 1.052276,5.22485 -0.1969,0.345246 -0.681624,1.144019 0.07055,1.129552 3.266156,0.397942 6.512173,1.178997 9.821285,0.994467 2.144106,0.04086 4.314124,-0.09687 6.32465,-0.911361 6.512772,-2.232192 12.338772,-6.393288 16.612746,-11.783729 0.699614,-1.1571 1.617608,-2.323494 1.841309,-3.677314 -0.719935,-0.961001 -2.042757,-1.274259 -3.092348,-1.772541 -3.334013,-1.247797 -6.931751,-1.654631 -10.474045,-1.625393 z"
     id="path43528" />
  <path
     style="fill:#0066ff;stroke:#000000;stroke-width:0.528109;stroke-linecap:round;stroke-linejoin:round;stroke-dasharray:none;paint-order:stroke fill markers"
     d="m 50.404658,4.7096608 c -2.673861,1.8823201 -4.312098,4.8856104 -5.682478,7.7843052 -2.60326,5.941729 -4.120177,12.617563 -2.934913,19.087338 0.911475,3.806903 2.870626,7.252985 4.56433,10.75024 0.272062,0.763754 0.922879,-0.110523 1.237756,-0.373096 1.125319,-1.201402 3.042442,-1.814606 4.519282,-0.866724 0.835895,0.320282 1.326836,1.354647 2.219709,1.463499 1.032083,-1.611348 1.707073,-3.479575 2.568667,-5.201977 1.73471,-3.442836 2.92182,-7.263852 2.617825,-11.158207 C 59.118437,20.203343 57.417918,14.242163 54.358698,9.0603725 53.310735,7.4593292 52.113727,5.8625462 50.565272,4.7252801 50.514303,4.7066307 50.458578,4.6981842 50.404658,4.7096608 Z"
     id="path43530" />
  <path
     style="fill:#0066ff;stroke:#000000;stroke-width:0.528109;stroke-linecap:round;stroke-linejoin:round;stroke-dasharray:none;paint-order:stroke fill markers"
     d="m 59.146161,57.827067 c -0.526431,0.548232 -0.337569,1.493696 -0.74059,2.148096 -0.488596,1.345629 -1.765055,2.418984 -3.252941,2.274229 -0.72677,0.05732 -1.474928,-0.230261 -2.205562,-0.177412 0.04771,1.555351 0.51318,3.155476 0.737637,4.723995 0.683755,3.923665 1.650068,7.955077 4.15959,11.153577 3.914065,5.090533 9.166831,9.167458 15.054788,11.726656 1.761795,0.632947 3.710841,1.328925 5.56953,1.041833 0.752423,-1.9359 0.515813,-4.154438 0.476336,-6.213504 -0.546403,-5.492768 -2.463715,-10.829382 -5.293469,-15.55476 -2.17539,-3.735929 -5.577905,-6.61614 -9.424117,-8.527171 -1.686889,-0.8507 -3.325966,-1.940186 -5.081202,-2.595539 z"
     id="path43532" />
  <path
     style="fill:#0066ff;stroke:#000000;stroke-width:0.528109;stroke-linecap:round;stroke-linejoin:round;stroke-dasharray:none;paint-order:stroke fill markers"
     d="m 41.680838,57.818521 c -2.910657,1.374267 -5.775349,2.903204 -8.47566,4.664714 -4.517908,2.94296 -7.150181,7.905545 -9.072182,12.788822 -1.721368,4.70768 -3.0608,9.858179 -1.951823,14.868688 0.06959,0.97881 1.295599,0.625884 1.930562,0.577794 4.773161,-0.83976 9.004269,-3.50543 12.766769,-6.448416 4.222877,-3.438432 8.107701,-7.776605 9.402953,-13.205552 0.667297,-2.900815 1.245237,-5.835108 1.62323,-8.786298 -0.405493,-0.50333 -1.246793,0.06526 -1.810072,-0.0083 -1.60887,0.242628 -3.225838,-0.845452 -3.664611,-2.418776 -0.36902,-0.608293 -0.201454,-1.404087 -0.558493,-1.979972 -0.05399,-0.04063 -0.123347,-0.06018 -0.190673,-0.05275 z"
     id="path43534" />
  <path
     style="fill:#0066ff;stroke:#000000;stroke-width:0.528109;stroke-linecap:round;stroke-linejoin:round;stroke-dasharray:none;paint-order:stroke fill markers"
     d="m 18.008463,34.358333 c -4.27533,0.09721 -8.7833473,0.583183 -12.4647905,2.937902 -0.9039825,0.47742 0.1122212,1.389339 0.2966509,2.047195 1.5686922,3.015671 4.1436749,5.364135 6.7059426,7.534069 4.14026,3.254306 8.858369,6.017837 14.069904,7.068615 4.516305,0.489314 9.064403,-0.203632 13.517768,-0.895016 0.307011,-0.631476 -0.451708,-1.308372 -0.605912,-1.916164 -0.704174,-1.673541 0.05623,-3.739256 1.669792,-4.57616 0.378373,-0.368787 1.370619,-0.428552 1.284908,-1.016728 C 38.703825,42.080927 35.209584,37.900734 30.21804,36.171056 26.326623,34.762969 22.12442,34.34116 18.008463,34.358333 Z"
     id="path43536" />
  <path
     style="fill:#008033;stroke:#000000;stroke-width:0.528109;stroke-linecap:round;stroke-linejoin:round;stroke-dasharray:none;paint-order:stroke fill markers"
     d="m 69.893123,25.381067 c -2.17648,0.837578 -3.812582,2.65126 -5.467291,4.232897 -1.841787,2.001156 -3.880342,3.903624 -5.2558,6.271819 -1.124967,2.645494 -2.55844,5.157892 -3.594207,7.836467 -0.0825,0.64491 0.7689,0.900014 1.197087,1.205339 0.888681,-0.441319 1.529117,-1.376122 2.312459,-2.007432 1.721914,-1.746546 3.636373,-3.300469 5.319484,-5.081373 2.050491,-3.001021 3.773374,-6.241161 5.185313,-9.589955 0.242715,-0.886483 0.760986,-1.83399 0.586755,-2.761079 -0.064,-0.08887 -0.179719,-0.119156 -0.2838,-0.106683 z"
     id="path43538" />
  <path
     style="fill:#008033;stroke:#000000;stroke-width:0.528109;stroke-linecap:round;stroke-linejoin:round;stroke-dasharray:none;paint-order:stroke fill markers"
     d="m 60.258668,54.486305 c -0.777274,-0.03782 -0.935507,0.996767 -0.869082,1.580791 1.21755,0.937632 2.73793,1.506301 4.070449,2.297511 2.389486,1.16824 4.538739,2.970278 7.246942,3.353127 3.617274,0.766996 7.341359,1.66646 11.054161,1.17588 0.651844,-0.405228 -0.234591,-1.045512 -0.561705,-1.347975 C 77.89232,59.077136 74.056259,57.412135 70.237927,55.902652 68.24872,55.26588 66.120263,55.347477 64.079208,54.95459 62.806747,54.801946 61.540672,54.5396 60.258668,54.486305 Z"
     id="path43609" />
  <path
     style="fill:#008033;stroke:#000000;stroke-width:0.528109;stroke-linecap:round;stroke-linejoin:round;stroke-dasharray:none;paint-order:stroke fill markers"
     d="m 50.280588,61.742501 c -0.651512,-0.109465 -0.979243,0.496668 -0.949131,1.073857 -0.515179,3.071323 -1.108774,6.123229 -1.728842,9.172109 0.04093,3.39199 0.543591,6.780626 1.232156,10.100382 0.347925,1.156592 0.485553,2.578523 1.411926,3.429173 0.696537,-0.110152 0.791057,-1.094084 1.079794,-1.622638 1.220259,-3.813755 1.523763,-7.854334 1.811545,-11.826758 -0.04515,-1.840513 -0.710221,-3.606156 -0.932494,-5.430432 -0.331705,-1.569521 -0.501627,-3.209309 -0.873451,-4.742152 -0.303876,-0.18923 -0.709891,-0.144941 -1.051503,-0.153541 z"
     id="path43611" />
  <path
     style="fill:#008033;stroke:#000000;stroke-width:0.528109;stroke-linecap:round;stroke-linejoin:round;stroke-dasharray:none;paint-order:stroke fill markers"
     d="m 40.48493,54.527269 c -3.136528,0.319139 -6.266272,0.817931 -9.381895,1.110149 -3.077415,0.977905 -5.997764,2.431348 -8.830503,3.972902 -1.241043,0.787259 -2.716627,1.480616 -3.508449,2.761079 0.09478,0.661724 1.075795,0.441739 1.559867,0.526931 4.227599,-0.05286 8.443735,-0.830891 12.473759,-2.082967 2.364714,-1.060232 4.535843,-2.507777 6.863683,-3.652773 0.560128,-0.468329 1.615232,-0.532415 1.886828,-1.265833 -0.0727,-0.561685 -0.319305,-1.464822 -1.06329,-1.369488 z"
     id="path43613" />
  <path
     style="fill:#008033;stroke:#000000;stroke-width:0.528109;stroke-linecap:round;stroke-linejoin:round;stroke-dasharray:none;paint-order:stroke fill markers"
     d="m 31.082701,25.251692 c -0.568066,0.1987 -0.127411,1.008559 -0.11022,1.434028 1.195842,3.901472 3.313242,7.453604 5.472446,10.889522 1.411295,1.917788 3.403549,3.29644 5.024656,5.026788 0.85966,0.766299 1.609619,1.711856 2.537057,2.366522 0.492956,-0.336619 1.655653,-0.734894 1.161427,-1.53688 -1.215992,-2.876138 -2.663275,-5.65328 -3.913371,-8.513107 -1.595989,-2.330506 -3.598798,-4.365623 -5.598153,-6.352588 -1.392664,-1.20095 -2.713137,-2.652543 -4.467749,-3.306917 -0.0349,-0.0066 -0.0706,-0.0096 -0.106093,-0.0074 z"
     id="path43615" />
</svg>
