<?xml version="1.0" encoding="UTF-8" standalone="no"?>
<svg
   version="1.1"
   viewBox="-5.0 -10.0 110.0 135.0"
   id="svg8951"
   sodipodi:docname="broccoli.svg"
   inkscape:version="1.2.2 (b0a8486541, 2022-12-01)"
   xmlns:inkscape="http://www.inkscape.org/namespaces/inkscape"
   xmlns:sodipodi="http://sodipodi.sourceforge.net/DTD/sodipodi-0.dtd"
   xmlns="http://www.w3.org/2000/svg"
   xmlns:svg="http://www.w3.org/2000/svg">
  <defs
     id="defs8955" />
  <sodipodi:namedview
     id="namedview8953"
     pagecolor="#ffffff"
     bordercolor="#000000"
     borderopacity="0.25"
     inkscape:showpageshadow="2"
     inkscape:pageopacity="0.0"
     inkscape:pagecheckerboard="0"
     inkscape:deskcolor="#d1d1d1"
     showgrid="false"
     inkscape:zoom="5.4395823"
     inkscape:cx="59.655315"
     inkscape:cy="51.47454"
     inkscape:window-width="1857"
     inkscape:window-height="1011"
     inkscape:window-x="0"
     inkscape:window-y="0"
     inkscape:window-maximized="1"
     inkscape:current-layer="svg8951" />
  <path
     id="path8935"
     d="m 33.300781,1.3671875 c -4.730155,0.00528 -9.352097,2.0195416 -12.730469,5.5429687 -4.515595,-0.2890597 -8.718645,2.3202917 -10.464843,6.4921878 -0.07813,0.17969 -0.1445278,0.359379 -0.2109378,0.542968 h 0.00391 C 8.0273394,15.195311 6.5703241,16.964858 5.703125,19.035156 4.2578264,22.402353 4.5586219,26.265597 6.5,29.371094 c -2.980497,8.851591 1.0859208,18.398003 9.382812,21.875 l 0.0039,0.0039 c 0.734379,0.30469 1.488319,0.554686 2.261719,0.753906 0.04297,3.179697 1.382839,6.203096 3.710937,8.371094 -1.402299,6.359394 -3.996129,12.395068 -7.640625,17.789062 l -1.5625,2.3125 c -1.656198,2.488298 -1.042973,5.84384 1.390625,7.585938 7.627822,5.397637 16.04877,8.925843 25.027344,10.484375 0.320309,0.05469 0.640624,0.08594 0.964843,0.08594 2.621098,0 4.875014,-1.85549 5.382813,-4.429687 l 0.820313,-4.070313 c 1.298194,-5.82379 2.825403,-10.931843 6.271484,-16.263671 0.28516,0.148439 0.578116,0.289062 0.878906,0.414062 v 0.0039 c 1.355499,0.56641 2.808645,0.855473 4.277344,0.851563 3.648396,-0.02734 7.082015,-1.722666 9.320312,-4.601563 1.031199,1.015599 2.246133,1.824201 3.582032,2.375 6.011694,2.515598 13.035252,-0.546888 15.65625,-6.820312 h 0.0039 c 0.882809,-2.121098 1.179702,-4.441352 0.851562,-6.71875 C 93.8605,56.260092 96.974848,48.354465 94.140612,41.457022 92.992226,38.636734 90.945297,36.277286 88.3125,34.742188 90.867197,27.441395 87.550773,19.406622 80.625,16.515625 77.843803,15.367226 74.76166,15.160128 71.851562,15.929688 l -0.125,-0.05469 c -0.03906,-0.01563 -0.07812,-0.03125 -0.121093,-0.04687 l -0.09766,-0.04687 C 71.007813,15.57422 70.496062,15.39453 69.976562,15.25 68.550764,11.203104 65.339827,8.0351736 61.269531,6.671875 57.203135,5.3085764 52.730146,5.9023099 49.15625,8.2734375 v 0.00391 C 48.265631,7.988284 47.339849,7.8203112 46.40625,7.7695312 44.648452,5.5195335 42.343735,3.7578426 39.710938,2.6523438 37.622315,1.7783134 35.450852,1.3647852 33.300781,1.3671875 Z M 33.619141,2.9375 c 1.844085,0.038516 3.700861,0.4145632 5.490234,1.1640625 2.023398,0.8476592 3.839808,2.1289016 5.316406,3.75 -1.605498,0.2148398 -3.140589,0.7851359 -4.492187,1.671875 -0.914059,-1.3319987 -2.175833,-2.3906007 -3.644532,-3.0625 L 36.210938,6.421875 35.976562,6.3125 35.914062,6.289063 35.867192,6.265626 35.835942,6.257816 C 32.296841,4.8437139 28.253747,5.7929816 25.71875,8.6367188 h -0.0039 C 24.730465,7.9882794 23.640686,7.5078435 22.492188,7.2148438 25.567166,4.4031091 29.562152,2.8527646 33.619141,2.9375 Z m -0.726563,4.2402344 c 0.815484,0.046023 1.633801,0.2265565 2.421875,0.5507812 v -0.00391 c 3.730496,1.5937984 5.476649,5.8984224 3.90625,9.6367184 -0.16406,0.40234 0.02344,0.86333 0.421875,1.03125 0.39844,0.16406 0.859424,-0.02343 1.027344,-0.421875 0.917969,-2.183598 0.925776,-4.64454 0.02344,-6.835937 -0.02344,-0.0625 -0.05469,-0.125004 -0.08203,-0.183594 2.460898,-1.6952982 5.58984,-2.0938051 8.398438,-1.0664062 0.238279,0.085938 0.50781,0.050782 0.71875,-0.09375 v -0.00391 c 3.035197,-2.1483979 6.878747,-2.816399 10.464843,-1.8125 3.581997,1.003899 6.519496,3.5741842 7.996094,6.9882812 -2.039098,-0.21484 -4.101614,0.07422 -6.007812,0.839843 -0.40234,0.16016 -0.593754,0.617222 -0.433594,1.019532 0.16406,0.398439 0.617222,0.593747 1.019531,0.429687 2.644497,-1.066399 5.605497,-1.058604 8.246094,0.01563 3.308597,1.425799 5.765626,4.316404 6.640625,7.8125 0.507809,2.238298 0.304691,4.582021 -0.585938,6.699219 -0.08594,0.19531 -0.08984,0.414055 -0.01563,0.609375 0.07813,0.19531 0.230472,0.351564 0.425782,0.433594 0.195309,0.08203 0.414055,0.08203 0.609375,0 0.195309,-0.08594 0.347665,-0.242187 0.421875,-0.441407 v 0.0039 c 0.843749,-2.019498 1.148402,-4.218828 0.882812,-6.390625 0.35938,0.08984 0.710922,0.207026 1.050781,0.347656 3.113297,1.289099 4.925794,4.554703 4.371094,7.875 -0.0625,0.375 0.152339,0.738281 0.511719,0.863281 0.27344,0.09375 0.500004,0.179691 0.714844,0.269531 6.296893,2.632798 9.269522,9.867269 6.640625,16.164063 l -0.0059,-0.0059 -0.0039,-0.0039 c -2.136698,5.140595 -7.448956,8.210906 -12.96875,7.503906 -5.523394,-0.707029 -9.886763,-5.017802 -10.664063,-10.529296 1.269499,-0.09375 2.499989,-0.460953 3.617188,-1.070313 0.34375,-0.21875 0.457029,-0.67193 0.261719,-1.03125 -0.19922,-0.35938 -0.640639,-0.503907 -1.011719,-0.335937 -1.933598,1.058599 -4.238352,1.1914 -6.28125,0.363281 -2.164098,-0.953119 -3.785163,-2.824171 -4.414062,-5.105469 -0.5625,-2.292998 0.01168,-4.718833 1.539062,-6.519531 1.527298,-1.804698 3.828096,-2.765644 6.183594,-2.589844 0.429689,0.03516 0.808594,-0.28906 0.839844,-0.71875 0.03125,-0.433589 -0.292967,-0.80859 -0.722657,-0.84375 -4.679695,-0.34766 -8.835932,2.976592 -9.519531,7.617188 -3.031197,3.722696 -8.144629,5.015585 -12.578125,3.179687 -3.003897,-1.242199 -5.275354,-3.78124 -6.189453,-6.898437 1.894498,-2.468798 2.748053,-5.581978 2.376953,-8.671875 -0.05078,-0.42969 -0.439461,-0.734368 -0.869141,-0.679688 -0.429689,0.05469 -0.730471,0.445311 -0.675781,0.875 0.32812,2.796897 -0.488319,5.609365 -2.273437,7.789063 l -0.02344,0.02734 v 0.0039 c -2.621097,3.136696 -6.840054,4.453074 -10.78125,3.359375 -0.11719,-0.03125 -0.234382,-0.07031 -0.351562,-0.105469 l -0.167969,-0.05469 -0.238281,-0.08203 c -0.13281,-0.05078 -0.269534,-0.10156 -0.402344,-0.15625 l -0.02344,-0.0078 h -0.01172 c -0.14062,-0.0625 -0.281256,-0.125003 -0.421875,-0.195313 l -0.125,-0.0625 c -0.10938,-0.05078 -0.214843,-0.105472 -0.320313,-0.164062 l -0.109375,-0.05859 c -0.13672,-0.07813 -0.27344,-0.156245 -0.40625,-0.234375 l -0.03125,-0.02344 c -0.125,-0.07813 -0.25,-0.156247 -0.375,-0.242187 l -0.07031,-0.05078 h -0.0078 c -4.023396,-2.777298 -5.554686,-7.988305 -3.679687,-12.5 0.882809,-2.124998 2.453139,-3.894526 4.460937,-5.015625 0.375,-0.21484 0.511715,-0.691417 0.296875,-1.066407 -0.21094,-0.378909 -0.6875,-0.515621 -1.0625,-0.300781 -2.312498,1.292999 -4.12112,3.32814 -5.136719,5.773438 -0.507809,1.222698 -0.812501,2.519545 -0.894531,3.839843 -2.667997,-0.132809 -5.140608,-1.437502 -6.753906,-3.5625 -1.613299,-2.124997 -2.206987,-4.85944 -1.617188,-7.460937 0.58984,-2.605498 2.300784,-4.816364 4.675782,-6.0390622 2.371097,-1.2226988 5.164108,-1.3358965 7.628906,-0.3046875 0.718749,0.3046897 1.394519,0.6952855 2.011719,1.1718747 0.167969,0.12891 0.378907,0.183594 0.585937,0.152344 0.20703,-0.03125 0.394535,-0.148443 0.515625,-0.320313 1.535174,-2.0449474 3.959799,-3.1185384 6.40625,-2.9804682 z M 9.3398438,16.40625 h 0.00391 c -0.3945296,3.933596 1.4218532,7.757802 4.7187502,9.9375 -2.789097,4.453096 -2.499997,8.593866 0.875,12.289062 0.13672,0.15625 0.335939,0.249999 0.542969,0.261719 0.21094,0.01172 0.414062,-0.06251 0.570312,-0.203125 0.15625,-0.14062 0.246087,-0.339835 0.253907,-0.546875 0.0078,-0.21094 -0.07031,-0.414056 -0.210938,-0.566406 -2.906197,-3.175797 -3.125,-6.60906 -0.664062,-10.472656 0.124999,0.05859 0.249996,0.117185 0.378906,0.171875 v -0.0039 c 1.156199,0.488279 2.386726,0.76172 3.640625,0.8125 0.1875,2.761697 1.331983,5.371114 3.238281,7.382812 l 0.359375,12.195312 c 0.10547,3.636697 -0.167967,7.272967 -0.816406,10.851563 -1.714799,-1.964798 -2.617238,-4.51169 -2.523438,-7.117187 h 0.0039 c 0.0078,-0.375 -0.249998,-0.703131 -0.617188,-0.78125 -0.890619,-0.19141 -1.76167,-0.464841 -2.605469,-0.8125 C 8.8437889,46.601591 5.1602654,37.695242 8.1015625,29.53125 8.1875004,29.29297 8.1523444,29.031252 8.0078125,28.820312 6.1797143,26.156215 5.8594163,22.722622 7.140625,19.640625 h 0.00391 C 7.6523407,18.425826 8.3984447,17.328149 9.3398438,16.40625 Z m 66.2187502,0.630859 c 1.532051,0.01776 3.048857,0.328128 4.472656,0.919922 6.101594,2.550798 9.03121,9.598113 6.882812,16.066407 l -0.273437,-0.121094 -0.210937,-0.08594 h 0.0039 c 0.406249,-4.597695 -2.80078,-8.734382 -7.359375,-9.488281 -0.08594,-0.32812 -0.179685,-0.652343 -0.296875,-0.976563 h 0.0039 c -0.886719,-2.531197 -2.550815,-4.714776 -4.757812,-6.234374 0.510749,-0.05957 1.024472,-0.086 1.535156,-0.08008 z m -36,18.830079 c 0.652339,1.718798 1.687532,3.265651 3.019531,4.53125 L 33.613281,55.699219 33.171875,39.046875 c 2.406198,-0.375 4.63672,-1.484389 6.386719,-3.179687 z m -15.269532,1.005859 c 0.10156,0.07813 0.207031,0.148436 0.3125,0.222656 l 0.04688,0.03125 c 0.132809,0.09375 0.273436,0.179695 0.410156,0.265625 l 0.09375,0.05469 c 0.15625,0.09375 0.30859,0.183591 0.46875,0.269531 l 0.06641,0.03516 c 0.13672,0.07422 0.277339,0.144534 0.417969,0.214844 l 0.132812,0.0625 c 0.16406,0.07813 0.328124,0.156246 0.496094,0.222656 0.16797,0.07031 0.343755,0.136723 0.515625,0.195313 l 0.125,0.04297 c 0.14844,0.05469 0.300785,0.101558 0.453125,0.148438 l 0.0625,0.01953 -0.0039,0.0039 c 1.206999,0.37109 2.46877,0.546875 3.730469,0.515625 L 32.12892,58.47461 c 0.01172,0.34766 0.250004,0.648435 0.589844,0.734375 0.33594,0.08594 0.691408,-0.05859 0.867188,-0.363281 l 10.203124,-17.4375 v 0.0039 c 0.79688,0.58203 1.656201,1.06642 2.5625,1.449219 0.35938,0.14844 0.726511,0.281255 1.09375,0.390625 l -3.0625,9.03125 c -0.0625,0.19531 -0.05078,0.410157 0.04297,0.597656 0.08984,0.18359 0.253909,0.328125 0.449219,0.390625 0.07813,0.03125 0.160158,0.04687 0.242188,0.04687 0.335939,0 0.632807,-0.21484 0.742187,-0.53125 l 3.097656,-9.15625 c 0.647177,0.108965 1.298205,0.167991 1.949219,0.179688 l -6.851562,19.664062 -9.148438,8.007813 c -0.24609,0.21484 -0.332034,0.558591 -0.214844,0.863281 0.11328,0.30078 0.402339,0.503906 0.730469,0.503906 0.1875,0 0.371089,-0.07031 0.511719,-0.195312 l 9.890625,-8.652344 19.109375,-16.210937 0.117187,0.04687 0.09375,0.04297 c 0.74609,0.3125 1.531232,0.527335 2.332031,0.640625 0.19922,1.519499 0.648466,3.000002 1.328126,4.375 L 58.914077,63.005846 C 51.459002,71.412187 47.083119,78.824803 44.710953,89.828112 l -0.820313,4.070313 h -0.0039 c -0.41406,2.101597 -2.437477,3.488274 -4.546875,3.109374 -8.749992,-1.523398 -16.952539,-4.96242 -24.394532,-10.228515 v 0.0039 C 13.203135,85.537085 12.761737,83.130889 13.953146,81.34959 l 1.5625,-2.3125 c 6.261694,-9.25389 9.44525,-20.249886 9.09375,-31.421875 z m 35.171876,3.720703 c 0.05469,0.35938 0.128912,0.718763 0.226562,1.070312 0.531249,2.199198 1.875021,4.113277 3.761719,5.359376 L 46.414062,61.464844 52.611328,43.71875 c 2.55008,-0.312811 4.943789,-1.402734 6.84961,-3.125 z m 10.140624,13.742188 c 0.97656,1.499998 2.230521,2.796913 3.699219,3.820312 -0.910159,4.203096 -3.515592,5.789093 -8.179687,4.996094 h -0.0039 c -0.42188,-0.07422 -0.828128,0.214845 -0.898438,0.640625 -0.07422,0.421879 0.210939,0.828124 0.636719,0.902343 0.773439,0.13281 1.558551,0.203128 2.34375,0.210938 3.921896,0 6.484413,-2.007829 7.507812,-5.890625 0.39062,0.21094 0.792996,0.402343 1.203125,0.570313 h -0.0039 c 3.074197,1.292998 6.511691,1.429703 9.679688,0.390624 0.203119,1.874999 -0.07031,3.773427 -0.796876,5.515626 -2.289097,5.476594 -8.396733,8.164072 -13.611328,5.984374 h -0.0039 c -1.414098,-0.589839 -2.67187,-1.503869 -3.667969,-2.667968 -0.160159,-0.18359 -0.394535,-0.285161 -0.640625,-0.269532 -0.242189,0.01563 -0.464842,0.140631 -0.601562,0.34375 -2.746097,4.113296 -7.907783,5.777324 -12.267578,3.953126 -0.224661,-0.09296 -0.441286,-0.194505 -0.658203,-0.306641 1.933267,-3.034328 4.174495,-5.858083 6.693359,-8.427735 z"
     sodipodi:nodetypes="sccccccccccccccsccccccccccccccccccccccccssccccccccccccsccccccccccccccccccccsccccccccccccccccccccccccccscccccccccccsccccccccccccccsccccscscscccsccccccccccccccccccscccccccccscccccccccccccccccccccccccccccccsccccccsccccccccccccccccccccccccccccccccccccccccccccccc" />
  <path
     d="m20.934 73.68c-0.48047 0.93359-1.0078 1.8984-1.5625 2.8711-0.21484 0.375-0.085938 0.85156 0.28516 1.0664 0.375 0.21875 0.85547 0.089843 1.0703-0.28516 0.57031-0.99219 1.1055-1.9805 1.5938-2.9297 0.17578-0.37891 0.019532-0.82812-0.35156-1.0195-0.37109-0.19141-0.82812-0.054687-1.0352 0.30469z"
     id="path8937" />
  <path
     d="m26.281 55.203c-0.28125 4.9922-1.4844 9.8867-3.6836 14.961h0.003906c-0.17578 0.39453 0.007813 0.85547 0.40234 1.0273 0.39844 0.17188 0.85547-0.007812 1.0273-0.40234 2.2734-5.2461 3.5156-10.316 3.8125-15.496 0.023438-0.43359-0.30469-0.80469-0.73828-0.82812-0.42969-0.023438-0.80078 0.30859-0.82422 0.73828z"
     id="path8939" />
  <path
     d="m16.281 11.82c-3.1055 2.2188-3.9062 5.0781-2.3984 8.5234h-0.003906c0.125 0.28125 0.41016 0.46484 0.71875 0.46484 0.26172 0 0.50781-0.13281 0.65234-0.35547 0.14453-0.21875 0.16797-0.5 0.058594-0.74219-1.2188-2.7773-0.64062-4.8203 1.8789-6.625 0.35156-0.25 0.43359-0.73828 0.17969-1.0898-0.25-0.35156-0.73828-0.43359-1.0859-0.18359z"
     id="path8941" />
  <path
     d="m53.301 16.891c-0.39062-0.09375-0.78906 0.12109-0.92188 0.5-0.13281 0.38281 0.042969 0.80078 0.41016 0.96875 5.6641 1.9531 6.0195 5.3438 5.625 8.3984-0.054687 0.42578 0.24609 0.82031 0.67188 0.875h0.10156c0.39844 0.003907 0.73047-0.28906 0.78125-0.67969 0.64844-5.0586-1.4648-8.2578-6.668-10.062z"
     id="path8943" />
  <path
     d="m88.477 40.43c-0.35937 0.23437-0.46094 0.71875-0.22656 1.0781 2.4297 3.7109 2.3828 7.1758-0.14844 10.578-0.25781 0.34766-0.18359 0.83594 0.16016 1.0938 0.13281 0.097656 0.29688 0.15234 0.46484 0.15234 0.24609 0 0.48047-0.11719 0.625-0.31641 2.9297-3.9336 2.9961-8.0938 0.19531-12.359-0.23438-0.35547-0.71094-0.45703-1.0703-0.22656z"
     id="path8945" />
  <path
     style="fill:#005500;stroke-width:0.183838"
     d="m 37.291394,17.029039 c -2.373415,-0.01724 -4.463174,1.338481 -6.028941,3.017523 -0.594936,0.632877 -1.33042,-0.403773 -1.93604,-0.571262 -3.860568,-2.215984 -9.22987,-1.091342 -11.800438,2.567982 -2.996919,3.829445 -2.12534,9.945204 1.837658,12.769176 1.461365,1.031257 3.26265,1.817374 5.063435,1.789904 0.46881,-1.464163 0.627131,-3.16629 1.40643,-4.58481 1.154299,-2.07035 2.775409,-4.14694 5.055176,-4.974388 0.81735,-0.126993 0.657226,1.098277 -0.0022,1.243776 -3.167723,2.029014 -5.296525,5.72044 -5.013525,9.52832 0.199433,5.203519 4.756941,9.856319 10.013048,9.915384 5.442285,0.305294 10.621485,-4.253938 10.878743,-9.724493 0.183204,-0.814262 -0.232755,-1.888273 0.304116,-2.568574 0.946993,-0.321746 1.043806,0.925921 0.986331,1.552927 0.0793,2.740399 -0.972792,5.363825 -2.436568,7.63788 1.303775,4.143305 5.246703,7.578953 9.713595,7.661577 3.358782,0.318479 6.782776,-1.105314 8.991168,-3.635461 0.78611,-1.273925 0.84649,-2.899846 1.845199,-4.084642 1.750596,-2.510452 4.946729,-4.13265 8.012376,-3.702248 0.673984,0.218574 0.292264,1.243239 -0.392809,1.085074 -3.372322,0.05521 -6.86315,2.222934 -7.647575,5.639363 -0.325633,2.012706 -0.304622,4.225018 0.954735,5.937741 1.851611,3.024958 5.976766,4.432046 9.238561,2.933861 0.492503,-0.172474 1.474174,-0.613004 1.461366,0.314177 -0.364365,0.918982 -1.631317,1.088155 -2.494017,1.314151 -0.713086,-0.03386 -1.582962,0.442673 -1.240185,1.271783 0.862305,4.063919 3.855858,7.554139 7.737338,9.037129 4.991733,1.986598 11.196851,0.305645 14.358735,-4.087597 3.262883,-4.157806 3.503333,-10.423929 0.347918,-14.705853 -1.481301,-2.34568 -3.952566,-3.768679 -6.415288,-4.883906 0.003,-2.588796 -0.377294,-5.533322 -2.589166,-7.221372 -0.891173,-0.591871 -1.832964,-1.546967 -2.948943,-1.531381 -0.589156,0.963789 -0.07765,2.275193 -0.411839,3.3457 -0.289632,1.091646 -0.230062,2.619304 -1.213257,3.378735 -0.763869,0.08725 -0.908812,-0.890015 -0.507836,-1.369834 0.729249,-2.045034 0.553693,-4.300632 0.350569,-6.423517 -1.249813,-4.742401 -5.744059,-8.668768 -10.768147,-8.511468 -1.618775,-0.145764 -3.156553,0.500472 -4.727716,0.658872 -0.880172,-0.251838 -0.138295,-1.256965 0.496577,-1.275374 1.71353,-0.673101 3.575592,-0.553489 5.354271,-0.803931 0.427908,-0.5414 -0.483704,-1.208243 -0.682916,-1.722636 -2.027795,-3.226651 -5.630618,-5.507514 -9.445747,-5.777365 -2.296292,-0.158582 -4.644649,0.09753 -6.687453,1.233005 -0.997029,0.390308 -1.817892,1.488976 -2.949749,0.820524 -2.575194,-0.61065 -5.596674,-0.393461 -7.702063,1.32377 -0.231217,0.783255 0.503443,1.518981 0.397477,2.330285 0.06646,1.619925 0.214033,3.509503 -0.736787,4.904372 -0.407299,0.118404 -1.069484,0.04421 -0.869996,-0.543613 0.43634,-1.904995 0.828111,-4.00515 -0.110231,-5.852285 -1.119289,-2.82481 -3.999087,-4.756193 -7.045435,-4.656981 z m -15.489039,4.85913 c 0.786821,0.06108 0.495453,0.957816 0.01795,1.248445 -1.789942,1.276659 -2.750355,3.658202 -1.960946,5.773131 0.180199,0.456707 0.691566,1.711673 -0.23577,1.671575 -1.026457,-0.360024 -1.015383,-1.770332 -1.252035,-2.666723 -0.375363,-2.413544 1.178689,-4.761723 3.166173,-5.988367 0.08454,-0.03007 0.174848,-0.04567 0.264626,-0.03806 z M 58.1444,27.072247 c 2.502245,0.731001 4.931638,2.354255 6.085673,4.74531 0.573275,1.689446 1.037719,3.683889 0.391013,5.407053 -0.470424,0.417206 -1.158644,0.06503 -0.954376,-0.579521 -0.04964,-1.919585 0.09008,-4.124525 -1.404634,-5.607765 -1.221717,-1.544154 -3.197834,-2.080579 -4.694323,-3.245166 -0.34163,-0.331507 0.291516,-0.705239 0.576647,-0.719911 z M 93.980532,50.52914 c 1.1216,0.838333 1.560829,2.388919 2.052734,3.649825 0.863686,3.017059 0.123479,6.495313 -2.013237,8.836774 -0.484723,0.478474 -1.205236,-0.33662 -0.713807,-0.811831 1.414945,-2.218062 2.360099,-4.951669 1.538924,-7.567656 -0.238802,-1.34697 -1.262882,-2.433437 -1.516304,-3.743027 0.07413,-0.273304 0.38859,-0.408213 0.65169,-0.364085 z"
     id="path9158"
     transform="translate(-5,-10)" />
  <path
     style="fill:#005500;stroke-width:0.183838"
     d="m 38.016332,12.816213 c -3.811436,0.08413 -7.610455,1.599056 -10.425246,4.149273 -0.157257,0.707379 1.004623,0.62172 1.371601,0.966225 0.833369,0.235745 1.851826,1.33192 2.501037,0.244738 2.896568,-2.815688 7.733498,-3.171409 11.021311,-0.828904 1.010438,0.51231 1.556245,1.696426 2.478349,2.215365 1.347012,-0.709419 2.82791,-1.1006 4.220727,-1.660642 C 49.595714,17.324 48.504992,16.920097 48.224708,16.508046 45.440367,14.050298 41.725696,12.72207 38.016332,12.816213 Z"
     id="path9160"
     transform="translate(-5,-10)" />
  <path
     style="fill:#005500;stroke-width:0.183838"
     d="m 14.082251,26.523966 c -2.785667,2.665435 -3.509736,7.071948 -2.129214,10.599748 0.370048,1.061422 1.42565,2.02668 0.723419,3.173253 -0.837101,2.605278 -0.546132,5.398251 -0.466692,8.086803 1.079053,5.564274 5.240003,10.580939 10.799935,12.075835 0.565879,0.253948 1.592221,0.222407 1.481999,1.120619 0.166,2.528479 0.861262,5.202473 2.715196,7.007375 0.53494,-0.94829 0.444288,-2.329882 0.67429,-3.457034 0.655879,-6.553336 0.03952,-13.147252 -0.05061,-19.713332 C 26.09632,43.447361 24.956119,40.984641 24.58864,38.375749 23.892782,37.55429 22.587479,37.8607 21.669499,37.419578 c -0.546263,-0.174442 -1.367563,-0.753538 -1.653102,0.08797 -1.934334,2.856953 -1.794435,6.88842 0.443795,9.540168 0.267148,0.464756 1.155637,1.07825 0.368753,1.503735 -0.584729,0.633267 -1.076025,-0.563003 -1.452389,-0.898722 -1.244795,-1.65846 -2.179749,-3.643352 -1.978051,-5.760725 -0.0467,-1.946144 0.931228,-3.818396 1.708818,-5.500267 -1.960818,-1.938713 -4.04588,-4.142391 -4.486427,-7.004487 -0.234413,-0.958547 -0.09437,-1.947828 -0.270074,-2.891649 l -0.17522,-0.03124 z"
     id="path9162"
     transform="translate(-5,-10)" />
  <path
     style="fill:#005500;stroke-width:0.183838"
     d="m 78.897587,26.93796 c 0.285799,0.813023 1.453463,1.232449 1.990258,2.014314 1.376316,1.488948 2.35248,3.304036 3.053429,5.185515 0.982307,0.845014 2.47082,0.870745 3.470653,1.731736 2.538426,1.636953 4.011786,4.60584 3.891829,7.595152 -0.04849,0.756532 0.87976,0.727914 0.931037,0.01975 1.701859,-5.765698 -0.911064,-12.705377 -6.456377,-15.337155 -2.103009,-1.103167 -4.574671,-1.279808 -6.880829,-1.20931 z"
     id="path9164"
     transform="translate(-5,-10)" />
  <path
     style="fill:#005500;stroke-width:0.183838"
     d="m 74.434857,64.301525 c -4.397404,4.594561 -9.083092,8.938043 -13.141995,13.842637 -0.983935,1.407973 -2.284376,2.706952 -2.93195,4.296608 0.656338,0.862434 1.971141,0.93722 2.966829,1.182137 3.24795,0.458271 6.637936,-0.811852 8.81342,-3.264802 0.57916,-0.574245 1.146104,-1.156896 1.743666,-1.704318 2.063377,1.930678 4.600843,3.622533 7.53088,3.64336 5.115141,0.367084 10.004088,-3.500285 11.018438,-8.490606 0.20213,-1.234563 0.508071,-2.617218 0.128155,-3.821848 -1.505021,0.08567 -3.071384,0.633749 -4.616405,0.471084 -2.142034,-0.02992 -4.20759,-0.637624 -6.130914,-1.509839 -0.54655,0.164082 -0.339967,1.03789 -0.753304,1.417561 -0.966405,2.169208 -2.940161,4.024146 -5.371866,4.236165 -1.36474,-0.07604 -2.87832,0.279391 -4.157172,-0.281142 -0.336527,-0.454384 0.02347,-1.097272 0.629346,-0.887766 1.992231,-0.185023 4.348541,0.373499 5.998504,-1.138039 1.247498,-1.014031 2.045273,-2.6277 2.23298,-4.169021 -1.404382,-1.16051 -2.632032,-2.53595 -3.820016,-3.882134 z"
     id="path9166"
     transform="translate(-5,-10)" />
  <path
     style="fill:#005500;stroke-width:0.183838"
     d="m 64.250179,50.638653 c -1.849008,1.427465 -4.028058,2.366952 -6.281359,2.957201 -1.109467,0.387534 -0.899352,1.926633 -1.441445,2.777708 -1.701656,4.936815 -3.506542,9.856248 -5.135777,14.807153 0.425735,0.565005 0.994797,-0.533971 1.389577,-0.678273 5.214736,-4.421867 10.44562,-8.827309 15.661364,-13.245274 -0.01477,-0.719429 -0.998494,-1.046974 -1.369447,-1.615043 -1.358029,-1.350384 -1.944062,-3.193114 -2.598861,-4.928788 -0.05098,-0.06399 -0.144105,-0.09516 -0.224052,-0.07468 z"
     id="path9168"
     transform="translate(-5,-10)" />
  <path
     style="fill:#005500;stroke-width:0.183838"
     d="m 44.311694,45.974491 c -1.581337,1.220747 -3.273468,2.26877 -5.235263,2.72 -0.59723,0.155731 -1.336195,0.522703 -1.029579,1.297499 0.140285,4.924946 0.125643,9.863922 0.480419,14.777387 -0.07701,0.540685 0.591539,0.879242 0.721949,0.161542 2.80839,-4.804751 5.626704,-9.601954 8.441209,-14.403215 -0.634685,-1.122999 -1.744998,-2.101817 -2.301561,-3.330261 -0.290051,-0.388912 -0.48994,-1.20928 -1.077174,-1.222952 z"
     id="path9170"
     transform="translate(-5,-10)" />
  <path
     style="fill:#44aa00;stroke-width:0.183838"
     d="m 29.078304,46.876086 c 0.315433,7.838031 0.944327,15.801036 -0.804164,23.506437 -1.47038,7.330133 -4.823213,14.15339 -9.027919,20.302575 -1.04992,1.424715 -1.617052,3.495659 -0.459235,5.031839 1.798428,2.054101 4.364251,3.233656 6.629852,4.689693 6.009303,3.37608 12.632666,5.6916 19.426261,6.83535 2.085039,0.0127 4.129021,-1.64521 4.269199,-3.78735 1.276697,-6.914589 3.386674,-13.729747 7.018977,-19.804004 4.634317,-7.879956 11.518097,-14.050211 17.745607,-20.638837 -0.312023,-1.317347 -0.962528,-2.640848 -1.179506,-4.032939 -0.191682,-0.960913 -1.433769,-0.647897 -2.086462,-1.08837 -1.115047,-0.676715 -1.783918,0.904653 -2.652823,1.363655 -8.866462,7.485596 -17.661522,15.056317 -26.465001,22.614298 -0.385945,0.49578 -1.622229,1.163486 -1.643768,0.06714 2.990792,-2.997212 6.422354,-5.561527 9.382542,-8.566763 2.298487,-6.463487 4.56222,-12.940785 6.755675,-19.440471 -0.238465,-0.680754 -1.349828,-0.160636 -1.889542,-0.276233 -0.918403,0.380301 -0.769732,1.934245 -1.266018,2.765324 -0.828586,2.180098 -1.302365,4.531329 -2.403734,6.580711 -0.6748,0.407334 -1.114268,-0.507609 -0.704359,-1.026886 0.778444,-2.904896 2.094328,-5.679918 2.641837,-8.634644 -0.366586,-0.646664 -1.40634,-0.678492 -1.9741,-1.155089 -0.598515,-0.153844 -1.228771,-0.912558 -1.847354,-0.676465 -3.429075,5.767148 -6.687282,11.648627 -10.232074,17.338189 -0.516698,0.447825 -1.131204,-0.03818 -0.933303,-0.656663 -0.377649,-6.226437 -0.253419,-12.491925 -0.668094,-18.714871 -0.428829,-0.8538 -1.709252,-0.354674 -2.430104,-0.67072 C 32.465313,48.47952 30.7727,47.640703 29.199665,46.745745 Z m 3.074254,17.774443 c 0.772673,0.323001 0.362565,1.529942 0.405121,2.166538 -0.45205,4.797382 -1.772204,9.536321 -3.740051,13.919974 -0.278991,0.905643 -1.514079,-0.06131 -0.986691,-0.657077 1.841924,-4.55361 3.122965,-9.342612 3.575498,-14.239876 0.118573,-0.403395 0.160958,-1.213519 0.746123,-1.189559 z m -5.53775,18.830432 c 1.103727,0.21993 0.191865,1.377041 -0.03052,1.9741 -0.487076,0.669921 -0.694564,1.899412 -1.591345,2.098694 -0.730563,-0.18228 -0.594944,-0.925661 -0.221898,-1.386323 0.566704,-0.873327 0.858209,-2.094584 1.723478,-2.687549 l 0.05673,-0.0025 z"
     id="path9174"
     transform="translate(-5,-10)" />
</svg>
