<?xml version="1.0" encoding="UTF-8" standalone="no"?>
<svg
   xml:space="preserve"
   version="1.1"
   style="shape-rendering:geometricPrecision;text-rendering:geometricPrecision;image-rendering:optimizeQuality;"
   viewBox="0 0 100000 125000"
   x="0px"
   y="0px"
   fill-rule="evenodd"
   clip-rule="evenodd"
   id="svg1630"
   sodipodi:docname="cape-gooseberry.svg"
   inkscape:version="1.2.2 (b0a8486541, 2022-12-01)"
   xmlns:inkscape="http://www.inkscape.org/namespaces/inkscape"
   xmlns:sodipodi="http://sodipodi.sourceforge.net/DTD/sodipodi-0.dtd"
   xmlns="http://www.w3.org/2000/svg"
   xmlns:svg="http://www.w3.org/2000/svg"><sodipodi:namedview
     id="namedview1632"
     pagecolor="#ffffff"
     bordercolor="#000000"
     borderopacity="0.25"
     inkscape:showpageshadow="2"
     inkscape:pageopacity="0.0"
     inkscape:pagecheckerboard="0"
     inkscape:deskcolor="#d1d1d1"
     showgrid="false"
     inkscape:zoom="0.01"
     inkscape:cx="50050"
     inkscape:cy="54500"
     inkscape:window-width="1857"
     inkscape:window-height="1011"
     inkscape:window-x="0"
     inkscape:window-y="0"
     inkscape:window-maximized="1"
     inkscape:current-layer="g1624" /><defs
     id="defs1620"><style
       type="text/css"
       id="style1618">
   
    .fil0 {fill:black;fill-rule:nonzero}
   
  </style><inkscape:path-effect
       effect="fill_between_many"
       method="originald"
       linkedpaths="#g1624,0,1|"
       id="path-effect1751" /></defs><path
     inkscape:original-d="M 0,0"
     inkscape:path-effect="#path-effect1751"
     d="M 0,0"
     id="path1753"
     class="UnoptimicedTransforms" /><g
     id="g1624"
     class="UnoptimicedTransforms"
     transform="matrix(0.9545,0,0,0.9545,3584.8506,825.62822)"><path
       class="fil0"
       d="m 95659.16,50988.34 c 106.8,-144.36 215.18,-295.79 325.76,-450.32 l 33.17,-46.37 v -1.97 c 1123.46,-1569.45 2000.4,-3690.94 2498.31,-6028.29 477.28,-2240.44 604.83,-4672.63 266.6,-7002.28 -770.69,-5308.26 -2863.65,-8389.81 -4899.25,-11386.89 -1461.01,-2151.14 -2893.42,-4260.12 -3826.16,-7105.05 -310.04,-945.68 -564.87,-1454.62 -770.15,-1471.47 -204.83,-16.82 -522.29,445.42 -976.53,1440.51 -395.55,866.49 -748.68,1471.23 -1179.63,2037.08 -425.23,558.32 -917.76,1067.12 -1600.61,1751.49 -507.1,508.21 -997.97,1063.4 -1466.46,1681.78 -469.91,620.24 -913.39,1298.11 -1323.24,2048.34 -773.14,1415.26 -1017.85,2624.63 -1272.57,3883.5 -390.22,1928.56 -802.66,3966.79 -2996.66,6999.82 -1117.05,1544.25 -2043.86,3216.88 -2584.96,4987.01 -536.31,1754.45 -696.84,3612.93 -290.82,5548.11 197.56,941.59 389.96,1633.72 595.9,2157.08 121.86,309.67 246.42,555.07 378.38,755.56 365.02,-376.08 752.19,-730.53 1159.6,-1061 1078.18,-874.56 2296.93,-1582.06 3616.75,-2083.48 -550.25,-844.55 -894.29,-1854.87 -991.77,-2938 -109.87,-1220.62 93.62,-2533.49 668.57,-3803.71 83.7,-184.92 165.09,-348.16 245.65,-509.76 320.87,-643.64 628.36,-1260.46 612.64,-2297 -32.39,-2134.33 496.93,-2843.58 975.34,-3484.63 411.63,-551.54 779.46,-1044.43 571.42,-2702.96 -20.16,-165.17 97.39,-315.41 262.56,-335.56 165.16,-20.16 315.4,97.39 335.56,262.55 237.97,1897.1 -198.44,2481.88 -686.82,3136.26 -421.03,564.16 -886.86,1188.34 -857.59,3117.27 17.96,1184.72 -320.59,1863.85 -673.86,2572.51 -81.44,163.35 -163.72,328.38 -236.23,488.58 -531.52,1174.27 -720.02,2383.62 -619.13,3504.65 93.22,1035.78 433.83,1996.36 979.05,2783.04 1286.4,-419.99 2659.61,-647.06 4085.47,-647.06 1231.97,0 2424.33,169.42 3555.28,485.88 283.37,-1978.61 411.25,-4046.25 378.93,-6081.7 -34.51,-2173.81 -252.09,-4310.9 -658.43,-6263.1 -204.03,-980.3 -379.15,-1975.4 -415.49,-3062.12 -36.48,-1090.88 67.44,-2264.97 422.9,-3592.41 42.91,-160.6 207.91,-256.01 368.51,-213.1 160.6,42.91 256.02,207.91 213.11,368.51 -339.31,1267.11 -438.65,2383.55 -404.05,3418.16 34.74,1038.77 205.1,2004.22 403.72,2958.51 413.59,1987.05 635.06,4162.72 670.2,6376.13 33.32,2098.46 -101.13,4230.91 -398.32,6268.42 1971.96,652.04 3737.56,1757.42 5173.12,3192.98 112.8,112.81 223.55,227.68 332.23,344.5 z m -41367,-25302.88 c -118.99,115.74 -309.29,113.1 -425.03,-5.89 -115.74,-118.98 -113.1,-309.28 5.89,-425.03 694.6,-673.5 1494.88,-1239.26 2373.26,-1670.72 857.09,-421.01 1786.59,-713.39 2762.76,-852.44 164.51,-23.41 316.85,90.97 340.26,255.48 23.41,164.51 -90.97,316.85 -255.48,340.26 -915.43,130.4 -1784.64,403.37 -2583.81,795.94 -819.37,402.48 -1567.26,931.57 -2217.85,1562.4 z M 25523.32,73969.08 c 27.31,-163.86 182.3,-274.55 346.15,-247.25 163.86,27.31 274.56,182.3 247.25,346.15 -48.17,284.3 -112.3,558.01 -191.64,820.54 -80.38,266.01 -177.85,525.83 -291.64,778.76 -68.27,151.51 -246.45,218.97 -397.96,150.7 -151.51,-68.27 -218.98,-246.45 -150.71,-397.96 101.29,-225.11 189.29,-460.56 263.4,-705.75 73.74,-244.03 132.36,-492.66 175.15,-745.19 z m -1321.5,3007 c 103.38,-130.05 292.64,-151.66 422.69,-48.27 130.05,103.38 151.66,292.63 48.27,422.68 -491.8,618.05 -1103.08,1150.86 -1816.64,1583.37 -701.98,425.5 -1501.46,752.45 -2381.82,966.32 -161.27,39.02 -323.63,-60.09 -362.64,-221.35 -39.01,-161.27 60.09,-323.63 221.36,-362.64 821.12,-199.47 1563.62,-502.51 2212.27,-895.67 650.01,-393.99 1207.41,-880.06 1656.51,-1444.44 z M 95035.47,61444.46 c 9.1,-165.8 150.92,-292.85 316.72,-283.75 165.81,9.11 292.85,150.92 283.75,316.73 -76.74,1375 -338.57,2670.32 -858.85,3800.45 -526.72,1144.14 -1316.35,2116.67 -2443.5,2829.44 -140.45,88.43 -326.02,46.26 -414.45,-94.19 -88.43,-140.45 -46.26,-326.02 94.19,-414.45 1020.58,-645.37 1737.37,-1529.93 2217.45,-2572.76 486.54,-1056.85 731.98,-2278.49 804.69,-3581.47 z M 83065.19,71725.38 c 20.15,-165.16 170.4,-282.71 335.56,-262.56 165.16,20.16 282.71,170.4 262.56,335.56 -121.96,990.08 -387.8,1894.67 -795.24,2698.53 -405.12,799.27 -950.53,1497.4 -1634.05,2079.43 -126.14,107.28 -315.4,92 -422.68,-34.14 -107.28,-126.14 -92,-315.4 34.14,-422.68 619.8,-527.78 1115.72,-1163.48 1485.69,-1893.42 375,-739.83 620.37,-1578.15 734.02,-2500.72 z M 16802.97,58942.52 c 3635.53,0 6926.94,1473.63 9309.47,3856.16 2382.52,2382.53 3856.16,5673.95 3856.16,9309.48 0,3637.77 -1222.85,6496.02 -3490.25,8455.85 -2261.52,1954.75 -5546.55,2992.04 -9675.38,2992.04 -4128.83,0 -7413.86,-1037.29 -9675.39,-2992.04 -2267.4,-1959.83 -3490.25,-4818.08 -3490.25,-8455.85 0,-3635.53 1473.64,-6926.95 3856.17,-9309.47 2382.52,-2382.53 5673.94,-3856.17 9309.47,-3856.17 z m 8599.11,4566.52 c -2200.67,-2200.66 -5240.93,-3561.81 -8599.11,-3561.81 -3358.2,0 -6398.44,1361.16 -8599.11,3561.82 -2200.68,2200.67 -3561.83,5240.93 -3561.83,8599.11 0,3333.1 1100.47,5934.71 3140.96,7698.41 2074.63,1793.21 5136.55,2744.78 9019.98,2744.78 3883.43,0 6945.35,-951.57 9019.98,-2744.78 2040.49,-1763.7 3140.94,-4365.31 3140.94,-7698.41 0,-3358.19 -1361.14,-6398.44 -3561.81,-8599.12 z m 22449.7,-34477.55 c 272.76,-948.98 648.84,-1852.76 1115.02,-2698.64 634.54,-1151.36 1436.61,-2196.98 2372.81,-3104.75 1238.84,-1201.2 2711.79,-2160.24 4341.57,-2802.71 1566.67,-617.6 3280.03,-942.49 5071.37,-908.49 2757.44,52.36 5299.94,947.79 7386.12,2435.51 1919.67,1369 3454.01,3239.89 4415.11,5417.25 1541.91,-2038.46 3443.61,-3907.82 5674.03,-5460.91 447.23,-311.43 932.23,-605.78 1410.04,-895.75 1052.24,-638.6 2066.82,-1254.44 2837.7,-2242.74 63.89,-90.06 130.28,-180.85 198.91,-271.5 l 1.39,-1.99 c 10.3,-15.1 21.32,-29.44 32.91,-43.05 65.66,-85.75 133.28,-171.29 202.66,-255.9 699.64,-853.22 1264.99,-1227.01 1744.35,-1304.46 596.6,-96.4 1005.59,200.04 1337.14,646.49 126.71,170.63 175.11,235.14 221.88,297.5 345.26,460.28 628.64,838.11 889.72,1294.58 96.93,-187.8 194.76,-390.22 295.87,-611.73 653.19,-1430.89 1296.97,-2080.17 1965.55,-2025.29 668.16,54.86 1199.04,800.92 1645.34,2162.21 890.74,2716.82 2281.77,4764.88 3700.58,6853.87 2100.73,3092.99 4260.66,6273.13 5064.07,11806.84 355.53,2448.75 222.15,5002.03 -278.37,7351.57 -526.65,2472.26 -1461.43,4726.28 -2663.14,6405.06 l -0.93,-0.67 -32.25,45.06 c -158.44,221.42 -312.48,436.68 -473.75,646.46 1787.49,2247.71 2855.61,5093.09 2855.61,8188 0,2572.55 -381.52,5010.96 -1348.07,7080.31 -980.55,2099.32 -2555.22,3805.92 -4930.72,4873.89 -861.18,387.17 -1809.36,688.91 -2870.1,893.13 -958.01,184.45 -2006.07,290.12 -3162.87,308.21 -155.39,745.4 -370.29,1453.97 -644.31,2122.33 -627.86,1531.45 -1566.09,2846.32 -2808.89,3904.59 -1125.32,958.23 -2495.19,1701.35 -4104.9,2199.19 -1549.66,479.27 -3319.41,732.46 -5304.57,732.46 -4215.32,0 -7449.92,-1136.52 -9663.77,-3153.34 -2257.83,-2056.89 -3437.15,-5007.99 -3499.13,-8586.42 -2614.6,252.48 -5334.93,128.57 -8001.91,-324.23 -2868.75,-487.07 -5675.78,-1353.49 -8223.27,-2540.16 -1237.25,-576.35 -2220.6,-1126.59 -3110.19,-1624.36 -2310.68,-1292.96 -3964.13,-2218.17 -8060.89,-2315.14 -818.09,-19.36 -1672.4,-40.6 -2156.33,-343.83 -637.77,-399.64 -737.88,-1015.67 236.79,-2040 -8.27,-1.37 -16.51,-2.79 -24.71,-4.25 -265.01,-47.49 -492.48,-144.07 -681.39,-278.32 -196.51,-139.65 -349.11,-317.68 -457.36,-522.26 -177.99,-336.4 -230.9,-740.78 -156.56,-1155.81 0.65,-3.62 1.35,-7.22 2.08,-10.81 40.14,-341.66 123.05,-692.95 208.88,-907.54 237.21,-593.03 546.88,-1150.75 903.91,-1670.22 -3314.69,-299.84 -6923.66,-1335.05 -9961.4,-3373.34 -2702.58,-1813.37 -4952.3,-4416.81 -6145.98,-7996.96 -325.55,-976.42 -538.39,-1789.94 -541.5,-2644.93 -3.15,-866.23 208.08,-1740.8 732.85,-2815.03 342.06,-700.2 614.51,-1347.08 784.05,-2037.69 152.61,-621.63 225.83,-1291.4 197.18,-2086.52 -537.14,-145.07 -1056.54,-251.93 -1555.66,-337.65 l -476.32,-81.46 C 9442.59,34378.15 3427.11,33351.36 848.67,28343.22 144.89,26976.25 -109.53,25550.48 0.89,24146.81 c 117.87,-1497.93 652.39,-2967.69 1499.57,-4309.77 321.46,-511.21 974.7,-549.82 1618.74,-316.34 194.06,70.34 390.58,166.61 574.55,280.68 186.69,115.75 360.57,249.64 506.39,393.48 461.93,455.61 679.65,1023.14 344.02,1556.88 -516.28,817.9 -865.66,1703.94 -951.73,2599.11 -75.47,784.97 52.05,1583.07 449.24,2354.54 901.42,1750.87 2804.8,2893.97 4933.55,3654.3 2190.14,782.26 4614.16,1156.97 6470.98,1370.54 371.87,42.77 728.58,80.77 1086.39,117.43 75.66,-200.24 168.04,-394.63 279.6,-580.42 178.66,-297.51 404.36,-571.31 686.43,-810.04 562.79,-476.34 1048.58,-969.61 1401.97,-1472.22 331.57,-471.58 543.8,-946.84 586.47,-1416.81 103.86,-1144.18 443.82,-1911.46 1005.98,-2447.18 554.74,-528.67 1295.61,-798.91 2220.8,-964.91 2045.97,-367.1 2416.53,-749.97 3404.17,-1770.42 l 54.31,-56.11 c 1531.4,-1581.54 3624.42,-2359.85 5836.2,-2513.36 2450.58,-170.11 5055.34,431.15 7190.22,1556.07 2379.65,1253.89 4895.11,3346.39 7136.58,5849.23 521.81,582.65 1029.01,1187.82 1516.46,1810 z m 24013.03,-705.18 c -861.48,-2247.21 -2372.25,-4177.85 -4306.98,-5557.58 -1928.28,-1375.11 -4276.36,-2202.74 -6820.98,-2251.04 -1654.48,-31.41 -3239.33,269.61 -4690.69,841.75 -1505.11,593.33 -2864.87,1478.5 -4007.96,2586.86 -864.41,838.14 -1605.45,1804.47 -2192.29,2869.27 -552.55,1002.6 -967.93,2091.23 -1220.39,3241 1159.4,1595.07 2178.1,3278.02 2975.34,4964.54 285.53,-103.1 572.39,-198.19 860.01,-284.37 3323.6,-995.76 6756.22,-835.91 9352.32,1300.47 72.94,60.01 145.91,122.25 218.87,186.68 1711.71,1511.74 2748.29,1724.45 3612.73,1901.84 791.52,162.42 1461.2,300.01 2260.08,1069.13 201.55,-3047.54 1217.14,-6277.25 2961.36,-9286.83 309.95,-534.8 643.01,-1062.78 998.58,-1581.72 z m 2385.69,28539.3 c 3539.49,63.77 6738.06,1524.14 9067.63,3853.71 2382.52,2382.53 3856.16,5673.95 3856.16,9309.48 0,715.14 -44.14,1406.43 -132.07,2071.82 1027.91,-24.79 1957.22,-122.1 2803.6,-285.05 985.48,-189.73 1860.73,-467.51 2650.31,-822.5 2134.5,-959.63 3550.11,-2494.55 4432.31,-4383.32 896.19,-1918.72 1249.95,-4215.02 1249.95,-6656.44 0,-3358.18 -1361.15,-6398.44 -3561.83,-8599.1 -2200.67,-2200.67 -5240.91,-3561.83 -8599.11,-3561.83 -2902.91,0 -5566.86,1015.27 -7655.75,2709.68 -1658.36,1345.16 -2955.6,3117.72 -3724.02,5149.72 -3.81,11.24 -7.98,22.27 -12.5,33.05 -144.2,384.73 -269.48,778.7 -374.68,1180.78 z M 60862.04,69318.26 c 99.7,-1874.41 591.53,-3644.71 1394.81,-5230.56 -1350.62,346.94 -2697.37,593.13 -3972.06,741.99 -1615.99,188.72 -3119.52,220.43 -4371.24,102.45 -165.16,-15.6 -286.4,-162.16 -270.79,-327.32 15.6,-165.16 162.16,-286.4 327.32,-270.8 1207.01,113.78 2667.38,81.96 4246.43,-102.45 1419.28,-165.75 2931.83,-455.35 4439.58,-873.91 568.24,-965.06 1256.06,-1851.3 2043.1,-2638.33 2207.26,-2207.27 5194.67,-3634.23 8513.03,-3832.25 126.64,-530.66 285.42,-1048.82 474.13,-1552.34 197.41,-603.12 321.94,-1230.82 325.71,-1852.41 3.28,-538.42 -83.3,-1076.96 -291.15,-1596.59 -217.63,-544.08 -348.22,-1002.95 -417.53,-1401.62 -583.44,1181.43 -1335.99,2299.49 -2260.08,3313.24 -1305.92,1432.65 -2953.46,2655.91 -4949,3553.96 -151.51,68.27 -329.69,0.8 -397.96,-150.71 -68.27,-151.51 -0.8,-329.69 150.71,-397.96 1917.51,-862.94 3499.08,-2036.66 4751.21,-3410.31 1248.56,-1369.71 2170.52,-2939.34 2772.24,-4598.63 42.72,-165.89 91.78,-325.36 140.79,-484.62 124.63,-405.01 248.78,-808.48 211.61,-1352.76 -3415.89,135.04 -5643.23,2287.46 -8293.11,4848.39 -407.53,393.86 -824.87,797.18 -1251.79,1198.77 -3691.51,3472.39 -6794.87,5470.33 -10275.83,6638.28 -3471.67,1164.83 -7300.25,1496.16 -12455.49,1638.67 -1991.46,55.06 -3777.42,124.39 -5379.42,334.85 -1304.4,171.37 -2488.04,437.01 -3564.5,866.66 291.85,24.84 634.63,33.1 970.3,41.04 4350.05,102.96 6092.65,1078.04 8527.9,2440.72 868.07,485.73 1827.61,1022.65 3043.48,1589.04 2470.66,1150.88 5189.26,1990.53 7964.24,2461.67 2621.15,445.03 5292.68,562.31 7853.36,303.84 z m 21745.73,-7888.58 c -2200.67,-2200.67 -5240.93,-3561.81 -8599.11,-3561.81 -3358.19,0 -6398.44,1361.15 -8599.11,3561.82 -2200.67,2200.67 -3561.83,5240.93 -3561.83,8599.11 0,3425.31 1070.25,6228.64 3172.21,8143.53 2029.24,1848.64 5036.02,2890.38 8988.73,2890.38 1889.12,0 3560.22,-236.89 5010.23,-685.35 1479.86,-457.68 2731.64,-1134.39 3751.67,-2002.98 1116.7,-950.91 1961.91,-2137.63 2530.25,-3523.89 577.35,-1408.27 868.77,-3028.06 868.77,-4821.69 0,-3358.19 -1361.14,-6398.44 -3561.81,-8599.12 z m -6722.29,-9881.27 c -231.47,-300.2 -437.28,-669.17 -627.67,-1153 -224.31,-570.05 -431.3,-1310.81 -640.77,-2307.42 -44.06,177.16 -96.06,346.19 -148.15,515.43 -212.7,691.17 -426.84,1386.98 182.15,2909.48 167.28,418.18 271.3,844.62 322.78,1273.19 280.06,-430.63 584.59,-843.85 911.66,-1237.68 z m -32329.63,5797.54 c -194.11,-535.33 -355.25,-1087.26 -480.89,-1653.35 -110.91,-499.7 -193.93,-1009.05 -247.34,-1526.26 -1417.99,828.21 -2952.47,1237.24 -4461.51,1639.37 -2377.72,633.61 -4687.85,1249.24 -6173.12,3561.25 -217.95,339.27 -410.39,590.09 -579.62,768.57 21.94,5.78 44.76,10.84 68.48,15.09 348.3,62.38 851,-36.62 1518.48,-385.71 68.63,-45.9 139.01,-92.05 211.21,-138.42 2094.78,-1345.38 4099.24,-1513.59 6225.06,-1691.95 1250.04,-104.89 2544.57,-213.59 3919.25,-588.59 z m 224.7,-3818.64 c 39.59,666.93 131.5,1318.09 271.64,1949.44 118.88,535.56 272.83,1058.8 459.31,1567.17 1270.46,-458.94 2612.29,-1181.68 4051.39,-2359.12 1810.85,-1481.6 2791.28,-2925.93 3843.17,-4475.55 1036.57,-1527.05 2140.31,-3152.64 4118.8,-5010.48 -608.25,201.67 -1187.47,359.48 -1756.57,514.46 -1506.71,410.31 -2939.12,800.4 -4656.69,1995.03 -1282.13,891.79 -2365.28,1999.95 -3456.39,3116.25 -829.04,848.18 -1662.57,1700.94 -2593.75,2478.13 -92.87,77.52 -186.55,152.27 -280.91,224.67 z M 73616.08,46360 c -97.18,-306.84 -254.83,-553.42 -458.89,-758.82 -300.17,-302.14 -710.73,-533.1 -1184.44,-739.09 l -21.98,-9.57 c -972.74,-422.93 -2145.9,-933.05 -2990.79,-2440.27 -362.27,-646.27 -683.43,-1157.36 -975.71,-1564.08 -722.37,-358.47 -1685.31,-322.08 -2678.97,-77.73 -1323.41,325.44 -2676.37,1015.03 -3635.29,1661.14 -34.31,47.28 -77.49,89.35 -129.07,123.49 -4982.8,3318.59 -6725.22,5885.49 -8306.78,8215.4 -1098.13,1617.74 -2121.66,3125.56 -4035.48,4691.41 -3647.15,2984.03 -6669.79,3237.67 -9479.66,3473.44 -1998.68,167.71 -3883.28,325.86 -5765.89,1534.96 -296.13,190.19 -565.57,381.96 -811.01,572.71 -245.17,190.53 -457.26,372.61 -641.45,545.63 -187.13,175.78 -329.26,314.14 -434.16,421.48 1181.65,-500.41 2483.08,-801.37 3923.05,-990.56 1628.08,-213.89 3431.4,-284.02 5440.64,-339.57 5098.75,-140.96 8878.79,-466.44 12281.24,-1608.05 3393.17,-1138.49 6429.6,-3096.7 10054.47,-6506.42 433.05,-407.35 844.9,-805.38 1247.09,-1194.06 2720.04,-2628.75 5009.89,-4841.07 8603.08,-5011.44 z m 750.35,-796.35 c 12.91,-1213.37 215.13,-2391.66 562.75,-3528.83 73.54,-240.58 153.56,-479.17 239.6,-715.74 527.98,-1531.1 484.42,-2565.32 445.25,-3494.06 -55.07,-1305.63 -102.31,-2425.79 1147.1,-4271.76 211.39,-312.31 363.24,-693.05 445.65,-1153.59 86.84,-485.23 97.82,-1061.66 22.18,-1742.29 -93.11,-837.71 -111.52,-1516.57 13.19,-2186.36 126.68,-680.33 394.41,-1324.1 871.4,-2075.78 152.75,-240.71 289.92,-488.67 377.11,-843.84 94.06,-383.19 138.95,-901.54 101.22,-1677.85 -22.49,-462.57 62.79,-834.48 222.21,-1149.85 l -13.28,9.22 c -3005.85,2093.06 -5389.2,4782.06 -7067.24,7677.46 -1777.97,3067.82 -2763.4,6361.7 -2857.32,9417.63 -3.17,103.3 -5.54,199.79 -7.08,289.41 -1.41,81.46 -2.35,160.3 -2.83,236.51 297.43,425.86 617.62,941.19 968.84,1567.75 680.86,1214.61 1684.08,1650.82 2515.9,2012.48 l 21.99,9.57 c 578.41,251.54 1091,544.9 1494.49,951.03 196.49,197.76 364.55,418.5 498.87,668.89 z M 32401.71,55266.3 c 81.56,-86.28 164.02,-171.05 247.23,-254.26 1247.36,-1247.37 2668.68,-2155.32 3636.7,-2637.42 2482.82,-1236.49 3434.94,-2948.35 4119.83,-4845.49 -3947.76,-452.91 -8811.44,-1838.95 -12434.18,-3941.37 -2701.29,-1567.65 -4724.32,-3540.79 -5207.54,-5840.15 -132.64,108.09 -268.9,198.03 -407.2,266.77 -972.49,4333.06 -162.43,8210.7 1747.48,11223.23 1901.46,2999.17 4892.2,5143.79 8297.68,6028.69 z m 8205,-8318.99 c 89.8,-269.49 176.91,-541.98 264.73,-816.75 571.09,-1787.06 1170.59,-3662.96 2662.05,-5475.38 113.69,-138.16 231.42,-276.15 352.95,-413.77 730.46,-827.07 1580.53,-1616.54 2513.06,-2336.65 -3689.08,-2288.48 -8629.83,-3984.38 -13051.5,-4509.36 -3871.68,-459.69 -7325.45,-23.69 -9136.84,1701.9 -52.52,301.16 -140.06,605.81 -254.34,898.79 -171.03,438.49 -405.28,858.92 -673.48,1207.6 262.97,2287.88 2258.85,4279.06 4989.36,5863.68 3593.5,2085.44 8435.56,3452.1 12334.01,3879.94 z m 6309.66,-9428.45 c 1161.06,-838 2432.56,-1566.42 3749.31,-2129.17 -76.03,-159.79 -154.09,-319.56 -234.14,-479.2 -1434.8,-2135.46 -3182.9,-3840.54 -5031.72,-5135.58 -2494.08,-1747.04 -5169.35,-2749.15 -7504.2,-3055.76 -1292.69,-169.76 -2893.88,-114.01 -4483.91,87.76 -1748.55,221.88 -3478.69,619.97 -4768.47,1088.96 -1291.47,469.6 -2346.19,1022.4 -3155.98,1860.69 -765,791.93 -1322.23,1849.79 -1669.07,3348.66 200.75,231.25 329.3,520.04 397.12,844.7 21.63,103.53 36.19,210.67 44.25,320.49 2036.03,-1536.09 5422.69,-1916.76 9159.09,-1473.13 4581.93,544 9714.8,2324.93 13497.72,4721.58 z m 19852.23,2064.33 c -448.48,-296.45 -860.29,-381.16 -1323.97,-476.31 -983.47,-201.81 -2162.76,-443.81 -4075.83,-2133.38 -62.45,-55.16 -126.28,-109.55 -191.4,-163.13 -2302.04,-1894.38 -5402.95,-2019.02 -8430.03,-1112.09 -3087.6,925.09 -6085.97,2913.15 -8111.32,5206.4 -112.3,127.16 -222.17,255.99 -329.4,386.29 -1370.61,1665.57 -1939.56,3445.83 -2481.53,5141.79 -848.89,2656.35 -1636.05,5119.44 -5092.07,6840.61 -895.78,446.11 -2213.09,1288.36 -3373.75,2449.04 -825.08,825.08 -1566.4,1806.71 -2008.26,2911.39 -35.1,87.73 -69.58,207.44 -97.8,338.57 30.5,-45.91 62.46,-94.86 95.96,-147 1695.25,-2638.87 4192,-3304.24 6761.82,-3989.04 1851.02,-493.26 3742.61,-997.35 5306.81,-2302.91 901.14,-752.13 1712.34,-1582.05 2519.18,-2407.5 1128.78,-1154.86 2249.37,-2301.29 3601.59,-3241.83 1861.14,-1294.5 3374.69,-1706.69 4966.74,-2140.24 1777.93,-484.16 3658.94,-996.42 6250.36,-2894.97 1043.6,-764.56 2693.7,-1654.24 4310.2,-2051.76 577.17,-141.93 1153.21,-221.91 1702.7,-213.93 z M 22328.58,32499.05 c -385.58,-1654.56 -483.01,-3587.24 -96.76,-5204.8 204.09,-854.69 542.52,-1623.9 1043.22,-2225.78 -122.38,24.38 -250.22,48.57 -384.6,72.68 -739.63,132.71 -1315.25,332.88 -1706.67,705.9 -353.27,336.65 -581.27,842.42 -677.68,1606.13 -68.74,997.87 48.15,1889.05 248.14,2646.73 282.98,1072.11 728.11,1872.02 1048.02,2327.88 172.49,22.86 347.9,46.58 526.33,71.26 z m 2354.91,-7806.29 c -985.74,498.11 -1575.42,1516.49 -1867.67,2740.42 -382.49,1601.78 -258.11,3543.63 157.04,5168.67 115.7,29.74 222.68,67.75 321.34,113.27 377.04,-1480.2 964.75,-2552.35 1759.77,-3375.35 883.93,-915.05 2012.02,-1510.02 3384.42,-2009.04 1327.55,-482.73 3104.72,-892.02 4897.97,-1119.57 1637.27,-207.76 3292.11,-264.37 4636.96,-87.76 2422.67,318.15 5193.49,1354.39 7770.28,3159.36 942.02,659.86 1858.35,1422.37 2722.6,2289.84 -871.34,-1288.57 -1844.42,-2531.45 -2876.55,-3683.93 -2163.17,-2415.41 -4580.84,-4429.59 -6857.94,-5629.44 -1978.16,-1042.34 -4389.68,-1599.62 -6656.48,-1442.26 -1978.49,137.33 -3839.96,822.41 -5184.71,2211.17 l -54.31,56.11 c -773.16,798.84 -1221.19,1261.78 -2152.72,1608.51 z m -3656.41,7635.54 c -299.23,-511.89 -627.61,-1215.84 -854.47,-2075.34 -87.6,-331.88 -160.38,-687.35 -210.94,-1064.37 -73.68,125.56 -154.14,250 -240.84,373.31 -405.66,576.94 -950.14,1132.04 -1574.64,1660.6 -195.92,165.82 -351.88,354.64 -474.52,558.87 -33.46,55.74 -64.61,112.74 -93.54,170.86 1022.83,101.43 2151.05,214.88 3448.95,376.07 z m -5343.58,9998.55 c 149.11,-632.19 390.51,-1252.18 729.78,-1829.67 777.28,-1323.01 2064.95,-2422.34 3928.88,-2935.46 42.82,-11.78 85.95,-23.25 129.38,-34.42 -945.61,-647.72 -1854.54,-1108.9 -2720.99,-1445.78 -117.96,-45.87 -235.24,-89.43 -351.81,-130.89 1.58,744.13 -81.5,1396.08 -232.59,2011.55 -191.31,779.23 -486.72,1484.55 -854.7,2237.85 -401.54,821.96 -591.08,1492.65 -627.95,2126.82 z m 5245.28,-4290.14 c -146.52,31.09 -289.46,65.92 -428.84,104.28 -1696.17,466.93 -2865.27,1462.78 -3568.61,2659.95 -705.48,1200.82 -945.79,2604.97 -781.63,3883.26 13.71,106.73 30.24,212.58 49.58,317.34 527.34,1547.36 1267.95,2898.32 2164.78,4070.46 -313.41,-1639.06 -271.07,-3564.31 64.89,-5389.79 416.92,-2265.4 1289.6,-4390.73 2499.83,-5645.5 z m 737.04,130.69 c -1281.58,1092.02 -2212.78,3270.13 -2645.83,5623.14 -410.41,2230 -369.4,4602.02 247.19,6348.21 803.71,859.86 1698.31,1605.7 2653.52,2246.63 2872.21,1927.22 6292.8,2911.42 9445.11,3202.91 -3183.28,-1045.07 -5953.74,-3162.62 -7770.42,-6028.07 -1948.51,-3073.39 -2800.45,-7004.31 -1888.5,-11390.82 -13.7,-0.41 -27.38,-1.09 -41.07,-2 z M 2777.76,20462.61 c -221.03,-80.12 -406.83,-127.99 -429.57,-91.81 -761.61,1206.51 -1241.62,2521.38 -1346.51,3854.5 -96.39,1225.17 125.03,2468.38 737.88,3658.73 2348.95,4562.41 8093.31,5542.92 12787.22,6344.11 l 476.32,81.47 c 961.21,165.06 1999.39,406.61 3108.52,837.86 1105.96,430.01 2274.59,1047.06 3494.29,1962.26 l 0.7,-0.97 c 141.39,102.86 351.43,15 568.54,-174.25 331.68,-289.13 640.9,-773.38 847.62,-1303.41 201.82,-517.42 298.61,-1059.6 211.39,-1477.1 -69.37,-332.1 -289.75,-579.05 -729.1,-619.44 l -23.55,-1.96 c -2073.03,-293.32 -3722.11,-456.75 -5162.06,-599.43 -730.67,-72.4 -1410.03,-139.73 -1987.06,-206.1 -1913.84,-220.13 -4416.12,-607.7 -6694.69,-1421.55 -2339.96,-835.77 -4447.83,-2122.67 -5486.92,-4140.94 -490.75,-953.22 -648.37,-1938.85 -555.19,-2907.93 102.11,-1061.96 505.95,-2096.25 1100.85,-3038.67 31.07,-49.42 -61.59,-173.51 -198.8,-308.84 -94.73,-93.43 -207.97,-180.59 -329.79,-256.12 -124.51,-77.19 -257.94,-142.52 -390.09,-190.41 z m 80726.48,-1401.15 -0.3,0.46 c -78.2,113.98 -158.54,223.42 -240.79,328.92 -41.19,58.74 -81.32,117.23 -120.26,175.18 -191.31,284.66 -357.34,563.97 -482.53,794.68 -455.56,839.58 -1153,1325.12 -1802.49,1777.29 -685.41,477.16 -1303.19,907.26 -1265.21,1688.46 42.95,883.43 -13.31,1494.37 -128.68,1964.35 -122.27,498.01 -302.88,827.24 -502.71,1142.12 -407.3,641.86 -632.74,1174.55 -734.05,1718.63 -103.26,554.61 -84.53,1148.18 -1.42,1895.93 85.96,773.46 70.44,1445.51 -33.95,2028.8 -108.79,607.96 -312.89,1115.92 -598.71,1538.2 -1066.69,1576.03 -1025.89,2543.57 -978.33,3671.29 7.01,166.07 14.13,335.25 18.58,509.52 319.26,-528.81 663.22,-1044.32 1025.95,-1545.77 2069.97,-2861.58 2459.42,-4786.24 2827.9,-6607.36 270.43,-1336.47 530.23,-2620.37 1374.62,-4166.06 439.71,-804.91 909.09,-1523.69 1401.73,-2173.93 494.05,-652.12 1015.45,-1241.35 1556.71,-1783.82 653.16,-654.6 1122.54,-1139.02 1514.29,-1653.37 55.52,-72.89 109.64,-146.63 162.71,-221.81 -309.58,-674.03 -640.96,-1115.87 -1083.14,-1705.35 -96.62,-128.82 -197.24,-262.97 -225.8,-301.42 -120.96,-162.89 -245.47,-275.05 -375.59,-254.03 -247.36,39.96 -602.09,309.67 -1128.19,951.25 -61.46,74.95 -121.65,151.12 -180.34,227.84 z"
       id="path1622" /><path
       style="fill:#ff7f2a;stroke-width:100"
       d="m 57222.266,44078.711 c -2267.459,669.743 -4680.44,1229.691 -6487.666,2859.712 -1797.514,1555.499 -3531.118,3202.869 -5120.928,4968.999 -385.509,687.843 49.573,1530.691 151.953,2245.703 191.07,449.778 118.341,1461.855 822.266,884.375 3037.937,-1253.501 5376.747,-3743.611 7118.674,-6469.305 1035.365,-1587.869 2289.682,-3012.954 3518.044,-4446.711 3.589,-5.759 24.823,-48.286 -2.343,-42.773 z"
       id="path1856"
       transform="matrix(1.0476689,0,0,1.0476689,-3755.7366,-864.98504)" /><path
       style="fill:#ff7f2a;stroke-width:100"
       d="m 74185.352,56105.078 c -3190.784,6.278 -6344.548,1366.66 -8481.446,3749.024 -3476.349,3674.18 -4080.013,9775.063 -1339.044,14034.884 2031.192,3034.868 5864.597,4295.33 9380.059,4231.25 2257.906,10.949 4581.928,-140.273 6642.384,-1154.806 2686.462,-1160.078 4634.766,-3720.925 5141.015,-6590.821 899.025,-4156.213 -499.622,-8795.6 -3816.464,-11527.186 -2083.962,-1760.831 -4785.832,-2802.165 -7526.504,-2742.345 z m 9000.586,12996.289 c 478.815,96.227 134.768,785.872 115.234,1092.578 -344.461,1459.104 -1083.479,2946.555 -2357.031,3787.5 -371.889,2.232 -318.319,-477.484 -45.243,-617.888 1092.484,-1082.171 1672.517,-2530.506 1972,-4013.166 37.878,-152.629 141.247,-283.226 315.04,-249.024 z"
       id="path1858"
       transform="matrix(1.0476689,0,0,1.0476689,-3755.7366,-864.98504)" /><path
       style="fill:#ff7f2a;stroke-width:100"
       d="m 85398.633,46483.398 c -4457.746,65.955 -8722.563,2953.215 -10382.031,7100.977 -143.106,453.374 -505.757,945.747 -437.305,1424.805 1927.596,245.386 3881.338,613.024 5594.868,1583.571 4180.807,2190.674 6901.019,6903.758 6603.025,11629.319 162.48,396.639 -355.003,1532.19 296.915,1397.299 2817.585,-183.946 5835.589,-965.05 7711.833,-3226.986 1865.733,-2265.429 2535.927,-5308.269 2406.673,-8192.382 96.627,-1608.313 -186.172,-3216.099 -858.627,-4682.813 -1769.209,-4290.152 -6300.793,-7192.415 -10935.351,-7033.79 z m 9198.633,12704.688 c 483.023,104.606 151.202,800.044 208.203,1133.398 -170.595,2164.601 -1275.308,4340.842 -3128.516,5517.383 -382.547,138.656 -542.837,-316.155 -215.82,-505.273 1788.006,-1286.461 2675.044,-3465.97 2794.922,-5613.867 43.816,-183.681 71.927,-550.933 341.211,-531.641 z"
       id="path1860"
       transform="matrix(1.0476689,0,0,1.0476689,-3755.7366,-864.98504)" /><path
       style="fill:#ff7f2a;stroke-width:100"
       d="m 60755.664,20514.258 c -2551.905,-32.462 -5014.561,1115.256 -6956.25,2713.281 -1902.876,1602.44 -3216.976,3855.825 -3771.875,6272.852 1049.167,1513.334 2010.485,3087.465 2832.031,4736.132 2616.989,-943.949 5689.844,-1239.328 8247.471,37.634 1638.092,822.484 2856.378,2379.519 4702.334,2802.405 852.565,236.691 1830.884,432.549 2481.641,1037.891 315.77,-849.426 223.668,-1829.839 505.408,-2707.524 628.857,-2715.428 1857.644,-5253.911 3361.974,-7587.593 -1300.864,-3232.042 -4051.498,-5836.708 -7390.429,-6865.234 -1286.653,-491.355 -2658.938,-459.376 -4012.305,-439.844 z m -903.32,2038.476 c 364.2,-101.195 533.478,409.413 169.726,518.946 -1678.328,321.484 -3272.575,1081.652 -4559.375,2216.601 -219.471,332.6 -701.954,50.671 -446.875,-276.953 1081.497,-1293.644 2737.782,-2011.234 4347.266,-2408.203 161.286,-29.81 324.876,-52.761 489.258,-50.391 z"
       id="path1862"
       transform="matrix(1.0476689,0,0,1.0476689,-3755.7366,-864.98504)" /><path
       style="fill:#fcc35a;stroke-width:100;fill-opacity:1"
       d="m 19436.719,58086.914 c -4132.726,20.414 -8102.079,2464.389 -10028.5159,6112.109 -1607.8383,2993.902 -1792.1878,6731.314 -514.8437,9875.196 1209.4196,2777.456 3991.0736,4577.712 6902.9296,5130.859 2236.364,459.187 4560.702,408.403 6819.635,159.315 3100.51,-439.024 6241.953,-2111.464 7615.448,-5042.046 1589.962,-3450.498 1166.514,-7702.318 -859.692,-10886.214 -2111.117,-3348.797 -5965.327,-5463.588 -9934.961,-5349.219 z m 8819.726,13100.391 c 556.905,212.113 93.978,930.013 16.797,1317.578 -91.164,252.659 -306.727,965.03 -677.344,645.703 -298.464,-376.763 216.525,-842.26 219.336,-1257.031 78.827,-232.517 118.15,-694.287 441.211,-706.25 z m -1311.328,2996.484 c 527.267,143.595 75.435,682.907 -163.281,878.32 -1027.757,1023.614 -2385.688,1817.591 -3821.484,2030.274 -406.427,-202.011 -44.024,-617.817 277.929,-642.969 1351.011,-377.017 2519.053,-1180.825 3490.039,-2174.023 63.872,-43.667 135.298,-95.215 216.797,-91.602 z"
       id="path1864"
       transform="matrix(1.0476689,0,0,1.0476689,-3755.7366,-864.98504)" /><path
       style="fill:#fcc35a;fill-opacity:1;stroke-width:100"
       d="m 32562.695,32576.367 c -1989.841,76.961 -4201.367,320.851 -5740.82,1707.031 -291.214,715.007 -617.92,1429.103 -930.859,2137.696 126.781,1757.547 1531.017,3087.111 2787.929,4173.691 3122.558,2461.632 7019.12,3686.562 10844.297,4560.879 887.076,148.262 1802.175,415.761 2694.336,388.867 614.106,-1077.162 822.312,-2362.752 1393.75,-3474.023 925.732,-2029.174 2501.014,-3688.23 4227.149,-5065.235 -4302.977,-2561.789 -9231.015,-4124.408 -14234.884,-4415.261 -346.738,-14.432 -693.901,-19.066 -1040.898,-13.645 z"
       id="path6423"
       transform="matrix(1.0476689,0,0,1.0476689,-3755.7366,-864.98504)" /><path
       style="fill:#fcc35a;fill-opacity:1;stroke-width:100"
       d="m 37900,26276.953 c -3014.82,90.115 -6113.122,597.673 -8787.109,2055.664 -1465.79,797.503 -2341.142,2318.332 -2722.788,3899.612 -15.571,398.344 306.235,827.591 431.381,1193.552 2540.389,-1637.949 5707.613,-1582.53 8605.079,-1307.812 4464.529,520.607 8801.015,2055.429 12672.656,4325 446.255,282.638 859.286,-354.054 1257.052,-485.087 785.351,-561.44 1743.685,-871.543 2494.315,-1464.718 C 50300.578,31846.996 47895.132,29748.772 45238.881,28248.048 43000.901,27015.245 40478.866,26191.873 37900,26276.953 Z"
       id="path6425"
       transform="matrix(1.0476689,0,0,1.0476689,-3755.7366,-864.98504)" /><path
       style="fill:#fcc35a;fill-opacity:1;stroke-width:100"
       d="m 34718.75,20731.836 c -2127.586,0.102 -4278.442,770.614 -5740.82,2355.469 -641.342,719.068 -1497.366,1149.978 -2291.016,1660.547 -1530.021,1316.525 -1565.722,3555.234 -1439.844,5412.304 115.658,578.086 -4.415,1373.949 461.524,1801.953 385.456,-454.529 416.235,-1183.314 767.811,-1691.449 1294.938,-2491.113 4151.869,-3517.396 6734.142,-4069.879 2383.864,-516.328 4867.48,-647.51 7289.258,-368.945 3294.058,708.729 6374.462,2320.752 8847.656,4605.859 256.139,185.136 -69.972,-288.019 -99.414,-316.601 C 47098.729,27393.455 44700.08,24784.655 41804.297,22835.352 39715.5,21439.791 37235.922,20674.69 34718.75,20731.836 Z"
       id="path6427"
       transform="matrix(1.0476689,0,0,1.0476689,-3755.7366,-864.98504)" /><path
       style="fill:#fcc35a;fill-opacity:1;stroke-width:100"
       d="m 25401.953,24846.484 c -1119.871,94.638 -2199.69,953.074 -2175.195,2150.196 -118.053,1644.748 188.164,3449.326 1270.117,4737.89 217.098,141.629 478.19,72.489 307.227,-222.851 -278.095,-1606.627 -305.242,-3293.289 40.039,-4892.383 104.905,-625.141 556.215,-1143.035 701.757,-1733.008 -28.929,-48.427 -96.265,-41.73 -143.945,-39.844 z"
       id="path6429"
       transform="matrix(1.0476689,0,0,1.0476689,-3755.7366,-864.98504)" /><path
       style="fill:#fcc35a;fill-opacity:1;stroke-width:100"
       d="m 25199.023,36969.727 c -523.805,293.11 -372.214,1090.748 -503.522,1592.918 -248.588,2629.074 -49.229,5361.111 1122.146,7767.314 1624.419,3522.044 4913.003,6207.953 8637.236,7208.127 1302.041,-1245.459 2801.137,-2246.627 4377.462,-3110.362 1580.183,-860.327 2656.464,-2435.77 3218.241,-4107.411 -95.713,-342.1 -649.591,-93.801 -892.188,-243.165 -4606.538,-762.498 -9258.412,-2204.099 -12991.874,-5098.404 -1309.165,-1023.761 -2398.878,-2373.02 -2876.68,-3979.525 -22.004,-25.845 -57.256,-39.166 -90.821,-29.492 z"
       id="path6431"
       transform="matrix(1.0476689,0,0,1.0476689,-3755.7366,-864.98504)" /><path
       style="fill:#fcc35a;fill-opacity:1;stroke-width:100"
       d="m 24198.437,37402.344 c -1527.224,1405.109 -2073.561,3544.765 -2471.093,5513.867 -224.087,1740.363 -274.024,3549.997 114.843,5269.336 456.194,1043.188 1507.949,1685.242 2364.649,2380.469 2532.099,1741.07 5520.203,2860.169 8575.976,3172.265 144.05,-92.673 -355.401,-202.969 -383.398,-260.351 -4748.454,-1965.698 -8163.2,-6752.831 -8419.336,-11892.969 -93.289,-1393.839 52.541,-2826.425 225.977,-4183.789 z"
       id="path6433"
       transform="matrix(1.0476689,0,0,1.0476689,-3755.7366,-864.98504)" /><path
       style="fill:#fcc35a;fill-opacity:1;stroke-width:100"
       d="m 23252.734,37259.961 c -2517.701,531.416 -4389.132,3026.629 -4241.914,5590.035 -23.771,1412.82 783.531,2673.776 1470.412,3853.717 166.143,228.848 321.193,550.933 523.651,717.381 -354.604,-3142.925 138.977,-6446.807 1722.07,-9212.891 120.954,-312.104 565.184,-644.217 547.852,-948.633 z"
       id="path6435"
       transform="matrix(1.0476689,0,0,1.0476689,-3755.7366,-864.98504)" /><path
       style="fill:#fcc35a;fill-opacity:1;stroke-width:100"
       d="m 20308.789,35261.914 c -223.977,1158.513 -373.798,2371.854 -916.753,3451.198 -146.592,418.938 -507.17,975.672 -512.739,1356.224 740.559,-1387.05 1914.459,-2566.591 3400.967,-3139.196 149.995,-158.654 625.89,-136.23 657.041,-362.757 -796.22,-541.145 -1699.563,-1043.284 -2628.516,-1305.469 z"
       id="path6437"
       transform="matrix(1.0476689,0,0,1.0476689,-3755.7366,-864.98504)" /><path
       style="fill:#fcc35a;fill-opacity:1;stroke-width:100"
       d="m 22407.031,29063.477 c -561.516,793.203 -1401.537,1393.424 -1950,2171.679 1001.816,230.639 2089.905,353.673 3093.555,376.758 -425.274,-911.688 -740.221,-1870.641 -965.234,-2850 -59.44,100.521 -118.881,201.042 -178.321,301.563 z"
       id="path6439"
       transform="matrix(1.0476689,0,0,1.0476689,-3755.7366,-864.98504)" /><path
       style="fill:#fcc35a;fill-opacity:1;stroke-width:100"
       d="m 57073.047,34470.313 c -3128.748,-21.212 -6083.223,1436.204 -8534.906,3278.884 -1915.832,1482.219 -3624.326,3352.314 -4394.595,5692.214 -988.227,2501.2 -1530.378,5471.893 -3814.444,7177.534 -1559.723,1167.919 -3447.438,1875.684 -4786.524,3341.407 -754.557,738.11 -1520.705,1663.389 -1874.414,2604.101 1028.165,-1006.006 2081.317,-2042.545 3469.315,-2534.035 2507.942,-984.806 5356.783,-1251.98 7586.467,-2860.501 2683.014,-2242.579 4823.652,-5243.72 8086.796,-6707.808 2629.75,-1092.064 5585.078,-1445.557 7936.892,-3161.751 1718.353,-1166.663 3573.504,-2303.207 5651.78,-2647.819 124.079,34.093 827.898,-64.988 454.492,-241.992 -1199.724,-317.104 -2436.382,-607.152 -3462.376,-1349.982 -1485.836,-1050.672 -2932.098,-2406.145 -4848.275,-2534.68 -487.71,-56.525 -979.729,-65.456 -1470.208,-55.572 z"
       id="path6441"
       transform="matrix(1.0476689,0,0,1.0476689,-3755.7366,-864.98504)" /><path
       style="fill:#fcc35a;fill-opacity:1;stroke-width:100"
       d="m 67183.984,39601.953 c -3053.896,192.301 -5525.536,2255.818 -7816.177,4081.713 -2250.033,1762.944 -3935.969,4091.996 -5534.395,6430.643 -2294.785,3480.905 -5964.781,6168.123 -10147.67,6751.707 -2682.622,395.182 -5673.821,194.156 -7957.226,1906.25 -392.428,321.685 -1026.739,613.59 -1213.672,1063.086 3673.051,-1255.644 7619.988,-948.005 11434.7,-1245.863 3941.743,-194.575 7975.643,-682.088 11535.028,-2506.061 4153.306,-2026.927 7220.37,-5576.515 10682.697,-8528.161 1472.647,-1278.537 3242.927,-2265.092 5206.327,-2486.605 230.088,-16.25 544.749,-134.55 265.466,-379.014 -766.4,-1013.299 -2175.08,-1191.042 -3093.359,-2041.21 -963.344,-715.837 -1372.329,-1899.915 -2116.992,-2787.11 -382.149,-194.228 -818.233,-271.093 -1244.727,-259.375 z"
       id="path6443"
       transform="matrix(1.0476689,0,0,1.0476689,-3755.7366,-864.98504)" /><path
       style="fill:#fcc35a;fill-opacity:1;stroke-width:100"
       d="m 73728.906,45658.594 c -1981.244,210.521 -3822.493,1125.317 -5278.481,2470.069 -3473.596,3004.178 -6610.652,6538.269 -10814.487,8560.985 -5005.174,2498.074 -10721.992,2500.333 -16181.322,2723.714 -2240.592,111.337 -4522.699,239.513 -6654.616,995.622 2508.645,143.711 5110.406,334.343 7346.289,1602.539 3145.407,1655.631 6296.888,3423.024 9807.768,4176.37 2421.866,613.112 4913.477,939.351 7413.912,845.115 715.305,-73.651 1517.563,131.631 2188.476,-139.649 283.989,-998.08 322.809,-2079.604 693.606,-3068.461 132.766,-591.926 535.944,-1228.518 607.957,-1772.554 -2533.644,687.821 -5186.317,851.05 -7799.024,758.789 -292.782,-9.103 -469.569,-505.065 -49.609,-476.953 2227.097,-181.529 4491.226,-95.985 6676.581,-652.704 664.272,-232.747 1618.078,-92.891 1969.122,-842.414 2123.279,-3233.539 5799.051,-5521.542 9694.141,-5688.476 297.034,-350.961 346.384,-1044.825 537.89,-1525.195 444.629,-1261.578 345.826,-2636.698 -162.433,-3862.794 -112.878,-1025.115 -430.58,-235.08 -712.371,251.661 -1488.752,2470.677 -3782.047,4486.508 -6454.688,5573.633 -365.347,-6.931 -367.806,-546.404 6.21,-594.983 1546.966,-828.178 3058.067,-1765.075 4235.587,-3090.76 1539.802,-1665.021 2772.434,-3737.213 3134.57,-5997.656 13.72,-126.539 -29.769,-318.43 -205.078,-245.898 z"
       id="path6445"
       transform="matrix(1.0476689,0,0,1.0476689,-3755.7366,-864.98504)" /><path
       style="fill:#fcc35a;fill-opacity:1;stroke-width:100"
       d="m 78672.266,22652.734 c -5193.153,3681.526 -8943.119,9649.559 -9322.852,16074.219 59.512,1052.725 808.906,1911.434 1399.414,2734.375 1031.573,1190.729 2825.801,1373.44 3751.758,2677.93 115.862,-1692.963 629.679,-3309.52 1097.656,-4926.563 324.903,-1751.273 -128.388,-3645.059 630.078,-5304.687 595.067,-999.769 1177.279,-2078.429 1072.852,-3283.594 -37.866,-1474.308 -227.182,-3079.63 681.297,-4361.461 740.413,-957.451 472.684,-2184.303 661.086,-3288.344 -8.758,-56.814 114.68,-295.978 28.711,-321.875 z"
       id="path6447"
       transform="matrix(1.0476689,0,0,1.0476689,-3755.7366,-864.98504)" /><path
       style="fill:#fcc35a;fill-opacity:1;stroke-width:100"
       d="m 88761.328,17573.437 c -563.82,497.255 -782.931,1323.497 -1182.805,1958.337 -1093.378,2154.042 -3210.922,3537.612 -4426.313,5614.21 -1839.084,2569.887 -1653.502,5916.93 -3064.124,8674.328 -1260.701,2492.165 -3190.054,4637.351 -4007.617,7352.735 -904.648,2635.4 -573.819,5589.638 567.383,8096.484 1281.763,-1277.434 2855.407,-2251.099 4479.687,-2989.648 -979.192,-1834.449 -1149.873,-4066.584 -388.856,-6009.452 478.945,-1060.938 1035.816,-2124.296 1002.494,-3326.422 21.842,-1093.152 192.569,-2221.275 910.776,-3092.447 581.977,-754.335 631.282,-1713.132 588.281,-2621.874 52.265,-438.347 662.677,-243.916 583.789,151.367 144.003,1090.897 -86.606,2234.425 -835.351,3068.945 -1038.996,1524.697 -287.3,3549.954 -1254.974,5115.956 -1019.553,1967.386 -1288.818,4536.817 46.575,6420.567 524.447,41.688 1069.986,-281.576 1613.672,-304.101 1867.454,-298.459 3815.031,-300.433 5638.672,244.922 431.728,-2798.284 416.328,-5656.405 248.438,-8476.953 -296.486,-3021.252 -1368.181,-6061.511 -610.475,-9102.206 40.956,-257.302 238.146,-1045.011 618.678,-701.896 145.257,825.4 -283.925,1657.308 -215.43,2500.391 -159.149,2952.585 924.873,5787.227 892.607,8734.093 49.812,2408.316 45.973,4845.92 -284.99,7226.844 1970.965,667.509 3741.339,1915.487 5245.508,3334.961 2869.952,-4046.261 3617.712,-9321.818 2698.802,-14132.365 -575.358,-2939.942 -1842.149,-5699.626 -3521.497,-8169.188 -1783.032,-2737.151 -3733.793,-5433.916 -4727.148,-8585.184 -168.475,-279.766 -218.706,-927.595 -615.782,-982.404 z"
       id="path6449"
       transform="matrix(1.0476689,0,0,1.0476689,-3755.7366,-864.98504)" /><path
       style="fill:#ff6600;fill-opacity:1;stroke-width:100"
       d="m 84509.961,17951.367 c -1074.561,525.546 -1541.007,1771.24 -2265.625,2661.524 -653.109,987.702 -1873.053,1429.48 -2541.602,2376.953 -250.918,881.116 -43.67,1851.643 -304.973,2710.962 -346.227,763.558 -828.737,1494.667 -1098.444,2276.538 -39.083,1413.61 83.414,2850.063 -111.817,4249.804 -411.706,1001.147 -1005.578,1940.784 -1388.659,2939.796 -21.281,710.859 -45.953,1423.986 -65.443,2133.447 1550.605,-2184.266 3082.356,-4496.707 3532.657,-7192.877 424.191,-2244.298 1175.829,-4462.379 2579.933,-6292.014 947.653,-1343.966 2242.065,-2406.371 3204.598,-3729.172 -278.464,-813.199 -810.892,-1614.555 -1495.313,-2135.742 l -14.453,-1.172 z"
       id="path6451"
       transform="matrix(1.0476689,0,0,1.0476689,-3755.7366,-864.98504)" /><path
       style="fill:#ff6600;fill-opacity:1;stroke-width:100"
       d="m 85486.914,46455.859 c -4707.169,69.94 -9213.687,3284.954 -10742.187,7752.344 -97.107,263.424 -412.939,806.179 111.523,823.633 2559.416,399.107 5158.655,1134.663 7184.57,2825.195 2909.61,2344.577 4801.299,6020.301 4677.712,9792.932 64.692,628.112 -45.316,1340.286 132.445,1929.334 1374.217,123.416 2755.121,-296.304 4071.083,-665.662 2193.689,-631.944 4042.611,-2231.503 5004.698,-4298.791 1270.283,-2209.095 1308.145,-4812.615 1254.687,-7286.133 41.808,-2635.659 -1221.839,-5168.676 -2954.687,-7095.117 -2240.225,-2365.061 -5459.447,-3852.127 -8739.844,-3777.735 z m 9121.68,12807.618 c 448.149,106.715 120.613,755.582 166.015,1066.992 -234.626,2148.826 -1249.493,4388.506 -3174.804,5504.883 -448.646,10.809 -178.6,-613.88 112.695,-680.469 1669.105,-1314.05 2379.494,-3487.521 2621.484,-5528.906 38.539,-132.011 84.411,-380.827 274.61,-362.5 z"
       id="path6522"
       transform="matrix(1.0476689,0,0,1.0476689,-3755.7366,-864.98504)" /><path
       style="fill:#ff6600;fill-opacity:1;stroke-width:100"
       d="m 74374.219,56069.531 c -3031.724,22.324 -6074.352,1149.605 -8210.62,3337.427 -2719.662,2507.178 -3892.466,6382.143 -3420.435,10006.909 351.533,2955.955 2014.869,5817.433 4687.695,7237.305 2075.085,1193.906 4506.966,1585.878 6874.783,1450.612 2735.752,16.685 5643.462,-416.36 7832.816,-2188.879 1860.644,-1441.788 3177.542,-3572.202 3477.306,-5922.846 527.659,-2935.558 -102.079,-6082.842 -1681.138,-8610.008 -2061.057,-3167.217 -5751.767,-5323.976 -9560.407,-5310.52 z m 8828.125,13083.008 c 428.16,97.536 63.461,725.232 64.047,1002.67 -360.534,1442.291 -1048.569,2960.254 -2341.391,3777.603 -426.916,-5.954 -69.868,-558.143 100,-690.429 1042.536,-1102.555 1507.538,-2587.359 1951.172,-3996.68 46.741,-77.622 139.09,-107.824 226.172,-93.164 z"
       id="path6524"
       transform="matrix(1.0476689,0,0,1.0476689,-3755.7366,-864.98504)" /><path
       style="fill:#ff6600;fill-opacity:1;stroke-width:100"
       d="m 60787.5,20545.312 c -3241.173,-106.898 -6291.632,1694.888 -8380.857,4069.233 -1085.419,1353.676 -1915.127,2949.872 -2344.729,4632.135 -20.374,695.232 677.891,1153.404 933.789,1762.109 670.995,1055.305 1260.175,2160.102 1886.719,3240.43 2843.101,-968.406 6233.002,-1290.538 8859.766,440.429 1525.612,1002.139 2966.457,2255.371 4814.062,2615.235 623.741,132.813 1176.437,508.613 1745.703,731.445 344.276,-967.846 316.061,-2061.429 640.43,-3052.148 603.046,-2459.624 1774.13,-4723.413 3039.844,-6897.266 317.576,-815.615 -482.354,-1520.477 -801.954,-2206.445 -1867.039,-2747.716 -4824.916,-4980.095 -8200.246,-5314.165 -730.264,-32.664 -1461.759,-19.943 -2192.527,-20.992 z m -899.219,2014.454 c 342.204,-16.443 411.7,461.219 38.867,484.765 -1710.187,418.774 -3310.419,1249.004 -4683.789,2338.672 -336.833,105.189 -347.735,-314.589 -107.812,-448.633 1217.86,-1318.56 3000.661,-2108.375 4752.734,-2374.804 z"
       id="path6526"
       transform="matrix(1.0476689,0,0,1.0476689,-3755.7366,-864.98504)" /><path
       style="fill:#ff6600;fill-opacity:1;stroke-width:100"
       d="m 57180.859,44081.25 c -2435.015,665.857 -4991.624,1389.199 -6853.946,3196.345 -1600.273,1482.561 -3236.689,2950.857 -4647.421,4617.132 -531.31,771.235 38.249,1725.605 156.739,2545.12 89.489,250.095 174.335,1054.181 618.261,716.989 2059.512,-927.331 3905.557,-2293.572 5354.776,-4030.075 1581.081,-1815.061 2757.583,-3940.915 4368.967,-5735.453 326.518,-433.616 763.503,-868.217 1025.476,-1312.597 z"
       id="path6528"
       transform="matrix(1.0476689,0,0,1.0476689,-3755.7366,-864.98504)" /><path
       style="fill:#ff6600;fill-opacity:1;stroke-width:100"
       d="m 19453.32,58058.789 c -4706.637,15.808 -9209.593,3201.776 -10727.795,7666.893 -1109.6788,3226.102 -947.7387,7088.274 1076.4281,9926.076 1981.6189,2742.201 5500.2469,3802.253 8747.1809,3922.205 1767.184,151.929 3552.811,-103.819 5287.231,-432.412 2792.224,-663.871 5494.435,-2423.865 6570.594,-5181.097 2000.295,-4770.605 219.981,-10743.325 -4008.521,-13704.595 -2000.824,-1452.805 -4472.21,-2237.044 -6945.118,-2197.07 z m 8889.649,13204.688 c 285.278,302.071 -23.877,866.736 -97.266,1223.437 -76.377,251.834 -338.27,966.44 -674.805,582.031 41.283,-573.108 239.474,-1178.456 472.071,-1705.664 71.098,-87.132 193.474,-107.065 300,-99.804 z m -1297.266,3000.585 c 318.993,268.482 -196.734,709.486 -383.789,903.907 -1054.158,923.176 -2341.767,1750.633 -3765.039,1866.211 -187.486,-494.877 585.628,-614.009 901.563,-760.742 1183.481,-378.988 2101.438,-1224.098 3062.695,-1960.157 56.839,-27.589 119.521,-57.745 184.57,-49.219 z"
       id="path6530"
       transform="matrix(1.0476689,0,0,1.0476689,-3755.7366,-864.98504)" /><path
       style="fill:#c87137;fill-opacity:1;stroke-width:100"
       d="m 84170.703,18173.633 c -1269.51,1106.546 -1889.094,2822.751 -3348.258,3751.019 -615.63,473.467 -1302.923,1039.304 -1237.484,1903.082 -20.038,1083.383 -240.47,2151.505 -812.128,3085.898 -307.246,562.143 -619.754,1123.039 -492.129,1788.103 -66.378,1231.91 110.565,2516.836 -226.017,3713.695 -367.133,980.876 -951.564,1890.006 -1305.273,2859.961 0.663,673.925 -1.308,1349.633 0.977,2022.461 1610.766,-2279.554 3145.131,-4736.661 3595.351,-7541.71 567.977,-2808.756 1867.583,-5469.44 3866.563,-7537.392 625.267,-710.899 1285.136,-1394.627 1851.367,-2154.883 -341.349,-814.991 -858.831,-1540.516 -1487.11,-2158.789 -135.286,89.518 -270.572,179.037 -405.859,268.555 z"
       id="path6532"
       transform="matrix(1.0476689,0,0,1.0476689,-3755.7366,-864.98504)" /><path
       style="fill:#44aa00;fill-opacity:1;stroke-width:100"
       d="m 5931.8359,20327.344 c -510.2989,310.394 -602.4888,1047.108 -881.0547,1549.023 -1108.3034,2629.872 -254.7978,5819.692 1856.6407,7690.235 2451.8558,2364.812 5959.9131,2995.42 9172.8281,3658.662 2723.672,463.139 5536.406,1058.638 7789.133,2761.19 267.375,226.5 653.086,378.478 879.836,3.585 698.172,-681.21 1166.735,-1757.483 912.5,-2718.945 -533.73,-653.677 -1530.666,-439.75 -2266.953,-627.289 C 18816.422,32058.771 13978.524,32024.592 9804.6021,29809.52 7807.1103,28775.439 5972.5723,26833.324 6053.6777,24446.098 5977.0303,23207 6618.3239,22120.628 6993.3594,20990.43 6887.8771,20633.079 6270.122,20412.089 5931.8359,20327.344 Z"
       id="path6603"
       transform="matrix(1.0476689,0,0,1.0476689,-3755.7366,-864.98504)" /><path
       style="fill:#44aa00;fill-opacity:1;stroke-width:100"
       d="m 5968.1641,20395.898 c -445.8051,71.33 -576.4891,618.835 -684.961,947.657 -203.5277,-13.308 38.4534,254.225 -197.6562,228.125 -316.9944,1037.719 -719.1987,2167.355 -564.2578,3265.82 306.6247,166.265 -49.4894,680.745 205.664,917.969 36.7762,386.855 99.4312,722.389 325.586,1035.351 151.1328,181.674 80.8838,513.596 169.9218,659.766 243.6544,132.78 336.2418,465.556 387.5,664.648 110.8999,85.229 250.0477,180.116 186.1329,275.977 552.5,555.545 1033.6934,1258.335 1711.5234,1666.601 113.1268,205.804 302.9495,302.246 470.7031,368.946 57.2997,253.487 340.3153,97.066 401.1719,360.742 138.6218,-27.674 161.2059,46.846 212.1094,145.312 223.0643,-119.828 429.8336,379.425 597.6562,241.602 314.4758,344.377 851.7932,427.513 1259.1802,626.758 216.916,25.291 521.662,193.311 779.296,222.656 213.168,22.903 204.854,284.323 429.297,176.953 341.726,-9.752 638.555,197.478 915.235,292.969 251.849,-157.589 278.513,202.886 518.164,77.344 183.096,-28.416 212.014,236.383 437.304,94.922 231.027,96.395 492.831,194.587 785.547,176.172 227.311,131.936 455.689,142.496 716.797,148.437 97.709,225.845 486.487,-53.51 565.82,204.102 684.97,-42.056 1350.581,340.855 2045.055,388.248 2255.867,393.639 4461.425,1180.598 6341.078,2505.697 578.84,297.242 1060.595,-426.406 1343.555,-831.055 38.688,-165.28 241.379,-215.544 174.219,-391.406 239.945,-1.677 6.975,-288.272 178.125,-358.789 -3.319,-207.893 -52.24,-411.716 111.328,-545.313 52.975,-217.254 68.239,-456.229 -133.594,-548.828 -292.641,-593.878 -965.364,-743.032 -1573.828,-694.14 -4671.29,-767.31 -9637.057,-637.668 -13969.727,-2807.032 -2076.6782,-1007.425 -3987.1015,-2935.315 -4028.9059,-5373.242 -71.0781,-1277.295 697.1999,-2412.307 797.461,-3650 -117.9221,-326.395 -602.4392,-459.307 -912.5,-492.969 z"
       id="path6674"
       transform="matrix(1.0476689,0,0,1.0476689,-3755.7366,-864.98504)" /></g><text
     x="0"
     y="100015"
     fill="#000000"
     font-size="5px"
     font-weight="bold"
     font-family="'Helvetica Neue', Helvetica, Arial-Unicode, Arial, Sans-serif"
     id="text1626">Created by Oleksandr Panasovskyi</text><text
     x="0"
     y="100020"
     fill="#000000"
     font-size="5px"
     font-weight="bold"
     font-family="'Helvetica Neue', Helvetica, Arial-Unicode, Arial, Sans-serif"
     id="text1628">from the Noun Project</text></svg>
