<?xml version="1.0" encoding="UTF-8" standalone="no"?>
<svg
   xml:space="preserve"
   version="1.1"
   style="shape-rendering:geometricPrecision;text-rendering:geometricPrecision;image-rendering:optimizeQuality;"
   viewBox="0 0 100000 125000"
   x="0px"
   y="0px"
   fill-rule="evenodd"
   clip-rule="evenodd"
   id="svg1630"
   sodipodi:docname="cape-gooseberries.svg"
   inkscape:version="1.2.2 (b0a8486541, 2022-12-01)"
   xmlns:inkscape="http://www.inkscape.org/namespaces/inkscape"
   xmlns:sodipodi="http://sodipodi.sourceforge.net/DTD/sodipodi-0.dtd"
   xmlns="http://www.w3.org/2000/svg"
   xmlns:svg="http://www.w3.org/2000/svg"><sodipodi:namedview
     id="namedview1632"
     pagecolor="#ffffff"
     bordercolor="#000000"
     borderopacity="0.25"
     inkscape:showpageshadow="2"
     inkscape:pageopacity="0.0"
     inkscape:pagecheckerboard="0"
     inkscape:deskcolor="#d1d1d1"
     showgrid="false"
     inkscape:zoom="0.011"
     inkscape:cx="48227.273"
     inkscape:cy="53181.818"
     inkscape:window-width="1857"
     inkscape:window-height="1011"
     inkscape:window-x="0"
     inkscape:window-y="0"
     inkscape:window-maximized="1"
     inkscape:current-layer="g1624" /><defs
     id="defs1620"><style
       type="text/css"
       id="style1618">
   
    .fil0 {fill:black;fill-rule:nonzero}
   
  </style><inkscape:path-effect
       effect="fill_between_many"
       method="originald"
       linkedpaths="#g1624,0,1|"
       id="path-effect1751" /></defs><path
     inkscape:original-d="M 0,0"
     inkscape:path-effect="#path-effect1751"
     d="M 0,0"
     id="path1753"
     class="UnoptimicedTransforms" /><g
     id="g1624"
     class="UnoptimicedTransforms"
     transform="matrix(0.9545,0,0,0.9545,3584.8506,825.62822)"><path
       class="fil0"
       d="m 96337.792,58028.759 c 111.238,-153.562 224.122,-314.646 339.298,-479.027 l 34.548,-49.326 v -2.095 c 1170.15,-1669.498 2083.535,-3926.226 2602.137,-6412.575 497.115,-2383.26 629.966,-4970.494 277.68,-7448.653 -802.719,-5646.644 -2982.66,-8924.633 -5102.857,-12112.768 -1521.728,-2288.267 -3013.668,-4531.689 -3985.171,-7557.973 -322.925,-1005.965 -588.346,-1547.348 -802.157,-1565.273 -213.342,-17.892 -543.996,473.815 -1017.114,1532.339 -411.988,921.726 -779.794,1565.017 -1228.654,2166.937 -442.902,593.912 -955.9,1135.146 -1667.129,1863.142 -528.175,540.607 -1039.445,1131.189 -1527.405,1788.988 -489.439,659.779 -951.35,1380.86 -1378.232,2178.915 -805.272,1505.479 -1060.151,2791.941 -1325.457,4131.061 -406.437,2051.5 -836.017,4219.66 -3121.197,7446.036 -1163.474,1642.692 -2128.801,3421.946 -2692.389,5304.916 -558.598,1866.29 -725.8,3843.243 -302.906,5901.784 205.771,1001.613 406.167,1737.864 620.665,2294.588 126.924,329.409 256.661,590.453 394.105,803.725 380.19,-400.056 783.451,-777.1 1207.792,-1128.637 1122.987,-930.309 2392.387,-1682.91 3767.058,-2216.295 -573.118,-898.387 -931.456,-1973.111 -1032.987,-3125.288 -114.436,-1298.431 97.511,-2694.992 696.355,-4046.184 87.179,-196.709 171.951,-370.354 255.859,-542.257 334.205,-684.669 654.474,-1340.808 638.101,-2443.425 -33.737,-2270.387 517.581,-3024.849 1015.874,-3706.764 428.736,-586.698 811.853,-1111.008 595.167,-2875.266 -20.997,-175.699 101.438,-335.516 273.472,-356.95 172.024,-21.446 328.507,103.599 349.506,279.287 247.859,2018.033 -206.687,2640.092 -715.364,3336.186 -438.527,600.124 -923.717,1264.093 -893.23,3315.986 18.706,1260.242 -333.914,1982.664 -701.865,2736.5 -84.825,173.763 -170.524,349.313 -246.048,519.724 -553.609,1249.127 -749.943,2535.569 -644.86,3728.061 97.094,1101.808 451.86,2123.621 1019.738,2960.45 1339.861,-446.763 2770.141,-688.307 4255.258,-688.307 1283.169,0 2525.082,180.219 3703.033,516.853 295.146,-2104.741 428.342,-4304.186 394.678,-6469.39 -35.944,-2312.384 -262.566,-4585.705 -685.793,-6662.353 -212.509,-1042.79 -394.908,-2101.325 -432.758,-3257.32 -37.995,-1160.42 70.243,-2409.355 440.475,-3821.414 44.694,-170.837 216.551,-272.33 383.825,-226.684 167.275,45.645 266.66,221.163 221.967,392 -353.411,1347.885 -456.879,2535.494 -420.842,3636.057 36.184,1104.988 213.624,2131.983 420.498,3147.106 430.779,2113.719 661.452,4428.08 698.053,6782.587 34.705,2232.231 -105.332,4500.617 -414.874,6668.013 2053.913,693.605 3892.889,1869.45 5388.109,3396.522 117.488,120.001 232.841,242.194 346.038,366.461 z M 53251.624,31112.901 c -123.934,123.118 -322.143,120.31 -442.693,-6.265 -120.55,-126.566 -117.8,-328.996 6.135,-452.125 723.466,-716.434 1557.006,-1318.259 2471.889,-1777.223 892.711,-447.848 1860.84,-758.867 2877.578,-906.78 171.347,-24.902 330.018,96.768 354.401,271.766 24.383,174.997 -94.751,337.048 -266.098,361.95 -953.474,138.713 -1858.808,429.084 -2691.19,846.679 -853.422,428.137 -1632.394,990.954 -2310.022,1661.998 z M 23287.183,82474.447 c 28.445,-174.305 189.877,-292.05 360.536,-263.011 170.67,29.05 285.97,193.92 257.526,368.216 -50.173,302.424 -116.968,593.581 -199.605,872.847 -83.72,282.967 -185.241,559.35 -303.76,828.404 -71.107,161.167 -256.692,232.928 -414.499,160.305 -157.807,-72.621 -228.08,-262.16 -156.973,-423.328 105.5,-239.46 197.157,-489.919 274.346,-750.739 76.805,-259.586 137.861,-524.066 182.429,-792.694 z m -1376.42,3198.686 c 107.676,-138.339 304.803,-161.327 440.257,-51.346 135.454,109.97 157.963,311.284 50.276,449.625 -512.239,657.448 -1148.923,1224.224 -1892.138,1684.304 -731.153,452.624 -1563.859,800.417 -2480.806,1027.92 -167.972,41.508 -337.079,-63.92 -377.71,-235.46 -40.632,-171.551 62.587,-344.261 230.559,-385.758 855.244,-212.185 1628.602,-534.543 2304.21,-952.766 677.023,-419.105 1257.588,-936.16 1725.352,-1536.519 z M 95688.182,69151.422 c 9.478,-176.369 157.192,-311.518 329.882,-301.837 172.701,9.69 305.021,160.541 295.543,336.92 -79.93,1462.652 -352.641,2840.545 -894.543,4042.717 -548.61,1217.075 -1371.056,2251.6 -2545.05,3009.807 -146.287,94.067 -339.569,49.209 -431.673,-100.195 -92.106,-149.402 -48.183,-346.801 98.104,-440.868 1062.994,-686.511 1809.573,-1627.459 2309.605,-2736.767 506.759,-1124.219 762.4,-2423.735 838.132,-3809.777 z M 83220.43,80087.719 c 20.988,-175.688 177.482,-300.733 349.505,-279.297 172.024,21.444 294.459,181.261 273.472,356.95 -127.028,1053.195 -403.917,2015.449 -828.289,2870.553 -421.957,850.221 -990.033,1592.855 -1701.96,2211.987 -131.382,114.118 -328.507,97.864 -440.246,-36.317 -111.738,-134.18 -95.823,-335.506 35.559,-449.624 645.559,-561.424 1162.088,-1237.648 1547.434,-2014.12 390.584,-786.991 646.151,-1678.751 764.525,-2660.132 z M 14204.425,66489.992 c 3786.619,0 7214.816,1567.57 9696.362,4101.977 2481.535,2534.41 4016.417,6035.648 4016.417,9902.93 0,3869.667 -1273.67,6910.121 -3635.301,8994.884 -2355.505,2079.36 -5777.058,3182.773 -10077.478,3182.773 -4300.4194,0 -7721.9716,-1103.413 -10077.4883,-3182.773 C 1765.306,87405.02 491.63573,84364.566 491.63573,80494.899 c 0,-3867.282 1534.88287,-7368.52 4016.42817,-9902.918 2481.535,-2534.409 5909.7421,-4101.989 9696.3611,-4101.989 z m 8956.48,4857.621 c -2292.127,-2340.945 -5458.737,-3788.864 -8956.48,-3788.864 -3497.763,0 -6664.3519,1447.93 -8956.4793,3788.874 -2292.1378,2340.956 -3709.8557,5575.023 -3709.8557,9147.276 0,3545.575 1146.2043,6313.029 3271.4948,8189.16 2160.8493,1907.521 5350.0192,2919.751 9394.8402,2919.751 4044.821,0 7233.991,-1012.23 9394.84,-2919.751 2125.291,-1876.131 3271.475,-4643.585 3271.475,-8189.16 0,-3572.263 -1417.707,-6806.32 -3709.835,-9147.286 z M 46543.589,34672.23 c 284.096,-1009.475 675.805,-1970.868 1161.359,-2870.67 660.912,-1224.756 1496.315,-2337.03 2471.422,-3302.668 1290.325,-1277.773 2824.489,-2297.949 4522.001,-2981.373 1631.779,-656.971 3416.344,-1002.572 5282.131,-966.405 2872.035,55.699 5520.199,1008.21 7693.079,2590.766 1999.449,1456.27 3597.554,3446.424 4598.597,5762.584 1605.99,-2168.405 3586.722,-4156.932 5909.836,-5809.026 465.817,-331.283 970.973,-644.396 1468.64,-952.851 1095.969,-679.309 2152.714,-1334.408 2955.631,-2385.708 66.545,-95.801 135.695,-192.379 207.176,-288.807 l 1.448,-2.117 c 10.729,-16.063 22.207,-31.317 34.278,-45.794 68.389,-91.216 138.819,-182.209 211.083,-272.213 728.716,-907.61 1317.561,-1305.228 1816.843,-1387.615 621.394,-102.545 1047.381,212.792 1392.71,687.701 131.976,181.507 182.388,250.13 231.1,316.466 359.61,489.62 654.767,891.536 926.696,1377.105 100.959,-199.772 202.855,-415.096 308.166,-650.726 680.337,-1522.106 1350.872,-2212.775 2047.237,-2154.397 695.928,58.358 1248.871,851.977 1713.718,2300.045 927.758,2890.008 2376.598,5068.626 3854.372,7290.783 2188.034,3290.157 4437.729,6673.021 5274.528,12559.488 370.3,2604.849 231.38,5320.892 -289.94,7820.208 -548.536,2629.86 -1522.164,5027.566 -2773.817,6813.363 l -0.968,-0.713 -33.59,47.931 c -165.025,235.536 -325.467,464.519 -493.439,687.671 1861.776,2390.994 2974.284,5417.758 2974.284,8709.959 0,2736.541 -397.374,5330.392 -1404.092,7531.657 -1021.301,2233.145 -2661.412,4048.535 -5135.635,5184.584 -896.97,411.851 -1884.556,732.826 -2989.378,950.065 -997.824,196.208 -2089.441,308.614 -3294.316,327.858 -161.848,792.916 -385.679,1546.655 -671.087,2257.621 -653.953,1629.075 -1631.175,3027.763 -2925.624,4153.495 -1172.088,1019.314 -2598.888,1809.807 -4275.496,2339.382 -1614.062,509.821 -3457.36,779.151 -5525.022,779.151 -4390.503,0 -7759.529,-1208.969 -10065.385,-3354.355 -2351.663,-2188.01 -3579.994,-5327.233 -3644.55,-9133.777 -2723.26,268.575 -5556.643,136.766 -8334.461,-344.898 -2987.971,-518.119 -5911.659,-1439.77 -8565.019,-2702.087 -1288.669,-613.091 -2312.886,-1198.407 -3239.447,-1727.908 -2406.709,-1375.382 -4128.875,-2359.571 -8395.892,-2462.722 -852.088,-20.595 -1741.902,-43.189 -2245.944,-365.748 -664.275,-425.117 -768.546,-1080.417 246.631,-2170.045 -8.614,-1.457 -17.196,-2.966 -25.737,-4.521 -276.024,-50.517 -512.947,-153.253 -709.708,-296.061 -204.677,-148.553 -363.619,-337.931 -476.368,-555.552 -185.386,-357.845 -240.496,-788.003 -163.066,-1229.49 0.677,-3.85 1.407,-7.68 2.167,-11.499 41.808,-363.44 128.163,-737.123 217.561,-965.392 247.068,-630.834 569.607,-1224.107 941.475,-1776.692 -3452.445,-318.954 -7211.4,-1420.155 -10375.385,-3588.379 -2814.896,-1928.967 -5158.112,-4698.368 -6401.4,-8506.741 -339.079,-1038.664 -560.765,-1904.043 -564.004,-2813.536 -3.281,-921.449 216.727,-1851.77 763.306,-2994.479 356.276,-744.835 640.049,-1432.952 816.635,-2167.586 158.952,-661.257 235.215,-1373.723 205.374,-2219.53 -559.463,-154.318 -1100.449,-267.99 -1620.311,-359.173 l -496.116,-86.654 c -5119.72,-892.483 -11385.19679,-1984.727 -14070.7939,-7312.12 -733.0283,-1454.11 -998.0218,-2970.768 -883.0128,-4463.919 122.7686,-1593.417 679.5026,-3156.869 1561.8905,-4584.503 334.8195,-543.799 1015.20742,-584.87 1686.013011,-336.505 202.124919,74.823 406.812069,177.23 598.427659,298.571 194.44864,123.129 375.5549,265.554 527.43503,418.564 481.1273,484.653 707.8955,1088.362 358.3171,1656.126 -537.73605,870.038 -901.6359,1812.561 -991.28287,2764.795 -78.60645,835.01 54.21314,1683.986 467.90991,2504.634 938.88206,1862.483 2921.36436,3078.451 5138.58296,3887.25 2281.1598,832.126 4805.9194,1230.723 6739.9064,1457.908 387.325,45.496 758.859,85.919 1131.54,124.916 78.804,-213.006 175.023,-419.787 291.219,-617.42 186.085,-316.476 421.165,-607.729 714.957,-861.678 586.18,-506.705 1092.158,-1031.42 1460.235,-1566.07 345.35,-501.641 566.399,-1007.198 610.843,-1507.127 108.177,-1217.117 462.265,-2033.309 1047.788,-2603.179 577.794,-562.372 1349.453,-849.838 2313.094,-1026.42 2130.998,-390.502 2516.957,-797.778 3545.643,-1883.279 l 56.567,-59.687 c 1595.043,-1682.358 3775.046,-2510.282 6078.746,-2673.578 2552.424,-180.954 5265.434,458.634 7489.037,1655.264 2478.546,1333.822 5098.547,3559.711 7433.169,6222.1 543.496,619.792 1071.775,1263.539 1579.482,1925.382 z m 25010.986,-750.133 c -897.282,-2390.463 -2470.838,-4444.174 -4485.973,-5911.858 -2008.418,-1462.769 -4454.081,-2343.157 -7104.453,-2394.537 -1723.239,-33.412 -3373.953,286.797 -4885.63,895.41 -1567.661,631.152 -2983.931,1572.748 -4174.527,2751.764 -900.333,891.568 -1672.17,1919.499 -2283.399,3052.176 -575.513,1066.512 -1008.156,2224.54 -1271.107,3447.604 1207.583,1696.75 2268.619,3486.983 3098.991,5281.012 297.396,-109.672 596.179,-210.823 895.751,-302.497 3461.726,-1059.237 7037.001,-889.196 9740.993,1383.372 75.971,63.834 151.974,130.042 227.965,198.58 1782.847,1608.108 2862.506,1834.377 3762.872,2023.075 824.414,172.774 1521.926,319.135 2354.006,1137.284 209.926,-3241.811 1267.723,-6677.404 3084.43,-9878.835 322.832,-568.893 669.734,-1130.529 1040.081,-1682.55 z m 2484.836,30358.589 c 3686.587,67.835 7018.087,1621.3 9444.471,4099.371 2481.535,2534.409 4016.418,6035.647 4016.418,9902.93 0,760.728 -45.975,1496.086 -137.559,2203.892 1070.629,-26.37 2038.56,-129.883 2920.115,-303.222 1026.435,-201.823 1938.059,-497.312 2760.454,-874.93 2223.207,-1020.804 3697.648,-2653.571 4616.512,-4662.743 933.434,-2041.033 1301.896,-4483.714 1301.896,-7080.767 0,-3572.253 -1417.718,-6806.32 -3709.856,-9147.265 -2292.127,-2340.957 -5458.716,-3788.885 -8956.479,-3788.885 -3023.552,0 -5798.213,1079.99 -7973.915,2882.413 -1727.279,1430.909 -3078.431,3316.465 -3878.786,5477.998 -3.968,11.957 -8.311,23.69 -13.02,35.157 -150.193,409.255 -280.679,828.34 -390.251,1256.051 z M 60094.542,77527.152 c 103.844,-1993.897 616.113,-3877.048 1452.777,-5563.991 -1406.751,369.056 -2809.47,630.94 -4137.135,789.29 -1683.149,200.75 -3249.164,234.481 -4552.904,108.98 -172.024,-16.594 -298.303,-172.498 -282.044,-348.186 16.249,-175.688 168.899,-304.657 340.923,-288.062 1257.173,121.033 2778.234,87.185 4422.908,-108.981 1478.263,-176.315 3053.673,-484.377 4624.083,-929.619 591.856,-1026.58 1308.261,-1969.314 2128.01,-2806.514 2298.991,-2347.978 5410.555,-3865.901 8866.822,-4076.545 131.902,-564.488 297.281,-1115.679 493.834,-1651.296 205.614,-641.568 335.319,-1309.281 339.246,-1970.495 3.416,-572.743 -86.761,-1145.613 -303.25,-1698.368 -226.675,-578.764 -362.692,-1066.885 -434.882,-1490.969 -607.687,1256.743 -1391.512,2446.075 -2354.007,3524.448 -1360.192,1523.978 -3076.202,2825.216 -5154.674,3780.514 -157.807,72.622 -343.392,0.852 -414.499,-160.317 -71.108,-161.169 -0.833,-350.707 156.973,-423.329 1997.199,-917.95 3644.498,-2166.49 4948.665,-3627.707 1300.449,-1457.024 2260.724,-3126.712 2887.452,-4891.778 44.495,-176.464 95.593,-346.1 146.64,-515.512 129.81,-430.829 259.12,-860.019 220.405,-1438.994 -3557.851,143.648 -5877.756,2433.278 -8637.763,5157.46 -424.466,418.967 -859.151,847.996 -1303.813,1275.187 -3844.925,3693.744 -7077.257,5819.047 -10702.882,7061.449 -3615.948,1239.084 -7603.641,1591.536 -12973.127,1743.13 -2074.222,58.571 -3934.404,132.32 -5602.982,356.196 -1358.609,182.294 -2591.441,464.868 -3712.637,921.907 303.979,26.423 661.005,35.21 1010.624,43.655 4530.834,109.524 6345.855,1146.762 8882.311,2596.309 904.146,516.693 1903.564,1087.84 3169.964,1690.335 2573.338,1224.246 5404.92,2117.421 8295.225,2618.595 2730.082,473.398 5512.637,598.155 8179.737,323.208 z M 82744.001,69135.7 c -2292.128,-2340.955 -5458.738,-3788.864 -8956.481,-3788.864 -3497.752,0 -6664.351,1447.92 -8956.479,3788.875 -2292.127,2340.956 -3709.856,5575.023 -3709.856,9147.276 0,3643.663 1114.728,6625.696 3304.044,8662.654 2113.573,1966.485 5245.311,3074.633 9362.291,3074.633 1967.631,0 3708.179,-251.991 5218.45,-729.039 1541.362,-486.856 2845.164,-1206.704 3907.585,-2130.663 1163.109,-1011.529 2043.446,-2273.899 2635.405,-3748.527 601.344,-1498.044 904.875,-3221.089 904.875,-5129.058 0,-3572.264 -1417.707,-6806.32 -3709.834,-9147.287 z M 75742.339,58624.532 c -241.089,-319.337 -455.453,-711.829 -653.755,-1226.501 -233.632,-606.388 -449.225,-1394.369 -667.399,-2454.51 -45.892,188.453 -100.053,368.258 -154.308,548.286 -221.539,735.23 -444.579,1475.397 189.72,3094.951 174.232,444.837 282.575,898.461 336.195,1354.351 291.699,-458.081 608.884,-897.642 949.547,-1316.577 z m -33673.214,6167.114 c -202.177,-569.456 -370.013,-1156.569 -500.875,-1758.746 -115.52,-531.555 -201.989,-1073.374 -257.619,-1623.554 -1476.92,881.006 -3075.171,1316.111 -4646.926,1743.874 -2476.535,674.001 -4882.671,1328.876 -6429.668,3788.269 -227.007,360.897 -427.445,627.707 -603.708,817.564 22.852,6.148 46.62,11.53 71.326,16.052 362.775,66.357 886.367,-38.954 1581.587,-410.298 71.482,-48.826 144.786,-97.918 219.987,-147.244 2181.837,-1431.144 4269.6,-1610.076 6483.767,-1799.807 1301.99,-111.576 2650.319,-227.206 4082.129,-626.11 z m 234.039,-4062.066 c 41.235,709.444 136.964,1402.114 282.929,2073.711 123.821,569.699 284.169,1126.295 478.398,1667.071 1323.259,-488.196 2720.855,-1257.008 4219.761,-2509.506 1886.107,-1576.047 2907.283,-3112.449 4002.888,-4760.852 1079.649,-1624.395 2229.259,-3353.61 4289.973,-5329.882 -633.528,214.526 -1236.82,382.395 -1829.57,547.255 -1569.328,436.466 -3061.268,851.423 -4850.218,2122.207 -1335.414,948.639 -2463.579,2127.44 -3600.033,3314.901 -863.494,902.248 -1731.665,1809.37 -2701.544,2636.102 -96.729,82.463 -194.302,161.977 -292.584,238.993 z m 31075.461,-7624.203 c -101.218,-326.401 -265.42,-588.699 -477.961,-807.193 -312.644,-321.4 -740.266,-567.082 -1233.664,-786.205 l -22.893,-10.179 c -1013.166,-449.89 -2235.082,-992.529 -3115.084,-2595.83 -377.326,-687.467 -711.832,-1231.138 -1016.259,-1663.785 -752.391,-381.321 -1755.35,-342.611 -2790.305,-82.684 -1378.41,346.185 -2787.597,1079.734 -3786.369,1767.031 -35.736,50.294 -80.71,95.047 -134.434,131.363 -5189.88,3530.139 -7004.713,6260.671 -8652,8739.105 -1143.768,1720.866 -2209.834,3324.804 -4203.191,4990.472 -3798.721,3174.253 -6946.979,3444.061 -9873.624,3694.862 -2081.743,178.401 -4044.665,346.632 -6005.514,1632.808 -308.437,202.314 -589.074,406.309 -844.715,609.218 -255.359,202.676 -476.263,396.363 -668.108,580.413 -194.907,186.985 -342.943,334.165 -452.202,448.348 1230.757,-532.31 2586.273,-852.455 4086.087,-1053.705 1695.741,-227.526 3574.005,-302.126 5666.746,-361.217 5310.649,-149.946 9247.784,-496.175 12791.636,-1710.558 3534.186,-1211.065 6696.807,-3294.105 10472.322,-6921.183 451.047,-433.318 880.014,-856.721 1298.918,-1270.178 2833.082,-2796.325 5218.096,-5149.673 8960.614,-5330.903 z m 781.534,-847.115 c 13.447,-1290.719 224.07,-2544.121 586.137,-3753.781 76.596,-255.917 159.942,-509.716 249.558,-761.367 549.923,-1628.703 504.552,-2728.85 463.754,-3716.795 -57.359,-1388.86 -106.562,-2580.427 1194.773,-4544.071 220.174,-332.219 378.335,-737.229 464.17,-1227.128 90.449,-516.162 101.885,-1129.337 23.102,-1853.356 -96.98,-891.11 -116.155,-1613.246 13.738,-2325.733 131.945,-723.699 410.801,-1408.506 907.614,-2208.105 159.099,-256.053 301.969,-519.819 392.783,-897.632 97.969,-407.616 144.724,-959.009 105.426,-1784.806 -23.425,-492.058 65.4,-887.676 231.445,-1223.149 l -13.832,9.807 c -3130.77,2226.486 -5613.169,5086.901 -7360.947,8166.874 -1851.86,3263.383 -2878.243,6767.238 -2976.067,10017.972 -3.302,109.886 -5.77,212.527 -7.374,307.86 -1.469,86.653 -2.447,170.52 -2.948,251.587 309.791,453.007 643.288,1001.187 1009.105,1667.689 709.155,1292.037 1754.068,1756.054 2620.457,2140.769 l 22.904,10.181 c 602.448,267.575 1136.341,579.635 1556.6,1011.654 204.655,210.367 379.7,445.179 519.602,711.53 z M 30451.432,62579.425 c 84.949,-91.78 170.836,-181.954 257.504,-270.468 1299.199,-1326.886 2779.588,-2292.716 3787.838,-2805.548 2586.002,-1315.312 3577.692,-3136.297 4291.046,-5154.374 -4111.825,-481.781 -9177.634,-1956.176 -12950.932,-4192.62 -2813.552,-1667.582 -4920.657,-3766.504 -5423.96,-6212.44 -138.152,114.98 -280.075,210.653 -424.123,283.775 -1012.904,4609.278 -169.18,8734.107 1820.104,11938.675 1980.483,3190.358 5095.514,5471.691 8642.523,6413 z m 8545.99,-8849.299 c 93.532,-286.669 184.263,-576.53 275.732,-868.815 594.824,-1900.979 1219.238,-3896.463 2772.682,-5824.418 118.415,-146.968 241.038,-293.754 367.618,-440.146 760.818,-879.794 1646.215,-1719.591 2617.501,-2485.605 -3842.395,-2434.363 -8988.477,-4238.372 -13593.906,-4796.817 -4032.584,-488.993 -7629.889,-25.199 -9516.558,1810.391 -54.702,320.358 -145.88,644.428 -264.91,956.084 -178.138,466.443 -422.123,913.674 -701.468,1284.581 273.898,2433.726 2352.725,4551.837 5196.712,6237.471 3742.842,2218.38 8786.132,3672.16 12846.597,4127.274 z m 6571.883,-10029.484 c 1209.312,-891.419 2533.655,-1666.273 3905.128,-2264.898 -79.19,-169.976 -160.494,-339.93 -243.871,-509.747 -1494.429,-2271.588 -3315.178,-4085.362 -5240.834,-5462.957 -2597.73,-1858.408 -5384.182,-2924.399 -7816.066,-3250.555 -1346.412,-180.581 -3014.145,-121.277 -4670.256,93.354 -1821.218,236.026 -3623.261,659.491 -4966.642,1158.378 -1345.143,499.537 -2443.695,1087.576 -3287.139,1979.304 -796.793,842.412 -1377.18,1967.708 -1738.435,3562.126 209.093,245.992 342.985,553.191 413.624,898.547 22.529,110.13 37.694,224.1 46.089,340.92 2120.645,-1634.011 5648.051,-2038.948 9539.731,-1567.038 4772.351,578.678 10118.537,2473.138 14058.671,5022.566 z m 20677.267,2195.924 c -467.118,-315.347 -896.043,-405.457 -1378.993,-506.672 -1024.342,-214.676 -2252.641,-472.102 -4245.217,-2269.376 -65.046,-58.676 -131.528,-116.534 -199.354,-173.53 -2397.71,-2015.141 -5627.491,-2147.726 -8780.373,-1182.983 -3215.917,984.063 -6338.896,3098.856 -8448.418,5538.292 -116.966,135.266 -231.403,272.308 -343.089,410.914 -1427.571,1771.747 -2020.166,3665.492 -2584.66,5469.564 -884.169,2825.684 -1704.043,5445.789 -5303.69,7276.677 -933.008,474.548 -2305.064,1370.489 -3513.96,2605.159 -859.37,877.676 -1631.497,1921.882 -2091.721,3096.981 -36.559,93.323 -72.472,220.663 -101.864,360.153 31.767,-48.837 65.055,-100.907 99.947,-156.37 1765.703,-2807.091 4366.215,-3514.875 7042.834,-4243.329 1927.947,-524.705 3898.149,-1060.929 5527.355,-2449.714 938.591,-800.075 1783.503,-1682.901 2623.874,-2560.971 1175.691,-1228.477 2342.852,-2447.988 3751.268,-3448.486 1938.488,-1377.019 3514.939,-1815.485 5173.153,-2276.672 1851.819,-515.024 3811.002,-1059.939 6510.119,-3079.516 1086.97,-813.299 2805.646,-1759.692 4489.326,-2182.553 601.157,-150.977 1201.137,-236.056 1773.463,-227.568 z m -46286.899,-7535.73 c -401.604,-1760.034 -503.083,-3815.916 -100.781,-5536.589 212.572,-909.175 565.067,-1727.419 1086.576,-2367.667 -127.467,25.933 -260.619,51.666 -400.585,77.313 -770.367,141.169 -1369.909,354.1 -1777.596,750.899 -367.952,358.11 -605.427,896.122 -705.844,1708.516 -71.597,1061.481 50.151,2009.47 258.452,2815.45 294.74,1140.454 758.37,1991.355 1091.575,2476.275 179.658,24.317 362.358,49.55 548.203,75.803 z m 2452.778,-8303.916 c -1026.706,529.863 -1640.893,1613.161 -1945.289,2915.112 -398.385,1703.889 -268.837,3769.525 163.567,5498.157 120.508,31.635 231.935,72.068 334.694,120.49 392.71,-1574.558 1004.844,-2715.054 1832.905,-3590.518 920.664,-973.381 2095.637,-1606.279 3525.073,-2137.11 1382.721,-513.502 3233.748,-948.883 5101.524,-1190.939 1705.313,-221.004 3428.926,-281.222 4829.667,-93.353 2523.353,338.43 5409.326,1440.727 8093.204,3360.758 981.169,701.924 1935.581,1513.042 2835.748,2435.81 -907.551,-1370.713 -1921.072,-2692.821 -2996.097,-3918.769 -2253.068,-2569.383 -4771.213,-4711.962 -7142.948,-5988.298 -2060.369,-1108.786 -4572.109,-1701.591 -6933.116,-1534.2 -2060.714,146.084 -3999.544,874.837 -5400.18,2352.125 l -56.568,59.687 c -805.291,849.764 -1271.941,1342.214 -2242.184,1711.048 z m -3808.366,8122.282 c -311.666,-544.522 -653.693,-1293.347 -889.981,-2207.637 -91.241,-353.037 -167.045,-731.167 -219.707,-1132.22 -76.742,133.564 -160.546,265.936 -250.849,397.106 -422.518,613.718 -989.626,1204.205 -1640.08,1766.459 -204.062,176.389 -366.504,377.246 -494.241,594.496 -34.85,59.293 -67.295,119.926 -97.427,181.752 1065.338,107.895 2240.445,228.577 3592.285,400.044 z m -5565.654,10635.924 c 155.307,-672.49 406.74,-1332.002 760.109,-1946.305 809.583,-1407.348 2150.768,-2576.757 4092.16,-3122.586 44.6,-12.531 89.522,-24.732 134.757,-36.615 -984.908,-689.01 -1931.613,-1179.589 -2834.072,-1537.944 -122.862,-48.793 -245.015,-95.131 -366.43,-139.234 1.645,791.566 -84.887,1485.077 -242.257,2139.781 -199.26,828.903 -506.947,1579.185 -890.22,2380.505 -418.227,874.358 -615.644,1587.802 -654.047,2262.398 z M 18501.7,44251.503 c -152.61,33.073 -301.491,70.122 -446.663,110.928 -1766.661,496.695 -2984.347,1556.028 -3716.917,2829.514 -734.799,1277.367 -985.096,2771.028 -814.114,4130.804 14.28,113.534 31.497,226.132 51.641,337.57 549.255,1645.999 1320.645,3083.079 2254.745,4329.939 -326.434,-1743.544 -282.335,-3791.523 67.587,-5733.372 434.247,-2409.811 1343.195,-4670.625 2603.721,-6005.383 z m 767.669,139.022 c -1334.84,1161.633 -2304.739,3478.59 -2755.787,5981.597 -427.466,2372.156 -384.752,4895.384 257.463,6752.888 837.112,914.673 1768.89,1708.058 2763.798,2389.845 2991.576,2050.074 6554.321,3097.013 9837.638,3407.086 -3315.574,-1111.691 -6201.171,-3364.228 -8093.351,-6412.34 -2029.488,-3269.309 -2916.833,-7450.813 -1966.983,-12116.949 -14.27,-0.436 -28.518,-1.16 -42.778,-2.127 z M -403.65706,25557.111 c -230.21577,-85.227 -423.73738,-136.149 -447.42246,-97.663 -793.26168,1283.422 -1293.22028,2682.11 -1402.46938,4100.212 -100.3959,1303.271 130.226,2625.731 768.5454,3891.963 2446.56976,4853.249 8429.659,5896.263 13318.6425,6748.526 l 496.116,86.664 c 1001.156,175.582 2082.482,432.529 3237.707,891.271 1151.922,457.422 2369.118,1113.806 3639.508,2087.348 l 0.729,-1.032 c 147.266,109.417 366.035,15.956 592.168,-185.358 345.465,-307.561 667.535,-822.681 882.847,-1386.498 210.206,-550.405 311.019,-1127.147 220.174,-1571.26 -72.253,-353.272 -301.792,-615.963 -759.401,-658.928 l -24.528,-2.085 c -2159.183,-312.018 -3876.797,-485.866 -5376.589,-637.642 -761.037,-77.015 -1468.63,-148.637 -2069.64,-219.238 -1993.378,-234.162 -4599.6496,-646.439 -6972.9144,-1512.17 C 3262.6094,36202.173 1067.1387,34833.238 -15.134759,32686.309 -526.27979,31672.325 -690.4503,30623.865 -593.39784,29593.01 c 106.35358,-1129.658 526.976721,-2229.88 1146.60011,-3232.376 32.36123,-52.572 -64.14961,-184.572 -207.06191,-328.529 -98.66687,-99.385 -216.613,-192.101 -343.4956993,-272.446 -129.6845107,-82.111 -268.6597107,-151.606 -406.3017207,-202.548 z m 84081.38306,-1490.469 -0.312,0.489 c -81.45,121.246 -165.129,237.663 -250.797,349.888 -42.902,62.485 -84.7,124.704 -125.258,186.346 -199.26,302.807 -372.19,599.923 -502.583,845.34 -474.493,893.1 -1200.918,1409.591 -1877.399,1890.586 -713.895,507.577 -1357.35,965.095 -1317.791,1796.093 44.734,939.747 -13.864,1589.632 -134.028,2089.572 -127.352,529.757 -315.468,879.974 -523.603,1214.926 -424.226,682.777 -659.035,1249.424 -764.556,1828.188 -107.551,589.965 -88.043,1221.373 -1.478,2016.789 89.532,822.766 73.367,1537.657 -35.362,2158.13 -113.311,646.715 -325.893,1187.056 -623.592,1636.255 -1111.02,1676.497 -1068.525,2705.715 -1018.988,3905.322 7.302,176.658 14.717,356.623 19.352,542.001 332.528,-562.52 690.784,-1110.892 1068.588,-1644.308 2155.995,-3043.996 2561.63,-5091.346 2945.425,-7028.558 281.668,-1421.665 552.265,-2787.41 1431.747,-4431.632 457.983,-856.222 946.871,-1620.821 1459.984,-2312.511 514.582,-693.692 1057.651,-1320.482 1621.406,-1897.534 680.304,-696.328 1169.191,-1211.629 1577.221,-1758.766 57.828,-77.537 114.198,-155.978 169.472,-235.95 -322.445,-716.998 -667.597,-1187.004 -1128.153,-1814.06 -100.636,-137.032 -205.437,-279.734 -235.184,-320.635 -125.987,-173.274 -255.672,-292.584 -391.2,-270.224 -257.64,42.507 -627.112,329.411 -1175.076,1011.889 -64.014,79.728 -126.706,160.753 -187.835,242.364 z"
       id="path1622"
       style="stroke-width:1.0526" /><path
       style="fill:#ff7f2a;stroke-width:110.277"
       d="m 55232.766,51993.665 c -2474.272,746.398 -5107.338,1370.435 -7079.399,3187.019 -1961.464,1733.533 -3853.187,3569.451 -5588.003,5537.723 -420.67,766.569 54.095,1705.885 165.813,2502.734 208.497,501.256 129.135,1629.17 897.264,985.596 3315.024,-1396.971 5867.154,-4172.085 7767.96,-7209.746 1129.8,-1769.608 2498.522,-3357.801 3838.921,-4955.658 3.916,-6.417 27.087,-53.812 -2.556,-47.668 z"
       id="path1856" /><path
       style="fill:#ff7f2a;stroke-width:110.277"
       d="m 73743.035,65396.503 c -3481.811,6.997 -6923.227,1523.081 -9255.029,4178.116 -3793.423,4094.708 -4452.146,10893.863 -1461.176,15641.239 2216.454,3382.223 6399.5,4786.95 10235.603,4715.535 2463.847,12.203 4999.841,-156.328 7248.228,-1286.978 2931.491,-1292.854 5057.498,-4146.801 5609.921,-7345.169 981.025,-4631.911 -545.192,-9802.295 -4164.559,-12846.524 -2274.038,-1962.365 -5222.343,-3122.885 -8212.988,-3056.219 z m 9821.519,14483.772 c 522.487,107.241 147.06,875.819 125.745,1217.629 -375.88,1626.105 -1182.302,3283.801 -2572.014,4220.996 -405.808,2.487 -347.352,-532.134 -49.369,-688.608 1192.128,-1206.03 1825.065,-2820.134 2151.864,-4472.491 41.332,-170.098 154.13,-315.642 343.774,-277.526 z"
       id="path1858" /><path
       style="fill:#ff7f2a;stroke-width:110.277"
       d="m 85979.067,54673.579 c -4864.332,73.504 -9518.138,3291.224 -11328.965,7913.715 -156.158,505.266 -551.886,1053.992 -477.191,1587.881 2103.41,273.471 4235.351,683.187 6105.17,1764.818 4562.134,2441.406 7530.453,7693.924 7205.279,12960.346 177.3,442.036 -387.382,1707.556 323.996,1557.227 3074.574,-205 6367.847,-1075.506 8415.222,-3596.331 2035.904,-2524.717 2767.225,-5915.823 2626.182,-9130.035 105.44,-1792.391 -203.152,-3584.196 -936.941,-5218.782 -1930.577,-4781.179 -6875.481,-8015.619 -11932.752,-7838.839 z m 10037.63,14158.796 c 527.079,116.579 164.993,891.613 227.192,1263.121 -186.154,2412.349 -1391.627,4837.67 -3413.864,6148.872 -417.438,154.526 -592.349,-352.341 -235.504,-563.105 1951.087,-1433.701 2919.031,-3862.665 3049.844,-6256.398 47.812,-204.704 78.487,-613.99 372.332,-592.49 z"
       id="path1860" /><path
       style="fill:#ff7f2a;stroke-width:110.277"
       d="m 59088.44,25732.156 c -2784.661,-36.178 -5471.933,1242.902 -7590.721,3023.829 -2076.435,1785.845 -3510.393,4297.141 -4115.904,6990.807 1144.861,1686.542 2193.859,3440.84 3090.338,5278.204 2855.681,-1051.99 6208.808,-1381.176 8999.713,41.94 1787.501,916.622 3116.905,2651.866 5131.229,3123.153 930.326,263.781 1997.877,482.056 2707.988,1156.683 344.572,-946.647 244.069,-2039.273 551.507,-3017.412 686.213,-3026.222 2027.076,-5855.246 3668.615,-8456.028 -1419.514,-3601.963 -4421.03,-6504.744 -8064.502,-7650.99 -1404.007,-547.593 -2901.457,-511.954 -4378.263,-490.186 z m -985.71,2271.788 c 397.418,-112.777 582.136,456.272 185.206,578.343 -1831.406,358.279 -3571.062,1205.45 -4975.23,2470.3 -239.489,370.667 -765.979,56.47 -487.634,-308.652 1180.139,-1441.708 2987.492,-2241.428 4743.775,-2683.832 175.997,-33.221 354.507,-58.8 533.883,-56.159 z"
       id="path1862" /><path
       style="fill:#fcc35a;fill-opacity:1;stroke-width:110.277"
       d="m 14000.842,67605.17 c -4509.6678,22.751 -8841.0609,2746.449 -10943.206,6811.666 -1754.4874,3336.567 -1955.6512,7501.743 -561.802,11005.456 1319.7294,3095.349 4355.095,5101.652 7532.538,5718.109 2440.341,511.742 4976.678,455.146 7441.646,177.549 3383.304,-489.272 6811.275,-2353.13 8310.045,-5619.131 1734.98,-3845.422 1272.91,-8583.882 -938.104,-12132.188 -2303.67,-3732.082 -6509.417,-6088.922 -10841.117,-5961.461 z m 9624.163,14599.788 c 607.699,236.39 102.55,1036.457 18.329,1468.381 -99.479,281.577 -334.703,1075.482 -739.125,719.607 -325.686,-419.885 236.274,-938.661 239.342,-1400.905 86.018,-259.13 128.927,-773.751 481.454,-787.083 z m -1430.933,3339.445 c 575.359,160.03 82.315,761.069 -178.174,978.848 -1121.497,1140.771 -2603.284,2025.621 -4170.037,2262.647 -443.496,-225.132 -48.039,-688.528 303.279,-716.559 1474.235,-420.168 2748.813,-1315.975 3808.361,-2422.85 69.698,-48.665 147.639,-106.113 236.571,-102.086 z"
       id="path1864" /><path
       style="fill:#fcc35a;fill-opacity:1;stroke-width:110.277"
       d="m 28324.022,39174.828 c -2171.332,85.769 -4584.568,357.572 -6264.433,1902.408 -317.776,796.842 -674.28,1592.67 -1015.761,2382.364 138.344,1958.707 1670.659,3440.445 3042.213,4651.388 3407.362,2743.377 7659.326,4108.506 11833.392,5082.893 967.985,165.23 1966.55,463.345 2940.083,433.374 670.118,-1200.448 897.315,-2633.179 1520.873,-3871.641 1010.167,-2261.421 2729.129,-4110.364 4612.702,-5644.973 -4695.446,-2854.997 -10072.965,-4596.465 -15533.231,-4920.608 -378.364,-16.083 -757.191,-21.247 -1135.838,-15.205 z"
       id="path6423" /><path
       style="fill:#fcc35a;fill-opacity:1;stroke-width:110.277"
       d="m 34148.138,32154.416 c -3289.799,100.43 -6670.693,666.08 -9588.572,2290.944 -1599.483,888.782 -2554.675,2583.676 -2971.13,4345.941 -16.992,443.937 334.166,922.313 470.727,1330.159 2772.094,-1825.419 6228.197,-1763.657 9389.938,-1457.496 4871.734,580.192 9603.746,2290.681 13828.514,4820.014 486.958,314.988 937.661,-394.576 1371.707,-540.607 856.982,-625.699 1902.725,-971.295 2721.818,-1632.36 -1691.382,-2949.035 -4316.226,-5287.409 -7214.75,-6959.899 -2442.104,-1373.903 -5194.171,-2291.513 -8008.252,-2196.696 z"
       id="path6425" /><path
       style="fill:#fcc35a;fill-opacity:1;stroke-width:110.277"
       d="m 30676.729,25974.637 c -2321.641,0.113 -4668.674,858.814 -6264.433,2625.063 -699.838,801.368 -1633.94,1281.597 -2499.978,1850.603 -1669.572,1467.208 -1708.529,3962.148 -1571.17,6031.766 126.207,644.251 -4.818,1531.204 503.619,2008.196 420.613,-506.552 454.199,-1318.751 837.842,-1885.044 1413.049,-2776.231 4530.557,-3919.978 7348.356,-4535.695 2601.293,-575.424 5311.437,-721.62 7954.103,-411.172 3594.505,789.846 6955.869,2586.373 9654.64,5133.021 279.502,206.326 -76.353,-320.984 -108.481,-352.838 -2345.355,-3039.829 -4962.782,-5947.218 -8122.686,-8119.628 -2279.314,-1555.289 -4985.051,-2407.96 -7731.812,-2344.272 z"
       id="path6427" /><path
       style="fill:#fcc35a;fill-opacity:1;stroke-width:110.277"
       d="m 20510.158,30560.225 c -1222.013,105.47 -2400.321,1062.158 -2373.593,2396.296 -128.82,1832.996 205.327,3844.115 1385.963,5280.162 236.9,157.838 521.806,80.785 335.25,-248.358 -303.46,-1790.513 -333.083,-3670.221 43.69,-5452.338 114.474,-696.691 606.947,-1273.861 765.764,-1931.359 -31.568,-53.969 -105.046,-46.505 -157.074,-44.403 z"
       id="path6429" /><path
       style="fill:#fcc35a;fill-opacity:1;stroke-width:110.277"
       d="m 20288.718,44071.027 c -571.58,326.657 -406.163,1215.589 -549.447,1775.234 -271.261,2929.982 -53.719,5974.714 1224.495,8656.318 1772.581,3925.158 5361.113,6918.481 9425.03,8033.128 1420.798,-1388.007 3056.625,-2503.763 4776.724,-3466.355 1724.31,-958.796 2898.758,-2714.556 3511.774,-4577.523 -104.443,-381.255 -708.84,-104.537 -973.563,-270.997 -5026.696,-849.769 -10102.862,-2456.369 -14176.849,-5681.939 -1428.572,-1140.935 -2617.677,-2644.623 -3139.059,-4434.999 -24.01,-28.803 -62.478,-43.649 -99.105,-32.867 z"
       id="path6431" /><path
       style="fill:#fcc35a;fill-opacity:1;stroke-width:110.277"
       d="m 19196.87,44553.158 c -1666.52,1565.93 -2262.688,3950.479 -2696.478,6144.954 -244.526,1939.556 -299.018,3956.31 125.318,5872.435 497.803,1162.586 1645.487,1878.125 2580.326,2652.923 2763.048,1940.345 6023.694,3187.529 9358.181,3535.345 157.188,-103.279 -387.817,-226.199 -418.368,-290.149 -5181.554,-2190.68 -8907.756,-7525.722 -9187.254,-13254.171 -101.797,-1553.371 57.334,-3149.922 246.588,-4662.643 z"
       id="path6433" /><path
       style="fill:#fcc35a;fill-opacity:1;stroke-width:110.277"
       d="m 18164.911,44394.479 c -2747.337,592.238 -4789.46,3373.04 -4628.814,6229.839 -25.94,1574.524 854.996,2979.803 1604.526,4294.792 181.297,255.041 350.489,613.991 571.413,799.489 -386.947,-3502.646 151.653,-7184.673 1879.138,-10267.347 131.986,-347.826 616.734,-717.95 597.821,-1057.209 z"
       id="path6435" /><path
       style="fill:#fcc35a;fill-opacity:1;stroke-width:110.277"
       d="m 14952.452,42167.747 c -244.406,1291.11 -407.892,2643.323 -1000.368,3846.203 -159.964,466.886 -553.43,1087.341 -559.506,1511.449 808.104,-1545.804 2089.074,-2860.348 3711.165,-3498.49 163.676,-176.813 682.976,-151.822 716.969,-404.277 -868.843,-603.08 -1854.578,-1162.693 -2868.26,-1454.885 z"
       id="path6437" /><path
       style="fill:#fcc35a;fill-opacity:1;stroke-width:110.277"
       d="m 17242.072,35259.871 c -612.731,883.988 -1529.37,1552.907 -2127.857,2420.237 1093.191,257.038 2280.523,394.153 3375.715,419.88 -464.063,-1016.034 -807.736,-2084.744 -1053.272,-3176.195 -64.862,112.026 -129.724,224.052 -194.586,336.078 z"
       id="path6439" /><path
       style="fill:#fcc35a;fill-opacity:1;stroke-width:110.277"
       d="m 55069.936,41285.543 c -3414.117,-23.64 -6638.067,1600.584 -9313.365,3654.167 -2090.573,1651.866 -3954.897,3736.001 -4795.421,6343.714 -1078.362,2787.473 -1669.962,6098.175 -4162.355,7999.034 -1701.983,1301.593 -3761.875,2090.364 -5223.097,3723.847 -823.38,822.588 -1659.407,1853.77 -2045.378,2902.15 1121.944,-1121.148 2271.152,-2276.323 3785.748,-2824.066 2736.688,-1097.521 5845.369,-1395.275 8278.42,-3187.898 2927.729,-2499.253 5263.612,-5843.887 8824.383,-7475.545 2869.607,-1217.056 6094.487,-1611.008 8660.807,-3523.629 1875.082,-1300.192 3899.439,-2566.82 6167.272,-2950.873 135.396,37.995 903.41,-72.427 495.946,-269.69 -1309.149,-353.397 -2658.602,-676.642 -3778.175,-1504.493 -1621.357,-1170.926 -3199.532,-2681.539 -5290.481,-2824.786 -532.193,-62.994 -1069.088,-72.946 -1604.304,-61.932 z"
       id="path6441" /><path
       style="fill:#fcc35a;fill-opacity:1;stroke-width:110.277"
       d="m 66103.08,47004.522 c -3332.438,214.311 -6029.514,2514.007 -8529.081,4548.884 -2455.256,1964.72 -4294.964,4560.343 -6039.182,7166.658 -2504.089,3879.311 -6508.822,6874.093 -11073.227,7524.471 -2927.3,440.411 -6191.323,216.378 -8682.995,2124.428 -428.221,358.503 -1120.387,683.818 -1324.37,1184.76 4008.066,-1399.357 8314.999,-1056.507 12477.646,-1388.457 4301.265,-216.845 8703.093,-760.156 12587.125,-2792.89 4532.124,-2258.918 7878.932,-6214.773 11657.054,-9504.247 1606.965,-1424.873 3538.71,-2524.343 5681.19,-2771.209 251.074,-18.11 594.435,-149.949 289.679,-422.393 -836.303,-1129.276 -2373.467,-1327.363 -3375.501,-2274.835 -1051.21,-797.768 -1497.498,-2117.37 -2310.08,-3106.108 -417.005,-216.458 -892.864,-302.121 -1358.258,-289.062 z"
       id="path6443" /><path
       style="fill:#fcc35a;fill-opacity:1;stroke-width:110.277"
       d="m 73244.957,53754.373 c -2161.95,234.616 -4171.138,1254.115 -5759.925,2752.78 -3790.419,3348.019 -7213.602,7286.603 -11800.864,9540.827 -5461.69,2783.989 -11699.932,2786.507 -17657.203,3035.455 -2444.953,124.08 -4935.208,266.927 -7261.575,1109.576 2737.456,160.158 5576.52,372.61 8016.336,1785.957 3432.296,1845.125 6871.22,3814.804 10702.323,4654.373 2642.762,683.286 5361.63,1046.864 8090.127,941.842 780.547,-82.081 1655.978,146.697 2388.084,-155.632 309.891,-1112.314 352.252,-2317.624 756.869,-3419.66 144.875,-659.675 584.826,-1369.128 663.408,-1975.43 -2764.735,766.544 -5659.355,948.456 -8510.364,845.635 -319.487,-10.144 -512.399,-562.872 -54.134,-531.542 2430.228,-202.307 4900.865,-106.971 7285.544,-727.409 724.859,-259.387 1765.662,-103.523 2148.724,-938.832 2316.941,-3603.631 6327.976,-6153.507 10578.333,-6339.548 324.125,-391.129 377.977,-1164.41 586.95,-1699.76 485.183,-1405.972 377.368,-2938.479 -177.249,-4304.908 -123.173,-1142.444 -469.852,-261.985 -777.345,280.465 -1624.54,2753.457 -4127.004,5000.009 -7043.413,6211.56 -398.67,-7.724 -401.353,-608.942 6.777,-663.082 1688.062,-922.966 3336.989,-1967.095 4621.91,-3444.511 1680.245,-1855.59 3025.304,-4164.954 3420.47,-6684.114 14.972,-141.023 -32.484,-354.877 -223.783,-274.042 z"
       id="path6445" /><path
       style="fill:#fcc35a;fill-opacity:1;stroke-width:110.277"
       d="m 78639.196,28115.39 c -5666.815,4102.893 -9758.811,10753.995 -10173.18,17913.985 64.941,1173.214 882.686,2130.206 1527.053,3047.337 1125.663,1327.012 3083.539,1530.635 4093.952,2984.43 126.429,-1886.73 687.111,-3688.309 1197.772,-5490.43 354.538,-1951.713 -140.098,-4062.252 687.547,-5911.832 649.342,-1114.197 1284.657,-2316.314 1170.705,-3659.416 -41.319,-1643.049 -247.902,-3432.106 743.438,-4860.649 807.945,-1067.036 515.796,-2434.307 721.383,-3664.71 -9.557,-63.317 125.139,-329.854 31.33,-358.715 z"
       id="path6447" /><path
       style="fill:#fcc35a;fill-opacity:1;stroke-width:110.277"
       d="m 89648.47,22454.745 c -615.246,554.168 -854.342,1474.977 -1290.688,2182.476 -1193.104,2400.582 -3503.787,3942.509 -4830.032,6256.782 -2006.825,2864.023 -1804.315,6594.149 -3343.599,9667.144 -1375.689,2777.405 -3481.015,5168.117 -4373.148,8194.288 -987.159,2937.034 -626.156,6229.398 619.134,9023.163 1398.671,-1423.643 3115.845,-2508.747 4888.274,-3331.827 -1068.502,-2044.409 -1254.752,-4532.023 -424.323,-6697.26 522.629,-1182.368 1130.291,-2367.432 1093.93,-3707.146 23.834,-1218.268 210.133,-2475.51 993.847,-3446.391 635.059,-840.673 688.861,-1909.209 641.938,-2921.959 57.031,-488.518 723.118,-271.834 637.035,168.691 157.138,1215.754 -94.505,2490.165 -911.542,3420.199 -1133.762,1699.206 -313.504,3956.262 -1369.439,5701.5 -1112.545,2192.563 -1406.369,5056.077 50.823,7155.429 572.282,46.46 1167.578,-313.803 1760.854,-338.906 2037.782,-332.618 4162.995,-334.819 6152.969,272.954 471.105,-3118.56 454.301,-6303.806 271.097,-9447.178 -323.528,-3367.048 -1492.971,-6755.277 -666.156,-10143.993 44.692,-286.752 259.867,-1164.617 675.108,-782.231 158.505,919.871 -309.822,1846.994 -235.079,2786.571 -173.665,3290.522 1009.229,6449.601 974.02,9733.749 54.355,2683.959 50.166,5400.557 -310.984,8053.989 2150.735,743.907 4082.582,2134.723 5723.945,3716.661 3131.717,-4509.373 3947.676,-10388.742 2944.957,-15749.877 -627.836,-3276.43 -2010.17,-6351.973 -3842.689,-9104.187 -1945.66,-3050.43 -4074.348,-6055.852 -5158.306,-9567.797 -183.841,-311.786 -238.654,-1033.762 -671.946,-1094.844 z"
       id="path6449" /><path
       style="fill:#ff6600;fill-opacity:1;stroke-width:110.277"
       d="m 85009.34,22875.931 c -1172.57,585.697 -1681.56,1973.967 -2472.27,2966.147 -712.678,1100.748 -2043.893,1593.091 -2773.419,2649.005 -273.803,981.964 -47.653,2063.573 -332.789,3021.245 -377.806,850.951 -904.325,1665.738 -1198.631,2537.097 -42.649,1575.405 91.022,3176.265 -122.017,4736.214 -449.257,1115.732 -1097.295,2162.914 -1515.316,3276.268 -23.223,792.22 -50.145,1586.967 -71.412,2377.629 1692.034,-2434.265 3363.494,-5011.375 3854.866,-8016.133 462.881,-2501.168 1283.076,-4973.119 2815.246,-7012.163 1034.087,-1497.79 2446.561,-2681.791 3496.886,-4155.993 -303.862,-906.273 -884.853,-1799.348 -1631.699,-2380.187 l -15.771,-1.306 z"
       id="path6451" /><path
       style="fill:#ff6600;fill-opacity:1;stroke-width:110.277"
       d="m 86075.4,54642.888 c -5136.505,77.945 -10054.057,3660.932 -11721.97,8639.634 -105.964,293.575 -450.603,898.45 121.695,917.902 2792.857,444.787 5629.17,1264.53 7839.867,3148.551 3174.992,2612.924 5239.219,6709.351 5104.36,10913.777 70.592,700.001 -49.449,1493.687 144.525,2150.154 1499.558,137.542 3006.413,-330.217 4442.402,-741.85 2393.773,-704.272 4411.334,-2486.908 5461.172,-4790.807 1386.143,-2461.935 1427.458,-5363.44 1369.125,-8120.063 45.621,-2937.321 -1333.282,-5760.254 -3224.181,-7907.184 -2444.554,-2635.753 -5957.396,-4293.02 -9536.995,-4210.114 z m 9953.658,14273.507 c 489.024,118.93 131.613,842.062 181.157,1189.114 -256.026,2394.768 -1363.457,4890.79 -3464.374,6134.941 -489.567,12.046 -194.891,-684.141 122.973,-758.351 1821.343,-1464.449 2596.526,-3886.683 2860.587,-6161.715 42.054,-147.12 92.11,-424.413 299.657,-403.989 z"
       id="path6522" /><path
       style="fill:#ff6600;fill-opacity:1;stroke-width:110.277"
       d="m 73949.129,65356.888 c -3308.245,24.879 -6628.387,1281.182 -8959.502,3719.41 -2967.719,2794.136 -4247.493,7112.608 -3732.408,11152.244 383.595,3294.277 2198.642,6483.264 5115.254,8065.647 2264.35,1330.554 4918.041,1767.389 7501.824,1616.641 2985.277,18.595 6158.196,-464.013 8547.238,-2439.407 2030.352,-1606.806 3467.362,-3981.055 3794.467,-6600.741 575.786,-3271.545 -111.389,-6779.05 -1834.472,-9595.461 -2249.044,-3529.72 -6276.38,-5933.329 -10432.401,-5918.333 z m 9633.328,14580.416 c 467.212,108.699 69.249,808.238 69.889,1117.429 -393.419,1607.369 -1144.209,3299.069 -2554.947,4209.967 -465.855,-6.634 -76.241,-622.024 109.121,-769.451 1137.624,-1228.748 1645.038,-2883.494 2129.136,-4454.119 51.004,-86.505 151.776,-120.164 246.801,-103.826 z"
       id="path6524" /><path
       style="fill:#ff6600;fill-opacity:1;stroke-width:110.277"
       d="m 59123.18,25766.765 c -3536.796,-119.134 -6865.485,1888.874 -9145.265,4534.973 -1184.419,1508.611 -2089.804,3287.499 -2558.589,5162.304 -22.233,774.805 739.721,1285.417 1018.958,1963.79 732.197,1176.089 1375.115,2407.336 2058.806,3611.312 3102.416,-1079.244 6801.506,-1438.246 9667.855,490.838 1664.76,1116.839 3237.024,2513.508 5253.146,2914.561 680.632,148.014 1283.738,566.826 1904.927,815.163 375.677,-1078.622 344.889,-2297.37 698.843,-3401.481 658.05,-2741.14 1935.946,-5264.029 3317.104,-7686.689 346.542,-908.966 -526.349,-1694.503 -875.098,-2458.982 -2037.33,-3062.206 -5264.991,-5550.09 -8948.182,-5922.395 -796.87,-36.403 -1595.084,-22.226 -2392.505,-23.394 z m -981.236,2245.017 c 373.417,-18.325 449.251,514.006 42.413,540.248 -1866.171,466.704 -3612.359,1391.957 -5110.993,2606.343 -367.555,117.23 -379.451,-350.595 -117.645,-499.98 1328.94,-1469.476 3274.348,-2349.689 5186.225,-2646.611 z"
       id="path6526" /><path
       style="fill:#ff6600;fill-opacity:1;stroke-width:110.277"
       d="m 55187.581,51996.495 c -2657.109,742.067 -5590.388,1413.644 -7622.57,3427.625 -1746.232,1652.248 -3895.761,3180.209 -5435.164,5037.196 -579.77,859.506 366.778,2315.364 496.076,3228.677 97.651,278.718 445.083,1222.085 929.5,846.3 2247.358,-1033.469 4508.442,-2585.721 6089.843,-4520.974 1725.289,-2022.803 2689.887,-4558.894 4448.244,-6558.825 356.299,-483.244 833.14,-967.587 1119.008,-1462.829 z"
       id="path6528"
       sodipodi:nodetypes="ccccccccc" /><path
       style="fill:#ff6600;fill-opacity:1;stroke-width:110.277"
       d="m 14018.957,67573.825 c -5135.9244,17.618 -10049.5898,3568.234 -11706.2653,8544.403 -1210.8914,3595.343 -1034.1809,7899.559 1174.6079,11062.159 2162.36,3056.059 6001.9181,4237.439 9545.0014,4371.12 1928.366,169.317 3876.858,-115.702 5769.474,-481.904 3046.898,-739.855 5995.575,-2701.288 7169.89,-5774.096 2182.739,-5316.622 240.045,-11972.946 -4374.134,-15273.148 -2183.317,-1619.084 -4880.116,-2493.083 -7578.574,-2448.534 z m 9700.463,14716.024 c 311.298,336.644 -26.054,965.937 -106.137,1363.464 -83.344,280.658 -369.123,1077.053 -736.353,648.648 45.048,-638.703 261.315,-1313.336 515.128,-1900.886 77.583,-97.105 211.121,-119.318 327.362,-111.226 z m -1415.588,3344.015 c 348.088,299.21 -214.677,790.69 -418.793,1007.363 -1150.307,1028.838 -2555.358,1951.001 -4108.444,2079.806 -204.587,-551.517 639.042,-684.284 983.793,-847.811 1291.425,-422.366 2293.108,-1364.202 3342.039,-2184.507 62.024,-30.745 130.423,-64.353 201.405,-54.851 z"
       id="path6530" /><path
       style="fill:#c87137;fill-opacity:1;stroke-width:110.277"
       d="m 84639.139,23123.637 c -1385.301,1233.194 -2061.396,3145.826 -3653.649,4180.338 -671.781,527.657 -1421.761,1158.258 -1350.354,2120.899 -21.865,1207.381 -262.403,2397.755 -886.201,3439.092 -335.269,626.483 -676.281,1251.576 -537.015,1992.76 -72.433,1372.907 120.649,2804.9 -246.633,4138.745 -400.618,1093.141 -1038.355,2106.325 -1424.324,3187.295 0.723,751.059 -1.428,1504.105 1.066,2253.94 1757.681,-2540.458 3431.995,-5278.792 3923.278,-8404.892 619.782,-3130.229 2037.923,-6095.441 4219.228,-8400.079 682.297,-792.264 1402.352,-1554.248 2020.228,-2401.52 -372.483,-908.27 -937.163,-1716.834 -1622.747,-2405.871 -147.626,99.763 -295.251,199.528 -442.877,299.293 z"
       id="path6532" /><path
       style="fill:#44aa00;fill-opacity:1;stroke-width:110.277"
       d="m -735.80665,25523.849 c -556.84265,345.92 -657.44115,1166.954 -961.41475,1726.316 -1209.3904,2930.872 -278.0376,6485.781 2025.98283,8570.416 2675.48677,2635.474 6503.50997,3338.259 10009.47157,4077.413 2972.095,516.145 6041.375,1179.803 8499.571,3077.219 291.762,252.424 712.653,421.797 960.085,3.995 761.851,-759.177 1273.151,-1958.633 995.728,-3030.14 -582.411,-728.493 -1670.277,-490.081 -2473.72,-699.085 C 13323.968,38597.99 8044.8108,38559.899 3490.1901,36091.302 1310.5094,34938.866 -691.35474,32774.467 -602.8518,30114.013 -686.49013,28733.094 13.295131,27522.382 422.53719,26262.828 307.43397,25864.577 -366.66587,25618.293 -735.80665,25523.849 Z"
       id="path6603" /><path
       style="fill:#44aa00;fill-opacity:1;stroke-width:110.277"
       d="m -733.86522,25337.837 c -1238.60238,1148.627 -1605.12988,3651.81 -1672.32858,5184.637 201.699,4016.259 3273.59907,6048.173 5161.4059,7190.584 1830.2935,1319.538 3634.3367,1558.608 9286.0739,2583.588 2461.622,438.692 4803.426,1452.726 6854.519,2929.488 628.122,648.492 1614.013,-335.605 1970.955,-1154.685 346.988,-468.7 431.61,-1954.273 297.314,-2069.765 -319.333,-661.851 -1479.308,-698.047 -2305.574,-794.795 -5097.352,-855.131 -10304.9077,-583.6 -15032.7556,-3001.257 -2266.0896,-1122.729 -4350.7605,-3271.275 -4396.37783,-5988.233 -77.56105,-1423.487 1339.4393,-2688.405 1448.84511,-4067.759 -128.67765,-363.752 -1273.7358,-774.289 -1612.0769,-811.803 z"
       id="path6674"
       sodipodi:nodetypes="cccccccccccc" /></g><text
     x="0"
     y="100015"
     fill="#000000"
     font-size="5px"
     font-weight="bold"
     font-family="'Helvetica Neue', Helvetica, Arial-Unicode, Arial, Sans-serif"
     id="text1626">Created by Oleksandr Panasovskyi</text><text
     x="0"
     y="100020"
     fill="#000000"
     font-size="5px"
     font-weight="bold"
     font-family="'Helvetica Neue', Helvetica, Arial-Unicode, Arial, Sans-serif"
     id="text1628">from the Noun Project</text></svg>
