<?xml version="1.0" encoding="UTF-8" standalone="no"?>
<svg
   version="1.1"
   viewBox="-5.0 -10.0 110.0 135.0"
   id="svg9366"
   sodipodi:docname="chamomile.svg"
   inkscape:version="1.2.2 (b0a8486541, 2022-12-01)"
   xmlns:inkscape="http://www.inkscape.org/namespaces/inkscape"
   xmlns:sodipodi="http://sodipodi.sourceforge.net/DTD/sodipodi-0.dtd"
   xmlns="http://www.w3.org/2000/svg"
   xmlns:svg="http://www.w3.org/2000/svg">
  <defs
     id="defs9370" />
  <sodipodi:namedview
     id="namedview9368"
     pagecolor="#ffffff"
     bordercolor="#000000"
     borderopacity="0.25"
     inkscape:showpageshadow="2"
     inkscape:pageopacity="0.0"
     inkscape:pagecheckerboard="0"
     inkscape:deskcolor="#d1d1d1"
     showgrid="false"
     inkscape:zoom="5.837037"
     inkscape:cx="55.079315"
     inkscape:cy="67.15736"
     inkscape:window-width="1857"
     inkscape:window-height="1011"
     inkscape:window-x="0"
     inkscape:window-y="0"
     inkscape:window-maximized="1"
     inkscape:current-layer="svg9366" />
  <path
     d="m45.098 44.09c-0.47656 0.0625-1.0625-0.75781-1.3828-1.0156-0.32812-0.32031-0.33594-0.84766-0.015625-1.1758 0.75-0.73828 1.4609 0.28906 1.9766 0.76562 0.54297 0.49219 0.14062 1.4531-0.57812 1.4258zm2.4922 6.3477h-0.9375c-1.0859 0.003906-1.0859 1.6562 0 1.6602h0.9375c1.0898-0.003906 1.0859-1.6562 0-1.6602zm2.2305 8.4727-0.80469 0.78125c-0.54297 0.49219-0.13672 1.4531 0.57812 1.4258 0.47656 0.0625 1.0586-0.75781 1.3828-1.0156 0.77734-0.76172-0.375-1.9414-1.1562-1.1914zm-10.516-11.438c-0.99219 0.035156-0.83203 1.0742-0.83203 1.7656 0 0.45703 0.37109 0.83203 0.83203 0.83203 0.99219-0.035156 0.83203-1.0742 0.83203-1.7656 0-0.46094-0.375-0.83203-0.83203-0.83203zm3.0234 7.0977c-0.78125-0.75391-1.9336 0.42969-1.1562 1.1914 0.32031 0.25781 0.90625 1.0742 1.3789 1.0156 0.71484 0.027344 1.1211-0.9375 0.57812-1.4258l-0.80078-0.78125zm11.586 0.39063c-0.53906 0.48828-0.13672 1.4531 0.57813 1.4258 0.47656 0.0625 1.0586-0.75781 1.3828-1.0156 0.32812-0.32031 0.33594-0.84766 0.015625-1.1758-0.75-0.73437-1.4609 0.29297-1.9766 0.76563zm7.125-4.0547h-0.9375c-1.0859 0.003906-1.0859 1.6562 0 1.6602h0.9375c1.0859-0.003906 1.0859-1.6562 0-1.6602zm-9.2539-4.3711c-0.99219 0.035156-0.83203 1.0742-0.83203 1.7656 0 0.45703 0.37109 0.83203 0.83203 0.83203 0.99219-0.035156 0.83203-1.0742 0.83203-1.7656 0-0.45703-0.375-0.83203-0.83203-0.83203zm45.262 15.551c1.4141 5.2852-3.625 7.7188-8.7969 7.6367-4.832 0-11.391-1.7461-19.195-5.9023 10.09 9.418 13.621 19.238 11.906 23.605-0.77344 2.2734-2.6367 3.5859-5.0352 3.582-4.6875 0.21094-12.922-6.2383-18.719-18.75 2.6875 15.211 0.17578 26.301-7.2109 27.242-7.3906-0.92969-9.9102-12.086-7.1914-27.344-6.2617 12.961-13.609 18.855-18.734 18.855-2.3945 0.003906-4.2578-1.3086-5.0312-3.582-1.7227-4.3594 1.8164-14.191 11.906-23.609-7.8047 4.1562-14.363 5.9023-19.195 5.9023-5.1719 0.085938-10.215-2.3555-8.8008-7.6406 1.5078-4.8945 9.3633-10.109 23.664-12.082-14.27-1.9688-22.168-7.1953-23.66-12.086-0.69531-2.2617-0.007813-4.375 1.8828-5.793 3.6133-2.9805 14.043-2.6523 26.105 4.0312-10.113-9.5352-13.617-19.113-11.902-23.586 0.77344-2.2734 2.6328-3.5859 5.0312-3.582 4.6641-0.21094 12.828 6.168 18.625 18.547-2.6016-13.508 0.30469-23.488 4.2539-26.008 1.9375-1.3633 4.1562-1.3633 6.0938 0 4.1797 2.9414 6.7109 11.984 4.1992 26.133 5.8008-12.461 14-18.871 18.688-18.672 2.3984-0.003906 4.2617 1.3086 5.0312 3.582 1.7188 4.4688-1.7891 14.055-11.898 23.586 12.066-6.6836 22.48-7.0117 26.102-4.0352 1.8945 1.418 2.5781 3.5312 1.8828 5.793-1.4922 4.8906-9.3906 10.117-23.66 12.09 14.301 1.9766 22.152 7.1914 23.66 12.086zm-33.277-20.859c0.007813 0.011719 0.011719 0.019532 0.019531 0.03125 1.5898 2.4492 2.3984 5.1094 2.5312 7.7578 43.879-2.4688 34.375-31.617-2.5508-7.7891zm0.88281 8.3672c-0.050782-1.9297-0.48047-3.8008-1.2539-5.5391-0.13281-0.29297-0.26563-0.58203-0.41797-0.86719-0.019531-0.039062-0.042969-0.078125-0.066407-0.11719-1.5625-2.8281-4.0547-5.1406-6.9883-6.4805-0.42188-0.18359-0.85156-0.35547-1.293-0.5-0.023437-0.007813-0.039062-0.027344-0.0625-0.035156-0.089843-0.03125-0.17187-0.070313-0.26172-0.097657-1.5391-0.41406-3.1172-0.62891-4.6953-0.60156-1.3789 0.054687-2.6719 0.26172-3.8672 0.60547-0.039063 0.011718-0.078125 0.019531-0.11719 0.03125-0.10156 0.03125-0.19531 0.070312-0.29297 0.10156-2.8672 0.94922-5.3359 2.7461-7.1406 5.2031l-0.003906 0.003906c-0.050781 0.074219-0.10156 0.14844-0.15234 0.22266-0.14062 0.19922-0.27344 0.40234-0.40234 0.60937-2.2812 3.7109-2.8672 8.375-1.5391 12.535 0.46094 1.3672 1.1211 2.6641 1.9844 3.8555 0.023438 0.035156 0.03125 0.074218 0.050781 0.10937 0.019532 0.023438 0.050782 0.035157 0.066407 0.0625 0.83984 1.1406 1.8281 2.1328 2.9258 2.9727 0.10547 0.078125 0.20312 0.16406 0.3125 0.23828 0.035156 0.027344 0.074219 0.046875 0.10938 0.074219 1.1133 0.76562 2.3828 1.4219 3.8125 1.9258 0.042969 0.011719 0.074219 0.042969 0.10938 0.0625 0.019531 0.003906 0.042969 0 0.0625 0.007812v-0.003906c0.38672 0.13281 0.77734 0.21875 1.168 0.31641 2 0.45703 4.0664 0.48438 6.0742 0.097657 3.7227-0.77344 7.1016-2.9961 9.293-6.0898 0.0625-0.089844 0.12109-0.17969 0.17969-0.27344 0.17188-0.25781 0.33203-0.52344 0.48828-0.79297 1.0352-1.8125 1.6719-3.8047 1.8633-5.8789 0.03125-0.41406 0.070313-0.82422 0.066406-1.2461 0.007813-0.17188-0.007812-0.33984-0.011718-0.51172zm-8.6797-14.793c0.16016 0.0625 0.30469 0.14844 0.46484 0.21484 0.46094 0.19141 0.91797 0.39844 1.3633 0.63281 0.054688 0.027343 0.10547 0.0625 0.15625 0.089843 1.6992 0.92578 3.2344 2.1719 4.5195 3.7383 0.042969 0.050782 0.09375 0.09375 0.13672 0.14844 34.102-27.855 9.1992-45.75-6.6406-4.8242zm-10.078-0.60938c1.3438-0.34766 2.7188-0.51953 4.1016-0.51953 1.3828 0 2.7617 0.17578 4.1055 0.51953 11.227-42.512-19.438-42.48-8.207 0zm-8.5 5.4336c0.042969-0.050781 0.09375-0.097656 0.13672-0.14844 1.2773-1.5664 2.8086-2.8086 4.5039-3.7344 0.058594-0.03125 0.11328-0.066407 0.17188-0.097657 0.43359-0.23047 0.88281-0.43359 1.3359-0.62109 0.16016-0.070313 0.3125-0.16016 0.47656-0.22266-6.4258-16.613-14.785-24.156-19.949-24.156-1.6914-0.007812-2.918 0.84766-3.4609 2.457-1.668 4.8828 2.8945 15.215 16.785 26.523zm-3.7109 9.3906c0.13281-2.6406 0.9375-5.293 2.5195-7.7344 0.011719-0.019531 0.019531-0.035156 0.03125-0.054688-10.312-6.6641-18.84-9.3047-24.512-9.3047-3.9922 0.027344-8.2109 1.3594-7.1836 5.5 1.5195 4.9336 11.277 10.605 29.145 11.594zm2.5625 9.7617c-1.4609-2.2617-2.3125-4.832-2.5156-7.5273 0-0.015625-0.003907-0.03125-0.003907-0.046875-0.003906-0.074219-0.015624-0.14453-0.019531-0.21875-43.926 2.4609-34.402 31.613 2.5391 7.793zm7.7617 6.4414c-1.793-0.71094-3.4023-1.7383-4.793-2.9961-0.42188-0.37109-0.81641-0.77344-1.1992-1.1914-0.007813-0.007812-0.015625-0.019531-0.027344-0.027344-0.19531-0.21484-0.41016-0.41406-0.59766-0.64062-34.094 27.848-9.2227 45.754 6.6172 4.8555zm10.098 0.60547c-1.3008 0.33203-2.6719 0.51172-4.1094 0.5-1.4375 0.015625-2.8086-0.16797-4.1094-0.5-11.207 42.492 19.43 42.457 8.2188 0zm8.5039-5.4609c-0.5625 0.68359-1.1875 1.2969-1.8398 1.875-0.36328 0.32812-0.73828 0.64453-1.1328 0.94141-0.019531 0.015624-0.039063 0.03125-0.058594 0.042968-1.0938 0.80859-2.2969 1.4805-3.5938 1.9922 15.863 40.93 40.703 22.973 6.625-4.8516zm3.6914-9.3789c-0.16406 2.7773-1.0352 5.4414-2.543 7.7891 36.969 23.828 46.418-5.3359 2.543-7.7891zm-7.9219-5.8008h-0.9375c-1.0859 0.003906-1.0859 1.6562 0 1.6602h0.9375c1.0859 0 1.0859-1.6523 0-1.6602zm-5.6602-6.6016h-0.9375c-1.0859 0.003907-1.0859 1.6562 0 1.6602h0.9375c1.0898-0.003907 1.0859-1.6562 0-1.6602z"
     id="path9360" />
  <path
     style="fill:#ffcc00;stroke-width:0.63474;stroke-linecap:round;stroke-linejoin:round;paint-order:stroke markers fill"
     d="m 54.742029,45.269249 c -5.225852,0.02125 -10.4191,2.987044 -12.719157,7.745863 -1.750111,3.07097 -1.998531,6.77575 -1.442164,10.203901 1.386153,6.770706 8.068129,12.015451 14.998178,11.559067 6.257727,-0.238937 12.111649,-4.801688 13.682965,-10.898434 1.532116,-5.244285 -0.272493,-11.217078 -4.388865,-14.798197 -2.712274,-2.528712 -6.409204,-3.98506 -10.130957,-3.8122 z m 2.509567,3.519752 c 0.597355,-0.210363 1.549614,0.481056 0.927202,1.047326 -0.508775,0.372476 -1.419039,0.326898 -1.936048,-0.0084 -0.358011,-0.589898 0.179201,-1.22047 0.837192,-1.036618 l 0.168643,-0.0023 z m -8.021246,3.091117 c 0.686308,0.206439 1.552406,0.87369 1.45856,1.652969 -0.25364,0.473952 -0.832015,0.577554 -1.122278,0.05053 -0.5298,-0.351821 -1.415173,-1.24447 -0.498568,-1.695799 0.05316,-0.0114 0.108272,-0.01412 0.162286,-0.0077 z m 13.80764,3.422381 c 0.864087,-0.241672 1.344116,1.093019 0.498902,1.360855 -0.632895,0.305616 -2.208177,-0.128239 -1.569987,-1.019554 0.272914,-0.283935 0.691812,-0.365347 1.071085,-0.341301 z m -6.205659,1.385616 c 0.792344,0.297565 0.812489,1.665162 0.251292,2.189012 -0.754871,0.378941 -1.065682,-0.557582 -0.939582,-1.12964 0.01817,-0.435395 0.09344,-1.11246 0.68829,-1.059372 z m -12.422358,1.012526 c 0.84573,0.120928 0.477333,1.445421 0.359035,1.997281 -0.511309,0.338585 -1.291824,0.04586 -1.108894,-0.656837 0.0027,-0.535255 -0.0828,-1.47317 0.749859,-1.340444 z m 7.769955,2.909426 c 0.689013,-0.228547 1.504695,0.662988 0.758893,1.15072 -0.562667,0.161243 -1.50994,0.321484 -1.894556,-0.219838 -0.232397,-0.728218 0.557946,-0.992803 1.135663,-0.930882 z m 13.30673,0.518309 c 0.590557,-0.09657 1.547974,0.09898 1.095844,0.914152 -0.419845,0.50259 -1.34891,0.446113 -1.881172,0.181692 -0.577678,-0.646565 0.0046,-1.297087 0.785328,-1.095844 z m -5.082376,2.988392 c 0.697006,0.13893 0.754242,0.989391 0.148901,1.319029 -0.355242,0.450141 -1.269987,1.155521 -1.6436,0.353347 -0.0666,-0.774669 0.783519,-1.556648 1.494699,-1.672376 z m -13.644685,0.4544 c 0.619299,0.242673 1.469768,0.8997 1.354832,1.647279 -0.247518,0.434147 -0.794944,0.573034 -1.085472,0.07295 -0.43113,-0.366457 -1.465875,-1.163695 -0.584227,-1.633896 0.09321,-0.05922 0.203192,-0.09767 0.314867,-0.08633 z m 8.724929,4.285671 c 0.712765,0.166617 0.671187,1.108852 0.08231,1.43012 -0.383311,0.461538 -1.242531,1.038007 -1.571993,0.20411 -0.206451,-0.711371 0.868465,-1.480816 1.489679,-1.63423 z"
     id="path9493"
     transform="translate(-5,-10)" />
  <path
     style="fill:#f2f2f2;stroke-width:0.63474;stroke-linecap:round;stroke-linejoin:round;paint-order:stroke markers fill"
     d="m 28.886458,20.50785 c -2.199759,-0.02836 -3.718992,2.131774 -3.681367,4.1883 -0.213418,4.390095 2.148033,8.387373 4.50387,11.912917 3.490217,4.938879 7.793719,9.301659 12.547468,13.022145 0.909271,-0.332285 1.455507,-1.372983 2.267906,-1.924945 1.297036,-1.206966 2.939938,-1.911457 4.413232,-2.839887 0.419978,-0.647152 -0.494715,-1.410498 -0.571223,-2.081834 C 45.367956,35.813038 41.713976,28.814408 35.925293,23.743184 33.935473,22.117248 31.563962,20.480333 28.886458,20.50785 Z"
     id="path9564"
     transform="translate(-5,-10)" />
  <path
     style="fill:#f2f2f2;stroke-width:0.63474;stroke-linecap:round;stroke-linejoin:round;paint-order:stroke markers fill"
     d="m 54.873196,12.203859 c -2.670392,0.1779 -4.2191,2.81014 -5.108141,5.040884 -2.03118,5.686859 -1.69696,11.897996 -0.907029,17.788343 0.51887,3.053511 1.019993,6.141258 1.891783,9.110204 0.643374,0.369467 1.453792,-0.221621 2.167262,-0.148901 2.032866,-0.383917 4.085741,0.08524 6.111299,0.186377 0.741566,-0.754819 0.598474,-2.041803 0.951749,-2.994973 1.525952,-7.089037 2.596359,-14.551501 0.953514,-21.718912 -0.725569,-2.736905 -1.946658,-5.891001 -4.749774,-7.061922 -0.418935,-0.149222 -0.86595,-0.221149 -1.310663,-0.2011 z"
     id="path9566"
     transform="translate(-5,-10)" />
  <path
     style="fill:#f2f2f2;stroke-width:0.63474;stroke-linecap:round;stroke-linejoin:round;paint-order:stroke markers fill"
     d="m 80.57518,20.628978 c -3.659967,0.308977 -6.614837,2.92907 -9.030218,5.481888 -4.823898,5.336407 -7.971177,11.931161 -10.680258,18.525973 0.222565,0.682589 1.282842,0.714746 1.8012,1.134993 1.881322,0.881372 3.26301,2.456735 4.831419,3.753309 0.716465,0.172529 1.194812,-0.79576 1.767739,-1.092164 5.941879,-5.198391 11.744506,-11.07107 14.672548,-18.550033 0.874267,-2.004326 0.867675,-4.260976 0.610718,-6.391051 -0.461503,-1.764004 -2.134338,-3.018866 -3.973148,-2.862915 z"
     id="path9568"
     transform="translate(-5,-10)" />
  <path
     style="fill:#f2f2f2;stroke-width:0.63474;stroke-linecap:round;stroke-linejoin:round;paint-order:stroke markers fill"
     d="m 92.364793,41.877652 c -7.636968,0.305695 -14.620851,3.922718 -21.126207,7.6331 -0.766776,0.559241 -1.849609,0.871399 -2.400485,1.644269 0.405439,1.650805 1.476617,3.066579 1.809418,4.759235 0.348722,1.043125 0.302646,2.205298 0.655312,3.22052 7.711271,-0.470979 15.636407,-1.600622 22.594074,-5.171623 2.709129,-1.514393 5.609083,-3.510329 6.605245,-6.60561 0.68036,-2.133432 -0.980642,-4.253407 -2.965306,-4.891648 -1.64349,-0.601839 -3.445092,-0.591317 -5.172051,-0.588243 z"
     id="path9570"
     transform="translate(-5,-10)" />
  <path
     style="fill:#f2f2f2;stroke-width:0.63474;stroke-linecap:round;stroke-linejoin:round;paint-order:stroke markers fill"
     d="m 71.977737,60.879427 c -1.023198,-0.115697 -0.893761,1.085183 -1.01788,1.745655 -0.351513,2.18605 -1.371655,4.166015 -2.210762,6.181231 0.472011,0.749307 1.577558,1.009004 2.284648,1.557894 6.124348,3.64567 12.753463,6.793265 19.882194,7.751263 2.938359,0.122941 6.362731,0.286995 8.662021,-1.888199 1.618532,-1.485787 1.206102,-4.050787 -0.05399,-5.624552 -2.932357,-3.860365 -7.66671,-5.71836 -12.137994,-7.155022 -4.999733,-1.506859 -10.208435,-2.235265 -15.408239,-2.56827 z"
     id="path9572"
     transform="translate(-5,-10)" />
  <path
     style="fill:#f2f2f2;stroke-width:0.63474;stroke-linecap:round;stroke-linejoin:round;paint-order:stroke markers fill"
     d="m 67.562572,70.344511 c -1.924018,1.881878 -4.019908,3.688248 -6.554655,4.686199 -0.318212,0.597263 0.409852,1.316529 0.519982,1.939059 3.144347,7.488182 7.095974,15.048182 13.604532,20.155506 2.045702,1.606989 4.837139,2.855269 7.424972,1.851726 2.154855,-0.963768 2.346881,-3.655038 2.109821,-5.69797 -0.773072,-5.3316 -4.075256,-9.864083 -7.44516,-13.896397 -2.882459,-3.311412 -6.092801,-6.397498 -9.530684,-9.087863 l -0.02073,-0.0055 z"
     id="path9574"
     transform="translate(-5,-10)" />
  <path
     style="fill:#f2f2f2;stroke-width:0.63474;stroke-linecap:round;stroke-linejoin:round;paint-order:stroke markers fill"
     d="m 50.752486,75.913408 c -1.647929,6.042021 -2.672538,12.319898 -2.444319,18.604594 0.119702,3.960801 0.755865,8.201268 3.255076,11.410168 1.151067,1.41455 3.244066,2.55961 4.996047,1.49804 2.967505,-1.54708 3.972589,-5.09571 4.636475,-8.129583 0.705535,-3.816691 0.555429,-7.74552 0.316407,-11.601637 -0.511367,-3.981399 -1.149781,-8.015245 -2.335236,-11.829431 -2.789886,0.244171 -5.652112,0.139514 -8.42445,0.04785 z"
     id="path9576"
     transform="translate(-5,-10)" />
  <path
     style="fill:#f2f2f2;stroke-width:0.63474;stroke-linecap:round;stroke-linejoin:round;paint-order:stroke markers fill"
     d="m 42.226984,70.317742 c -3.801571,3.056675 -7.171739,6.621286 -10.439411,10.231487 -2.78889,3.582692 -5.491744,7.507838 -6.399451,12.032726 -0.01858,1.821546 -0.502883,3.977278 0.854926,5.46383 0.837684,1.122577 2.271521,1.421953 3.592027,1.224 2.365341,-0.09277 4.388294,-1.629473 6.166629,-3.052292 6.250697,-5.535473 10.044802,-13.21361 13.111532,-20.840463 -0.347493,-0.695021 -1.45924,-0.803674 -2.08796,-1.314009 -1.782322,-0.987001 -3.185331,-2.491456 -4.686867,-3.792459 z"
     id="path9578"
     transform="translate(-5,-10)" />
  <path
     style="fill:#f2f2f2;stroke-width:0.63474;stroke-linecap:round;stroke-linejoin:round;paint-order:stroke markers fill"
     d="m 38.303694,60.863366 c -8.023919,0.543879 -16.276038,1.828 -23.368757,5.83993 -2.483072,1.509167 -5.218367,3.629371 -5.5538397,6.731663 -0.1766392,2.476158 2.2617817,4.057306 4.4175077,4.494803 2.671164,0.534827 5.456303,0.17891 8.113933,-0.285756 6.977241,-1.508291 13.326599,-4.964932 19.363822,-8.658677 0.160458,-0.727707 -0.670971,-1.449721 -0.896752,-2.180981 -0.967446,-1.801127 -1.199958,-3.851984 -1.645943,-5.81082 -0.08881,-0.155289 -0.281891,-0.126438 -0.429971,-0.130162 z"
     id="path9580"
     transform="translate(-5,-10)" />
  <path
     style="fill:#f2f2f2;stroke-width:0.63474;stroke-linecap:round;stroke-linejoin:round;paint-order:stroke markers fill"
     d="m 16.671558,41.869956 c -2.377098,0.100325 -5.321277,0.21389 -6.8327156,2.350963 -1.315142,2.151126 -0.076639,4.828845 1.5974236,6.389024 4.448109,4.210173 10.568001,5.967977 16.413908,7.2222 3.574062,0.680534 7.242547,1.235707 10.860404,1.249096 0.377262,-2.696393 1.164566,-5.355351 2.574817,-7.709392 -0.32356,-0.784806 -1.421831,-1.102166 -2.105089,-1.61871 -6.388626,-3.691386 -13.221529,-7.213891 -20.694498,-7.833659 -0.603861,-0.03987 -1.209095,-0.0574 -1.81425,-0.04952 z"
     id="path9582"
     transform="translate(-5,-10)" />
</svg>
