<?xml version="1.0" encoding="UTF-8" standalone="no"?>
<svg
   version="1.1"
   x="0px"
   y="0px"
   viewBox="0 0 64 80"
   style="enable-background:new 0 0 64 64;"
   xml:space="preserve"
   id="svg32766"
   sodipodi:docname="chives.svg"
   inkscape:version="1.2.2 (b0a8486541, 2022-12-01)"
   xmlns:inkscape="http://www.inkscape.org/namespaces/inkscape"
   xmlns:sodipodi="http://sodipodi.sourceforge.net/DTD/sodipodi-0.dtd"
   xmlns="http://www.w3.org/2000/svg"
   xmlns:svg="http://www.w3.org/2000/svg"><defs
     id="defs32770"><inkscape:path-effect
       effect="fill_between_many"
       method="originald"
       linkedpaths="#path32760,0,1|"
       id="path-effect32889" /></defs><sodipodi:namedview
     id="namedview32768"
     pagecolor="#ffffff"
     bordercolor="#000000"
     borderopacity="0.25"
     inkscape:showpageshadow="2"
     inkscape:pageopacity="0.0"
     inkscape:pagecheckerboard="0"
     inkscape:deskcolor="#d1d1d1"
     showgrid="false"
     inkscape:zoom="9.85"
     inkscape:cx="32.030457"
     inkscape:cy="40"
     inkscape:window-width="1857"
     inkscape:window-height="1011"
     inkscape:window-x="0"
     inkscape:window-y="0"
     inkscape:window-maximized="1"
     inkscape:current-layer="svg32766" /><path
     inkscape:original-d="M 0,0"
     inkscape:path-effect="#path-effect32889"
     d="m 13.560927,6.3706441 0.308788,-0.080442 c 0.45482,-0.04843 0.911315,0.187757 1.113572,0.6025043 2.985684,5.4474511 5.276673,11.2558431 7.11439,17.1835251 1.434988,4.618208 2.552237,9.32885 3.479023,14.07341 0.961815,4.846554 1.945709,9.689774 2.895081,14.53957 -0.3811,-4.921742 -0.684014,-9.849358 -1.035364,-14.772808 -0.682932,-10.429409 -2.003703,-20.826725 -4.173851,-31.0534994 -0.07617,-0.4500108 -0.278841,-0.9359121 -0.0669,-1.3788433 0.256983,-0.5899439 1.08568,-0.8166971 1.607085,-0.437984 0.321867,0.2108655 0.430309,0.5993228 0.566602,0.9370422 3.734396,9.8144435 5.522343,20.2664035 6.262116,30.7099915 0.308643,4.560146 0.63966,9.118088 0.931877,13.680096 0.159969,-4.963654 0.403038,-9.923588 0.584003,-14.88546 0.373066,-10.001538 0.103745,-20.03019 -0.902561,-29.9900515 -0.103389,-0.7956104 0.834061,-1.4070096 1.536877,-1.059854 0.564186,0.2322888 0.641899,0.896893 0.782215,1.4123263 0.879173,3.3377419 1.478035,6.7400512 1.974659,10.1532922 -0.222095,-3.402625 -0.435978,-6.8061815 -0.798862,-10.197495 -0.104947,-0.5512195 0.2261,-1.1628733 0.793895,-1.2830086 0.581978,-0.1769743 1.232895,0.2259755 1.342842,0.8242064 1.797249,6.6532712 2.648964,13.5299102 2.98156,20.4028852 0.842503,-6.729776 2.255596,-13.411318 4.511719,-19.814842 0.112862,-0.3132453 0.220276,-0.6613069 0.5112,-0.8566728 0.496387,-0.3757129 1.288853,-0.194438 1.585083,0.3492246 0.170341,0.2829518 0.145935,0.625092 0.08805,0.9360938 -0.610661,3.2753282 -1.137242,6.5674044 -1.566757,9.8704284 0.7957,-3.571141 1.754993,-7.112429 3.01868,-10.5470069 0.258267,-0.7472982 1.347798,-0.8861885 1.829445,-0.2845373 0.412411,0.451797 0.202324,1.0826693 0.112011,1.6122847 -1.369053,7.4672475 -2.281166,15.0147535 -2.834419,22.5859355 -0.399166,5.459582 -0.543621,10.932528 -0.783669,16.400179 -0.164505,3.986477 -0.320797,7.972023 -0.488991,11.958252 -0.01548,0.844696 -0.580688,1.600693 -1.345397,1.933975 l -0.433205,0.112854 C 44.234333,60.136 43.395371,59.75305 42.915813,59.075968 c -0.472438,0.532536 -1.174358,0.879658 -1.896392,0.797195 -0.604821,-0.04053 -1.132477,-0.392246 -1.523011,-0.838871 -0.437736,0.429283 -1.019855,0.735535 -1.647201,0.710537 -0.706673,0.009 -1.352726,-0.389221 -1.763626,-0.946495 -0.392647,0.430825 -0.918328,0.768269 -1.515103,0.795704 -0.716186,0.07908 -1.416153,-0.266407 -1.875347,-0.805061 -0.417312,0.516964 -1.028419,0.902031 -1.708242,0.902786 -0.719713,0.03772 -1.393996,-0.348274 -1.828402,-0.903049 -0.276088,0.37751 -0.615356,0.730411 -1.064512,0.893318 -0.850035,0.362758 -1.909771,0.07355 -2.468968,-0.658875 C 25.240238,58.556914 25.175146,57.936129 25.05924,57.366022 24.110134,52.600706 23.156506,47.836565 22.205973,43.070414 21.154079,37.771433 20.115463,32.467783 18.797079,27.226147 17.240755,20.941315 15.420839,14.72032 13.28362,8.6073496 13.15379,8.2063429 12.967654,7.816384 12.920099,7.3927395 12.892809,6.954155 13.190977,6.5733099 13.560927,6.3706441 Z"
     id="path32891"
     class="UnoptimicedTransforms"
     style="fill:#008000" /><path
     d="M13.5609274,6.3706441l0.3087873-0.0804415c0.4548206-0.0484295,0.911315,0.187757,1.1135721,0.6025043  c2.9856844,5.4474506,5.2766733,11.2558432,7.1143904,17.1835251c1.434988,4.6182079,2.5522366,9.3288498,3.479023,14.07341  c0.9618149,4.8465538,1.9457092,9.6897736,2.8950806,14.5395699c-0.3810997-4.9217415-0.6840134-9.8493576-1.0353642-14.7728081  c-0.6829319-10.429409-2.0037022-20.826725-4.173851-31.0534992c-0.0761662-0.4500108-0.278841-0.9359121-0.0669022-1.3788433  c0.2569828-0.5899439,1.08568-0.8166971,1.6070843-0.437984c0.321867,0.2108655,0.4303093,0.5993228,0.5666027,0.9370422  c3.734396,9.8144436,5.5223427,20.2664032,6.2621155,30.7099915c0.3086433,4.5601463,0.6396599,9.1180878,0.9318771,13.6800957  c0.1599693-4.9636536,0.403038-9.9235878,0.5840034-14.8854599c0.3730659-10.0015373,0.1037445-20.0301895-0.9025612-29.9900513  c-0.1033897-0.7956104,0.8340607-1.4070096,1.5368767-1.059854c0.5641861,0.2322888,0.6418991,0.896893,0.7822151,1.4123263  c0.8791733,3.3377419,1.478035,6.7400513,1.974659,10.1532917c-0.2220955-3.4026241-0.4359779-6.806181-0.7988625-10.1974945  c-0.1049461-0.5512195,0.2261009-1.1628733,0.7938957-1.2830086c0.5819778-0.1769743,1.2328949,0.2259755,1.3428421,0.8242064  c1.7972488,6.6532707,2.6489639,13.5299101,2.9815598,20.4028854c0.8425026-6.7297764,2.2555962-13.4113178,4.5117188-19.8148422  c0.1128616-0.3132453,0.2202759-0.6613069,0.5112-0.8566728c0.4963875-0.3757129,1.2888527-0.194438,1.585083,0.3492246  c0.1703415,0.2829518,0.1459351,0.625092,0.0880508,0.9360938c-0.6106606,3.2753282-1.1372414,6.5674043-1.5667572,9.8704281  c0.7957001-3.5711412,1.7549934-7.1124287,3.0186806-10.5470066c0.2582664-0.7472982,1.3477974-0.8861885,1.8294449-0.2845373  c0.4124107,0.451797,0.2023239,1.0826693,0.112011,1.6122847c-1.3690529,7.467247-2.2811661,15.0147533-2.8344193,22.5859356  c-0.3991661,5.4595814-0.5436211,10.9325275-0.7836685,16.4001789c-0.164505,3.9864769-0.320797,7.972023-0.4889908,11.958252  c-0.01548,0.844696-0.5806885,1.6006927-1.3453979,1.9339752l-0.4332047,0.112854  c-0.8273888,0.1297836-1.6663513-0.2531662-2.1459084-0.9302483c-0.4724388,0.5325356-1.1743584,0.8796577-1.8963928,0.7971954  c-0.6048203-0.0405273-1.1324768-0.3922462-1.5230103-0.838871c-0.4377365,0.4292831-1.0198555,0.7355347-1.6472015,0.710537  c-0.7066727,0.0089569-1.352726-0.3892212-1.7636261-0.9464951c-0.3926468,0.4308243-0.9183273,0.7682686-1.5151024,0.7957039  c-0.7161865,0.0790749-1.416153-0.266407-1.8753471-0.8050613c-0.4173126,0.516964-1.0284195,0.9020309-1.7082424,0.9027863  c-0.7197132,0.0377159-1.3939953-0.3482742-1.8284016-0.9030495c-0.2760887,0.3775101-0.6153564,0.7304115-1.0645123,0.8933182  c-0.8500347,0.3627586-1.909771,0.073555-2.4689674-0.6588745c-0.3847713-0.4662437-0.4498634-1.0870285-0.5657692-1.657135  c-0.9491062-4.765316-1.9027348-9.5294571-2.8532677-14.2956085c-1.0518932-5.2989807-2.0905094-10.6026306-3.4088936-15.8442669  c-1.556324-6.284832-3.3762398-12.505827-5.5134592-18.6187973c-0.1298294-0.4010067-0.3159657-0.7909656-0.3635206-1.2146101  C12.8928089,6.954155,13.1909771,6.5733099,13.5609274,6.3706441z M15.1074724,10.313592  c2.6659002,7.9476595,4.8370123,16.0592422,6.5758104,24.2592926c1.59128,7.7589607,3.104763,15.534565,4.6731262,23.2982903  c0.0700626,0.4636803,0.5161419,0.822155,0.9828053,0.7960052c0.491539-0.0048485,0.9254951-0.4440155,0.9271851-0.9336357  c-0.0135651-0.3117142-0.0956326-0.6128311-0.1530628-0.9167404c-0.7821579-3.9065475-1.5609207-7.8139763-2.3408165-11.7211113  c-1.1169949-5.4607849-2.0761776-10.9602623-3.5433617-16.341898c-1.8225231-6.8012905-4.213583-13.4713821-7.4361525-19.7400589  c-0.0900221-0.1879215-0.175519-0.3770218-0.2655411-0.5649433C14.650033,9.0908394,14.9085798,9.6938419,15.1074724,10.313592z   M24.4985409,6.9986982c1.589777,7.6929216,2.7497997,15.4748487,3.4971466,23.295433  c0.4639072,4.7805939,0.7337704,9.5767097,1.0770035,14.3669968c0.2957535,4.2881165,0.5895386,8.5779495,0.8867168,12.8669014  c0.0058384,0.3330536,0.1577187,0.6703377,0.4511738,0.8463287c0.4180775,0.2788048,1.0413914,0.1538696,1.3136101-0.2709427  c0.2511482-0.3480644,0.1463642-0.7966576,0.1294346-1.1908379c-0.4114914-5.9332466-0.8173275-11.8679695-1.2265568-17.8018074  c-0.2903366-4.6011505-0.7065105-9.1985073-1.4400616-13.7530422C28.1898689,19.1144409,26.7234993,12.9245443,24.4985409,6.9986982  z M34.1959991,38.5904961c-0.2545738,6.2649918-0.5128365,12.5297356-0.764019,18.7938461  c-0.0434265,0.4545937,0.2646866,0.9094009,0.7119789,1.01754c0.5951805,0.1843529,1.2452316-0.3340569,1.2167244-0.9535027  c0.280529-6.8237419,0.5548172-13.6482697,0.8339233-20.472847c0.1979294-4.8225594,0.1658325-9.6564598-0.1801949-14.471384  c-0.4004173-5.385355-1.1482925-10.7599115-2.4960861-15.9938869  C34.5471153,17.1684418,34.6997566,27.8990517,34.1959991,38.5904961z M37.003006,6.6170645  c0.9428635,9.8507738,1.1682625,19.7664604,0.778759,29.6539078c-0.2820511,6.9570007-0.5638046,13.9151306-0.8506775,20.8721771  c-0.0521317,0.4628983-0.0198708,1.0318451,0.4382401,1.2881432c0.5945625,0.4091759,1.4912567-0.0804825,1.4750786-0.8009758  c0.2862701-6.9315262,0.5660019-13.8649712,0.8482933-20.7978783C40.0807076,26.7074356,39.4852905,16.4702282,37.003006,6.6170645z   M44.6023712,12.3832932c-2.1926346,8.2700195-3.2185249,16.8134422-3.5328789,25.352684  c-0.2638893,6.4703369-0.5237961,12.9420509-0.7902412,19.4118462c-0.009037,0.4057732-0.0982513,0.8747101,0.1953506,1.2088928  c0.3328552,0.4338722,1.0411835,0.4776306,1.4214249,0.0826492c0.2295647-0.2083664,0.2967415-0.5254135,0.3003349-0.8222733  c0.1112518-2.8323975,0.2295876-5.6654282,0.344532-8.4975777c0.2376404-5.4815178,0.4091911-10.9663544,0.7055435-16.4450531  c0.4968567-8.6036911,1.4776192-17.1812572,2.9922752-25.6660004C45.6205482,8.7759361,45.0888672,10.5740252,44.6023712,12.3832932  z M48.958683,9.4886036c-2.1918678,7.1694698-3.42062,14.6049995-4.0347595,22.0676346  c-0.2757645,3.3414822-0.3773613,6.6931515-0.5183907,10.041811c-0.2142029,5.2422981-0.4261436,10.484005-0.6414757,15.7266006  c-0.0111961,0.3882179-0.0881538,0.8346367,0.1846466,1.158535c0.3319168,0.4534416,1.0643387,0.4969635,1.446701,0.086937  c0.2985764-0.2819061,0.285202-0.7180786,0.2990494-1.0961189c0.1634789-4.1480637,0.3377266-8.2965126,0.5045967-12.4454575  c0.2354088-5.4205437,0.3794518-10.8486938,0.8046188-16.2594872c0.5374374-7.1914196,1.4397316-14.3546886,2.6865158-21.4567184  C49.393528,8.0189104,49.1981583,8.7619028,48.958683,9.4886036z"
     id="path32760"
     class="UnoptimicedTransforms" /></svg>
