<?xml version="1.0" encoding="UTF-8" standalone="no"?>
<svg
   viewBox="0 0 100 125"
   x="0px"
   y="0px"
   version="1.1"
   id="svg38857"
   sodipodi:docname="coriander.svg"
   inkscape:version="1.2.2 (b0a8486541, 2022-12-01)"
   xmlns:inkscape="http://www.inkscape.org/namespaces/inkscape"
   xmlns:sodipodi="http://sodipodi.sourceforge.net/DTD/sodipodi-0.dtd"
   xmlns="http://www.w3.org/2000/svg"
   xmlns:svg="http://www.w3.org/2000/svg"
   xmlns:rdf="http://www.w3.org/1999/02/22-rdf-syntax-ns#"
   xmlns:cc="http://creativecommons.org/ns#"
   xmlns:dc="http://purl.org/dc/elements/1.1/">
  <defs
     id="defs38861" />
  <sodipodi:namedview
     id="namedview38859"
     pagecolor="#ffffff"
     bordercolor="#000000"
     borderopacity="0.25"
     inkscape:showpageshadow="2"
     inkscape:pageopacity="0.0"
     inkscape:pagecheckerboard="0"
     inkscape:deskcolor="#d1d1d1"
     showgrid="false"
     inkscape:zoom="6.304"
     inkscape:cx="50.047589"
     inkscape:cy="62.5"
     inkscape:window-width="1857"
     inkscape:window-height="1011"
     inkscape:window-x="0"
     inkscape:window-y="0"
     inkscape:window-maximized="1"
     inkscape:current-layer="svg38857" />
  <title
     id="title38849">leaves</title>
  <path
     d="m 78.27,82.43 c 1.32,1.45 3.19,2.59 4,1.51 0.81,-1.08 0,-1.81 -1.2,-3.61 -1.2,-1.8 0.42,-0.78 1.14,-0.54 0.72,0.24 1.26,0.18 2.47,-1.26 1.21,-1.44 -0.48,-3 -0.48,-3 0,0 -1.39,-1 -0.54,-1.51 0.85,-0.51 1,-0.81 0.9,-1.47 -0.1,-0.66 -0.74,-1.44 -2.83,-1.06 -1.66,0.3 -1.57,-1 0.66,-2.59 2.23,-1.59 0.4,-3.39 -0.78,-3 -1.18,0.39 -1.79,-0.18 -1.45,-1.2 0.27,-0.79 -0.41,-1.42 -1.1,-0.48 -0.69,0.94 -2.7,2.11 -3.66,2.83 -0.96,0.72 -3,0.54 -4.46,0.48 -1.46,-0.06 0.9,-2.23 4.52,-2.83 3.62,-0.6 2.53,-1.45 1.51,-2 -1.02,-0.55 -0.12,-1.69 -0.12,-1.69 1.93,-2.29 -0.24,-3.13 -1.14,-3.31 -0.9,-0.18 -1.87,1.26 -2.11,0.9 -0.24,-0.36 1.2,-1.93 -0.06,-3 -1.26,-1.07 -2.53,0.6 -3.91,2.11 -1.38,1.51 -2.35,1.14 -2.65,0.84 -0.3,-0.3 0.12,-1.45 0.66,-2.11 0.54,-0.66 0.78,-1.75 -0.3,-2.23 -1.08,-0.48 -3.31,0.9 -4,2 -0.69,1.1 -1.45,0.72 -1.17,-0.57 0.28,-1.29 -0.93,-0.81 -1.42,-0.21 -0.49,0.6 -2.12,2.57 -2.12,2.57 -3.25,3.49 -10.28,2.9 -13.19,2 -1.93,-0.6 0,-3.18 0,-3.18 5.56,-6.24 7.89,-4.82 10.78,-6.51 2.89,-1.69 10.18,-1 14,1.32 3.82,2.32 5.73,4.19 6.62,3.73 0.89,-0.46 0.24,-1.32 -0.12,-2.17 -0.36,-0.85 0.26,-0.48 2.47,1 2.38,1.62 3.18,0.83 4,-0.18 C 84.01,53 83.67,51.36 82.08,50.22 81.173768,49.667844 80.450312,48.860912 80,47.9 c -0.18,-0.42 -0.12,-0.6 2.61,0.09 1.308732,0.35499 2.647971,0.586009 4,0.69 h 0.32 c 4.22,-0.57 0.6,-2.88 0.6,-2.88 0,0 -1.84,-1.25 0.45,-1.2 2.29,0.05 3,0 3.91,-1.23 0.79,-1.07 0.7,-4.22 -1.2,-4 -1.9,0.22 -0.66,-1 -0.66,-1 2.11,-2 -1.32,-1.69 -1.32,-1.69 -1.170829,0.183223 -2.320048,0.484767 -3.43,0.9 -0.54,0.22 -1.29,0.36 -1.32,-0.4 -0.03,-0.76 0.81,-1 0.89,-1.67 0.02535,-0.469035 -0.161986,-0.924527 -0.51,-1.24 -0.274099,-0.26185 -0.62425,-0.429922 -1,-0.48 -0.355289,-0.009 -0.704633,0.09234 -1,0.29 -1.77,1 -3,2.22 -5,2.78 -1.951723,0.623797 -3.962219,1.046001 -6,1.26 -2.3,0.22 1,-3.88 1.59,-4.62 0.06293,-0.07673 0.13327,-0.147071 0.21,-0.21 1.237691,-0.949327 2.622754,-1.689154 4.1,-2.19 2.036735,-0.593519 4.191018,-0.658904 6.26,-0.19 1.26,0.14 2.47,1 4.26,1.35 3.2,0.62 0.76,-2 0.52,-2.17 -0.51,-0.46 -1.37,-1 -1,-1.76 0.43,-0.93 1,0.37 2.54,0 1.19,-0.3 1.61,-1.61 1.67,-2.76 0.06,-1.15 -1.49,-2.68 -2.75,-2.76 -2,-0.14 -3.7,0.68 -4.76,0.42 -1.06,-0.26 -0.3,-1.16 0.26,-1.32 0.56,-0.16 3.18,-0.18 4.5,-0.42 1.166116,-0.16409 2.085551,-1.075389 2.26,-2.24 0,-0.84 -1.17,-1.64 -2.71,-1.87 -1.25,-0.18 0,-1.08 0,-1.08 1.72,-1.21 0.06,-3.43 -0.42,-4 v 0 L 87.8,12.24 87.74,12.17 v 0 c -0.58,-0.48 -2.8,-2.14 -4,-0.42 0,0 -0.9,1.25 -1.08,0 C 82.39,10.2 81.59,9 80.75,9 c -1.151346,0.1750301 -2.05497,1.078654 -2.23,2.23 -0.24,1.32 -0.23,3.85 -0.42,4.5 -0.19,0.65 -1,1.45 -1.32,0.26 C 76.46,14.8 77.34,13.2 77.2,11.23 77.11,9.97 75.63,8.46 74.49,8.52 73.35,8.58 72,9 71.73,10.22 c -0.38,1.5 0.91,2.11 0,2.54 -0.71,0.33 -1.29,-0.53 -1.76,-1 -0.22,-0.24 -2.79,-2.68 -2.17,0.52 0.35,1.79 1.21,3 1.35,4.26 0.468904,2.068982 0.403519,4.223265 -0.19,6.26 -0.500846,1.477246 -1.240673,2.862309 -2.19,4.1 -0.06293,0.07673 -0.13327,0.147071 -0.21,0.21 -0.74,0.61 -4.84,3.89 -4.62,1.59 0.213999,-2.037781 0.636203,-4.048277 1.26,-6 0.56,-2 1.81,-3.24 2.78,-5 0.19766,-0.295367 0.29897,-0.644711 0.29,-1 -0.05008,-0.37575 -0.21815,-0.725901 -0.48,-1 -0.315473,-0.348014 -0.770965,-0.535353 -1.24,-0.51 -0.64,0.08 -1,0.92 -1.67,0.89 -0.67,-0.03 -0.62,-0.79 -0.4,-1.32 0.415233,-1.109952 0.716777,-2.259171 0.9,-3.43 0,0 0.3,-3.43 -1.69,-1.32 0,0 -1.25,1.37 -1,-0.66 0.25,-2.03 -2.94,-2 -4,-1.2 C 55.42,9 55.35,9.64 55.41,12 c 0.06,2.36 -1.2,0.45 -1.2,0.45 0,0 -2.31,-3.61 -2.88,0.6 -0.0098,0.10644 -0.0098,0.21356 0,0.32 0.103991,1.352029 0.33501,2.691268 0.69,4 0.69,2.73 0.51,2.79 0.09,2.61 C 51.129721,19.51857 50.310912,18.772931 49.76,17.84 48.61,16.31 46.87,16 46,16.79 c -0.87,0.79 -1.8,1.65 -0.18,4 1.51,2.21 1.87,2.83 1,2.47 -0.87,-0.36 -1.78,-0.88 -2.17,-0.12 -0.39,0.76 1.35,2.86 3.71,6.66 2.36,3.8 3,11.08 1.32,14 -1.68,2.92 -0.26,5.2 -6.46,10.74 0,0 -2.58,1.95 -3.18,0 -0.91,-2.91 -1.51,-9.94 2,-13.19 0,0 1.81,-1.69 2.41,-2.17 0.6,-0.48 1.08,-1.69 -0.21,-1.42 -1.29,0.27 -1.72,-0.51 -0.57,-1.17 1.15,-0.66 2.53,-2.89 2,-4 -0.53,-1.11 -1.57,-0.84 -2.23,-0.3 -0.66,0.54 -1.81,1 -2.11,0.66 -0.3,-0.34 -0.66,-1.26 0.84,-2.65 1.5,-1.39 3.13,-2.65 2.11,-3.91 -1.02,-1.26 -2.59,0.18 -3,-0.06 -0.41,-0.24 1.08,-1.2 0.9,-2.11 -0.18,-0.91 -1,-3.07 -3.31,-1.14 0,0 -1.14,0.9 -1.69,-0.12 -0.55,-1.02 -1.39,-2.11 -2,1.51 -0.61,3.62 -2.77,6 -2.83,4.52 -0.06,-1.48 -0.24,-3.49 0.48,-4.46 0.72,-0.97 2,-3 2.83,-3.66 0.83,-0.66 0.31,-1.36 -0.48,-1.1 -1,0.34 -1.64,-0.27 -1.2,-1.45 0.44,-1.18 -1.32,-3 -3,-0.78 -1.68,2.22 -2.89,2.33 -2.59,0.66 0.38,-2.09 -0.4,-2.77 -1.06,-2.83 -0.66,-0.06 -1,0.06 -1.47,0.9 -0.47,0.84 -1.51,-0.54 -1.51,-0.54 0,0 -1.57,-1.69 -3,-0.48 -1.43,1.21 -1.35,1.75 -1.13,2.51 0.22,0.76 1.26,2.35 -0.54,1.14 -1.8,-1.21 -2.53,-2 -3.61,-1.2 -1.08,0.8 0.06,2.71 1.51,4 1.45,1.29 3.13,3.13 2.71,3.91 -0.42,0.78 -2.2,0.51 -3.37,-1 -1.17,-1.51 -2.12,-2.81 -3,-2.35 -0.88,0.46 0,2.47 -0.95,1.87 -1.54,-1 -3.57,-0.72 -2.48,1.57 0.308354,0.47984 0.670722,0.922734 1.08,1.32 0.36,0.24 0.72,0.48 -0.12,0.6 -0.84,0.12 -2.68,0.17 -1,1.57 1.122844,0.734958 2.288216,1.402793 3.49,2 0.72,0.24 1.2,0.6 0.12,0.72 -1.08,0.12 -2.41,0.36 -2.77,0.84 -0.36,0.48 1.2,2 2.71,2.71 1.51,0.71 4.22,1 5.24,1.75 2.084137,1.2902 3.911563,2.954887 5.39,4.91 2.62,3.35 -8.64,-4.42 -9.18,-4.84 -0.54,-0.42 -3.73,-1.72 -2.17,1.08 0,0 1.14,1.75 -1.63,0.3 -0.654796,-0.42632 -1.343824,-0.797592 -2.06,-1.11 -0.55,-0.11 -0.86,0.18 -0.55,0.79 0.31,0.61 -0.06,1.39 -0.7,0.75 -1.08,-1.06 -1.35,1.63 0.28,3 0.2,0.16 0.66,0.43 0,0.61 -1.24,0.35 -1.6,1.29 0.85,1.79 2.76,0.57 4.58,1.08 3,1.57 -1.58,0.49 -3,-0.36 -2.71,0.54 0.548264,1.479825 1.78356,2.599429 3.31,3 2,0.6 0.78,0.3 0.42,0.78 -0.36,0.48 -0.37,1.44 2.13,0.81 2.5,-0.63 3.47,-0.39 3.71,0 0.24,0.39 -0.06,0.9 -1,1.32 -0.94,0.42 -2.41,0.84 -2.17,1.45 0.24,0.61 1.69,1 2.53,0.6 1,-0.43 0.06,0.74 0.41,1.19 0.213331,0.270759 0.577586,0.371941 0.9,0.25 0.536693,-0.09017 1.04215,-0.313674 1.47,-0.65 0.277812,-0.261977 0.624815,-0.438949 1,-0.51 0.0847,-0.01085 0.170372,0.01057 0.24,0.06 0.13,0.11 0.09,0.31 0,0.46 -0.09,0.15 -0.79,1.23 -0.56,1.49 0.23,0.26 1.44,-0.19 1.7,-0.25 3.905636,-0.638102 7.906105,0.273215 11.15,2.54 0.580358,0.380985 0.860161,1.084491 0.7,1.76 C 35.4,62.11 8.4123965,89.797332 6.8923965,91.237332 l 0.56,0.52 0.52,0.56 C 9.8536005,90.625399 36.810066,64.968572 39.23,64.23 c 0.603659,-0.09835 1.21022,0.158272 1.56,0.66 2.352556,3.256707 3.323012,7.311056 2.7,11.28 -0.06,0.25 -0.52,1.46 -0.25,1.7 0.27,0.24 1.26,-0.48 1.49,-0.56 0.23,-0.08 0.36,-0.1 0.46,0 0.04943,0.06963 0.07085,0.155304 0.06,0.24 -0.07105,0.375185 -0.248023,0.722188 -0.51,1 -0.365682,0.412729 -0.620338,0.911716 -0.74,1.45 -0.06293,0.26639 0.01653,0.546371 0.21,0.74 0.45,0.34 1.61,-0.59 1.19,0.41 -0.36,0.84 0,2.29 0.6,2.53 0.6,0.24 1,-1.26 1.45,-2.17 0.45,-0.91 1,-1.2 1.32,-1 0.32,0.2 0.6,1.2 0,3.71 -0.6,2.51 0.33,2.5 0.81,2.13 0.48,-0.37 0.18,-1.63 0.78,0.42 0.400571,1.52644 1.520175,2.761736 3,3.31 0.9,0.3 0.06,-1.14 0.54,-2.71 0.48,-1.57 1,0.25 1.57,3 0.5,2.45 1.45,2.09 1.79,0.85 0.18,-0.64 0.45,-0.18 0.61,0 1.32,1.62 4,1.35 3,0.28 -0.64,-0.65 0.29,-0.94 0.75,-0.7 0.46,0.24 0.9,0 0.79,-0.55 -0.312408,-0.716176 -0.68368,-1.405204 -1.11,-2.06 -1.45,-2.77 0.3,-1.63 0.3,-1.63 2.8,1.57 1.51,-1.63 1.08,-2.17 -0.43,-0.54 -8.19,-11.8 -4.84,-9.18 1.955113,1.478437 3.6198,3.305863 4.91,5.39 0.78,1 1.08,3.73 1.75,5.24 0.67,1.51 2.23,3.07 2.71,2.71 0.48,-0.36 0.72,-1.69 0.84,-2.77 0.12,-1.08 0.48,-0.6 0.72,0.12 0.597207,1.201784 1.265042,2.367156 2,3.49 1.4,1.72 1.45,-0.12 1.57,-1 0.12,-0.88 0.36,-0.48 0.6,-0.12 0.397266,0.409278 0.84016,0.771646 1.32,1.08 2.29,1.08 2.56,-0.95 1.57,-2.48 -0.6,-0.93 1.47,-0.22 1.87,-0.95 0.4,-0.73 -0.87,-1.78 -2.35,-3 -1.48,-1.22 -1.75,-3 -1,-3.37 0.75,-0.37 2.59,1.45 3.92,2.88 z"
     id="path38851"
     sodipodi:nodetypes="csssscsscsscssssscsssssssssscccsssscsccccccscscccsccccccccccccccscssccccscccsccccsscsccccccccccccccscccscsccccccscsssscccsssssssssscssssscsscsscsssssssscccsccsssccscccsccccsccsssssccccccsscccccccccssccccccsssssccsccccscccsccsssccscccsssc"
     style="fill:#00aa00;stroke:#000000;stroke-width:2.8;stroke-dasharray:none;paint-order:stroke markers fill;stroke-linecap:round;stroke-linejoin:round" />
  <metadata
     id="metadata39359">
    <rdf:RDF>
      <cc:Work
         rdf:about="">
        <dc:title>leaves</dc:title>
      </cc:Work>
    </rdf:RDF>
  </metadata>
</svg>
