<?xml version="1.0" encoding="UTF-8" standalone="no"?>
<svg
   xml:space="preserve"
   version="1.1"
   style="shape-rendering:geometricPrecision;text-rendering:geometricPrecision;image-rendering:optimizeQuality;"
   viewBox="0 0 60000 75000"
   x="0px"
   y="0px"
   fill-rule="evenodd"
   clip-rule="evenodd"
   id="svg27231"
   sodipodi:docname="cornflower.svg"
   inkscape:version="1.2.2 (b0a8486541, 2022-12-01)"
   xmlns:inkscape="http://www.inkscape.org/namespaces/inkscape"
   xmlns:sodipodi="http://sodipodi.sourceforge.net/DTD/sodipodi-0.dtd"
   xmlns:xlink="http://www.w3.org/1999/xlink"
   xmlns="http://www.w3.org/2000/svg"
   xmlns:svg="http://www.w3.org/2000/svg"><sodipodi:namedview
     id="namedview27233"
     pagecolor="#ffffff"
     bordercolor="#000000"
     borderopacity="0.25"
     inkscape:showpageshadow="2"
     inkscape:pageopacity="0.0"
     inkscape:pagecheckerboard="0"
     inkscape:deskcolor="#d1d1d1"
     showgrid="false"
     inkscape:zoom="0.01"
     inkscape:cx="25650"
     inkscape:cy="36500"
     inkscape:window-width="1857"
     inkscape:window-height="1011"
     inkscape:window-x="0"
     inkscape:window-y="0"
     inkscape:window-maximized="1"
     inkscape:current-layer="svg27231" /><defs
     id="defs27221"><linearGradient
       inkscape:collect="always"
       id="linearGradient31194"><stop
         style="stop-color:#27a66a;stop-opacity:1;"
         offset="0"
         id="stop31188" /><stop
         style="stop-color:#5f00f4;stop-opacity:1;"
         offset="0.64254344"
         id="stop31190" /><stop
         style="stop-color:#00a9ff;stop-opacity:1;"
         offset="1"
         id="stop31192" /></linearGradient><style
       type="text/css"
       id="style27219">
   
    .fil0 {fill:black;fill-rule:nonzero}
   
  </style><linearGradient
       inkscape:collect="always"
       xlink:href="#linearGradient31194"
       id="linearGradient31186"
       x1="30745.822"
       y1="17588.65"
       x2="30271.25"
       y2="9640.2529"
       gradientUnits="userSpaceOnUse"
       gradientTransform="matrix(1.0873,0,0,1.0873,1077.8693,-141.5969)" /></defs><g
     id="g27225"
     transform="matrix(1.0873,0,0,1.0873,-5031.6333,2164.2493)"><path
       id="path27223"
       class="fil0"
       d="m 31405.699,655.26035 c -235.37,36.07992 -438.759,172.36917 -592.779,382.46875 -125.53,171.2296 -218.952,397.3406 -265.9,656.9102 -42.23,233.4494 -48.08,495.011 -6.42,766.7304 7.94,51.78 17.141,104.0502 27.451,156.6602 -333.83,-270.1094 -664.532,-449.97 -1037.182,-652.5996 -220.15,-119.6998 -456.47,-248.2014 -721.76,-415.041 -422.838,-265.9196 -768.691,-327.3188 -1043.839,-192.3692 -293.91,144.1798 -434.97,459.53 -433.61,939.209 0.25,90.4798 -3.049,190.7314 -6.349,290.9512 -10.69,324.2492 -21.312,648.5314 64.558,1008.3906 -283.26,-77.0698 -571.13,-129.3408 -855.978,-181.0508 -701.69,-127.3998 -1381.523,-250.9117 -1779.801,-792.2207 -32.95,-81.7798 -59.811,-162.5388 -85.901,-241.0586 -185.038,-556.7388 -349.1,-1050.2502 -1084.478,-822.5508 -130.3,40.34 -260.191,104.591 -380.051,215.0508 -113.33,104.4498 -212.73,245.8003 -286.59,441.3399 l 0.321,0.1191 c -4.92,13.13 -9.221,26.6298 -12.821,40.5098 -325.538,1260.8074 173.822,2169.1514 954.76,2820.58 422.5,352.4194 926.542,622.6901 1417,829.1797 -375.17,173.9098 -731.121,367.5714 -1070.381,604.461 -630.858,440.479 -1191.1,1019.692 -1686.398,1877.1504 -17.98,31.1198 -47.102,87.7397 -81.352,162.4297 -83.27,181.6096 -199.609,481.1402 -243.029,768.9296 -59.45,394.0192 4.921,779.752 367.279,989.07 17.68,10.22 39.312,21.22 65.012,33 257.76,118.2 516.881,23.13 902.199,-118.23 95.58,-35.07 199.701,-73.279 256.811,-93.129 532.848,-185.2396 909.459,-523.3808 1329.459,-900.5 362.038,-325.0694 761.341,-683.5412 1330.439,-966.1406 -328.15,391.2992 -578.98,856.4205 -646.43,1391.2695 -2.9,23.01 -2.568,18.8996 -8.638,65.4394 -63.87,490.4797 -148.011,1136.6117 452.219,1614.0897 l 0.22,-0.269 c 5.51,4.38 11.161,8.639 16.971,12.769 320.52,227.4 557.28,115.78 768.26,-181.58 75.34,-106.21 142.489,-242.82 216.609,-393.67 54.28,-110.46 113.181,-230.319 180.231,-342.359 155.078,-259.13 593.711,-450.9004 1024.019,-639.01 237.34,-103.7598 472.59,-206.6009 677.18,-323.9707 152.52,-87.4898 368.389,-216.4705 584.609,-345.6601 158.42,-94.6598 317.141,-189.4688 476.151,-281.8086 383.678,-215.9096 798.2,-266.7203 1183.15,-225.3203 555.698,59.7598 1039.301,302.7292 1291.391,525.2988 1228.266,1084.4279 -42.442,3338.3249 -957.17,4960.7909 l -52.121,92.44 -10.79,24.589 c -135.468,308.52 -240.649,635.34 -311.339,975.93 -69.41,334.31 -106.032,678.602 -106.032,1028.4 0,1293.518 488.393,2467.514 1277.981,3319.862 725.588,783.248 1703.773,1294.499 2791.961,1380.039 485.218,2286.556 754.279,4469.785 859.269,6527.099 124.51,2439.726 18.809,4709.504 -230.131,6768.92 -913.488,7556.886 -7217.123,12754.84 -13966.339,17252.952 1115.836,-1575.688 1748.072,-3193.043 2015.8,-4868.491 389.29,-2436.094 2.028,-4976.306 -789.07,-7680.82 -529.158,-1808.986 -1001.449,-3676.444 -1145.359,-5881.18 -143.65,-2200.614 39.08,-4745.195 817.34,-7917.349 283.648,-838.758 202.959,-1453.983 -47.391,-1814.201 -123.6,-177.83 -287.181,-299.04 -474.381,-362.61 -182.63,-62 -381.55,-65.58 -581.26,-9.92 -428.028,119.31 -871.769,527.973 -1113.449,1229.221 -3.46,10.1 -6.489,20.248 -9.109,30.408 -538.56,1610.378 -999.202,3426.554 -1349.352,5316.82 -705.008,3805.904 -962.598,7919.367 -507.83,11265.991 468.87,3450.382 1703.277,6112.692 3991.951,6880.47 48.87,16.4 98.221,31.919 148.071,46.549 -524.48,1833.676 -1581.904,3602.965 -3364,5336.291 -584.93,375.48 -1168.873,747.341 -1748.561,1116.401 -2375.196,1512.166 -4680.714,2979.973 -6704.15,4476.849 -110.045,81.591 1087.161,1137.107 1679.871,1539.532 344.914,234.181 484.913,-469.7 539.888,-472.17 -142.763,-56.172 -1269.857,-940.239 -1111.375,-1057.745 2009.716,-1486.736 3665.531,-2313.141 6023.885,-3814.587 585.74,-372.9 1175.732,-748.63 1766.75,-1128.03 13.4,-7.54 26.461,-15.899 39.111,-25.109 7724.116,-4960.23 15620.181,-10575.69 16682.719,-19365.512 253.25,-2095.116 360.53,-4409.133 233.25,-6903.299 -105.01,-2057.456 -369.369,-4232.774 -842.719,-6502.56 1022.778,-121.45 1939.871,-619.991 2629.071,-1363.959 789.588,-852.348 1277.978,-2026.344 1277.978,-3319.862 0,-349.798 -36.619,-694.09 -106.029,-1028.4 -70.69,-340.59 -175.87,-667.41 -311.34,-975.93 l -10.801,-24.589 -52.109,-92.44 c -914.728,-1622.466 -2185.438,-3876.363 -957.17,-4960.7909 252.09,-222.5696 735.691,-465.539 1291.391,-525.2988 384.948,-41.4 799.47,9.4107 1183.148,225.3203 159.01,92.3398 317.731,187.1488 476.151,281.8086 216.218,129.1896 432.081,258.1703 584.611,345.6601 204.58,117.3598 439.84,220.2109 677.18,323.9707 430.308,188.1096 868.939,379.88 1024.019,639.01 67.04,112.04 125.951,231.901 180.231,342.371 74.118,150.83 141.249,287.45 216.609,393.67 206.68,291.27 438.11,404.279 748.74,195.029 12.56,-7.88 24.829,-16.511 36.709,-25.961 600.23,-477.478 516.091,-1123.61 452.221,-1614.0897 -6.07,-46.5398 -5.741,-42.4294 -8.641,-65.4394 -67.45,-534.849 -318.281,-999.9703 -646.429,-1391.2695 569.108,282.5994 968.401,641.0712 1330.441,966.1406 420,377.1192 796.609,715.2604 1329.459,900.5 57.11,19.85 161.232,58.059 256.81,93.129 385.32,141.36 644.44,236.43 902.2,118.23 25.7,-11.78 47.329,-22.78 65.009,-33 362.37,-209.348 426.712,-595.0508 367.282,-989.07 -43.42,-287.7894 -159.762,-587.32 -243.032,-768.9296 -34.25,-74.69 -63.369,-131.3099 -81.349,-162.4297 -495.3,-857.4584 -1055.541,-1436.6714 -1686.401,-1877.1504 -339.258,-236.8896 -695.21,-430.5512 -1070.378,-604.461 490.458,-206.4896 994.5,-476.7603 1417,-829.1797 776.578,-647.7886 1274.568,-1549.6916 960,-2799.539 -4.2,-20.68 -10.071,-41.2901 -17.741,-61.6699 -73.86,-195.5396 -173.26,-336.8901 -286.59,-441.3399 -119.858,-110.4598 -249.75,-174.7108 -380.05,-215.0508 -735.38,-227.6994 -899.441,265.812 -1084.481,822.5508 -26.09,78.5198 -52.948,159.2788 -85.898,241.0586 -398.28,541.309 -1078.113,664.8209 -1779.801,792.2207 -284.85,51.71 -572.722,103.981 -855.98,181.0508 85.868,-359.8592 75.25,-684.1414 64.56,-1008.3906 -3.3,-100.2198 -6.6,-200.4714 -6.35,-290.9512 1.36,-479.679 -139.701,-795.0292 -433.611,-939.209 -275.15,-134.9496 -621,-73.5504 -1043.84,192.3692 -265.298,166.8496 -501.611,295.3412 -721.759,415.041 -372.65,202.6296 -703.36,382.5502 -1037.18,652.5996 10.31,-52.61 19.509,-104.8802 27.449,-156.6602 41.66,-271.7294 35.81,-533.281 -6.42,-766.7304 -46.95,-259.5696 -140.368,-485.6806 -265.898,-656.9102 -154.02,-210.09958 -357.412,-346.38883 -592.782,-382.46875 -83.068,-12.73998 -170.969,-11.39996 -263.019,5.25 -259.39,46.9299 -529.772,230.63111 -729.32,482.14065 -176.31,222.1996 -308.95,508.07 -338.08,806.1894 -68.86,704.6786 -398.1,1022.8711 -762.79,1375.3203 -93.328,90.2 -188.521,182.2098 -283.371,281.2696 -127.958,-750.9186 -476.029,-1152.8604 -851.129,-1585.7696 -79.888,-92.1998 -161.27,-186.1211 -248.58,-296.2109 -16.37,-20.64 -22.871,-29.2293 -66.211,-84.2793 -130.578,-165.7996 -220.119,-279.4998 -323.039,-360.2598 -453.138,-355.6592 -601.56,-175.3697 -1058.41,406.6993 -92.91,118.3696 -176.369,214.9901 -258.599,310.1699 -378.16,437.719 -735.091,851.1125 -866.911,1612.4609 -95.738,-100.1298 -191.85,-193.0303 -286.07,-284.0801 -364.688,-352.4492 -693.931,-670.6417 -762.791,-1375.3203 -29.13,-298.1194 -161.77,-583.9898 -338.08,-806.1894 -199.54,-251.49954 -469.93,-435.21075 -729.318,-482.14065 -92.04,-16.64996 -179.952,-17.98998 -263.022,-5.25 z m 122.401,789.62895 c 67.69,12.2398 159.279,86.6808 244.939,194.6406 89.59,112.9098 156.22,250.2609 169.32,384.3105 97.73,1000.008 527.442,1415.3113 1003.43,1875.3203 301.28,291.1594 625.612,604.6106 850.352,1149.1094 83.7,203.6496 316.658,300.8893 520.308,217.1895 167.26,-68.75 262.711,-238.1798 245.121,-409.3594 l 0.2,-0.019 c -143.72,-1369.5874 256.87,-1833.311 693.24,-2338.42 471.621,-695.9495 108.765,-714.6948 748.599,23.8789 432.09,498.679 818.51,944.6637 674.76,2314.5411 -22.43,219.1894 137.06,415.0799 356.25,437.5097 185.13,18.94 353.631,-91.8917 415.041,-258.8613 224.51,-536.149 545.92,-846.8388 844.69,-1135.5684 475.988,-460.009 905.699,-875.3123 1003.429,-1875.3203 13.1,-134.0496 79.731,-271.4007 169.321,-384.3105 85.66,-107.9598 177.239,-182.4008 244.939,-194.6406 0.87,-0.15 0.411,0.5002 3.641,0.9902 15.85,2.43 39.611,25.3105 67.781,63.7305 56.65,77.2698 100.589,189.1206 125.279,325.6504 26.56,146.8196 29.03,319.1998 0.18,507.3496 -107.49,700.9586 -507.71,1565.2411 -751.59,2091.9101 -106.85,230.7296 -186.62,403.0002 -217.5,516.25 -57.81,212.2796 67.41,431.2605 279.69,489.0703 180.578,49.18 365.981,-34.1202 452.919,-190.75 l 0.211,0.1192 c 1011.568,-1819.1064 1598.771,-2138.4003 2417.879,-2583.7793 234.35,-127.4198 485.912,-264.2114 765.5,-440.041 170.25,-107.0698 258.57,-156.78 268.84,-151.75 8.51,4.17 -12.839,71.6802 -13.269,223.5898 -0.32,113.4898 3.019,214.7314 6.349,315.9512 15.38,466.549 30.75,933.1406 -413.01,1546.4394 -129.438,178.6296 -89.569,428.3807 89.061,557.8203 141.23,102.3398 326.911,98.8197 462.439,4.5899 l 0.07,0.1 c 453.228,-315.7594 1028.591,-420.2387 1590.359,-522.2285 881.918,-160.1198 1735.851,-315.1821 2318.981,-1156.3203 15.57,-22.55 28.499,-46.1406 38.849,-70.4004 l 0.211,0.09 c 45.31,-106.4198 84.941,-225.6095 123.301,-341.0293 54.17,-162.9796 85.5,-312.6308 93.84,-310.0508 26.95,8.34 52.648,20.5508 73.808,40.0508 25.34,23.35 50.251,60.6594 73.801,118.4492 217.49,878.7484 -141.492,1519.6906 -698.23,1984.0996 -617.87,515.399 -1478.592,836.0108 -2129.92,1028.0704 -211.42,62.1298 -332.441,283.8909 -270.311,495.3105 39.07,132.9498 141.261,230.1297 264.311,268.5195 683.058,263.5796 1298.05,527.2602 1842.42,907.3594 538.498,375.9892 1020.091,876.2427 1452.041,1624.0313 10.49,18.1598 27.348,50.8996 46.968,93.6894 61.27,133.6298 146.601,352.2301 177.411,556.4297 14.77,97.9698 25.969,178.1695 23.339,179.6895 l -0.119,0.07 c -41.42,12.44 -96.16,-72.8099 -292.09,-144.6797 -65.228,-23.93 -136.45,-50.0702 -269.31,-96.25 -378.83,-131.6898 -699.722,-419.8114 -1057.58,-741.1406 -749.908,-673.3388 -1640.393,-1472.8792 -3622.289,-1648.9688 -219.19,-18.98 -412.282,143.3104 -431.262,362.5 -14.47,167.0496 76.373,318.9287 217.441,390.1387 l -0.25,0.4902 c 375.36,190.3996 911.229,526.9821 1313.309,983.7813 262.93,298.7194 465.581,646.73 514.041,1030.9492 l 8.641,68.5605 c 21.66,166.3498 47.169,362.2598 21.879,537.1198 -55.35,-112.05 -115.009,-229.719 -181.389,-340.639 -286.41,-478.5894 -843.301,-722.0515 -1389.641,-960.8909 -210.418,-91.9898 -419.02,-183.1909 -599.06,-286.4707 -232.75,-133.5098 -402.23,-234.7795 -572.11,-336.2793 -152.098,-90.8798 -304.44,-181.8896 -457.33,-271.1094 l -8.381,-4.8906 c -1081.336,-630.4688 -2190.57,-1169.2008 -3440.058,-930.4512 -216.6,41.42 -358.612,250.5918 -317.192,467.1914 41.42,216.5996 250.592,358.6093 467.192,317.1895 276.63,-52.86 552.16,-52.9808 826.648,-13.5508 -402.008,144.5196 -740.248,348.1014 -959.068,541.291 -1712.646,1512.087 -258.43,4091.483 788.408,5948.289 l 38.932,69.061 c 108.6,251.69 193.309,518.099 250.939,795.779 57.14,275.23 87.289,564.922 87.289,865.9 0,1088.288 -405.991,2070.701 -1062.359,2779.241 -237.55,256.428 -508.222,476.981 -804.4,653.621 54.528,-84.17 107,-172.292 157.23,-264.182 445.91,-815.748 721.721,-1936.452 721.721,-3168.68 0,-335.078 -20.381,-662.22 -58.981,-977.41 -39.32,-320.978 -98.72,-632.519 -175.81,-930.039 -34.51,-133.21 -170.499,-213.221 -303.709,-178.711 -133.21,34.51 -213.221,170.501 -178.711,303.711 69.88,269.72 124.641,559.492 162.131,865.58 36.05,294.35 55.08,601.181 55.08,916.869 0,1149.598 -251.921,2185.293 -659.221,2930.401 -212.57,388.878 -465.48,695.28 -743.16,890.75 81.47,-203.89 153.09,-445.121 213.5,-717.901 177.07,-799.518 286.59,-1897.122 286.59,-3103.25 0,-319.948 -8.32,-641.149 -24.09,-958.849 -15.84,-319.18 -39.29,-624.412 -69.42,-911.49 -14.02,-136.99 -136.45,-236.679 -273.44,-222.661 -136.988,14.02 -236.68,136.452 -222.66,273.442 29.4,280.16 52.211,576.27 67.481,884.148 14.48,291.85 22.129,604.622 22.129,935.41 0,1175.698 -104.292,2234.481 -272.91,2995.831 -93.06,420.198 -190.03,738.181 -281.95,913.531 -49.83,2.23 -99.92,3.349 -150.25,3.349 -50.34,0 -100.429,-1.129 -150.259,-3.349 -91.91,-175.35 -188.882,-493.333 -281.942,-913.531 -168.62,-761.35 -272.908,-1820.133 -272.908,-2995.831 0,-330.788 7.649,-643.56 22.129,-935.41 15.27,-307.878 38.08,-603.988 67.48,-884.148 14.02,-136.99 -85.67,-259.422 -222.66,-273.442 -136.99,-14.018 -259.419,85.671 -273.439,222.661 -30.13,287.078 -53.58,592.31 -69.42,911.49 -15.77,317.7 -24.09,638.901 -24.09,958.849 0,1206.128 109.52,2303.732 286.59,3103.25 60.41,272.78 132.02,514.011 213.5,717.901 -277.68,-195.47 -530.592,-501.872 -743.16,-890.75 -407.3,-745.108 -659.221,-1780.803 -659.221,-2930.401 0,-315.688 19.03,-622.519 55.08,-916.869 37.49,-306.088 92.251,-595.86 162.131,-865.58 34.51,-133.21 -45.501,-269.201 -178.711,-303.711 -133.21,-34.51 -269.199,45.501 -303.709,178.711 -77.09,297.52 -136.491,609.061 -175.811,930.039 -38.6,315.19 -58.98,642.332 -58.98,977.41 0,1232.228 275.811,2352.932 721.721,3168.68 50.23,91.89 102.698,180.012 157.228,264.182 -296.18,-176.64 -566.85,-397.193 -804.398,-653.621 -656.37,-708.54 -1062.362,-1690.953 -1062.362,-2779.241 0,-300.978 30.151,-590.67 87.291,-865.9 57.63,-277.68 142.34,-544.089 250.94,-795.779 l 38.93,-69.061 c 1046.836,-1856.806 2501.056,-4436.202 788.41,-5948.289 -218.82,-193.1896 -557.061,-396.7714 -959.071,-541.291 274.49,-39.43 550.021,-39.3092 826.651,13.5508 216.6,41.4198 425.769,-100.5899 467.189,-317.1895 41.42,-216.5996 -100.589,-425.7714 -317.189,-467.1914 -1249.488,-238.7496 -2358.723,299.9824 -3440.061,930.4512 l -8.379,4.8906 c -152.89,89.2198 -305.23,180.2296 -457.33,271.1094 -169.88,101.4998 -339.359,202.7695 -572.109,336.2793 -180.04,103.2798 -388.641,194.4809 -599.061,286.4707 -546.338,238.8394 -1103.232,482.3015 -1389.64,960.8909 -66.38,110.91 -126.041,228.579 -181.391,340.629 -25.29,-174.87 0.221,-370.76 21.881,-537.1098 l 8.641,-68.5605 c 48.46,-384.2192 251.109,-732.2298 514.039,-1030.9492 402.078,-456.7992 937.952,-793.3817 1313.31,-983.7813 196.75,-99.2398 275.801,-339.1898 176.561,-535.9394 -79.95,-158.5198 -251.242,-240.6009 -417.692,-214.6309 -1962.846,180.9696 -2848.76,976.1614 -3595.228,1646.4102 -357.86,321.3292 -678.752,609.4508 -1057.58,741.1406 -132.86,46.1798 -204.081,72.32 -269.311,96.25 -195.93,71.8698 -250.67,157.1197 -292.09,144.6797 l -0.121,-0.07 c -2.64,-1.52 8.56,-81.7197 23.34,-179.6895 30.81,-204.1996 116.14,-422.7999 177.41,-556.4297 19.62,-42.7898 36.481,-75.5296 46.971,-93.6894 431.948,-747.7886 913.541,-1248.0421 1452.041,-1624.0313 550.658,-384.4892 1173.561,-649.8606 1866.109,-916.5 205.38,-78.5198 308.21,-308.6907 229.69,-514.0703 -46.13,-120.6498 -144.599,-205.8793 -259.629,-239.7793 l 0.25,-0.8398 c -651.328,-192.0596 -1512.052,-512.6714 -2129.92,-1028.0704 -556.74,-464.409 -915.719,-1105.3512 -698.231,-1984.0996 23.55,-57.7898 48.459,-95.0992 73.799,-118.4492 21.16,-19.5 46.861,-31.7108 73.811,-40.0508 8.34,-2.58 39.67,147.0712 93.84,310.0508 38.36,115.4198 77.992,234.6095 123.3,341.0293 13.8,32.44 31.419,62.0995 52.059,88.6895 582.778,824.9282 1430.571,979.0016 2305.981,1137.9414 561.768,101.9898 1137.131,206.4691 1590.361,522.2285 181.22,125.9898 430.27,81.2196 556.26,-100 102.29,-147.1298 92.018,-338.9696 -12.442,-473.3594 -435.748,-607.9488 -420.55,-1071.8008 -405.26,-1535.5898 3.33,-101.2198 6.67,-202.4614 6.35,-315.9512 -0.43,-151.9096 -21.779,-219.4198 -13.269,-223.5898 10.27,-5.03 98.591,44.6802 268.839,151.75 279.59,175.8296 531.152,312.6212 765.5,440.041 819.11,445.379 1406.313,764.6729 2417.881,2583.7793 107,192.4296 349.76,261.6912 542.19,154.6914 171.53,-95.3798 245.179,-298.6218 183.381,-477.9414 -35.01,-112.9998 -110.922,-276.9599 -210.25,-491.4395 -243.88,-526.669 -644.1,-1390.9515 -751.59,-2091.9101 -28.85,-188.1498 -26.381,-360.53 0.179,-507.3496 24.69,-136.5298 68.63,-248.3806 125.28,-325.6504 28.17,-38.42 51.921,-61.3005 67.781,-63.7305 3.23,-0.49 2.779,-1.1402 3.639,-0.9902 z M 22078.279,23701.36 c 25.98,8.82 51.481,29.649 74.381,62.609 122.26,175.91 138.88,542.313 -57.57,1116.391 -5.21,15.37 -9.41,30.84 -12.67,46.34 -801.148,3263.544 -988.79,5888.116 -840.33,8162.56 148.67,2277.666 633.531,4196.475 1176.621,6053.061 760.768,2600.814 1135.229,5030.855 767.189,7333.939 -24.19,151.38 -51.72,302.29 -82.48,452.76 -28.45,-8.7 -56.721,-17.769 -84.811,-27.189 -1952.386,-654.96 -3025.329,-3072.547 -3454.449,-6230.471 -443.218,-3261.694 -189.508,-7285.147 501.59,-11015.971 343.27,-1853.106 794.401,-3632.272 1321.539,-5208.388 3.14,-7.61 6.101,-15.331 8.801,-23.221 147.56,-428.17 370.139,-664.22 569.689,-719.84 43.45,-12.11 81.95,-12.95 112.5,-2.58 z"
       sodipodi:nodetypes="cscsccscccccccccccccccscsccccscscccccssccscssscccsccsccccccccccccssccscsccsccccccscscssscscccsccccccsscsccsccccccscscscsccscccsssccsscssccssccscsccssscccccccsccssccsccccsccssssccsccscccssscscscssscscscccsccssccsssssscscccsccsscsscssssssccsscscssscscssscscsssccssssccsscssccssccscsssssccccccccccccssscccsccscsssccccsccsscccsccscsscscccscsccssccss" /></g><text
     x="0"
     y="60015"
     fill="#000000"
     font-size="5px"
     font-weight="bold"
     font-family="'Helvetica Neue', Helvetica, Arial-Unicode, Arial, Sans-serif"
     id="text27227">Created by Olena Panasovska</text><text
     x="0"
     y="60020"
     fill="#000000"
     font-size="5px"
     font-weight="bold"
     font-family="'Helvetica Neue', Helvetica, Arial-Unicode, Arial, Sans-serif"
     id="text27229">from the Noun Project</text><g
     id="g27354"
     transform="matrix(1.0873,0,0,1.0873,-3302.7215,3146.0167)"><path
       class="fil0"
       d="m 36609.462,22428.56 c 102.121,275.938 175.954,1291.367 237.76,2183.746 204.682,2955.249 64.992,8089.055 -129.522,9698.254 -1062.54,8789.84 -8958.59,14405.27 -16682.72,19365.51 -12.65,9.21 -25.71,17.57 -39.11,25.11 -591.02,379.4 -1181.01,755.13 -1766.75,1128.03 -2358.36,1501.45 -4647.55,2958.85 -6657.27,4445.59 -176.9,131.16 -426.65,94.09 -557.81,-82.81 -131.16,-176.9 -94.09,-426.65 82.81,-557.81 2023.44,-1496.88 4328.95,-2964.68 6704.15,-4476.85 579.69,-369.06 1163.63,-740.92 1748.56,-1116.4 806.597,-468.252 1690.467,-1088.696 2408.04,-1571.18 6749.23,-4498.12 13052.85,-9696.05 13966.34,-17252.95 248.94,-2059.42 192.373,-6932.111 137.112,-10379.352 -546.765,-2453.725 -517.366,-2528.172 -616.789,-2802.577 -927.956,-2561.141 355.945,-3818.283 1165.199,1393.689 z"
       id="path27352"
       sodipodi:nodetypes="cscccccscsccscsc" /></g><path
     style="fill:#008000;stroke:#000000;stroke-width:445.793;stroke-linecap:round;stroke-linejoin:round;stroke-dasharray:none;paint-order:markers stroke fill"
     d="m 18890.902,27966.594 c -711.309,417.78 -768.762,1428.666 -1053.356,2134.233 -1469.513,5266.439 -2184.252,10817.874 -1561.899,16271.293 342.691,2332.856 968.543,4972.014 3013.011,6404.239 239.53,204.858 801.245,466.745 852.426,-38.863 369.019,-2719.856 -89.135,-5472.723 -850.957,-8087.624 -1348.383,-4421.885 -1688.704,-9168.635 -718.196,-13703.821 119.054,-971.235 675.084,-1972.471 417.931,-2948.665 -24.403,-28.071 -63.251,-37.391 -98.96,-30.792 z"
     id="path28695" /><path
     style="fill:#008000;stroke:#000000;stroke-width:445.793;stroke-linecap:round;stroke-linejoin:round;stroke-dasharray:none;paint-order:markers stroke fill"
     d="m 34655.477,24815.973 c -557.442,62.015 -179.822,850.633 -189.64,1189.659 834.704,4966.735 1099.918,10106.276 163.731,15078.004 -1112.034,5382.704 -4893.372,9726.25 -9011.434,13147.087 -4227.868,3473.983 -8891.015,6372.193 -13543.194,9235.341 -1252.994,799.707 -2601.7228,1518.658 -3724.6903,2482.126 77.642,287.332 372.4207,661.55 649.6192,703.347 5416.2801,-3737.586 11139.2701,-7031.513 16381.2101,-11020.213 4191.903,-3291.887 8242.006,-7309.718 9765.385,-12567.532 1031.79,-3641.932 698.431,-7475.425 779.322,-11213.923 7.593,-1405.958 87.983,-2819.93 -354.714,-4176.312 -275.471,-934.541 -310.991,-1992.854 -773.737,-2847.603 -43.788,-22.028 -95.986,-7.97 -141.858,-9.981 z"
     id="path28697" /><path
     style="fill:url(#linearGradient31186);fill-opacity:1;stroke:none;stroke-width:135.088;stroke-linecap:round;stroke-linejoin:round;stroke-dasharray:none;paint-order:markers stroke fill"
     d="m 29249.274,3763.1846 c -201.71,119.1624 -354.497,397.5408 -377.792,604.3773 7.909,913.3201 622.97,1760.7694 970.229,2582.6677 92.214,288.0095 369.461,595.3197 216.281,907.7695 -139.608,320.4494 -628.242,305.9627 -772.681,-1.6088 -572.83,-947.971 -1164.094,-1968.8641 -2165.324,-2522.9641 -513.095,-294.7808 -1051.932,-603.532 -1549.553,-887.719 -49.964,727.249 -248.281,1538.3512 186.501,2165.1331 211.253,236.5542 344.828,677.3711 -2.324,752.867 -327.07,68.838 -568.301,-243.1489 -868.566,-315.7775 -988.108,-363.2864 -2107.374,-334.0621 -3028.043,-880.8573 -435.376,-269.1623 -784.748,-681.4324 -909.992,-1184.2779 -50.147,-68.8869 -42.733,-242.1733 -138.31,-257.4113 -165.63,195.0922 -147.243,494.1911 -162.193,738.0531 5.424,868.053 538.26,1705.4145 1247.312,2105.4268 577.653,352.1943 1381.609,374.9282 2002.642,629.4319 310.832,165.0155 214.76,660.8939 -103.606,761.0972 -883.763,375.9484 -1994.377,661.7458 -2707.039,1328.7787 -635.892,601.493 -1274.029,1544.877 -1387.891,2438.318 411.542,-244.094 1180.355,-261.864 1536.324,-602.505 763.355,-627.379 1453.811,-1516.736 2385.497,-1893.952 665.824,-269.8974 1381.849,-444.7762 2101.496,-460.5704 368.483,-1.9449 531.309,577.5604 203.418,756.0774 -606.869,385.765 -1428.582,776.233 -1842.829,1384.024 -304.21,404.668 -310.268,1274.691 -284.393,1770.951 202.164,-250.472 407.565,-926.818 693.898,-1105.863 614.816,-440.626 1483.882,-480.787 2122.196,-883.406 1056.222,-596.151 1976.659,-1467.143 3190.486,-1686.987 442.727,-24.2743 905.935,-75.6368 1338.537,39.989 312.744,107.812 163.415,496.852 -136.678,672.376 -251.815,138.734 -561.404,24.691 -835.746,46.013 -99.898,4.834 -229.744,-18.169 -318.03,5.92 498.962,260.966 1259.037,622.215 1587.306,1099.731 397.696,524.005 524.13,1201.66 456.909,1846.433 -113.17,1325.378 -781.796,2513.013 -1391.482,3666.458 -349.8,588.97 -726.061,1214.381 -781.582,1904.061 -177.815,1503.505 552.476,3109.882 1773.679,4023 81.387,48.877 184.032,173.901 268.942,174.42 -579.235,-1023.648 -876.45,-2193.415 -893.451,-3367.321 -29.225,-834.742 15.796,-1691.008 291.626,-2484.96 151.373,-219.619 542.725,-65.024 480.327,202.581 -157.667,728.772 -321.131,1532.434 -286.87,2279.335 39.711,1190.664 351.84,2382.213 1088.445,3349.193 133.715,141.376 258.107,340.542 425.756,426.786 -155.03,-591.833 -292.21,-1192.699 -359.92,-1803.311 -145.682,-1116.903 -91.077,-2247.683 -90.468,-3370.981 31.349,-364.239 -35.821,-770.404 142.14,-1102.845 156.3,-203.019 536.341,-28.726 447.894,231.026 -64.941,1336.878 -172.243,2545.105 -51.025,3879.43 104.073,725.656 271.25,1609.962 568.032,2286.828 76.415,84.606 257.508,78.769 336.177,1.479 309.637,-735.454 463.827,-1657.711 549.785,-2446.359 117.374,-1232.325 48.1,-2356.8 -35.558,-3590.526 -28.702,-170.906 -9.476,-397.365 197.19,-440.324 232.375,-70.182 364.713,200.525 348.147,395.575 97.745,1230.153 116.557,2471.559 6.451,3701.582 -69.309,761.527 -200.825,1517.765 -410.648,2252.57 55.403,28.021 136.225,-111.318 186.364,-142.219 786.389,-815.277 1177.308,-1953.445 1325.577,-3045.117 61.426,-930.55 -50.246,-1887.224 -271.289,-2797.641 -65.554,-190.575 75.22,-390.097 278.775,-379.293 265.178,44.329 271.812,394.619 333.855,601.962 207.265,1035.444 196.377,2111.028 39.582,3152.686 -130.891,772.219 -403.496,1537.248 -791.086,2206.968 831.561,-477.387 1423.212,-1316.127 1734.54,-2214.054 277.226,-764.615 362.623,-1637.792 240.543,-2432.183 -180.12,-920.991 -869.978,-1641.14 -1243.126,-2485.393 -515.871,-1046.851 -993.377,-2205.319 -842.513,-3396.569 113.925,-895.781 987.451,-1713.702 1805.58,-2055.097 57.663,-36.098 154.318,-62.037 191.32,-112.552 -365.445,-40.374 -950.988,137.491 -1309.744,51.803 -351.947,-155.041 -281.654,-749.867 104.058,-806.401 945.141,-197.7643 1922.758,51.286 2769.301,480.115 1067.256,513.645 1969.134,1284.062 3062.216,1747.611 533.168,219.766 1090.887,508.869 1358.717,1028.511 72.095,110.649 60.632,-73.647 53.027,-117.122 -6.949,-492.695 -65.174,-1041.043 -388.819,-1418.607 -421.382,-550.679 -1103.615,-870.417 -1691.827,-1218.172 -305.284,-201.336 -167.772,-745.7191 205.027,-766.3099 670.276,12.5556 1336.875,177.93 1965.777,405.6139 1032.988,380.68 1754.753,1272.752 2597.009,1944.918 336.899,277.739 824.465,292.09 1207.767,479.626 26.831,-122.82 -58.543,-290.74 -83.499,-422.64 -217.807,-700.12 -714.285,-1277.411 -1223.628,-1788.061 -750.652,-697.58 -1715.366,-1080.4326 -2642.957,-1476.182 -297.617,-178.3997 -223.222,-711.6976 133.416,-768.7248 837.111,-306.273 1900.799,-495.8273 2572.792,-1104.4551 502.257,-418.5879 630.409,-1191.6425 538.895,-1849.7414 -36.059,-150.2291 -25.275,-372.5432 -167.767,-462.3726 -144.844,189.3498 -159.633,471.3753 -285.596,680.5276 -376.26,692.5044 -1147.031,1034.7155 -1885.765,1190.9946 -823.663,206.3809 -1714.461,69.6739 -2449.328,530.7926 -289.727,173.2711 -694.09,95.8467 -614.194,-240.6497 90.227,-339.5997 475.4,-615.2137 534.183,-971.3584 103.312,-498.1248 -32.531,-997.5681 -8.874,-1502.2878 -784.177,528.4215 -1726.932,665.742 -2411.753,1333.6108 -585.301,581.0728 -955.839,1512.4255 -1399.46,2198.1194 -219.747,290.4593 -712.355,130.3257 -752.023,-222.2738 4.332,-359.8496 241.252,-671.3128 361.425,-1001.6273 265.315,-619.1981 758.72,-1242.706 876.044,-1909.8088 -13.576,-335.9472 -99.325,-744.1616 -347.539,-1020.0516 -142.776,-74.4514 -247.964,137.4452 -332.251,219.6351 -220.332,332.4268 -156.799,763.2739 -320.499,1121.2894 -314.787,980.0012 -1502.385,1332.2062 -1913.37,2255.6655 -90.807,237.8442 -177.271,605.7981 -455.809,511.7384 -193.454,-37.5049 -328.888,-209.3197 -300.204,-407.0297 -45.985,-628.3776 202.727,-1362.8899 -144.115,-1930.8682 -258.833,-455.9766 -739.216,-790.0337 -1068.672,-1195.1834 -138.941,121.5081 -197.746,344.3756 -325.313,489.0443 -387.9,496.735 -922.425,953.4082 -902.218,1616.2766 -34.462,387.4949 176.505,901.2658 50.781,1274.0868 -193.712,269.22 -639.675,206.1201 -766.954,-97.5586 -430.761,-1039.047 -1433.927,-1650.5776 -1722.88,-2767.2854 -114.723,-379.8956 -252.01,-777.6084 -602.497,-1043.1553 -38.633,-27.9049 -79.893,-76.2084 -132.631,-72.7826 z"
     id="path31178"
     sodipodi:nodetypes="ccccccccccccccccccccccccccccccccccccccccccccccccccccccccccccccccccccccccccccccccccccccccccccccccccccccccccccccccccc" /></svg>
