<?xml version="1.0" encoding="UTF-8" standalone="no"?>
<svg
   version="1.1"
   viewBox="-5.0 -10.0 110.0 135.0"
   id="svg30882"
   sodipodi:docname="cucumber.svg"
   inkscape:version="1.2.2 (b0a8486541, 2022-12-01)"
   xmlns:inkscape="http://www.inkscape.org/namespaces/inkscape"
   xmlns:sodipodi="http://sodipodi.sourceforge.net/DTD/sodipodi-0.dtd"
   xmlns="http://www.w3.org/2000/svg"
   xmlns:svg="http://www.w3.org/2000/svg">
  <defs
     id="defs30886">
    <inkscape:path-effect
       effect="fill_between_many"
       method="originald"
       linkedpaths="#path30874,0,1|"
       id="path-effect31005" />
  </defs>
  <sodipodi:namedview
     id="namedview30884"
     pagecolor="#ffffff"
     bordercolor="#000000"
     borderopacity="0.25"
     inkscape:showpageshadow="2"
     inkscape:pageopacity="0.0"
     inkscape:pagecheckerboard="0"
     inkscape:deskcolor="#d1d1d1"
     showgrid="false"
     inkscape:zoom="9.4851951"
     inkscape:cx="56.034693"
     inkscape:cy="40.273288"
     inkscape:window-width="1857"
     inkscape:window-height="1011"
     inkscape:window-x="0"
     inkscape:window-y="0"
     inkscape:window-maximized="1"
     inkscape:current-layer="svg30882" />
  <path
     inkscape:original-d="M 0,0"
     inkscape:path-effect="#path-effect31005"
     d="m 29.914,96.996 c 0.30469,0 0.61719,-0.0078 0.92969,-0.02734 9.8945,-0.5625 22.512,-10.152 34.613,-26.305 17.297,-23.086 22.492,-40.832 13.902,-47.465 1.0781,-2.9219 1.5156,-7.75 -2.2188,-11.609 -0.19141,-2.1172 -1.3672,-5.2734 -5.9258,-8.2148 -0.72656,-0.46484 -1.6914,-0.25781 -2.1602,0.46484 -0.46875,0.72656 -0.25781,1.6914 0.46484,2.1602 1.4961,0.96484 2.6406,2.0117 3.4062,3.0898 -1.125,-0.19531 -2.043,0.019531 -2.6328,0.25 -1.6641,0.64453 -2.8867,2.2344 -3.1172,4.0508 -0.22656,1.7812 0.53125,3.4766 2.0234,4.5469 1.2812,0.92188 2.8906,1.0352 4.4141,0.31641 1.1094,-0.52344 2.0273,-1.4297 2.6562,-2.5391 1.0742,2.1953 0.75391,4.418 0.33594,5.8242 -1.793,-0.81641 -3.6133,-1.1172 -5.4375,-0.86719 -6.6211,0.89062 -12.414,8.5625 -19.125,17.453 -3.6328,4.8125 -7.3906,9.7891 -11.688,14.312 -1.9297,2.0312 -4.0312,4.0859 -6.25,6.2617 -11.238,11.004 -23.973,23.477 -13.898,34.148 2.6094,2.7656 5.8672,4.1602 9.6992,4.1602 z"
     id="path31007"
     class="UnoptimicedTransforms"
     style="fill:#008000" />
  <path
     d="m29.914 96.996c0.30469 0 0.61719-0.007813 0.92969-0.027344 9.8945-0.5625 22.512-10.152 34.613-26.305 17.297-23.086 22.492-40.832 13.902-47.465 1.0781-2.9219 1.5156-7.75-2.2188-11.609-0.19141-2.1172-1.3672-5.2734-5.9258-8.2148-0.72656-0.46484-1.6914-0.25781-2.1602 0.46484-0.46875 0.72656-0.25781 1.6914 0.46484 2.1602 1.4961 0.96484 2.6406 2.0117 3.4062 3.0898-1.125-0.19531-2.043 0.019531-2.6328 0.25-1.6641 0.64453-2.8867 2.2344-3.1172 4.0508-0.22656 1.7812 0.53125 3.4766 2.0234 4.5469 1.2812 0.92188 2.8906 1.0352 4.4141 0.31641 1.1094-0.52344 2.0273-1.4297 2.6562-2.5391 1.0742 2.1953 0.75391 4.418 0.33594 5.8242-1.793-0.81641-3.6133-1.1172-5.4375-0.86719-6.6211 0.89062-12.414 8.5625-19.125 17.453-3.6328 4.8125-7.3906 9.7891-11.688 14.312-1.9297 2.0312-4.0312 4.0859-6.25 6.2617-11.238 11.004-23.973 23.477-13.898 34.148 2.6094 2.7656 5.8672 4.1602 9.6992 4.1602zm42.363-81.574c-0.48438 0.23047-0.90625 0.21875-1.2578-0.03125-0.71484-0.51172-0.79688-1.1602-0.74219-1.6133 0.085937-0.68359 0.54688-1.2969 1.1445-1.5273 0.19141-0.074219 0.39453-0.10938 0.60938-0.10938 0.58594 0 1.2578 0.27344 1.9531 0.80469-0.21484 1.25-0.98438 2.1328-1.707 2.4766zm-35.98 45.5c2.2422-2.1953 4.3594-4.2695 6.3281-6.3438 4.418-4.6523 8.3984-9.9297 11.914-14.582 6.2891-8.3281 11.719-15.523 17.047-16.238 0.28516-0.039062 0.56641-0.058593 0.85156-0.058593 1.6484 0 3.2969 0.64844 5.0117 1.9688 6.8555 5.2891 1.168 22.215-14.492 43.117-11.379 15.188-23.449 24.555-32.289 25.059-3.2656 0.19922-6.0234-0.875-8.1797-3.1562-7.9688-8.4375 3.1016-19.281 13.812-29.766z"
     id="path30874"
     class="UnoptimicedTransforms" />
  <path
     d="m29.93 90.906c6.1641 0 17.457-6.2773 30.656-23.895 5.6758-7.5781 10.008-14.555 12.883-20.746 0.36328-0.78125 0.023438-1.7109-0.75781-2.0742-0.78125-0.36328-1.7109-0.023437-2.0742 0.75781-2.7812 5.9922-7.0039 12.789-12.547 20.188-13.391 17.875-24 22.645-28.156 22.645-0.86328 0-1.5625 0.69922-1.5625 1.5625s0.69922 1.5625 1.5625 1.5625z"
     id="path30876" />
</svg>
