<?xml version="1.0" encoding="UTF-8" standalone="no"?>
<svg
   data-name="Line copy"
   viewBox="0 0 256 320"
   x="0px"
   y="0px"
   version="1.1"
   id="svg37964"
   sodipodi:docname="dill.svg"
   inkscape:version="1.2.2 (b0a8486541, 2022-12-01)"
   xmlns:inkscape="http://www.inkscape.org/namespaces/inkscape"
   xmlns:sodipodi="http://sodipodi.sourceforge.net/DTD/sodipodi-0.dtd"
   xmlns="http://www.w3.org/2000/svg"
   xmlns:svg="http://www.w3.org/2000/svg"
   xmlns:rdf="http://www.w3.org/1999/02/22-rdf-syntax-ns#"
   xmlns:cc="http://creativecommons.org/ns#"
   xmlns:dc="http://purl.org/dc/elements/1.1/">
  <defs
     id="defs37968" />
  <sodipodi:namedview
     id="namedview37966"
     pagecolor="#ffffff"
     bordercolor="#000000"
     borderopacity="0.25"
     inkscape:showpageshadow="2"
     inkscape:pageopacity="0.0"
     inkscape:pagecheckerboard="0"
     inkscape:deskcolor="#d1d1d1"
     showgrid="false"
     inkscape:zoom="2.4632071"
     inkscape:cx="136.61052"
     inkscape:cy="136.40753"
     inkscape:window-width="1857"
     inkscape:window-height="1011"
     inkscape:window-x="0"
     inkscape:window-y="0"
     inkscape:window-maximized="1"
     inkscape:current-layer="svg37964" />
  <title
     id="title37956">Vegetable Line</title>
  <path
     d="m 236.86817,62.276622 c -0.78679,-1.023517 -2.21233,-1.301501 -3.32604,-0.648581 -0.82835,0.459737 -1.98961,1.069957 -3.34298,1.738949 0.49544,-0.514579 1.07053,-0.946015 1.70315,-1.277733 0.91053,-0.364775 1.51514,-1.238146 1.536,-2.218802 0.0174,-1.10168 -0.69615,-2.081983 -1.74979,-2.404194 1.07547,-0.672346 2.19788,-1.418751 3.36843,-2.251047 1.08671,-0.74062 1.44031,-2.181342 0.81996,-3.340924 -0.73217,-1.250962 -2.3805,-1.603096 -3.55993,-0.760506 -3.40878,2.526005 -7.14467,4.577615 -11.10535,6.098647 -0.4854,0.178266 -0.90987,-0.377265 -0.61033,-0.79877 2.59341,-3.728896 6.4324,-6.409882 10.82629,-7.560589 1.29331,-0.295794 2.14537,-1.53185 1.9617,-2.845786 -0.24147,-1.401267 -1.61649,-2.307152 -2.99931,-1.976014 -11.2933,2.687807 -16.00061,12.622513 -17.11486,15.405482 l -7.13407,5.812273 c -0.45624,0.37059 -1.1152,-0.07876 -0.93683,-0.638817 1.8555,-5.8318 4.14778,-11.385804 6.08197,-12.888771 4.06267,-3.35887 7.88996,-6.992705 11.45484,-10.875872 2.23175,-2.423373 -1.41349,-5.765361 -3.63439,-3.332048 -3.38188,3.675956 -7.00579,7.121636 -10.84748,10.313974 -4.51245,3.508861 -8.14094,15.940853 -9.68947,22.013669 -0.3289,1.29149 -1.06504,2.442704 -2.09937,3.283127 l -13.58242,11.049726 c -0.30918,0.25176 -0.73261,-0.123761 -0.51958,-0.460821 0.96223,-1.539725 1.78119,-3.164484 2.44658,-4.85384 0.2889,-0.735904 0.7235,-1.405847 1.27774,-1.969605 l 13.74494,-14.252301 c 0.23924,-0.248693 0.42395,-0.544556 0.54237,-0.868685 0.0424,-0.117158 4.3529,-11.829859 10.59177,-18.629449 0.86965,-0.930026 0.91509,-2.360641 0.10626,-3.34398 -0.96264,-1.111585 -2.67803,-1.138923 -3.6756,-0.05858 -6.24519,6.764878 -10.52875,17.389287 -11.46874,19.844958 l -8.68646,9.007246 c -0.40097,0.42125 -1.10777,0.09356 -1.04529,-0.484687 0.26309,-2.329342 0.61415,-5.00502 1.07715,-7.85544 1.38584,-1.865504 2.99943,-3.550457 4.80326,-5.015674 1.05483,-0.663893 1.46752,-1.998107 0.97172,-3.141625 -0.61849,-1.352887 -2.28603,-1.85282 -3.54682,-1.063348 -0.15364,0.09594 -0.31349,0.205805 -0.47817,0.326805 1.12209,-5.114098 2.80961,-10.08751 5.03134,-14.828495 0.61512,-1.151537 0.27066,-2.581205 -0.80143,-3.32623 -1.23363,-0.791017 -2.88084,-0.337656 -3.53597,0.973217 -3.56704,7.134283 -5.76563,16.148335 -7.11605,24.024982 -0.85271,1.06887 -1.70601,2.178566 -2.53436,3.281852 -0.24121,-4.513632 0.13412,-9.115919 1.79022,-12.822796 0.54002,-1.156947 0.14275,-2.534941 -0.93032,-3.226828 -1.26288,-0.760193 -2.90624,-0.249594 -3.51595,1.092439 -0.82641,1.861147 -1.4193,3.817417 -1.76518,5.824206 -0.97443,-0.815723 -2.4102,-0.75345 -3.31035,0.143581 -0.0611,0.06055 -3.99749,3.99325 -7.48269,7.332397 0.12209,-1.340648 0.25068,-2.766894 0.37474,-4.172726 6.33423,-4.909467 11.84495,-9.881751 12.17785,-10.183016 2.36908,-2.208466 -0.87455,-5.792947 -3.30798,-3.655596 -0.0643,0.05769 -3.64869,3.290234 -8.2996,7.076692 0.0937,-1.223299 0.15148,-2.117426 0.15148,-2.460897 0,-0.04211 -0.0101,-0.08136 -0.0126,-0.12297 5.77402,-9.113553 9.64656,-15.803584 9.72457,-15.94115 1.69864,-2.873022 -2.67133,-5.367607 -4.2816,-2.444133 -0.10671,0.185788 -7.26357,12.555357 -16.66074,26.588634 2.85017,-6.321596 6.57863,-12.209102 11.07499,-17.488196 0.88473,-0.972121 0.89966,-2.453226 0.0346,-3.442988 -1.00524,-1.055599 -2.70159,-1.0144 -3.65442,0.08876 -8.56577,9.954877 -14.48527,21.907513 -17.21187,34.754207 -2.25361,3.048243 -4.53799,6.015425 -6.80591,8.787836 l -0.032,0.03947 -0.0101,0.01208 c -1.67505,2.051163 -3.39841,4.402494 -5.13953,6.962103 -0.28419,0.423833 -0.94518,0.228208 -0.95291,-0.282036 l -0.0806,-6.297159 c 0,0 7.00885,-13.992046 7.17906,-14.341336 1.50041,-3.096459 8.98496,-18.806853 8.98496,-24.12172 0.024,-3.350324 -5.03265,-3.292086 -4.93166,0.0568 -0.0362,2.051159 -2.02236,7.356559 -4.30417,12.701404 -0.10829,0.251798 -0.48332,0.178775 -0.48922,-0.09526 l -0.3135,-14.390848 c -0.12847,-3.22617 -4.9415,-3.120819 -4.9287,0.107884 l 0.0416,1.913987 c -0.28429,-0.425176 -0.6947,-0.750564 -1.1735,-0.930418 -1.33329,-0.421989 -2.76128,0.287612 -3.23018,1.605131 -3.89522,10.841654 -1.93805,35.101433 -1.7712,37.069554 l 0.20029,15.609616 c 0.003,0.135435 0.0193,0.270314 0.0456,0.403226 -3.25561,5.431928 -6.45631,11.252681 -9.40978,16.886371 -0.009,-0.64375 -0.0212,-1.29332 -0.0411,-1.94506 l 8.82116,-18.741177 c 0.5799,-1.165482 0.19508,-2.58054 -0.89522,-3.291818 -1.25131,-0.755811 -2.8817,-0.262177 -3.50363,1.060784 l -2.35577,5.005813 c -0.21022,0.44875 -0.88648,0.264133 -0.8395,-0.229173 0.4221,-4.768624 1.16207,-9.503749 2.21495,-14.173806 0.3304,-1.244554 -0.31947,-2.540041 -1.5146,-3.019344 -1.37656,-0.506791 -2.88843,0.293239 -3.24368,1.71647 -0.836,3.902814 -1.34426,7.868681 -1.51945,11.856192 0.0472,1.36234 -1.3793,-2.329554 -1.44092,-2.576088 -0.16542,-1.799197 -2.15508,-2.806455 -3.70304,-1.874635 0.25975,-0.616658 0.5047,-1.260477 0.73486,-1.931446 0.47481,-1.268204 -0.10896,-2.687958 -1.33857,-3.255326 -1.1043,-0.451381 -2.3733,-0.04503 -3.01008,0.96375 -0.002,-0.135689 -0.009,-0.272669 -0.0101,-0.408055 0.70865,-0.679359 3.94888,-2.454594 3.99305,-3.787648 0.005,-1.320029 -1.0031,-2.423353 -2.3182,-2.537614 -0.5881,-0.05504 -1.17938,0.06434 -1.7001,0.343169 0.002,-0.09609 0.002,-0.193381 0.003,-0.289232 3.10287,-3.256604 6.04845,-7.183881 6.72672,-10.87143 0.29147,-1.347857 -0.52118,-2.688533 -1.85097,-3.053663 -1.39308,-0.317194 -2.76199,0.616596 -2.97497,2.029365 -0.15778,1.021043 -1.08298,4.074705 -1.57605,3.828172 0.0758,-1.70674 0.3517,-3.398684 0.82194,-5.041117 0.26569,-1.153411 -0.28918,-2.339379 -1.34488,-2.874579 -1.44787,-0.672436 -3.14347,0.1863 -3.45818,1.751373 -0.72907,4.004224 -1.13742,8.06025 -1.22113,12.129446 -1.943018,1.911565 -4.011258,3.691568 -6.190948,5.328182 -0.21118,0.155426 -0.39599,0.343772 -0.54741,0.557856 l -3.81781,5.390304 c 0.80222,-3.698003 2.60813,-8.31469 6.65958,-11.401877 1.07247,-0.786594 1.36414,-2.26334 0.67124,-3.398611 -0.78149,-1.186337 -2.40131,-1.468436 -3.53786,-0.616138 -9.12271,6.841304 -9.38661,19.04274 -9.35574,21.263513 -1.224382,5.570961 -6.552166,14.312648 -11.336789,21.361038 1.990905,-7.79292 4.644099,-18.351364 6.737662,-27.302099 3.174055,-3.121882 5.907797,-6.661814 8.125737,-10.522051 2.74481,-2.398376 13.879348,-12.313753 16.205238,-17.334061 0.52278,-1.088873 0.19916,-2.395559 -0.77136,-3.114605 -1.27058,-0.904102 -3.05076,-0.417961 -3.68546,1.006447 -1.037131,1.814595 -2.312188,3.482392 -3.791298,4.95907 -0.20331,0.222021 -0.56179,-0.0081 -0.44456,-0.285388 3.255047,-7.433574 5.301368,-13.504904 5.481048,-14.043827 1.03987,-3.118796 -3.638448,-4.67886 -4.678318,-1.560064 -0.0334,0.100789 -1.27815,3.796616 -3.34962,8.914651 0.73045,-2.044157 1.2031,-3.567439 1.35712,-4.074213 0.41068,-1.355356 -0.40234,-2.777267 -1.77869,-3.110858 -1.31241,-0.273758 -2.61296,0.514476 -2.97752,1.804626 -1.42032,4.627943 -3.2271,9.128325 -5.40126,13.453626 -0.11426,0.217012 -0.443976,0.120175 -0.422757,-0.124154 0.908327,-9.831162 2.835837,-25.613643 2.861667,-25.821126 0.41863,-3.277786 -4.509882,-3.880977 -4.894091,-0.598978 -0.08715,0.709523 -1.247257,8.491205 -2.333283,22.814404 -0.02801,0.369504 -0.367137,0.775003 -0.425319,0.133127 -0.269595,-2.984533 0.555109,-11.882912 0.94542,-14.977794 0.187947,-1.277441 -0.614168,-2.492077 -1.862806,-2.820836 -1.424452,-0.335637 -2.826423,0.634851 -3.013824,2.086265 -0.283414,2.20894 -2.481506,20.765316 2.437428,28.55952 0.282796,0.46375 0.378982,1.017561 0.269116,1.549511 -0.72609,3.826193 -2.145334,10.74619 -3.671278,17.217896 -0.06407,0.262348 -0.444337,0.239616 -0.476696,-0.02848 L 73.403392,79.14502 c 0.221781,-4.535226 1.270731,-32.544481 -6.13326,-40.408898 -0.911583,-1.026523 -2.467447,-1.159244 -3.539727,-0.301955 -1.077959,0.937702 -1.135306,2.592572 -0.124845,3.602644 3.510637,3.511227 4.831267,15.832969 5.019421,26.795424 0.0047,0.568539 -0.795658,0.696006 -0.967791,0.154134 -1.572031,-5.082367 -2.273917,-10.393843 -2.076008,-15.710099 0.2102,-3.280384 -4.710608,-3.595947 -4.920808,-0.315563 -0.04724,0.736741 -1.031003,17.827625 7.986698,27.540448 l 3.207498,16.038181 c -0.111438,6.484924 -4.938065,21.133944 -5.545031,22.315024 -0.606965,1.1811 -0.637536,-3.45146 -0.637536,-3.45146 1.580281,-3.32899 6.95964,-15.618089 4.267495,-23.411514 -0.418414,-1.246992 -1.71957,-1.968302 -2.998832,-1.662424 -1.390416,0.373916 -2.16631,1.854307 -1.682641,3.210454 1.18484,3.318546 0.08599,8.557784 -1.392617,13.057404 C 62.283057,97.966466 61.758631,90.746192 62.760937,89.296379 66.423438,85.022281 61.52827,66.201132 58.260025,55.29242 57.93649,54.133473 56.84091,53.363185 55.640853,53.450915 c -1.550039,0.146444 -2.578783,1.674141 -2.131627,3.165489 3.674927,12.251528 6.734407,26.996396 5.460322,29.527213 -3.662403,4.457326 -0.03757,21.905883 1.728594,29.341323 l 2.284181,15.10086 c 0.09418,0.62364 0.06692,1.25959 -0.08027,1.87287 -0.549178,2.29129 -1.085931,4.59095 -1.60513,6.88321 -0.106085,0.48443 -0.787794,0.50891 -0.928346,0.0333 -1.252982,-4.02135 -3.150994,-7.96884 -6.011374,-10.47432 -0.346604,-3.64134 -1.102954,-7.23195 -2.254696,-10.70369 -0.444506,-1.26404 -1.78342,-1.97664 -3.080189,-1.63935 -1.383298,0.4196 -2.110838,1.93348 -1.574264,3.27574 0.77137,2.16964 1.313413,4.41409 1.617259,6.69664 -1.136993,0.18597 -1.992549,1.13624 -2.058554,2.28645 -0.02062,1.20166 0.787739,2.2598 1.952546,2.55587 0.258877,0.0808 0.51126,0.18119 0.754984,0.30017 0.491292,4.8859 0.71682,10.00334 0.819181,13.60993 0.0143,0.36667 -0.375984,0.60947 -0.698578,0.43459 -1.442811,-0.79798 -2.944397,-1.68757 -4.395198,-2.62568 -0.13742,-0.0897 -0.22077,-0.2422 -0.221978,-0.40629 -0.01113,-0.88394 0.06945,-1.76665 0.240517,-2.63395 2.880596,-13.8269 -3.669897,-36.48203 -3.949959,-37.43927 -0.923098,-3.15507 -5.655356,-1.77024 -4.732259,1.38483 0.0493,0.16833 3.734883,12.91007 4.388296,24.57593 0.02159,0.42395 -0.521331,0.61646 -0.77165,0.27364 -5.55361,-7.69578 -14.126367,-21.96651 -12.752289,-35.202895 0.152274,-1.122012 -0.459517,-2.20857 -1.497839,-2.660204 -1.520489,-0.61947 -3.211552,0.386856 -3.3923,2.018715 -2.164366,20.023644 15.004125,40.860074 18.029683,44.357294 0.07729,0.0892 0.110314,0.20847 0.08994,0.32473 -0.09536,0.60341 -0.289134,1.6926 -0.313492,1.83244 -1.454036,-1.12147 -2.661385,-2.53054 -3.546728,-4.13929 -0.489099,-1.20837 -1.801514,-1.86335 -3.061157,-1.52773 -1.386386,0.43111 -2.101544,1.96126 -1.543004,3.30138 1.269549,3.04824 4.566392,6.04126 8.110852,8.56556 1.597538,12.70683 11.85333,29.17064 14.784513,33.66021 0.02169,1.13444 0.0872,2.18142 0.196537,3.14092 -0.369701,1.42143 -0.702719,2.70202 -1.072421,4.12342 l -1.562893,2.7536 c -16.722168,20.54512 -25.541553,37.57775 -29.389053,43.45117 -1.772215,2.67645 -3.143735,5.1082 -0.46985,6.88428 2.673882,1.77608 4.255806,-0.23032 6.035767,-2.90164 l 32.807317,-46.58405 c 0.639538,-0.95096 2.757083,-1.05158 3.895979,-1.17913 7.729909,-0.84808 19.575739,-1.23662 31.305209,1.93281 0.14497,0.0395 0.29326,0.0656 0.44299,0.078 0,0 4.955898,0.7189 5.192568,0.84265 0.71071,0.37127 12.7525,6.6352 26.44053,12.0756 l 25.47695,22.70879 c 1.04667,0.93338 2.66018,0.80628 3.54781,-0.27947 0.82138,-1.08041 0.65726,-2.614 -0.37413,-3.49614 l -14.8216,-13.21065 c -0.3283,-0.29243 -0.0315,-0.82689 0.39031,-0.70271 1.12782,0.33778 2.2425,0.65309 3.34407,0.9459 2.13884,0.56604 4.27294,1.19322 6.37724,1.85719 4.27835,4.37793 23.41339,23.38724 35.07599,25.50901 0.14646,0.0263 0.29497,0.0396 0.44377,0.0395 1.37134,-0.002 2.47793,-1.12196 2.46435,-2.49325 -0.0468,-1.21294 -0.94177,-2.22492 -2.13992,-2.41957 -6.01383,-1.16265 -15.36209,-8.38696 -22.91242,-15.1129 -0.35377,-0.32414 0.009,-0.89652 0.45282,-0.71554 9.8433,3.92818 16.98646,7.58406 17.10017,7.64254 2.92243,1.50491 5.1798,-2.87875 2.25736,-4.38366 -8.87476,-4.44307 -18.03551,-8.29034 -27.42143,-11.51627 -0.41214,-0.13512 -0.35119,-0.73619 0.0797,-0.78585 3.4002,-0.38726 7.90179,-0.72057 13.83161,-0.88091 1.31222,1.7e-4 2.4172,-0.98113 2.57203,-2.28419 0.10829,-1.43008 -1.02276,-2.65018 -2.45695,-2.65033 -0.0213,0 -0.0433,0 -0.0654,9.9e-4 -14.13277,0.37206 -20.90889,1.73559 -24.04667,2.7456 -0.85519,0.27706 -1.77384,0.29132 -2.63722,0.0409 -9.69519,-3.01329 -19.1695,-6.69598 -28.3546,-11.02153 -0.43704,-0.20592 -0.25754,-0.86471 0.22356,-0.82046 l 6.95372,0.56742 c 3.463,1.25002 22.34984,7.92664 30.5162,7.92664 0.50305,0.003 1.00576,-0.028 1.50426,-0.0955 1.21283,-0.1553 2.14,-1.15745 2.20074,-2.37866 0.0489,-1.55453 -1.33731,-2.76477 -2.87102,-2.50646 -3.36814,0.56023 -13.7192,-2.27274 -22.53947,-5.14121 -0.64217,-0.20398 -0.68976,-1.09444 -0.073,-1.36569 7.3458,-3.20178 17.19097,-6.78855 21.95932,-5.93278 1.34018,0.23721 2.6291,-0.62424 2.9225,-1.95324 0.14521,-0.76914 -0.085,-1.56141 -0.61968,-2.13301 7.31947,-0.31832 16.73686,-0.85468 17.29678,-0.88643 3.28165,-0.18781 3.0004,-5.11078 -0.28125,-4.92299 -0.19456,0.012 -19.50218,1.11138 -24.39429,1.11138 -2.09314,-0.15924 -4.15883,-0.57468 -6.1508,-1.23701 -0.31361,-0.0886 -0.29484,-0.5393 0.0251,-0.60153 13.31784,-2.44561 33.53023,-6.73865 38.19533,-8.4346 1.37473,-0.50047 2.01414,-2.0807 1.37428,-3.39635 -0.60647,-1.14463 -1.97146,-1.65707 -3.18137,-1.19441 -1.23849,0.43598 -3.5698,1.05615 -6.55967,1.77505 -0.3239,0.0788 -0.52871,-0.33742 -0.26871,-0.54603 1.16166,-0.91611 2.25351,-1.7992 3.14379,-2.55803 1.01732,-0.82707 1.24721,-2.28817 0.53301,-3.38766 -0.83555,-1.19268 -2.51758,-1.40463 -3.62286,-0.45648 -3.12605,2.6803 -9.56757,7.50527 -11.79052,9.19481 -0.5255,0.40037 -1.1339,0.67811 -1.78066,0.81287 -3.7045,0.7756 -7.51365,1.54429 -11.09253,2.23961 -0.31475,0.0588 -0.46636,-0.37092 -0.1844,-0.52266 7.28694,-4.03003 15.18133,-8.60204 18.39583,-11.17842 1.06256,-0.81007 1.32507,-2.30023 0.60332,-3.42464 -0.8195,-1.18259 -2.47362,-1.41453 -3.58676,-0.50293 -5.45628,4.46483 -28.61277,16.6558 -32.04127,18.45145 -1.58669,0.13559 -4.08141,0.36181 -7.034,0.63527 -0.44637,0.0441 -0.68483,-0.51206 -0.34514,-0.80498 3.79356,-3.21844 8.59997,-6.64053 12.19976,-7.22146 1.17396,-0.14072 2.1001,-1.06486 2.24336,-2.23852 0.14594,-1.58634 -1.22944,-2.89198 -2.80605,-2.66375 -8.41004,1.20091 -20.51848,13.71899 -20.57736,13.79779 -3.58026,0.33815 -7.17521,0.68043 -10.25668,0.9742 -0.44725,0.0431 -0.69402,-0.50594 -0.36487,-0.81179 3.8905,-3.62552 8.74849,-8.19072 12.16741,-11.53529 0.72571,-0.71308 1.60827,-1.24635 2.57707,-1.55711 4.15981,-1.33395 13.34327,-4.89674 17.65554,-11.43156 0.76231,-1.09804 0.55869,-2.59666 -0.469,-3.45147 -1.14464,-0.8769 -2.79424,-0.58857 -3.57356,0.62462 -1.8366,2.55869 -4.25398,4.64518 -7.05362,6.0881 -0.31725,0.17657 -0.65143,-0.20367 -0.43557,-0.49564 2.70685,-3.62216 5.49277,-7.5816 7.7167,-10.80969 12.3457,-2.64157 24.82572,-5.1992 32.17961,-6.4157 0.031,0.002 0.0596,0.0124 0.0911,0.0141 18.39463,0.96879 38.91668,2.71187 41.40025,3.94168 l 3.90313,2.22935 c 1.35881,0.77537 3.08691,0.10661 3.5698,-1.38147 0.34466,-1.1441 -0.15848,-2.37331 -1.20644,-2.94736 l -3.82077,-2.18222 c -2.02976,-1.15999 -10.50371,-2.17718 -19.65188,-2.96718 -0.39583,-0.032 -0.43644,-0.59609 -0.0493,-0.68457 11.71448,-2.68228 24.38374,-6.09154 25.25399,-6.32605 3.17411,-0.85643 1.88947,-5.61758 -1.28464,-4.76115 -9.68314,2.61325 -67.0419,14.84388 -66.14294,13.76505 0.82194,-0.98614 4.43759,-2.46534 4.43759,-2.46534 l 3.15514,-1.9411 c 0.62341,-0.38352 1.31595,-0.64115 2.03844,-0.75833 l 30.22767,-4.9005 0.27612,-0.0611 21.65352,-6.10732 c 1.1622,-0.30553 1.94883,-1.38681 1.88174,-2.58664 -0.12201,-1.55132 -1.63071,-2.60476 -3.12911,-2.18486 l -7.43673,2.0975 c -0.26675,0.0755 -0.45732,-0.25564 -0.25807,-0.4484 l 9.4234,-9.11917 c 0.95269,-0.88341 1.09223,-2.34049 0.32454,-3.388649 -0.90304,-1.150454 -2.60304,-1.267056 -3.65472,-0.250686 l -16.86013,16.316375 -3.14862,0.88803 -12.43356,2.01595 c -0.37933,0.0615 -0.52776,-0.47367 -0.1709,-0.61624 l 19.5,-7.80031 c 1.25879,-0.47419 1.93584,-1.84176 1.54971,-3.13029 -0.45152,-1.34146 -1.93816,-2.02719 -3.25168,-1.49991 l -15.8383,6.33551 c -0.39717,0.1616 -0.69681,-0.37828 -0.34957,-0.62984 7.65623,-5.51319 19.25416,-12.442249 31.25058,-14.33603 1.34081,-0.170287 2.32196,-1.34795 2.24739,-2.69747 -0.13007,-1.41297 -1.42677,-2.422219 -2.82842,-2.201435 -5.33762,0.883665 -10.53764,2.457721 -15.46928,4.682552 -0.33164,0.138247 -0.6097,-0.283859 -0.35177,-0.533989 1.70778,-1.660408 3.51287,-3.21771 5.4057,-4.663623 0.75313,-0.545615 1.2165,-1.404748 1.2587,-2.333791 0.0658,-0.729688 -0.26326,-1.438949 -0.86286,-1.859944 l 10.1189,-1.556614 c 6.84753,-0.531624 22.55063,-2.325896 25.71838,-7.698249 0.74137,-1.135967 0.47452,-2.652248 -0.61013,-3.466849 -1.27001,-0.888167 -3.03486,-0.397541 -3.66427,1.018676 -0.73526,1.489843 -7.13112,3.315274 -14.84762,4.444397 -0.36804,0.05529 -0.55271,-0.429241 -0.24122,-0.632895 l 9.75761,-6.313226 c 0.3192,-0.205343 0.58597,-0.482454 0.77904,-0.809228 0.1495,-0.254029 0.30984,-0.519105 0.4762,-0.789697 4.11777,-1.586045 8.12452,-3.446515 11.99326,-5.568888 1.28227,-0.719269 1.65453,-2.393484 0.79788,-3.588343 z M 83.557289,68.241355 c 1.800083,-1.635614 3.319783,-3.555312 4.498643,-5.682699 -1.00505,1.982129 -2.06929,3.947198 -3.18048,5.825389 -0.288749,0.286575 -0.501494,0.640632 -0.618993,1.030121 -0.434586,0.710009 -0.874693,1.406813 -1.321413,2.081621 0.246233,-1.211369 0.456177,-2.304686 0.622243,-3.254432 z m 96.022131,24.981624 c -2.31989,3.191332 -4.72359,5.150677 -7.06132,5.745025 z m -0.88753,-12.914403 c -0.81162,1.402382 -1.70735,2.754377 -2.68227,4.04857 -0.26984,0.354372 -0.83025,0.07316 -0.70735,-0.355011 0.81113,-2.858472 1.4717,-5.757556 1.97897,-8.685272 0.55518,2.230334 1.08583,3.982501 1.41056,4.991507 z M 163.87553,67.438342 c 2.81512,-2.402222 9.20645,-8.727285 11.28611,-10.796983 -0.0878,1.549907 -0.091,3.11224 -0.0241,4.659187 -0.81137,-0.168021 -1.65279,0.08374 -2.23853,0.669782 -0.25324,0.253239 -6.23937,6.245181 -9.6081,10.176208 -0.49154,0.450403 -1.07122,0.793885 -1.70236,1.008717 z m -13.11558,1.393897 c 1.24361,-1.734606 3.44486,-4.815387 4.67506,-6.59881 1.56132,-0.774519 3.06365,-1.662619 4.49489,-2.657138 -0.15865,1.746247 -0.31704,3.465867 -0.46179,5.019421 -1.29716,0.869081 -5.91395,3.455414 -8.25167,4.755234 -0.33188,0.183673 -0.68101,-0.212636 -0.45699,-0.518707 z m 5.94915,3.247044 -1.13198,2.829223 c -1.64942,0.376208 -3.47257,0.739598 -5.38617,1.079325 l -0.007,-0.112394 c 2.17423,-1.247162 4.45783,-2.57104 6.52446,-3.796123 z m -3.34358,8.358076 -2.52846,6.320433 -0.3474,-5.790875 c 0.94963,-0.163006 1.91349,-0.340017 2.87545,-0.529558 z m -5.69602,25.749831 2.95042,-5.64403 0.10346,-0.22484 8.50045,-21.250495 c 3.5704,-1.000931 6.54133,-2.230939 7.81157,-3.712501 2.53565,-2.959298 6.76951,-7.289703 8.53282,-9.074999 0.0517,0.407208 0.10649,0.810372 0.16419,1.209493 -1.32033,1.892092 -2.27511,3.31519 -2.58367,3.778473 -0.21237,0.318204 -0.34744,0.681617 -0.39445,1.061279 -0.0179,0.143873 -1.57092,12.147789 -6.33858,20.886311 -1.28808,1.076863 -3.12071,2.595607 -5.41387,4.464231 -0.17879,0.149003 -0.44191,-0.02572 -0.37395,-0.248307 l 0.70233,-2.150757 c 0.43059,-1.228812 -0.12913,-2.585152 -1.30101,-3.152678 -1.33557,-0.592526 -2.89051,0.09996 -3.34358,1.489059 l -3.19408,9.782451 c -1.6013,1.12943 -3.28097,2.29888 -5.01943,3.49625 -0.47376,0.33075 -1.07245,-0.19767 -0.8031,-0.70884 z m 19.95186,-2.63564 c -0.0511,0.0371 -0.10582,0.0654 -0.15482,0.10708 l -11.34203,9.67397 c -0.27174,0.2317 -0.67659,-0.0395 -0.56573,-0.37897 l 0.89737,-2.74944 c 3.15806,-2.34712 6.17507,-4.87827 9.03536,-7.58031 0.67811,0.37771 1.39143,0.68841 2.12985,0.92766 z m -17.99309,11.67651 -1.44884,4.4376 -6.34547,1.67928 c -0.32054,0.0889 -0.51984,-0.33841 -0.24565,-0.52679 2.59945,-1.76674 5.33755,-3.66181 8.03996,-5.59018 z m -16.37969,-72.885148 0.4411,20.278067 -1.82602,3.803814 c -0.112,0.242635 -0.47448,0.170867 -0.48557,-0.09616 -0.21449,-7.826155 -0.0436,-18.105713 1.8704,-23.986423 z m 7.12856,40.02343 c 1.3087,-0.141217 3.13147,-0.354516 5.21872,-0.643553 l 0.93575,15.595805 c 0.002,0.04986 0.0169,0.09585 0.0229,0.144864 l -0.36281,0.907241 -8.14812,15.587121 c -0.3846,0.2564 -0.90882,0.60559 -1.42211,0.94669 -0.64876,0.4312 -1.49257,-0.14642 -1.32536,-0.90724 l 2.72055,-12.39382 c 0.3037,-1.38074 -0.61411,-2.733349 -2.00935,-2.961267 -1.33451,-0.171168 -2.57372,0.720091 -2.83601,2.039717 l -2.90911,13.25266 c 0.0458,-3.01478 -4.32728,-3.45349 -4.88136,-0.48972 -0.28125,1.50139 -1.96744,7.16968 -5.07031,7.48071 -0.9101,0.10469 -1.8106,0.28059 -2.69322,0.52601 6.46903,-12.96194 15.1124,-29.034743 22.75977,-39.085712 z m -10.59235,33.743628 -0.84936,3.86968 c -0.37151,0.24326 -0.74148,0.48544 -1.10989,0.72659 0.83292,-1.44905 1.49061,-2.99195 1.95925,-4.59627 z m -15.24918,11.61172 c 1.64979,-0.70369 3.35506,-1.26943 5.09832,-1.69142 -2.19406,1.41638 -4.27795,2.75447 -6.2028,3.98457 0.35522,-0.74217 0.72336,-1.50655 1.10448,-2.29315 z m -5.90557,-41.371772 c 0.1446,0.814396 0.36376,1.613761 0.6547,2.38803 0.49129,1.518648 1.2153,3.785669 1.88608,6.589939 -0.21139,-0.06386 -0.43064,-0.0979 -0.65144,-0.101048 -1.35381,-0.01762 -2.46128,1.073846 -2.46336,2.427759 -0.12867,0.566619 -0.33495,1.112777 -0.61298,1.622985 -0.30571,-3.260757 -0.57522,-6.586196 -0.78892,-9.893394 0.73725,-0.958112 1.39789,-1.972793 1.97583,-3.034627 z m -2.06101,45.045812 c 0.0696,0.43123 0.13461,0.82915 0.18815,1.15377 -0.44494,0.95135 -0.85179,1.82709 -1.22054,2.62716 -2.37408,1.78037 -4.7408,3.65355 -7.100158,5.61959 0.10042,-0.20177 0.20245,-0.40126 0.30117,-0.60578 0.61184,-1.19942 0.18869,-2.66779 -0.96759,-3.3577 -1.24984,-0.68861 -2.82148,-0.17716 -3.42663,1.11513 -2.64436,5.70633 -7.24279,10.27847 -12.964214,12.89005 -0.253998,0.11927 -0.484224,-0.20225 -0.289528,-0.40431 4.486312,-4.74745 8.407582,-9.47833 8.973032,-12.02383 0.12517,-0.50919 0.2853,-1.00912 0.47926,-1.49626 3.03418,0.006 6.03591,-0.62436 8.81102,-1.85118 0.851318,-0.42561 1.831638,-0.92933 2.902578,-1.4782 1.27024,-0.65166 2.74717,-1.4088 4.31315,-2.18885 z m -30.713241,17.34422 c -0.413585,-0.35381 5.864931,-8.75233 8.575215,-12.10489 0.294668,0.0345 0.624328,0.0696 0.979928,0.10312 -0.0571,0.20394 -0.11893,0.4123 -0.16134,0.60313 -0.34909,1.57012 -8.980121,11.75234 -9.393803,11.39861 z m 27.786681,-34.24231 c 0.1529,-0.2132 0.48805,-0.12709 0.51921,0.13342 0.50924,4.011 1.01572,7.62281 1.45611,10.60488 0.0914,0.62673 -0.2316,1.24093 -0.79974,1.52081 -1.68372,0.83576 -3.31469,1.67141 -4.81391,2.44088 -1.053588,0.54031 -2.018518,1.03545 -2.856338,1.45514 -1.10886,0.51863 -2.28869,0.8694 -3.50079,1.04077 -0.25471,-0.35007 -0.17602,-0.2417 -0.43073,-0.59168 1.19114,-2.39464 2.43575,-4.85177 3.51063,-7.20667 0.0451,-0.0504 0.102,-0.09 0.1428,-0.14417 1.9844,-2.62105 4.410578,-5.89471 6.772758,-9.25338 z m -1.28631,-16.453053 c 0.25196,2.831283 0.53193,5.617513 0.82688,8.313103 -0.80862,1.22705 -1.68551,2.52451 -2.60999,3.86368 -0.19208,0.27971 -0.630301,0.11118 -0.585491,-0.22514 0.743951,-5.29554 2.306581,-11.587071 2.327881,-11.670404 0.0191,-0.09283 0.0326,-0.186643 0.0407,-0.281045 z M 98.364012,79.951886 c 0.32,-0.2418 0.80004,-0.611406 1.387477,-1.083659 -0.997967,1.090167 -2.122057,2.383189 -3.381557,3.899169 z m 3.070218,4.526354 c 0.0473,1.072782 0.10166,2.149839 0.1631,3.231169 -1.57847,1.637025 -3.532628,2.864074 -5.692848,3.574639 1.87809,-2.404689 3.785177,-4.755332 5.529748,-6.805711 z m -31.082942,38.44383 c 0.05421,-0.21367 0.150575,-0.41437 0.283415,-0.59029 2.20529,-2.9091 7.253605,-9.74044 11.691111,-16.97935 0.115981,-0.0752 0.225496,-0.1598 0.327387,-0.25314 l 6.717061,-7.736815 c 0.53811,-0.621172 1.3019,-1.001847 2.12186,-1.057535 2.43368,-0.166352 7.77943,-0.739598 10.508148,-2.563943 0.0828,1.080413 0.17024,2.1573 0.26222,3.230675 -0.75578,-2.361775 -4.135318,-2.248733 -4.731568,0.158274 -0.1165,0.467027 -2.86119,11.512914 -2.86119,17.326374 0,1.45947 -0.85586,3.83863 -2.00815,6.45226 -0.91534,0.76406 -2.62786,2.2686 -4.8434,4.50338 -0.21712,0.21874 -0.57581,-0.0261 -0.45125,-0.30796 1.62958,-3.61005 3.08186,-6.31698 3.88703,-6.92365 4.05814,-2.70604 4.06781,-13.71347 3.8839,-18.320484 -0.0686,-1.353842 -1.20669,-2.404594 -2.56168,-2.365154 -1.3603,0.05468 -2.41894,1.201349 -2.36515,2.561688 0.25325,6.32802 -0.56525,13.02001 -1.692,14.02154 -2.213,1.47535 -4.947045,7.59056 -7.283296,13.22898 -0.902308,-0.89738 1.313337,-7.75012 3.962876,-11.96466 0.71501,-1.0736 0.52211,-2.51109 -0.45067,-3.35819 -1.144537,-0.92848 -2.842658,-0.65196 -3.6335,0.59169 -7.501911,11.79002 -4.589956,22.60692 -3.747304,25.12018 -2.910044,3.95491 -5.588754,8.07494 -8.022692,12.3394 -1.56174,2.73365 -5.579743,12.11455 -7.547967,17.19225 -0.147429,0.38653 -0.725556,0.24178 -0.673431,-0.16863 1.209887,-9.26295 3.857854,-23.20925 9.228338,-44.13679 z m -12.495005,30.79698 c 0.01616,0.33791 0.102228,0.66884 0.252745,0.97182 -0.113899,0.61358 -0.220203,1.2163 -0.328481,1.82188 l -2.232903,-6.76981 c -0.0062,-1.2645 -0.04724,-5.21211 -0.295249,-10.02502 1.456813,4.53819 2.331832,9.2429 2.604085,14.00141 z m -2.909688,15.57568 c -3.469654,-5.94896 -6.288563,-12.25425 -8.407974,-18.80686 -0.113922,-0.42606 0.341522,-0.77888 0.725598,-0.5621 1.472297,0.81495 2.747269,1.46648 3.630156,1.90079 0.11642,0.0572 0.20418,0.15975 0.242687,0.2836 l 4.868443,14.76105 c 0.02229,0.0675 -0.05128,1.15515 -0.136284,2.22215 -0.03777,0.48709 -0.684846,0.62856 -0.922429,0.20166 z m 10.279656,3.24437 c 0.903589,-3.36292 2.032434,-6.66123 3.37889,-9.87257 1.172118,-1.0811 2.74737,-2.55142 4.522213,-4.2537 2.495954,-0.37681 4.948356,-1.00037 7.321156,-1.86152 0.323533,-0.12471 0.587298,0.28146 0.341793,0.5263 -5.097226,5.14022 -10.050577,10.49138 -14.785894,15.87134 -0.312204,0.36316 -0.900578,0.054 -0.778552,-0.40914 z m 64.587819,2.64599 c 1.68995,-0.15243 3.39249,0.0797 4.97998,0.67888 4.01543,1.57558 8.15039,2.82772 12.36533,3.74444 -3.98724,0.97594 -7.89609,2.2481 -11.69397,3.80589 -0.15081,-0.24762 -0.34448,-0.4664 -0.57195,-0.64612 -0.88521,-0.64639 -1.83373,-1.20129 -2.831,-1.65612 0.57364,-0.42368 0.93438,-1.07614 0.98811,-1.78727 0.0515,-1.36111 -0.96814,-2.52587 -2.32412,-2.65467 -3.10002,-0.31557 -6.23036,-0.14219 -9.27656,0.51378 -1.03397,-0.32168 -3.48314,-0.76317 -4.50783,-1.06344 0.16429,-1.14984 9.8859,-0.66535 12.87171,-0.93466 z m -8.63853,7.08874 c 3.07387,0.921 6.08107,2.05145 9.00045,3.38343 -1.59961,0.71671 -2.98927,1.37249 -4.0678,1.89495 -1.05594,0.51102 -2.22964,0.72945 -3.39872,0.6325 l -12.66107,-1.03307 c -0.44293,-0.0344 -0.55411,-0.63322 -0.15305,-0.82431 3.61218,-1.7311 7.39159,-3.08904 11.2795,-4.0527 z m -8.48667,-2.49936 c -4.13731,1.609 -8.13773,3.54989 -11.96218,5.80369 -0.787291,0.46587 -1.699768,0.67584 -2.611488,0.60095 -6.52506,-1.68903 -13.2308,-2.58089 -19.970497,-2.65605 -0.298095,-0.009 -0.342566,-0.43349 -0.05256,-0.50292 l 19.460657,-4.79054 c 0.6621,-0.0638 6.771388,-0.60589 6.817338,-0.59504 2.41742,0.57491 5.31527,1.31569 8.31834,2.1405 z m -7.6659,-14.88756 c -0.0351,0.0917 -6.249028,6.03513 -7.991138,7.64637 -0.72267,0.66844 -1.60355,1.14198 -2.55971,1.37606 l -21.569213,5.30935 c -0.36861,0.0946 -0.84142,-0.33865 -0.381633,-0.62955 6.176846,-6.83697 16.904886,-18.35954 30.540574,-31.59987 0.95842,-0.93032 2.155,-1.57813 3.45796,-1.87208 1.61726,-0.36427 3.39319,-0.76238 5.29061,-1.18543 -1.82389,7.11985 -4.091,14.11873 -6.78804,20.95574 z m 7.61798,-44.55423 c -0.65273,1.3156 -1.27212,2.58052 -1.87306,3.81576 l -0.31734,-0.0453 c -0.61358,-4.2108 -1.35041,-9.62466 -2.04011,-15.61414 -0.067,-0.59936 0.0699,-1.2038 0.38852,-1.71588 1.27983,-1.99312 2.41616,-4.07481 3.40041,-6.2293 0.12226,0.80025 0.23389,1.62297 0.32778,2.47303 0.47747,5.76088 0.51531,11.54977 0.11323,17.3164 z m 0.3057,37.23278 c 0.0512,-0.67462 3.67345,-12.12759 3.98073,-14.77012 3.08512,-0.68182 6.37643,-1.40347 9.75542,-2.13735 -3.89788,5.51821 -11.7131,16.8909 -13.73655,16.90816 z m 63.79961,-53.32322 c -0.39065,0.48525 -0.85109,0.90989 -1.36629,1.26009 -4.15211,2.81927 -8.10026,5.92781 -11.81507,9.30248 l -14.14293,10.88189 -10.98495,4.53622 c -0.76512,-1.81225 -3.24099,-2.04097 -4.32517,-0.39958 -0.031,0.0469 -0.80391,1.21294 -2.03145,3.02457 l -8.00562,3.30632 c -0.0272,0.0112 -0.0493,0.0288 -0.0758,0.0407 -2.94548,0.64217 -5.74167,1.25733 -8.29427,1.82209 l -0.16183,-0.39633 c 2.9177,-1.94794 5.79192,-3.91144 8.62265,-5.89048 l 7.70103,-2.64748 18.87133,-4.99427 c 0.0154,-0.003 0.0288,-0.0127 0.0441,-0.017 0.15664,-0.0436 0.3086,-0.10244 0.45363,-0.17602 0.0217,-0.0113 0.0413,-0.0259 0.0626,-0.0378 0.12466,-0.0695 0.24312,-0.14967 0.35403,-0.23953 0.017,-0.0141 0.0378,-0.0226 0.0547,-0.0371 l 18.959,-16.171 c 0.97528,-0.8351 1.14353,-2.28015 0.38617,-3.31696 0.44722,-9.5e-4 0.89395,-0.0298 1.33759,-0.0863 3.29797,-0.55006 6.30784,-2.21373 8.528,-4.713725 -1.88065,2.127785 -3.35286,3.926395 -4.17194,4.949905 z m 4.32912,-34.703432 c -0.0525,-0.279959 -0.10233,-0.567621 -0.15236,-0.853991 0.0954,-0.134119 0.18826,-0.266258 0.28431,-0.400763 -0.0463,0.427381 -0.0926,0.855271 -0.13254,1.255744 z m 1.30268,28.127795 c 1.09569,-1.342856 2.09352,-2.76267 2.98582,-4.248469 0.88893,-1.41944 0.11076,-3.291614 -1.5223,-3.662897 l 0.88338,-0.71869 c 0.11042,-7e-4 0.22064,-0.0097 0.32987,-0.02523 l 7.76088,-1.193815 c -3.74909,2.985155 -7.24074,6.280016 -10.43814,9.849802 z m 20.52391,-20.685048 c -0.72032,1.143742 -1.36857,2.331316 -1.941,3.555796 -0.32081,0.698106 -0.97087,1.188335 -1.73027,1.304853 l -5.40737,0.8319 c -0.43641,0.06724 -0.68177,-0.485207 -0.33923,-0.76385 l 4.3883,-3.569811 c 0.12736,-0.03827 0.25138,-0.08691 0.37078,-0.145455 1.34189,-0.694618 2.72131,-1.314172 4.1319,-1.855803 0.39291,-0.148436 0.74952,0.287215 0.5264,0.643058 z m 5.91445,-7.553785 3.12456,-2.545607 c -1.02855,0.833777 -1.96607,1.673267 -2.83316,2.50833 -0.0969,0.01593 -0.19595,0.02269 -0.292,0.03839 z m 1.50326,5.820657 c 0.33991,-0.388149 0.70469,-0.782502 1.08386,-1.179524 0.27444,-0.02391 0.5477,-0.04056 0.82174,-0.05348 z m 1.76429,-8.482825 4.15162,-3.383032 c 0.22149,-0.01135 0.48537,-0.03402 0.76849,-0.06361 -1.71052,1.045503 -3.35397,2.196993 -4.9207,3.447722 z m 8.72906,0.602626 c -0.69866,0.242589 -1.3884,0.464766 -2.06931,0.666528 0.56289,-0.363983 1.14392,-0.724217 1.7503,-1.078041 1.67373,-0.967724 1.62441,-3.40046 -0.0872,-4.299543 1.94735,-0.544119 3.84441,-1.25441 5.67026,-2.123049 -1.95631,2.115945 -3.71831,4.403593 -5.26468,6.835288 z"
     id="path37958"
     sodipodi:nodetypes="cccccccccccccccccccccccccccccccccccccccccccccccccccccccscccccccccccccccccccccccccccccccccccccccccccccccccccccccccccccccccccccccccccccccccsccccccccccccccccccsccccccccccccccccccccccccccccsccccccccccccccccccsccccccccccccccccccccccccccscccccccccccccccccccccccccccccccccccccccccccccccccccccccccccccccccccccccccccccccccccccccccccccccccccccccccccccccccccccccsccccccccccccccccccccccccccccccccccsccccccccccccccccccccccccccccccccccccccccccccccccccccccscccccccsccccccccccccccccccccccccccccccccccccscccccccccccccccccccscccccccccccccccccccccccccsccccccssccccccccccccccccccccccccccccccccccccccsccccccccccccccccccccccccccccccccccccccscccccccccccccccccccccccccscccccccccccccccccccccccccc"
     style="fill:#008000;stroke:#000000;stroke-width:2.81125;stroke-linecap:round;stroke-linejoin:round;stroke-dasharray:none;paint-order:normal" />
  <metadata
     id="metadata38466">
    <rdf:RDF>
      <cc:Work
         rdf:about="">
        <dc:title>Vegetable Line</dc:title>
      </cc:Work>
    </rdf:RDF>
  </metadata>
</svg>
