<?xml version="1.0" encoding="UTF-8" standalone="no"?>
<svg
   version="1.1"
   x="0px"
   y="0px"
   viewBox="0 0 100 125"
   style="enable-background:new 0 0 100 100;"
   xml:space="preserve"
   id="svg17421"
   sodipodi:docname="fennel.svg"
   inkscape:version="1.2.2 (b0a8486541, 2022-12-01)"
   xmlns:inkscape="http://www.inkscape.org/namespaces/inkscape"
   xmlns:sodipodi="http://sodipodi.sourceforge.net/DTD/sodipodi-0.dtd"
   xmlns="http://www.w3.org/2000/svg"
   xmlns:svg="http://www.w3.org/2000/svg"><defs
     id="defs17425"><inkscape:path-effect
       effect="fill_between_many"
       method="originald"
       linkedpaths="#g17415,0,1|"
       id="path-effect17544" /></defs><sodipodi:namedview
     id="namedview17423"
     pagecolor="#ffffff"
     bordercolor="#000000"
     borderopacity="0.25"
     inkscape:showpageshadow="2"
     inkscape:pageopacity="0.0"
     inkscape:pagecheckerboard="0"
     inkscape:deskcolor="#d1d1d1"
     showgrid="false"
     inkscape:zoom="6.304"
     inkscape:cx="50.206218"
     inkscape:cy="62.5"
     inkscape:window-width="1857"
     inkscape:window-height="1011"
     inkscape:window-x="0"
     inkscape:window-y="0"
     inkscape:window-maximized="1"
     inkscape:current-layer="svg17421" /><path
     inkscape:original-d="M 0,0"
     inkscape:path-effect="#path-effect17544"
     d="M 0,0"
     id="path17546"
     class="UnoptimicedTransforms" /><g
     id="g17415"
     class="UnoptimicedTransforms"><path
       d="M81.6,10.1c0.2-0.5-0.1-1.1-0.7-1.2l-7.4-2.3c-0.3-0.1-0.5-0.1-0.8,0.1c-0.2,0.1-0.4,0.4-0.5,0.6l-6.4,24.5L67.1,2   c0-0.3-0.1-0.5-0.3-0.7C66.6,1.1,66.4,1,66.1,1H58c-0.5,0-1,0.4-1,1l-0.8,38.5c-0.6,0.7-1.2,1.4-1.8,2.1L51.7,9.4   c0-0.5-0.5-0.9-1.1-0.9l-7.9,0.6c-0.5,0-1,0.5-0.9,1.1l1.7,23.8L40,33L37.7,7.1c-0.1-0.5-0.5-1-1.1-0.9l-7.7,0.6   c-0.3,0-0.5,0.2-0.7,0.4C28,7.4,27.9,7.7,28,8c0,0.3,3.7,27.5,3.5,33.7c-0.1,2.4-0.8,7.2-1.6,12.6c-1.2,8.6-2.8,19.3-3.1,27.8   c-0.4,10.6,4.8,16.2,15.3,16.7c2.9,0.1,6.1,0.2,9.1,0.2c4.7,0,9-0.3,11.3-1.1C69,95.5,72.6,90,72.8,82.2c0.1-4.2,0-11.1-0.1-17.8   c-0.1-9.5-0.2-19.3,0.1-22C73.3,37.7,81.5,10.4,81.6,10.1z M59,3h6l-1.2,29.2c-0.7,0.7-2.8,2.8-5.6,6L59,3z M31.8,54.6   c0.8-5.7,1.5-10.3,1.6-12.8c0.2-5.7-2.7-27.8-3.3-33l5.7-0.5l2.4,25.6c0,0,0,0,0,0c0,0,0,0,0,0c0,0.1,1.9,11.7,0.8,19.6   c-0.1,0.5,0.3,1.1,0.9,1.1c0,0,0.1,0,0.1,0c0.5,0,0.9-0.4,1-0.9c0.9-6.5-0.1-15.2-0.6-18.6l3.3,0.9c0.3,2.9,0.8,5.7,1.7,8.5   c0.1,0.4,0.5,0.7,1,0.7c0.1,0,0.2,0,0.3,0c0.5-0.2,0.8-0.7,0.7-1.3c-0.9-2.8-1.4-5.8-1.7-8.7c0,0,0,0,0,0L43.9,11l5.9-0.4l2.8,34.2   c-8.2,10-18.7,24.5-23.8,38.9c0-0.5,0-1,0-1.5C29.1,73.7,30.6,63.1,31.8,54.6z M70.8,82.1c-0.1,7.1-3.2,11.7-9,13.9   c-3.5,1.3-12.8,1-19.6,0.8c-7.1-0.3-11.3-3.1-12.8-8.5c6.3-22.6,28.2-46.6,34.4-53.2c0,1.4,0,3.1,0,4.6c0.1,4.4,2.8,15.2,6.8,21.9   c0,0.9,0,1.9,0,2.8C70.7,71,70.8,77.9,70.8,82.1z M70.8,42.1c-0.3,2.2-0.3,8-0.2,15c-2.7-6-4.6-13.8-4.7-17.3l8.1-31l5.4,1.7   C77.9,15.5,71.3,37.7,70.8,42.1z"
       id="path17407" /><path
       d="M64.2,70.3c-0.5-0.1-1.1,0.3-1.2,0.8c-1.8,9.9-4.2,14.7-9.5,18.9c-0.4,0.3-0.5,1-0.2,1.4c0.2,0.2,0.5,0.4,0.8,0.4   c0.2,0,0.4-0.1,0.6-0.2c5.7-4.5,8.3-9.7,10.2-20.1C65.1,70.9,64.8,70.4,64.2,70.3z"
       id="path17409" /><path
       d="M58.6,52.8c-0.4-0.3-1.1-0.3-1.4,0.2c-4.4,5.5-8.4,11.5-11.7,17.8c-0.3,0.5-0.1,1.1,0.4,1.4c0.2,0.1,0.3,0.1,0.5,0.1   c0.4,0,0.7-0.2,0.9-0.5c3.3-6.1,7.2-12,11.5-17.5C59.1,53.8,59,53.2,58.6,52.8z"
       id="path17411" /><path
       d="M37.5,78.2c-0.5-0.2-1.1,0.1-1.3,0.6c-1.3,3.8-1.7,8-1.2,12c0.1,0.5,0.5,0.9,1,0.9c0,0,0.1,0,0.1,0   c0.5-0.1,0.9-0.6,0.9-1.1c-0.5-3.7-0.1-7.5,1.1-11.1C38.3,79,38,78.4,37.5,78.2z"
       id="path17413" /></g><path
     style="fill:#7fff2a;stroke-width:0.158629"
     d="m 35.650728,8.236338 c -1.821955,0.132575 -3.647805,0.2777073 -5.458464,0.5152359 -0.278903,0.6517314 0.137347,1.5012741 0.100091,2.2145591 0.983832,9.348101 2.441824,18.663732 2.886782,28.050962 0.329203,5.29912 -0.895801,10.515373 -1.49893,15.759929 -1.305162,9.516226 -2.677145,19.044981 -3.048212,28.654316 0.64558,0.176079 0.759166,-1.577517 1.18244,-2.141229 C 35.24785,67.920563 43.6695,56.019848 52.667763,44.826139 51.882811,34.247652 50.966516,23.647952 50.056578,13.067215 c -0.186226,-0.780323 0.04599,-1.799659 -0.369624,-2.46073 -1.907403,0.02258 -3.838252,0.106221 -5.724291,0.375506 -0.20858,1.029775 0.105466,2.190669 0.09551,3.262477 0.591877,7.952143 1.108614,15.91504 1.934642,23.846005 0.2652,2.124687 0.996995,4.169135 1.282785,6.280227 -0.121535,0.825526 -1.422132,0.998447 -1.657863,0.13911 -1.134202,-2.683604 -1.408834,-5.637164 -1.846236,-8.49659 -0.976413,-0.416778 -2.130633,-0.76361 -3.224949,-0.843028 -0.425694,0.34622 0.05603,1.12236 -0.02201,1.61542 0.5961,5.362416 0.98766,10.807954 0.465678,16.193833 -0.0045,0.691583 -0.403833,1.736715 -1.282668,1.461126 -0.876563,-0.233206 -0.451775,-1.441318 -0.49796,-2.071903 C 39.63188,46.804523 39.228938,41.186751 38.550603,35.653184 37.513661,26.576924 36.808887,17.45847 35.870392,8.3689423 35.81151,8.2924078 35.751966,8.2143866 35.650728,8.236338 Z"
     id="path17617" /><path
     style="fill:#7fff2a;stroke-width:0.158629"
     d="M 58.971424,3.0861482 C 58.559003,14.443131 58.383615,25.808702 58.144642,37.170695 c -0.272895,1.259889 0.555519,0.863026 1.021351,0.08027 1.563896,-1.722442 3.214721,-3.386974 4.731619,-5.138416 C 64.302776,22.441953 64.656981,12.769041 65.113668,3.1007099 64.226021,2.7308055 63.0431,3.050064 62.042701,2.9433197 61.048478,3.042844 59.865797,2.746715 58.971424,3.0861482 Z"
     id="path17619" /><path
     style="fill:#7fff2a;stroke-width:0.158629"
     d="M 73.939289,8.7305059 C 71.183104,19.107844 68.485709,29.538561 65.773591,39.93961 c 0.614055,5.776086 2.353166,11.376635 4.518151,16.745939 0.639768,-0.183103 0.148533,-1.83375 0.324661,-2.5905 0.104151,-4.191994 0.0054,-8.407474 0.356292,-12.582579 2.188729,-10.189799 5.486704,-20.09947 8.17751,-30.16179 0.156524,-0.433264 0.301097,-1.065904 -0.358,-1.102821 -1.599829,-0.5414057 -3.2267,-1.1385815 -4.852916,-1.5173531 z"
     id="path17621" /><path
     style="fill:#e5ffd5;stroke-width:0.158629"
     d="m 63.541006,35.326653 c -3.528114,3.618875 -6.81329,7.476108 -10.046747,11.360159 -8.584823,10.57417 -16.497544,21.904857 -21.739187,34.541545 -0.940621,2.31763 -1.777024,4.691329 -2.456338,7.091683 0.872333,3.360242 3.427408,6.170663 6.674829,7.384635 4.218734,1.62588 8.840694,1.12612 13.262559,1.325177 4.285256,-0.05496 8.711327,0.251028 12.849644,-1.072052 3.842557,-1.360971 6.929064,-4.610235 8.015744,-8.54895 1.133327,-3.547552 0.570944,-7.325213 0.691526,-10.979822 -0.04658,-4.959655 -0.05011,-9.925264 -0.127338,-14.881114 -3.201689,-5.801894 -5.237989,-12.203628 -6.433477,-18.70341 -0.405398,-2.486365 -0.275303,-5.045131 -0.501913,-7.532413 l -0.133535,-0.01921 z m -5.470857,17.411129 c 0.808179,0.08415 0.946326,1.133111 0.429105,1.644542 -2.545737,3.623247 -5.198846,7.185181 -7.521989,10.965641 -1.423572,2.14229 -2.606397,4.436285 -3.947663,6.623019 -0.591517,0.496121 -1.41286,0.133526 -1.589704,-0.5961 1.123072,-2.735718 2.833068,-5.207251 4.339694,-7.74434 2.34576,-3.661297 4.806079,-7.268391 7.593144,-10.603696 0.192545,-0.165958 0.435568,-0.30276 0.697413,-0.289066 z m 6.007781,17.677269 c 1.10849,0.117833 0.637976,1.434211 0.520741,2.139851 -1.189183,6.044278 -3.02442,12.314235 -7.511591,16.768345 -0.915137,0.825827 -1.777499,1.839228 -2.901493,2.357445 -0.659981,0.05946 -1.36299,-0.882583 -0.646912,-1.336577 2.303213,-2.466818 4.918379,-4.802916 6.274905,-7.979716 1.660617,-3.533687 2.4861,-7.371058 3.313812,-11.162086 0.07924,-0.456456 0.457381,-0.850639 0.950538,-0.787262 z m -26.896056,7.870128 c 0.881824,-0.01761 0.956939,1.028276 0.651629,1.641025 -0.866324,3.061938 -1.274126,6.258158 -1.030233,9.443517 0.02359,0.775788 0.249198,2.020315 -0.808329,2.227317 -1.159254,-0.225799 -0.918497,-1.751372 -1.023655,-2.618004 -0.09755,-3.445387 0.153416,-6.993528 1.414032,-10.219826 0.11203,-0.350023 0.455129,-0.483843 0.796556,-0.474029 z"
     id="path17623" /></svg>
