<?xml version="1.0" encoding="UTF-8" standalone="no"?>
<svg
   version="1.1"
   viewBox="-5.0 -10.0 110.0 135.0"
   id="svg1203"
   sodipodi:docname="lavender.svg"
   inkscape:version="1.2.2 (b0a8486541, 2022-12-01)"
   xmlns:inkscape="http://www.inkscape.org/namespaces/inkscape"
   xmlns:sodipodi="http://sodipodi.sourceforge.net/DTD/sodipodi-0.dtd"
   xmlns="http://www.w3.org/2000/svg"
   xmlns:svg="http://www.w3.org/2000/svg">
  <defs
     id="defs1207" />
  <sodipodi:namedview
     id="namedview1205"
     pagecolor="#ffffff"
     bordercolor="#000000"
     borderopacity="0.25"
     inkscape:showpageshadow="2"
     inkscape:pageopacity="0.0"
     inkscape:pagecheckerboard="0"
     inkscape:deskcolor="#d1d1d1"
     showgrid="false"
     inkscape:zoom="6.251321"
     inkscape:cx="57.987744"
     inkscape:cy="92.300491"
     inkscape:window-width="1857"
     inkscape:window-height="1011"
     inkscape:window-x="0"
     inkscape:window-y="0"
     inkscape:window-maximized="1"
     inkscape:current-layer="svg1203" />
  <path
     d="m 93.112124,-7.9779301 c 2.370853,-0.183087 3.868455,1.6759542 4.351952,3.8402125 3.666544,-2.2206243 8.257904,0.084503 6.408164,3.66186066 -0.80279,1.55396834 -2.30043,2.42709904 -3.905953,2.94352604 3.431833,4.3519524 -0.6995,7.2297381 -5.417614,5.4646081 0.521103,2.5913898 -0.906073,4.3707018 -3.666547,4.4223798 -2.516396,0.05164 -0.953017,-0.474159 -2.084457,1.46948 -0.962403,1.643144 -2.92009,1.793373 -4.63835,1.539787 -0.441299,3.01864 -2.244059,3.49757 -5.074974,3.521005 -0.05634,3.018641 -2.830914,3.901265 -5.42699,3.272227 -0.46946,3.093755 -1.915479,3.403587 -4.840137,3.741662 0.05634,3.211175 -2.3098,3.948258 -5.121846,3.793222 0.07042,3.154807 -2.089143,3.901265 -4.882441,3.873142 0.394345,3.567998 -1.976412,3.727601 -4.713463,4.258089 -0.192485,2.675999 -2.168946,3.704046 -4.671158,3.807403 0.192485,5.41293 -7.037326,4.657097 -9.056043,1.201832 -0.49763,0.338014 -0.891987,0.718286 -1.314562,1.140802 5.74151,0.840345 5.788501,7.966822 -0.08451,7.27673 -2.084456,-0.248816 -3.234609,-1.300382 -4.478745,-2.891848 -0.94363,0.906074 -1.769937,2.009342 -2.619633,3.009267 -3.774471,4.445815 -7.375279,9.206271 -10.300057,14.266942 -0.58683,1.00466 -1.042216,2.051528 -1.788685,2.957588 0.49763,-0.366186 0.934231,-0.859117 1.380183,-1.291007 5.356564,-5.1829 12.281517,-8.520746 19.502121,-10.182759 1.675954,0.610302 0.779316,1.718258 0.06103,2.830915 -1.769937,2.736931 -3.952944,5.060792 -6.234501,7.370593 4.417693,-2.234686 9.229706,-3.962319 13.961678,-5.342502 1.150188,-0.333317 2.380227,-0.774618 3.572685,-0.863818 -0.934232,-1.798059 -1.577405,-3.417768 -1.117331,-5.473982 0.882601,-3.948256 3.915326,-5.365937 6.257937,-1.323938 1.107945,-2.229998 2.7558,-3.112502 5.22989,-2.629006 -0.272287,-4.469371 3.605495,-8.548988 6.41754,-3.610181 0.835646,-1.492916 1.896611,-2.21113 3.689984,-2.183008 -1.244136,-6.769677 5.079661,-7.760227 6.337739,-3.788534 1.079773,-1.478853 2.47409,-2.685372 4.427067,-2.694746 3.952944,-0.02347 4.018684,4.347264 1.459985,6.807294 2.046839,0.624387 3.854274,2.826227 2.413037,4.877753 -1.056301,1.511665 -2.915402,1.586779 -4.553859,1.896611 0.01878,1.018744 -0.02817,1.995281 -0.816874,2.751113 -1.225267,1.173661 -4.361326,1.441236 -5.591281,0.107976 1.187747,4.35664 -2.375541,4.877754 -5.689951,4.093679 0.366186,3.192305 -2.647756,3.816776 -5.206335,3.079693 0.427215,3.896578 -2.535143,5.004547 -5.802563,3.361403 -0.924845,7.661677 -9.182714,1.685328 -7.009082,-3.361403 -4.713463,0.929545 -11.234361,3.36609 -15.497619,5.34719 -2.610258,1.211206 -5.389493,2.779235 -8.102989,3.722913 5.426991,0.342715 10.544149,1.558655 15.483197,3.849588 1.469479,0.629086 5.121846,2.478777 6.201691,3.511631 -0.211258,1.690016 -2.600883,2.168946 -4.112547,2.680685 -12.154123,4.14067 -20.379458,0.295759 -30.824577,-4.835449 -0.751145,0.849731 -1.399053,1.802747 -2.051527,2.732244 -4.8073205,6.7978 -9.3141897,14.210457 -12.3932818,21.970685 -0.37557239,0.93893 -0.59621663,2.01872 -1.38955777,2.70412 -2.65244233,0.19717 -0.80278743,-2.86841 -0.27228688,-4.09849 C 2.562559,93.534432 7.0318099,85.463772 11.656579,79.202229 c 0.760531,-1.023432 1.600839,-2.060901 2.215937,-3.178244 l 0.04225,-0.07981 C 12.004095,74.178925 10.083929,71.099352 8.7694853,68.775491 4.3753494,60.98702 3.2955031,52.592827 5.3048451,43.874741 5.6053039,42.564986 5.506717,41.100193 6.9056847,40.879536 c 0.1502299,-0.03286 0.3708733,-0.0047 0.5258014,0 1.6712671,1.60084 4.9152509,7.088884 5.6476479,9.304821 0.239428,-1.098546 0.305157,-2.24406 0.516414,-3.356716 1.333313,-6.891782 4.666472,-12.956946 9.835309,-17.707786 3.337848,-3.075006 3.060945,0.31923 3.065633,3.042075 0,8.638165 -2.967083,23.379231 -8.680469,30.370285 -0.507029,0.619689 -1.136103,1.15019 -1.600841,1.807434 l -0.04695,0.07042 c -0.09389,1.929541 0.230043,3.957632 0.469472,5.868303 0.985875,-1.657206 1.845052,-3.394213 2.807359,-5.060792 2.483465,-4.2909 5.42699,-8.656914 8.619416,-12.469003 l 2.699434,-3.192305 c 0.694802,-0.807487 1.422488,-1.56803 2.051526,-2.431787 -2.272183,-1.131416 -3.535067,-3.248671 -3.347342,-5.830806 0.23473,-3.243984 3.366091,-4.445815 5.225204,-2.253434 0.492944,-1.976412 0.821561,-3.342534 2.957587,-3.981067 -0.06103,-1.704197 -0.201872,-4.051494 1.43655,-5.121846 1.948289,-1.276946 3.572685,-0.154928 4.647723,1.572717 0.328629,-0.384958 0.647859,-0.741758 1.065688,-1.03283 -0.441301,-2.098519 0.502329,-4.699402 2.849663,-5.009234 l 0.07981,-0.01409 c 0.06103,-0.516415 -0.23473,-1.445923 -0.220644,-2.107892 0.0892,-3.849587 3.685296,-4.600732 6.088959,-1.774625 0.563359,-0.577444 1.187746,-1.140803 1.971726,-1.375497 0.826259,-1.999967 1.840243,-2.901341 4.065555,-3.295662 -1.051603,-5.074975 2.478778,-8.2766535 6.145325,-4.098486 1.300382,-1.333312 2.037466,-1.845052 3.952945,-1.887236 -1.521038,-5.2345777 2.708808,-8.97624 6.00447,-4.6524104 0.845033,-1.3801835 2.483465,-2.4600292 4.145358,-2.2206243 -0.67603,-5.03266982 3.431831,-8.2015392 6.384731,-4.20641062 0.967102,-1.24882318 2.098518,-2.07976958 3.779159,-1.90129768 -0.192485,-2.4834648 0.347401,-5.2205161 3.065632,-5.9106078 z M 24.467108,30.916946 c -5.713387,4.699402 -8.830698,13.520606 -9.530164,20.609008 -0.291072,2.981144 0.366186,6.08896 1.009346,9.032486 v 0.938931 c 5.168838,-6.328364 7.769601,-18.022667 8.380012,-26.065324 0.07042,-0.943629 0.403743,-3.760411 0.140842,-4.516242 z m 3.046884,43.374103 c -3.422456,0.399044 -5.976349,1.018744 -9.337632,1.835557 5.99041,3.427143 12.64327,5.934044 19.647545,5.619525 3.24867,-0.380272 6.046654,-0.784003 9.14053,-2.070396 -4.09368,-3.215861 -14.557786,-5.722761 -19.450443,-5.384807 z M 7.4301838,44.165937 c -0.5023296,1.314564 -0.722974,2.783924 -0.8826015,4.178288 -0.9811873,8.445631 1.4929155,16.257177 6.3189897,23.111223 0.464773,0.661944 0.953018,1.375496 1.521039,1.957663 l 0.549273,0.647859 C 14.918105,71.873276 14.439254,69.051736 14.237382,66.793615 13.542579,59.024014 13.777309,54.629877 9.3221309,47.239815 8.8432732,46.446413 7.9513215,44.775098 7.4302075,44.164809 Z M 38.161018,59.944785 c -6.647571,1.445924 -15.998783,7.891707 -20.079001,13.685257 l 0.02817,0.06573 0.06573,0.0094 c 4.746274,-1.722946 10.023035,-3.225235 13.722514,-6.722805 2.629006,-2.488152 4.098485,-4.159419 6.337737,-7.009082 z m 22.717021,-6.478593 c -2.314487,0.727672 -2.769861,3.82615 -3.01864,5.896426 0.553971,-0.131457 1.103245,-0.333316 1.624395,-0.568058 1.863801,-1.037517 3.516319,-2.159572 3.258046,-4.478746 -0.474159,-0.746445 -1.014046,-0.948317 -1.863801,-0.849731 z M 94.548553,2.4676691 c -0.488244,0.07981 -0.971789,0.1737007 -1.43655,0.3521005 0.638474,2.4740906 2.21113,3.8872042 4.83545,3.642992 3.187617,-0.9905737 -0.258202,-4.5021813 -3.3989,-3.9951286 z M 62.522145,13.119863 c -2.62432,0.0892 -0.718287,4.877754 1.014045,6.309616 l 0.159615,0.136144 c 2.093831,-1.990474 1.159576,-6.83073 -1.17366,-6.445784 z M 93.365951,-5.9171494 c -2.718183,1.2299544 -0.863816,4.7087762 -0.253514,6.6617525 0.1784,-0.13145634 0.3521,-0.25820149 0.553971,-0.35679976 0.943631,-1.11263162 1.999968,-2.14550974 1.877862,-3.73228804 -0.09389,-1.1501889 -0.826259,-2.6900597 -2.178319,-2.5726407 z M 82.145771,47.554742 c -1.173661,0.154929 -2.450655,0.704202 -3.197113,1.657206 l -0.103279,0.131456 c 1.361435,0.802788 2.215937,1.328625 3.74635,1.854426 1.25351,-0.159614 2.600883,-0.488243 3.234609,-1.675953 -0.563359,-1.229955 -2.323861,-2.164259 -3.680609,-1.967039 z M 58.456469,28.010557 c -1.140803,0.154928 -1.957664,0.727673 -2.887161,1.356748 0.788703,1.356747 2.01403,2.206442 3.600808,2.140702 1.197133,0.309845 2.319175,-0.04225 2.699434,-1.267572 -0.347402,-1.413114 -1.952976,-2.492839 -3.412962,-2.229998 z M 89.211339,6.8426967 c -1.154888,-0.0047 -2.089144,0.3098442 -2.943526,1.0891599 0.976488,1.0844607 2.070396,2.0280907 3.516319,2.3802274 5.633586,0.455386 1.699511,-4.4693713 -0.572745,-3.4693273 z M 75.737605,41.629712 c -2.924777,0.995261 -1.140803,4.929432 0.812173,6.445784 l 0.187787,0.112672 c 1.164274,-0.394345 1.887236,-5.595969 -0.99996,-6.558395 z m 3.107817,-28.351207 c -1.06099,0.169001 -2.126641,0.483545 -2.934153,1.220581 0.967103,1.183058 1.985788,2.032777 3.488077,2.398976 4.868379,0.107976 2.469403,-4.037434 -0.553973,-3.619557 z m 0.239429,-7.0184563 c -1.211207,0.1549282 -1.990474,1.3286249 -2.535144,2.3191744 0.0047,1.2112059 -0.06103,2.2064429 -0.366187,3.3848389 0.408432,-0.183088 0.821561,-0.366186 1.234642,-0.539887 0.549273,-0.197173 1.098547,-0.366186 1.66658,-0.511716 C 79.713828,9.9359708 80.906238,8.5557875 80.624529,7.2975899 80.460214,6.541746 79.863998,5.9972081 79.084742,6.2600727 Z M 68.14626,20.194084 c -0.985875,0.370874 -1.88255,0.863816 -2.661817,1.577405 0.924846,0.868515 2.131328,2.042152 3.497571,2.056213 4.3707,0.05164 3.168869,-3.87783 -0.835646,-3.633618 z M 49.001082,36.118353 c -1.394365,0.126757 -2.290931,0.826259 -3.323785,1.704197 0.915459,0.934232 1.995281,1.629083 3.323785,1.765251 1.244137,0.107977 2.699434,0.0094 3.168869,-1.333312 -0.431914,-1.154888 -1.821496,-2.398976 -3.168869,-2.136016 z M 83.173962,0.05859762 C 80.55433,1.1336721 81.97213,5.3729768 83.483807,6.8423362 h 0.0845 c 0.86852,-1.4318623 1.8215,-3.0796936 1.39437,-4.8167007 C 84.732633,1.1101762 84.253787,0.02566744 83.17399,0.05859762 Z M 60.156484,61.112845 c -0.863818,0.04225 -1.694823,0.239428 -2.544519,0.384959 0.863817,1.615021 1.920167,2.906029 3.675923,3.549129 3.624243,0.981187 2.544517,-3.830839 -1.131417,-3.934076 z M 72.507706,6.4619564 c -2.638381,1.366122 -0.596216,5.0654806 0.671331,6.6898756 l 0.0939,0.01878 0.06572,-0.05164 c 0.873202,-1.300385 1.558655,-2.732247 1.234641,-4.3332069 -0.1784,-0.9060728 -0.929544,-2.455342 -2.065708,-2.3238615 z m 1.150189,10.2155686 c -1.037517,0.187787 -1.840245,0.661945 -2.5069,1.488228 l 0.05634,0.04695 c 1.333312,1.079774 1.873175,1.952977 3.722914,2.187695 4.281525,-0.01408 1.694823,-4.018685 -1.272259,-3.722914 z m -1.845052,31.149072 c -2.028091,0.713587 -2.882472,3.197112 -2.830913,5.16415 0.516414,-0.07981 1.009345,-0.197172 1.511663,-0.328629 3.948258,-1.370809 3.788534,-5.09841 1.31925,-4.835449 z M 68.98193,12.799214 c -2.586703,0.732373 -2.136016,3.774473 -2.366167,6.084272 0.338015,-0.253513 0.671332,-0.521102 1.037518,-0.718286 1.605527,-1.042216 4.94818,-3.746349 2.079769,-5.365938 z M 40.372328,31.506926 c -2.060901,1.286319 -0.215957,5.281448 1.934228,6.41754 1.239328,-0.455387 0.751144,-6.661753 -1.934228,-6.41754 z m 13.510991,0.788701 c -1.14549,0.150229 -2.009343,0.380272 -2.807359,1.267572 0.516415,1.399052 1.708885,2.253434 3.197113,2.24406 4.633662,-0.0845 2.140702,-3.952945 -0.389658,-3.511632 z M 50.559533,21.770226 c -2.460029,0.32393 -0.751144,5.323754 1.46948,5.985723 l 0.32393,0.225343 c 0.638473,-0.417829 1.131416,-5.934043 -1.793374,-6.211066 z m 12.887241,2.417725 c -1.079774,0.211258 -1.967038,0.643173 -2.361359,1.708884 0.929545,1.098547 2.075082,1.66658 3.49757,1.859114 3.882517,0.01878 2.502214,-3.760411 -1.136103,-3.567998 z m 2.333235,23.637625 c -2.258121,1.089159 -1.779311,5.520973 0,6.990333 1.441237,-1.629083 2.469403,-7.0467 0,-6.990333 z m 17.032358,-6.431723 c -2.436473,0.596217 -2.88716,2.694747 -3.159495,4.821388 0.511716,-0.281686 0.821559,-0.422516 1.4178,-0.32393 2.042152,-0.549272 3.516319,-1.530412 3.661862,-3.788533 -0.610303,-0.511717 -1.098547,-0.812174 -1.920167,-0.708889 z M 89.525678,-0.16788755 C 86.84968,0.38608471 87.056275,3.216951 86.539847,5.0337598 c 0.450688,-0.042252 0.868517,-0.056336 1.319251,0 3.97638,-1.5820912 3.619556,-5.36125058 1.66658,-5.20164735 z M 54.273554,53.909727 c -2.596197,1.516351 -1.572717,4.905877 0,6.830731 1.661893,-1.675955 2.474091,-5.835494 0,-6.830731 z m 16.219919,0.676031 c -0.572745,0.183087 -1.03283,0.389657 -1.511664,0.76523 0.553973,2.117267 2.248747,3.136059 4.356639,3.098441 2.727558,-0.248814 0.338016,-4.056181 -2.844975,-3.863648 z M 56.921189,21.769745 c -1.107945,0.291072 -1.760443,0.896675 -2.333236,1.859114 0.2676,1.436549 0.220644,2.685373 0,4.126609 0.328629,-0.173701 0.652558,-0.356799 0.981187,-0.525802 2.82154,-1.441236 3.854274,-5.516166 1.352061,-5.459921 z m -9.426927,5.689952 c -1.40374,0.849731 -0.981188,3.417769 -0.248815,4.549173 0.1784,0.267601 1.553968,1.722946 1.755756,1.553969 0.643171,-1.215894 1.323937,-2.582015 0.873203,-3.981067 -0.347403,-1.089161 -1.168974,-2.126641 -2.380229,-2.121955 z m -3.474015,12.572361 c -0.976487,0.183087 -1.807434,0.652558 -2.497526,1.361434 0.995261,1.089161 2.314487,2.164258 3.873143,2.159572 1.070375,0.2676 2.741618,-0.661945 1.873175,-1.887236 -0.793402,-1.122019 -1.896611,-1.713572 -3.248672,-1.63377 z m 32.791976,11.163934 c -0.596217,0.07981 -1.14549,0.215957 -1.685328,0.488243 0.708887,2.028091 2.107892,3.182932 4.27215,3.131373 3.187618,-0.314543 0.286373,-3.934076 -2.586702,-3.619557 z M 100.30443,-3.041467 c -2.952905,0.6854167 -2.31918,1.6948231 -4.032751,3.42714309 0.694803,0.17839989 1.366122,0.3427143 2.089144,0.35679978 3.863647,-0.20657082 5.173527,-4.19234917 1.943607,-3.78384667 z M 37.823604,45.891107 c -0.849731,0.0845 -1.431862,0.361486 -2.075083,0.915459 0.990574,1.408427 2.070395,2.347297 3.802716,2.535144 4.088991,-0.14553 0.7934,-4.182976 -1.727633,-3.450579 z M 83.859763,9.9815803 c -0.812174,0.1737007 -1.361434,0.6056147 -2.009342,1.1032457 0.826259,1.441236 1.985786,2.384915 3.675922,2.413037 3.600807,-0.417829 1.455298,-3.6524863 -1.66658,-3.5163187 z M 54.589155,62.603778 c -1.375497,2.098518 -0.04225,5.910607 2.333235,5.417616 1.680642,-1.342687 -0.239429,-5.417616 -2.333235,-5.417616 z m -22.360077,-22.5716 c -0.985875,0.136143 -0.943631,1.596152 -0.845032,2.333235 0.239429,1.713572 1.291007,2.549206 2.741618,3.215861 l 0.225343,0.04695 c 1.065688,-0.76523 0.239429,-5.469295 -2.121953,-5.595968 z m 33.059984,17.956566 c -0.948318,0.211257 -1.539787,0.722974 -2.234686,1.370809 1.197132,1.075074 1.995281,1.704197 3.56319,2.136015 4.206411,-0.173701 1.43655,-3.638304 -1.328625,-3.506944 z M 38.163722,36.971113 c -2.154884,0.661945 -1.624396,3.957631 -1.079773,5.544409 l 0.107977,0.314544 c 0.230043,-0.234729 0.436601,-0.46946 0.633774,-0.727673 0.755843,-0.657258 2.150197,-1.615022 2.192381,-2.694747 0.02817,-0.629087 -1.150189,-2.319174 -1.854426,-2.436473 z M 60.299057,18.882345 c -1.009347,0.04225 -1.727633,0.239429 -2.436474,1.009346 1.459985,0.807487 2.023404,1.746382 2.295739,3.323786 0.779316,0.126757 1.990473,-1.624396 2.24406,-2.183007 -0.272287,-0.2629 -2.014029,-2.121954 -2.103205,-2.150196 z M 45.398748,32.844023 c -0.225343,0.389657 -0.417829,0.784002 -0.596216,1.197132 v 2.075083 c 0.281685,-0.272287 0.549273,-0.535188 0.877902,-0.755844 0.40843,-0.347402 0.82156,-0.629087 1.28632,-0.901373 -0.638473,-0.497631 -1.018745,-1.042218 -1.56803,-1.615022 z"
     id="path1197"
     style="stroke-width:1.20183" />
  <path
     style="fill:#7137c8;stroke-width:0.0896362"
     d="m 32.2197,39.970364 c -0.747124,0.09998 -0.999689,1.034236 -0.932076,1.678752 -0.10024,1.335156 0.570235,2.660212 1.695537,3.381141 0.446487,0.227263 0.944354,0.771918 1.484096,0.556549 0.55377,-0.563432 0.36908,-1.478183 0.348742,-2.192235 C 34.640343,42.113059 34.038932,40.724872 32.844878,40.09659 32.647994,40.01664 32.43386,39.960099 32.2197,39.970364 Z"
     id="path1397" />
  <path
     style="fill:#7137c8;stroke-width:0.0896362"
     d="m 38.411074,45.73264 c -0.98516,0.07004 -2.059942,0.325659 -2.75141,1.065129 0.856,1.373221 2.318633,2.564359 4.003865,2.598573 0.750361,-0.01178 1.838782,-0.272344 1.891114,-1.178926 -0.07582,-1.104601 -1.093726,-1.891808 -2.04325,-2.294825 -0.35045,-0.132156 -0.725826,-0.197069 -1.100319,-0.189951 z"
     id="path1399" />
  <path
     style="fill:#7137c8;stroke-width:0.0896362"
     d="m 38.222698,36.924484 c -1.16347,0.129579 -1.596731,1.459973 -1.657744,2.464646 -0.06288,1.141685 0.09483,2.334465 0.560401,3.377287 0.377048,0.02426 0.605002,-0.485468 0.905869,-0.670579 0.767793,-0.807775 1.896502,-1.522891 2.088539,-2.702856 -0.209351,-0.960763 -0.892684,-1.787906 -1.640586,-2.399694 -0.07709,-0.04608 -0.166305,-0.07235 -0.256479,-0.0688 z"
     id="path1401" />
  <path
     style="fill:#7137c8;stroke-width:0.0896362"
     d="m 44.180002,39.968963 c -1.025411,0.07458 -2.006656,0.608489 -2.687685,1.369403 0.01541,0.37216 0.503043,0.61969 0.750878,0.902315 1.158933,1.006713 2.773703,1.711708 4.316717,1.307777 0.707388,-0.259663 1.328547,-1.13401 0.814604,-1.845946 -0.683657,-1.065473 -1.906289,-1.80838 -3.194514,-1.733549 z"
     id="path1403" />
  <path
     style="fill:#7137c8;stroke-width:0.0896362"
     d="m 49.229039,36.019544 c -1.372175,0.08054 -2.677757,0.831986 -3.607155,1.797976 1.011524,1.236587 2.629272,1.946018 4.233033,1.84367 0.783215,0.03156 1.588348,-0.207216 2.089819,-0.844191 0.380248,-0.292623 0.303868,-0.798484 0.02241,-1.133233 -0.589641,-0.934151 -1.585213,-1.709588 -2.738107,-1.664222 z"
     id="path1405" />
  <path
     style="fill:#7137c8;stroke-width:0.0896362"
     d="m 40.578274,31.440922 c -0.896543,0.105446 -1.15544,1.199529 -1.153366,1.95484 0.04667,1.594724 0.982923,3.053132 2.13026,4.105229 0.285252,0.262826 0.82375,0.69752 1.114675,0.19643 0.476268,-1.001356 0.323707,-2.181891 0.203781,-3.249486 -0.207988,-1.165057 -0.723253,-2.539901 -1.936806,-2.966046 -0.116758,-0.03006 -0.23789,-0.04603 -0.358544,-0.04097 z"
     id="path1407" />
  <path
     style="fill:#7137c8;stroke-width:0.0896362"
     d="m 45.279446,32.816977 c -0.402933,0.687022 -0.642811,1.458207 -0.559039,2.260511 0.04766,0.315246 -0.08331,0.720416 0.120662,0.982147 0.462849,-0.110076 0.766083,-0.612508 1.1784,-0.853294 0.29974,-0.273823 0.714042,-0.4257 0.97707,-0.725493 -0.474314,-0.601724 -1.043234,-1.201461 -1.613179,-1.712243 -0.03812,-0.02359 -0.06928,0.03223 -0.103905,0.04837 z"
     id="path1409" />
  <path
     style="fill:#7137c8;stroke-width:0.0896362"
     d="m 47.634671,27.405542 c -0.643277,0.04756 -0.923841,0.810138 -1.054976,1.348745 -0.253471,1.461729 0.153377,3.064119 1.291918,4.065782 0.345168,0.258638 0.6422,0.747694 1.088518,0.792954 0.528986,-0.573772 0.765196,-1.385569 1.002455,-2.11923 0.397594,-1.532044 -0.28152,-3.436659 -1.831414,-4.020323 -0.160429,-0.04898 -0.328682,-0.07365 -0.496501,-0.06793 z"
     id="path1411" />
  <path
     style="fill:#7137c8;stroke-width:0.0896362"
     d="m 54.221005,32.183397 c -1.158081,0.09211 -2.418266,0.423518 -3.207295,1.333337 0.232991,1.047794 1.198086,1.89744 2.219721,2.229175 0.906644,0.193538 1.907198,0.16728 2.777846,-0.166318 0.615442,-0.270142 1.166559,-0.953555 0.860122,-1.646539 -0.399455,-1.038108 -1.542303,-1.780428 -2.650394,-1.749655 z"
     id="path1413" />
  <path
     style="fill:#7137c8;stroke-width:0.0896362"
     d="m 58.819935,27.905194 c -1.241744,0.07184 -2.402016,0.718458 -3.354003,1.457639 0.67465,1.234159 1.954874,2.16127 3.38943,2.23179 0.973012,0.115399 2.253063,0.213335 2.830479,-0.770651 0.505974,-0.640102 -0.04091,-1.389659 -0.462886,-1.89584 -0.606188,-0.654007 -1.504523,-1.064596 -2.40302,-1.022938 z"
     id="path1415" />
  <path
     style="fill:#7137c8;stroke-width:0.0896362"
     d="m 50.498652,21.711371 c -1.000335,0.03485 -1.29395,1.233431 -1.180677,2.054454 0.203957,1.631143 1.071487,3.339022 2.606102,4.073719 0.23737,0.168709 0.634572,0.248666 0.713238,-0.127453 0.360969,-1.321192 0.33945,-2.763034 -0.0073,-4.086673 -0.285932,-0.940781 -1.069627,-1.911816 -2.13131,-1.914047 z"
     id="path1417" />
  <path
     style="fill:#7137c8;stroke-width:0.0896362"
     d="m 57.063276,21.681608 c -1.083829,0.166645 -2.023898,0.963246 -2.517165,1.915798 0.06938,1.384073 0.149951,2.810263 -0.03076,4.182812 0.345397,0.102029 0.710008,-0.332819 1.054919,-0.460985 1.547753,-0.841855 2.836437,-2.435954 2.838422,-4.257544 -0.0039,-0.737454 -0.617216,-1.347347 -1.345419,-1.380081 z"
     id="path1419" />
  <path
     style="fill:#7137c8;stroke-width:0.0896362"
     d="m 59.760239,18.840211 c -0.669908,0.154387 -1.447917,0.366797 -1.878158,0.938903 -0.02003,0.412256 0.570428,0.48507 0.790971,0.767335 0.801341,0.653871 1.187072,1.651082 1.419297,2.626236 0.296283,0.347286 0.743122,-0.141698 1.001929,-0.324581 0.546158,-0.505965 1.095022,-1.10862 1.337556,-1.805349 -0.61444,-0.824504 -1.385069,-1.606146 -2.171768,-2.265044 -0.166608,0.02084 -0.333217,0.04167 -0.499827,0.0625 z"
     id="path1421" />
  <path
     style="fill:#7137c8;stroke-width:0.0896362"
     d="m 62.579403,13.047649 c -0.724945,-0.05325 -1.374676,0.508791 -1.410544,1.237925 -0.128328,1.439614 0.577899,2.816577 1.308827,4.009818 0.349419,0.496496 0.737356,1.008872 1.214815,1.372028 1.352325,-1.282413 1.542295,-3.472654 0.880431,-5.153555 -0.312244,-0.84854 -1.02191,-1.574198 -1.993529,-1.466216 z"
     id="path1423" />
  <path
     style="fill:#7137c8;stroke-width:0.0896362"
     d="m 69.20285,12.718165 c -1.274084,0.08138 -2.15189,1.26582 -2.331727,2.452544 -0.245868,1.160697 -0.239364,2.359756 -0.317966,3.531021 0.304702,0.263868 0.693061,-0.220437 0.97987,-0.344889 1.233328,-0.909641 2.552462,-1.873665 3.261742,-3.271195 0.49947,-1.058018 -0.391034,-2.479027 -1.591919,-2.367481 z"
     id="path1425" />
  <path
     style="fill:#7137c8;stroke-width:0.0896362"
     d="m 68.523401,20.120503 c -1.170587,0.07641 -2.150888,0.870981 -3.070389,1.526441 -0.04211,0.396807 0.578077,0.627644 0.81687,0.942306 0.830372,0.729516 1.842751,1.402606 3.002993,1.286504 0.958168,-0.0011 2.265419,-0.283969 2.523647,-1.364837 0.175176,-1.037726 -0.844305,-1.821338 -1.712365,-2.137437 -0.502144,-0.164151 -1.032249,-0.252684 -1.560756,-0.252977 z"
     id="path1427" />
  <path
     style="fill:#7137c8;stroke-width:0.0896362"
     d="m 63.684449,24.091456 c -1.045615,0.101533 -2.202358,0.650265 -2.614505,1.67105 -0.07403,0.467511 0.525494,0.69151 0.792018,0.978294 1.201341,0.910202 2.89949,1.428393 4.331775,0.770836 0.644915,-0.310905 1.053621,-1.131216 0.630253,-1.780469 -0.570252,-1.173833 -1.918852,-1.615836 -3.139541,-1.639711 z"
     id="path1429" />
  <path
     style="fill:#7137c8;stroke-width:0.0896362"
     d="m 73.981404,16.587578 c -1.141859,0.04747 -2.259601,0.666223 -2.907048,1.591741 1.038463,0.921365 2.137729,2.063584 3.589123,2.265064 0.84614,0.03781 1.87253,-0.04746 2.448188,-0.742298 0.450151,-0.975303 -0.31561,-1.970526 -1.124829,-2.462894 -0.593162,-0.383209 -1.287074,-0.677114 -2.005434,-0.651613 z"
     id="path1431" />
  <path
     style="fill:#7137c8;stroke-width:0.0896362"
     d="m 79.244378,13.176676 c -1.220658,0.09265 -2.531742,0.450623 -3.418254,1.318981 0.844969,1.112751 2.033552,2.088799 3.413526,2.443987 1.036828,0.05599 2.340223,4.08e-4 2.937161,-1.001053 0.328794,-1.078377 -0.644223,-2.066872 -1.559879,-2.469196 -0.429363,-0.19204 -0.900185,-0.308497 -1.372554,-0.292719 z"
     id="path1433" />
  <path
     style="fill:#7137c8;stroke-width:0.0896362"
     d="m 79.426101,6.1118749 c -1.353916,0.1198106 -2.395273,1.2244153 -2.900745,2.4154495 -0.146008,0.9430077 -0.06996,1.9116116 -0.290316,2.8496766 -0.09221,0.239301 -0.08435,0.758547 0.300645,0.516407 0.836052,-0.387522 1.744511,-0.610046 2.599799,-0.942405 0.722384,-1.1238989 1.874632,-2.3377404 1.51086,-3.7948313 -0.116085,-0.5666889 -0.624789,-1.05769 -1.220243,-1.0442968 z"
     id="path1435" />
  <path
     style="fill:#7137c8;stroke-width:0.0896362"
     d="m 72.659971,6.3713299 c -0.706157,0.15301 -1.212468,0.8488849 -1.420873,1.5077073 -0.308058,1.7346097 0.563398,3.4329128 1.512435,4.8270478 0.144369,0.213119 0.484129,0.7537 0.724266,0.343664 0.675791,-1.039139 1.317109,-2.21351 1.191725,-3.4973847 0.08834,-1.2915664 -0.5859,-2.8132475 -1.915466,-3.1770083 -0.03049,-0.00409 -0.06135,-0.00529 -0.09208,-0.00409 z"
     id="path1437" />
  <path
     style="fill:#7137c8;stroke-width:0.0896362"
     d="m 83.886201,9.9292899 c -0.752274,0.090533 -1.445324,0.5452171 -1.986876,1.0565521 -0.177912,0.450447 0.379166,0.820075 0.607175,1.147164 1.00311,1.220327 2.879157,1.891349 4.320889,1.053124 0.687083,-0.349791 0.799851,-1.291938 0.332283,-1.869405 -0.749578,-0.98151 -2.062514,-1.4611098 -3.273471,-1.3874351 z"
     id="path1439" />
  <path
     style="fill:#7137c8;stroke-width:0.0896362"
     d="m 89.786607,6.6689491 c -1.210866,0.056714 -2.55864,0.2677128 -3.462547,1.1384843 -0.141489,0.4090757 0.442408,0.6449942 0.630954,0.9282249 1.036946,0.9392375 2.345501,1.8804287 3.824244,1.6582697 0.753329,-0.03508 1.854938,-0.204496 1.949237,-1.1330572 0.03595,-1.1894203 -1.053901,-2.1123201 -2.089994,-2.481977 -0.274122,-0.090486 -0.563867,-0.1254856 -0.851894,-0.1099447 z"
     id="path1441" />
  <path
     style="fill:#7137c8;stroke-width:0.0896362"
     d="m 89.623267,-0.23443656 c -1.373854,0.13268701 -2.397006,1.36287106 -2.598796,2.67940176 -0.184759,0.8411199 -0.44648,1.6808097 -0.52534,2.5370029 0.338652,0.2291208 0.845945,0.056595 1.242301,0.087529 1.084911,-0.1944769 1.996232,-0.9825658 2.636914,-1.8503207 0.649794,-0.877116 1.025348,-2.322786 0.09033,-3.14426915 -0.228117,-0.20889396 -0.534647,-0.32944608 -0.845415,-0.30935026 z"
     id="path1443" />
  <path
     style="fill:#7137c8;stroke-width:0.0896362"
     d="m 83.304616,-0.00351784 c -1.124067,0.21025803 -1.700963,1.44928874 -1.645434,2.50787394 3.14e-4,1.6073501 0.684226,3.2080023 1.762032,4.3867576 0.363411,0.1291969 0.425264,-0.5054892 0.625628,-0.7021329 C 84.82644,4.892654 85.391054,3.339575 84.972424,1.8226689 84.769293,1.0198598 84.261833,-0.00161173 83.304616,-0.00351784 Z"
     id="path1445" />
  <path
     style="fill:#7137c8;stroke-width:0.0896362"
     d="m 93.533819,-5.9974126 c -0.881887,0.163734 -1.646289,1.0267331 -1.608548,1.9467857 -0.08878,1.0300334 0.07381,2.0552018 0.47165,3.009009 0.221229,0.58552037 0.375732,1.20792608 0.653879,1.76691839 0.480843,0.0638413 0.792682,-0.50361071 1.110648,-0.78659158 0.79848,-0.94930761 1.664009,-2.09051151 1.431727,-3.41230271 -0.118224,-1.0827554 -0.765396,-2.3264781 -1.928753,-2.5250434 -0.04351,-0.00144 -0.08714,-0.00264 -0.130603,0.0012 z"
     id="path1447" />
  <path
     style="fill:#7137c8;stroke-width:0.0896362"
     d="m 100.68825,-3.1491883 c -1.292644,0.098034 -2.601291,0.7148627 -3.259108,1.8778079 -0.329733,0.57031594 -0.845569,1.03937754 -1.109773,1.63883672 0.204972,0.34392815 0.798316,0.2124658 1.143212,0.36204577 1.410679,0.31372371 2.950399,-0.2304404 3.993189,-1.19573235 0.54352,-0.56142004 1.07985,-1.56603934 0.47899,-2.26086284 -0.31998,-0.3312595 -0.79934,-0.4444084 -1.24651,-0.4220952 z"
     id="path1449" />
  <path
     style="fill:#7137c8;stroke-width:0.0896362"
     d="M 95.008265,2.3410273 C 94.3771,2.4258525 93.670862,2.4522688 93.114701,2.7724019 92.975505,3.2461915 93.40293,3.7094195 93.535855,4.1494281 94.122042,5.5135935 95.476962,6.464389 96.957851,6.55743 97.867258,6.6795889 99.110585,6.3398852 99.280864,5.3039231 99.303579,4.1511395 98.239052,3.3480035 97.307292,2.8688658 96.595557,2.5268989 95.802297,2.3096282 95.008265,2.3410273 Z"
     id="path1451" />
  <path
     style="fill:#7137c8;stroke-width:0.0896362"
     d="m 83.035882,41.312806 c -1.67023,0.127541 -2.815495,1.6704 -3.166899,3.198905 -0.131494,0.565919 -0.288575,1.160617 -0.263084,1.73511 0.33934,0.0088 0.676721,-0.293547 1.0548,-0.282214 1.867725,-0.123146 3.856036,-1.419104 4.090526,-3.392518 0.236724,-0.607028 -0.460228,-0.922888 -0.901438,-1.12553 -0.257652,-0.102201 -0.537035,-0.148718 -0.813905,-0.133753 z"
     id="path1453" />
  <path
     style="fill:#7137c8;stroke-width:0.0896362"
     d="m 82.402827,47.489473 c -1.361685,0.06996 -2.750011,0.683803 -3.604004,1.766638 0.03883,0.387589 0.673265,0.470971 0.964363,0.719393 0.96404,0.475537 1.907484,1.122979 2.988557,1.27011 1.180697,-0.122898 2.519672,-0.556133 3.114507,-1.664396 -0.07706,-0.605445 -0.690447,-0.993957 -1.117301,-1.370804 -0.675618,-0.491232 -1.511197,-0.74778 -2.346122,-0.720941 z"
     id="path1455" />
  <path
     style="fill:#7137c8;stroke-width:0.0896362"
     d="m 77.107466,51.093478 c -0.669674,0.07492 -1.434113,0.151495 -1.97007,0.591213 -0.05258,0.460969 0.332457,0.888887 0.528867,1.292013 0.920471,1.519064 2.921552,2.317846 4.609106,1.68839 0.685081,-0.280166 0.75693,-1.177846 0.310225,-1.700111 -0.776161,-1.112068 -2.106109,-1.887234 -3.478128,-1.871505 z"
     id="path1457" />
  <path
     style="fill:#7137c8;stroke-width:0.0896362"
     d="m 75.734212,41.593268 c -1.055224,0.216096 -1.772656,1.338245 -1.597695,2.393217 0.184267,1.693784 1.204408,3.252726 2.542725,4.268222 0.505352,-0.0578 0.677739,-0.705448 0.864675,-1.102244 0.430944,-1.447051 0.435884,-3.147608 -0.3722,-4.465878 -0.367308,-0.449979 -0.803656,-1.059114 -1.437505,-1.093317 z"
     id="path1459" />
  <path
     style="fill:#7137c8;stroke-width:0.0896362"
     d="m 72.012559,47.753655 c -1.393708,0.231855 -2.297708,1.532329 -2.704491,2.796754 -0.23904,0.774726 -0.527263,1.637236 -0.309351,2.442236 0.314318,0.179442 0.721585,-0.143956 1.068282,-0.146885 1.582758,-0.391993 3.260378,-1.474901 3.544656,-3.19434 0.168314,-0.851059 -0.365451,-1.857196 -1.304627,-1.886386 -0.09773,-0.01003 -0.196242,-0.01551 -0.294469,-0.01142 z"
     id="path1461" />
  <path
     style="fill:#7137c8;stroke-width:0.0896362"
     d="m 70.789867,54.499827 c -0.676235,0.05524 -1.382023,0.358713 -1.849973,0.851545 0.04201,0.557565 0.405685,1.082407 0.700633,1.554452 0.8396,1.155482 2.350476,1.65255 3.73058,1.629207 0.668481,-0.02724 1.354355,-0.580377 1.212015,-1.30165 -0.288517,-1.382331 -1.653604,-2.273707 -2.938812,-2.626615 -0.278794,-0.0705 -0.566353,-0.113141 -0.854443,-0.106934 z"
     id="path1463" />
  <path
     style="fill:#7137c8;stroke-width:0.0896362"
     d="m 65.919051,47.782541 c -0.998035,0.138807 -1.445877,1.258231 -1.629383,2.126584 -0.306402,1.686377 0.126643,3.570299 1.290271,4.851733 0.292179,0.367837 0.510709,-0.24467 0.647762,-0.453082 0.860482,-1.553783 1.277832,-3.406926 1.024828,-5.173321 -0.131939,-0.640266 -0.606375,-1.362728 -1.333478,-1.351914 z"
     id="path1465" />
  <path
     style="fill:#7137c8;stroke-width:0.0896362"
     d="m 65.393313,57.939791 c -0.92733,0.06236 -1.702947,0.715757 -2.353824,1.321958 -0.06738,0.375812 0.499782,0.540284 0.699932,0.794122 0.909716,0.702451 1.944412,1.438072 3.130263,1.488975 0.78902,-0.04391 1.931452,-0.321309 1.995105,-1.283793 -0.338436,-1.484315 -2.041157,-2.365595 -3.471476,-2.321262 z"
     id="path1467" />
  <path
     style="fill:#7137c8;stroke-width:0.0896362"
     d="m 61.064516,53.405286 c -1.230767,0.139855 -2.047199,1.29349 -2.488979,2.356976 -0.419506,1.093431 -0.665212,2.267384 -0.761732,3.43051 0.18242,0.383285 0.706752,0.03038 1.001579,-0.03239 1.377263,-0.613802 2.816345,-1.406237 3.609431,-2.74038 0.387163,-0.790239 0.695177,-1.930963 0.0043,-2.641817 -0.371528,-0.324392 -0.892345,-0.371604 -1.364626,-0.372899 z"
     id="path1469" />
  <path
     style="fill:#7137c8;stroke-width:0.0896362"
     d="m 60.13209,61.039417 c -0.860522,0.09393 -1.771073,0.147726 -2.575392,0.446525 0.175676,0.576958 0.637783,1.111423 0.999581,1.619833 0.946485,1.166288 2.353828,2.30146 3.946968,2.11818 0.826098,-0.08835 1.288912,-1.008408 1.024338,-1.757359 -0.393158,-1.447475 -1.935752,-2.433603 -3.395495,-2.427179 z"
     id="path1471" />
  <path
     style="fill:#7137c8;stroke-width:0.0896362"
     d="m 54.287356,53.84804 c -0.630774,0.246085 -1.067929,0.87371 -1.38831,1.449935 -0.732639,1.799203 0.09467,3.795314 1.140337,5.290695 0.186072,0.521009 0.49168,0.0241 0.65081,-0.216448 0.772682,-1.108788 1.285021,-2.441266 1.157656,-3.811288 0.134166,-1.071463 -0.447804,-2.167211 -1.3905,-2.67893 -0.05388,-0.02129 -0.111601,-0.03677 -0.169993,-0.03396 z"
     id="path1473" />
  <path
     style="fill:#7137c8;stroke-width:0.0896362"
     d="m 54.734311,62.544673 c -0.511071,0.08235 -0.548456,0.768966 -0.67087,1.172274 -0.263063,1.517596 0.110136,3.391554 1.563731,4.185064 0.528513,0.295499 1.435037,0.470377 1.706063,-0.248776 0.696445,-1.331892 0.03033,-2.915272 -0.815129,-4.012619 -0.444025,-0.537598 -1.042312,-1.094278 -1.783795,-1.095943 z"
     id="path1475" />
  <path
     style="fill:#2ca05a;stroke-width:0.0896362"
     d="m 38.040273,59.900232 c -3.956093,0.936862 -7.576147,2.940723 -10.927247,5.194278 -3.371818,2.34314 -6.583772,5.037164 -9.004195,8.38 -0.0273,0.414672 0.525253,0.135133 0.73267,0.07825 3.938662,-1.419517 8.04073,-2.679907 11.469404,-5.163358 2.099984,-1.647478 3.956913,-3.591236 5.716057,-5.592981 0.742935,-0.899234 1.537271,-1.766304 2.203964,-2.722699 0.0376,-0.119883 -0.08945,-0.193849 -0.190653,-0.173496 z"
     id="path1477" />
  <path
     style="fill:#2ca05a;stroke-width:0.0896362"
     d="m 28.286212,74.214708 c -3.212383,0.100833 -6.335265,0.974048 -9.455562,1.667392 -0.188648,0.04123 -0.843208,0.131671 -0.506132,0.410698 5.23421,2.982617 11.047953,5.24885 17.119808,5.543832 2.805096,0.118945 5.597225,-0.392025 8.320518,-1.014511 1.023854,-0.300741 2.098766,-0.534134 3.04857,-1.023007 0.273461,-0.371879 -0.419285,-0.579217 -0.615079,-0.764259 -3.180095,-1.946079 -6.800413,-3.035619 -10.404694,-3.891008 -2.463133,-0.545148 -4.978516,-0.945012 -7.507429,-0.929137 z"
     id="path1548" />
  <path
     style="fill:#2ca05a;stroke-width:0.0896362"
     d="m 7.4230437,44.170658 c -0.3765795,0.34989 -0.3422083,0.987234 -0.507375,1.453905 -0.726482,3.149451 -0.6911061,6.411776 -0.4982318,9.618966 0.6178886,5.602124 2.773145,10.969738 5.9448751,15.609298 0.758849,1.110348 1.540199,2.216276 2.461143,3.198715 0.387558,0.01476 0.122465,-0.586939 0.173319,-0.819679 -0.343943,-3.662804 -0.775425,-7.315555 -1.051862,-10.984611 -0.276017,-3.888725 -0.92158,-7.815615 -2.608494,-11.363798 -1.084397,-2.299222 -2.3519309,-4.517306 -3.7486335,-6.63944 -0.039328,-0.04794 -0.098418,-0.09177 -0.1647408,-0.07336 z"
     id="path1550" />
  <path
     style="fill:#2ca05a;stroke-width:0.0896362"
     d="m 24.378811,30.903979 c -1.865974,1.525436 -3.368121,3.477573 -4.649177,5.512801 -2.777,4.669165 -4.353026,10.006938 -4.899701,15.395713 -0.224739,2.998307 0.49428,5.971162 1.005605,8.88466 0.01024,0.321159 -0.0034,1.155628 0.41312,0.537037 3.193692,-4.198956 4.954415,-9.278802 6.273879,-14.332428 1.239789,-4.953894 1.935164,-10.046561 2.095596,-15.149564 -0.05581,-0.233321 0.108345,-0.802732 -0.239322,-0.848219 z"
     id="path1552" />
</svg>
