<?xml version="1.0" encoding="UTF-8" standalone="no"?>
<svg
   viewBox="0 0 100 125"
   fill="none"
   x="0px"
   y="0px"
   version="1.1"
   id="svg2077"
   sodipodi:docname="leek.svg"
   inkscape:version="1.2.2 (b0a8486541, 2022-12-01)"
   xmlns:inkscape="http://www.inkscape.org/namespaces/inkscape"
   xmlns:sodipodi="http://sodipodi.sourceforge.net/DTD/sodipodi-0.dtd"
   xmlns:xlink="http://www.w3.org/1999/xlink"
   xmlns="http://www.w3.org/2000/svg"
   xmlns:svg="http://www.w3.org/2000/svg">
  <defs
     id="defs2081">
    <linearGradient
       inkscape:collect="always"
       id="linearGradient7749">
      <stop
         style="stop-color:#e5f9e5;stop-opacity:1;"
         offset="0"
         id="stop7747" />
      <stop
         style="stop-color:#00d400;stop-opacity:1;"
         offset="1"
         id="stop7745" />
    </linearGradient>
    <inkscape:path-effect
       effect="fill_between_many"
       method="originald"
       linkedpaths="#path2071,0,1|"
       id="path-effect2200" />
    <linearGradient
       inkscape:collect="always"
       xlink:href="#linearGradient7749"
       id="linearGradient7751"
       x1="46.586773"
       y1="84.369843"
       x2="72.12429"
       y2="65.02449"
       gradientUnits="userSpaceOnUse"
       gradientTransform="matrix(1.1519818,0,0,1.1519818,-10.305069,-17.678071)" />
  </defs>
  <sodipodi:namedview
     id="namedview2079"
     pagecolor="#ffffff"
     bordercolor="#000000"
     borderopacity="0.25"
     inkscape:showpageshadow="2"
     inkscape:pageopacity="0.0"
     inkscape:pagecheckerboard="0"
     inkscape:deskcolor="#d1d1d1"
     showgrid="false"
     inkscape:zoom="6.304"
     inkscape:cx="50.682107"
     inkscape:cy="62.5"
     inkscape:window-width="1857"
     inkscape:window-height="1011"
     inkscape:window-x="0"
     inkscape:window-y="0"
     inkscape:window-maximized="1"
     inkscape:current-layer="svg2077" />
  <path
     inkscape:original-d="M 0,0"
     inkscape:path-effect="#path-effect2200"
     d="m 50.22598,22.317462 c 0.159,-1.0714 1.1421,-1.82148 2.2175,-1.69195 l 6.0446,0.72809 c 1.0469,0.12609 1.816,1.04325 1.7578,2.09605 l -0.2478,4.48144 c 1.3723,-1.7327 2.499,-2.9792 3.0977,-3.6185 0.5943,-0.6348 1.5003,-0.7741 2.2481,-0.4342 l 4.1596,1.8907 c 0.8343,0.3793 1.3041,1.2769 1.1401,2.1786 l -0.2544,1.3992 c 0.3079,-0.2915 0.6074,-0.5696 0.8975,-0.8339 0.9049,-0.8243 2.2957,-0.6222 2.9667,0.3521 l 3.4215,4.9683 c 0.537,0.7797 0.4316,1.811 -0.1671,2.4831 -15.8619,17.8079 -20.4029,32.5508 -20.9735,43.1306 -0.2858,5.2992 0.4225,9.5873 1.2345,12.7321 0.4063,1.5734 0.8393,2.8639 1.1912,3.8611 0.0755,0.2141 0.15,0.4223 0.2201,0.6181 l 0.0012,0.0032 2e-4,6e-4 3e-4,9e-4 c 0.0882,0.2461 0.1692,0.4723 0.236,0.6652 0.118,0.3405 0.2284,0.6778 0.2791,0.9499 0.3546,1.901098 -0.3752,3.511698 -1.6801,4.599898 -0.6175,0.515 -1.3573,0.9108 -2.1693,1.1818 0.1109,0.2736 0.2007,0.5575 0.2696,0.8264 0.0967,0.3778 0.1625,0.7667 0.1783,1.0994 0.0077,0.1612 0.0061,0.3529 -0.0285,0.5401 -0.0173,0.0937 -0.0493,0.2224 -0.1151,0.3574 -0.0637,0.1306 -0.1927,0.3354 -0.4388,0.4804 -0.4758,0.2803 -1.0888,0.1219 -1.3692,-0.354 -0.173,-0.2937 -0.1789,-0.6397 -0.046,-0.9275 l -1e-4,-10e-4 c -0.0078,-0.1636 -0.0454,-0.4144 -0.1181,-0.6984 -0.0722,-0.2818 -0.1686,-0.5557 -0.2748,-0.7716 -0.029,-0.059 -0.0557,-0.1072 -0.079,-0.1462 -0.2459,0.0197 -0.4941,0.0295 -0.7439,0.0295 -0.0443,0 -0.0895,1e-4 -0.1354,3e-4 -0.037,0.1724 -0.067,0.3794 -0.0898,0.6071 -0.057,0.5704 -0.0575,1.1509 -0.0575,1.4005 0,0.5523 -0.4477,1 -1,1 -0.5523,0 -1,-0.4477 -1,-1 v -0.006 c 0,-0.2545 0,-0.9192 0.0674,-1.594 0.0133,-0.1331 0.0297,-0.2713 0.0501,-0.4105 -0.2347,-0.006 -0.4713,-0.0162 -0.7062,-0.0314 -0.137,-0.009 -0.2757,-0.0195 -0.4154,-0.0324 -0.0282,0.044 -0.0627,0.1037 -0.1015,0.1826 -0.1063,0.2159 -0.2027,0.4898 -0.2748,0.7716 -0.0727,0.284 -0.1104,0.5348 -0.1182,0.6984 v 0.001 c 0.1328,0.2878 0.127,0.6338 -0.0461,0.9275 -0.2803,0.4759 -0.8934,0.6343 -1.3692,0.354 -0.2461,-0.145 -0.3751,-0.3498 -0.4388,-0.4804 -0.0658,-0.135 -0.0977,-0.2637 -0.115,-0.3574 -0.0346,-0.1872 -0.0363,-0.3789 -0.0286,-0.5401 0.0159,-0.3327 0.0817,-0.7216 0.1784,-1.0994 0.0711,-0.2777 0.1646,-0.5715 0.2806,-0.8535 -0.2264,-0.0745 -0.4486,-0.1609 -0.664,-0.2614 -1.0075,-0.4697 -1.8725,-1.2493 -2.3213,-2.4832 -0.4353,-1.1969 -0.436,-2.704198 0.0114,-4.569598 0.0329,-0.1373 0.0677,-0.2814 0.1041,-0.4321 0.9664,-3.998 3.0667,-12.6881 1.031,-24.3254 -1.8027,-10.3058 -6.861,-22.9789 -18.9368,-36.7543 -0.6948,-0.7926 -0.8004,-1.7289 -0.5898,-2.5905 0.1988,-0.8136 0.679,-1.5874 1.2027,-2.252 1.0553,-1.3389 2.5366,-2.5413 3.3713,-3.173 0.8035,-0.6081 1.9003,-0.486 2.5727,0.2081 1.774,1.8312 4.0011,4.3068 6.2983,7.1407 l -2.2439,-7.8537 c -0.2917,-1.0207 0.2649,-2.0914 1.2679,-2.4391 l 6.7742,-2.34839 c 1.0751,-0.37269 2.2441,0.2254 2.5708,1.31533 l 1.2589,4.19916 z"
     id="path2202"
     class="UnoptimicedTransforms"
     transform="matrix(1.1519818,0,0,1.1519818,-10.305069,-17.678071)" />
  <path
     fill-rule="evenodd"
     clip-rule="evenodd"
     d="m 50.22598,22.317462 c 0.159,-1.0714 1.1421,-1.82148 2.2175,-1.69195 l 6.0446,0.72809 c 1.0469,0.12609 1.816,1.04325 1.7578,2.09605 l -0.2478,4.48144 c 1.3723,-1.7327 2.499,-2.9792 3.0977,-3.6185 0.5943,-0.6348 1.5003,-0.7741 2.2481,-0.4342 l 4.1596,1.8907 c 0.8343,0.3793 1.3041,1.2769 1.1401,2.1786 l -0.2544,1.3992 c 0.3079,-0.2915 0.6074,-0.5696 0.8975,-0.8339 0.9049,-0.8243 2.2957,-0.6222 2.9667,0.3521 l 3.4215,4.9683 c 0.537,0.7797 0.4316,1.811 -0.1671,2.4831 -15.8619,17.8079 -20.4029,32.5508 -20.9735,43.1306 -0.2858,5.2992 0.4225,9.5873 1.2345,12.7321 0.4063,1.5734 0.8393,2.8639 1.1912,3.8611 0.0755,0.2141 0.15,0.4223 0.2201,0.6181 l 0.0012,0.0032 2e-4,6e-4 3e-4,9e-4 c 0.0882,0.2461 0.1692,0.4723 0.236,0.6652 0.118,0.3405 0.2284,0.6778 0.2791,0.9499 0.3546,1.901098 -0.3752,3.511698 -1.6801,4.599898 -0.6175,0.515 -1.3573,0.9108 -2.1693,1.1818 0.1109,0.2736 0.2007,0.5575 0.2696,0.8264 0.0967,0.3778 0.1625,0.7667 0.1783,1.0994 0.0077,0.1612 0.0061,0.3529 -0.0285,0.5401 -0.0173,0.0937 -0.0493,0.2224 -0.1151,0.3574 -0.0637,0.1306 -0.1927,0.3354 -0.4388,0.4804 -0.4758,0.2803 -1.0888,0.1219 -1.3692,-0.354 -0.173,-0.2937 -0.1789,-0.6397 -0.046,-0.9275 l -1e-4,-10e-4 c -0.0078,-0.1636 -0.0454,-0.4144 -0.1181,-0.6984 -0.0722,-0.2818 -0.1686,-0.5557 -0.2748,-0.7716 -0.029,-0.059 -0.0557,-0.1072 -0.079,-0.1462 -0.2459,0.0197 -0.4941,0.0295 -0.7439,0.0295 -0.0443,0 -0.0895,1e-4 -0.1354,3e-4 -0.037,0.1724 -0.067,0.3794 -0.0898,0.6071 -0.057,0.5704 -0.0575,1.1509 -0.0575,1.4005 0,0.5523 -0.4477,1 -1,1 -0.5523,0 -1,-0.4477 -1,-1 v -0.006 c 0,-0.2545 0,-0.9192 0.0674,-1.594 0.0133,-0.1331 0.0297,-0.2713 0.0501,-0.4105 -0.2347,-0.006 -0.4713,-0.0162 -0.7062,-0.0314 -0.137,-0.009 -0.2757,-0.0195 -0.4154,-0.0324 -0.0282,0.044 -0.0627,0.1037 -0.1015,0.1826 -0.1063,0.2159 -0.2027,0.4898 -0.2748,0.7716 -0.0727,0.284 -0.1104,0.5348 -0.1182,0.6984 v 0.001 c 0.1328,0.2878 0.127,0.6338 -0.0461,0.9275 -0.2803,0.4759 -0.8934,0.6343 -1.3692,0.354 -0.2461,-0.145 -0.3751,-0.3498 -0.4388,-0.4804 -0.0658,-0.135 -0.0977,-0.2637 -0.115,-0.3574 -0.0346,-0.1872 -0.0363,-0.3789 -0.0286,-0.5401 0.0159,-0.3327 0.0817,-0.7216 0.1784,-1.0994 0.0711,-0.2777 0.1646,-0.5715 0.2806,-0.8535 -0.2264,-0.0745 -0.4486,-0.1609 -0.664,-0.2614 -1.0075,-0.4697 -1.8725,-1.2493 -2.3213,-2.4832 -0.4353,-1.1969 -0.436,-2.704198 0.0114,-4.569598 0.0329,-0.1373 0.0677,-0.2814 0.1041,-0.4321 0.9664,-3.998 3.0667,-12.6881 1.031,-24.3254 -1.8027,-10.3058 -6.861,-22.9789 -18.9368,-36.7543 -0.6948,-0.7926 -0.8004,-1.7289 -0.5898,-2.5905 0.1988,-0.8136 0.679,-1.5874 1.2027,-2.252 1.0553,-1.3389 2.5366,-2.5413 3.3713,-3.173 0.8035,-0.6081 1.9003,-0.486 2.5727,0.2081 1.774,1.8312 4.0011,4.3068 6.2983,7.1407 l -2.2439,-7.8537 c -0.2917,-1.0207 0.2649,-2.0914 1.2679,-2.4391 l 6.7742,-2.34839 c 1.0751,-0.37269 2.2441,0.2254 2.5708,1.31533 l 1.2589,4.19916 z m 9.5716,9.23973 -0.0313,-0.0017 c -3.5653,4.947 -7.823,12.3072 -8.9506,20.3935 0.3226,0.8062 0.6066,1.6044 0.8455,2.3901 1.5199,-3.0061 3.2278,-5.8776 5.0122,-8.5623 3.7107,-5.5828 7.7767,-10.3938 11.2361,-13.9717 l 0.7664,-4.2152 -4.1448,-1.884 c -0.8489,0.9083 -2.6721,2.9511 -4.7307,5.8023 z m -1.5487,-8.21794 -0.4134,7.47714 c -1.6248,2.2928 -3.3681,5.0574 -4.9014,8.1534 l -2.1124,-7.0458 1.3826,-9.31283 z m -8.8795,25.42434 c 0.5573,-2.4528 1.3589,-4.8153 2.3014,-7.0432 l -5.376,-17.9318 -6.7742,2.3484 3.6246,12.6859 c 0.5228,0.7146 1.0397,1.4409 1.546,2.1753 1.7311,2.5114 3.3597,5.1489 4.6782,7.7654 z m -8.0318,-8.9869 -0.0169,-0.0592 c -3.2306,-4.3822 -6.6731,-8.3011 -9.1868,-10.8984 -0.8066,0.6135 -2.0885,1.6726 -2.9639,2.7832 -0.4494,0.5703 -0.7306,1.0789 -0.8307,1.4887 -0.0884,0.3619 -0.0305,0.5904 0.151,0.7974 10.539,12.0224 15.8861,23.2873 18.3785,32.9836 0.838,-3.3149 2.0204,-6.5625 3.4312,-9.6886 -0.8,-4.4988 -3.7121,-9.9097 -7.2555,-15.0501 -0.5507,-0.7988 -1.1143,-1.588 -1.6848,-2.3629 z m 10.9827,17.7962 0.0631,-0.0084 -0.0064,-0.0476 -0.0072,-0.0514 c 1.7204,-3.7233 3.7771,-7.2836 5.9692,-10.5816 4.9072,-7.3829 10.4486,-13.3857 14.2744,-16.874 l 3.4097,4.9512 -10e-5,0.0023 c -3e-4,0.0045 -0.0015,0.0096 -0.0034,0.0141 -0.0018,0.0044 -0.0038,0.0071 -0.0053,0.0088 -16.1159,18.093 -20.8785,33.2538 -21.4771,44.3531 -0.2988,5.5403 0.442,10.0357 1.2951,13.3398 0.4264,1.6511 0.8799,3.0014 1.2416,4.0265 0.0841,0.2383 0.1603,0.451 0.2297,0.6449 l 0.0014,0.0038 2e-4,4e-4 c 0.0832,0.2324 0.1568,0.4379 0.2229,0.6284 0.1237,0.357 0.1835,0.5584 0.2027,0.6617 0.2086,1.1184 -0.1879,2.024198 -0.995,2.697298 -0.8398,0.7004 -2.1461,1.1519 -3.6539,1.1519 -0.2226,0 -0.4474,0.002 -0.674,0.004 -0.6766,0.006 -1.3691,0.0118 -2.0689,-0.0332 -0.9297,-0.0599 -1.7526,-0.2061 -2.3961,-0.5061 -0.6117,-0.2852 -1.0491,-0.7008 -1.2867,-1.3541 -0.2511,-0.690398 -0.3208,-1.762198 0.0766,-3.419598 0.0334,-0.1392 0.0688,-0.2856 0.1059,-0.439 0.9773,-4.0426 3.1431,-13.0014 1.082,-24.9709 0.7169,-4.8549 2.3057,-9.6494 4.3996,-14.2022 z m -2.5211,41.9291 c 0.2761,0 0.5,0.2239 0.5,0.499998 0,0.2761 -0.2239,0.5 -0.5,0.5 -0.2762,0 -0.5,-0.2239 -0.5,-0.5 0,-0.276098 0.2238,-0.499998 0.5,-0.499998 z m 2.5,0.499998 c 0,-0.276098 -0.2239,-0.499998 -0.5,-0.499998 -0.2762,0 -0.5,0.2239 -0.5,0.499998 0,0.2761 0.2238,0.5 0.5,0.5 0.2761,0 0.5,-0.2239 0.5,-0.5 z m 1.5,-0.499998 c 0.2761,0 0.5,0.2239 0.5,0.499998 0,0.2761 -0.2239,0.5 -0.5,0.5 -0.2762,0 -0.5,-0.2239 -0.5,-0.5 0,-0.276098 0.2238,-0.499998 0.5,-0.499998 z m 2.5,-0.5 c 0,-0.2761 -0.2239,-0.5 -0.5,-0.5 -0.2762,0 -0.5,0.2239 -0.5,0.5 0,0.2761 0.2238,0.5 0.5,0.5 0.2761,0 0.5,-0.2239 0.5,-0.5 z m -2.5,-0.5 c 0.2761,0 0.5,-0.2239 0.5,-0.5 0,-0.2761 -0.2239,-0.5 -0.5,-0.5 -0.2762,0 -0.5,0.2239 -0.5,0.5 0,0.2761 0.2238,0.5 0.5,0.5 z m -1.5,-0.5 c 0,0.2761 -0.2239,0.5 -0.5,0.5 -0.2762,0 -0.5,-0.2239 -0.5,-0.5 0,-0.2761 0.2238,-0.5 0.5,-0.5 0.2761,0 0.5,0.2239 0.5,0.5 z m -2.5,0.5 c 0.2761,0 0.5,-0.2239 0.5,-0.5 0,-0.2761 -0.2239,-0.5 -0.5,-0.5 -0.2762,0 -0.5,0.2239 -0.5,0.5 0,0.2761 0.2238,0.5 0.5,0.5 z m -1.5,0.5 c 0,0.2761 -0.2239,0.5 -0.5,0.5 -0.2762,0 -0.5,-0.2239 -0.5,-0.5 0,-0.2761 0.2238,-0.5 0.5,-0.5 0.2761,0 0.5,0.2239 0.5,0.5 z"
     fill="#000000"
     id="path2071"
     class="UnoptimicedTransforms"
     transform="matrix(1.1519818,0,0,1.1519818,-10.305069,-17.678071)" />
  <path
     style="fill:#66ff00;stroke-width:0.182738"
     d="m 63.941618,11.87734 c -6.672926,7.422832 -12.276428,16.104083 -14.892626,25.816959 -0.333068,1.512802 -0.832039,3.067842 -0.875565,4.59057 0.44447,0.619893 0.522228,2.864388 1.294077,2.377492 4.88713,-9.413895 11.306765,-17.990883 18.567165,-25.687496 0.26789,-1.627286 0.665186,-3.243373 0.826606,-4.883608 -1.465239,-0.894283 -3.168225,-1.476888 -4.720144,-2.254961 l -0.178989,0.03682 z"
     id="path2273" />
  <path
     style="fill:#66ff00;stroke-width:0.182738"
     d="m 49.739788,8.4060288 c -0.5719,3.5727222 -1.104273,7.1571022 -1.609667,10.7369412 0.858981,2.681867 1.555417,5.457962 2.493735,8.088307 0.726595,-0.713938 1.072614,-1.951914 1.696038,-2.849216 1.264349,-2.261915 2.725434,-4.420769 4.11054,-6.606416 0.106524,-2.830277 0.42232,-5.669644 0.345132,-8.4983976 -1.682713,-0.551917 -3.590242,-0.524962 -5.355084,-0.8307771 -0.533259,0.042232 -1.229663,-0.3697009 -1.680694,-0.040446 z"
     id="path2344" />
  <path
     style="fill:#00aa00;stroke-width:0.182738"
     d="m 63.941618,11.683894 c -6.683805,7.263055 -12.043406,15.907614 -14.860941,25.405916 -0.608364,2.320222 -1.520172,4.869138 -0.35737,7.181808 0.07419,0.502276 0.683304,0.828215 0.90798,0.217001 2.890346,-5.069503 5.937871,-10.066643 9.481867,-14.714574 2.78844,-3.77657 5.893488,-7.313547 9.064279,-10.762061 0.125206,-1.601164 0.936684,-3.227732 0.595683,-4.829715 -0.90593,-1.167935 -2.576086,-1.378062 -3.786717,-2.140002 -0.341979,-0.08185 -0.683009,-0.491492 -1.044781,-0.358373 z"
     id="path2346" />
  <path
     style="fill:url(#linearGradient7751);fill-opacity:1;stroke-width:0.182738"
     d="m 73.209517,16.9676 c -2.59734,2.176692 -4.84868,4.774673 -7.146678,7.269093 -8.803649,10.137414 -16.365471,21.73874 -19.996489,34.776621 -0.640659,2.745816 -1.63508,5.583057 -0.928354,8.4202 1.142423,8.529474 0.624405,17.266293 -1.42615,25.623716 -0.317536,1.957611 -1.132421,4.324519 0.168898,6.088326 1.64274,1.623564 4.219631,1.206154 6.315463,1.288744 2.117408,0.0452 4.735993,-0.3912 5.827706,-2.440493 0.781523,-2.095212 -0.624393,-4.195749 -1.090362,-6.20061 C 53.594978,87.447946 52.664046,82.971214 52.707642,78.414178 52.154833,68.28683 54.955367,58.255753 59.260769,49.16422 63.748181,39.697089 70.004761,31.196762 76.7924,23.265025 77.304982,22.807654 77.29329,22.159301 76.7847,21.695237 75.665254,20.1023 74.636726,18.397774 73.318384,16.970811 l -0.09351,-0.0065 z m -26.20081,77.821146 c 0.82888,-0.02288 0.401476,1.256232 -0.203796,0.780209 -0.241592,-0.203776 -0.159851,-0.790668 0.203796,-0.780209 z m 2.350258,0.08995 c 0.738165,-0.07344 0.16474,1.335723 -0.278034,0.639584 -0.138351,-0.24199 -0.106466,-0.710863 0.278034,-0.639584 z m 2.461255,0.0046 c 0.01855,0.0018 -0.02628,-0.0041 0,0 z m -0.159182,3.58e-4 c 0.0039,7.49e-4 0.02273,-0.0036 0,0 z m 0.215931,0.0114 c 0.02243,0.0058 -0.02592,-0.0079 0,0 z m -0.366191,0.02427 c 0.0044,-5.95e-4 0.02229,-0.0089 0,0 z m 0.435432,0.0039 c 0.02418,0.01256 -0.01409,-0.0088 0,0 z m 0.04069,0.02606 c 0.02081,0.01543 -0.0185,-0.01512 0,0 z m 0.01784,0.01499 c 0.01736,0.01532 -0.021,-0.02015 0,0 z m 0.01427,0.01427 c 0.01722,0.01789 -0.01575,-0.01768 0,0 z m 0.01392,0.01641 c 0.01569,0.01899 -0.01343,-0.01791 0,0 z m 0.01249,0.01713 c 0.01649,0.02351 -0.01258,-0.01989 0,0 z m 0.01213,0.01999 c 0.0106,0.01806 -0.01258,-0.02386 0,0 z m -0.739161,0.0093 c 0.0056,-0.004 0.01623,-0.01882 0,0 z m 0.755936,0.02713 c 0.01272,0.03293 -0.01002,-0.03185 0,0 z m -0.792341,0.01606 c 0.0045,-0.0033 0.01553,-0.02328 0,0 z m 0.80626,0.03176 c 0.01118,0.04518 -0.0081,-0.04748 0,0 z m -0.845521,0.03676 c 0.0035,-0.0055 0.01083,-0.02681 0,0 z m 0.851589,0.01071 c 0.0038,0.04277 -0.0012,-0.04102 0,0 z m -0.860511,0.01249 c 0.0032,-0.005 0.0091,-0.02931 0,0 z m -0.0068,0.02356 c 0.0024,-0.0043 0.0061,-0.0262 0,0 z m 0.86658,0.01606 c -0.0017,0.04462 0.0048,-0.04047 0,0 z m -0.87229,0.0097 c 0.0029,-0.0081 0.0047,-0.03474 0,0 z m -0.0025,0.02142 c 0.0015,-0.005 0.0023,-0.02933 0,0 z m 0.866579,0.02534 c -0.0074,0.03991 0.0092,-0.03752 0,0 z m -0.866579,0.0232 c 0.0016,-0.0053 -0.0035,-0.03273 0,0 z m 0.0032,0.02427 c -1.3e-5,-0.0075 -0.0056,-0.02864 0,0 z m 0.846593,0.01106 c -0.01249,0.03857 0.01426,-0.0363 0,0 z m -0.841543,0.01424 c 9.78e-4,-0.0043 -0.0086,-0.03284 0,0 z m 0.0075,0.02463 c -0.0015,-0.0082 -0.01184,-0.03174 0,0 z m 0.807689,0.02213 c -0.01495,0.03241 0.01681,-0.03106 0,0 z m -0.770927,0.05389 c -2.02e-4,-0.0037 -0.01692,-0.02575 0,0 z m 0.03926,0.05318 c -0.0025,-0.0048 -0.0194,-0.02177 0,0 z m 0.09708,0.09993 c -0.0058,-0.0067 -0.02561,-0.02001 0,0 z m 0.463984,0.01037 c -0.02451,0.02223 0.01912,-0.01575 0,0 z m -0.417942,0.02642 c -0.0046,-0.0046 -0.02874,-0.02017 0,0 z m 0.37547,0.0068 c -0.02963,0.02205 0.02416,-0.01578 0,0 z m -0.329786,0.02284 c -0.0054,-0.0047 -0.03834,-0.02195 0,0 z m 0.286599,0.0043 c -0.02804,0.01636 0.03283,-0.01689 0,0 z m -0.244484,0.01606 c -0.0071,-0.0048 -0.03943,-0.01615 0,0 z m 0.204867,0.0029 c -0.03145,0.01387 0.03965,-0.01458 0,0 z m -0.163822,0.01179 c -0.0097,-0.0061 -0.05027,-0.012 0,0 z m 0.129915,-3.57e-4 c -0.04268,0.01239 0.03992,-0.009 0,0 z m -0.09351,0.0075 c -0.0091,-0.0044 -0.05171,-0.0061 0,0 z m 0.05925,-0.0014 c -0.04439,0.0068 0.03833,-0.0029 0,0 z m -0.04855,0.0025 c 0.05497,0.0052 0.01157,-0.0033 0,0 z M 44.78516,95.93704 c 0.786806,0.0096 0.109231,1.365205 -0.348702,0.680629 -0.209393,-0.27847 -0.02441,-0.725475 0.348702,-0.680629 z m 9.286457,0.05317 c 0.946452,0.177492 -0.160489,1.310863 -0.491465,0.577482 -0.08138,-0.285845 0.18493,-0.629844 0.491465,-0.577482 z m -6.948335,1.107494 c 0.752581,0.115798 0.156651,1.203293 -0.429721,0.758087 -0.247398,-0.286072 0.05592,-0.811229 0.429721,-0.758087 z m 4.604861,0.0014 c 0.711828,0.12596 0.165075,1.113854 -0.377612,0.739517 -0.38077,-0.316875 0.01339,-0.73286 0.377612,-0.739517 z m -2.421639,0.08959 c 0.664249,-0.04276 0.24017,1.146224 -0.255549,0.570694 -0.118709,-0.212725 -0.05913,-0.608357 0.255549,-0.570694 z"
     id="path7536" />
  <path
     style="fill:#00d400;fill-opacity:1;stroke-width:0.182738"
     d="m 26.648028,15.508549 c -1.66932,1.227287 -3.341283,2.680332 -4.302557,4.555607 -0.558248,1.237666 0.944337,2.130754 1.504555,3.045471 8.843118,10.412797 16.002165,22.495441 19.583508,35.723588 0.630124,0.492821 0.653878,-0.631546 0.771642,-0.993283 0.96877,-3.314041 2.256269,-6.534776 3.54198,-9.728669 C 46.402543,41.713511 42.838228,36.069405 39.27217,30.694871 35.549754,25.313258 31.381111,20.222623 26.822915,15.532819 c -0.05101,-0.0335 -0.116321,-0.04101 -0.174887,-0.02427 z"
     id="path7824" />
  <path
     style="fill:#00d400;fill-opacity:1;stroke-width:0.182738"
     d="m 42.723996,9.7679994 c -2.504725,0.7942116 -4.995647,1.6421106 -7.463358,2.5447726 -0.138943,0.932236 0.488233,1.93438 0.638801,2.887281 1.252501,4.157939 2.20368,8.432259 3.811518,12.469511 2.469629,3.454866 4.687626,7.118082 6.791651,10.772991 0.652824,-1.011239 0.750364,-2.491795 1.230628,-3.675109 0.451035,-1.51509 1.083008,-2.980398 1.564697,-4.475659 C 47.204564,23.557706 45.406531,16.723611 43.059135,10.073157 42.994195,9.9402634 42.909047,9.7351324 42.723996,9.7679994 Z"
     id="path8171" />
  <path
     style="fill:#00aa00;fill-opacity:1;stroke-width:0.182738"
     d="m 49.887906,8.2008044 c -0.568856,0.3062682 -0.312883,1.302757 -0.540992,1.8663366 -0.401055,3.001463 -1.081161,5.989355 -1.206799,9.015868 0.514094,2.735694 1.441272,5.392067 2.298504,8.034057 0.442709,0.661013 0.768788,-0.571414 1.011121,-0.865243 1.534197,-2.924295 3.468567,-5.620597 5.03316,-8.521148 0.401084,-1.833725 0.167603,-3.767237 0.380467,-5.633478 -0.08324,-0.905801 0.320527,-1.987721 -0.109934,-2.8067446 C 55.246243,8.4838072 53.403723,8.6715164 51.755277,8.3538556 51.13426,8.2936876 50.512324,8.2111124 49.887902,8.2008044 Z"
     id="path8173" />
  <path
     style="fill:#00aa00;fill-opacity:1;stroke-width:0.182738"
     d="m 25.323176,16.337652 c -1.239925,1.174307 -2.67993,2.403671 -3.261093,4.048795 0.367627,1.660804 1.81483,2.852576 2.745904,4.218117 8.089483,9.837106 14.665938,21.062489 18.210687,33.343542 0.05578,0.497363 0.566229,1.580247 1.131894,0.900455 0.929314,-3.710125 2.505436,-7.280929 3.781111,-10.890413 C 46.119388,40.594176 41.896591,34.119345 37.550111,28.013124 34.289283,23.533297 30.685468,19.311885 26.881805,15.285479 c -0.576593,-0.01094 -1.057138,0.780329 -1.558629,1.052173 z"
     id="path8244" />
  <path
     style="fill:#00d400;fill-opacity:1;stroke-width:0.182738"
     d="m 50.023531,8.0741014 c -0.878804,-0.035873 -0.539324,1.251619 -0.805917,1.783564 -0.45169,3.0433726 -1.142896,6.0810806 -1.240964,9.1600286 0.460301,2.800887 1.380323,5.528051 2.355609,8.187172 0.52637,0.721094 1.03884,-0.467448 1.281785,-0.856541 1.640751,-3.008516 3.664671,-5.816519 5.114767,-8.921739 C 56.95822,14.808975 57.16623,12.152128 57.046819,9.5313674 56.13407,8.3579739 54.377384,8.6432014 53.079637,8.3221116 52.064751,8.2064929 51.046185,8.081511 50.023531,8.0741014 Z"
     id="path8315" />
</svg>
