<?xml version="1.0" encoding="UTF-8" standalone="no"?>
<svg
   viewBox="0 0 100 125"
   fill="none"
   x="0px"
   y="0px"
   version="1.1"
   id="svg2077"
   sodipodi:docname="leek.svg"
   inkscape:version="1.2.2 (b0a8486541, 2022-12-01)"
   xmlns:inkscape="http://www.inkscape.org/namespaces/inkscape"
   xmlns:sodipodi="http://sodipodi.sourceforge.net/DTD/sodipodi-0.dtd"
   xmlns:xlink="http://www.w3.org/1999/xlink"
   xmlns="http://www.w3.org/2000/svg"
   xmlns:svg="http://www.w3.org/2000/svg">
  <defs
     id="defs2081">
    <linearGradient
       inkscape:collect="always"
       id="linearGradient7749">
      <stop
         style="stop-color:#e5f9e5;stop-opacity:1;"
         offset="0"
         id="stop7747" />
      <stop
         style="stop-color:#00d400;stop-opacity:1;"
         offset="1"
         id="stop7745" />
    </linearGradient>
    <inkscape:path-effect
       effect="fill_between_many"
       method="originald"
       linkedpaths="#path2071,0,1|"
       id="path-effect2200" />
    <linearGradient
       inkscape:collect="always"
       xlink:href="#linearGradient7749"
       id="linearGradient7751"
       x1="46.586773"
       y1="84.369843"
       x2="72.12429"
       y2="65.02449"
       gradientUnits="userSpaceOnUse" />
  </defs>
  <sodipodi:namedview
     id="namedview2079"
     pagecolor="#ffffff"
     bordercolor="#000000"
     borderopacity="0.25"
     inkscape:showpageshadow="2"
     inkscape:pageopacity="0.0"
     inkscape:pagecheckerboard="0"
     inkscape:deskcolor="#d1d1d1"
     showgrid="false"
     inkscape:zoom="6.304"
     inkscape:cx="50.602792"
     inkscape:cy="62.5"
     inkscape:window-width="1857"
     inkscape:window-height="1011"
     inkscape:window-x="0"
     inkscape:window-y="0"
     inkscape:window-maximized="1"
     inkscape:current-layer="svg2077" />
  <path
     inkscape:original-d="M 0,0"
     inkscape:path-effect="#path-effect2200"
     d="m 50.22598,22.317462 c 0.159,-1.0714 1.1421,-1.82148 2.2175,-1.69195 l 6.0446,0.72809 c 1.0469,0.12609 1.816,1.04325 1.7578,2.09605 l -0.2478,4.48144 c 1.3723,-1.7327 2.499,-2.9792 3.0977,-3.6185 0.5943,-0.6348 1.5003,-0.7741 2.2481,-0.4342 l 4.1596,1.8907 c 0.8343,0.3793 1.3041,1.2769 1.1401,2.1786 l -0.2544,1.3992 c 0.3079,-0.2915 0.6074,-0.5696 0.8975,-0.8339 0.9049,-0.8243 2.2957,-0.6222 2.9667,0.3521 l 3.4215,4.9683 c 0.537,0.7797 0.4316,1.811 -0.1671,2.4831 -15.8619,17.8079 -20.4029,32.5508 -20.9735,43.1306 -0.2858,5.2992 0.4225,9.5873 1.2345,12.7321 0.4063,1.5734 0.8393,2.8639 1.1912,3.8611 0.0755,0.2141 0.15,0.4223 0.2201,0.6181 l 0.0012,0.0032 2e-4,6e-4 3e-4,9e-4 c 0.0882,0.2461 0.1692,0.4723 0.236,0.6652 0.118,0.3405 0.2284,0.6778 0.2791,0.9499 0.3546,1.901098 -0.3752,3.511698 -1.6801,4.599898 -0.6175,0.515 -1.3573,0.9108 -2.1693,1.1818 0.1109,0.2736 0.2007,0.5575 0.2696,0.8264 0.0967,0.3778 0.1625,0.7667 0.1783,1.0994 0.0077,0.1612 0.0061,0.3529 -0.0285,0.5401 -0.0173,0.0937 -0.0493,0.2224 -0.1151,0.3574 -0.0637,0.1306 -0.1927,0.3354 -0.4388,0.4804 -0.4758,0.2803 -1.0888,0.1219 -1.3692,-0.354 -0.173,-0.2937 -0.1789,-0.6397 -0.046,-0.9275 l -1e-4,-10e-4 c -0.0078,-0.1636 -0.0454,-0.4144 -0.1181,-0.6984 -0.0722,-0.2818 -0.1686,-0.5557 -0.2748,-0.7716 -0.029,-0.059 -0.0557,-0.1072 -0.079,-0.1462 -0.2459,0.0197 -0.4941,0.0295 -0.7439,0.0295 -0.0443,0 -0.0895,1e-4 -0.1354,3e-4 -0.037,0.1724 -0.067,0.3794 -0.0898,0.6071 -0.057,0.5704 -0.0575,1.1509 -0.0575,1.4005 0,0.5523 -0.4477,1 -1,1 -0.5523,0 -1,-0.4477 -1,-1 v -0.006 c 0,-0.2545 0,-0.9192 0.0674,-1.594 0.0133,-0.1331 0.0297,-0.2713 0.0501,-0.4105 -0.2347,-0.006 -0.4713,-0.0162 -0.7062,-0.0314 -0.137,-0.009 -0.2757,-0.0195 -0.4154,-0.0324 -0.0282,0.044 -0.0627,0.1037 -0.1015,0.1826 -0.1063,0.2159 -0.2027,0.4898 -0.2748,0.7716 -0.0727,0.284 -0.1104,0.5348 -0.1182,0.6984 v 0.001 c 0.1328,0.2878 0.127,0.6338 -0.0461,0.9275 -0.2803,0.4759 -0.8934,0.6343 -1.3692,0.354 -0.2461,-0.145 -0.3751,-0.3498 -0.4388,-0.4804 -0.0658,-0.135 -0.0977,-0.2637 -0.115,-0.3574 -0.0346,-0.1872 -0.0363,-0.3789 -0.0286,-0.5401 0.0159,-0.3327 0.0817,-0.7216 0.1784,-1.0994 0.0711,-0.2777 0.1646,-0.5715 0.2806,-0.8535 -0.2264,-0.0745 -0.4486,-0.1609 -0.664,-0.2614 -1.0075,-0.4697 -1.8725,-1.2493 -2.3213,-2.4832 -0.4353,-1.1969 -0.436,-2.704198 0.0114,-4.569598 0.0329,-0.1373 0.0677,-0.2814 0.1041,-0.4321 0.9664,-3.998 3.0667,-12.6881 1.031,-24.3254 -1.8027,-10.3058 -6.861,-22.9789 -18.9368,-36.7543 -0.6948,-0.7926 -0.8004,-1.7289 -0.5898,-2.5905 0.1988,-0.8136 0.679,-1.5874 1.2027,-2.252 1.0553,-1.3389 2.5366,-2.5413 3.3713,-3.173 0.8035,-0.6081 1.9003,-0.486 2.5727,0.2081 1.774,1.8312 4.0011,4.3068 6.2983,7.1407 l -2.2439,-7.8537 c -0.2917,-1.0207 0.2649,-2.0914 1.2679,-2.4391 l 6.7742,-2.34839 c 1.0751,-0.37269 2.2441,0.2254 2.5708,1.31533 l 1.2589,4.19916 z"
     id="path2202"
     class="UnoptimicedTransforms" />
  <path
     fill-rule="evenodd"
     clip-rule="evenodd"
     d="m 50.22598,22.317462 c 0.159,-1.0714 1.1421,-1.82148 2.2175,-1.69195 l 6.0446,0.72809 c 1.0469,0.12609 1.816,1.04325 1.7578,2.09605 l -0.2478,4.48144 c 1.3723,-1.7327 2.499,-2.9792 3.0977,-3.6185 0.5943,-0.6348 1.5003,-0.7741 2.2481,-0.4342 l 4.1596,1.8907 c 0.8343,0.3793 1.3041,1.2769 1.1401,2.1786 l -0.2544,1.3992 c 0.3079,-0.2915 0.6074,-0.5696 0.8975,-0.8339 0.9049,-0.8243 2.2957,-0.6222 2.9667,0.3521 l 3.4215,4.9683 c 0.537,0.7797 0.4316,1.811 -0.1671,2.4831 -15.8619,17.8079 -20.4029,32.5508 -20.9735,43.1306 -0.2858,5.2992 0.4225,9.5873 1.2345,12.7321 0.4063,1.5734 0.8393,2.8639 1.1912,3.8611 0.0755,0.2141 0.15,0.4223 0.2201,0.6181 l 0.0012,0.0032 2e-4,6e-4 3e-4,9e-4 c 0.0882,0.2461 0.1692,0.4723 0.236,0.6652 0.118,0.3405 0.2284,0.6778 0.2791,0.9499 0.3546,1.901098 -0.3752,3.511698 -1.6801,4.599898 -0.6175,0.515 -1.3573,0.9108 -2.1693,1.1818 0.1109,0.2736 0.2007,0.5575 0.2696,0.8264 0.0967,0.3778 0.1625,0.7667 0.1783,1.0994 0.0077,0.1612 0.0061,0.3529 -0.0285,0.5401 -0.0173,0.0937 -0.0493,0.2224 -0.1151,0.3574 -0.0637,0.1306 -0.1927,0.3354 -0.4388,0.4804 -0.4758,0.2803 -1.0888,0.1219 -1.3692,-0.354 -0.173,-0.2937 -0.1789,-0.6397 -0.046,-0.9275 l -1e-4,-0.001 c -0.0078,-0.1636 -0.0454,-0.4144 -0.1181,-0.6984 -0.0722,-0.2818 -0.1686,-0.5557 -0.2748,-0.7716 -0.029,-0.059 -0.0557,-0.1072 -0.079,-0.1462 -0.2459,0.0197 -0.4941,0.0295 -0.7439,0.0295 -0.0443,0 -0.0895,1e-4 -0.1354,3e-4 -0.037,0.1724 -0.067,0.3794 -0.0898,0.6071 -0.057,0.5704 -0.0575,1.1509 -0.0575,1.4005 0,0.5523 -0.4477,1 -1,1 -0.5523,0 -1,-0.4477 -1,-1 v -0.006 c 0,-0.2545 0,-0.9192 0.0674,-1.594 0.0133,-0.1331 0.0297,-0.2713 0.0501,-0.4105 -0.2347,-0.006 -0.4713,-0.0162 -0.7062,-0.0314 -0.137,-0.009 -0.2757,-0.0195 -0.4154,-0.0324 -0.0282,0.044 -0.0627,0.1037 -0.1015,0.1826 -0.1063,0.2159 -0.2027,0.4898 -0.2748,0.7716 -0.0727,0.284 -0.1104,0.5348 -0.1182,0.6984 v 0.001 c 0.1328,0.2878 0.127,0.6338 -0.0461,0.9275 -0.2803,0.4759 -0.8934,0.6343 -1.3692,0.354 -0.2461,-0.145 -0.3751,-0.3498 -0.4388,-0.4804 -0.0658,-0.135 -0.0977,-0.2637 -0.115,-0.3574 -0.0346,-0.1872 -0.0363,-0.3789 -0.0286,-0.5401 0.0159,-0.3327 0.0817,-0.7216 0.1784,-1.0994 0.0711,-0.2777 0.1646,-0.5715 0.2806,-0.8535 -0.2264,-0.0745 -0.4486,-0.1609 -0.664,-0.2614 -1.0075,-0.4697 -1.8725,-1.2493 -2.3213,-2.4832 -0.4353,-1.1969 -0.436,-2.704198 0.0114,-4.569598 0.0329,-0.1373 0.0677,-0.2814 0.1041,-0.4321 0.9664,-3.998 3.0667,-12.6881 1.031,-24.3254 -1.8027,-10.3058 -6.861,-22.9789 -18.9368,-36.7543 -0.6948,-0.7926 -0.8004,-1.7289 -0.5898,-2.5905 0.1988,-0.8136 0.679,-1.5874 1.2027,-2.252 1.0553,-1.3389 2.5366,-2.5413 3.3713,-3.173 0.8035,-0.6081 1.9003,-0.486 2.5727,0.2081 1.774,1.8312 4.0011,4.3068 6.2983,7.1407 l -2.2439,-7.8537 c -0.2917,-1.0207 0.2649,-2.0914 1.2679,-2.4391 l 6.7742,-2.34839 c 1.0751,-0.37269 2.2441,0.2254 2.5708,1.31533 l 1.2589,4.19916 z m 9.5716,9.23973 -0.0313,-0.0017 c -3.5653,4.947 -7.823,12.3072 -8.9506,20.3935 0.3226,0.8062 0.6066,1.6044 0.8455,2.3901 1.5199,-3.0061 3.2278,-5.8776 5.0122,-8.5623 3.7107,-5.5828 7.7767,-10.3938 11.2361,-13.9717 l 0.7664,-4.2152 -4.1448,-1.884 c -0.8489,0.9083 -2.6721,2.9511 -4.7307,5.8023 z m -1.5487,-8.21794 -0.4134,7.47714 c -1.6248,2.2928 -3.3681,5.0574 -4.9014,8.1534 l -2.1124,-7.0458 1.3826,-9.31283 z m -8.8795,25.42434 c 0.5573,-2.4528 1.3589,-4.8153 2.3014,-7.0432 l -5.376,-17.9318 -6.7742,2.3484 3.6246,12.6859 c 0.5228,0.7146 1.0397,1.4409 1.546,2.1753 1.7311,2.5114 3.3597,5.1489 4.6782,7.7654 z m -8.0318,-8.9869 -0.0169,-0.0592 c -3.2306,-4.3822 -6.6731,-8.3011 -9.1868,-10.8984 -0.8066,0.6135 -2.0885,1.6726 -2.9639,2.7832 -0.4494,0.5703 -0.7306,1.0789 -0.8307,1.4887 -0.0884,0.3619 -0.0305,0.5904 0.151,0.7974 10.539,12.0224 15.8861,23.2873 18.3785,32.9836 0.838,-3.3149 2.0204,-6.5625 3.4312,-9.6886 -0.8,-4.4988 -3.7121,-9.9097 -7.2555,-15.0501 -0.5507,-0.7988 -1.1143,-1.588 -1.6848,-2.3629 z m 10.9827,17.7962 0.0631,-0.0084 -0.0064,-0.0476 -0.0072,-0.0514 c 1.7204,-3.7233 3.7771,-7.2836 5.9692,-10.5816 4.9072,-7.3829 10.4486,-13.3857 14.2744,-16.874 l 3.4097,4.9512 -10e-5,0.0023 c -3e-4,0.0045 -0.0015,0.0096 -0.0034,0.0141 -0.0018,0.0044 -0.0038,0.0071 -0.0053,0.0088 -16.1159,18.093 -20.8785,33.2538 -21.4771,44.3531 -0.2988,5.5403 0.442,10.0357 1.2951,13.3398 0.4264,1.6511 0.8799,3.0014 1.2416,4.0265 0.0841,0.2383 0.1603,0.451 0.2297,0.6449 l 0.0014,0.0038 2e-4,4e-4 c 0.0832,0.2324 0.1568,0.4379 0.2229,0.6284 0.1237,0.357 0.1835,0.5584 0.2027,0.6617 0.2086,1.1184 -0.1879,2.024198 -0.995,2.697298 -0.8398,0.7004 -2.1461,1.1519 -3.6539,1.1519 -0.2226,0 -0.4474,0.002 -0.674,0.004 -0.6766,0.006 -1.3691,0.0118 -2.0689,-0.0332 -0.9297,-0.0599 -1.7526,-0.2061 -2.3961,-0.5061 -0.6117,-0.2852 -1.0491,-0.7008 -1.2867,-1.3541 -0.2511,-0.690398 -0.3208,-1.762198 0.0766,-3.419598 0.0334,-0.1392 0.0688,-0.2856 0.1059,-0.439 0.9773,-4.0426 3.1431,-13.0014 1.082,-24.9709 0.7169,-4.8549 2.3057,-9.6494 4.3996,-14.2022 z m -2.5211,41.9291 c 0.2761,0 0.5,0.2239 0.5,0.499998 0,0.2761 -0.2239,0.5 -0.5,0.5 -0.2762,0 -0.5,-0.2239 -0.5,-0.5 0,-0.276098 0.2238,-0.499998 0.5,-0.499998 z m 2.5,0.499998 c 0,-0.276098 -0.2239,-0.499998 -0.5,-0.499998 -0.2762,0 -0.5,0.2239 -0.5,0.499998 0,0.2761 0.2238,0.5 0.5,0.5 0.2761,0 0.5,-0.2239 0.5,-0.5 z m 1.5,-0.499998 c 0.2761,0 0.5,0.2239 0.5,0.499998 0,0.2761 -0.2239,0.5 -0.5,0.5 -0.2762,0 -0.5,-0.2239 -0.5,-0.5 0,-0.276098 0.2238,-0.499998 0.5,-0.499998 z m 2.5,-0.5 c 0,-0.2761 -0.2239,-0.5 -0.5,-0.5 -0.2762,0 -0.5,0.2239 -0.5,0.5 0,0.2761 0.2238,0.5 0.5,0.5 0.2761,0 0.5,-0.2239 0.5,-0.5 z m -2.5,-0.5 c 0.2761,0 0.5,-0.2239 0.5,-0.5 0,-0.2761 -0.2239,-0.5 -0.5,-0.5 -0.2762,0 -0.5,0.2239 -0.5,0.5 0,0.2761 0.2238,0.5 0.5,0.5 z m -1.5,-0.5 c 0,0.2761 -0.2239,0.5 -0.5,0.5 -0.2762,0 -0.5,-0.2239 -0.5,-0.5 0,-0.2761 0.2238,-0.5 0.5,-0.5 0.2761,0 0.5,0.2239 0.5,0.5 z m -2.5,0.5 c 0.2761,0 0.5,-0.2239 0.5,-0.5 0,-0.2761 -0.2239,-0.5 -0.5,-0.5 -0.2762,0 -0.5,0.2239 -0.5,0.5 0,0.2761 0.2238,0.5 0.5,0.5 z m -1.5,0.5 c 0,0.2761 -0.2239,0.5 -0.5,0.5 -0.2762,0 -0.5,-0.2239 -0.5,-0.5 0,-0.2761 0.2238,-0.5 0.5,-0.5 0.2761,0 0.5,0.2239 0.5,0.5 z"
     fill="#000000"
     id="path2071"
     class="UnoptimicedTransforms" />
  <path
     style="fill:#66ff00;stroke-width:0.158629"
     d="m 64.451266,25.656143 c -5.792562,6.443532 -10.65679,13.979459 -12.927831,22.410908 -0.289126,1.313217 -0.722267,2.6631 -0.760051,3.984933 0.385831,0.53811 0.45333,2.486487 1.123349,2.063828 4.242367,-8.171913 9.815055,-15.617333 16.117585,-22.298526 0.232547,-1.412597 0.577427,-2.815472 0.717551,-4.23931 -1.271929,-0.776299 -2.750239,-1.282041 -4.097412,-1.957462 l -0.155375,0.03196 z"
     id="path2273" />
  <path
     style="fill:#66ff00;stroke-width:0.158629"
     d="m 52.123094,22.642804 c -0.496449,3.101371 -0.958585,6.212861 -1.397302,9.320409 0.745655,2.328046 1.350209,4.737889 2.164734,7.021211 0.630735,-0.619748 0.931104,-1.694397 1.472279,-2.473317 1.097542,-1.963499 2.365865,-3.837534 3.568233,-5.734827 0.09247,-2.456876 0.366603,-4.921643 0.299599,-7.377198 C 56.769925,22.91998 55.114058,22.943379 53.582053,22.67791 53.119147,22.71457 52.51462,22.356984 52.123094,22.6428 Z"
     id="path2344" />
  <path
     style="fill:#00aa00;stroke-width:0.158629"
     d="m 64.451266,25.488219 c -5.802006,6.304834 -10.45451,13.80891 -12.900326,22.054094 -0.528102,2.014113 -1.319614,4.226749 -0.310222,6.234307 0.0644,0.43601 0.593155,0.718948 0.78819,0.188372 2.50902,-4.40068 5.154483,-8.738544 8.230917,-12.77327 2.420559,-3.278324 5.115956,-6.348665 7.868422,-9.342214 0.108687,-1.389921 0.813106,-2.801895 0.517094,-4.192527 -0.78641,-1.013848 -2.236221,-1.196253 -3.287133,-1.85767 -0.296861,-0.07105 -0.592899,-0.426649 -0.906942,-0.311092 z"
     id="path2346" />
  <path
     style="fill:url(#linearGradient7751);stroke-width:0.158629;fill-opacity:1"
     d="m 72.496444,30.074841 c -2.254671,1.88952 -4.20899,4.144747 -6.203811,6.310076 -7.642177,8.799978 -14.206362,18.870732 -17.358337,30.188516 -0.556137,2.383558 -1.419363,4.84648 -0.805876,7.309316 0.991702,7.404174 0.542027,14.988338 -1.237997,22.24316 -0.275643,1.699342 -0.98302,3.753982 0.146615,5.285091 1.426012,1.40936 3.662932,1.04702 5.482259,1.11871 1.838057,0.0392 4.11117,-0.33959 5.058853,-2.11851 0.678416,-1.818789 -0.542017,-3.642201 -0.94651,-5.382559 -1.161974,-3.771979 -1.970087,-7.658092 -1.932243,-11.613915 -0.479877,-8.791239 1.951181,-17.498909 5.688568,-25.390989 3.895384,-8.218125 9.326529,-15.596998 15.21867,-22.482295 0.444956,-0.397029 0.434807,-0.959845 -0.0067,-1.362684 -0.971757,-1.38278 -1.86459,-2.862427 -3.009002,-4.101129 l -0.08117,-0.0056 z M 49.752327,97.628985 c 0.719525,-0.01986 0.348509,1.090496 -0.176909,0.677275 -0.209719,-0.176891 -0.138762,-0.686354 0.176909,-0.677275 z m 2.040186,0.07808 c 0.640779,-0.06375 0.143006,1.1595 -0.241352,0.555203 -0.120099,-0.210064 -0.09242,-0.617078 0.241352,-0.555203 z m 2.13654,0.004 c 0.0161,0.0016 -0.02281,-0.0036 0,0 z m -0.138181,3.11e-4 c 0.0034,6.5e-4 0.01973,-0.0031 0,0 z m 0.187443,0.0099 c 0.01947,0.005 -0.0225,-0.0069 0,0 z m -0.317879,0.02107 c 0.0038,-5.16e-4 0.01935,-0.0077 0,0 z m 0.377985,0.0034 c 0.02099,0.0109 -0.01223,-0.0076 0,0 z m 0.03532,0.02262 c 0.01806,0.01339 -0.01606,-0.01313 0,0 z m 0.01549,0.01301 c 0.01507,0.0133 -0.01823,-0.01749 0,0 z m 0.01239,0.01239 c 0.01495,0.01553 -0.01367,-0.01535 0,0 z m 0.01208,0.01425 c 0.01362,0.01648 -0.01166,-0.01555 0,0 z m 0.01084,0.01487 c 0.01431,0.02041 -0.01092,-0.01727 0,0 z m 0.01053,0.01735 c 0.0092,0.01568 -0.01092,-0.02071 0,0 z m -0.641643,0.0081 c 0.0049,-0.0035 0.01409,-0.01634 0,0 z m 0.656205,0.02355 c 0.01104,0.02859 -0.0087,-0.02765 0,0 z m -0.687807,0.01394 c 0.0039,-0.0029 0.01348,-0.02021 0,0 z m 0.69989,0.02757 c 0.0097,0.03922 -0.007,-0.04122 0,0 z m -0.733971,0.03191 c 0.003,-0.0048 0.0094,-0.02327 0,0 z m 0.739238,0.0093 c 0.0033,0.03713 -0.001,-0.03561 0,0 z M 53.42,97.965446 c 0.0028,-0.0043 0.0079,-0.02544 0,0 z m -0.0059,0.02045 c 0.0021,-0.0037 0.0053,-0.02274 0,0 z m 0.752251,0.01394 c -0.0015,0.03873 0.0042,-0.03513 0,0 z m -0.757208,0.0084 c 0.0025,-0.007 0.0041,-0.03016 0,0 z m -0.0022,0.01859 c 0.0013,-0.0043 0.002,-0.02546 0,0 z m 0.752251,0.022 c -0.0064,0.03464 0.008,-0.03257 0,0 z m -0.752251,0.02014 c 0.0014,-0.0046 -0.003,-0.02841 0,0 z m 0.0028,0.02107 c -1.1e-5,-0.0065 -0.0049,-0.02486 0,0 z m 0.734901,0.0096 c -0.01084,0.03348 0.01238,-0.03151 0,0 z M 53.414127,98.112 c 8.49e-4,-0.0037 -0.0075,-0.02851 0,0 z m 0.0065,0.02138 c -0.0013,-0.0071 -0.01028,-0.02755 0,0 z m 0.70113,0.01921 c -0.01298,0.02813 0.01459,-0.02696 0,0 z m -0.669218,0.04678 c -1.76e-4,-0.0032 -0.01469,-0.02235 0,0 z m 0.03408,0.04616 c -0.0022,-0.0042 -0.01684,-0.0189 0,0 z m 0.08427,0.08675 c -0.005,-0.0058 -0.02223,-0.01737 0,0 z m 0.40277,0.009 c -0.02128,0.0193 0.0166,-0.01367 0,0 z m -0.362803,0.02293 c -0.004,-0.004 -0.02495,-0.01751 0,0 z m 0.325934,0.0059 c -0.02572,0.01914 0.02097,-0.0137 0,0 z m -0.286277,0.01983 c -0.0047,-0.0041 -0.03328,-0.01905 0,0 z m 0.248788,0.0037 c -0.02434,0.0142 0.0285,-0.01466 0,0 z m -0.212229,0.01394 c -0.0062,-0.0042 -0.03423,-0.01402 0,0 z m 0.177839,0.0025 c -0.0273,0.01204 0.03442,-0.01266 0,0 z m -0.142209,0.01023 c -0.0084,-0.0053 -0.04364,-0.01042 0,0 z M 53.835477,98.42 c -0.03705,0.01076 0.03465,-0.0078 0,0 z m -0.08117,0.0065 c -0.0079,-0.0038 -0.04489,-0.0053 0,0 z m 0.05143,-0.0012 c -0.03853,0.0059 0.03327,-0.0025 0,0 z m -0.04214,0.0022 c 0.04772,0.0045 0.01004,-0.0029 0,0 z m -5.941478,0.198287 c 0.683002,0.0083 0.09482,1.185093 -0.302697,0.590833 -0.181768,-0.241731 -0.02119,-0.629762 0.302697,-0.590833 z m 8.061288,0.04616 c 0.821586,0.154075 -0.139316,1.13792 -0.426626,0.501294 -0.07064,-0.248133 0.160532,-0.546748 0.426626,-0.501294 z m -6.031636,0.961381 c 0.653292,0.100521 0.135984,1.044542 -0.373028,0.658072 -0.214758,-0.24833 0.04854,-0.704203 0.373028,-0.658072 z m 3.997338,0.0012 c 0.617916,0.109342 0.143297,0.966902 -0.327793,0.641952 -0.330535,-0.27507 0.01162,-0.636173 0.327793,-0.641952 z m -2.10215,0.07777 c 0.576614,-0.03712 0.208484,0.995002 -0.221834,0.495402 -0.103048,-0.18466 -0.05133,-0.528096 0.221834,-0.495402 z"
     id="path7536" />
  <path
     style="fill:#00d400;fill-opacity:1;stroke-width:0.158629"
     d="m 32.077847,28.808284 c -1.449085,1.06537 -2.900465,2.326714 -3.734917,3.954582 -0.484598,1.07438 0.81975,1.849642 1.306058,2.64368 7.676439,9.039029 13.890987,19.527601 16.999841,31.010548 0.546991,0.427803 0.567611,-0.548225 0.669839,-0.862238 0.840959,-2.876817 1.958597,-5.672638 3.074684,-8.445159 -1.167218,-5.553691 -4.26129,-10.453166 -7.356875,-15.118634 -3.231315,-4.671613 -6.849986,-9.090636 -10.806816,-13.161711 -0.04428,-0.02908 -0.100974,-0.0356 -0.151814,-0.02107 z"
     id="path7824" />
  <path
     style="fill:#00d400;fill-opacity:1;stroke-width:0.158629"
     d="m 46.032901,23.825089 c -2.174275,0.689431 -4.336568,1.425466 -6.478712,2.209039 -0.120612,0.809246 0.42382,1.679176 0.554524,2.50636 1.087257,3.609379 1.912947,7.319785 3.308661,10.824399 2.143809,2.999063 4.069184,6.178988 5.895624,9.351702 0.566696,-0.877825 0.651368,-2.16305 1.06827,-3.190249 0.39153,-1.315203 0.940126,-2.587192 1.358265,-3.885182 -1.817189,-5.845648 -3.378006,-11.778116 -5.415708,-17.551171 -0.05637,-0.115361 -0.130287,-0.293429 -0.290924,-0.264898 z"
     id="path8171" />
  <path
     style="fill:#00aa00;fill-opacity:1;stroke-width:0.158629"
     d="m 52.251671,22.464655 c -0.493807,0.265862 -0.271604,1.130884 -0.469619,1.62011 -0.348143,2.605478 -0.938522,5.199175 -1.047585,7.826398 0.446269,2.374772 1.251124,4.680687 1.995261,6.974118 0.384302,0.573805 0.667361,-0.496027 0.877723,-0.751091 1.331789,-2.538491 3.010956,-4.879068 4.369131,-7.396947 0.348169,-1.5918 0.145491,-3.270222 0.330272,-4.890249 -0.07226,-0.786298 0.27824,-1.725479 -0.09543,-2.436449 -1.308346,-0.700224 -2.907781,-0.537279 -4.338746,-0.813031 -0.539086,-0.05223 -1.078969,-0.123911 -1.621011,-0.132859 z"
     id="path8173" />
  <path
     style="fill:#00aa00;fill-opacity:1;stroke-width:0.158629"
     d="m 30.927784,29.528003 c -1.076341,1.01938 -2.326365,2.086553 -2.830854,3.514634 0.319125,1.441693 1.575398,2.476234 2.383634,3.661618 7.022232,8.539289 12.73105,18.283699 15.808138,28.944503 0.04842,0.431746 0.491526,1.371764 0.982562,0.781658 0.806709,-3.220646 2.174892,-6.320351 3.282266,-9.453633 -1.573194,-6.392438 -5.238874,-12.013039 -9.01192,-17.313662 -2.830624,-3.8888 -5.958985,-7.553278 -9.260828,-11.048477 -0.500523,-0.0095 -0.917669,0.677379 -1.352998,0.913359 z"
     id="path8244" />
  <path
     style="fill:#00d400;fill-opacity:1;stroke-width:0.158629"
     d="m 52.369403,22.354668 c -0.762863,-0.03114 -0.468171,1.086492 -0.699592,1.548257 -0.392098,2.641859 -0.992113,5.2788 -1.077243,7.95154 0.399573,2.431364 1.198216,4.798731 2.044832,7.107032 0.456926,0.62596 0.901785,-0.405777 1.112678,-0.743537 1.424286,-2.6116 3.181188,-5.049141 4.439972,-7.744687 0.199143,-2.272268 0.37971,-4.578595 0.276053,-6.853597 -0.792329,-1.018587 -2.317254,-0.77099 -3.443789,-1.049718 -0.880991,-0.100365 -1.765177,-0.208858 -2.652911,-0.21529 z"
     id="path8315" />
</svg>
