<?xml version="1.0" encoding="UTF-8" standalone="no"?>
<svg
   version="1.1"
   x="0px"
   y="0px"
   viewBox="0 0 116.595 157.48250000000002"
   style="enable-background:new 0 0 116.595 125.986;"
   xml:space="preserve"
   id="svg40693"
   sodipodi:docname="lettuce.svg"
   inkscape:version="1.2.2 (b0a8486541, 2022-12-01)"
   xmlns:inkscape="http://www.inkscape.org/namespaces/inkscape"
   xmlns:sodipodi="http://sodipodi.sourceforge.net/DTD/sodipodi-0.dtd"
   xmlns="http://www.w3.org/2000/svg"
   xmlns:svg="http://www.w3.org/2000/svg"><defs
     id="defs40697"><inkscape:path-effect
       effect="fill_between_many"
       method="originald"
       linkedpaths="#path40687,0,1|"
       id="path-effect40816" /></defs><sodipodi:namedview
     id="namedview40695"
     pagecolor="#ffffff"
     bordercolor="#000000"
     borderopacity="0.25"
     inkscape:showpageshadow="2"
     inkscape:pageopacity="0.0"
     inkscape:pagecheckerboard="0"
     inkscape:deskcolor="#d1d1d1"
     showgrid="false"
     inkscape:zoom="5.0037306"
     inkscape:cx="58.456385"
     inkscape:cy="78.74125"
     inkscape:window-width="1857"
     inkscape:window-height="1011"
     inkscape:window-x="0"
     inkscape:window-y="0"
     inkscape:window-maximized="1"
     inkscape:current-layer="svg40693" /><g
     id="g40462"
     transform="rotate(-39.961364,64.300631,57.883316)"><path
       inkscape:original-d="M 0,0"
       inkscape:path-effect="#path-effect40816"
       d="m 116.272,33.576 c -0.503,-2.367 -0.399,-4.661 -0.299,-6.88 0.187,-4.144 0.364,-8.057 -4.185,-9.952 -1.62,-0.606 -2.199,-1.157 -2.813,-1.741 -1.141,-1.084 -2.145,-1.841 -5.637,-2.463 -2.394,-0.256 -3.777,-0.901 -5.114,-1.525 -0.54,-0.252 -1.069,-0.497 -1.631,-0.698 C 95.08,6.078 92.485,1.627 86.15,2.961 80.963,4.051 79.21,3.212 77.179,2.24 76.536,1.932 75.872,1.615 75.077,1.334 68.446,-1.003 63.162,4.552 60.757,8.64 60.029,7.873 59.336,7.011 58.632,6.133 55.732,2.518 52.443,-1.578 45.673,0.615 45.63,0.629 45.588,0.646 45.547,0.665 41.061,2.829 38.332,1.901 35.693,1.002 30.747,-0.681 27.326,-1.045 20.325,11.857 20.125,11.787 19.927,11.694 19.73,11.567 16.44,9.094 13.471,8.246 10.906,9.043 7.648,10.056 5.908,13.42 5.023,16.064 4.691,17.056 4.022,17.881 3.14,18.388 0.558,19.873 0.007,22.196 0,23.884 c -0.004,1.12 0.309,2.307 0.931,3.529 2.505,4.918 2.162,9.208 1.83,13.356 -0.456,5.7 -0.886,11.083 6.774,15.959 7.71,5.362 5.954,11.256 4.094,17.497 -0.306,1.026 -0.61,2.049 -0.871,3.063 -1.153,4.488 0.022,9.441 3.145,13.25 2.809,3.426 4.249,6.973 5.641,10.403 2.987,7.361 5.817,14.315 21.428,17.091 1.438,1.633 3.022,3.26 4.768,4.877 1.584,2.102 6.683,3.078 11.491,3.078 5.456,0 11.298,-1.253 11.936,-3.988 3.364,-3.009 6.114,-6.08 8.357,-9.032 1.85,-0.847 3.763,-2.308 5.691,-4.362 1.477,-1.573 2.8,-3.45 3.933,-5.579 1.19,-2.238 2.995,-3.956 4.905,-5.775 3.871,-3.684 8.257,-7.86 8.552,-17.552 -0.194,-5.002 2.707,-8.555 5.513,-11.991 3.117,-3.816 6.34,-7.763 4.134,-13.263 -2.036,-4.115 -2.631,-8.237 -2.797,-9.891 0.014,-0.004 0.028,-0.009 0.042,-0.013 5.776,-1.561 7.992,-5.146 6.775,-10.965 z"
       id="path40818"
       class="UnoptimicedTransforms"
       transform="matrix(0.77524746,0.24818182,-0.24818182,0.77524746,28.899018,2.2644879)"
       style="fill:#55d400" /><path
       d="m 116.272,33.576 c -0.503,-2.367 -0.399,-4.661 -0.299,-6.88 0.187,-4.144 0.364,-8.057 -4.185,-9.952 -1.62,-0.606 -2.199,-1.157 -2.813,-1.741 -1.141,-1.084 -2.145,-1.841 -5.637,-2.463 -2.394,-0.256 -3.777,-0.901 -5.114,-1.525 -0.54,-0.252 -1.069,-0.497 -1.631,-0.698 C 95.08,6.078 92.485,1.627 86.15,2.961 80.963,4.051 79.21,3.212 77.179,2.24 76.536,1.932 75.872,1.615 75.077,1.334 68.446,-1.003 63.162,4.552 60.757,8.64 60.029,7.873 59.336,7.011 58.632,6.133 55.732,2.518 52.443,-1.578 45.673,0.615 45.63,0.629 45.588,0.646 45.547,0.665 41.061,2.829 38.332,1.901 35.693,1.002 30.747,-0.681 27.326,-1.045 20.325,11.857 20.125,11.787 19.927,11.694 19.73,11.567 16.44,9.094 13.471,8.246 10.906,9.043 7.648,10.056 5.908,13.42 5.023,16.064 4.691,17.056 4.022,17.881 3.14,18.388 0.558,19.873 0.007,22.196 0,23.884 c -0.004,1.12 0.309,2.307 0.931,3.529 2.505,4.918 2.162,9.208 1.83,13.356 -0.456,5.7 -0.886,11.083 6.774,15.959 7.71,5.362 5.954,11.256 4.094,17.497 -0.306,1.026 -0.61,2.049 -0.871,3.063 -1.153,4.488 0.022,9.441 3.145,13.25 2.809,3.426 4.249,6.973 5.641,10.403 2.987,7.361 5.817,14.315 21.428,17.091 1.438,1.633 3.022,3.26 4.768,4.877 1.584,2.102 6.683,3.078 11.491,3.078 5.456,0 11.298,-1.253 11.936,-3.988 3.364,-3.009 6.114,-6.08 8.357,-9.032 1.85,-0.847 3.763,-2.308 5.691,-4.362 1.477,-1.573 2.8,-3.45 3.933,-5.579 1.19,-2.238 2.995,-3.956 4.905,-5.775 3.871,-3.684 8.257,-7.86 8.552,-17.552 -0.194,-5.002 2.707,-8.555 5.513,-11.991 3.117,-3.816 6.34,-7.763 4.134,-13.263 -2.036,-4.115 -2.631,-8.237 -2.797,-9.891 0.014,-0.004 0.028,-0.009 0.042,-0.013 5.776,-1.561 7.992,-5.146 6.775,-10.965 z M 103.055,14.518 c 3.088,0.552 3.729,1.162 4.542,1.935 0.698,0.664 1.489,1.416 3.456,2.151 3.08,1.283 3.12,3.626 2.922,8.002 -0.101,2.235 -0.215,4.769 0.34,7.383 0.997,4.763 -0.6,7.341 -5.338,8.62 -6.255,1.689 -11.537,6.724 -13.505,12.85 -3.06,4.431 -5.344,11.638 -7.984,19.975 -4.259,13.448 -9.05,28.577 -18.488,36.258 1.529,-6.703 5.831,-14.737 8.28,-19.299 0.802,-1.495 1.436,-2.676 1.751,-3.379 5.751,-10.752 6.63,-19.517 7.33,-27.258 1.809,-1.098 4.161,-1.121 4.186,-1.121 0.551,-0.002 0.998,-0.45 0.997,-1.002 -10e-4,-0.551 -0.447,-0.998 -0.999,-0.998 -0.104,0 -2.016,0.015 -3.971,0.796 0.47,-5.004 1.069,-9.677 3.064,-14.486 0.933,-0.743 6.312,-1.619 10.925,-1.987 0.55,-0.044 0.961,-0.526 0.917,-1.077 -0.043,-0.55 -0.522,-0.96 -1.076,-0.917 -2.241,0.179 -6.61,0.61 -9.567,1.422 1.204,-2.32 2.764,-4.689 4.843,-7.161 2.031,-2.53 1.834,-4.214 1.407,-5.118 3.371,-3.764 6.62,-5.318 6.654,-5.334 0.5,-0.234 0.716,-0.829 0.482,-1.329 -0.233,-0.5 -0.829,-0.718 -1.327,-0.484 -0.154,0.071 -3.642,1.726 -7.3,5.813 -0.838,-0.305 -1.811,-0.22 -2.552,0.308 -1.876,1.283 -3.504,2.597 -4.934,3.93 -1.449,-4.091 -5.51,-8.166 -5.707,-8.362 -0.391,-0.389 -1.024,-0.39 -1.414,0.004 -0.39,0.391 -0.388,1.024 0.003,1.414 0.049,0.048 4.678,4.704 5.497,8.557 -4.95,5.262 -6.982,10.797 -8.131,16.136 -2.982,-3.595 -8.774,-6.73 -9.07,-6.888 -0.486,-0.26 -1.092,-0.077 -1.353,0.41 -0.261,0.487 -0.078,1.093 0.409,1.354 2.199,1.178 8.064,4.842 9.477,7.921 -0.204,1.187 -0.382,2.359 -0.556,3.512 -0.307,2.032 -0.597,3.951 -1.007,5.794 -0.868,3.806 -1.756,7.098 -2.656,9.971 -2.185,-4.793 -7.029,-9.276 -7.277,-9.503 -0.407,-0.374 -1.04,-0.345 -1.413,0.062 -0.373,0.407 -0.345,1.04 0.062,1.413 0.068,0.062 6.661,6.165 7.574,11.186 -3.602,10.148 -7.349,14.234 -10.758,17.946 -1.975,2.151 -3.895,4.243 -5.64,7.303 -1.758,-2.673 -1.163,-5.102 -0.487,-7.86 0.956,-3.897 2.038,-8.314 -3.727,-13.54 -5.097,-5.05 -3.222,-7.243 0.182,-11.222 1.729,-2.021 3.724,-4.364 4.998,-7.511 0.006,-0.016 0.013,-0.031 0.018,-0.048 0.701,-1.747 1.183,-3.738 1.265,-6.067 -0.003,-10.084 3.565,-12.747 7.343,-15.566 3.487,-2.602 7.092,-5.292 7.731,-13.411 1.512,-6.106 4.81,-7.397 9.367,-9.181 2.432,-0.952 5.188,-2.03 8.019,-4.025 0.839,-0.591 1.841,-0.935 2.821,-0.966 1.471,-0.049 2.46,0.408 3.699,0.986 1.346,0.625 3.021,1.407 5.676,1.688 z m -44.73,102.505 c -1.665,-0.998 -3.197,-2.021 -4.624,-3.064 1.016,-4.572 2.19,-7.875 3.496,-10.46 0.005,-0.01 0.009,-0.019 0.014,-0.028 1.796,-3.548 3.838,-5.774 6.051,-8.184 4.771,-5.195 10.179,-11.083 14.946,-31.988 0.426,-1.916 0.721,-3.867 1.033,-5.934 1.299,-8.586 2.771,-18.317 14.945,-26.647 0.285,-0.203 0.761,-0.158 0.999,0.095 0.395,0.418 0.218,1.557 -1.052,3.139 -2.91,3.459 -4.867,6.765 -6.232,9.997 -0.019,0.043 -0.043,0.082 -0.055,0.127 -2.411,5.774 -2.92,11.313 -3.438,17.055 -0.724,8.033 -1.473,16.339 -7.171,26.998 -0.316,0.701 -0.936,1.855 -1.72,3.316 -3.584,6.678 -10.013,18.665 -8.96,26.407 -2.148,-0.569 -4.778,-0.842 -7.325,-0.842 -0.302,0 -0.604,0.006 -0.907,0.013 z M 56.398,54.955 c -0.001,0.018 -0.003,0.035 -0.004,0.054 -0.679,-2.976 -1.624,-4.849 -2.44,-6.456 -0.826,-1.625 -1.499,-2.963 -1.636,-5.053 1.363,-0.375 4.446,-1.136 7.455,-1.302 -1.966,2.588 -3.377,6.317 -3.375,12.757 z M 74.413,3.221 c 0.693,0.244 1.308,0.539 1.903,0.823 2.26,1.082 4.396,2.103 10.246,0.874 3.618,-0.761 5.921,0.686 7.702,4.929 -0.209,-0.009 -0.424,-0.013 -0.65,-0.005 -1.386,0.045 -2.737,0.505 -3.909,1.331 -2.633,1.856 -5.156,2.843 -7.596,3.798 -2.792,1.093 -5.355,2.107 -7.353,4.209 C 74.34,17.051 73.515,15.282 72.279,13.913 70.88,12.363 68.769,11.5 66.337,11.483 64.74,11.472 63.438,10.902 62.279,10.023 63.576,7.784 68.114,1.001 74.413,3.221 Z M 35.049,2.897 c 2.726,0.927 6.116,2.08 11.304,-0.398 5.414,-1.725 7.875,1.34 10.72,4.887 2.394,2.984 4.869,6.069 9.251,6.098 1.864,0.013 3.452,0.641 4.471,1.77 1.337,1.481 2.087,3.604 2.242,6.303 -0.614,1.119 -1.133,2.443 -1.528,4.062 -0.013,0.053 -0.021,0.107 -0.025,0.161 -0.552,7.276 -3.655,9.591 -6.939,12.042 -0.991,0.74 -1.991,1.487 -2.934,2.358 -3.423,-0.128 -7.268,0.719 -9.261,1.239 0.054,-0.654 0.144,-1.367 0.285,-2.169 0.696,-4.318 0.453,-7.823 -0.41,-10.75 0.797,-2.42 6.654,-6.372 10.261,-8.344 0.484,-0.265 0.662,-0.873 0.397,-1.357 -0.265,-0.484 -0.873,-0.662 -1.357,-0.397 -0.88,0.482 -7.461,4.158 -10.194,7.713 C 50.213,23.665 48.63,21.664 46.841,19.923 45.666,11.209 42.647,8.461 40.302,7.707 39.674,7.504 38.986,7.628 38.464,8.04 c -0.527,0.416 -0.81,1.064 -0.757,1.734 0.075,0.954 0.139,2.111 0.185,3.094 -1.117,-0.871 -2.188,-1.768 -3.187,-2.764 -3.601,-3.015 -6.915,-1.155 -9.578,0.34 -0.913,0.512 -1.7,0.937 -2.411,1.214 C 28.804,0.782 31.328,1.631 35.049,2.897 Z m 4.915,11.53 c -0.038,-0.961 -0.133,-3.153 -0.273,-4.818 1.065,0.343 3.472,1.836 4.773,8.211 -1.22,-0.991 -2.476,-1.91 -3.703,-2.807 -0.27,-0.196 -0.532,-0.39 -0.797,-0.586 z M 23.397,100.189 C 21.949,96.62 20.452,92.93 17.45,89.27 14.73,85.952 13.7,81.659 14.696,77.787 14.95,76.797 15.248,75.799 15.547,74.797 17.436,68.459 19.576,61.275 10.644,55.064 3.965,50.813 4.314,46.451 4.755,40.929 5.092,36.71 5.475,31.928 2.713,26.506 2.23,25.556 1.997,24.702 2,23.892 2.007,22.202 2.726,20.934 4.136,20.123 5.443,19.372 6.431,18.156 6.919,16.7 7.523,14.898 8.92,11.756 11.5,10.954 c 1.917,-0.596 4.281,0.149 7.088,2.255 0.73,0.47 1.454,0.695 2.168,0.757 0.009,0.001 0.017,0.001 0.026,0.002 1.875,0.151 3.681,-0.856 5.326,-1.781 2.561,-1.438 4.771,-2.68 7.25,-0.609 1.872,1.87 4.083,3.487 6.222,5.051 6.752,4.937 13.129,9.6 11.083,22.29 -0.99,5.622 0.168,7.901 1.508,10.541 1.204,2.373 2.567,5.064 2.999,11.139 -1.152,2.716 -2.931,4.798 -4.574,6.719 -3.336,3.9 -6.486,7.584 -0.037,13.973 4.915,4.456 4.063,7.932 3.16,11.612 -0.757,3.089 -1.6,6.573 1.406,10.308 -1.169,2.443 -2.239,5.469 -3.171,9.418 -13.057,-10.408 -15.448,-22.81 -15.756,-35.356 2.122,-4.623 7.742,-8.07 7.799,-8.104 0.473,-0.286 0.624,-0.9 0.338,-1.373 -0.286,-0.473 -0.9,-0.624 -1.372,-0.339 -0.205,0.123 -4.054,2.483 -6.806,6.079 0.003,-1.781 0.028,-3.561 0.055,-5.335 0.053,-3.503 0.103,-6.959 -0.032,-10.328 1.333,-5.374 9.648,-10.464 9.733,-10.515 0.472,-0.286 0.624,-0.901 0.338,-1.373 -0.286,-0.473 -0.9,-0.624 -1.373,-0.339 -0.299,0.181 -5.933,3.634 -8.97,8.167 -0.555,-5.72 -1.911,-11.119 -5.048,-15.971 0.587,-6.295 4.72,-12.552 4.763,-12.615 0.307,-0.459 0.184,-1.08 -0.275,-1.387 -0.458,-0.308 -1.08,-0.185 -1.387,0.274 -0.166,0.247 -3.603,5.434 -4.784,11.393 -1.75,-2.181 -3.922,-4.236 -6.622,-6.139 -0.078,-0.055 -0.164,-0.099 -0.254,-0.129 -1.013,-0.344 -1.769,-0.38 -2.346,-0.268 L 14.68,21.218 c -0.31,-0.457 -0.932,-0.575 -1.389,-0.264 -0.457,0.311 -0.575,0.933 -0.264,1.389 l 5.335,7.842 c -0.463,1.007 -0.174,2.345 0.419,2.882 3.147,3.062 5.336,6.357 6.862,9.834 -5.607,-2.468 -13.45,-1.66 -13.836,-1.618 -0.549,0.06 -0.946,0.553 -0.886,1.102 0.06,0.549 0.554,0.94 1.102,0.886 0.102,-0.012 9.948,-1.031 14.745,2.567 2.008,6.097 2.304,12.687 2.294,19.526 -3.621,-2.972 -8.876,-3.749 -9.138,-3.785 -0.544,-0.076 -1.052,0.305 -1.128,0.851 -0.077,0.547 0.304,1.052 0.851,1.129 0.066,0.01 6.495,0.964 9.399,4.608 -0.005,0.538 -0.011,1.077 -0.017,1.617 -0.065,5.996 -0.129,12.281 0.708,18.696 -2.577,-1.09 -6.549,-1.779 -8.021,-2.008 -0.543,-0.083 -1.057,0.289 -1.142,0.834 -0.085,0.545 0.289,1.057 0.834,1.142 3.566,0.554 7.749,1.648 8.685,2.464 1.365,8.156 4.375,16.487 10.844,24.676 -12.431,-2.813 -14.812,-8.677 -17.54,-15.399 z m 8.594,-9.867 C 31.984,90.256 31.981,90.193 31.961,90.129 30.89,83.308 30.959,76.511 31.032,69.804 31.185,55.752 31.329,42.479 20.219,31.681 c -0.088,-0.145 -0.136,-0.564 -0.031,-0.696 0.046,-0.056 0.402,-0.194 1.338,0.101 13.111,9.324 12.905,22.809 12.688,37.082 -0.044,2.895 -0.086,5.856 -0.015,8.845 -10e-4,0.026 0.001,0.05 0.002,0.076 0.321,13.162 2.916,26.875 17.739,38.049 0.041,0.035 0.082,0.067 0.13,0.096 0.92,0.689 1.882,1.369 2.898,2.038 -3.294,0.419 -6.156,1.352 -7.251,2.849 C 37.643,110.274 33.586,100.273 31.991,90.322 Z m 27.24,33.664 c -6.496,0 -10,-1.766 -10,-2.488 0,-0.722 3.504,-2.488 10,-2.488 6.496,0 10,1.766 10,2.488 0,0.722 -3.504,2.488 -10,2.488 z m 11.312,-4.123 c -0.425,-0.469 -1.032,-0.876 -1.774,-1.225 -0.332,-1.205 -0.407,-2.589 -0.255,-4.109 11.082,-7.596 16.289,-23.992 20.881,-38.491 1.906,-6.02 3.732,-11.787 5.785,-16.036 -0.474,4.948 -1.783,9.569 -3.57,15.879 -1.337,4.72 -3.002,10.595 -4.688,18.111 -0.031,0.137 -3.04,13.57 -16.379,25.871 z m 39.885,-64.604 c 1.735,4.334 -0.857,7.508 -3.858,11.183 -2.9,3.55 -6.187,7.575 -5.963,13.264 -0.27,8.801 -4.165,12.509 -7.932,16.096 -2.031,1.934 -3.95,3.76 -5.292,6.284 -1.05,1.973 -2.27,3.706 -3.625,5.149 -0.313,0.334 -0.627,0.645 -0.941,0.946 4.664,-7.532 5.977,-13.387 6.057,-13.761 1.07,-4.769 2.105,-8.775 3.078,-12.34 5.417,-1.254 7.029,-4.45 7.097,-4.59 0.24,-0.498 0.031,-1.095 -0.467,-1.335 -0.498,-0.239 -1.095,-0.032 -1.335,0.467 -0.011,0.024 -1.105,2.089 -4.678,3.225 0.329,-1.18 0.652,-2.32 0.964,-3.421 1.671,-5.898 2.994,-10.569 3.552,-15.469 4.577,-3.403 9.095,-3.019 9.169,-3.012 0.559,0.065 1.04,-0.341 1.098,-0.889 0.058,-0.549 -0.34,-1.042 -0.889,-1.1 -0.198,-0.021 -4.45,-0.42 -9.161,2.443 0.043,-0.756 0.063,-1.525 0.066,-2.308 1.549,-4.843 5.41,-8.927 10.145,-10.873 0.231,2.016 0.916,6.007 2.915,10.041 z"
       id="path40687"
       class="UnoptimicedTransforms"
       transform="matrix(0.77524746,0.24818182,-0.24818182,0.77524746,28.899018,2.2644879)" /><path
       style="fill:#b3ff80;stroke-width:0.16268"
       d="m 94.703737,49.241461 c -1.883676,0.128602 -3.611301,1.119547 -5.323872,1.854918 -5.004272,2.308062 -8.929832,6.491731 -11.504394,11.308953 -2.481992,4.7313 -4.83261,9.534692 -7.899343,13.922907 -3.696897,5.436402 -7.966716,10.683615 -13.740386,14.02532 -3.393632,2.06017 -6.997645,3.944538 -9.634147,6.996969 -1.758326,1.935638 -3.228143,4.145412 -4.497515,6.420572 0.347282,1.32151 1.573113,2.25092 2.321384,3.36009 0.89228,0.95725 2.387226,1.0433 3.5286,1.65798 1.122961,0.32117 2.044782,1.19436 3.173121,1.43555 0.782261,-0.29524 0.559983,-1.40879 0.93673,-2.01942 1.858869,-4.51419 5.233117,-8.20265 8.543521,-11.747999 3.587952,-3.76535 7.442688,-7.290259 10.800907,-11.267123 3.927884,-4.848511 6.351738,-10.650836 8.818918,-16.316669 1.999978,-4.798046 4.588494,-9.448098 8.505445,-12.978269 1.802985,-1.838939 4.179838,-2.998852 6.045722,-4.780959 0.579957,-0.521456 0.893457,-1.565941 -0.07469,-1.87282 z"
       id="path40958" /><path
       style="fill:#b3ff80;stroke-width:0.16268"
       d="m 37.236689,31.139982 c -0.789449,-0.256089 -0.921349,0.831713 -0.539371,1.299251 2.377128,4.607383 3.384583,9.950925 2.806205,15.096792 -0.302541,4.632886 -1.942558,8.97854 -3.216986,13.406937 -1.61684,5.577254 -3.587602,11.066407 -4.820225,16.74666 -1.428666,7.111415 -1.368408,14.611741 0.966033,21.529084 0.908863,2.754234 1.993118,5.467544 3.343015,8.033064 0.821953,0.22985 1.669347,-0.48508 2.533647,-0.41195 1.414321,-0.19745 2.850878,0.17326 4.235322,0.1435 0.133165,-0.78461 -0.892158,-1.35691 -1.231327,-2.05532 -3.299005,-4.61182 -5.935329,-9.85836 -6.673009,-15.526709 -0.932365,-6.108531 -0.06717,-12.338256 1.846369,-18.173467 1.905694,-6.618891 4.234293,-13.135413 5.799666,-19.852116 1.263219,-6.341765 0.3948,-13.305278 -3.383113,-18.676104 -0.438782,-0.614422 -0.93219,-1.28881 -1.666226,-1.559622 z"
       id="path40960" /><path
       style="fill:#b3ff80;stroke-width:0.16268"
       d="m 87.384734,72.685389 c -0.950461,0.511905 -1.495261,1.624047 -2.242592,2.394687 -6.7268,8.509688 -12.233125,18.060784 -20.155176,25.566664 -3.20506,3.08299 -6.990502,5.55798 -11.1718,7.10599 -1.121912,0.68631 -1.075445,2.22977 -1.252759,3.38385 0.06297,0.70275 0.795419,1.15287 1.18401,1.70283 0.790875,0.16415 1.500612,-0.65216 2.228441,-0.89984 5.894782,-3.14631 11.34606,-7.32417 15.433194,-12.646465 3.610364,-5.115236 6.655241,-10.597867 10.192325,-15.763588 2.08123,-3.304256 4.403821,-6.503881 5.98731,-10.087901 0.108298,-0.25695 0.224235,-0.726681 -0.202953,-0.756227 z"
       id="path40962" /><path
       style="fill:#b3ff80;stroke-width:0.16268"
       d="m 44.847164,108.86684 c -2.454139,-0.67113 -5.145227,-1.47275 -7.660802,-0.66194 -0.704441,0.16807 -0.673955,1.01703 -0.125798,1.3736 2.926073,2.8096 6.995138,3.81194 10.832452,4.68053 1.567643,0.1494 3.385891,0.44081 4.785404,-0.41733 -0.155061,-1.24242 -1.470668,-2.08857 -2.498692,-2.7359 -1.666449,-0.98097 -3.489813,-1.6701 -5.332564,-2.23896 z"
       id="path40964" /></g></svg>
