<?xml version="1.0" encoding="UTF-8" standalone="no"?>
<svg
   version="1.1"
   viewBox="-5 -10 100 100"
   id="svg12"
   sodipodi:docname="magnifying-glass.svg"
   width="100"
   height="100"
   inkscape:version="1.2.2 (b0a8486541, 2022-12-01)"
   xmlns:inkscape="http://www.inkscape.org/namespaces/inkscape"
   xmlns:sodipodi="http://sodipodi.sourceforge.net/DTD/sodipodi-0.dtd"
   xmlns="http://www.w3.org/2000/svg"
   xmlns:svg="http://www.w3.org/2000/svg">
  <defs
     id="defs16" />
  <sodipodi:namedview
     id="namedview14"
     pagecolor="#ffffff"
     bordercolor="#000000"
     borderopacity="0.25"
     inkscape:showpageshadow="2"
     inkscape:pageopacity="0.0"
     inkscape:pagecheckerboard="0"
     inkscape:deskcolor="#d1d1d1"
     showgrid="false"
     inkscape:zoom="5.837037"
     inkscape:cx="55.250635"
     inkscape:cy="67.5"
     inkscape:window-width="1857"
     inkscape:window-height="1011"
     inkscape:window-x="0"
     inkscape:window-y="0"
     inkscape:window-maximized="1"
     inkscape:current-layer="svg12" />
  <path
     d="m 5.5378474,0.52292989 c 13.1775226,-13.16056489 34.6045646,-13.17752289 47.7651296,0 6.376899,6.37689921 9.892186,14.85636911 9.892186,23.88256511 0,7.224801 -2.278707,14.07856 -6.447557,19.802462 l 6.62426,6.62426 c 1.342511,-1.342511 3.674241,-1.342511 5.016752,0 l 25.154417,25.154417 c 0.671256,0.671256 1.042218,1.554487 1.042218,2.508433 0,0.953946 -0.370951,1.83712 -1.042218,2.508432 l -7.54282,7.542821 c -0.671256,0.671255 -1.554487,1.042218 -2.508433,1.042218 -0.953946,0 -1.83712,-0.370952 -2.508432,-1.042218 L 55.828933,63.391902 c -0.671256,-0.671255 -1.042219,-1.554486 -1.042219,-2.508432 0,-0.953946 0.370952,-1.83712 1.042219,-2.508433 0,0 -6.624261,-6.641896 -6.624261,-6.641896 -5.88229,4.274781 -12.824796,6.447557 -19.784373,6.447557 -8.655607,0 -17.293803,-3.285562 -23.8825646,-9.87455 -13.1775231,-13.177523 -13.1775231,-34.604564 0,-47.76512954 z M 58.337252,60.883357 83.509758,86.037774 91.052578,78.477317 65.880072,53.3229 l -7.54282,7.54282 z m 0,-5.016752 2.526069,-2.526069 -6.359263,-6.359262 c -0.406292,0.441609 -0.777243,0.900901 -1.201194,1.324874 -0.423951,0.423974 -0.883231,0.794902 -1.324875,1.201194 z M 8.0284174,45.797829 c 11.7824416,11.782442 30.9834586,11.800531 42.7659006,0 5.7057,-5.7057 8.849946,-13.301882 8.849946,-21.391995 0,-8.090113 -3.144246,-15.6680932 -8.849946,-21.391995 -5.900039,-5.9000392 -13.63652,-8.8499458 -21.391995,-8.8499458 -7.755474,0 -15.491729,2.9500197 -21.3919942,8.8499458 -11.7824421,11.782442 -11.7824421,30.983459 0,42.765901 z"
     id="path2"
     style="stroke-width:1.13054" />
  <path
     d="m 10.573253,5.5583355 c 10.404432,-10.4044322 27.309218,-10.3867959 37.713537,0 10.386796,10.4044325 10.386796,27.3092185 0,37.7135375 -5.034388,5.034388 -11.729307,7.807705 -18.848289,7.807705 -7.118983,0 -13.814015,-2.773317 -18.84829,-7.807705 -10.38679584,-10.386796 -10.38679584,-27.309218 0,-37.7135375 z m 2.490683,35.2060095 c 4.363189,4.363189 10.17482,6.783214 16.35772,6.783214 6.182899,0 11.993852,-2.402388 16.357719,-6.783214 9.009013,-9.026648 9.009013,-23.688112 0,-32.7154395 C 41.274869,3.5443994 35.339557,1.2833281 29.421656,1.2833281 c -5.917902,0 -11.852536,2.2610713 -16.35772,6.7655774 -9.0090121,9.0266485 -9.0090121,23.6881125 0,32.7154395 z"
     id="path4"
     style="stroke-width:1.13054" />
  <path
     d="m 12.091562,15.36121 c 0.44161,-0.865561 1.519214,-1.201194 2.384752,-0.741914 0.865561,0.44161 1.201194,1.519214 0.741914,2.384752 -2.420024,4.645823 -2.420024,10.17482 0,14.820191 0.44161,0.865561 0.123658,1.925415 -0.741914,2.384752 -0.264975,0.141317 -0.547609,0.194316 -0.812572,0.194316 -0.635927,0 -1.254217,-0.353292 -1.572123,-0.953889 -2.9500197,-5.652678 -2.9500197,-12.417803 0,-18.08857 z"
     id="path6"
     style="stroke-width:1.13054" />
</svg>
