<?xml version="1.0" encoding="UTF-8" standalone="no"?>
<svg
   version="1.1"
   x="0px"
   y="0px"
   viewBox="0 0 100 125"
   style="enable-background:new 0 0 100 100;"
   xml:space="preserve"
   id="svg12625"
   sodipodi:docname="marigold.svg"
   inkscape:version="1.2.2 (b0a8486541, 2022-12-01)"
   xmlns:inkscape="http://www.inkscape.org/namespaces/inkscape"
   xmlns:sodipodi="http://sodipodi.sourceforge.net/DTD/sodipodi-0.dtd"
   xmlns="http://www.w3.org/2000/svg"
   xmlns:svg="http://www.w3.org/2000/svg"><defs
     id="defs12629" /><sodipodi:namedview
     id="namedview12627"
     pagecolor="#ffffff"
     bordercolor="#000000"
     borderopacity="0.25"
     inkscape:showpageshadow="2"
     inkscape:pageopacity="0.0"
     inkscape:pagecheckerboard="0"
     inkscape:deskcolor="#d1d1d1"
     showgrid="false"
     inkscape:zoom="6.304"
     inkscape:cx="50.047589"
     inkscape:cy="62.5"
     inkscape:window-width="1857"
     inkscape:window-height="1011"
     inkscape:window-x="0"
     inkscape:window-y="0"
     inkscape:window-maximized="1"
     inkscape:current-layer="svg12625" /><path
     d="M91.59,51.8c-0.26-0.63-0.4-1.25-0.41-1.78c0.01-0.58,0.15-1.19,0.41-1.83c0.91-2.19,0.49-4.76-1.06-6.54  c-0.75-0.85-1.69-1.45-2.75-1.78c0.75-0.82,1.27-1.8,1.49-2.92c0.46-2.32-0.47-4.75-2.35-6.2c-0.54-0.42-0.97-0.88-1.25-1.33  c-0.28-0.51-0.46-1.11-0.55-1.79c-0.31-2.35-1.96-4.37-4.19-5.13c-1.07-0.37-2.19-0.41-3.27-0.17c0.24-1.08,0.2-2.2-0.17-3.27  c-0.76-2.23-2.78-3.88-5.13-4.19c-0.68-0.09-1.28-0.28-1.75-0.53c-0.5-0.3-0.96-0.73-1.38-1.27c-1.45-1.88-3.88-2.8-6.2-2.35  c-1.11,0.22-2.1,0.74-2.92,1.49c-0.33-1.06-0.93-2-1.78-2.75C56.57,7.92,54,7.5,51.8,8.4c-0.63,0.26-1.25,0.4-1.78,0.41  c-0.58-0.01-1.2-0.15-1.83-0.41C46,7.5,43.43,7.92,41.66,9.47c-0.85,0.75-1.45,1.69-1.78,2.75c-0.82-0.75-1.8-1.27-2.92-1.49  c-2.32-0.45-4.75,0.47-6.2,2.35c-0.42,0.54-0.88,0.97-1.33,1.25c-0.51,0.28-1.11,0.46-1.79,0.56c-2.35,0.31-4.37,1.96-5.13,4.19  c-0.37,1.07-0.41,2.19-0.17,3.27c-1.08-0.24-2.2-0.2-3.27,0.17c-2.23,0.76-3.88,2.78-4.19,5.13c-0.09,0.68-0.28,1.28-0.53,1.75  c-0.3,0.5-0.73,0.96-1.27,1.38c-1.88,1.45-2.8,3.88-2.35,6.2c0.22,1.11,0.74,2.1,1.49,2.92c-1.06,0.33-2,0.93-2.75,1.78  C7.92,43.43,7.5,46,8.41,48.2c0.26,0.63,0.4,1.25,0.41,1.78c-0.01,0.58-0.15,1.19-0.41,1.83l0,0C7.5,54,7.92,56.57,9.47,58.34  c0.74,0.85,1.69,1.46,2.74,1.79c-0.74,0.81-1.26,1.8-1.48,2.91c-0.46,2.32,0.47,4.75,2.35,6.2c0.54,0.42,0.97,0.88,1.25,1.33  c0.28,0.51,0.46,1.11,0.55,1.79l0,0c0.31,2.35,1.96,4.37,4.19,5.13c0.64,0.22,1.29,0.33,1.95,0.33c0.44,0,0.88-0.05,1.32-0.15  c-0.24,1.08-0.2,2.19,0.17,3.26c0.76,2.23,2.78,3.88,5.13,4.19c0.68,0.09,1.28,0.28,1.75,0.53c0.5,0.3,0.96,0.73,1.38,1.27  c1.2,1.56,3.08,2.46,5.01,2.46c0.39,0,0.79-0.04,1.18-0.12c1.11-0.22,2.1-0.74,2.92-1.49c0.33,1.06,0.93,2,1.78,2.75  c1.15,1.01,2.64,1.54,4.14,1.54c0.81,0,1.63-0.16,2.4-0.47c0.63-0.26,1.25-0.4,1.78-0.41c0.58,0.01,1.2,0.15,1.83,0.41  c2.19,0.91,4.76,0.49,6.54-1.06c0.85-0.75,1.45-1.69,1.78-2.75c0.82,0.75,1.8,1.27,2.92,1.49c0.39,0.08,0.79,0.12,1.18,0.12  c1.93,0,3.81-0.9,5.01-2.46c0.42-0.54,0.88-0.97,1.33-1.25c0.51-0.28,1.11-0.46,1.79-0.56c2.35-0.31,4.37-1.96,5.13-4.19  c0.37-1.07,0.41-2.18,0.17-3.26c0.44,0.1,0.88,0.15,1.32,0.15c0.65,0,1.31-0.11,1.95-0.33c2.23-0.76,3.88-2.78,4.19-5.13l0,0  c0.09-0.68,0.28-1.28,0.53-1.75c0.3-0.5,0.73-0.96,1.27-1.38c1.88-1.45,2.8-3.88,2.35-6.2c-0.22-1.11-0.74-2.09-1.48-2.91  c1.06-0.33,2-0.94,2.74-1.79C92.08,56.57,92.5,54,91.59,51.8L91.59,51.8z M78.97,24.33c0.42,0,0.85,0.07,1.26,0.21  c1.47,0.5,2.55,1.83,2.76,3.38c0.12,0.94,0.39,1.8,0.82,2.58c0.44,0.72,1.04,1.38,1.8,1.96c1.24,0.95,1.85,2.55,1.55,4.08  c-0.31,1.59-1.53,2.78-3.34,3.28c-0.06,0.02-0.14,0.04-0.2,0.06c-0.79,0.21-2.2,0.58-4,1.06c-0.1-0.13-0.18-0.26-0.29-0.38  c-1.79-2.05-4.59-2.82-7.5-2.05c-1.07,0.28-2.65,0.9-4.49,1.7c-0.03-0.04-0.08-0.09-0.1-0.13c-0.03-0.06-0.05-0.14-0.08-0.2  c1.61-1.19,2.94-2.25,3.71-3.04c2.12-2.14,2.85-4.95,1.97-7.52c-0.05-0.15-0.13-0.29-0.19-0.44c1.32-1.32,2.35-2.36,2.93-2.94  c0.05-0.05,0.1-0.1,0.14-0.14C76.7,24.83,77.83,24.33,78.97,24.33z M78.54,52.94c0.71,1.71,0.38,3.71-0.82,5.09  c-1.26,1.44-3.2,1.95-5.34,1.39c-0.83-0.22-2.02-0.67-3.42-1.26c0.88-1.12,1.26-2.59,0.98-4.01c-0.37-1.88-1.8-3.33-3.82-3.88  c-0.34-0.09-0.78-0.18-1.28-0.26c0.5-0.08,0.94-0.17,1.28-0.26c2.03-0.55,3.46-2,3.82-3.88c0.28-1.42-0.1-2.89-0.98-4.01  c1.4-0.59,2.59-1.05,3.42-1.26c2.13-0.56,4.08-0.06,5.33,1.39c1.21,1.38,1.53,3.38,0.82,5.09c-0.41,0.99-0.63,1.97-0.65,2.97  C77.91,50.98,78.13,51.96,78.54,52.94z M52.06,68.19c-0.68-0.28-1.37-0.43-2.08-0.45c-0.66,0.02-1.35,0.17-2.03,0.45  c-0.98,0.4-2.12,0.22-2.91-0.47c-0.82-0.72-1.11-1.84-0.78-3.09c0.3-1.13,1.27-3.31,2.38-5.62c1.01-0.16,1.95-0.63,2.68-1.36  c0.23-0.23,0.46-0.5,0.69-0.82c0.23,0.32,0.46,0.59,0.69,0.82c0.74,0.74,1.67,1.2,2.68,1.36c1.11,2.31,2.08,4.49,2.38,5.62  c0.33,1.24,0.04,2.37-0.78,3.09C54.18,68.41,53.03,68.6,52.06,68.19z M54.17,56.94c-0.74,0-1.44-0.29-1.96-0.81  c-0.38-0.38-0.85-1.07-1.26-1.83c-0.37-0.7-1.53-0.7-1.9,0c-0.41,0.77-0.88,1.45-1.26,1.84c-1.04,1.05-2.87,1.05-3.92,0  c-1.08-1.08-1.08-2.84,0-3.92c0.38-0.38,1.07-0.85,1.83-1.26c0.35-0.19,0.57-0.55,0.57-0.95s-0.22-0.76-0.57-0.95  c-0.76-0.4-1.45-0.87-1.83-1.26c-1.08-1.08-1.08-2.84,0-3.92c0.52-0.52,1.22-0.81,1.96-0.81s1.44,0.29,1.96,0.81  c0.38,0.38,0.85,1.07,1.26,1.83c0.37,0.7,1.53,0.7,1.9,0c0.41-0.77,0.88-1.45,1.26-1.84c1.04-1.05,2.87-1.05,3.92,0  c1.08,1.08,1.08,2.84,0,3.92c-0.38,0.38-1.07,0.85-1.84,1.26c-0.35,0.19-0.57,0.55-0.57,0.95s0.22,0.76,0.57,0.95  c0.76,0.4,1.45,0.87,1.84,1.26c1.08,1.08,1.08,2.84,0,3.92C55.6,56.65,54.91,56.94,54.17,56.94z M21.46,47.06  c-0.71-1.71-0.38-3.71,0.82-5.09c1.26-1.44,3.21-1.94,5.34-1.39c0.83,0.22,2.03,0.67,3.42,1.26c-0.88,1.12-1.26,2.59-0.98,4.01  c0.37,1.88,1.8,3.33,3.82,3.88c0.34,0.09,0.78,0.18,1.28,0.26c-0.5,0.08-0.94,0.17-1.28,0.26c-2.03,0.55-3.46,2-3.82,3.88  c-0.28,1.42,0.1,2.89,0.98,4.01c-1.4,0.59-2.59,1.05-3.42,1.26c-2.13,0.56-4.08,0.06-5.33-1.39c-1.21-1.38-1.53-3.38-0.82-5.09  c0.41-0.99,0.63-1.97,0.65-2.97C22.09,49.02,21.87,48.04,21.46,47.06z M41.7,48.5c-2.99-0.2-5.95-0.48-7.25-0.84  c-1.24-0.34-2.07-1.15-2.28-2.22c-0.2-1.03,0.21-2.11,1.05-2.76c0.59-0.45,1.06-0.97,1.43-1.58c0.32-0.58,0.53-1.25,0.63-1.98l0,0  c0.14-1.05,0.87-1.95,1.86-2.29c0.28-0.1,0.56-0.14,0.85-0.14c0.77,0,1.55,0.35,2.22,1.01c0.71,0.7,1.83,2.21,3.05,3.95  c-0.32,0.2-0.62,0.42-0.9,0.7C40.69,44.02,40.47,46.6,41.7,48.5z M33.22,57.32c-0.84-0.65-1.25-1.73-1.05-2.76  c0.21-1.07,1.04-1.88,2.28-2.22c1.3-0.36,4.26-0.63,7.25-0.84c-1.23,1.91-1.02,4.48,0.65,6.15c0.27,0.27,0.58,0.5,0.9,0.7  c-1.21,1.74-2.34,3.25-3.05,3.95c-0.91,0.9-2.03,1.22-3.07,0.87c-0.99-0.34-1.72-1.24-1.86-2.29c-0.1-0.74-0.31-1.4-0.65-2.03  C34.28,58.28,33.8,57.77,33.22,57.32z M47.94,31.81c0.68,0.28,1.37,0.43,2.08,0.45c0.66-0.02,1.35-0.17,2.03-0.45  c0.98-0.4,2.12-0.22,2.91,0.47c0.82,0.72,1.11,1.84,0.78,3.09c-0.3,1.13-1.27,3.31-2.38,5.62c-1.01,0.16-1.95,0.63-2.68,1.36  c-0.23,0.23-0.46,0.5-0.69,0.82c-0.23-0.32-0.46-0.59-0.69-0.82c-0.74-0.74-1.67-1.2-2.69-1.36c-1.11-2.31-2.08-4.49-2.38-5.62  c-0.33-1.24-0.04-2.37,0.78-3.09c0.51-0.45,1.17-0.68,1.84-0.68C47.24,31.6,47.6,31.67,47.94,31.81z M66.78,42.68  c0.84,0.65,1.25,1.73,1.05,2.76c-0.21,1.07-1.04,1.88-2.28,2.22c-1.3,0.36-4.26,0.63-7.25,0.84c1.23-1.91,1.02-4.48-0.65-6.15  c-0.27-0.27-0.58-0.5-0.9-0.7c1.21-1.74,2.34-3.25,3.05-3.95c0.67-0.66,1.44-1.01,2.22-1.01c0.28,0,0.57,0.05,0.85,0.14  c0.99,0.34,1.72,1.24,1.86,2.29c0.1,0.74,0.31,1.4,0.65,2.03C65.72,41.72,66.2,42.23,66.78,42.68z M57.65,57.65  c1.67-1.67,1.88-4.24,0.65-6.15c2.99,0.2,5.95,0.48,7.25,0.84c1.24,0.34,2.07,1.15,2.28,2.22c0.2,1.03-0.21,2.11-1.05,2.76  c-0.59,0.45-1.06,0.97-1.43,1.58c-0.32,0.58-0.53,1.25-0.63,1.98l0,0c-0.14,1.05-0.87,1.95-1.86,2.29  c-1.04,0.35-2.15,0.04-3.07-0.87c-0.71-0.7-1.83-2.21-3.05-3.95C57.07,58.14,57.37,57.92,57.65,57.65z M60.12,16.4  c0.02-0.08,0.04-0.16,0.06-0.23c0.49-1.81,1.69-3.03,3.28-3.34c0.26-0.05,0.52-0.08,0.78-0.08c1.27,0,2.51,0.59,3.3,1.63  c0.58,0.75,1.24,1.36,2.01,1.82c0.74,0.41,1.6,0.67,2.54,0.8l0,0c1.55,0.21,2.88,1.29,3.38,2.76c0.52,1.53,0.07,3.17-1.25,4.51  c-0.04,0.04-0.1,0.1-0.15,0.15c-0.53,0.52-1.44,1.43-2.58,2.57c-1.11-1.27-2.66-2.14-4.38-2.36c-0.79-0.11-1.5-0.33-2.06-0.63  c-0.58-0.35-1.13-0.86-1.62-1.49c-1.06-1.38-2.58-2.28-4.24-2.61C59.6,18.34,59.93,17.12,60.12,16.4z M61.72,23.81  c0.65,0.85,1.39,1.53,2.25,2.04c0.83,0.46,1.79,0.76,2.85,0.9l0,0c1.83,0.24,3.4,1.52,3.99,3.25c0.62,1.81,0.08,3.75-1.47,5.31  c-0.6,0.61-1.6,1.42-2.8,2.33c-0.53-1.32-1.61-2.39-2.98-2.85c-1.81-0.62-3.78-0.11-5.27,1.37c-0.25,0.25-0.54,0.58-0.87,0.98  c0.18-0.48,0.32-0.9,0.41-1.24c0.53-2.03-0.01-3.99-1.45-5.25c-1.09-0.95-2.55-1.35-3.96-1.15c0.19-1.51,0.39-2.77,0.62-3.6  c0.58-2.13,1.99-3.56,3.87-3.93c0.31-0.06,0.61-0.09,0.92-0.09C59.32,21.9,60.79,22.6,61.72,23.81z M43.07,11.09  c0.76-0.66,1.73-1.01,2.72-1.01c0.54,0,1.08,0.1,1.58,0.31c0.88,0.36,1.75,0.56,2.65,0.58c0.85-0.02,1.72-0.21,2.6-0.58  c1.45-0.6,3.14-0.33,4.31,0.7c1.22,1.06,1.64,2.71,1.17,4.53c-0.02,0.07-0.04,0.15-0.06,0.23c-0.22,0.8-0.59,2.19-1.07,3.96  c-0.16,0.02-0.32,0.03-0.48,0.06c-2.67,0.52-4.73,2.57-5.53,5.47c-0.29,1.06-0.55,2.75-0.77,4.74c-0.05,0.01-0.12,0.02-0.17,0.02  c-0.07,0-0.14-0.02-0.22-0.03c-0.23-1.99-0.48-3.67-0.77-4.74c-0.79-2.9-2.86-4.95-5.53-5.47c-0.16-0.03-0.32-0.04-0.48-0.06  c-0.48-1.77-0.85-3.17-1.07-3.96c-0.02-0.08-0.04-0.17-0.06-0.23C41.42,13.8,41.85,12.15,43.07,11.09z M43.1,21.98  c1.88,0.37,3.29,1.8,3.87,3.93c0.23,0.83,0.43,2.09,0.62,3.59c-1.41-0.2-2.87,0.2-3.96,1.15c-1.44,1.26-1.98,3.22-1.45,5.25  c0.09,0.34,0.23,0.76,0.41,1.24c-0.32-0.39-0.62-0.73-0.87-0.98c-1.49-1.48-3.46-1.99-5.27-1.37c-1.37,0.47-2.45,1.53-2.98,2.85  c-1.21-0.91-2.2-1.72-2.8-2.33c-1.55-1.57-2.09-3.5-1.47-5.31c0.59-1.73,2.16-3.01,3.99-3.25c1.06-0.14,2.02-0.44,2.89-0.92  c0.81-0.49,1.55-1.17,2.2-2.02C39.41,22.35,41.3,21.63,43.1,21.98z M24.54,19.77c0.5-1.47,1.83-2.55,3.38-2.76l0,0  c0.94-0.13,1.8-0.39,2.58-0.83c0.72-0.44,1.38-1.05,1.96-1.8c0.79-1.03,2.03-1.63,3.3-1.63c0.26,0,0.52,0.02,0.78,0.08  c1.59,0.31,2.78,1.53,3.28,3.34c0.02,0.07,0.04,0.15,0.06,0.23c0.19,0.72,0.52,1.94,0.93,3.49c-1.65,0.33-3.18,1.24-4.24,2.61  c-0.49,0.64-1.03,1.14-1.57,1.47c-0.6,0.33-1.31,0.55-2.1,0.65c-1.72,0.23-3.27,1.1-4.38,2.36c-1.14-1.14-2.05-2.05-2.58-2.57  c-0.05-0.05-0.1-0.1-0.15-0.15C24.48,22.94,24.02,21.3,24.54,19.77z M14.39,32.47c0.75-0.58,1.36-1.24,1.82-2.01  c0.41-0.74,0.67-1.6,0.8-2.54c0.21-1.55,1.29-2.88,2.76-3.38c0.42-0.14,0.84-0.21,1.26-0.21c1.14,0,2.27,0.5,3.24,1.46  c0.04,0.04,0.1,0.09,0.14,0.14c0.58,0.58,1.61,1.62,2.93,2.94c-0.06,0.15-0.14,0.29-0.19,0.44c-0.88,2.57-0.14,5.38,1.97,7.52  c0.78,0.78,2.11,1.85,3.72,3.04c-0.02,0.05-0.04,0.11-0.06,0.15c-0.04,0.06-0.09,0.11-0.13,0.17c-1.84-0.8-3.42-1.42-4.49-1.7  c-2.91-0.76-5.71,0-7.5,2.05c-0.11,0.12-0.19,0.26-0.29,0.39c-1.76-0.47-3.14-0.84-3.94-1.05c-0.09-0.02-0.18-0.05-0.26-0.07  c-1.81-0.49-3.02-1.69-3.34-3.28C12.54,35.02,13.15,33.42,14.39,32.47z M11.09,56.93c-1.02-1.17-1.29-2.86-0.7-4.31  c0.36-0.88,0.56-1.75,0.58-2.65c-0.02-0.85-0.21-1.72-0.58-2.6c-0.6-1.45-0.32-3.14,0.7-4.31c1.06-1.22,2.71-1.65,4.53-1.17  c0.05,0.01,0.11,0.03,0.17,0.04c0.71,0.19,1.96,0.53,3.55,0.96c-0.54,1.6-0.52,3.37,0.14,4.98c0.31,0.74,0.47,1.46,0.49,2.1  c-0.02,0.68-0.18,1.41-0.49,2.15c-0.66,1.6-0.68,3.38-0.14,4.98c-1.59,0.43-2.84,0.76-3.55,0.96c-0.05,0.01-0.12,0.03-0.17,0.04  C13.8,58.57,12.15,58.15,11.09,56.93z M19.77,75.46c-1.47-0.5-2.55-1.83-2.76-3.38c-0.12-0.94-0.39-1.8-0.82-2.58  c-0.44-0.72-1.04-1.38-1.8-1.96c-1.24-0.95-1.85-2.55-1.55-4.08c0.31-1.59,1.53-2.78,3.34-3.28c0.06-0.02,0.14-0.04,0.2-0.06  c0.79-0.21,2.2-0.58,4-1.06c0.1,0.13,0.18,0.26,0.29,0.38c1.33,1.53,3.23,2.34,5.31,2.34c0.71,0,1.45-0.1,2.19-0.29  c1.07-0.28,2.65-0.9,4.49-1.7c0.03,0.04,0.08,0.09,0.1,0.13c0.03,0.06,0.05,0.14,0.08,0.2c-1.61,1.19-2.94,2.25-3.71,3.04  c-2.12,2.14-2.85,4.95-1.97,7.52c0.05,0.15,0.13,0.29,0.19,0.44c-1.32,1.32-2.35,2.36-2.93,2.94c-0.05,0.05-0.1,0.1-0.14,0.14  C22.94,75.52,21.3,75.98,19.77,75.46z M39.88,83.6c-0.02,0.08-0.04,0.16-0.06,0.23c-0.49,1.81-1.69,3.03-3.28,3.34  c-1.52,0.3-3.12-0.31-4.08-1.55c-0.58-0.75-1.24-1.36-2.01-1.82c-0.74-0.41-1.6-0.67-2.54-0.8c-1.55-0.21-2.88-1.29-3.38-2.76  c-0.52-1.53-0.07-3.17,1.25-4.51c0.04-0.04,0.1-0.1,0.15-0.15c0.53-0.52,1.44-1.43,2.58-2.57c1.11,1.27,2.66,2.14,4.38,2.37l0,0  c0.79,0.1,1.5,0.32,2.06,0.63c0.58,0.35,1.13,0.86,1.62,1.49c1.06,1.38,2.59,2.28,4.24,2.61C40.4,81.66,40.07,82.88,39.88,83.6z   M38.28,76.19c-0.65-0.85-1.39-1.53-2.25-2.04c-0.83-0.46-1.79-0.76-2.85-0.9c-1.83-0.24-3.4-1.52-3.99-3.26  c-0.62-1.81-0.08-3.75,1.47-5.31c0.6-0.61,1.6-1.42,2.8-2.33c0.53,1.32,1.61,2.39,2.98,2.85c0.5,0.17,1.02,0.26,1.54,0.26  c1.33,0,2.66-0.56,3.73-1.63c0.25-0.25,0.54-0.58,0.87-0.98c-0.18,0.48-0.32,0.9-0.41,1.24c-0.53,2.03,0.01,3.99,1.45,5.25  c1.09,0.95,2.55,1.35,3.96,1.15c-0.19,1.51-0.39,2.77-0.62,3.59c-0.58,2.13-1.99,3.56-3.87,3.93C41.3,78.37,39.41,77.65,38.28,76.19  z M56.93,88.91c-1.17,1.02-2.86,1.29-4.31,0.7c-0.88-0.36-1.75-0.56-2.65-0.58c-0.85,0.02-1.72,0.21-2.6,0.58  c-1.45,0.6-3.14,0.32-4.31-0.7c-1.22-1.06-1.65-2.71-1.17-4.53c0.02-0.07,0.04-0.15,0.06-0.23c0.22-0.79,0.59-2.19,1.07-3.95  c0.16-0.02,0.32-0.04,0.48-0.07c2.67-0.52,4.73-2.57,5.53-5.47c0.29-1.06,0.55-2.75,0.77-4.74c0.05,0,0.11-0.02,0.17-0.02  c0.07,0,0.14,0.02,0.22,0.03c0.23,1.99,0.48,3.67,0.77,4.74c0.79,2.9,2.86,4.95,5.53,5.47c0.16,0.03,0.32,0.05,0.48,0.07  c0.48,1.77,0.85,3.16,1.07,3.95c0.02,0.08,0.04,0.17,0.06,0.23C58.58,86.2,58.15,87.85,56.93,88.91z M56.9,78.02  c-1.88-0.37-3.29-1.8-3.87-3.93c-0.23-0.83-0.43-2.09-0.62-3.6c0.23,0.03,0.47,0.07,0.7,0.07c1.18,0,2.35-0.42,3.26-1.21  c1.44-1.26,1.98-3.22,1.45-5.25c-0.09-0.34-0.23-0.76-0.41-1.24c0.32,0.39,0.62,0.73,0.87,0.98c1.08,1.06,2.4,1.63,3.73,1.63  c0.52,0,1.03-0.08,1.54-0.26c1.37-0.47,2.45-1.53,2.98-2.85c1.21,0.91,2.2,1.72,2.8,2.33c1.55,1.57,2.09,3.5,1.47,5.31  c-0.59,1.73-2.16,3.01-3.99,3.25c-1.06,0.14-2.02,0.44-2.89,0.92c-0.81,0.49-1.55,1.17-2.2,2.02C60.59,77.65,58.7,78.37,56.9,78.02z   M75.46,80.23c-0.5,1.47-1.83,2.55-3.38,2.76c-0.94,0.13-1.8,0.39-2.58,0.83c-0.72,0.44-1.38,1.05-1.96,1.8  c-0.95,1.24-2.56,1.85-4.08,1.55c-1.59-0.31-2.78-1.53-3.28-3.34c-0.02-0.07-0.04-0.15-0.06-0.23c-0.19-0.72-0.52-1.94-0.93-3.49  c1.65-0.33,3.18-1.24,4.24-2.61c0.49-0.64,1.03-1.14,1.57-1.47c0.6-0.33,1.31-0.55,2.1-0.65c1.72-0.23,3.27-1.1,4.38-2.37  c1.14,1.14,2.05,2.05,2.58,2.57c0.05,0.05,0.1,0.1,0.15,0.15C75.52,77.06,75.98,78.7,75.46,80.23z M85.61,67.53  c-0.75,0.58-1.36,1.24-1.82,2.01c-0.41,0.74-0.67,1.6-0.8,2.54c-0.21,1.55-1.29,2.88-2.76,3.38c-1.53,0.52-3.18,0.07-4.51-1.25  c-0.04-0.04-0.1-0.09-0.14-0.14c-0.58-0.58-1.61-1.62-2.93-2.94c0.06-0.15,0.14-0.29,0.19-0.44c0.88-2.57,0.14-5.38-1.97-7.52  c-0.78-0.78-2.11-1.85-3.72-3.04c0.02-0.05,0.04-0.11,0.06-0.15c0.04-0.06,0.09-0.11,0.13-0.17c1.84,0.8,3.42,1.42,4.49,1.7  c0.74,0.19,1.48,0.29,2.19,0.29c2.08,0,3.98-0.81,5.31-2.34c0.11-0.12,0.19-0.26,0.29-0.39c1.76,0.47,3.14,0.84,3.94,1.05  c0.09,0.02,0.18,0.05,0.26,0.07c1.81,0.49,3.02,1.69,3.34,3.28C87.46,64.98,86.85,66.58,85.61,67.53z M89.61,52.62  c0.6,1.45,0.32,3.14-0.7,4.31c-1.06,1.22-2.71,1.65-4.53,1.17c-0.05-0.01-0.11-0.03-0.17-0.04c-0.71-0.19-1.96-0.53-3.55-0.96  c0.54-1.6,0.52-3.37-0.14-4.98c-0.31-0.74-0.47-1.46-0.49-2.1c0.02-0.68,0.18-1.41,0.49-2.15c0.66-1.6,0.68-3.38,0.14-4.98  c1.59-0.43,2.84-0.76,3.55-0.96c0.05-0.01,0.12-0.03,0.17-0.04c1.82-0.48,3.47-0.05,4.53,1.17c1.02,1.17,1.29,2.86,0.7,4.31  c-0.36,0.88-0.56,1.75-0.58,2.65C89.05,50.87,89.24,51.75,89.61,52.62z"
     id="path12619" /><path
     style="fill:#ffcc00;stroke:#000000;stroke-width:0.318528;stroke-linecap:round;stroke-linejoin:round;paint-order:stroke markers fill"
     d="m 45.792478,42.930022 c -2.128815,-0.02786 -3.709787,2.626511 -2.446983,4.423345 0.625507,1.050576 1.928163,1.40917 2.677182,2.308492 0.211028,1.323467 -1.528528,1.532477 -2.15482,2.40051 -1.487388,1.228387 -1.135535,3.791059 0.551795,4.656332 1.595361,0.96249 3.519606,-0.108955 4.32668,-1.594041 0.268025,-0.602994 1.094903,-1.629525 1.765992,-0.970056 0.939824,1.078044 1.606107,2.782618 3.263367,2.854711 1.798626,0.352175 3.546205,-1.307561 3.243848,-3.126116 -0.0096,-1.606828 -1.584608,-2.372802 -2.687096,-3.215035 -0.76556,-0.450089 -0.359017,-1.326298 0.294332,-1.618206 1.335194,-0.704802 2.738916,-1.984743 2.409184,-3.654054 -0.232819,-2.107588 -3.053304,-3.229202 -4.640531,-1.809367 -1.005022,0.586495 -1.18355,2.031603 -2.281227,2.45194 -0.993049,0.07291 -1.231741,-1.225782 -1.828074,-1.782138 -0.558157,-0.840438 -1.472083,-1.360544 -2.493649,-1.326317 z"
     id="path12817" /><path
     style="fill:#ff9600;stroke:#000000;stroke-width:0.318528;stroke-linecap:round;stroke-linejoin:round;paint-order:stroke markers fill;fill-opacity:1"
     d="m 61.88748,36.548905 c -2.250728,0.272929 -3.35001,2.566257 -4.661289,4.124056 -0.440855,0.434097 -0.650846,1.22274 0.01136,1.572127 1.77755,1.434182 2.052599,4.122012 1.046992,6.083292 0.264511,0.626145 1.217494,0.125509 1.740613,0.197911 2.284779,-0.366302 4.802644,-0.168907 6.871541,-1.353861 1.457105,-1.002862 1.448239,-3.254315 0.169783,-4.406304 C 65.988091,41.793732 65.077161,40.627305 64.884334,39.14454 64.644876,37.64575 63.4494,36.496714 61.887477,36.548905 Z"
     id="path13182" /><path
     style="fill:#ff9600;fill-opacity:1;stroke:#000000;stroke-width:0.318528;stroke-linecap:round;stroke-linejoin:round;paint-order:stroke markers fill"
     d="m 58.317388,51.453876 c 0.124772,0.936078 0.725886,1.88699 0.572553,2.909239 -0.05179,1.577404 -0.998478,2.96364 -2.195717,3.927628 0.04761,0.747888 0.890846,1.358867 1.268843,2.042961 1.055676,1.347343 2.210196,3.211919 4.175989,3.064783 1.639855,0.09884 2.668211,-1.539188 2.836741,-2.994441 0.27199,-1.401885 1.286644,-2.409876 2.257061,-3.363749 1.304556,-1.339087 0.87846,-3.845543 -0.932568,-4.498322 C 63.828887,51.541 61.095536,51.601674 58.479425,51.386954 l -0.146617,0.06055 z"
     id="path13736" /><path
     style="fill:#ff9600;fill-opacity:1;stroke:#000000;stroke-width:0.318528;stroke-linecap:round;stroke-linejoin:round;paint-order:stroke markers fill"
     d="m 49.880594,56.744726 c -0.78233,1.116569 -2.014572,1.75189 -3.244158,2.220812 -0.995297,1.328224 -1.46264,2.995723 -2.145489,4.501222 -0.57059,1.436288 -0.840152,3.567176 0.685603,4.521447 1.210372,0.967358 2.864304,0.229829 4.209876,0.01146 1.347741,-0.32526 2.640124,0.589217 4.013139,0.406179 1.55105,0.13481 2.671173,-1.375028 2.601275,-2.819701 -0.283511,-2.262635 -1.371974,-4.359918 -2.420338,-6.356331 -0.564396,-0.741787 -1.669793,-0.666851 -2.314999,-1.346182 -0.542202,-0.256881 -0.815138,-1.208627 -1.384909,-1.138909 z"
     id="path13738" /><path
     style="fill:#ff9600;fill-opacity:1;stroke:#000000;stroke-width:0.318528;stroke-linecap:round;stroke-linejoin:round;paint-order:stroke markers fill"
     d="m 40.961406,51.432498 c -2.384969,0.173811 -4.83538,0.2618 -7.131819,0.962311 -1.431407,0.653315 -2.431734,2.503822 -1.514105,3.955512 0.945975,1.456813 2.565648,2.535664 2.775086,4.399488 0.181955,1.479386 1.460267,2.81556 3.022324,2.652086 1.883461,-0.02743 2.907962,-1.918022 3.988681,-3.182179 0.281564,-0.676668 1.533664,-1.378405 1.122694,-2.072836 -1.927854,-1.272909 -2.615778,-3.892761 -1.712925,-5.985678 0.327674,-0.500193 0.01302,-0.823005 -0.549936,-0.728704 z"
     id="path13740" /><path
     style="fill:#ff9600;fill-opacity:1;stroke:#000000;stroke-width:0.318528;stroke-linecap:round;stroke-linejoin:round;paint-order:stroke markers fill"
     d="m 37.954572,36.534653 c -1.643033,0.01277 -2.934551,1.61661 -2.92473,3.195826 -0.418191,1.935508 -2.540634,2.844255 -3.050209,4.7121 -0.288917,1.643614 1.062728,3.148235 2.653016,3.382029 2.288704,0.522193 4.646186,0.663114 6.981244,0.836522 0.51987,-0.341259 -0.304006,-1.007792 -0.3312,-1.513795 -0.589402,-2.023207 0.391148,-4.231305 2.04824,-5.44886 -0.04461,-0.769465 -0.975005,-1.37538 -1.350519,-2.080152 -1.05283,-1.265496 -2.169005,-3.083991 -4.025842,-3.08367 z"
     id="path13742" /><path
     style="fill:#ff7c00;fill-opacity:1;stroke:#000000;stroke-width:0.318528;stroke-linecap:round;stroke-linejoin:round;paint-order:stroke markers fill"
     d="m 46.722567,31.453864 c -1.428993,0.101553 -2.893627,1.31263 -2.654874,2.860906 -0.10976,2.150085 1.308108,3.976861 1.995588,5.92519 0.18481,0.508995 0.523233,1.024587 1.112247,1.036226 1.11121,0.370098 1.984459,1.204478 2.812885,1.958702 0.965228,-0.854287 1.980824,-1.832826 3.287533,-2.105248 1.15772,-1.649045 1.875071,-3.59914 2.517623,-5.5006 0.478495,-1.453774 0.04192,-3.298177 -1.473519,-3.935373 -1.842988,-0.763291 -3.676312,0.912084 -5.53561,0.20944 -0.677473,-0.179799 -1.353085,-0.438379 -2.061873,-0.449243 z"
     id="path13744" /><path
     style="fill:#ff4c00;fill-opacity:1;stroke:#000000;stroke-width:0.318528;stroke-linecap:round;stroke-linejoin:round;paint-order:stroke markers fill"
     d="m 57.818572,21.770342 c -2.175501,-0.125967 -4.077884,1.496176 -4.691434,3.518026 -0.396197,1.289807 -0.786738,2.655165 -0.776324,4.006958 0.420362,0.654606 1.423741,0.20204 2.054278,0.534158 2.489848,0.540336 3.926335,3.38197 3.306592,5.733564 -0.02141,0.36067 -0.548146,1.347516 0.166684,1.205212 1.201252,-1.144217 2.704332,-2.227827 4.463312,-2.03182 1.733798,0.08964 3.108501,1.290002 3.990212,2.67904 0.77181,0.468054 1.406091,-0.636312 1.983982,-0.986568 1.693531,-1.321528 3.154029,-3.313612 2.821685,-5.576725 -0.24037,-2.30035 -2.303841,-3.987242 -4.511335,-4.304373 -1.734001,-0.214976 -3.236339,-1.170966 -4.406431,-2.442759 -1.198917,-1.183385 -2.570408,-2.500767 -4.401221,-2.334713 z"
     id="path13953" /><path
     style="fill:#ff4c00;fill-opacity:1;stroke:#000000;stroke-width:0.318528;stroke-linecap:round;stroke-linejoin:round;paint-order:stroke markers fill"
     d="m 73.887549,40.225886 c -1.702717,0.125005 -3.345785,0.787939 -4.867941,1.520922 -0.228208,0.522094 0.502237,1.038745 0.54405,1.597448 0.428558,1.675511 0.277686,3.638855 -1.076016,4.874757 -0.904554,0.997955 -2.282202,1.29028 -3.474357,1.707745 0.252097,0.592441 1.264294,0.446402 1.82145,0.798724 2.444934,0.928878 3.779294,4.01495 2.547056,6.366866 -0.570676,0.713096 -0.631565,1.463361 0.440518,1.588894 1.519911,0.542952 3.055039,1.289951 4.714939,1.011761 2.631006,-0.01925 4.768228,-2.59049 4.443483,-5.171258 -0.188041,-1.893272 -1.24149,-3.674448 -0.794696,-5.618023 0.387867,-1.735808 1.257078,-3.531059 0.588974,-5.323071 -0.678376,-2.03384 -2.74818,-3.438089 -4.88746,-3.354765 z"
     id="path14645" /><path
     style="fill:#ff4c00;fill-opacity:1;stroke:#000000;stroke-width:0.318528;stroke-linecap:round;stroke-linejoin:round;paint-order:stroke markers fill"
     d="m 66.401603,62.321542 c -0.854668,1.95662 -3.05475,3.328504 -5.192636,2.833332 -1.342481,-0.08286 -2.349968,-1.082504 -3.37986,-1.828886 -0.651521,0.03824 -0.02822,0.897688 -0.137447,1.299186 0.254967,1.534086 -0.01066,3.270573 -1.267601,4.327822 -0.973364,1.087689 -2.414177,1.473113 -3.826006,1.449353 -0.673676,0.294786 -0.05322,1.216198 -0.08553,1.750775 0.275092,2.163812 1.045204,4.576864 3.166099,5.590174 2.09127,1.145636 4.724948,0.226281 6.20111,-1.497065 1.204595,-1.381123 2.752025,-2.555411 4.635574,-2.779424 2.205373,-0.27754 4.306707,-1.907145 4.579495,-4.204919 0.438988,-2.136305 -0.91206,-4.080248 -2.455165,-5.405507 -0.67483,-0.570065 -1.338002,-1.231096 -2.113487,-1.628098 z"
     id="path14647" /><path
     style="fill:#ff4c00;fill-opacity:1;stroke:#000000;stroke-width:0.318528;stroke-linecap:round;stroke-linejoin:round;paint-order:stroke markers fill"
     d="m 33.323336,62.235721 c -1.941706,1.540769 -4.439268,3.286081 -4.48314,6.039382 -0.24573,2.480002 1.783165,4.685808 4.156916,5.09559 1.942596,0.257457 3.707867,1.252817 4.991858,2.745451 1.297474,1.468405 3.354094,2.664322 5.350019,1.962073 2.265564,-0.51337 3.712496,-2.697276 3.969764,-4.908218 0.07751,-0.868985 0.53484,-1.810981 0.31478,-2.66231 -0.783462,-0.418538 -1.807981,-0.01012 -2.590741,-0.537544 -2.003529,-0.767296 -3.16753,-2.99357 -2.791197,-5.083865 -0.09438,-0.516321 0.427887,-1.187281 0.05391,-1.593443 -0.755765,0.145967 -1.192344,1.028842 -1.930198,1.311791 -2.138658,1.267035 -5.052489,0.569554 -6.347346,-1.584125 C 33.777312,62.8024 33.751513,62.07437 33.323336,62.235721 Z"
     id="path14649" /><path
     style="fill:#ff4c00;fill-opacity:1;stroke:#000000;stroke-width:0.318528;stroke-linecap:round;stroke-linejoin:round;paint-order:stroke markers fill"
     d="m 25.786269,40.211944 c -2.466907,0.02099 -4.71241,2.081657 -4.771586,4.581354 -0.186535,1.872686 1.016474,3.579767 0.838691,5.451028 0.02901,2.026803 -1.394299,3.917657 -0.692145,5.959138 0.639861,2.114789 2.729211,3.743076 4.985055,3.549644 1.776787,-0.113532 3.501857,-0.814813 5.054764,-1.594659 -0.96169,-1.438152 -1.445117,-3.363386 -0.609422,-5.005813 0.77814,-1.693212 2.508855,-2.766576 4.327919,-2.955712 0.443553,-0.629653 -1.01432,-0.505982 -1.414725,-0.786394 -2.147109,-0.650883 -3.612588,-2.907442 -3.304501,-5.11016 0.02104,-0.949815 0.726859,-1.692859 0.92916,-2.569983 -1.663913,-0.724404 -3.482657,-1.513687 -5.34321,-1.518443 z"
     id="path14651" /><path
     style="fill:#ff2800;fill-opacity:1;stroke:#000000;stroke-width:0.318528;stroke-linecap:round;stroke-linejoin:round;paint-order:stroke markers fill"
     d="m 42.158563,21.796057 c -1.886494,-0.08894 -3.441924,1.154097 -4.563076,2.543958 -1.319073,1.570011 -3.336981,2.069707 -5.256402,2.480777 -2.816817,0.742599 -4.440318,4.274749 -2.987991,6.852645 0.894013,1.696046 2.448486,2.941832 3.983706,4.027391 0.607448,-0.160301 0.670965,-1.042252 1.185383,-1.399472 1.46639,-1.656835 4.09238,-2.127657 5.952322,-0.848605 0.690028,0.361137 1.198475,1.022741 1.880627,1.356096 0.29871,-0.463961 -0.200472,-1.173813 -0.09233,-1.757007 -0.236474,-1.578033 0.253752,-3.309247 1.568635,-4.32668 1.007466,-0.947871 2.408351,-0.975998 3.662419,-1.248588 0.516978,-0.420668 -0.0294,-1.25218 -0.0059,-1.813358 -0.268604,-1.736296 -0.75001,-3.551815 -2.162503,-4.724219 C 44.482481,22.127601 43.3172,21.742707 42.15861,21.796057 Z"
     id="path14653" /><path
     style="fill:#ff2800;fill-opacity:1;stroke:#000000;stroke-width:0.318528;stroke-linecap:round;stroke-linejoin:round;paint-order:stroke markers fill"
     d="m 64.241206,12.658444 c -2.154869,-0.165606 -3.866907,1.721247 -4.262237,3.706724 -0.255582,1.152184 -0.754991,2.305577 -0.84055,3.465371 0.586312,0.60472 1.616778,0.53148 2.247457,1.136741 1.721111,1.044337 2.704596,3.135894 4.792654,3.59178 1.829836,0.370063 3.747766,0.933714 5.019754,2.391215 0.561403,0.408207 0.960569,-0.579493 1.385598,-0.828113 1.359538,-1.462202 3.327417,-2.897357 3.193588,-5.132575 0.04073,-2.160259 -1.801501,-3.978736 -3.90159,-4.196984 -1.844548,-0.226616 -3.322242,-1.437255 -4.511037,-2.808426 -0.822296,-0.855019 -1.917748,-1.397559 -3.123637,-1.325733 z"
     id="path15207" /><path
     style="fill:#ff2800;fill-opacity:1;stroke:#000000;stroke-width:0.318528;stroke-linecap:round;stroke-linejoin:round;paint-order:stroke markers fill"
     d="m 78.921245,24.179526 c -2.428745,0.06235 -3.922074,2.283844 -5.547492,3.768154 -0.827867,0.492504 -0.923148,1.241933 -0.515436,2.050015 0.515863,2.47372 -0.385391,5.171024 -2.293001,6.838726 -1.079934,1.141264 -2.502662,1.943195 -3.499762,3.151831 0.182372,0.638414 1.067219,-0.07426 1.492418,-0.109368 2.385986,-0.89891 5.057185,-2.109093 7.604486,-1.149611 1.434048,0.293204 2.408197,1.424807 3.488421,2.296266 1.840261,-0.244305 3.629938,-0.960222 5.39371,-1.555002 2.391823,-1.029243 3.095091,-4.500769 1.302806,-6.391031 -1.187355,-1.37486 -2.789105,-2.592665 -3.056714,-4.518151 -0.282607,-2.221103 -1.924048,-4.491167 -4.369436,-4.381829 z"
     id="path15209" /><path
     style="fill:#ff2800;fill-opacity:1;stroke:#000000;stroke-width:0.318528;stroke-linecap:round;stroke-linejoin:round;paint-order:stroke markers fill"
     d="m 85.72682,41.601501 c -1.777426,0.118213 -3.540913,0.666188 -5.194494,1.227209 0.430214,1.642799 0.437408,3.417123 -0.187753,5.018825 -0.668585,1.657998 -0.394174,3.471479 0.241042,5.088535 0.425038,1.411662 0.160132,2.906992 0.07808,4.317695 1.703597,0.408064 3.399534,1.091243 5.158865,1.210478 2.204759,-0.05802 4.292186,-1.894728 4.230015,-4.174246 -0.08884,-1.772307 -1.122924,-3.459 -0.70144,-5.214943 0.389505,-1.788002 1.218304,-3.817088 0.08427,-5.522907 -0.7895,-1.258714 -2.206022,-2.06014 -3.708583,-1.950646 z"
     id="path15211" /><path
     style="fill:#ff2800;fill-opacity:1;stroke:#000000;stroke-width:0.318528;stroke-linecap:round;stroke-linejoin:round;paint-order:stroke markers fill"
     d="m 79.713463,59.020376 c -0.606226,0.175333 -0.856345,0.931596 -1.460862,1.179199 -2.339943,1.840256 -5.648712,1.673655 -8.266964,0.501902 -0.918717,-0.260035 -1.82801,-0.90431 -2.794295,-0.852014 -0.296235,0.545484 0.634916,0.89255 0.938764,1.230927 2.109821,1.701637 4.574476,3.674509 4.806906,6.598613 0.164926,1.190601 -0.02095,2.343054 -0.426627,3.480553 0.973838,1.261026 2.272498,2.367225 3.480863,3.454838 1.690941,1.649335 4.714913,1.549681 6.175395,-0.357226 1.30034,-1.556301 0.887381,-3.865269 2.335755,-5.340421 1.162716,-1.338451 2.93833,-2.535723 2.842629,-4.528065 0.137949,-2.219353 -1.77497,-4.053038 -3.860027,-4.435381 -1.249428,-0.316474 -2.487755,-0.795841 -3.771537,-0.932925 z"
     id="path15213" /><path
     style="fill:#ff2800;fill-opacity:1;stroke:#000000;stroke-width:0.318528;stroke-linecap:round;stroke-linejoin:round;paint-order:stroke markers fill"
     d="m 71.470309,72.910367 c -1.345827,1.302158 -3.055946,2.159152 -4.912246,2.411353 -1.745391,0.255379 -2.858209,1.710842 -4.018614,2.85166 -0.902107,0.904905 -2.106275,1.370831 -3.276481,1.830078 -0.281332,0.726074 0.269872,1.585269 0.355367,2.338545 0.423046,1.82565 1.085016,3.97419 3.004665,4.722014 1.57038,0.607988 3.501428,0.294323 4.644248,-0.99887 1.221333,-1.250754 2.571171,-2.572216 4.368197,-2.830234 2.052007,-0.192205 3.998648,-1.778384 4.137997,-3.915235 0.26888,-2.412902 -1.853686,-4.042132 -3.298545,-5.631053 -0.324358,-0.198438 -0.57981,-0.899804 -1.004588,-0.778258 z"
     id="path15215" /><path
     style="fill:#ff2800;fill-opacity:1;stroke:#000000;stroke-width:0.318528;stroke-linecap:round;stroke-linejoin:round;paint-order:stroke markers fill"
     d="m 49.962697,69.740257 c -0.587998,0.410036 -0.368367,1.386129 -0.567686,2.014477 -0.322995,2.466484 -0.930943,5.181802 -3.035866,6.773966 -0.911658,0.82584 -2.074841,1.276783 -3.245088,1.547256 -0.75869,0.952517 -0.744328,2.320966 -1.152542,3.440276 -0.503218,1.804494 -0.648344,4.061701 0.927301,5.402386 1.383921,1.443543 3.573523,1.293013 5.283723,0.600127 1.815752,-0.608962 3.664858,0.01178 5.437706,0.47434 2.609071,0.541146 5.214076,-1.994998 4.766939,-4.622561 -0.229435,-1.801001 -0.727655,-3.625752 -1.383361,-5.277837 -2.814338,-0.434432 -5.190444,-2.671611 -5.820337,-5.429651 -0.533322,-1.572695 -0.422122,-3.312461 -1.012812,-4.8509 -0.05129,-0.0511 -0.125126,-0.08064 -0.197977,-0.07188 z"
     id="path15217" /><path
     style="fill:#ff2800;fill-opacity:1;stroke:#000000;stroke-width:0.318528;stroke-linecap:round;stroke-linejoin:round;paint-order:stroke markers fill"
     d="m 28.391262,72.92276 c -1.340101,1.523854 -3.152379,2.777664 -3.971933,4.686075 -0.917739,2.335348 0.809892,5.070053 3.233608,5.474946 1.894307,0.283666 3.597506,1.283409 4.81157,2.761392 1.182486,1.411752 3.219656,1.928942 4.914724,1.176088 2.201244,-0.775121 2.625801,-3.323405 3.162365,-5.283723 0.02754,-0.563721 0.69842,-1.521647 0.02788,-1.893949 -2.157273,-0.365402 -3.561279,-2.232878 -5.100928,-3.628339 -1.420855,-1.156199 -3.488941,-0.863566 -5.01108,-1.867923 -0.749431,-0.359926 -1.267769,-1.072638 -1.956533,-1.481265 z"
     id="path15219" /><path
     style="fill:#ff2800;fill-opacity:1;stroke:#000000;stroke-width:0.318528;stroke-linecap:round;stroke-linejoin:round;paint-order:stroke markers fill"
     d="m 17.873077,59.555131 c -1.787237,0.48296 -3.924819,0.948632 -4.773755,2.818461 -0.919223,1.605208 -0.445257,3.647585 0.843338,4.902641 1.241215,1.190738 2.521366,2.494216 2.781893,4.273083 0.323892,1.712311 1.201707,3.550941 3.022954,4.051246 1.754128,0.587937 3.572135,-0.23678 4.807322,-1.488554 0.9778,-0.964018 2.09011,-1.886381 2.880009,-2.977237 -0.682429,-1.895089 -0.669236,-4.058913 0.36714,-5.825915 1.13988,-2.166306 3.255233,-3.507749 5.037105,-5.07831 0.409362,-0.392784 -0.244719,-0.754204 -0.571986,-0.424549 -2.632798,1.04224 -5.530323,2.406818 -8.402971,1.474539 -1.450289,-0.354874 -2.498399,-1.505826 -3.612227,-2.356515 -0.792941,0.21037 -1.585882,0.42074 -2.378822,0.63111 z"
     id="path15221" /><path
     style="fill:#ff2800;fill-opacity:1;stroke:#000000;stroke-width:0.318528;stroke-linecap:round;stroke-linejoin:round;paint-order:stroke markers fill"
     d="m 13.963728,41.631553 c -2.607527,-0.126024 -4.5298339,2.706823 -3.898194,5.128812 0.482725,1.555125 1.035244,3.215481 0.45451,4.822707 -0.474676,1.475964 -0.9469687,3.150312 -0.09728,4.593748 0.921057,1.92587 3.310359,2.656438 5.270421,2.038248 1.188316,-0.349467 2.539682,-0.446987 3.579367,-1.139761 C 19.44919,55.95043 19.008137,54.744098 19.249622,53.616132 19.68996,51.833787 20.552673,49.92954 19.726126,48.11389 19.13653,46.449509 19.021165,44.630915 19.40887,42.918868 18.719665,42.30941 17.603421,42.331443 16.740225,42.033492 15.82641,41.839586 14.905283,41.601709 13.963728,41.631553 Z"
     id="path15223" /><path
     style="fill:#ff2800;fill-opacity:1;stroke:#000000;stroke-width:0.318528;stroke-linecap:round;stroke-linejoin:round;paint-order:stroke markers fill"
     d="m 21.013754,24.236534 c -2.188374,-0.105451 -3.976553,1.835351 -4.211107,3.921515 -0.264913,2.064478 -1.777504,3.534035 -3.194286,4.927343 -1.743359,1.867006 -1.055504,5.187142 1.204593,6.318843 1.715667,0.759547 3.584566,1.215591 5.400526,1.61294 1.192462,-0.866851 2.247844,-1.977409 3.738326,-2.346911 2.832377,-0.970106 5.650347,0.569776 8.288503,1.442304 0.313267,0.252223 0.969589,-0.02335 0.62263,-0.426084 -2.373542,-1.877781 -5.246709,-3.838431 -5.808564,-7.039801 -0.323686,-1.368352 0.182045,-2.751811 0.33275,-4.06395 -1.67681,-1.433054 -3.031165,-3.455495 -5.183341,-4.213595 -0.387101,-0.105022 -0.790251,-0.135465 -1.19003,-0.132604 z"
     id="path15225" /><path
     style="fill:#ff2800;fill-opacity:1;stroke:#000000;stroke-width:0.318528;stroke-linecap:round;stroke-linejoin:round;paint-order:stroke markers fill"
     d="m 35.674584,12.631179 c -1.713423,-0.07068 -2.949888,1.22966 -4.037305,2.366119 -1.273934,1.484209 -3.266263,1.631704 -4.976379,2.288664 -2.434345,0.96213 -3.285662,4.425145 -1.518443,6.382356 0.976353,1.209524 2.043888,2.357926 3.197374,3.396901 0.7705,-0.135696 1.212731,-1.079445 1.981923,-1.328617 1.817035,-1.147245 4.370328,-0.807988 5.850096,-2.575774 1.151932,-1.405925 2.626237,-2.541432 4.366957,-3.102879 0.75478,-0.327962 0.0207,-1.270304 0.0028,-1.835392 -0.540386,-1.878983 -0.929092,-4.204658 -2.900874,-5.138107 -0.604083,-0.311913 -1.286715,-0.467587 -1.966138,-0.453271 z"
     id="path15227" /><path
     style="fill:#ff2800;fill-opacity:1;stroke:#000000;stroke-width:0.318528;stroke-linecap:round;stroke-linejoin:round;paint-order:stroke markers fill"
     d="m 54.204176,9.9756851 c -1.664429,0.028702 -3.20911,1.0492819 -4.884672,0.7259159 -1.64669,-0.242727 -3.34155,-1.1480239 -5.029978,-0.492309 -1.96024,0.631589 -3.079786,2.873514 -2.589812,4.845324 0.303469,1.615604 0.655244,3.291919 1.248898,4.793273 2.19562,0.451612 4.24554,1.790655 5.235082,3.825923 1.085635,1.982665 0.966405,4.337984 1.548495,6.45091 0.522999,0.462745 0.783615,-0.432246 0.702989,-0.831875 0.412275,-2.548593 0.63097,-5.40638 2.602514,-7.312135 1.049283,-1.131575 2.512086,-1.746678 3.990831,-2.086969 0.618744,-1.601591 1.0299,-3.375762 1.308693,-5.101857 0.512295,-2.508869 -1.580265,-4.9270222 -4.13304,-4.8162009 z"
     id="path15229" /></svg>
