<?xml version="1.0" encoding="UTF-8" standalone="no"?>
<svg
   version="1.1"
   viewBox="-5.0 -10.0 110.0 135.0"
   id="svg26767"
   sodipodi:docname="melon.svg"
   inkscape:version="1.2.2 (b0a8486541, 2022-12-01)"
   xmlns:inkscape="http://www.inkscape.org/namespaces/inkscape"
   xmlns:sodipodi="http://sodipodi.sourceforge.net/DTD/sodipodi-0.dtd"
   xmlns="http://www.w3.org/2000/svg"
   xmlns:svg="http://www.w3.org/2000/svg">
  <defs
     id="defs26771" />
  <sodipodi:namedview
     id="namedview26769"
     pagecolor="#ffffff"
     bordercolor="#000000"
     borderopacity="0.25"
     inkscape:showpageshadow="2"
     inkscape:pageopacity="0.0"
     inkscape:pagecheckerboard="0"
     inkscape:deskcolor="#d1d1d1"
     showgrid="false"
     inkscape:zoom="8.8451528"
     inkscape:cx="56.697721"
     inkscape:cy="60.372049"
     inkscape:window-width="1857"
     inkscape:window-height="1011"
     inkscape:window-x="0"
     inkscape:window-y="0"
     inkscape:window-maximized="1"
     inkscape:current-layer="svg26767" />
  <path
     d="m 19.609,93.672 0.625,0.23438 c 3.3281,1.2578 6.8359,1.9727 10.391,2.1094 h 1.7969 c 2.1172,0 4.2344,-0.15625 6.3281,-0.46875 l 1.5625,-0.23438 c 7.0312,-1.25 14.52706,-6.579964 17.672609,-10.834661 l -3.0469,-1.4062 C 52.15922,87.07962 44.8943,91.34385 40.0776,92.18765 c 0.46875,-0.85938 1.5625,-1.7969 3.2031,-2.9688 1.6406,-1.1719 4.375,-4.375 4.1406,-6.875 -1.918,-1.5039 -3.6719,-3.207 -5.2344,-5.0781 -0.30078,1.0273 -0.16016,2.1289 0.39062,3.0469 0.26172,0.42969 0.57422,0.82422 0.9375,1.1719 l 0.46875,0.46875 c 0.9375,1.3281 -0.9375,3.5156 -2.5781,4.6875 -1.6406,1.1719 -4.4531,3.2031 -4.7656,6.0156 -1.4531,0.16016 -2.9141,0.23828 -4.375,0.23438 h -0.625 c -0.74219,-1.7461 -0.625,-3.7422 0.3125,-5.3906 0.30859,-0.48828 0.64844,-0.95703 1.0156,-1.4062 0.83984,-0.98828 1.4766,-2.1289 1.875,-3.3594 0.625,-2.1875 -0.15625,-4.2969 -0.78125,-6.0938 -0.625,-1.7969 -1.0938,-3.2031 -0.625,-4.375 0.22656,-0.5 0.51562,-0.97266 0.85938,-1.4062 0.42188,-0.5625 0.78906,-1.1641 1.0938,-1.7969 0.42188,-0.96094 0.63281,-2 0.625,-3.0469 -1.0859,-3.3828 -1.6406,-6.9141 -1.6406,-10.469 -0.42188,0.47656 -0.78906,1.0039 -1.0938,1.5625 -1.0938,2.1094 -0.78125,4.375 -0.54688,6.3281 0.23437,1.9531 0.39062,3.2031 -0.15625,4.375 -0.22266,0.44141 -0.48438,0.85938 -0.78125,1.25 -0.50781,0.64453 -0.92969,1.3555 -1.25,2.1094 -0.85938,2.2656 -0.07813,4.5312 0.54688,6.5625 0.625005,2.0313 1.0156,3.0469 0.70312,4.2969 -0.30469,0.82812 -0.75391,1.5977 -1.3281,2.2656 -0.42578,0.54688 -0.81641,1.1211 -1.1719,1.7188 -1.1836,2.0586 -1.5195,4.4961 -0.9375,6.7969 -2.2383,-0.26953 -4.4414,-0.79297 -6.5625,-1.5625 l -2.2656,-6.7969 c -0.54688,-1.5625 -1.1719,-3.2812 -0.85938,-4.8438 0.14062,-0.67188 0.35156,-1.3242 0.625,-1.9531 0.23828,-0.5625 0.44531,-1.1367 0.625,-1.7188 1.0156,-3.5938 -0.15625,-7.2656 -1.25,-10.703 -1.09375,-3.4374 -2.1875,-7.0312 -0.54688,-9.6875 0.37891,-0.57422 0.79688,-1.125 1.25,-1.6406 1.25,-1.4062 2.7344,-3.2031 2.3438,-5.5469 -0.3906,-2.3438 -1.4062,-2.8906 -2.4219,-3.9844 -1.0157,-1.0938 -1.7969,-2.1094 -1.0938,-3.2812 0.41406,-0.61719 1.0625,-1.043 1.7969,-1.1719 2.2656,-0.54688 5.2344,-2.1875 6.0938,-5.1562 0.36328,-1.2734 0.25,-2.6328 -0.3125,-3.8281 -0.13672,-0.41016 0.02344,-0.86328 0.39062,-1.0938 h 0.15625 l 3.6719,-3.2812 c 1.0586,-0.16016 2.1328,-0.23828 3.2031,-0.23438 h 1.1719 l 0.39062,0.23438 c -0.21484,0.32031 -0.39844,0.66016 -0.54688,1.0156 -0.60156,1.5039 -0.60156,3.1836 0,4.6875 0.29297,0.67188 0.63281,1.3242 1.0156,1.9531 0.49219,0.71484 0.85938,1.5078 1.0938,2.3438 0.23438,1.3281 -0.39062,2.8906 -1.0938,4.4531 -0.70318,1.5625 -1.7969,4.0625 -1.25,6.4062 0.26953,1.043 0.69141,2.043 1.25,2.9688 0.29688,0.5 0.55859,1.0234 0.78125,1.5625 0.78125,-0.69141 1.7695,-1.1055 2.8125,-1.1719 -0.26953,-0.64453 -0.58203,-1.2734 -0.9375,-1.875 -0.40625,-0.65625 -0.72266,-1.3672 -0.9375,-2.1094 -0.3125,-1.3281 0.39062,-2.8906 1.0938,-4.4531 0.70318,-1.5625 1.7969,-4.0625 1.4062,-6.3281 -0.29297,-1.1992 -0.79688,-2.3359 -1.4844,-3.3594 -0.32031,-0.5 -0.60547,-1.0234 -0.85938,-1.5625 -0.27734,-0.73047 -0.27734,-1.5352 0,-2.2656 0.35547,-0.80078 0.99609,-1.4414 1.7969,-1.7969 2.2773,0.53125 4.4844,1.3477 6.5625,2.4219 -1.6406,2.4219 0,5.3906 1.0156,7.2656 1.0156,1.875 1.4844,2.6562 1.3281,3.4375 -0.07813,0.32031 -0.18359,0.63281 -0.3125,0.9375 -0.58984,1.1406 -0.64453,2.4844 -0.15625,3.6719 0.33594,0.62891 0.81641,1.1641 1.4062,1.5625 l 0.46875,0.39062 c 0.46875,0.54688 0.07813,1.5625 -0.625,3.125 l -0.3125,0.9375 h 3.3594 c 0.78125,-1.7969 1.7188,-4.2188 0,-6.1719 -0.28125,-0.32031 -0.59375,-0.60547 -0.9375,-0.85938 l -0.54688,-0.46875 c 0.02734,-0.40625 0.13281,-0.80469 0.3125,-1.1719 0.19922,-0.48047 0.35547,-0.97656 0.46875,-1.4844 0.3125,-1.9531 -0.70312,-3.75 -1.6406,-5.5469 -0.93748,-1.7969 -1.6406,-3.3594 -1.0938,-4.1406 7.7344,5.3125 10.229562,16.98834 11.870562,23.16034 h 3.125 C 61.401172,47.14471 58.35911,33.82847 49.06251,27.89047 l -0.39062,-0.23438 c -2.9453,-1.7773 -6.1641,-3.0469 -9.5312,-3.75 h -0.15625 l -0.54688,-0.15625 c 1.0039,-1.6016 1.5938,-3.4258 1.7188,-5.3125 h 0.07813 c 6.1719,-3.2031 5.3906,-12.578 5.3125,-12.969 -0.08594,-0.86328 -0.85547,-1.4922 -1.7188,-1.4062 -0.86333,0.086 -1.4922,0.85547 -1.4062,1.7188 0,0.078125 0.54688,6.6406 -2.8125,9.375 l -0.3125,-0.70312 c -1.3281,-2.7344 -3.9844,-4.6094 -6.4844,-4.5312 -2.5,0.0782 -4.8438,1.9531 -5.2344,3.0469 -0.63281,1.8789 -0.11328,3.9531 1.3281,5.3125 2.4219,2.2656 5.3906,2.4219 7.8125,1.7188 -0.36719,1.2148 -0.94922,2.3516 -1.7188,3.3594 -3.9844,-0.3125 -16.875,-0.07813 -27.734,15.469 -12.812,17.891 -4.9219,37.812 -4.6094,38.594 3.4844,7.3008 9.5117,13.078 16.953,16.25 z M 31.015,15.781 c -0.53125,-0.49609 -0.74219,-1.25 -0.54688,-1.9531 0.3125,-0.85938 1.6406,-1.0156 2.4219,-1.0156 h 0.07813 c 1.0938,0 2.6562,1.0156 3.5156,2.8125 0.13281,0.30078 0.23828,0.61719 0.3125,0.9375 -1.6406,0.54688 -3.9844,1.0156 -5.7812,-0.78125 z M 9.765,40.39 c 4.4531,-6.3281 9.2188,-9.9219 13.438,-11.875 -0.69922,1.1328 -0.78906,2.5391 -0.23438,3.75 0.23828,0.48438 0.29297,1.0391 0.15625,1.5625 -0.46875,1.5625 -2.2656,2.6562 -3.8281,3.0469 -1.5469,0.32031 -2.8984,1.25 -3.75,2.5781 -2.0312,3.2812 0.15625,5.5469 1.4844,7.0312 1.32815,1.4843 1.4844,1.5625 1.5625,2.2656 0.0781,0.7031 -0.54688,1.7969 -1.6406,3.125 -0.56641,0.61328 -1.0898,1.2656 -1.5625,1.9531 -2.4219,3.9062 -1.0938,8.125 0.23438,12.266 1.32818,4.141 1.9531,6.25 1.1719,8.9062 -0.16016,0.47656 -0.33984,0.94531 -0.54688,1.4062 -0.35156,0.82812 -0.61328,1.6953 -0.78125,2.5781 -0.39062,2.3438 0.39062,4.6094 1.0156,6.4062 l 1.25,3.6719 v 0.3125 c -5.3438,-2.9844 -9.6094,-7.5742 -12.188,-13.125 -0.078125,-0.15625 -7.5781,-19.062 4.2188,-35.859 z"
     id="path26749"
     sodipodi:nodetypes="cccscccccscccccsccccccsccccccscccscccccccccsccssccccccccccccccsccccccsccccccscccccccccccccscccccccccccscccsccccccccscssccssccccccssccsccccccccc" />
  <path
     d="m37.5 55.469c0 11.164 5.957 21.48 15.625 27.062s21.582 5.582 31.25 0 15.625-15.898 15.625-27.062c0-0.41406-0.16406-0.8125-0.45703-1.1055s-0.69141-0.45703-1.1055-0.45703h-59.375c-0.86328 0-1.5625 0.69922-1.5625 1.5625zm52.344 1.5625c0 7.5352-4.0195 14.5-10.547 18.27-6.5273 3.7656-14.566 3.7656-21.094 0-6.5273-3.7695-10.547-10.734-10.547-18.27zm-45.312 0c0 8.6523 4.6172 16.648 12.109 20.973 7.4922 4.3281 16.727 4.3281 24.219 0 7.4922-4.3242 12.109-12.32 12.109-20.973h3.9062c-0.51172 9.6836-5.9727 18.418-14.453 23.117-8.4805 4.6992-18.785 4.6992-27.266 0-8.4805-4.6992-13.941-13.434-14.453-23.117z"
     id="path26751" />
  <path
     d="m68.75 73.828c0.41406 0 0.8125-0.16406 1.1055-0.45703 0.29297-0.29297 0.45703-0.69141 0.45703-1.1055v-1.5625c0-0.86328-0.69922-1.5625-1.5625-1.5625s-1.5625 0.69922-1.5625 1.5625v1.5625c0 0.41406 0.16406 0.8125 0.45703 1.1055 0.29297 0.29297 0.69141 0.45703 1.1055 0.45703z"
     id="path26753" />
  <path
     d="m75.859 70.859c0.27344 0.47656 0.77734 0.77344 1.3281 0.78125l0.78125-0.23438c0.72266-0.4375 0.96484-1.375 0.54688-2.1094l-0.78125-1.3281c-0.42969-0.75391-1.3945-1.0156-2.1484-0.58594-0.75391 0.42969-1.0156 1.3945-0.58594 2.1484z"
     id="path26755" />
  <path
     d="m81.25 64.609 1.3281 0.78125 0.78125 0.23438c0.69141-0.019531 1.2891-0.48828 1.4688-1.1523 0.17969-0.66797-0.10156-1.375-0.6875-1.7383l-1.3281-0.78125c-0.75391-0.42969-1.7188-0.16797-2.1484 0.58594-0.42969 0.75391-0.16797 1.7188 0.58594 2.1484z"
     id="path26757" />
  <path
     d="m55.078 65.078 1.3281-0.78125c0.75391-0.42969 1.0156-1.3945 0.58594-2.1484-0.42969-0.75391-1.3945-1.0156-2.1484-0.58594l-1.3281 0.78125c-0.58594 0.36328-0.86719 1.0703-0.6875 1.7383 0.17969 0.66406 0.77734 1.1328 1.4688 1.1523z"
     id="path26759" />
  <path
     d="m59.609 71.25 0.78125 0.23438c0.55078-0.007813 1.0547-0.30469 1.3281-0.78125l0.78125-1.3281c0.42969-0.75391 0.16797-1.7188-0.58594-2.1484-0.75391-0.42969-1.7188-0.16797-2.1484 0.58594l-0.78125 1.3281c-0.40625 0.75391-0.125 1.6953 0.625 2.1094z"
     id="path26761" />
  <path
     style="fill:#008000;stroke:#000000;stroke-width:0.226113;stroke-linecap:round;stroke-linejoin:round;paint-order:markers stroke fill"
     d="M 27.881178,38.547552 C 25.522219,39.548428 23.406937,41.08037 21.441829,42.714073 15.386964,47.965468 10.773,55.026069 9.0021057,62.890202 c -0.8143126,3.396614 -1.1183755,6.898386 -0.96028,10.385852 0.025487,4.099965 0.7417423,8.192174 2.0293623,12.081078 1.561446,4.153566 4.335057,7.798025 7.664073,10.702499 1.486301,1.233329 3.026921,2.464013 4.773316,3.302038 0.567936,0.06904 0.235118,-0.675844 0.150558,-0.95327 -0.698528,-2.553713 -1.932738,-5.021249 -2.077815,-7.668154 -0.206489,-2.124897 0.85458,-4.068238 1.44743,-6.049615 0.778668,-2.836809 -0.39472,-5.71396 -1.162496,-8.4184 -0.935138,-2.99473 -2.001782,-6.123604 -1.473791,-9.268503 0.277757,-2.355012 1.981401,-4.115237 3.348495,-5.915689 0.598011,-0.846094 1.435279,-1.99768 0.766135,-3.040929 -1.186468,-1.895187 -3.432372,-3.283109 -3.559947,-5.702938 -0.152963,-2.538144 1.963135,-4.743168 4.339197,-5.292226 1.647972,-0.47457 3.424202,-1.466185 3.984791,-3.190969 0.31858,-1.225117 -0.615797,-2.354283 -0.425065,-3.570105 -0.0512,-0.554405 0.319525,-1.088015 0.265638,-1.633796 -0.0438,-0.08389 -0.141464,-0.121869 -0.230529,-0.109523 z"
     id="path26890"
     transform="translate(-5,-10)" />
  <path
     style="fill:#008000;stroke:#000000;stroke-width:0.226113;stroke-linecap:round;stroke-linejoin:round;paint-order:markers stroke fill"
     d="m 38.005456,36.173812 c -1.018019,0.09227 -2.131399,-0.09485 -3.080121,0.344247 -1.470835,1.06696 -2.76833,2.364568 -4.159234,3.526605 -0.467365,0.863396 0.350758,1.781572 0.303617,2.656823 0.288908,2.21225 -1.052666,4.347559 -2.863282,5.565592 -1.15034,0.859895 -2.532878,1.264665 -3.876814,1.715717 -1.218529,0.394323 -1.951915,1.915015 -1.257972,3.050532 1.029026,1.741468 3.073768,2.873718 3.387934,5.017977 0.52707,1.84598 -0.485927,3.660317 -1.63726,5.033453 -1.234005,1.476277 -2.595361,3.0871 -2.669919,5.11136 -0.168102,3.047676 1.084211,5.928474 1.878843,8.8117 0.918374,3.02141 1.618433,6.317076 0.543034,9.381527 -0.645417,1.760927 -1.50022,3.634125 -0.985709,5.547707 0.947767,3.155307 1.992569,6.289994 3.137311,9.378368 0.96639,0.5814 2.159801,0.70679 3.232984,1.03206 1.130576,0.20607 2.291009,0.66564 3.441357,0.5165 0.190298,-0.42515 -0.130711,-1.00151 -0.05227,-1.49393 -0.156063,-1.988985 0.234339,-4.047007 1.409023,-5.725224 0.937282,-1.527239 2.536157,-2.979963 2.267629,-4.935937 -0.386771,-2.704108 -1.862128,-5.245257 -1.645499,-8.02302 0.187493,-1.936797 1.62609,-3.348609 2.421878,-5.032992 0.674655,-1.890837 0.01351,-3.915845 -0.04875,-5.846378 -0.194651,-1.780429 -0.0077,-3.69074 1.063014,-5.194951 0.161044,-0.249982 0.438313,-0.824613 0.385638,-0.189342 0.123277,3.201105 0.671526,6.373316 1.561424,9.447827 0.241137,1.962996 -0.760568,3.796645 -1.903754,5.319863 -0.629201,0.908183 -1.006125,2.046316 -0.649066,3.137717 0.562913,2.588833 2.006098,5.073797 1.597803,7.783439 -0.451004,2.098967 -1.959562,3.716956 -3.075263,5.479255 -0.900218,1.607739 -0.858415,3.604383 -0.311567,5.322253 0.547826,0.33124 1.358008,0.0133 2.006767,0.0898 1.04897,-0.0833 2.14741,0.0318 3.16644,-0.22582 0.436376,-0.38332 0.307674,-1.07788 0.655464,-1.53643 1.029387,-2.444368 3.49445,-3.690221 5.356115,-5.398228 0.869553,-0.877494 1.882314,-1.984719 1.758832,-3.311064 -0.341067,-1.043199 -1.382902,-1.666607 -1.80073,-2.683099 -0.36916,-0.639669 -0.35105,-1.398641 -0.309139,-2.100815 1.624958,1.543648 3.163706,3.181148 4.871136,4.634865 0.347665,0.444776 -0.06195,1.102994 -0.123081,1.583301 -0.843428,2.687232 -3.091007,4.584373 -5.257249,6.22689 -0.592063,0.58759 -1.460404,1.06494 -1.723667,1.89167 0.221309,0.4975 0.896866,0.0237 1.276961,-0.01 4.04565,-1.19354 7.816707,-3.29748 11.050914,-5.994243 0.852613,-0.830461 1.841634,-1.593605 2.485147,-2.597808 -0.184991,-0.50489 -0.899729,-0.605096 -1.299705,-0.922557 -3.384625,-1.932359 -6.417237,-4.466314 -8.860123,-7.507643 -4.048328,-4.841434 -6.404239,-11.023881 -6.890692,-17.271775 0.01254,-1.031591 -0.251057,-2.130269 0.158323,-3.088733 0.580806,-0.844419 1.722058,-0.487445 2.573576,-0.599507 6.488459,-0.07251 12.978765,-0.01594 19.466435,-0.121226 0.399554,-0.336081 -0.122953,-0.951681 -0.12692,-1.395967 -1.640294,-6.297278 -3.486549,-12.800961 -7.580558,-17.9976 -1.157904,-1.396673 -2.43259,-2.773742 -3.992742,-3.716504 -0.568354,-0.01288 -0.382699,0.797797 -0.365667,1.167438 0.283042,1.677382 1.335791,3.104666 1.973246,4.650747 0.743301,1.524923 1.301059,3.29339 0.569859,4.937838 -0.203294,0.61987 -0.75336,1.43316 -0.101354,1.978264 0.851891,0.915122 1.983466,1.770978 2.002774,3.143937 0.18342,1.330115 -0.340761,2.616546 -0.817449,3.829339 -0.996632,-0.01416 -1.996568,0.03531 -2.990913,-0.04858 0.334374,-1.181571 1.136289,-2.328955 0.968265,-3.59572 -0.551857,-0.896161 -1.697728,-1.362258 -2.061732,-2.413707 -0.613639,-1.420791 0.02068,-2.901419 0.467903,-4.259704 0.210206,-1.238704 -0.718451,-2.295829 -1.169053,-3.374326 -0.998713,-1.948998 -2.226723,-4.138435 -1.590447,-6.391351 0.0868,-0.430516 0.729126,-1.126994 0.06293,-1.338348 -2.032324,-0.999417 -4.190897,-1.810046 -6.39062,-2.299086 -1.170085,0.5896 -2.166641,1.767128 -2.106707,3.145462 0.09085,1.66229 1.393272,2.905816 1.937026,4.42084 0.779716,1.447097 0.857879,3.163604 0.364508,4.716183 -0.566953,2.320161 -1.990047,4.368822 -2.308379,6.75445 -0.0595,1.52449 0.968963,2.801282 1.526922,4.15283 -6.03e-4,0.184224 0.507614,0.711057 0.07949,0.648308 -0.831143,0.06759 -1.543666,0.555355 -2.240148,0.956562 -0.695518,-1.380965 -1.538815,-2.732402 -1.921074,-4.245573 -0.221113,-1.736316 -0.03511,-3.509248 0.713555,-5.096683 0.694238,-1.820795 1.821302,-3.61353 1.569211,-5.645208 -0.159045,-1.295231 -1.078537,-2.342023 -1.562225,-3.527583 -0.834108,-1.402875 -1.254742,-3.118592 -0.726723,-4.709185 0.0837,-0.681908 0.631732,-1.248246 0.652282,-1.919528 -0.362977,-0.53882 -1.272665,-0.238475 -1.811992,-0.323932 z"
     id="path26892"
     transform="translate(-5,-10)" />
  <path
     style="fill:#55d400;stroke:#000000;stroke-width:0.226113;stroke-linecap:round;stroke-linejoin:round;paint-order:markers stroke fill"
     d="m 47.017719,66.899945 c -0.443328,0.105614 -1.28416,-0.216081 -1.483864,0.353963 0.416251,6.377183 3.003793,12.602421 7.330828,17.319469 4.763025,5.293616 11.592292,8.626298 18.688013,9.179641 2.344532,0.153575 4.719744,0.04033 7.040682,-0.329383 6.318685,-1.106471 12.243674,-4.390991 16.451837,-9.245954 3.830792,-4.321973 6.256375,-9.880578 6.870815,-15.620534 0.0154,-0.530969 0.1783,-1.085606 0.0632,-1.600232 -1.31553,-0.136063 -2.681336,-0.01827 -4.01593,-0.05807 -0.434676,0.29805 -0.08975,1.025377 -0.213305,1.50197 -0.395142,6.911599 -3.902786,13.572948 -9.448779,17.747201 -6.006161,4.649053 -14.244095,6.12539 -21.478295,3.884086 -6.891247,-2.03524 -12.664681,-7.302897 -15.346228,-13.964369 -1.198525,-2.841253 -1.635495,-5.927842 -1.83435,-8.984509 -0.444726,-0.426709 -1.296187,-0.06494 -1.895239,-0.184379 -0.243115,-1.78e-4 -0.48623,7.82e-4 -0.729345,0.0011 z"
     id="path26971"
     transform="translate(-5,-10)" />
  <path
     style="fill:#ff2a2a;stroke:#000000;stroke-width:0.226113;stroke-linecap:round;stroke-linejoin:round;paint-order:markers stroke fill"
     d="m 52.587948,66.969943 c -0.259148,3.510089 0.862986,7.020526 2.453504,10.12251 3.704711,7.147177 11.80478,11.681063 19.830327,11.163691 3.563275,-0.162891 7.028453,-1.316682 10.071639,-3.158281 2.275035,-1.33658 4.115791,-3.296137 5.804419,-5.295837 2.719168,-3.66739 4.302567,-8.232721 4.242253,-12.796749 -0.712554,-0.251035 -1.629837,-0.03367 -2.419084,-0.106436 -13.276752,0 -26.553503,0 -39.830255,0 l -0.102503,0.0477 z m 8.073146,4.588495 c 1.177697,-0.03695 1.857912,1.695404 0.849909,2.401341 -0.731911,0.530213 -1.607392,1.181726 -2.55834,1.027002 -0.914859,-0.236761 -1.289569,-1.425421 -0.680325,-2.148732 0.640669,-0.572937 1.418655,-1.100449 2.269075,-1.27939 l 0.06072,-0.0013 z m 26.299495,0.38841 c 0.987968,0.131635 1.901319,0.743454 2.553481,1.476577 0.629789,0.914721 -0.451288,2.342066 -1.51566,1.9012 -0.74318,-0.304521 -1.552506,-0.640323 -2.102802,-1.231254 -0.645675,-0.84166 0.04609,-2.125882 1.064981,-2.146523 z M 65.93455,77.256297 c 0.8833,-0.140345 1.705455,0.614757 1.571748,1.511245 -0.308509,0.846477 -0.773726,1.767736 -1.498879,2.352983 -0.969747,0.528596 -2.329217,-0.461796 -1.938297,-1.547679 0.312902,-0.849784 0.773548,-1.738074 1.521402,-2.27327 0.10807,-0.04633 0.228758,-0.04442 0.344026,-0.04328 z m 15.492243,0.11946 c 1.039609,0.08171 1.465071,1.218978 1.897225,2.013152 0.650326,0.986386 -0.460761,2.404231 -1.572189,1.983564 -0.843204,-0.524871 -1.345162,-1.443635 -1.705338,-2.350334 -0.263983,-0.829102 0.54886,-1.702229 1.380302,-1.646382 z m -7.718741,1.951766 c 0.834763,0.0211 1.51359,0.759292 1.429744,1.598909 0.03357,0.907716 0.138899,2.219656 -0.919224,2.607138 -0.909533,0.378924 -1.914098,-0.437293 -1.821927,-1.39598 -0.0231,-0.921307 -0.210019,-2.208175 0.797134,-2.707168 0.16021,-0.07446 0.337783,-0.109539 0.514273,-0.102899 z"
     id="path27042"
     transform="translate(-5,-10)" />
</svg>
