<?xml version="1.0" encoding="UTF-8" standalone="no"?>
<svg
   data-name="13 Mint "
   viewBox="0 0 512 640"
   x="0px"
   y="0px"
   version="1.1"
   id="svg26594"
   sodipodi:docname="mint.svg"
   inkscape:version="1.2.2 (b0a8486541, 2022-12-01)"
   xmlns:inkscape="http://www.inkscape.org/namespaces/inkscape"
   xmlns:sodipodi="http://sodipodi.sourceforge.net/DTD/sodipodi-0.dtd"
   xmlns="http://www.w3.org/2000/svg"
   xmlns:svg="http://www.w3.org/2000/svg">
  <defs
     id="defs26598" />
  <sodipodi:namedview
     id="namedview26596"
     pagecolor="#ffffff"
     bordercolor="#000000"
     borderopacity="0.25"
     inkscape:showpageshadow="2"
     inkscape:pageopacity="0.0"
     inkscape:pagecheckerboard="0"
     inkscape:deskcolor="#d1d1d1"
     showgrid="false"
     inkscape:zoom="1.23125"
     inkscape:cx="256.24365"
     inkscape:cy="320"
     inkscape:window-width="1857"
     inkscape:window-height="1011"
     inkscape:window-x="0"
     inkscape:window-y="0"
     inkscape:window-maximized="1"
     inkscape:current-layer="svg26594" />
  <path
     d="m 508.7243,264.15537 c 0,-6.70503 -3.87523,-16.53401 -21.39429,-26.68681 0.63482,-5.84786 -1.26015,-11.77191 -5.55228,-16.74355 -7.18195,-8.31462 -19.16768,-12.58147 -31.56082,-11.85763 0.37899,-8.27653 -2.83299,-13.23864 -6.17762,-16.14352 -8.40422,-7.29554 -22.42705,-5.61928 -35.24656,-0.70479 -0.92854,-2.3239 -2.25502,-4.50495 -3.96998,-6.51455 -8.63161,-10.09566 -24.52099,-12.78148 -32.55568,-12.78148 -5.86496,0 -11.74886,0.87623 -17.51906,2.35248 1.56336,-6.14311 2.35925,-12.01955 2.35925,-17.5912 0,-8.07653 -2.6814,-24.04861 -12.71529,-32.72516 -1.98973,-1.72388 -4.16895,-3.05727 -6.48082,-3.98112 4.88904,-12.88624 6.55662,-26.982055 -0.70114,-35.430022 -2.88984,-3.362043 -7.81678,-6.590748 -16.05993,-6.20978 0.72957,-12.467179 -3.52465,-24.50577 -11.79622,-31.725115 C 304.40797,43.09866 298.52407,41.19382 292.69702,41.831941 282.5968,24.231217 272.81872,20.326294 266.1484,20.326294 c -6.67031,0 -16.44839,3.895399 -26.54861,21.505647 -5.81758,-0.638121 -11.71095,1.266719 -16.65684,5.581182 -8.27157,7.209821 -12.52579,19.257936 -11.79623,31.725115 -8.2242,-0.380968 -13.17008,2.847737 -16.05992,6.20978 -7.25776,8.447967 -5.59018,22.553312 -0.70114,35.430022 -2.31187,0.93338 -4.48162,2.26676 -6.48082,3.98112 -10.04337,8.67655 -12.71529,24.64863 -12.71529,32.72516 0,5.57165 0.79589,11.45761 2.35924,17.5912 -5.7702,-1.48578 -11.6541,-2.35248 -17.51905,-2.35248 -8.0347,0 -23.92407,2.69535 -32.55569,12.78148 -1.71495,2.00008 -3.04144,4.19065 -3.96998,6.51455 -12.81951,-4.91449 -26.842335,-6.59075 -35.246554,0.70479 -3.344633,2.90488 -6.556617,7.86699 -6.177622,16.14352 -12.402619,-0.72384 -24.378868,3.54301 -31.560827,11.85763 -4.292121,4.97164 -6.187097,10.89569 -5.55228,16.74355 -17.481155,10.1528 -21.356381,19.98178 -21.356381,26.68681 0,6.70504 3.875226,16.53402 21.39428,26.68682 -0.634817,5.84786 1.260159,11.77191 5.55228,16.74354 7.172485,8.31463 19.148734,12.591 31.560827,11.85763 -0.378995,8.27653 2.83299,13.23864 6.177623,16.14352 8.404219,7.29554 22.427044,5.61928 35.246554,0.7048 0.92854,2.3239 2.25503,4.50494 3.96051,6.51455 8.63161,10.09565 24.52099,12.78148 32.55569,12.78148 5.86495,0 11.74885,-0.87623 17.51905,-2.35248 -1.56336,6.14311 -2.35925,12.01954 -2.35925,17.5912 0,8.067 2.6814,24.04861 12.71529,32.72516 1.98973,1.72388 4.16895,3.05727 6.48082,3.99064 -4.88904,12.88624 -6.55662,26.98206 0.70114,35.43003 2.88984,3.36204 7.82625,6.59074 16.05993,6.20978 -0.72957,12.46718 3.52465,24.50577 11.79622,31.72511 4.94589,4.31446 10.83927,6.2193 16.65684,5.58118 10.10022,17.60073 19.8783,21.50565 26.54862,21.50565 6.67031,0 16.44839,-3.8954 26.54861,-21.50565 5.82705,0.63812 11.71096,-1.26672 16.65684,-5.58118 8.27157,-7.20982 12.52579,-19.25793 11.79623,-31.72511 8.24315,0.38096 13.17008,-2.84774 16.05992,-6.20978 7.25776,-8.44797 5.59018,-22.55331 0.70114,-35.43003 2.31187,-0.93337 4.48162,-2.26676 6.48082,-3.99064 10.04337,-8.67655 12.71529,-24.64864 12.71529,-32.72516 0,-5.57166 -0.79589,-11.45761 -2.35924,-17.5912 5.7702,1.48578 11.6541,2.35248 17.51905,2.35248 8.02522,0 23.92407,-2.69535 32.55569,-12.78148 1.71495,-2.00008 3.04144,-4.19065 3.96997,-6.51455 12.81952,4.91448 26.84234,6.59074 35.24656,-0.7048 3.34463,-2.90488 6.55662,-7.86699 6.17762,-16.14352 12.39315,0.73337 24.37887,-3.543 31.56083,-11.85763 4.29212,-4.97163 6.1871,-10.89568 5.55228,-16.74354 17.50958,-10.1528 21.39428,-19.98178 21.39428,-26.68682 z M 190.36831,157.48432 c 0,-6.11454 2.31187,-16.73403 7.43778,-21.16278 1.89498,-1.63816 3.9226,-2.18104 6.58504,-1.78103 2.82352,0.42859 5.6565,-0.77146 7.31461,-3.11441 1.6581,-2.34295 1.85708,-5.42879 0.52112,-7.97176 -7.38093,-14.05771 -8.02523,-25.372465 -5.64703,-28.144007 1.00434,-1.171477 4.65216,-1.67626 11.5783,0.790508 2.72877,0.971469 5.7702,0.295251 7.83573,-1.752453 2.06552,-2.038179 2.79509,-5.085923 1.87603,-7.847942 -3.87523,-11.686195 -0.31268,-22.924753 5.01221,-27.572563 3.19303,-2.781067 5.59965,-2.076276 7.14406,-1.304816 1.80022,0.904799 3.8847,1.047662 5.78915,0.409541 1.90445,-0.638122 3.48676,-2.009607 4.38687,-3.819205 7.32408,-14.714891 13.47328,-18.648387 15.9557,-18.648387 2.48242,0 8.64109,3.923971 15.9557,18.648387 1.87602,3.76206 6.42397,5.285932 10.16654,3.409664 1.53493,-0.77146 3.95103,-1.476251 7.14406,1.304816 5.32489,4.638286 8.88744,15.886368 5.01222,27.572563 -0.91907,2.762019 -0.1895,5.809763 1.87602,7.847942 2.06553,2.038179 5.10696,2.714398 7.83573,1.752453 6.92614,-2.466768 10.56449,-1.961985 11.5783,-0.790508 2.3782,2.771542 1.7339,14.086297 -5.64703,28.144007 -1.33596,2.54297 -1.13698,5.62881 0.52112,7.97176 1.65811,2.34295 4.48162,3.55253 7.31461,3.11441 2.65297,-0.40954 4.69007,0.14287 6.57557,1.78103 5.13538,4.43828 7.43778,15.04824 7.43778,21.16278 0,7.25744 -1.80023,15.40063 -5.32489,24.23909 -17.35798,8.12414 -32.00614,19.74367 -39.42497,26.18203 -7.93048,6.886 -16.4484,15.4673 -23.46928,24.34386 v -72.09821 l 28.66151,-36.011 c 2.61507,-3.28585 2.08447,-8.07652 -1.18436,-10.7052 -3.26883,-2.62868 -8.0347,-2.09533 -10.64976,1.19052 l -16.81792,21.1342 V 96.52943 c 0,-4.209697 -3.392,-7.619361 -7.5799,-7.619361 -4.1879,0 -7.57991,3.409664 -7.57991,7.619361 v 85.60352 l -16.15467,-28.42022 c -2.075,-3.65729 -6.70821,-4.92401 -10.34657,-2.83821 -3.63835,2.0858 -4.89851,6.74313 -2.82351,10.40043 l 29.32475,51.58307 v 19.41033 c -7.02088,-8.87656 -15.5388,-17.45786 -23.46928,-24.34386 -7.41883,-6.43836 -22.06699,-18.06741 -39.42497,-26.18203 -3.52466,-8.83846 -5.32489,-16.98165 -5.32489,-24.2391 z m -51.3728,175.38817 c -1.62968,-1.90484 -2.16975,-3.94302 -1.77181,-6.6098 0.42637,-2.84774 -0.76746,-5.68595 -3.09828,-7.35268 -1.30754,-0.93337 -2.84247,-1.40958 -4.38687,-1.40958 -1.21279,0 -2.42557,0.29525 -3.54361,0.88575 -13.98493,7.41935 -25.24108,8.067 -27.998274,5.67642 -1.16541,-1.01909 -1.667579,-4.67638 0.786415,-11.63857 0.966438,-2.74297 0.293721,-5.80024 -1.743378,-7.87652 -2.027625,-2.07627 -5.059586,-2.80964 -7.807302,-1.88579 -11.625678,3.8954 -22.806037,0.3143 -27.429779,-5.0383 -2.766665,-3.20966 -2.065524,-5.63833 -1.298059,-7.18125 0.900114,-1.8096 1.042237,-3.8954 0.40742,-5.81929 -0.634817,-1.91436 -1.9992,-3.5049 -3.799427,-4.40018 -14.63869,-7.36221 -18.551816,-13.54341 -18.551816,-16.03875 0,-2.49535 3.903651,-8.68608 18.551816,-16.03876 1.800227,-0.9048 3.16461,-2.48582 3.799427,-4.4097 0.634817,-1.92389 0.492694,-4.00969 -0.40742,-5.81929 -0.767465,-1.54292 -1.468606,-3.97159 1.298059,-7.18125 4.614267,-5.3526 15.804101,-8.9337 27.429779,-5.0383 2.747716,0.92384 5.779677,0.19048 7.807302,-1.88579 2.027624,-2.07628 2.700341,-5.13355 1.743378,-7.87652 -2.444519,-6.96219 -1.951825,-10.61948 -0.786415,-11.63857 2.757194,-2.39058 14.013344,-1.74293 27.998274,5.67642 2.5298,1.34291 5.59966,1.1429 7.93048,-0.52383 2.33082,-1.66674 3.53413,-4.51447 3.09828,-7.35268 -0.40742,-2.66678 0.14213,-4.71448 1.77181,-6.61932 4.41529,-5.16212 14.97031,-7.4765 21.05318,-7.4765 37.59633,0 85.56765,45.98284 96.32164,68.57425 H 170.28156 L 134.45704,227.7634 c -3.26884,-2.62868 -8.0347,-2.09533 -10.64977,1.19052 -2.61507,3.28585 -2.08448,8.07653 1.18436,10.70521 l 21.02476,16.90545 H 99.409451 c -4.187898,0 -7.579905,3.40967 -7.579905,7.61937 0,4.20969 3.392007,7.61936 7.579905,7.61936 h 92.740139 l -28.27305,16.23876 c -3.63835,2.0858 -4.89851,6.74314 -2.82351,10.40043 1.40228,2.45724 3.9605,3.83825 6.58504,3.83825 1.27911,0 2.56769,-0.32382 3.75205,-1.00004 l 51.31596,-29.4774 h 33.67372 c -10.75399,22.5914 -58.72531,68.57425 -96.32163,68.57425 -6.08288,0 -16.64737,-2.32391 -21.05319,-7.4765 z m 202.97089,37.95394 c 0,6.11454 -2.31187,16.73402 -7.43778,21.16278 -1.89498,1.63816 -3.9226,2.18104 -6.58505,1.78102 -2.83299,-0.43811 -5.6565,0.77146 -7.3146,3.11442 -1.65811,2.34295 -1.85708,5.42879 -0.52112,7.97175 7.38093,14.05772 8.02522,25.37247 5.64703,28.14402 -1.01382,1.17147 -4.6427,1.67626 -11.57831,-0.79051 -2.72876,-0.97147 -5.7702,-0.29525 -7.83572,1.75245 -2.06553,2.03818 -2.79509,5.08593 -1.87603,7.84794 3.87523,11.6862 0.31267,22.92476 -5.01221,27.57257 -3.19304,2.78106 -5.60913,2.07627 -7.14406,1.30481 -1.80023,-0.9048 -3.87523,-1.05718 -5.78915,-0.40954 -1.90446,0.63812 -3.48676,2.00961 -4.3774,3.81921 -7.32408,14.72441 -13.47328,18.64838 -15.9557,18.64838 -2.48242,0 -8.64109,-3.92397 -15.9557,-18.64838 -1.87602,-3.76206 -6.42397,-5.28593 -10.16654,-3.40967 -1.53493,0.77146 -3.95103,1.47625 -7.14406,-1.30481 -5.32489,-4.63829 -8.89692,-15.88637 -5.01222,-27.57257 0.91907,-2.76201 0.1895,-5.80976 -1.87602,-7.84794 -2.06553,-2.03818 -5.10696,-2.7144 -7.83573,-1.75245 -6.92614,2.45724 -10.57396,1.96198 -11.5783,0.79051 -2.3782,-2.77155 -1.73391,-14.0863 5.64703,-28.14402 1.33596,-2.54296 1.13698,-5.6288 -0.52112,-7.97175 -1.65811,-2.34296 -4.49109,-3.55253 -7.31461,-3.11442 -2.65297,0.40002 -4.69007,-0.14286 -6.58504,-1.78102 -5.13539,-4.43828 -7.43778,-15.04824 -7.43778,-21.16278 0,-7.25744 1.80022,-15.40063 5.32488,-24.23909 17.35798,-8.12415 32.00615,-19.74367 39.42498,-26.18203 7.93047,-6.886 16.44839,-15.46731 23.46928,-24.34386 v 72.0982 l -28.66152,36.01101 c -2.61506,3.28585 -2.08447,8.07652 1.18436,10.7052 1.40229,1.12386 3.06987,1.66674 4.72797,1.66674 2.2266,0 4.42477,-0.981 5.9218,-2.85726 l 16.81791,-21.13421 v 39.23019 c 0,4.2097 3.39201,7.61936 7.57991,7.61936 4.18789,0 7.5799,-3.40966 7.5799,-7.61936 V 346.1778 l 16.15467,28.42021 c 1.40229,2.45725 3.9605,3.83826 6.58504,3.83826 1.26964,0 2.5677,-0.32383 3.75206,-1.00004 3.63835,-2.0858 4.89851,-6.74314 2.82351,-10.40043 L 273.76621,315.45272 V 296.0424 c 7.02088,8.87656 15.5388,17.45786 23.46928,24.34386 7.41883,6.43836 22.06699,18.06741 39.42497,26.18203 3.52466,8.83846 5.32489,16.98165 5.32489,24.23909 z m 133.04627,-90.6323 c -1.80023,0.9048 -3.16461,2.48582 -3.79943,4.40018 -0.63481,1.91436 -0.48322,4.00969 0.40742,5.81929 0.76747,1.54292 1.46861,3.97159 -1.29806,7.18124 -4.61426,5.35261 -15.79462,8.94323 -27.42978,5.03831 -2.74771,-0.92385 -5.77967,-0.19049 -7.8073,1.88579 -2.02762,2.07628 -2.70034,5.13354 -1.74337,7.87651 2.44451,6.97172 1.95182,10.62901 0.78641,11.63858 -2.75719,2.39057 -14.01335,1.74293 -27.99827,-5.67643 -2.52979,-1.34291 -5.59966,-1.1429 -7.93048,0.52384 -2.33082,1.66673 -3.53413,4.51447 -3.09828,7.35268 0.40742,2.66678 -0.14213,4.71448 -1.77181,6.61932 -4.41529,5.16212 -14.97031,7.4765 -21.05318,7.4765 -37.59633,0 -85.56765,-45.98285 -96.32164,-68.57425 h 93.66867 l 35.82453,28.81071 c 1.3928,1.12385 3.06986,1.66673 4.72796,1.66673 2.2266,0 4.42477,-0.98099 5.9218,-2.85726 2.61507,-3.28585 2.08448,-8.07652 -1.18436,-10.7052 l -21.02476,-16.90546 h 39.02704 c 4.18789,0 7.5799,-3.40966 7.5799,-7.61936 0,-4.2097 -3.39201,-7.61936 -7.5799,-7.61936 h -85.16023 l 28.27304,-16.23877 c 3.63836,-2.0858 4.89852,-6.74313 2.82352,-10.40042 -2.075,-3.64777 -6.70822,-4.92402 -10.34657,-2.83822 l -51.31596,29.47741 h -41.25363 c 10.75399,-22.59141 58.72531,-68.57425 96.32164,-68.57425 6.08287,0 16.64737,2.3239 21.05318,7.47649 1.62968,1.90485 2.16975,3.94302 1.77181,6.61932 -0.42637,2.84774 0.76746,5.68595 3.09828,7.35269 2.33082,1.66673 5.40069,1.86674 7.93048,0.52383 13.98492,-7.41935 25.24108,-8.067 27.99827,-5.67642 1.16541,1.01909 1.66758,4.67638 -0.78641,11.63857 -0.96644,2.74297 -0.29373,5.80024 1.74337,7.87651 2.02763,2.07628 5.05959,2.80964 7.80731,1.8858 11.62567,-3.8954 22.81551,-0.30478 27.42977,5.0383 2.76667,3.20965 2.06553,5.6288 1.29806,7.18125 -0.90011,1.8096 -1.05171,3.8954 -0.40742,5.81928 0.64429,1.92389 1.9992,3.50491 3.79943,4.40971 14.64817,7.36221 18.55182,13.54341 18.55182,16.03875 0,2.49535 -3.90365,8.68608 -18.55182,16.03876 z"
     id="path26588"
     style="stroke-width:0.949951" />
  <path
     style="fill:#00aa00;stroke:#000000;stroke-width:1.62437;stroke-linecap:round;stroke-linejoin:round;paint-order:markers stroke fill"
     d="m 253.92925,301.59423 c -15.92974,18.17145 -35.38588,33.1688 -56.70368,44.48286 -4.53903,4.57769 -4.82956,11.86439 -6.1358,17.88525 -1.17978,10.06949 -0.37826,22.84763 8.78967,29.11349 3.91901,1.27606 9.12943,-0.44645 11.65768,3.87531 3.42687,4.93072 -1.23051,10.89485 -2.6158,15.72494 -2.55966,6.15711 -3.90996,13.23544 -2.81567,19.79537 5.92774,4.33811 14.37868,-3.97108 19.91116,1.6085 4.68871,4.73951 -0.2602,11.2913 0.43465,16.88293 0.14456,7.26094 2.00359,16.45003 9.24968,19.77474 4.46072,1.00463 10.41313,-2.78886 13.51364,2.20813 4.72456,7.0475 8.52,15.87082 16.46415,19.84295 6.92151,-1.92844 10.83616,-9.09373 14.35121,-14.8826 1.79146,-4.78677 6.47463,-9.32414 11.90831,-7.31917 5.24917,2.63436 9.61565,-2.97848 11.63865,-7.1764 3.92449,-8.38476 0.85015,-17.96441 1.09295,-26.73223 1.93415,-4.02535 6.65281,-5.8576 10.78363,-4.12595 3.46471,0.84596 9.88852,3.22916 11.25159,-1.83535 1.39956,-10.548 -5.13303,-20.03962 -7.35565,-29.96351 0.46336,-5.35658 6.06922,-7.7746 10.85977,-7.10977 7.06771,-1.12387 9.49891,-9.60241 10.75508,-15.59803 1.55703,-10.53758 0.31797,-22.00843 -4.85089,-31.39119 -10.23308,-5.65215 -20.42737,-11.6791 -29.58792,-19.06922 -11.81257,-9.11515 -22.82106,-19.32529 -32.2617,-30.90381 -0.80431,5.86765 -0.14842,12.80938 -0.32677,19.07837 10.0129,18.25488 21.19915,35.95204 30.02538,54.81281 0.40832,6.41321 -8.89859,10.82925 -12.74588,4.99524 -6.53394,-8.57673 -10.90975,-19.29347 -16.89879,-27.67608 -0.27035,28.94089 -0.54108,57.88178 -0.81219,86.82266 -2.53271,4.30882 -8.55863,6.26263 -12.45876,2.56503 -2.95623,-2.59652 -0.92101,-7.62262 -1.82741,-11.10405 -0.6302,-10.97035 -0.0464,-22.61113 -1.10247,-33.15515 -6.59028,7.47975 -11.60059,16.63989 -19.58281,22.75064 -5.71759,2.92856 -12.85093,-4.84238 -8.92925,-10.2665 9.12444,-13.00761 19.53286,-25.05979 29.27189,-37.58566 -7.5e-4,-23.82403 -0.002,-47.64805 -0.005,-71.47208 -1.7963,0.80901 -3.30843,3.63232 -4.94289,5.14753 z"
     id="path26717" />
  <path
     style="fill:#00aa00;stroke:#000000;stroke-width:1.62437;stroke-linecap:round;stroke-linejoin:round;paint-order:markers stroke fill"
     d="m 370.23319,188.12341 c -24.25373,1.79592 -45.27182,16.37131 -63.14993,31.79586 -11.56091,10.52747 -22.85172,21.95197 -30.7016,35.55186 1.24627,1.56473 4.95264,0.31219 6.96207,0.83717 11.35536,0.21658 22.72299,0.13403 34.07378,0.10826 17.57539,-9.644 34.42787,-20.71694 52.59201,-29.23065 5.49309,-3.44079 10.85006,3.38996 9.29727,8.54696 -1.28992,4.64069 -7.21462,5.78576 -10.55203,8.62944 -6.30807,4.03929 -13.83212,7.42215 -19.46225,11.67513 28.93245,0.60746 57.9736,-0.18978 86.83852,1.56884 5.65758,1.61797 5.3734,9.85049 0.81087,12.70515 -3.75608,2.71227 -9.59615,0.39579 -14.15796,1.16383 -9.09938,0.33011 -18.60346,-0.66574 -27.49365,0.86294 6.6403,6.94122 15.6844,11.84586 21.75445,19.35121 2.91181,5.76557 -5.27022,13.92422 -10.51396,9.00539 -12.85141,-9.21749 -24.90771,-19.50575 -37.36358,-29.21954 -30.90555,0.27167 -61.9116,-0.62759 -92.75698,0.7392 2.89991,7.10484 8.65945,13.02985 13.3788,19.11327 18.37766,20.85398 41.43575,38.75324 68.27411,47.00983 11.00994,3.0655 24.11285,2.69396 33.59455,-4.27665 3.97507,-2.44578 3.62571,-7.07367 4.04346,-11.05647 0.99203,-6.10485 8.59175,-6.45449 12.79822,-3.4375 7.49327,3.1571 15.86542,6.80619 24.11485,5.08567 4.52017,-2.26294 1.42351,-8.41087 0.91847,-12.0384 -2.25108,-5.26742 2.77803,-11.5785 8.38674,-10.02855 9.62662,2.53398 21.7635,2.54287 28.80869,-5.58376 3.61423,-4.57179 -2.66655,-11.04842 2.45558,-15.01586 6.56789,-5.74117 17.19503,-8.51437 20.10946,-17.57931 -0.75212,-6.07643 -7.34704,-9.33788 -11.7941,-12.65229 -4.31646,-2.68467 -11.90754,-5.37501 -10.24429,-11.91307 1.3887,-3.42986 1.25298,-7.4933 -1.90038,-9.92227 -7.87035,-7.56614 -19.79784,-5.44633 -29.54156,-4.12595 -5.25373,-0.159 -8.16783,-5.91336 -6.28648,-10.56155 0.58616,-3.47808 3.82258,-9.64523 -0.85502,-11.54822 -10.65593,-2.28708 -19.98607,4.64505 -29.95082,6.63705 -5.04143,0.81123 -8.34941,-4.67249 -7.47939,-9.18306 -0.80745,-8.80015 -11.13812,-11.8034 -18.49302,-12.79981 -2.16224,-0.23937 -4.34167,-0.29959 -6.5149,-0.21415 z"
     id="path26719" />
  <path
     style="fill:#00aa00;stroke:#000000;stroke-width:1.62437;stroke-linecap:round;stroke-linejoin:round;paint-order:markers stroke fill"
     d="m 265.71066,35.958122 c -8.82842,3.078301 -11.58306,13.387727 -17.13674,19.949239 -4.35731,5.233086 -12.01036,-1.799543 -16.24683,3.573921 -7.56973,7.667886 -6.25804,19.355386 -4.39245,28.987944 0.89926,5.832934 -6.08331,9.83936 -11.07868,7.192259 -3.17584,-0.64187 -8.4876,-2.856249 -10.60437,0.639276 -2.50195,10.508069 3.51458,20.170329 6.4927,29.819169 0.85406,4.60167 -3.86327,9.19153 -8.50888,8.12499 -8.61843,0.18837 -11.90646,9.90559 -13.18528,16.97018 -1.75382,10.38823 1.04145,20.8892 4.54156,30.59169 23.58398,11.52828 44.51397,28.45531 61.25952,48.58026 0.81342,2.16501 2.24768,-0.42255 1.80678,-1.71319 -0.16929,-6.83295 2.10072,-14.54175 -2.61371,-20.27836 -9.17936,-16.67271 -19.36252,-32.89386 -27.67182,-49.98814 -1.60912,-7.0419 9.56858,-11.56717 13.06472,-5.12373 6.34094,8.78363 11.08391,19.35391 17.0368,27.83471 0.13907,-29.29939 0.27919,-58.59878 0.42037,-87.898162 3.13406,-4.211979 10.68448,-6.065118 13.60565,-0.71066 2.21138,13.851952 1.07878,28.128972 1.8179,42.138332 6.58764,-6.55148 11.69929,-15.84939 19.01015,-22.2002 5.91192,-3.03638 13.70752,4.78204 9.35279,10.37754 -8.87013,12.88664 -19.3049,24.64225 -28.76903,37.07805 0,23.82878 0,47.65756 0,71.48636 7.43818,-7.70305 15.04769,-16.55928 23.66274,-23.60566 11.92012,-10.37571 25.23276,-19.07533 39.237,-26.3293 4.67591,-10.89816 5.60508,-23.08891 3.4597,-34.68433 -1.46414,-6.17116 -5.994,-13.05132 -13.16148,-12.57932 -4.09054,-0.009 -9.02862,-2.87979 -7.48255,-7.64277 2.40513,-9.78948 8.82513,-19.34425 6.75603,-29.774743 -2.26003,-4.541714 -8.48371,-1.402816 -12.11295,-0.831218 -4.81078,1.839997 -11.10338,-2.19627 -9.69067,-7.71415 1.75807,-9.961028 3.05218,-22.589146 -6.00888,-29.584391 -4.02208,-3.982024 -9.49252,2.120814 -13.65165,-1.657678 -4.73959,-4.005125 -6.06965,-10.698025 -10.47748,-15.093591 -2.30976,-2.526676 -4.9979,-5.881212 -8.73096,-5.934327 z"
     id="path26721" />
  <path
     style="fill:#00aa00;stroke:#000000;stroke-width:1.62437;stroke-linecap:round;stroke-linejoin:round;paint-order:markers stroke fill"
     d="m 158.97843,188.21383 c -7.74982,0.26325 -17.22065,2.48418 -21.25793,9.75254 -0.17097,4.82177 -0.60734,11.86219 -6.79569,12.47779 -6.86481,0.0869 -12.43558,-5.05639 -19.20368,-5.97398 -4.28206,-0.63917 -9.85215,-2.77521 -13.5533,0.15863 -2.778339,5.6933 3.06209,11.67214 0.268084,17.13356 -1.69142,3.78139 -5.780865,4.9336 -9.485765,3.6132 -9.388178,-1.28131 -20.838726,-2.10659 -27.583331,6.01394 -3.267581,3.81836 2.293951,10.73549 -1.904572,14.65744 -6.608789,5.52079 -15.961504,8.58423 -20.082487,16.64023 -0.93464,6.30981 6.245862,9.91567 10.437817,13.14721 3.510506,2.76805 8.95894,4.21355 10.905774,8.45813 1.105604,4.87978 -2.616982,11.32 2.761739,14.57645 7.735473,6.7721 18.817836,6.01287 28.064721,3.47874 5.267793,-0.14984 9.1981,5.71936 7.171636,10.62501 -0.53608,3.63034 -3.416354,10.50831 1.916244,11.967 10.50634,1.36181 19.95147,-4.94234 29.69702,-7.5809 4.45364,1.24822 8.01376,5.73042 7.17164,10.5092 0.57546,8.33639 10.32035,10.80504 17.16012,11.82214 22.23022,2.54037 42.44566,-9.81338 59.77515,-22.21713 16.08877,-12.94736 31.21371,-27.64158 42.17005,-45.28077 -10.73308,-0.84344 -22.28938,-0.43621 -33.32804,-0.72494 -18.59286,10.25779 -36.56481,21.94913 -55.80742,30.87088 -5.12174,-0.6102 -9.57674,-6.6309 -6.14373,-11.41022 6.68827,-6.65008 16.04202,-9.93399 23.85539,-15.07552 7.1485,-3.00393 6.51413,-4.88247 -1.10607,-4.03324 -29.72051,-0.4361 -59.4797,-0.053 -89.172219,-1.39092 -4.405633,-3.35443 -3.84906,-11.07329 1.613262,-12.97113 16.055857,-1.61079 32.306277,-0.7918 48.434327,-1.41973 -6.42371,-6.442 -15.31184,-11.60696 -21.71954,-18.60248 -3.76478,-5.91235 4.17699,-14.14297 10.00952,-9.8953 12.84074,8.87456 24.47129,19.40569 36.83693,28.90387 28.46565,-0.29277 57.01185,0.66312 85.42988,-0.74715 -3.026,-7.15994 -8.69643,-13.53406 -13.72606,-19.61715 -17.1543,-18.84255 -37.80277,-35.49341 -61.95446,-44.30575 -6.7125,-2.22964 -13.75493,-3.6952 -20.85501,-3.55965 z"
     id="path26723" />
</svg>
