<?xml version="1.0" encoding="UTF-8" standalone="no"?>
<svg
   version="1.1"
   x="0px"
   y="0px"
   viewBox="0 0 100 125"
   enable-background="new 0 0 100 100"
   xml:space="preserve"
   id="svg22197"
   sodipodi:docname="nasturtium.svg"
   inkscape:version="1.2.2 (b0a8486541, 2022-12-01)"
   xmlns:inkscape="http://www.inkscape.org/namespaces/inkscape"
   xmlns:sodipodi="http://sodipodi.sourceforge.net/DTD/sodipodi-0.dtd"
   xmlns="http://www.w3.org/2000/svg"
   xmlns:svg="http://www.w3.org/2000/svg"><defs
     id="defs22201" /><sodipodi:namedview
     id="namedview22199"
     pagecolor="#ffffff"
     bordercolor="#000000"
     borderopacity="0.25"
     inkscape:showpageshadow="2"
     inkscape:pageopacity="0.0"
     inkscape:pagecheckerboard="0"
     inkscape:deskcolor="#d1d1d1"
     showgrid="false"
     inkscape:zoom="7.240336"
     inkscape:cx="32.111769"
     inkscape:cy="56.074746"
     inkscape:window-width="1857"
     inkscape:window-height="1011"
     inkscape:window-x="0"
     inkscape:window-y="0"
     inkscape:window-maximized="1"
     inkscape:current-layer="svg22197" /><path
     fill="none"
     d="m 49.999965,39.799386 c -1.595928,0.46416 -3.050142,0.728289 -4.126085,0.776915 0.04142,0.225451 0.08502,0.449795 0.130813,0.674139 1.165334,-0.374644 2.568311,-0.692925 4.035606,-0.906218 -0.01962,-0.175718 -0.02725,-0.363593 -0.04033,-0.544836 z"
     id="path22139"
     style="stroke-width:1.09761" /><path
     fill="none"
     d="m 44.64096,47.605019 c -0.0447,-0.09394 -0.08066,-0.181245 -0.121003,-0.272972 0.04142,0.09173 0.0763,0.179034 0.121003,0.272972 z"
     id="path22141"
     style="stroke-width:1.09761" /><path
     fill="none"
     d="m 43.757965,44.433255 c 0.001,-0.09173 0.001,-0.185666 0.0098,-0.268551 -0.0086,0.08399 -0.0086,0.176824 -0.0098,0.268551 z"
     id="path22143"
     style="stroke-width:1.09761" /><path
     fill="none"
     d="m 43.785218,44.918413 c -0.01089,-0.09725 -0.0218,-0.194506 -0.02616,-0.284023 0.0054,0.09062 0.01526,0.185664 0.02616,0.284023 z"
     id="path22145"
     style="stroke-width:1.09761" /><path
     fill="none"
     d="m 43.881149,45.480931 c -0.0229,-0.101669 -0.04252,-0.202241 -0.05778,-0.298389 0.01526,0.09725 0.03488,0.195611 0.05778,0.298389 z"
     id="path22147"
     style="stroke-width:1.09761" /><path
     fill="none"
     d="m 44.301934,46.828101 c -0.04142,-0.104993 -0.07521,-0.203346 -0.112283,-0.303913 0.03706,0.100567 0.07086,0.198924 0.112283,0.303913 z"
     id="path22149"
     style="stroke-width:1.09761" /><path
     fill="none"
     d="m 44.051207,46.118598 c -0.03271,-0.104982 -0.05995,-0.205556 -0.08721,-0.305019 0.02616,0.09947 0.05342,0.198925 0.08721,0.305019 z"
     id="path22151"
     style="stroke-width:1.09761" /><path
     fill="none"
     d="m 33.606813,64.492723 c -4.027974,-1.264285 -6.192943,-2.857903 -7.280879,-4.4471 -0.519984,0.207769 -1.005085,0.415534 -1.435681,0.622196 -0.341206,0.322704 -0.431686,0.49621 -0.445857,0.529365 0.01309,0.0022 0.08394,0.309441 0.65734,1.020048 0.0054,0.0032 0.0065,0.01104 0.01199,0.01437 1.155522,0.748182 1.952397,0.959265 3.246364,1.290808 0.692222,0.177928 1.554503,0.398957 2.65661,0.757023 3.243093,1.054308 5.555226,2.922001 5.652246,3.000466 0.291062,0.237607 0.337936,0.668613 0.103566,0.964792 -0.134085,0.169086 -0.330305,0.256392 -0.527616,0.256392 -0.149346,0 -0.298691,-0.04863 -0.424056,-0.151403 -0.0218,-0.01769 -2.222744,-1.790334 -5.2162,-2.76286 -1.062862,-0.344806 -1.866277,-0.551467 -2.575941,-0.733816 -1.3125,-0.33707 -2.280522,-0.596779 -3.5952,-1.437793 -0.662791,-0.140353 -1.208938,-0.128197 -1.269985,-0.110514 0.0044,0.01327 -0.126454,0.198927 -0.264898,0.768075 -0.488372,3.040251 -0.577761,4.56093 0.591933,6.289375 1.206757,1.784808 2.996727,5.440623 2.943311,6.236328 -0.02399,0.362486 -0.321584,0.640984 -0.674782,0.640984 -0.01526,0 -0.03052,0 -0.04579,-10e-4 -0.372819,-0.02542 -0.655159,-0.35254 -0.630087,-0.7305 -0.07085,-0.437637 -1.421509,-3.464627 -2.708934,-5.367686 -1.457485,-2.153924 -1.308139,-4.14429 -0.84048,-7.093918 -0.277979,-0.542626 -0.478561,-0.796809 -0.585392,-0.906219 -3.12754,1.878744 -4.789966,3.439208 -5.194397,4.894683 -0.519986,1.867693 -3.324852,5.247223 -3.643166,5.626289 -0.134085,0.160246 -0.324855,0.242027 -0.516716,0.242027 -0.154795,0 -0.310682,-0.05417 -0.438226,-0.163563 -0.284519,-0.245341 -0.319403,-0.678557 -0.0774,-0.967 0.812137,-0.967 2.998908,-3.771857 3.371727,-5.110186 0.498182,-1.792544 2.233646,-3.517674 5.553047,-5.545613 -0.106832,-0.03094 -0.306323,-0.07515 -0.632267,-0.106097 -3.942947,0.358067 -5.702392,1.517364 -6.866636,2.287648 -0.200581,0.132618 -0.385901,0.255288 -0.562498,0.362488 -1.327761,0.806754 -4.7986876,1.731759 -4.9458531,1.770439 -0.057775,0.01547 -0.1144621,0.02322 -0.1722382,0.02322 -0.2997817,0 -0.5744908,-0.204452 -0.6540691,-0.512787 -0.094839,-0.366908 0.1220929,-0.741553 0.482921,-0.837699 0.9505803,-0.251973 3.6279034,-1.034414 4.5926554,-1.620142 0.162426,-0.09837 0.333575,-0.212187 0.518895,-0.334857 1.261262,-0.834385 3.170054,-2.083197 7.339744,-2.486574 0.281251,-0.219924 0.458938,-0.390116 0.56577,-0.510578 l -0.72928,-0.330489 C 16.010186,58.500679 14.538529,57.838698 13.01564,55.438325 11.585407,53.186042 9.2253083,52.546163 9.2013259,52.539533 8.8404977,52.445598 8.6213847,52.072056 8.7140444,51.705149 c 0.091569,-0.366908 0.4611187,-0.587938 0.8197665,-0.496209 0.1166423,0.02985 2.8909851,0.764759 4.6188181,3.486728 1.304868,2.054463 2.485463,2.586038 5.337204,3.871319 l 1.108646,0.502841 c 0.01418,-0.0022 0.03052,-0.0045 0.03707,-0.0055 -0.0044,-0.01327 0.126454,-0.196713 0.28888,-0.711712 -0.777252,-2.244547 -1.41933,-5.681544 -1.785608,-8.617914 -1.538153,-1.029993 -2.714387,-3.04025 -2.740549,-6.784479 -0.03597,-0.428794 -0.05669,-0.841014 -0.0654,-1.239971 -0.199491,-0.02763 -0.404432,-0.04089 -0.612645,-0.04089 -1.252542,0 -2.704574,0.488473 -4.317945,1.452159 -2.1497075,1.266495 -3.4273224,2.682185 -3.7990518,4.206179 -0.4894616,2.003626 -1.6231813,3.660237 -3.191857,4.665917 -1.3746352,0.8808 -2.2598087,2.662293 -2.6304478,5.293641 -0.3771799,2.573881 -0.054506,4.507882 0.9593013,5.753379 1.3408416,1.648875 1.9066113,3.850322 1.5926582,6.199859 -0.2212934,1.657715 0.5853918,3.49999 2.3971632,5.475987 0.9571211,1.056518 1.9098817,1.829014 2.8332091,2.299805 0.6976738,0.354751 1.3768158,0.87638 2.0167128,1.550518 0.84593,0.891851 2.146438,1.616826 3.866639,2.156135 2.3601,0.753709 4.26017,0.761445 5.617363,0.0221 1.950216,-1.060938 4.303775,-1.264284 6.429498,-0.555887 0.408795,0.137037 0.84593,0.205557 1.299419,0.205557 1.316858,0 2.83321,-0.575781 4.504354,-1.71408 2.195493,-1.475367 3.403341,-3.057932 3.590841,-4.701281 0.245276,-2.147294 1.447672,-4.152027 3.218019,-5.363265 1.027979,-0.703976 1.751816,-1.92295 2.164969,-3.629292 -0.811046,0.338175 -1.803051,0.542626 -3.02725,0.542626 -1.589388,-0.0045 -3.486188,-0.351436 -5.636985,-1.036626 z"
     id="path22153"
     style="stroke-width:1.09761" /><path
     fill="none"
     d="m 23.292144,60.47442 c -0.107921,-0.06188 -0.201671,-0.132618 -0.281249,-0.212188 -0.130814,-0.137039 -0.233285,-0.305019 -0.311773,-0.511682 -0.252907,0.02432 -0.47311,0.001 -0.66279,-0.06852 -0.05341,-0.02099 -0.106832,-0.04641 -0.158066,-0.07515 -0.167878,0.30502 -0.356469,0.518311 -0.571222,0.64872 -0.05887,0.03427 -0.119912,0.06299 -0.184227,0.08842 -0.0654,0.201135 -0.182052,0.405587 -0.354289,0.618881 0.138444,0.07515 0.253997,0.162456 0.347748,0.265235 0.137354,0.153614 0.240915,0.347014 0.315042,0.589042 0.19186,0.08953 0.427325,0.258602 0.704214,0.615564 0.08939,-0.112724 0.18423,-0.204452 0.288881,-0.276287 0.226743,-0.150299 0.506904,-0.229869 0.862281,-0.246446 -0.188589,-0.413324 -0.202762,-0.686294 -0.183139,-0.879694 0.01962,-0.183454 0.08176,-0.366908 0.188589,-0.555888 z"
     id="path22155"
     style="stroke-width:1.09761" /><path
     fill="none"
     d="m 74.546087,37.446534 c -0.08611,-0.01658 -0.170058,-0.04199 -0.255087,-0.07625 -0.227834,0.151405 -0.519984,0.249762 -0.890623,0.300599 0.09156,0.198926 0.141715,0.3868 0.151525,0.566937 0.0076,0.235398 -0.04687,0.48074 -0.165696,0.748183 0.114462,0.230975 0.210391,0.582412 0.168967,1.196871 0.148255,-0.03979 0.2867,-0.05968 0.417514,-0.05968 0.02399,0 0.115553,0.0045 0.140624,0.0077 0.235466,0.03094 0.55596,0.128198 1.007268,0.516103 0.132993,-0.579094 0.332485,-0.84654 0.498181,-1.00568 0.161337,-0.150301 0.36955,-0.265235 0.631177,-0.348121 -0.06868,-0.158036 -0.107921,-0.30944 -0.119912,-0.459739 -0.01526,-0.221029 0.02616,-0.454215 0.123183,-0.708399 -0.262718,-0.173507 -0.448037,-0.36138 -0.566861,-0.572464 -0.04578,-0.08399 -0.08285,-0.175718 -0.112281,-0.274076 -0.301962,0.123776 -0.569039,0.184559 -0.805594,0.184559 -0.03925,0.0022 -0.185321,-0.0099 -0.222385,-0.01658 z"
     id="path22157"
     style="stroke-width:1.09761" /><path
     fill="none"
     d="m 22.534514,58.4078 c 0.02399,-0.01327 0.117734,-0.03316 0.245277,-0.06521 1.580666,-2.339591 2.261988,-4.699073 2.858281,-6.788901 0.134084,-0.469686 0.268168,-0.926111 0.406613,-1.372589 -1.097745,0.310545 -2.233646,0.526048 -3.341203,0.526048 -0.692224,0 -1.416059,-0.08177 -2.118094,-0.293967 0.359739,2.598193 0.923329,5.557768 1.665696,7.631019 0.178779,0.288442 0.282341,0.362486 0.28343,0.363591 z"
     id="path22159"
     style="stroke-width:1.09761" /><path
     fill="none"
     d="m 33.195841,47.024817 c -0.04469,-0.06741 -0.09048,-0.133722 -0.135175,-0.201135 -0.38154,0.259707 -0.748909,0.496209 -1.074853,0.69624 -0.856832,0.523839 -2.462569,1.419005 -4.332118,2.129613 -0.252906,0.68961 -0.476381,1.448842 -0.715115,2.285437 -0.135174,0.471897 -0.275798,0.96037 -0.427326,1.45658 1.461845,-2.441263 4.106464,-4.726702 6.684587,-6.366735 z"
     id="path22161"
     style="stroke-width:1.09761" /><path
     fill="none"
     d="m 25.399338,56.425172 c -0.393533,0.874168 -0.878633,1.764915 -1.482557,2.662291 0.02726,0.125987 0.05451,0.194506 0.0654,0.216609 0.0098,0.0055 0.138443,0.04863 0.413153,0.08399 0.395711,-0.187875 0.825217,-0.375749 1.286335,-0.561414 -0.312862,-0.844328 -0.366277,-1.66103 -0.282338,-2.401477 z"
     id="path22163"
     style="stroke-width:1.09761" /><path
     fill="none"
     d="m 51.799745,41.249335 c 0.219114,-0.01879 0.440407,-0.03205 0.66279,-0.04421 -0.222383,0.01215 -0.443676,0.02542 -0.66279,0.04421 z"
     id="path22165"
     style="stroke-width:1.09761" /><path
     fill="none"
     d="m 63.088978,34.188568 c -0.738008,-0.12709 -1.829214,-0.527152 -2.853921,-0.950422 -1.573036,2.865639 -5.544327,5.012933 -9.167869,6.225276 0.01526,0.250868 0.02944,0.503947 0.05451,0.741551 0.886263,-0.09504 1.780158,-0.148089 2.643529,-0.148089 1.23946,0 2.651161,0.11825 3.996362,0.454214 1.795421,-0.354751 4.362642,-0.970316 5.374268,-1.648874 1.753996,-1.176979 4.570852,-1.348277 9.057767,-0.564729 0,-10e-4 0.0032,-0.0087 0.0032,-0.0099 -0.0065,0 -0.08831,-0.245342 -0.587571,-0.760339 -3.748907,-2.687709 -6.163512,-3.014833 -7.76271,-3.228124 -0.272528,-0.03646 -0.524346,-0.07073 -0.75763,-0.110516 z"
     id="path22167"
     style="stroke-width:1.09761" /><path
     fill="none"
     d="m 50.201637,41.431684 c -0.0992,0.01438 -0.194041,0.03205 -0.291061,0.04752 0.09593,-0.01547 0.19513,-0.02873 0.29215,-0.0431 0,-10e-4 0,-0.0022 -10e-4,-0.0045 z"
     id="path22169"
     style="stroke-width:1.09761" /><path
     fill="none"
     d="m 51.28303,41.299066 c 0,0 0,10e-4 0,0.0022 0.05342,-0.0055 0.106831,-0.01215 0.160247,-0.01769 -0.05342,0.0055 -0.107921,0.0099 -0.160247,0.01547 z"
     id="path22171"
     style="stroke-width:1.09761" /><path
     fill="none"
     d="m 52.775398,41.186341 c 0.328125,-0.01438 0.658431,-0.02322 0.989825,-0.02322 -0.332486,0 -0.6617,0.0087 -0.989825,0.02322 z"
     id="path22173"
     style="stroke-width:1.09761" /><path
     fill="none"
     d="m 43.839725,43.779009 c -0.0229,0.07735 -0.03597,0.166876 -0.05014,0.256394 0.01309,-0.08842 0.02616,-0.179034 0.05014,-0.256394 z"
     id="path22175"
     style="stroke-width:1.09761" /><path
     fill="none"
     d="m 97.626005,33.064638 c -0.372819,-0.791283 -0.642078,-1.659926 -0.799054,-2.583825 -0.198402,-1.149351 -0.682412,-2.426898 -1.441133,-3.797277 -1.507629,-2.766175 -3.244181,-4.342111 -5.162785,-4.689126 -2.484372,-0.448689 -4.652611,-1.825699 -5.947667,-3.779591 -1.013808,-1.529521 -2.979286,-2.56725 -5.844108,-3.084459 -2.833209,-0.529362 -5.02652,-0.260812 -6.487276,0.789073 -1.880447,1.351592 -4.075939,1.929583 -6.167871,1.617931 -0.225652,-0.03316 -0.455668,-0.05083 -0.692223,-0.05083 -1.697308,0 -3.570127,0.898483 -5.569398,2.670028 -1.456393,1.275337 -2.440768,2.54183 -2.964023,3.786225 0.341206,0.20666 0.683503,0.425479 1.029069,0.670821 2.791784,2.490995 3.826304,4.94994 3.165694,7.351417 0.974563,0.403378 1.960027,0.76476 2.573761,0.870854 0.216934,0.03757 0.452399,0.06963 0.706396,0.102775 1.71366,0.228765 4.295053,0.585726 8.244541,3.386161 0.143895,0.0077 0.28997,0.01658 0.418603,0.01658 0.306324,0 0.500363,-0.02432 0.633357,-0.05083 l -0.450217,-0.94821 c -1.597018,-3.340852 -2.397164,-5.018459 -1.97747,-8.221167 0.402253,-3.0723 -1.222018,-5.439519 -1.23946,-5.463833 -0.215843,-0.308334 -0.144984,-0.737131 0.159156,-0.955949 0.308503,-0.219925 0.727107,-0.148089 0.942951,0.158036 0.07958,0.113829 1.954576,2.815907 1.478195,6.442991 -0.365187,2.794907 0.284521,4.15534 1.854286,7.442038 l 0.613735,1.293019 c 0.05559,0.03869 0.09375,0.05968 0.09702,0.06078 -0.01526,-0.0055 0.250727,-0.03204 0.885174,-0.428796 1.832484,-4.82948 7.334295,-13.140162 8.549773,-13.66621 0.343386,-0.149195 0.742369,0.01215 0.888445,0.361382 0.147164,0.348121 -0.01309,0.751498 -0.356469,0.900692 -0.794694,0.54152 -6.106824,8.235533 -7.878262,13.049541 -0.05778,0.391221 -0.02507,0.551466 -0.01635,0.575779 0.0054,0 0.09703,0.08619 0.354288,0.213293 3.141712,-0.834383 5.490909,-2.378269 7.563219,-3.749753 1.388806,-0.918374 2.701305,-1.785913 4.036696,-2.275492 0.347746,-0.129302 0.739097,0.05526 0.866641,0.412219 0.126454,0.355855 -0.05559,0.749288 -0.406612,0.878589 -1.188226,0.435426 -2.378631,1.22229 -3.756538,2.134034 -2.151887,1.42232 -4.588293,3.023673 -7.919687,3.915525 -0.10901,0.19782 -0.128632,0.297284 -0.131902,0.317176 0.0054,0 0.07413,0.162457 0.355377,0.476316 4.211115,1.178085 11.017793,4.533302 12.203839,5.157708 0.331395,0.174613 0.461119,0.589041 0.289969,0.925006 -0.121002,0.235396 -0.357556,0.370222 -0.602832,0.370222 -0.104654,0 -0.210392,-0.02432 -0.310684,-0.07735 -1.108647,-0.583517 -7.990543,-3.969676 -12.026148,-5.078136 -0.630088,0.0221 -0.836119,0.129301 -0.854651,0.141458 0.0065,0.0022 -0.190771,0.314966 -0.207123,1.504101 0.46984,1.540571 1.021438,2.326328 1.919694,3.602768 0.47747,0.675244 1.069403,1.517365 1.773617,2.657872 2.065769,3.346376 2.719837,6.696068 2.74709,6.837527 0.07086,0.371328 -0.167877,0.731605 -0.535247,0.803439 -0.04361,0.0087 -0.08722,0.01327 -0.129723,0.01327 -0.317223,0 -0.600654,-0.22766 -0.662791,-0.555888 -0.0065,-0.03205 -0.639897,-3.249124 -2.566129,-6.371155 -0.681324,-1.10404 -1.237281,-1.892006 -1.726744,-2.587143 -0.909155,-1.287493 -1.569765,-2.232389 -2.105012,-3.970783 -0.721656,-0.947108 -1.067222,-1.081934 -1.097746,-1.091881 0,0.0055 -0.258357,0.03647 -0.877543,0.482947 -2.684953,2.285439 -3.890621,3.546408 -4.135897,5.962253 -0.244184,2.390427 -1.360464,6.949146 -1.967657,7.574658 -0.132994,0.137037 -0.307413,0.205555 -0.48292,0.205555 -0.171149,0 -0.342298,-0.0663 -0.475291,-0.196715 -0.265988,-0.265236 -0.27035,-0.699556 -0.0086,-0.970317 0.263808,-0.419954 1.321219,-4.139868 1.586118,-6.753534 0.306322,-3.004887 1.89898,-4.555404 4.462931,-6.744694 0.18641,-0.811177 0.174418,-1.207923 0.150436,-1.363749 -4.199123,-0.755917 -6.853554,-0.658664 -8.311037,0.319387 -0.836118,0.560307 -2.369911,1.038836 -3.817584,1.398008 0.783792,0.443163 1.480376,1.006786 1.99491,1.763808 1.21548,1.790334 1.249274,4.243754 0.100286,7.295056 -0.952759,2.188186 -2.016712,3.670184 -3.088296,4.669234 0.0654,0.01768 0.129725,0.04421 0.196222,0.05858 2.509445,0.556993 4.639529,2.097564 5.997813,4.336586 1.02689,1.69308 3.137352,2.741862 6.270342,3.118716 3.034881,0.383486 5.283788,-0.0851 6.670415,-1.38143 1.764897,-1.65219 4.271071,-2.48547 6.698757,-2.195921 1.869548,0.219923 3.972379,-0.728291 6.185314,-2.828064 2.147527,-2.013574 3.226741,-3.971889 3.209299,-5.823004 -0.0229,-2.560618 0.893894,-4.867055 2.580302,-6.492721 1.383357,-1.332804 1.958938,-3.578455 1.714751,-6.676176 -0.124272,-1.673188 -0.450216,-3.080036 -0.970201,-4.18739 z"
     id="path22177"
     style="stroke-width:1.09761" /><path
     fill="none"
     d="m 44.747791,44.124918 c 0.08394,0.04642 0.167878,0.09283 0.242006,0.144775 -0.07413,-0.05194 -0.158067,-0.09836 -0.242006,-0.144775 z"
     id="path22179"
     style="stroke-width:1.09761" /><path
     fill="none"
     d="m 44.285582,43.913837 c 0.129723,0.04642 0.251816,0.09837 0.366279,0.155826 -0.114463,-0.05858 -0.237646,-0.108304 -0.366279,-0.155826 z"
     id="path22181"
     style="stroke-width:1.09761" /><path
     fill="none"
     d="m 48.991608,41.641661 c 0.195131,-0.03869 0.393531,-0.07515 0.596295,-0.109411 -0.202764,0.03427 -0.400073,0.07184 -0.596295,0.109411 z"
     id="path22183"
     style="stroke-width:1.09761" /><path
     fill="none"
     d="m 48.054109,41.841691 c 0.220204,-0.05194 0.445857,-0.101669 0.678053,-0.149193 -0.232196,0.04752 -0.45676,0.09837 -0.678053,0.149193 z"
     id="path22185"
     style="stroke-width:1.09761" /><path
     fill="none"
     d="m 43.839725,43.779009 c 0.150436,0.03646 0.29433,0.07958 0.431685,0.128197 -0.136265,-0.04863 -0.281249,-0.09062 -0.431685,-0.128197 z"
     id="path22187"
     style="stroke-width:1.09761" /><path
     fill="none"
     d="m 46.415667,42.288171 c 0.456757,-0.144776 0.963661,-0.286233 1.510899,-0.417746 -0.548327,0.132618 -1.055231,0.27297 -1.510899,0.417746 z"
     id="path22189"
     style="stroke-width:1.09761" /><path
     fill="#000000"
     d="M 99.681963,37.164722 C 99.548969,35.360023 99.188142,33.820557 98.609289,32.588321 98.278985,31.888765 98.04134,31.115164 97.899624,30.290727 97.681601,29.0176 97.155075,27.621804 96.33749,26.145331 c -1.673328,-3.068985 -3.666058,-4.83169 -5.924776,-5.239488 -2.196582,-0.39564 -4.104284,-1.602458 -5.234733,-3.308801 -1.184956,-1.788123 -3.390258,-2.984993 -6.554863,-3.555248 -3.138442,-0.584621 -5.602102,-0.255288 -7.312491,0.974736 -1.652615,1.186925 -3.567948,1.693083 -5.38081,1.426743 -2.157337,-0.320494 -4.610096,0.640983 -7.134803,2.877794 -1.541422,1.350485 -2.614096,2.717549 -3.213659,4.085718 -1.479286,-0.747079 -2.914968,-1.132773 -4.288513,-1.132773 -4.884806,0 -8.090833,4.837216 -9.102462,9.631331 -0.185319,0.877483 -0.300872,1.788123 -0.333576,2.675553 -0.240914,0.20224 -0.48292,0.403376 -0.742367,0.606723 1.021438,-2.407003 1.673327,-5.368789 1.558865,-8.036607 -0.213663,-4.97978 -2.921509,-7.722745 -7.624266,-7.722745 -1.085754,0 -2.293603,0.149194 -3.613731,0.450898 -5.507263,1.554937 -6.276883,4.747699 -5.952029,7.152492 0.623546,4.627237 5.757989,9.925299 9.038144,12.01402 -0.20603,0.07847 -0.412063,0.15251 -0.619185,0.222133 -3.179866,-2.456733 -8.202026,-5.102449 -11.857182,-5.102449 -1.726742,0 -3.094836,0.542626 -4.06504,1.612406 -0.987643,1.088566 -1.532702,2.713128 -1.632993,4.825058 -1.605738,-0.176824 -3.454574,0.34149 -5.495269,1.559359 -2.411335,1.421215 -3.860098,3.067879 -4.3070451,4.894682 -0.4218746,1.72513 -1.3855364,3.144134 -2.7154769,3.997307 -1.6580651,1.062043 -2.7089361,3.105454 -3.12645018,6.06724 -0.42405478,2.893267 -0.0218023,5.119027 1.19803648,6.616497 1.145711,1.406848 1.6264518,3.306592 1.3528328,5.348897 -0.267078,2.001415 0.6344472,4.1465 2.677323,6.37447 1.0443302,1.152666 2.1028319,2.005837 3.144982,2.536307 0.5952028,0.302808 1.1587929,0.738236 1.7202019,1.329488 0.975653,1.027783 2.432047,1.85001 4.327758,2.444578 1.293965,0.413324 2.484371,0.623301 3.537422,0.623301 1.105376,0 2.087571,-0.229871 2.920419,-0.682979 1.690769,-0.91948 3.729283,-1.094092 5.573759,-0.479632 0.518894,0.172402 1.070493,0.260814 1.640623,0.260814 1.537062,0 3.257265,-0.639879 5.10937,-1.899743 2.473471,-1.662136 3.841565,-3.511043 4.068308,-5.493671 0.209304,-1.831224 1.235102,-3.541986 2.744911,-4.57419 1.459664,-0.99905 2.400434,-2.776122 2.811407,-5.278168 1.305959,-1.036625 1.861917,-2.544043 2.071219,-3.902264 0.48074,-3.122032 -0.602834,-7.186753 -2.049416,-10.410457 0.269257,-0.186769 0.541786,-0.361381 0.817585,-0.526049 2.204214,3.746439 6.23764,7.615548 10.236181,7.615548 1.003997,0 2.206393,-0.256392 3.443675,-1.077515 0.324853,0.133722 0.651888,0.249763 0.985463,0.323808 2.218385,0.492893 4.102103,1.855535 5.30341,3.835954 1.210028,1.99589 3.58975,3.219284 7.067218,3.637029 0.727107,0.09173 1.424779,0.138142 2.072308,0.138142 2.348108,0 4.188223,-0.607828 5.468017,-1.805805 1.534882,-1.436686 3.709663,-2.162766 5.834296,-1.910794 0.220204,0.02542 0.444768,0.03979 0.672601,0.03979 2.026524,0 4.174051,-1.062043 6.381535,-3.155185 2.379721,-2.232391 3.576667,-4.466992 3.557044,-6.641916 -0.0207,-2.251178 0.776164,-4.269172 2.242368,-5.68265 1.629722,-1.57262 2.319765,-4.117768 2.048327,-7.560291 z m -24.108987,0.114935 c 0.02834,0.09836 0.0665,0.188979 0.112282,0.274075 0.117732,0.209979 0.303052,0.397853 0.56686,0.572465 -0.09703,0.254183 -0.138445,0.487369 -0.123183,0.708398 0.01309,0.149195 0.05233,0.301704 0.119912,0.45974 -0.261628,0.08289 -0.469839,0.197821 -0.631176,0.34812 -0.165697,0.160247 -0.365188,0.426586 -0.498184,1.005681 -0.451306,-0.387906 -0.771801,-0.484053 -1.007265,-0.516101 -0.02399,-0.0022 -0.115551,-0.0077 -0.140625,-0.0077 -0.130814,0 -0.269258,0.01989 -0.417513,0.05968 0.04142,-0.61446 -0.05451,-0.965897 -0.168969,-1.196871 0.118824,-0.267446 0.173329,-0.512787 0.165698,-0.748182 -0.0098,-0.181244 -0.05995,-0.368014 -0.151526,-0.566939 0.371729,-0.05194 0.662789,-0.1503 0.890624,-0.300599 0.08502,0.03427 0.168967,0.05968 0.255087,0.07625 0.03706,0.0066 0.183139,0.0188 0.221293,0.0188 0.237645,-10e-4 0.504723,-0.06188 0.806685,-0.186769 z m -3.963658,0.248658 c 0.499272,0.514997 0.58212,0.760339 0.587571,0.760339 0,10e-4 -0.0032,0.0087 -0.0032,0.0099 -4.488003,-0.783546 -7.30486,-0.612249 -9.057766,0.564729 -1.010537,0.678559 -3.578847,1.294123 -5.374268,1.648875 -1.345201,-0.335963 -2.756902,-0.454214 -3.996361,-0.454214 -0.864462,0 -1.757266,0.05305 -2.64353,0.148089 -0.02616,-0.237607 -0.03925,-0.491789 -0.05451,-0.741552 3.622452,-1.213448 7.594832,-3.360743 9.167868,-6.225275 1.024707,0.42327 2.115913,0.822226 2.853921,0.950423 0.233284,0.03979 0.485101,0.07405 0.75763,0.110514 1.5992,0.213294 4.013804,0.539311 7.76271,3.228127 z m -27.085,22.647716 c -0.643169,4.174129 -4.301596,5.267116 -10.59156,3.261281 -5.378628,-1.688661 -7.879352,-4.06251 -7.432405,-7.05524 0.571221,-3.824905 5.735096,-7.879676 9.499264,-9.723058 -0.195131,0.447584 -0.347747,0.870854 -0.419694,1.218974 -0.171148,0.823333 -0.04797,1.477578 0.365188,1.943948 0.240915,0.27297 0.587573,0.428796 0.95058,0.428796 0.294331,0 0.571221,-0.106097 0.781612,-0.298389 0.236557,-0.215502 0.38372,-0.50284 0.410974,-0.807859 0.0229,-0.253079 -0.03488,-0.500631 -0.165698,-0.715028 0.05451,-0.492895 0.732558,-1.819069 1.466205,-2.772807 0.0032,10e-4 0.01198,0.0022 0.01418,0.0032 1.615549,0.523839 5.959659,9.072127 5.121361,14.516067 z m -21.239805,1.733971 c -0.354286,0.01658 -0.635536,0.09615 -0.86228,0.246446 -0.104655,0.07184 -0.200582,0.163563 -0.288881,0.276287 -0.276889,-0.356962 -0.512354,-0.526049 -0.704214,-0.615566 -0.07305,-0.242026 -0.176599,-0.435426 -0.315044,-0.58904 -0.09375,-0.101671 -0.209302,-0.190086 -0.347747,-0.265235 0.17224,-0.213294 0.289972,-0.417746 0.354288,-0.618881 0.0654,-0.02432 0.126454,-0.05417 0.18423,-0.08842 0.215843,-0.131514 0.404431,-0.343701 0.57122,-0.64872 0.05123,0.02873 0.104654,0.05416 0.158067,0.07515 0.189679,0.06963 0.409883,0.09173 0.66279,0.06852 0.07849,0.207767 0.180959,0.374643 0.311773,0.511682 0.07958,0.07957 0.173329,0.1503 0.281249,0.212188 -0.105741,0.18898 -0.167877,0.372433 -0.18968,0.554782 -0.01744,0.194506 -0.0044,0.467476 0.184229,0.880799 z M 22.046144,35.272716 c 3.836114,0 8.856095,2.961785 11.667501,5.205229 -0.838298,0.04532 -1.622092,0.15914 -2.264169,0.334858 -1.108647,0.30281 -1.792148,0.783547 -2.08648,1.473156 -0.267079,0.622197 0.01418,1.348277 0.626816,1.619037 0.154797,0.06741 0.317224,0.101669 0.484011,0.101669 0.453488,0 0.866641,-0.257498 1.045421,-0.60783 0.09156,-0.05636 0.358648,-0.190083 0.961481,-0.308334 0.590843,-0.114934 1.289606,-0.176822 2.017803,-0.176822 0.455669,0 0.880814,0.02432 1.272165,0.06411 -0.814317,1.57041 -7.706023,6.624233 -13.066121,6.624233 -3.428411,0 -5.183498,-2.241231 -5.217291,-6.704908 -0.249636,-3.001571 0.18532,-5.144445 1.296147,-6.370051 0.755451,-0.833279 1.853197,-1.254338 3.262716,-1.254339 z M 31.702382,20.95226 c 1.216569,-0.276286 2.342658,-0.416639 3.348834,-0.416639 5.164966,0 6.404428,3.624872 6.535241,6.665123 0.178779,4.164183 -1.639533,8.679801 -3.367366,10.650273 -0.19404,-0.280707 -0.334666,-0.523839 -0.329216,-0.643195 0.144987,-0.660875 -0.268167,-1.318436 -0.922237,-1.466526 -0.648617,-0.139248 -1.300507,0.280707 -1.443311,0.932741 -0.150436,0.684085 -0.0054,1.301861 0.303052,1.90969 -2.595566,-1.312911 -8.620631,-6.932568 -9.263798,-11.700158 -0.384812,-2.864534 1.352831,-4.862635 5.138801,-5.931309 z m 27.887327,11.106697 c -1.69513,4.545458 -10.721283,7.429882 -14.078838,7.429882 -0.666061,0 -0.849199,-0.118249 -0.934229,-0.166875 -0.37936,-0.172402 -0.697675,-0.497315 -0.94949,-0.939374 0.214753,-0.225447 0.439316,-0.443161 0.682412,-0.636563 0.513444,-0.410007 0.828487,-0.50063 0.8492,-0.512785 0.614824,0.224343 1.32885,-0.120461 1.549053,-0.741552 0.224564,-0.636564 -0.102476,-1.34054 -0.732557,-1.57041 -0.875362,-0.316071 -1.919692,-0.03205 -3.017438,0.796808 -0.06324,-1.067568 0.02944,-2.290962 0.300871,-3.578455 0.918967,-4.358688 3.759807,-8.757161 8.03633,-8.757161 1.755084,0 3.658426,0.719448 5.609732,2.099773 2.55632,2.284332 3.460025,4.49683 2.684954,6.576712 z M 42.480351,42.508093 c -0.448037,0 -0.914606,0.03757 -1.408429,0.112726 -0.05014,0 -0.107921,-0.03869 -0.117732,-0.103879 -0.0098,-0.06741 0.03596,-0.130407 0.101377,-0.140353 2.198763,-0.337068 4.132627,0.108304 5.178048,1.196871 l -0.0022,0.173507 c -0.02834,0.02873 -0.06214,0.03427 -0.08394,0.03427 l -0.08722,-0.03757 c -0.765269,-0.796811 -2.036343,-1.235554 -3.579947,-1.235554 z m -14.825566,7.141442 c 1.869548,-0.711713 3.475288,-1.60688 4.332118,-2.129613 0.325944,-0.198926 0.693313,-0.435427 1.074854,-0.69624 0.04469,0.06741 0.08939,0.133722 0.135174,0.201135 -2.578123,1.640033 -5.223832,3.925472 -6.685677,6.366735 0.151528,-0.49621 0.293242,-0.984683 0.427326,-1.45658 0.238734,-0.836595 0.463299,-1.595827 0.716205,-2.285437 z m 9.206024,-0.879695 c 0.0229,0.08289 0.06324,0.159141 0.119911,0.223238 0.03052,0.03427 0.0032,0.104993 -0.03271,0.138144 -0.05559,0.05083 -0.148255,0.0032 -0.192951,-0.04641 -0.167877,-0.190084 -0.204941,-0.519417 -0.110102,-0.978053 0.275799,-1.328381 1.902251,-4.060299 3.280157,-4.679179 0.03705,0 0.08831,0.01879 0.112282,0.07183 0.0229,0.05194 -0.0086,0.138143 -0.06104,0.162458 -1.447673,0.660874 -3.389168,4.091242 -3.115548,5.107975 z m -0.27144,-11.855986 c 0.01418,-0.06301 0.06649,-0.09283 0.135174,-0.09283 0.0032,0 0.0065,0 0.0098,0 0.0654,0.01438 0.106831,0.08068 0.09156,0.14588 -0.163517,0.741552 0.473111,1.537255 1.357195,2.6424 0.481831,0.601198 1.026888,1.283072 1.541422,2.086512 0.03052,0.04863 0.01198,0.138142 -0.03597,0.170191 -0.0338,0.0221 -0.08502,0.09283 -0.167877,-0.03647 -0.507994,-0.793495 -1.04978,-1.470947 -1.529431,-2.07104 -1.015988,-1.268706 -1.581758,-2.026835 -1.401889,-2.844641 z m 4.26017,4.386317 c -0.04033,0.0077 -0.07413,0.02985 -0.113372,0.04199 -0.03052,-0.08288 -0.04797,-0.170192 -0.09702,-0.246447 -0.0065,-0.0099 -0.01198,-0.01657 -0.01853,-0.02652 0.127543,-1.222288 1.405158,-3.222599 2.863732,-4.384105 0.829577,-0.659771 1.589388,-0.916165 2.123544,-0.723869 0.06324,0.02322 0.09593,0.09394 0.07413,0.156929 -0.0218,0.06078 -0.0763,0.08399 -0.149346,0.07625 -0.460029,-0.173508 -1.133721,0.07183 -1.89789,0.682979 -1.482558,1.181398 -2.823399,3.328694 -2.785245,4.422785 z m -2.242367,1.131668 c 0.03925,0.06078 0.08831,0.11162 0.135175,0.162456 -0.0032,0.01214 0,0.02652 -0.0065,0.03536 l -0.168969,0.02542 c -0.835028,-0.624407 -2.64898,-0.847645 -4.069399,-0.847645 -0.796875,0 -1.566496,0.06852 -2.224925,0.197821 -1.189316,0.233185 -1.550144,0.575779 -1.691859,0.823331 -0.0229,0.05305 -0.07086,0.07184 -0.107921,0.07184 l -0.04906,-0.01104 c -0.05995,-0.02652 -0.08831,-0.102775 -0.06213,-0.164667 0.152616,-0.354752 0.613735,-0.639878 1.370275,-0.845435 0.75436,-0.206663 1.742004,-0.319387 2.783063,-0.319387 1.711481,0 3.259445,0.313861 4.046508,0.80565 0.01526,0.02322 0.03161,0.04311 0.04578,0.0663 z m -15.9026,8.275317 c 1.107557,0 2.243457,-0.216608 3.341204,-0.526048 -0.138445,0.447584 -0.272529,0.902903 -0.406614,1.37259 -0.596293,2.089827 -1.276523,4.44931 -2.858282,6.7889 -0.127543,0.03204 -0.221293,0.05194 -0.245276,0.06521 -10e-4,-0.001 -0.104654,-0.07515 -0.28343,-0.363591 -0.742367,-2.072145 -1.305958,-5.031722 -1.665694,-7.631019 0.700943,0.212186 1.42587,0.293966 2.118092,0.293966 z m 1.69186,8.680907 c -0.275801,-0.03536 -0.403343,-0.07846 -0.413155,-0.08399 -0.01089,-0.0221 -0.03816,-0.09062 -0.0654,-0.21661 0.603924,-0.896271 1.089027,-1.788123 1.482557,-2.662291 -0.08394,0.740447 -0.02944,1.557149 0.283431,2.400372 -0.462209,0.18677 -0.891715,0.374644 -1.287426,0.562519 z M 46.004693,41.25044 c -0.04577,-0.22324 -0.08939,-0.447584 -0.130813,-0.674139 1.075943,-0.04863 2.530157,-0.312755 4.126085,-0.776915 0.01418,0.181243 0.0218,0.369118 0.04033,0.544836 -1.467295,0.213293 -2.870272,0.531574 -4.035606,0.906218 z m -5.896432,27.361156 c -1.770348,1.211237 -2.972744,3.215969 -3.218021,5.363262 -0.1875,1.644455 -1.395346,3.225916 -3.590838,4.701284 -1.671147,1.137194 -3.186408,1.714078 -4.504357,1.714078 -0.453488,0 -0.890624,-0.06963 -1.299417,-0.205557 -2.126814,-0.708397 -4.480372,-0.506157 -6.429498,0.555887 -1.358283,0.739343 -3.257264,0.731606 -5.617364,-0.0221 C 13.728565,80.179137 12.428057,79.454163 11.582127,78.562313 10.942231,77.888173 10.264179,77.366547 9.5654149,77.011796 8.6420873,76.542107 7.6893267,75.768507 6.7322056,74.711989 4.9204342,72.735994 4.1137491,70.893718 4.3350425,69.236001 4.6489956,66.886465 4.0832259,64.683913 2.7423843,63.036143 1.7274871,61.791752 1.404813,59.856644 1.7830829,57.282763 c 0.3706392,-2.631348 1.2547225,-4.411733 2.6304479,-5.29364 1.5686757,-1.005681 2.7023953,-2.662291 3.1918571,-4.665916 0.3728193,-1.523994 1.6504342,-2.939684 3.7990511,-4.206178 1.61228,-0.963687 3.065404,-1.45216 4.317946,-1.45216 0.208212,0 0.413154,0.01327 0.612645,0.04089 0.0086,0.398957 0.02944,0.811177 0.0654,1.239972 0.02725,3.744228 1.202398,5.753381 2.740551,6.78448 0.366278,2.936368 1.008355,6.373364 1.785608,8.617914 -0.162427,0.514996 -0.293241,0.699554 -0.288881,0.71171 -0.0065,10e-4 -0.0229,0.0032 -0.03706,0.0055 l -1.108642,-0.502798 c -2.851741,-1.285282 -4.032335,-1.816856 -5.337203,-3.871319 -1.727833,-2.72197 -4.5021759,-3.456891 -4.6188182,-3.48673 -0.359738,-0.09173 -0.728197,0.129302 -0.8197667,0.496209 -0.09266,0.366909 0.1264534,0.739343 0.4872815,0.834386 0.023982,0.0066 2.3840814,0.646508 3.8143134,2.898792 1.522891,2.399267 2.994546,3.062353 5.924775,4.383001 l 0.729287,0.330438 c -0.106831,0.12046 -0.284519,0.290652 -0.56577,0.510577 -4.16969,0.404482 -6.078481,1.652189 -7.339745,2.486574 -0.185319,0.122671 -0.356467,0.235395 -0.518894,0.334858 -0.964753,0.585727 -3.6420751,1.368167 -4.5926556,1.620142 -0.3619181,0.09504 -0.577761,0.470791 -0.482921,0.837698 0.079578,0.308336 0.3542874,0.512788 0.6540692,0.512788 0.056685,0 0.1144621,-0.0066 0.1722381,-0.02322 0.1471656,-0.03869 3.6180913,-0.963686 4.9458523,-1.770441 0.176599,-0.107198 0.361918,-0.22987 0.562499,-0.362487 1.164243,-0.770285 2.92369,-1.92958 6.866635,-2.287648 0.325945,0.03094 0.525436,0.07515 0.632267,0.106096 -3.32049,2.027939 -5.054863,3.754175 -5.553046,5.545614 -0.37282,1.337223 -2.56068,4.14208 -3.371727,5.110184 -0.242005,0.288443 -0.207122,0.721661 0.0774,0.967003 0.127543,0.109409 0.28343,0.163562 0.438226,0.163562 0.191861,0 0.382631,-0.08178 0.516715,-0.242027 0.318314,-0.379066 3.124269,-3.758596 3.643164,-5.626289 0.405524,-1.455474 2.06686,-3.015938 5.194399,-4.894682 0.106832,0.108305 0.307413,0.363592 0.585392,0.906218 -0.467659,2.949627 -0.617005,4.939993 0.840479,7.093919 1.287426,1.904162 2.638078,4.930048 2.708936,5.367685 -0.02507,0.377958 0.257266,0.70508 0.630086,0.730499 0.01526,0.001 0.03052,0.001 0.04578,0.001 0.353198,0 0.6508,-0.27739 0.674781,-0.640983 0.05233,-0.795704 -1.736553,-4.451521 -2.94331,-6.236328 -1.168603,-1.728445 -1.080304,-3.249124 -0.591933,-6.289375 0.138445,-0.568044 0.268168,-0.754814 0.264899,-0.768075 0.05995,-0.01658 0.606103,-0.02873 1.269983,0.110516 1.314678,0.842119 2.282701,1.101827 3.595199,1.437791 0.709666,0.182348 1.513081,0.38901 2.575943,0.733816 2.993456,0.972527 5.194399,2.745177 5.216201,2.76286 0.125365,0.101668 0.274709,0.151405 0.424055,0.151405 0.198401,0 0.394621,-0.0873 0.527615,-0.256394 0.234376,-0.295073 0.187501,-0.727184 -0.103564,-0.96479 -0.09703,-0.07847 -2.409155,-1.947263 -5.652247,-3.000467 -1.102106,-0.358066 -1.964387,-0.579095 -2.656611,-0.757024 -1.293967,-0.331542 -2.090841,-0.542625 -3.246363,-1.290807 -0.0044,-0.0045 -0.0065,-0.01104 -0.01198,-0.01438 -0.5734,-0.710607 -0.644258,-1.017838 -0.65734,-1.020047 0.01309,-0.03316 0.104653,-0.206662 0.445857,-0.529365 0.430595,-0.206662 0.915696,-0.415534 1.435682,-0.622195 1.089024,1.589196 3.253992,3.18171 7.280878,4.447099 2.149708,0.685189 4.046508,1.033311 5.638076,1.033311 1.224199,0 2.216204,-0.204452 3.02725,-0.542627 -0.414244,1.709657 -1.138081,2.928632 -2.166059,3.632608 z m 14.49744,-12.690371 c -3.711841,0 -7.543596,-3.875738 -9.534146,-7.477404 -0.160248,-0.290652 -0.301961,-0.569149 -0.430595,-0.838802 -0.0447,-0.09394 -0.07958,-0.181245 -0.121003,-0.272972 -0.0774,-0.171298 -0.152616,-0.341489 -0.216934,-0.503946 -0.04142,-0.104993 -0.07521,-0.203346 -0.112281,-0.303913 -0.05014,-0.138144 -0.0992,-0.275181 -0.139535,-0.40559 -0.03271,-0.104982 -0.05995,-0.205556 -0.08721,-0.305019 -0.03052,-0.11383 -0.05887,-0.224344 -0.08285,-0.331543 -0.0229,-0.102774 -0.04252,-0.201137 -0.05778,-0.298389 -0.01526,-0.09172 -0.02725,-0.179034 -0.03705,-0.264129 -0.01089,-0.09725 -0.0218,-0.1934 -0.02616,-0.284024 -0.0032,-0.06963 -0.0022,-0.134825 -10e-4,-0.20003 10e-4,-0.09282 10e-4,-0.184558 0.0098,-0.268549 0.0044,-0.0464 0.01418,-0.08619 0.0207,-0.129302 0.01418,-0.08953 0.02725,-0.179034 0.05014,-0.256394 v 0 0 c 0.150435,0.03646 0.295421,0.07958 0.431684,0.128197 0.0054,0.0022 0.0098,0.0045 0.01418,0.0055 0.128633,0.04752 0.252905,0.09836 0.366278,0.155826 0.0338,0.01768 0.06324,0.03757 0.09593,0.05526 0.08394,0.04641 0.168969,0.09282 0.242006,0.144775 0.106832,0.07625 0.204943,0.15693 0.28997,0.245342 0.228925,0.239815 0.537428,0.371327 0.867732,0.371327 0.318314,0 0.618095,-0.123775 0.84484,-0.34812 0.232193,-0.229869 0.361918,-0.535995 0.366278,-0.864222 0.0044,-0.328228 -0.117733,-0.637668 -0.343386,-0.871959 -0.180959,-0.187874 -0.383721,-0.356962 -0.600653,-0.513891 0,0 0,0 0,0 0.456757,-0.144775 0.962571,-0.286233 1.510898,-0.417745 0.04142,-0.0099 0.08611,-0.0188 0.128634,-0.02873 0.220204,-0.05194 0.445857,-0.101669 0.678053,-0.149194 0.08502,-0.01768 0.173328,-0.03427 0.259447,-0.05083 0.196221,-0.03869 0.393531,-0.07515 0.596292,-0.10941 0.106832,-0.01768 0.213664,-0.03536 0.322675,-0.05304 0.09812,-0.01547 0.191859,-0.03316 0.29106,-0.04754 0,10e-4 0,0.0032 10e-4,0.0045 0.09593,-0.01438 0.190771,-0.02873 0.287791,-0.04199 0.117731,-0.01547 0.235464,-0.03205 0.355378,-0.04641 0.143894,-0.01767 0.29106,-0.03205 0.437135,-0.04752 0,-10e-4 0,-10e-4 0,-10e-4 0.05342,-0.0066 0.106831,-0.01104 0.160247,-0.01547 0.118824,-0.01215 0.236556,-0.02432 0.356468,-0.03427 0.219114,-0.01879 0.440407,-0.03204 0.66279,-0.04421 0.104654,-0.0055 0.208212,-0.01438 0.312862,-0.0188 0.328125,-0.01438 0.658431,-0.02322 0.989826,-0.02322 2.55959,0 5.919325,0.457529 7.397521,2.633558 0.999636,1.473155 0.993094,3.583981 -0.0098,6.248484 -1.6984,3.897843 -3.901522,5.874945 -6.547233,5.874945 z M 96.880366,43.925993 c -1.686407,1.626772 -2.603195,3.933208 -2.580302,6.492722 0.01744,1.850011 -1.062863,3.808326 -3.209299,5.823003 -2.212934,2.099774 -4.315766,3.047988 -6.185312,2.828064 -2.427688,-0.288443 -4.932772,0.544835 -6.698758,2.19592 -1.386627,1.296335 -3.635535,1.76602 -6.670415,1.381431 -3.132991,-0.376855 -5.243454,-1.425637 -6.270342,-3.118716 -1.358284,-2.239024 -3.488369,-3.778489 -5.997814,-4.336586 -0.0654,-0.01438 -0.130814,-0.04089 -0.19622,-0.05858 1.071583,-0.999049 2.135536,-2.481048 3.088296,-4.669232 1.150071,-3.051303 1.115187,-5.504724 -0.100287,-7.295056 -0.513444,-0.757025 -1.211117,-1.320648 -1.99491,-1.76381 1.447673,-0.359172 2.980374,-0.836594 3.817583,-1.398006 1.457483,-0.978054 4.111914,-1.074202 8.311038,-0.319388 0.02399,0.155825 0.03596,0.552572 -0.150436,1.363748 -2.563951,2.189291 -4.156609,3.740912 -4.462933,6.744693 -0.264897,2.61477 -1.322309,6.333582 -1.586116,6.753536 -0.261628,0.27076 -0.257268,0.705082 0.0086,0.970317 0.131904,0.131512 0.303053,0.196714 0.475291,0.196714 0.175508,0 0.349927,-0.06852 0.482921,-0.205556 0.607195,-0.625512 1.723471,-5.184232 1.967658,-7.574657 0.245276,-2.415845 1.450943,-3.676813 4.135897,-5.962253 0.619185,-0.445372 0.877543,-0.477422 0.877543,-0.482948 0.02944,0.0099 0.376089,0.144775 1.097746,1.091884 0.534155,1.738391 1.195855,2.683289 2.105011,3.970782 0.489462,0.695135 1.045421,1.483103 1.726742,2.587142 1.926235,3.122033 2.559592,6.339107 2.566132,6.371156 0.06323,0.328227 0.345567,0.555886 0.662789,0.555886 0.04252,0 0.08611,-0.0045 0.129725,-0.01327 0.367368,-0.07183 0.607194,-0.432111 0.535246,-0.803439 -0.02616,-0.141459 -0.681323,-3.491149 -2.747091,-6.837526 -0.704214,-1.140509 -1.296145,-1.981523 -1.773617,-2.65787 -0.899344,-1.275337 -1.449853,-2.062201 -1.919692,-3.602772 0.01635,-1.189134 0.213663,-1.500785 0.207122,-1.504099 0.01962,-0.01217 0.224564,-0.118251 0.85465,-0.14146 4.035606,1.108459 10.917503,4.494622 12.026151,5.078138 0.100286,0.05194 0.206032,0.07735 0.310682,0.07735 0.245277,0 0.480741,-0.134827 0.602833,-0.370223 0.171149,-0.335963 0.04142,-0.750392 -0.28997,-0.925006 -1.187135,-0.624406 -7.993814,-3.979623 -12.203839,-5.157707 -0.281249,-0.312756 -0.349927,-0.475212 -0.355377,-0.476317 0.0032,-0.01989 0.02399,-0.119356 0.131904,-0.317176 3.331391,-0.891852 5.767799,-2.493204 7.919687,-3.915527 1.378994,-0.911742 2.56831,-1.698604 3.756536,-2.134031 0.351017,-0.129302 0.533066,-0.522733 0.406613,-0.878589 -0.127543,-0.356963 -0.518895,-0.54152 -0.866642,-0.41222 -1.336481,0.489579 -2.647889,1.357117 -4.036696,2.275491 -2.072309,1.370379 -4.421507,2.915371 -7.563219,3.749754 -0.257267,-0.127091 -0.349926,-0.213292 -0.354287,-0.213292 -0.0076,-0.02432 -0.04142,-0.18456 0.01635,-0.57578 1.771436,-4.814008 7.083568,-12.50802 7.878262,-13.049541 0.343385,-0.149194 0.503633,-0.552573 0.356466,-0.900691 -0.147165,-0.349227 -0.545056,-0.510578 -0.888443,-0.361384 -1.215479,0.52605 -6.71729,8.836733 -8.549772,13.666211 -0.634447,0.396747 -0.900436,0.42327 -0.885173,0.428795 -0.0032,-10e-4 -0.04142,-0.02322 -0.09703,-0.06078 l -0.613664,-1.293018 c -1.569767,-3.287805 -2.219476,-4.648237 -1.854287,-7.442041 0.476381,-3.627082 -1.398617,-6.329159 -1.478196,-6.442988 -0.215842,-0.306126 -0.634447,-0.37796 -0.942949,-0.158037 -0.303052,0.21882 -0.375,0.647615 -0.159158,0.95595 0.01745,0.02322 1.641714,2.391532 1.239462,5.463832 -0.419694,3.202708 0.38154,4.880316 1.977469,8.221166 l 0.450217,0.948213 c -0.132994,0.02652 -0.327036,0.05083 -0.633358,0.05083 -0.128632,0 -0.274708,-0.0087 -0.418603,-0.01658 -3.949486,-2.800434 -6.53088,-3.157396 -8.244541,-3.386161 -0.253997,-0.03427 -0.489461,-0.06521 -0.706395,-0.102776 -0.613734,-0.106097 -1.598108,-0.467475 -2.57376,-0.870853 0.660609,-2.401478 -0.373911,-4.860424 -3.165696,-7.351418 -0.345566,-0.245342 -0.687863,-0.46416 -1.029068,-0.670821 0.522163,-1.244393 1.507628,-2.510889 2.964024,-3.786224 1.99927,-1.771547 3.873179,-2.670028 5.569397,-2.670028 0.236555,0 0.466569,0.01768 0.692223,0.05083 2.091931,0.310545 4.288514,-0.267445 6.167871,-1.61793 1.460754,-1.049888 3.655156,-1.317333 6.487275,-0.789074 2.864823,0.517209 4.831391,1.554938 5.844107,3.084457 1.295058,1.953895 3.463296,3.33201 5.947669,3.779594 1.919691,0.34591 3.656246,1.922949 5.162785,4.689124 0.75872,1.370379 1.243821,2.647926 1.441132,3.797275 0.158066,0.923901 0.427326,1.792544 0.799055,2.583828 0.521075,1.106248 0.845929,2.514203 0.970202,4.185179 0.244187,3.098824 -0.331395,5.345582 -1.714751,6.678386 z"
     id="path22191"
     style="stroke-width:1.09761" /><path
     style="fill:#008000;stroke:#000000;stroke-width:0.870562;stroke-linecap:round;stroke-linejoin:round;paint-order:fill markers stroke"
     d="m 15.70175,41.445268 c -2.689357,0.406354 -5.350481,1.728769 -7.1483283,3.826995 -1.3864183,1.666592 -1.3944164,4.144975 -3.1396576,5.56707 -1.4938235,1.245379 -3.0670528,2.654981 -3.4196467,4.692921 -0.4714736,2.01261 -0.7614578,4.234679 -0.1050381,6.234063 0.8660916,1.814003 2.3282515,3.454561 2.2466657,5.603704 0.1050282,1.879696 -0.1521934,3.940192 1.0415989,5.546867 1.3066496,2.127794 3.2860049,3.687515 5.3589671,4.988071 1.655805,1.566016 3.638781,2.805779 5.883737,3.260983 2.00175,0.617271 4.09701,0.09069 5.944017,-0.761127 1.951112,-0.783806 4.023655,-0.331258 5.994263,0.10169 2.77403,0.155542 5.256471,-1.591519 7.161836,-3.463368 1.84576,-1.827747 1.373889,-4.823519 3.154183,-6.691506 1.322679,-1.634148 3.476913,-2.952508 3.680044,-5.258911 -0.54251,-0.415778 -1.306486,0.254711 -1.951477,0.130797 -4.339682,0.267854 -8.787369,-1.193567 -12.339437,-3.68901 -0.744848,-0.427842 -1.171608,-1.343157 -1.918716,-1.671249 -0.679656,0.31331 -2.191342,0.883295 -1.565777,1.911271 1.187919,1.597486 3.400289,1.612239 5.101063,2.300128 2.403693,0.848315 5.019203,1.663336 6.894551,3.509016 0.331287,0.738167 -0.664085,0.776796 -1.002422,0.344113 -3.208339,-2.50252 -7.380841,-2.880201 -10.970224,-4.558361 -0.653395,-0.312601 -1.841942,-0.403033 -1.84205,0.632755 -0.456884,2.387584 -0.588707,5.104286 0.989586,7.125326 0.914166,1.745319 2.033687,3.466493 2.469575,5.410934 0.06724,0.719405 -1.028853,0.480812 -0.990263,-0.11128 -0.811029,-2.639443 -2.611513,-4.827063 -3.616213,-7.348913 -0.358569,-1.732139 0.0152,-3.469706 -0.02601,-5.206522 -0.181519,-0.539179 -0.742504,-1.275096 -1.259276,-0.573606 -2.098539,1.31827 -4.263562,2.935639 -5.075767,5.412392 -1.003997,1.772487 -2.046689,3.640269 -3.601015,4.968556 -0.848032,-0.105398 -0.289753,-0.984299 0.04593,-1.347342 1.411353,-1.819613 2.52782,-3.860172 3.632763,-5.887555 1.060883,-1.836617 2.997812,-2.807994 4.492992,-4.188567 0.0441,-0.742899 -1.063836,-0.263018 -1.511061,-0.286591 -2.331301,0.234427 -4.481436,1.223572 -6.44616,2.469385 -1.685344,0.740846 -3.4400876,1.588066 -5.2610214,1.771229 -0.5853571,-0.386082 0.091134,-0.993499 0.5630173,-1.036785 2.2311429,-0.641715 4.3569201,-1.582224 6.3296391,-2.822055 1.807257,-1.022713 3.925312,-1.096543 5.850384,-1.719185 0.643912,-0.569072 -0.552054,-1.064483 -0.948722,-1.272356 -2.1397,-0.939391 -4.216361,-2.265053 -5.458261,-4.317994 -0.909805,-1.464353 -2.530686,-2.101315 -3.9458513,-2.900464 -0.4095345,-0.749292 0.7981726,-0.90334 1.2104713,-0.518736 2.109814,0.924945 3.520401,2.823591 4.935223,4.564748 1.476476,1.414086 3.450589,2.187202 5.315273,2.925578 0.810334,0.07506 0.511278,-1.085907 0.393132,-1.552439 -0.708741,-2.569334 -1.089398,-5.22467 -1.592456,-7.844364 -1.550244,-1.34521 -2.449508,-3.280568 -2.580695,-5.316434 -0.21906,-0.923735 0.09919,-2.171029 -0.579904,-2.905942 -0.12592,-0.04425 -0.261368,-0.05068 -0.39347,-0.04792 z"
     id="path22320" /><path
     style="fill:#008000;stroke:#000000;stroke-width:0.870562;stroke-linecap:round;stroke-linejoin:round;paint-order:fill markers stroke"
     d="m 25.899221,50.082973 c -1.716828,0.339559 -3.520141,0.70773 -5.237717,0.146204 -0.612625,0.29848 0.06563,1.299185 0.01638,1.872928 0.502652,2.092716 0.632656,4.36377 1.653082,6.282336 0.650414,0.437206 0.996648,-0.765646 1.320238,-1.160734 1.191171,-2.150206 1.867723,-4.555408 2.502337,-6.918517 0.0024,-0.127117 -0.137153,-0.23185 -0.25432,-0.222217 z"
     id="path22322" /><path
     style="fill:#008000;stroke:#000000;stroke-width:0.870562;stroke-linecap:round;stroke-linejoin:round;paint-order:fill markers stroke"
     d="m 32.286614,47.272559 c -1.643252,0.738357 -3.300039,1.546588 -4.838167,2.460823 -0.311158,1.040184 -0.802079,2.099337 -0.791669,3.187053 0.665834,0.08973 0.909267,-1.031925 1.460855,-1.375905 1.323324,-1.464156 2.858174,-2.681222 4.38176,-3.913135 0.115125,-0.149274 -0.01898,-0.396754 -0.212779,-0.358836 z"
     id="path22324" /><path
     style="fill:#008000;stroke:#000000;stroke-width:0.870562;stroke-linecap:round;stroke-linejoin:round;paint-order:fill markers stroke"
     d="m 22.074958,59.483199 c -0.550334,0.269336 -1.323518,0.803922 -1.297946,1.487038 0.3766,0.673927 1.026973,1.903736 1.947087,1.275097 0.923182,-0.428683 0.836206,-2.081025 -0.05842,-2.52451 -0.179333,-0.106325 -0.371668,-0.254975 -0.590713,-0.237625 z"
     id="path22328" /><path
     style="fill:#008000;stroke:#000000;stroke-width:0.870562;stroke-linecap:round;stroke-linejoin:round;paint-order:fill markers stroke"
     d="m 75.39983,14.793602 c -2.013155,-0.180487 -3.653066,1.103133 -5.344443,1.972562 -2.682784,1.186451 -5.981964,-0.150148 -8.508605,1.690959 -2.085512,1.402722 -4.23795,3.150051 -5.172345,5.554206 1.86359,1.19429 3.482469,3.011621 4.167409,5.163036 0.194256,0.987655 -0.13595,2.080465 0.211764,3.000788 2.794621,1.127 5.938103,1.091981 8.597921,2.578265 1.299971,0.493858 2.392656,1.900047 3.882016,1.646941 0.493986,-0.531517 -0.429215,-1.258645 -0.517421,-1.826358 -0.93037,-1.911133 -1.855325,-3.907478 -1.639707,-6.098808 -0.01544,-2.242932 0.116897,-4.637529 -1.085203,-6.63262 -0.341031,-0.397922 -0.189448,-1.282588 0.451899,-0.908043 0.887251,0.934272 1.322754,2.296053 1.518729,3.559438 0.224634,2.776146 -0.374329,5.758894 1.052054,8.307065 0.578078,1.13495 0.940895,2.469704 1.751651,3.44285 1.096014,-0.07678 1.39594,-1.518628 1.88302,-2.309381 1.896643,-3.866074 4.139478,-7.638423 6.843243,-10.972969 0.297655,-0.422743 1.300286,-1.26604 1.450607,-0.340686 -1.237752,1.688596 -2.575872,3.32955 -3.65582,5.142866 -1.675523,2.799636 -3.609366,5.550278 -4.557751,8.709234 -0.138952,0.908563 1.02527,0.729732 1.528963,0.481415 3.924187,-1.154725 6.959824,-4.14248 10.702396,-5.673555 0.601888,-0.236971 0.778194,0.854291 0.134084,0.922764 -3.721915,1.913599 -7.001874,4.709695 -11.059052,5.929327 -0.484812,0.04571 -1.05446,0.601472 -0.484324,0.969673 2.13253,1.087618 4.49474,1.672047 6.65198,2.728127 2.003409,0.944215 4.162849,1.715805 5.976227,2.998843 0.111054,0.658905 -0.608666,0.745812 -1.003434,0.415329 -3.851481,-1.806675 -7.694301,-3.775001 -11.828094,-4.82577 -0.820969,-0.220431 -1.228856,0.63996 -1.142923,1.348023 0.203435,2.239836 1.966171,3.915403 3.011688,5.791867 1.52432,2.41076 2.996159,5.046002 3.304106,7.934916 -0.125778,0.600589 -0.981157,0.163136 -0.939264,-0.33966 -0.888546,-3.11604 -2.375522,-6.006756 -4.236986,-8.636677 -1.073587,-1.456658 -1.680563,-3.202874 -2.712074,-4.67238 -0.724742,-0.881193 -1.762635,0.0066 -2.341372,0.594173 -1.469446,1.37566 -3.155218,2.841884 -3.40495,4.988021 -0.577294,2.617523 -0.815734,5.38666 -1.990018,7.816231 -0.344946,0.503564 -1.175588,-0.0016 -0.768701,-0.536198 1.137571,-2.85425 1.298968,-5.972421 2.138925,-8.902722 0.745884,-2.156008 2.977279,-3.308074 4.057306,-5.24624 0.342391,-0.823728 -0.535701,-1.276012 -1.220251,-1.235951 -2.67903,-0.406838 -5.597202,-0.602277 -8.021408,0.871639 -0.873699,0.422492 -1.810252,0.67283 -2.727274,0.972755 -0.345905,0.590292 0.682734,0.986233 0.913932,1.458278 1.949338,1.716528 1.658504,4.631339 0.980399,6.877828 -0.581333,2.152472 -1.930897,3.97992 -3.291893,5.652669 0.634121,0.44703 1.616141,0.548269 2.3348,1.001462 1.976944,0.940476 3.30334,2.754872 4.639573,4.430644 2.724773,2.416052 6.672064,2.527161 10.078247,2.025634 2.167305,-0.585722 3.60031,-2.728117 5.867946,-3.123708 2.330391,-0.570527 4.979059,0.204503 7.050406,-1.370727 2.447695,-1.693846 5.006136,-3.984891 5.469721,-7.114952 0.126242,-2.483228 0.713762,-5.088509 2.529037,-6.888133 2.089068,-2.139026 2.087647,-5.474066 1.650661,-8.256214 -0.41835,-2.241027 -1.418047,-4.313736 -1.887773,-6.544244 -0.885415,-2.713186 -2.469785,-5.370513 -4.897273,-6.914409 -2.100446,-0.875374 -4.468826,-1.178038 -6.142867,-2.897039 -1.269365,-1.300481 -2.27983,-2.959767 -4.063567,-3.615431 -1.934427,-0.879362 -4.088165,-1.089462 -6.185917,-1.094953 z"
     id="path22330" /><path
     style="fill:#008000;stroke:#000000;stroke-width:0.870562;stroke-linecap:round;stroke-linejoin:round;paint-order:fill markers stroke"
     d="m 60.106495,33.086276 c -1.890131,3.165473 -5.372114,4.7126 -8.608728,6.084776 -0.504306,0.07304 -0.789841,0.845381 -0.130707,0.919684 2.060677,0.32554 4.192626,0.103592 6.220211,0.525925 2.692135,-0.163489 5.112762,-1.469548 7.601241,-2.370771 2.31712,-0.462308 4.716556,-0.01661 7.029105,0.09964 -0.05668,-0.810514 -1.098264,-1.296877 -1.720124,-1.763357 -2.33752,-1.585736 -5.095243,-2.230539 -7.819085,-2.736453 -0.883827,-0.150367 -1.706741,-0.643431 -2.571913,-0.759444 z"
     id="path22332" /><path
     style="fill:#008000;stroke:#000000;stroke-width:0.870562;stroke-linecap:round;stroke-linejoin:round;paint-order:fill markers stroke"
     d="m 74.65004,37.21698 c -0.685086,-0.07273 -1.489867,0.293484 -1.326315,1.115537 0.06342,0.645405 -0.326597,2.075139 0.749451,1.970164 0.42631,0.14091 1.033771,0.676544 1.32125,0.01163 0.327094,-0.609671 1.175076,-0.926799 0.942641,-1.777053 0.0098,-0.970618 -0.803593,-1.410138 -1.687027,-1.32029 z"
     id="path22334" /><path
     style="fill:#008000;stroke:#000000;stroke-width:0.435047;stroke-linecap:round;stroke-linejoin:round;paint-order:fill markers stroke"
     d="m 25.112654,56.595894 c -0.39898,0.871115 -0.972606,1.653842 -1.376069,2.516138 -0.05519,0.521571 0.680525,0.52672 1.001038,0.337939 0.367444,-0.212412 0.933167,-0.262023 1.120198,-0.66424 -0.205019,-0.705541 -0.274374,-1.451306 -0.388715,-2.165597 -0.04426,-0.161999 -0.271464,-0.137556 -0.356452,-0.02425 z"
     id="path22338" /><path
     style="fill:#ff4400;fill-opacity:1;stroke:#000000;stroke-width:0.435047;stroke-linecap:round;stroke-linejoin:round;paint-order:fill markers stroke"
     d="m 21.924385,35.102377 c -1.68665,-0.08178 -3.385315,0.901549 -4.039936,2.505872 -0.849455,1.790789 -0.560956,3.825598 -0.565681,5.741939 0.06389,2.059953 0.561997,4.410749 2.366065,5.627823 1.864432,1.201241 4.224472,0.841118 6.244212,0.297727 3.241903,-0.957769 6.267216,-2.667117 8.828422,-4.89113 0.380354,-0.430832 0.994301,-0.768567 1.146184,-1.348311 -0.175925,-0.451962 -0.813052,-0.209007 -1.179747,-0.27103 -1.102146,0.09128 -2.345649,-0.103337 -3.320622,0.535392 -0.438377,0.575431 -1.443252,0.71507 -1.793126,-0.02891 -0.442306,-0.91454 0.454078,-1.786631 1.268386,-2.032418 0.828437,-0.349314 1.723133,-0.481754 2.608508,-0.541213 0.481116,-0.235932 -0.02749,-0.72002 -0.304156,-0.875199 -2.793765,-2.024417 -5.878728,-3.773628 -9.253899,-4.544123 -0.659904,-0.127584 -1.333123,-0.182248 -2.00461,-0.176413 z"
     id="path22340" /><path
     style="fill:#ff4400;fill-opacity:1;stroke:#000000;stroke-width:0.435047;stroke-linecap:round;stroke-linejoin:round;paint-order:fill markers stroke"
     d="m 34.80641,20.348107 c -2.487983,0.116327 -5.142159,0.688588 -7.03394,2.437599 -1.206868,1.099162 -1.716386,2.856407 -1.33082,4.449434 0.684052,3.257188 2.869903,5.921451 5.122143,8.233408 1.217198,1.170291 2.481879,2.354006 3.974785,3.147696 0.371705,0.09965 0.417937,-0.380232 0.251315,-0.608288 -0.26698,-0.734943 -0.134757,-1.94592 0.791582,-2.063045 0.751094,-0.117708 1.214224,0.658174 1.157667,1.332416 0.03039,0.339117 0.406349,1.026543 0.734299,0.601783 2.040581,-2.757623 3.150426,-6.19 3.293823,-9.622922 0.05068,-2.209039 -0.303945,-4.698888 -2.001402,-6.261854 -1.285942,-1.31499 -3.203017,-1.661858 -4.959452,-1.646227 z"
     id="path23395" /><path
     style="fill:#ff4400;fill-opacity:1;stroke:#000000;stroke-width:0.435047;stroke-linecap:round;stroke-linejoin:round;paint-order:fill markers stroke"
     d="m 51.115525,23.22819 c -2.525302,-0.02246 -4.706196,1.757092 -6.016864,3.82169 -1.607422,2.564508 -2.421434,5.632799 -2.370358,8.666603 0.192505,0.50917 0.622946,-0.09684 0.925763,-0.19934 0.775062,-0.479234 1.98178,-0.833068 2.69087,-0.05647 0.49194,0.589958 0.06944,1.629656 -0.730314,1.594381 -0.896008,-0.04186 -1.621705,0.650777 -2.192657,1.251345 -0.01722,0.402519 0.480874,0.688999 0.759539,0.966039 0.856165,0.657807 2.017948,0.361046 2.997433,0.252999 3.142328,-0.596973 6.239339,-1.678257 8.943975,-3.429098 1.719237,-1.166851 3.532788,-2.701346 3.864574,-4.896762 0.297421,-2.11718 -1.040089,-4.036392 -2.477701,-5.42206 C 56.10795,24.610462 54.44933,23.661435 52.648729,23.333073 52.141451,23.257403 51.62815,23.22425 51.115525,23.228186 Z"
     id="path23397" /><path
     style="fill:#ff4400;fill-opacity:1;stroke:#000000;stroke-width:0.435047;stroke-linecap:round;stroke-linejoin:round;paint-order:fill markers stroke"
     d="m 53.356257,41.010212 c -2.34892,0.0033 -4.688531,0.414588 -6.941614,1.069935 -0.448271,0.398169 0.420603,0.647498 0.562883,1.007312 0.515189,0.741064 -0.315229,1.917036 -1.173532,1.522173 -0.598187,-0.378713 -1.182812,-0.938996 -1.922749,-0.970009 -0.461497,0.20766 -0.244243,0.859639 -0.268194,1.265854 0.330284,2.355375 1.661834,4.421946 3.071641,6.266475 1.71413,2.149774 3.905197,4.116182 6.614856,4.785541 1.685552,0.353963 3.531617,-0.02661 4.840801,-1.192451 1.681341,-1.475643 2.828834,-3.515716 3.523129,-5.63868 0.47251,-1.642172 0.69508,-3.550553 -0.148865,-5.110987 -1.037921,-1.848499 -3.209031,-2.570556 -5.166236,-2.864227 -0.989495,-0.144336 -1.994542,-0.142542 -2.99212,-0.140936 z"
     id="path23399" /><path
     style="fill:#ff4400;fill-opacity:1;stroke:#000000;stroke-width:0.435047;stroke-linecap:round;stroke-linejoin:round;paint-order:fill markers stroke"
     d="m 39.378511,45.470473 c -0.476565,0.287995 -0.667212,0.92424 -0.982136,1.379816 -0.232566,0.552845 -0.744625,1.113316 -0.60356,1.747006 0.393005,0.761828 -0.495472,1.737333 -1.276826,1.363217 -0.878433,-0.377567 -0.893183,-1.553984 -0.650988,-2.348797 0.04866,-0.339139 0.435616,-0.818882 0.07748,-1.07832 -0.617539,0.09648 -1.125757,0.59095 -1.685181,0.865015 -2.708428,1.65139 -5.298661,3.708284 -6.989885,6.457715 -0.947671,1.508941 -1.401329,3.540494 -0.514372,5.184899 1.164664,2.092133 3.430424,3.192259 5.549661,4.034913 1.789003,0.670016 3.644967,1.198962 5.536366,1.453878 1.553111,-0.0087 3.234519,0.189304 4.618348,-0.691275 1.624641,-0.915192 2.34988,-2.866063 2.317849,-4.675527 0.148071,-2.749011 -0.682943,-5.438961 -1.640185,-7.975651 -0.793806,-1.894347 -1.675821,-3.829111 -3.104568,-5.322998 -0.191747,-0.157936 -0.386256,-0.389952 -0.652,-0.393891 z"
     id="path23401" /><path
     style="fill:#ffdb00;fill-opacity:1;stroke:#000000;stroke-width:0.189227;stroke-linecap:round;stroke-linejoin:round;paint-order:fill markers stroke"
     d="m 36.701215,36.608025 c -0.353128,0.04215 -0.355869,0.47603 -0.335498,0.750799 0.06205,0.788326 0.625319,1.402511 1.060874,2.014901 0.669653,0.858156 1.339825,1.710121 1.954851,2.600781 0.187155,0.267402 0.620837,0.04531 0.56102,-0.259744 -0.174396,-0.447002 -0.522896,-0.802948 -0.789637,-1.196202 -0.619586,-0.862588 -1.359844,-1.638985 -1.899694,-2.55831 -0.183488,-0.281406 -0.231018,-0.611644 -0.230368,-0.94207 -0.0046,-0.188724 -0.09475,-0.429763 -0.321548,-0.410155 z"
     id="path24129" /><path
     style="fill:#ffdb00;fill-opacity:1;stroke:#000000;stroke-width:0.189227;stroke-linecap:round;stroke-linejoin:round;paint-order:fill markers stroke"
     d="m 45.239561,35.692822 c -0.958894,0.03209 -1.754795,0.686056 -2.428275,1.316725 -0.982446,0.974728 -1.844554,2.131833 -2.276237,3.468497 -0.110428,0.325074 -0.189329,0.782672 0.122746,1.018728 0.272339,0.125572 0.41401,-0.213512 0.419702,-0.4336 0.193283,-1.039131 0.799608,-1.941387 1.450269,-2.757293 0.631459,-0.725546 1.300548,-1.464742 2.197906,-1.841493 0.291499,-0.152137 0.613557,-0.08076 0.923752,-0.09341 0.315647,-0.04312 0.314197,-0.524928 0.02144,-0.606191 -0.135208,-0.05918 -0.285566,-0.07237 -0.4313,-0.07197 z"
     id="path25097" /><path
     style="fill:#ffdb00;fill-opacity:1;stroke:#000000;stroke-width:0.189227;stroke-linecap:round;stroke-linejoin:round;paint-order:fill markers stroke"
     d="m 42.37771,42.060392 c -0.471938,0.026 -0.958315,0.01611 -1.416133,0.141557 -0.300144,0.118697 -0.196652,0.639553 0.136621,0.601053 0.801012,-0.04303 1.587899,-0.147981 2.387898,-0.01421 0.873438,0.117421 1.745071,0.46895 2.417777,1.075216 0.146711,0.161397 0.451736,0.167237 0.511539,-0.07882 0.06652,-0.383377 -0.328447,-0.629589 -0.587008,-0.831028 -1.010965,-0.674719 -2.258035,-0.896178 -3.450694,-0.893768 z"
     id="path25099" /><path
     style="fill:#ffdb00;fill-opacity:1;stroke:#000000;stroke-width:0.189227;stroke-linecap:round;stroke-linejoin:round;paint-order:fill markers stroke"
     d="m 34.427695,41.357001 c -1.180511,0.02543 -2.401356,0.106868 -3.494888,0.597111 -0.332779,0.181118 -0.754235,0.423 -0.784416,0.846584 4.1e-5,0.31158 0.420125,0.38623 0.589651,0.161501 0.33514,-0.486981 0.98085,-0.592569 1.501225,-0.727955 1.086097,-0.242016 2.213359,-0.193768 3.320998,-0.170724 0.975616,0.06466 1.983171,0.251393 2.858145,0.727689 0.180982,0.114099 0.505563,0.07377 0.500311,-0.195701 -0.07154,-0.409923 -0.534577,-0.551776 -0.861647,-0.700486 -1.152246,-0.437197 -2.409175,-0.530407 -3.629379,-0.538019 z"
     id="path25103" /><path
     style="fill:#ffdb00;fill-opacity:1;stroke:#000000;stroke-width:0.153735;stroke-linecap:round;stroke-linejoin:round;paint-order:fill markers stroke"
     d="m 39.931235,43.222481 c -0.391654,0.108515 -0.709416,0.399986 -1.010648,0.664915 -0.839965,0.813882 -1.483617,1.818047 -2.001809,2.866748 -0.273407,0.609658 -0.568176,1.25969 -0.520981,1.945112 0.03162,0.289012 0.180692,0.683904 0.527007,0.665843 0.267538,-0.03196 0.356306,-0.399922 0.17368,-0.578532 -0.116508,-0.397515 0.05343,-0.812605 0.173583,-1.189195 0.452627,-1.15675 1.125763,-2.232475 1.982875,-3.124647 0.243646,-0.257822 0.533638,-0.461576 0.835419,-0.641358 0.217872,-0.132547 0.208472,-0.494509 -0.03735,-0.589417 -0.03857,-0.0155 -0.08038,-0.02228 -0.121792,-0.01947 z"
     id="path25109" /><path
     style="fill:#008000;fill-opacity:1;stroke:#000000;stroke-width:0.153735;stroke-linecap:round;stroke-linejoin:round;paint-order:fill markers stroke"
     d="m 33.036011,46.643552 c -0.178334,0.03732 -0.379992,0.149303 -0.458078,0.314923 -0.02868,0.184402 0.132786,0.384207 0.304616,0.437206 0.192823,0.005 0.399944,-0.129968 0.486032,-0.303596 0.06085,-0.190973 -0.129941,-0.463361 -0.33257,-0.448533 z"
     id="path25111" /></svg>
