<?xml version="1.0" encoding="UTF-8" standalone="no"?>
<svg
   version="1.1"
   viewBox="-5.0 -10.0 110.0 135.0"
   id="svg40998"
   sodipodi:docname="onion.svg"
   inkscape:version="1.2.2 (b0a8486541, 2022-12-01)"
   xmlns:inkscape="http://www.inkscape.org/namespaces/inkscape"
   xmlns:sodipodi="http://sodipodi.sourceforge.net/DTD/sodipodi-0.dtd"
   xmlns="http://www.w3.org/2000/svg"
   xmlns:svg="http://www.w3.org/2000/svg">
  <defs
     id="defs41002">
    <rect
       x="-11.39009"
       y="109.86217"
       width="127.0517"
       height="103.42764"
       id="rect41225" />
    <inkscape:path-effect
       effect="fill_between_many"
       method="originald"
       linkedpaths="#path40992,0,1|"
       id="path-effect41229" />
  </defs>
  <sodipodi:namedview
     id="namedview41000"
     pagecolor="#ffffff"
     bordercolor="#000000"
     borderopacity="0.25"
     inkscape:showpageshadow="2"
     inkscape:pageopacity="0.0"
     inkscape:pagecheckerboard="0"
     inkscape:deskcolor="#d1d1d1"
     showgrid="false"
     inkscape:zoom="5.837037"
     inkscape:cx="55.079315"
     inkscape:cy="73.667513"
     inkscape:window-width="1857"
     inkscape:window-height="1011"
     inkscape:window-x="0"
     inkscape:window-y="0"
     inkscape:window-maximized="1"
     inkscape:current-layer="svg40998" />
  <path
     inkscape:original-d="M 0,0"
     inkscape:path-effect="#path-effect41229"
     d="M 67.301,21.551 C 57.8713,17.1526 53.492,7.879 51.86,3.391 51.34047,1.8324 51.05141,0.8324 51.03969,0.7894 V 0.777682 c -0.01953,-0.046875 -0.03906,-0.078125 -0.05859,-0.11719 -0.01953,-0.039062 -0.01953,-0.078125 -0.03906,-0.10938 l -0.01172,-0.011719 c 0,-0.011718 -0.01172,-0.011718 -0.01172,-0.019531 -0.01172,-0.011719 -0.01953,-0.019531 -0.03125,-0.039062 -0.01172,-0.011719 -0.01172,-0.019531 -0.01953,-0.03125 -0.01172,-0.011719 -0.01172,-0.011719 -0.01953,-0.019531 0,0 -0.01172,-0.011719 -0.01172,-0.019532 -0.01953,-0.03125 -0.05859,-0.050781 -0.08984,-0.078125 -0.03906,-0.039062 -0.05859,-0.078125 -0.10156,-0.10938 -0.01172,0 -0.01172,-0.011718 -0.01953,-0.011718 -0.01172,-0.011719 -0.03125,-0.011719 -0.03906,-0.019532 -0.01172,-0.011718 -0.01953,-0.019531 -0.03125,-0.019531 -0.01172,0 -0.01172,-0.011719 -0.01953,-0.011719 -0.03906,-0.019531 -0.07813,-0.03125 -0.12109,-0.050781 -0.05078,-0.019531 -0.07812,-0.050781 -0.12891,-0.058594 h -0.01172 -0.01953 c -0.01172,0 -0.01172,-0.011719 -0.01953,-0.011719 h -0.03125 c -0.01172,0 -0.01953,-0.011719 -0.03125,-0.011719 h -0.01953 c -0.01172,0 -0.01953,0 -0.03125,-0.011719 h -0.01172 c -0.03125,-0.015625 -0.07031,-0.0039062 -0.10938,-0.0039062 -0.03907,0 -0.07813,-0.011719 -0.12109,-0.011719 h -0.01172 c -0.01172,0 -0.01953,0 -0.03125,0.011719 h -0.01953 c -0.01172,0 -0.01953,0.011719 -0.03906,0.011719 h -0.03125 -0.01172 c -0.01172,0 -0.01172,0.011719 -0.01953,0.011719 h -0.01953 -0.01172 c -0.03906,0.011719 -0.07813,0.039063 -0.12109,0.058594 h -0.01172 c -0.03906,0.019531 -0.07813,0.019531 -0.10938,0.039062 -0.01172,0 -0.01172,0.011719 -0.01172,0.011719 -0.01172,0 -0.01172,0.011719 -0.01953,0.011719 -0.01172,0.011719 -0.01953,0.019531 -0.03125,0.03125 -0.01172,0.011719 -0.03125,0.011719 -0.03906,0.019531 -0.01172,0 -0.01172,0.011719 -0.01953,0.019531 -0.03906,0.03125 -0.05859,0.070313 -0.10156,0.10156 -0.03125,0.03125 -0.07031,0.050781 -0.08984,0.078125 0,0.011719 -0.01172,0.011719 -0.01172,0.019531 0,0.011719 -0.01172,0.011719 -0.01953,0.019531 -0.01172,0.011719 -0.01172,0.03125 -0.01953,0.039063 l -0.03125,0.03125 c 0,0.011719 -0.01172,0.011719 -0.01172,0.019531 0,0.011719 -0.01172,0.011719 -0.01172,0.019532 -0.01172,0.019531 -0.01172,0.050781 -0.01953,0.070312 -0.01172,0.019531 -0.01172,0.03125 -0.01953,0.050781 0.01563,0.023438 -0.0039,0.054688 -0.02344,0.10547 v 0.011719 c -0.01172,0.039062 -0.30078,1.0586 -0.83984,2.6602 -1.6406,4.5195 -6.0117,13.7110002 -15.422,18.1020002 -12.781,5.9609 -29.781,16.391 -29.789,38 0,11.969 6.2812,24.32 16.398,32.238 6.9297,5.4062 14.77,8.206997 22.703,8.206997 2.6602,0 5.3398,-0.320307 7.9883,-0.960937 2.6484,0.64063 5.3281,0.960937 7.9883,0.960937 7.9297,0 15.77,-2.800797 22.691,-8.210897 10.121,-7.9102 16.41,-20.27 16.398,-32.238 0,-21.621 -17,-32.039 -29.777,-38 z"
     id="path41231"
     class="UnoptimicedTransforms"
     style="fill:#c87137" />
  <path
     d="m67.301 21.551c-9.4297-4.3984-13.809-13.672-15.441-18.16-0.51953-1.5586-0.80859-2.5586-0.82031-2.6016v-0.011718c-0.019531-0.046875-0.039062-0.078125-0.058593-0.11719-0.019531-0.039062-0.019531-0.078125-0.039063-0.10938l-0.011718-0.011719c0-0.011718-0.011719-0.011718-0.011719-0.019531-0.011719-0.011719-0.019531-0.019531-0.03125-0.039062-0.011719-0.011719-0.011719-0.019531-0.019531-0.03125-0.011719-0.011719-0.011719-0.011719-0.019532-0.019531 0 0-0.011718-0.011719-0.011718-0.019532-0.019532-0.03125-0.058594-0.050781-0.089844-0.078125-0.039063-0.039062-0.058594-0.078125-0.10156-0.10938-0.011719 0-0.011719-0.011718-0.019531-0.011718-0.011719-0.011719-0.03125-0.011719-0.039062-0.019532-0.011719-0.011718-0.019532-0.019531-0.03125-0.019531-0.011719 0-0.011719-0.011719-0.019532-0.011719-0.039062-0.019531-0.078125-0.03125-0.12109-0.050781-0.050781-0.019531-0.078124-0.050781-0.12891-0.058594h-0.011718-0.019532c-0.011718 0-0.011718-0.011719-0.019531-0.011719h-0.03125c-0.011719 0-0.019531-0.011719-0.03125-0.011719h-0.019531c-0.011719 0-0.019532 0-0.03125-0.011719h-0.011719c-0.03125-0.015625-0.070313-0.0039062-0.10938-0.0039062s-0.078125-0.011719-0.12109-0.011719h-0.011718c-0.011719 0-0.019532 0-0.03125 0.011719h-0.019532c-0.011718 0-0.019531 0.011719-0.039062 0.011719h-0.03125-0.011719c-0.011719 0-0.011719 0.011719-0.019531 0.011719h-0.019532-0.011718c-0.039063 0.011719-0.078125 0.039063-0.12109 0.058594h-0.011719c-0.039062 0.019531-0.078125 0.019531-0.10938 0.039062-0.011718 0-0.011718 0.011719-0.011718 0.011719-0.011719 0-0.011719 0.011719-0.019532 0.011719-0.011718 0.011719-0.019531 0.019531-0.03125 0.03125-0.011718 0.011719-0.03125 0.011719-0.039062 0.019531-0.011719 0-0.011719 0.011719-0.019532 0.019531-0.039062 0.03125-0.058593 0.070313-0.10156 0.10156-0.03125 0.03125-0.070312 0.050781-0.089844 0.078125 0 0.011719-0.011718 0.011719-0.011718 0.019531 0 0.011719-0.011719 0.011719-0.019532 0.019531-0.011718 0.011719-0.011718 0.03125-0.019531 0.039063l-0.03125 0.03125c0 0.011719-0.011719 0.011719-0.011719 0.019531 0 0.011719-0.011718 0.011719-0.011718 0.019532-0.011719 0.019531-0.011719 0.050781-0.019532 0.070312-0.011718 0.019531-0.011718 0.03125-0.019531 0.050781 0.015625 0.023438-0.003906 0.054688-0.023437 0.10547v0.011719c-0.011719 0.039062-0.30078 1.0586-0.83984 2.6602-1.6406 4.5195-6.0117 13.711-15.422 18.102-12.781 5.9609-29.781 16.391-29.789 38 0 11.969 6.2812 24.32 16.398 32.238 6.9297 5.4062 14.77 8.207 22.703 8.207 2.6602 0 5.3398-0.32031 7.9883-0.96094 2.6484 0.64063 5.3281 0.96094 7.9883 0.96094 7.9297 0 15.77-2.8008 22.691-8.2109 10.121-7.9102 16.41-20.27 16.398-32.238 0-21.621-17-32.039-29.777-38zm-17.301 75.141c-4.9492-2.8086-11.328-16.039-10.07-37.078 0.60156-10.129 3.0898-17.699 5.0898-23.789 0.96094-2.9219 1.7891-5.4414 2.1992-7.6602 1.0703-5.8047 2.0703-12.863 2.7812-18.312 0.71094 5.4492 1.7109 12.512 2.7812 18.309 0.41016 2.2188 1.2383 4.7383 2.1992 7.6602 2 6.0898 4.4883 13.672 5.0898 23.789 1.2578 21.039-5.1211 34.27-10.07 37.082zm-4.9102-68.922c-0.37891 2.0703-1.1914 4.5312-2.1211 7.3789-1.9297 5.8789-4.5781 13.93-5.1914 24.34-1.1484 19.309 3.9414 32.199 8.9883 37.34-4.3203-0.42969-8.6797-2.6016-12.531-6.3516-7.6758-7.4648-12.086-19.648-11.234-31.047 1-13.449 7.3711-20.16 12.98-26.07 2.8594-3.0195 5.5703-5.8711 7.3516-9.3281 1.3984-2.7188 2.7109-6.1094 3.8398-9.4414-0.60156 4.3516-1.3203 9.0898-2.082 13.18zm8.1484 69.059c5.0508-5.1406 10.141-18.031 8.9883-37.34-0.62109-10.41-3.2617-18.461-5.1992-24.34-0.92969-2.8516-1.7383-5.3008-2.1211-7.3789-0.76172-4.1016-1.4805-8.8281-2.0898-13.18 1.1289 3.3281 2.4414 6.7188 3.8398 9.4414 1.7812 3.4609 4.4883 6.3086 7.3516 9.3281 5.6211 5.9102 11.98 12.621 12.992 26.07 0.85156 11.398-3.5586 23.578-11.23 31.051-3.8594 3.75-8.2109 5.918-12.531 6.3477zm-9.8984-78.066c-0.62109 1.5391-1.2617 3-1.9219 4.2812-1.6406 3.1914-4.2383 5.9297-7 8.8281-5.8594 6.1797-12.512 13.172-13.57 27.398-0.89844 12.012 3.7695 24.859 11.879 32.75 1.7695 1.7305 3.6484 3.1484 5.5898 4.2617-5.0312-1.1992-9.8086-3.6289-14.012-7.2695-8.2695-7.1914-13.199-18.199-13.191-29.461 0.011719-16.57 10.91-23.82 20.531-30.219 2.0781-1.3789 4.0391-2.6797 5.8594-4.0508 2.207-1.6523 4.1562-3.9727 5.8359-6.5195zm23.93 73.27c8.1094-7.8906 12.77-20.75 11.879-32.762-1.0586-14.219-7.7109-21.219-13.57-27.398-2.7617-2.8984-5.3594-5.6406-7-8.8281-0.66016-1.2812-1.3008-2.75-1.9219-4.2812 1.6797 2.5508 3.6211 4.8711 5.8281 6.5195 1.8281 1.3711 3.7891 2.6719 5.8594 4.0508 9.6211 6.3984 20.52 13.648 20.531 30.219 0 11.262-4.9297 22.27-13.191 29.461-4.1914 3.6484-8.9805 6.0781-14.012 7.2812 1.9492-1.1133 3.8281-2.543 5.5977-4.2617zm-62.199-32.48c0.007813-20.16 15.258-29.852 28.539-36.051 2.7812-1.3008 5.1289-2.9688 7.1289-4.8086-1.3594 1.9102-2.8711 3.6094-4.5312 4.8594-1.7812 1.3281-3.7109 2.6211-5.7617 3.9805-10.066 6.707-21.477 14.297-21.484 32.02 0 12.051 5.0781 23.379 13.941 31.09 2.1797 1.8984 4.5312 3.4688 6.9688 4.7617-3.1914-1.2812-6.3008-3.0312-9.2188-5.3086-9.6133-7.5156-15.582-19.223-15.582-30.543zm74.281 30.539c-2.9297 2.2891-6.0312 4.0312-9.2305 5.3203 2.4492-1.2891 4.7891-2.8594 6.9805-4.7617 8.8594-7.6992 13.941-19.031 13.941-31.09-0.011719-17.73-11.422-25.32-21.488-32.012-2.0508-1.3594-3.9805-2.6484-5.7617-3.9805-1.6602-1.25-3.1719-2.9492-4.5312-4.8594 2.0117 1.8281 4.3516 3.5117 7.1289 4.8008 13.281 6.1914 28.531 15.891 28.539 36.051 0 11.312-5.9688 23.012-15.578 30.531z"
     id="path40992"
     class="UnoptimicedTransforms" />
  <text
     xml:space="preserve"
     transform="translate(-5,-10)"
     id="text41223"
     style="fill:#b3ff80;-inkscape-font-specification:lora;font-family:lora;font-size:24px;white-space:pre;shape-inside:url(#rect41225)" />
</svg>
