<?xml version="1.0" encoding="UTF-8" standalone="no"?>
<svg
   viewBox="0 0 100 125"
   x="0px"
   y="0px"
   version="1.1"
   id="svg26346"
   sodipodi:docname="oregano.svg"
   inkscape:version="1.2.2 (b0a8486541, 2022-12-01)"
   xmlns:inkscape="http://www.inkscape.org/namespaces/inkscape"
   xmlns:sodipodi="http://sodipodi.sourceforge.net/DTD/sodipodi-0.dtd"
   xmlns="http://www.w3.org/2000/svg"
   xmlns:svg="http://www.w3.org/2000/svg">
  <defs
     id="defs26350" />
  <sodipodi:namedview
     id="namedview26348"
     pagecolor="#ffffff"
     bordercolor="#000000"
     borderopacity="0.25"
     inkscape:showpageshadow="2"
     inkscape:pageopacity="0.0"
     inkscape:pagecheckerboard="0"
     inkscape:deskcolor="#d1d1d1"
     showgrid="false"
     inkscape:zoom="6.304"
     inkscape:cx="50.047589"
     inkscape:cy="62.5"
     inkscape:window-width="1857"
     inkscape:window-height="1011"
     inkscape:window-x="0"
     inkscape:window-y="0"
     inkscape:window-maximized="1"
     inkscape:current-layer="svg26346" />
  <path
     d="M13.85,91.75c.3,0,.61-.02,.92-.07,8.61-1.33,23.11-4.83,31.65-13.78,.1,.14,.2,.28,.3,.41,.71,.98,1.82,1.54,3.03,1.54s2.31-.56,3.03-1.54c.51-.7,1.08-1.52,1.65-2.41,7.47,6.35,18.48,8.98,25.26,10.03,.28,.04,.55,.06,.82,.06,1.38,0,2.69-.54,3.69-1.54,1.2-1.2,1.73-2.84,1.47-4.52-1.05-6.78-3.67-17.79-10.02-25.26,.9-.57,1.71-1.14,2.41-1.65,.98-.71,1.54-1.82,1.54-3.03s-.56-2.31-1.54-3.03c-.13-.1-.28-.2-.41-.3,8.96-8.55,12.46-23.05,13.78-31.65,.29-1.87-.31-3.72-1.65-5.05-1.34-1.34-3.18-1.94-5.05-1.65-8.61,1.33-23.11,4.83-31.65,13.78-.1-.14-.2-.28-.3-.41-.71-.98-1.82-1.54-3.03-1.54s-2.31,.56-3.03,1.54c-.51,.7-1.08,1.52-1.65,2.41-7.47-6.35-18.48-8.98-25.26-10.03-1.67-.26-3.32,.28-4.52,1.48-1.2,1.2-1.73,2.84-1.47,4.52,1.05,6.78,3.67,17.79,10.03,25.26-.89,.57-1.71,1.14-2.41,1.65-.98,.71-1.54,1.82-1.54,3.03s.56,2.31,1.54,3.03c.13,.1,.27,.2,.41,.3-8.95,8.55-12.45,23.05-13.78,31.65-.29,1.87,.31,3.72,1.65,5.05,1.12,1.12,2.59,1.72,4.13,1.72Zm9.36-41.15c-.27-.2-.31-.46-.31-.61s.04-.41,.31-.61c2.69-1.97,8.99-6.06,14.87-6.06,.9,0,1.79,.1,2.66,.31,.16,.04,.32,.1,.48,.15,.78,1.76,1.94,3.34,3.51,4.71h-13.35c-.83,0-1.5,.67-1.5,1.5s.67,1.5,1.5,1.5h13.35c-1.57,1.37-2.74,2.95-3.51,4.71-.16,.05-.31,.11-.48,.15-6.53,1.61-14.43-3.49-17.53-5.75Zm-5.79-32.94c.43-.43,.99-.66,1.58-.66,.12,0,.24,0,.35,.03,6.55,1.01,17.3,3.54,24.17,9.66-1.84,3.37-3.41,7.45-3.43,11.52l-8.76-8.76,.99-5.08c.16-.81-.37-1.6-1.19-1.76-.82-.16-1.6,.37-1.76,1.19l-.6,3.09-4.76-4.76c-.59-.59-1.54-.59-2.12,0-.59,.59-.59,1.54,0,2.12l6.75,6.75s0,0,0,0l4.37,4.37-4.41,1.61c-.78,.28-1.18,1.15-.9,1.92,.22,.61,.8,.99,1.41,.99,.17,0,.34-.03,.51-.09l5.72-2.09,2.61,2.61c-4.07,.02-8.16,1.6-11.52,3.43-6.12-6.87-8.65-17.62-9.66-24.17-.11-.72,.12-1.42,.63-1.94Zm31.73,5.79c.2-.27,.46-.31,.61-.31s.41,.04,.61,.31c2.27,3.1,7.37,11,5.75,17.53-.63,2.55-2.27,4.7-4.86,6.43v-15.08c0-.83-.67-1.5-1.5-1.5s-1.5,.67-1.5,1.5v15.08c-2.59-1.72-4.23-3.88-4.86-6.43-1.61-6.53,3.49-14.43,5.75-17.53Zm38.52-11.37c.65,.65,.95,1.56,.81,2.48-1.29,8.37-4.7,22.57-13.38,30.4-3.67-2.28-8.63-4.59-13.56-4.62l4.95-4.95,6.82,2.49c.17,.06,.34,.09,.51,.09,.61,0,1.19-.38,1.41-.99,.28-.78-.12-1.64-.9-1.92l-5.51-2.01,5.38-5.38h0s7.88-7.88,7.88-7.88c.59-.59,.59-1.54,0-2.12-.59-.59-1.54-.59-2.12,0l-5.89,5.89-.79-4.07c-.16-.81-.95-1.35-1.76-1.19-.81,.16-1.34,.95-1.19,1.76l1.18,6.06-11.7,11.7-.94-7.95c-.1-.82-.84-1.41-1.67-1.31-.1,.01-.19,.03-.28,.06-.67-1.42-1.41-2.75-2.15-3.94,7.83-8.68,22.04-12.09,30.4-13.38,.92-.14,1.82,.15,2.48,.81Zm-11.37,37.3c.27,.2,.31,.46,.31,.61s-.04,.41-.31,.61c-3.1,2.27-11,7.37-17.53,5.75-.16-.04-.32-.1-.48-.15-.78-1.76-1.94-3.34-3.51-4.71h12.64c.83,0,1.5-.67,1.5-1.5s-.67-1.5-1.5-1.5h-12.64c1.57-1.37,2.74-2.95,3.51-4.71,.16-.05,.31-.11,.48-.15,6.53-1.61,14.43,3.49,17.53,5.75Zm5.79,32.94c-.51,.51-1.22,.74-1.94,.63-6.55-1.01-17.3-3.54-24.17-9.66,1.84-3.37,3.41-7.45,3.43-11.52l2.61,2.61-2.09,5.72c-.28,.78,.12,1.64,.9,1.92,.17,.06,.34,.09,.51,.09,.61,0,1.19-.38,1.41-.99l1.61-4.41,11.13,11.13c.29,.29,.68,.44,1.06,.44s.77-.15,1.06-.44c.59-.59,.59-1.54,0-2.12l-4.76-4.76,3.09-.6c.81-.16,1.34-.95,1.19-1.76-.16-.81-.95-1.34-1.76-1.19l-5.08,.99-8.75-8.75c4.07-.03,8.14-1.61,11.51-3.45,6.12,6.87,8.65,17.62,9.66,24.17,.11,.72-.12,1.42-.63,1.94Zm-31.73-5.79c-.2,.27-.46,.31-.61,.31s-.41-.04-.61-.31c-2.27-3.1-7.37-11-5.75-17.53,.63-2.55,2.27-4.7,4.86-6.43v15.78c0,.83,.67,1.5,1.5,1.5s1.5-.67,1.5-1.5v-15.78c2.59,1.72,4.23,3.88,4.86,6.43,1.61,6.53-3.49,14.43-5.75,17.53Zm-22-19.35c-.03,.09-.05,.18-.06,.28-.1,.82,.49,1.57,1.31,1.67l7.95,.94-11.7,11.7-6.06-1.18c-.81-.16-1.6,.37-1.76,1.19-.16,.81,.37,1.6,1.19,1.76l4.07,.79-5.89,5.89c-.59,.59-.59,1.54,0,2.12,.29,.29,.68,.44,1.06,.44s.77-.15,1.06-.44l13.27-13.27,2.01,5.51c.22,.61,.8,.99,1.41,.99,.17,0,.34-.03,.51-.09,.78-.28,1.18-1.15,.9-1.92l-2.49-6.82,4.95-4.95c.03,4.93,2.34,9.88,4.62,13.56-7.83,8.68-22.04,12.09-30.4,13.38-.92,.14-1.82-.15-2.47-.81-.65-.65-.95-1.56-.81-2.48,1.29-8.37,4.7-22.57,13.38-30.4,1.19,.74,2.52,1.48,3.94,2.16Z"
     id="path26340" />
  <path
     style="fill:#217821;stroke:#000000;stroke-width:0.317259;stroke-linecap:round;stroke-linejoin:round;paint-order:markers stroke fill"
     d="m 71.018897,57.000639 c -2.89297,1.463243 -6.065608,2.196522 -9.270218,2.604993 -0.360206,0.683628 1.120964,1.278509 1.459725,1.908697 2.327342,2.324644 4.654684,4.649288 6.982026,6.973932 1.938355,-0.07034 3.875757,-0.911899 5.829323,-0.847676 1.185052,0.259042 1.242081,2.108861 0.06042,2.456588 -0.953236,0.391532 -2.121777,0.296254 -3.001567,0.78757 0.01093,0.791863 0.962455,1.262855 1.382728,1.867305 1.131345,1.264434 2.553013,2.355057 3.416742,3.819499 0.255371,1.276029 -1.638088,2.068079 -2.360703,0.97779 -3.703702,-3.421344 -7.086897,-7.185535 -10.870294,-10.516934 -0.697179,-0.525706 -0.763168,0.706266 -0.979238,1.112012 -0.565074,1.192884 -0.688648,2.76077 -1.757739,3.639435 -0.937735,0.498682 -2.186029,-0.478316 -1.75174,-1.510388 0.483463,-2.007495 1.462665,-3.948214 1.960501,-5.928534 -0.847407,-0.872694 -1.693572,-1.87185 -2.656674,-2.608332 -0.435051,0.633151 -0.194773,1.617613 -0.403389,2.379751 -0.45236,3.209855 -1.763869,6.206524 -3.184672,9.084944 0.772265,1.16003 2.182094,1.875876 3.329509,2.698452 5.929208,3.821382 12.853563,5.778852 19.73933,7.009721 1.236324,0.212492 2.985001,0.393642 3.587723,-1.014846 0.837159,-1.332681 -0.04201,-2.909442 -0.148306,-4.318416 -1.319565,-6.69238 -3.429825,-13.349261 -7.302941,-19.030784 -0.649303,-0.84938 -1.216713,-1.932522 -2.120739,-2.468051 -0.6466,0.307757 -1.293201,0.615515 -1.939802,0.923272 z"
     id="path26538" />
  <path
     style="fill:#217821;stroke:#000000;stroke-width:0.317259;stroke-linecap:round;stroke-linejoin:round;paint-order:markers stroke fill"
     d="m 18.845611,16.883502 c -1.391031,0.01475 -2.547256,1.440444 -2.179295,2.814743 1.204985,7.733909 3.438395,15.521251 7.946343,22.01665 0.587569,0.729413 1.072691,1.710248 1.888992,2.143977 3.455052,-1.707627 7.135701,-3.239941 11.031252,-3.364989 0.619359,-0.278038 -0.235289,-0.89076 -0.436231,-1.188791 -0.627843,-0.526399 -1.115075,-1.470792 -1.937015,-1.659413 -2.104015,0.615385 -4.110573,1.653644 -6.265862,2.039565 -1.287932,-0.116359 -1.476246,-2.164851 -0.219664,-2.501821 1.429012,-0.691093 3.030221,-1.039622 4.425514,-1.746473 -0.694748,-1.076377 -1.868729,-1.910173 -2.738465,-2.897792 -2.777546,-2.884573 -5.785359,-5.571275 -8.3783,-8.616165 -0.956185,-0.895116 0.395789,-2.536673 1.447494,-1.925861 1.951105,1.412239 3.468422,3.457902 5.341041,4.960578 0.505421,-0.828697 0.396433,-2.024944 0.759996,-2.973682 0.111587,-0.878011 0.985673,-1.446054 1.833224,-1.110096 1.288484,0.59396 0.559444,2.24625 0.443349,3.283764 -0.159276,1.128692 -0.557111,2.269188 -0.563251,3.389206 2.873197,2.871751 5.746393,5.743501 8.61959,8.615252 0.678699,0.03618 0.299716,-1.16798 0.489595,-1.673255 0.384324,-3.409875 1.732684,-6.654598 3.287148,-9.712435 -0.718453,-1.089484 -2.026656,-1.792192 -3.115657,-2.553385 -6.179127,-3.948386 -13.343822,-6.043572 -20.522578,-7.246963 -0.38323,-0.05295 -0.769532,-0.101721 -1.15722,-0.09261 z"
     id="path26542" />
  <path
     style="fill:#217821;stroke:#000000;stroke-width:0.317259;stroke-linecap:round;stroke-linejoin:round;paint-order:markers stroke fill"
     d="m 49.615076,23.063853 c -0.960403,0.239535 -1.231208,1.47353 -1.836326,2.135484 -2.76778,4.309368 -5.236457,9.294528 -4.770033,14.559335 0.332011,3.149236 2.479095,5.802007 4.932075,7.630635 0.579272,-0.235179 0.211545,-1.184175 0.355577,-1.68631 0.121861,-4.537702 -0.05409,-9.085419 0.164925,-13.615855 0.22631,-1.259597 2.19094,-1.36329 2.577384,-0.217498 0.07518,5.129915 -0.04822,10.273005 0.213503,15.394493 0.544995,0.348917 1.056974,-0.548582 1.500842,-0.803658 2.761253,-2.233146 4.206439,-5.883515 3.766151,-9.400056 -0.51863,-4.774154 -2.91317,-9.109382 -5.547693,-13.03209 -0.330809,-0.456285 -0.712702,-1.026249 -1.356405,-0.96448 z"
     id="path26546" />
  <path
     style="fill:#217821;stroke:#000000;stroke-width:0.317259;stroke-linecap:round;stroke-linejoin:round;paint-order:markers stroke fill"
     d="m 85.670433,11.172532 c -4.211285,0.394314 -8.322725,1.530409 -12.379009,2.690493 -6.872582,2.157923 -13.638596,5.36407 -18.664649,10.653899 0.05502,0.690757 0.758652,1.313078 1.011572,2.006414 0.54645,0.697005 0.686565,1.969693 1.64702,2.239402 0.92403,-0.02636 1.608576,0.853483 1.487979,1.756976 0.345161,2.333725 0.438394,4.730539 0.938556,7.02744 0.611928,0.226045 1.052911,-0.653279 1.520302,-0.935976 3.526064,-3.381451 6.93264,-6.885016 10.400142,-10.326096 -0.163772,-2.264819 -1.050709,-4.496972 -1.075086,-6.788844 0.1013,-1.328732 2.364893,-1.318043 2.477036,0.0022 0.383567,1.298442 0.533204,2.659217 0.891051,3.971932 0.559682,0.307954 0.944525,-0.680381 1.399469,-0.915821 1.837346,-1.654399 3.409291,-3.621402 5.399291,-5.08979 1.029097,-0.406806 2.153596,1.086971 1.285455,1.888681 -2.952473,3.472636 -6.367011,6.524839 -9.529959,9.803031 -1.236773,1.312801 -2.657904,2.510485 -3.782521,3.89332 1.120718,0.692403 2.566192,0.967492 3.805339,1.511958 0.950464,0.453602 2.675349,0.584884 2.605831,1.988734 -0.07886,0.891526 -1.141663,1.573445 -1.945379,1.030782 -2.282086,-0.67136 -4.498396,-1.698278 -6.765511,-2.298078 -1.690285,1.663148 -3.492372,3.33422 -5.046496,5.112511 0.583608,0.419674 1.534197,0.01775 2.248077,0.253125 3.992535,0.582738 7.756985,2.275782 11.234187,4.296628 0.691962,0.193556 1.095354,-0.764991 1.59187,-1.098633 5.250033,-5.404475 8.147207,-12.604045 10.17365,-19.743566 0.862881,-3.367165 1.75613,-6.769103 2.033382,-10.241736 -0.07717,-1.496064 -1.484124,-2.716552 -2.961599,-2.688955 z"
     id="path26548" />
  <path
     style="fill:#217821;stroke:#000000;stroke-width:0.317259;stroke-linecap:round;stroke-linejoin:round;paint-order:markers stroke fill"
     d="m 61.32639,43.184697 c -1.079735,0.09998 -2.44252,-0.04972 -3.255002,0.794696 -0.895218,1.602828 -1.978216,3.036839 -3.279787,4.347128 0.161912,0.761196 1.696217,0.127849 2.368597,0.334919 3.584757,0 7.169514,0 10.754271,0 0.74117,0.455756 1.170224,1.57365 0.404629,2.208729 -0.649584,0.80683 -1.871539,0.232579 -2.784071,0.404939 -3.575921,0.04709 -7.195351,-0.09377 -10.74433,0.06971 0.05173,0.697797 0.991699,1.158424 1.349873,1.791091 0.827749,0.960695 1.43741,2.102142 2.113304,3.145324 1.39688,0.69877 3.073209,0.396214 4.581664,0.391307 3.96437,-0.332161 7.610344,-2.211864 10.989736,-4.190668 0.970778,-0.735999 2.301349,-1.224591 2.897776,-2.335137 0.01577,-1.030361 -1.263767,-1.420994 -1.916759,-2.00288 -3.749007,-2.40722 -7.911217,-4.524354 -12.411011,-4.93313 -0.355864,-0.02105 -0.712445,-0.02942 -1.06889,-0.02602 z"
     id="path26550" />
  <path
     style="fill:#217821;stroke:#000000;stroke-width:0.317259;stroke-linecap:round;stroke-linejoin:round;paint-order:markers stroke fill"
     d="m 47.938313,52.548171 c -2.708926,1.91152 -4.818102,4.885104 -4.967359,8.278969 -0.261272,5.178068 2.269825,9.977896 4.952487,14.230611 0.544711,0.664535 0.922123,1.737174 1.802861,1.992782 1.203239,-0.63473 1.792642,-2.027053 2.554492,-3.099161 2.412639,-4.083063 4.656048,-8.658563 4.176106,-13.541129 -0.100835,-2.584849 -1.543693,-4.88138 -3.403619,-6.594085 -0.532794,-0.501818 -1.086295,-1.096905 -1.810704,-1.275732 -0.309658,1.020703 -0.03091,2.258976 -0.126098,3.358482 -0.07107,4.236304 0.153085,8.484571 -0.151194,12.708635 -0.0166,1.201681 -1.764682,1.361326 -2.330649,0.442314 -0.483088,-0.779201 -0.100774,-1.950704 -0.238686,-2.88638 -0.04376,-4.487418 -0.08758,-8.974836 -0.131393,-13.462253 0.0028,-0.169023 -0.211886,-0.246598 -0.326244,-0.153053 z"
     id="path26552" />
  <path
     style="fill:#217821;stroke:#000000;stroke-width:0.317259;stroke-linecap:round;stroke-linejoin:round;paint-order:markers stroke fill"
     d="m 37.968515,43.184077 c -5.23715,0.139697 -9.989287,2.817097 -14.248979,5.63956 -0.621803,0.297014 -1.369147,1.086427 -0.685426,1.720288 2.266828,1.883957 4.905288,3.313411 7.587879,4.521869 2.860718,1.270966 6.004263,1.94387 9.137513,1.600943 0.900339,-0.0016 1.826258,-0.382848 2.088618,-1.322722 0.72937,-1.516524 2.018673,-2.636877 3.045871,-3.895716 -0.739708,-0.415718 -1.858003,-0.04956 -2.736358,-0.173191 -3.761976,0 -7.523951,0 -11.285927,0 -0.77108,-0.446617 -1.102711,-1.581139 -0.362183,-2.211208 0.649894,-0.803257 1.870173,-0.230235 2.781592,-0.40246 3.73657,0 7.473139,0 11.20971,0 0.497906,-0.52799 -0.808277,-1.171359 -1.048131,-1.720758 -0.919801,-1.017236 -1.527651,-2.283556 -2.254274,-3.402787 -1.066688,-0.199283 -2.140647,-0.37743 -3.229905,-0.353818 z"
     id="path26554" />
  <path
     style="fill:#217821;stroke:#000000;stroke-width:0.317259;stroke-linecap:round;stroke-linejoin:round;paint-order:markers stroke fill"
     d="m 24.379362,54.948371 c -1.796841,1.344971 -3.103644,3.24175 -4.451848,5.012009 -4.750438,7.068136 -7.283083,15.393441 -8.754578,23.714155 -0.263546,1.41843 -0.693013,3.183879 0.553134,4.289101 0.944891,1.184475 2.587535,1.026611 3.897815,0.70158 8.813118,-1.538934 17.697365,-4.168611 25.029867,-9.462651 1.499755,-1.153871 3.055131,-2.400847 4.172149,-3.889196 -1.688983,-2.993826 -3.353039,-6.134063 -4.062471,-9.541947 -0.352299,-1.311591 -0.352316,-2.710912 -0.689977,-3.998577 -0.806733,0.287319 -1.330539,1.285031 -2.032087,1.832383 -0.984539,1.101756 -2.25363,2.049008 -3.059237,3.247787 0.80204,2.465031 2.045089,4.803059 2.469911,7.361087 0.02892,1.20507 -1.941904,1.630192 -2.346912,0.454201 -0.831007,-1.786155 -1.367236,-3.692267 -2.121668,-5.509584 -0.53013,-0.298347 -0.891829,0.675845 -1.326282,0.885796 -4.3246,4.128033 -8.394945,8.54184 -12.867954,12.50259 -1.023982,0.320882 -2.121671,-0.988499 -1.393275,-1.885273 1.882517,-2.231494 4.190605,-4.120855 6.070365,-6.320392 -0.789526,-0.492842 -1.938472,-0.428401 -2.866104,-0.708325 -1.038141,-0.126843 -2.653455,-0.51554 -2.344192,-1.918975 0.196578,-0.977964 1.286384,-1.051888 2.06683,-0.813596 1.893835,0.236203 3.793766,0.837256 5.67503,0.991125 C 29.885539,68.015161 33.7732,64.138655 37.66086,60.262148 37.542299,59.49694 35.989794,59.94591 35.337806,59.660116 33.31213,59.348151 31.224391,59.303216 29.2346,58.832314 28.56197,58.572586 28.51405,57.816493 28.427202,57.225881 27.507379,56.304938 26.116659,56.010541 25.076516,55.24193 24.84548,55.134163 24.660411,54.868448 24.379362,54.948371 Z"
     id="path26556" />
</svg>
