<?xml version="1.0" encoding="UTF-8" standalone="no"?>
<svg
   version="1.1"
   x="0px"
   y="0px"
   viewBox="0 0 100 125"
   style="enable-background:new 0 0 100 100;"
   xml:space="preserve"
   id="svg12113"
   sodipodi:docname="parsley.svg"
   inkscape:version="1.2.2 (b0a8486541, 2022-12-01)"
   xmlns:inkscape="http://www.inkscape.org/namespaces/inkscape"
   xmlns:sodipodi="http://sodipodi.sourceforge.net/DTD/sodipodi-0.dtd"
   xmlns="http://www.w3.org/2000/svg"
   xmlns:svg="http://www.w3.org/2000/svg"><defs
     id="defs12117" /><sodipodi:namedview
     id="namedview12115"
     pagecolor="#ffffff"
     bordercolor="#000000"
     borderopacity="0.25"
     inkscape:showpageshadow="2"
     inkscape:pageopacity="0.0"
     inkscape:pagecheckerboard="0"
     inkscape:deskcolor="#d1d1d1"
     showgrid="false"
     inkscape:zoom="5.12585"
     inkscape:cx="53.552094"
     inkscape:cy="47.211682"
     inkscape:window-width="1857"
     inkscape:window-height="1011"
     inkscape:window-x="0"
     inkscape:window-y="0"
     inkscape:window-maximized="1"
     inkscape:current-layer="svg12113" /><path
     d="m 87.561534,22.518311 c 1.045289,-0.329433 2.126623,-0.677167 3.081801,-1.372637 0.621767,-0.457546 1.027267,-0.960846 1.234523,-1.555655 0.594733,-1.711221 -0.63979,-2.955746 -1.45079,-3.779328 -0.450556,-0.457546 -0.964189,-0.969997 -1.000234,-1.326883 -0.03604,-0.375187 0.441545,-0.924242 0.910123,-1.454995 0.153189,-0.173867 0.297367,-0.347735 0.441545,-0.521602 0.6488,-0.786979 1.180456,-2.123012 0.901111,-3.3309326 -0.171211,-0.7686768 -0.6488,-1.3726371 -1.333645,-1.6929191 -0.847045,-0.3934894 -1.694089,-0.2104711 -2.34289,-0.00915 -0.756933,0.2379237 -1.477823,0.5399039 -2.162667,0.8327332 -0.991223,0.420942 -1.928379,0.8144318 -2.883557,0.9882988 -1.270567,0.228773 -2.892568,-0.10066 -3.388179,-1.180468 -0.180223,-0.4026403 -0.549678,-0.6771677 -0.982212,-0.7412241 -0.423522,-0.073207 -0.856056,0.091509 -1.1354,0.4209421 -1.946401,2.2145206 -4.018958,4.3466836 -6.172614,6.3598846 l -0.865067,-2.992349 c -0.180222,-0.60396 -0.747923,-0.997449 -1.360678,-0.924242 -2.234757,0.228773 -4.316324,1.930843 -5.442714,4.429043 -0.792978,1.766126 -1.0543,3.642064 -1.306611,5.463096 -0.03605,0.256225 -0.07209,0.521602 -0.117145,0.777827 -0.135167,0.960846 -0.306378,1.912541 -0.495611,2.864237 -0.02703,-0.329433 -0.04506,-0.658866 -0.07209,-0.99745 -0.01802,-0.265377 -0.03605,-0.539904 -0.05407,-0.79613 C 61.438307,20.248884 61.21303,18.510211 60.906652,16.79899 60.762474,15.957106 60.41104,13.989659 58.78904,13.147775 58.032106,12.754286 57.149017,12.69938 56.28395,13.00136 c -1.081334,0.384339 -2.081568,1.308581 -2.595201,2.424993 -0.432534,0.942544 -0.594734,1.894239 -0.747923,2.818481 -0.0811,0.521602 -0.171211,1.015752 -0.297367,1.482448 -0.171211,0.603961 -0.531655,1.244525 -0.955178,1.573958 -0.8921,-1.153016 -2.333879,-1.857636 -3.793679,-1.784429 -1.865301,0.09151 -3.550379,1.418392 -4.11808,3.221122 -0.4866,1.564807 -0.09912,3.120462 0.342423,4.575457 0.432533,1.418392 0.8921,2.855086 1.333645,4.246025 2.027501,6.30498 4.118079,12.829582 3.766646,19.363335 -0.009,0.228772 0.03604,0.448394 0.126155,0.649715 0,0.265376 -0.09011,1.153015 -0.811,3.486498 -0.126156,0.393489 -0.396489,0.89679 -0.666823,1.381788 -0.360444,0.649715 -0.7299,1.317732 -0.928144,2.022352 -2.577179,2.836784 -6.100525,6.616111 -10.380805,10.962796 l -0.11714,-1.528203 c 0.883089,-1.006601 1.3787,-2.479898 1.775189,-3.687819 0.126156,-0.375187 0.252312,-0.750375 0.378467,-1.079808 0.126156,-0.338583 0.252311,-0.631413 0.387478,-0.832733 0.342423,-0.539904 0.720889,-1.061506 1.12639,-1.60141 0.423522,-0.576507 0.865067,-1.171317 1.261556,-1.80273 2.523112,-4.026402 2.928612,-8.858085 3.280045,-13.131562 0.04506,-0.576508 0.117145,-1.445845 -0.333411,-2.260276 -0.594733,-1.079808 -1.93739,-1.628863 -3.271035,-1.345184 -0.01802,0 -0.03604,0.0092 -0.04506,0.0092 l 0.4055,-3.266877 c 0.09912,-0.796129 0.252311,-2.00405 -0.369456,-3.083858 -0.414511,-0.704621 -1.099356,-1.217072 -1.928378,-1.427543 -0.946167,-0.237924 -1.991457,-0.09151 -2.802457,0.411791 -1.027267,0.631413 -1.77519,1.720372 -2.153656,3.111311 -0.126156,-0.430093 -0.252312,-0.841884 -0.378467,-1.262826 -0.270334,-0.860186 -0.522645,-1.674617 -0.684845,-2.4982 -0.1622,-0.777827 -0.2433,-1.592259 -0.333411,-2.443294 -0.09912,-0.970046 -0.207251,-1.976646 -0.432529,-2.983247 -0.558689,-2.498199 -1.829256,-4.355835 -3.568401,-5.252625 -0.4055,-0.210471 -0.892101,-0.183018 -1.279579,0.07321 -0.874078,0.576507 -1.594967,1.363486 -2.117612,2.260276 -0.459566,-0.79613 -0.865067,-1.619712 -1.207489,-2.479898 -0.153189,-0.39349 -0.4866,-0.677168 -0.883089,-0.777828 -0.396489,-0.10066 -0.829023,0 -1.135401,0.274527 l -1.126389,0.979148 -2.793446,-2.791029 c -0.207255,-0.20132 -0.513633,-0.521602 -0.991222,-0.695469 -0.540667,-0.20132 -1.171445,-0.164717 -1.766179,0.10066 -1.414745,0.631413 -2.270801,2.315181 -2.090578,4.090459 0.144177,1.381788 0.829022,2.580558 1.369689,3.541404 l 0.720889,1.262826 c -1.531889,0.750375 -3.117845,1.381788 -4.748857,1.885088 -0.4055,0.128113 -0.7208894,0.448395 -0.847045,0.860186 -0.1261556,0.40264 -0.054067,0.851035 0.207256,1.189619 1.045289,1.363486 2.225745,2.891689 3.829723,3.962346 0.369456,0.247075 0.747923,0.457546 1.099356,0.658866 0.441545,0.247074 0.856056,0.475847 1.20749,0.750375 0.5677,0.430093 1.0543,1.015751 1.576945,1.628862 1.432767,1.702071 2.892568,3.449895 4.136102,5.307531 -3.189935,-2.534803 -6.767348,-4.868287 -10.948505,-5.115361 -1.5949672,-0.09151 -2.7664122,0.594809 -3.0637789,1.793579 -0.3244002,1.308581 0.630778,2.30603 0.9822115,2.690369 l 2.6402564,2.763576 c 0.342423,0.356886 0.774956,0.814431 0.847045,1.180468 0.135167,0.594809 -0.684845,1.390939 -2.153656,2.123012 -0.3244005,0.155566 -0.5586895,0.448395 -0.6668229,0.79613 -0.1081334,0.347734 -0.063078,0.722922 0.1171445,1.034053 1.0813334,1.885088 2.9556454,3.358385 5.7310684,4.493099 0.765945,0.320282 1.549912,0.585658 2.306846,0.860186 1.2976,0.457546 2.523112,0.887639 3.658513,1.50075 1.757167,0.942544 3.325101,2.351785 4.838968,3.715271 0.351434,0.311131 0.811001,0.79613 1.297601,1.308581 1.847278,1.958295 4.145113,4.374137 6.46998,4.374137 h 0.009 l 0.198245,2.763576 c -7.36207,7.339031 -16.634507,16.0324 -27.0693781,24.551901 -0.549678,0.457546 -0.6397891,1.271978 -0.1982445,1.839334 0.2523112,0.320282 0.6307781,0.484999 1.0002338,0.484999 0.2793445,0 0.5677002,-0.09151 0.8019892,-0.283679 C 18.896838,90.106965 27.980042,81.633218 35.279045,74.385694 l 2.847512,1.034053 c -0.0811,1.244525 0.576712,2.351786 1.090345,3.221122 0.153189,0.256226 0.306378,0.503301 0.4055,0.722923 0.630778,1.271977 1.180456,2.617161 1.730134,3.925742 0.153189,0.356886 0.297367,0.722922 0.450556,1.079808 1.631012,3.889138 3.622468,7.814881 7.055703,10.221571 0.351434,0.237924 0.792978,0.292829 1.180456,0.146415 0.396489,-0.155566 0.684845,-0.49415 0.783967,-0.915092 0.04506,-0.183018 0.126156,-0.356885 0.234289,-0.521602 1.847279,1.830183 3.892802,3.449895 6.100525,4.813381 0.576711,0.356886 1.3787,0.668017 2.171679,0.668017 0.270333,0 0.540667,-0.0366 0.792978,-0.118962 0.603744,-0.20132 1.063311,-0.631413 1.315622,-1.217072 0.459567,-1.10726 -0.135166,-2.177917 -0.360444,-2.580557 -1.640023,-2.919142 -3.622468,-5.636964 -5.911291,-8.116861 -0.03605,-0.04575 -0.0811,-0.09151 -0.117145,-0.128113 3.523346,2.333483 6.695258,5.161115 9.434637,8.40969 0.288356,0.338584 0.738912,0.512451 1.180456,0.439244 0.540667,-0.09151 1.000234,-0.411791 1.297601,-0.89679 0.351433,-0.585658 0.432533,-1.390939 0.198244,-2.10471 -0.06308,-0.210471 -0.144177,-0.393489 -0.216266,-0.558206 -0.03605,-0.08236 -0.0811,-0.20132 -0.117145,-0.283678 0.180223,-0.05491 0.513634,-0.06406 0.811001,0.0366 0.783967,0.265376 1.495845,0.777827 2.000467,1.436693 1.495845,1.949145 2.874546,2.452445 4.100057,1.50075 0.684845,-0.530753 0.865067,-1.326882 0.955179,-1.756975 l 0.387477,-1.756976 c 1.423757,0.30198 2.856524,0.668017 4.244236,1.107261 l 0.117144,0.0366 c 0.883089,0.283679 1.883323,0.59481 2.99169,0.457546 1.342656,-0.164716 2.820479,-1.226223 2.928613,-2.855085 0.03604,-0.558206 -0.288356,-1.079808 -0.80199,-1.290279 -1.676067,-0.686319 -3.198945,-1.720372 -4.460502,-3.019802 1.04529,-0.585659 1.928379,-1.445844 2.532124,-2.489049 0.216267,-0.384338 0.234289,-0.851035 0.03604,-1.244524 -0.198244,-0.393489 -0.576711,-0.658866 -1.009245,-0.70462 -1.7842,-0.201321 -3.496312,-0.878488 -4.938091,-1.958296 0.594734,-0.658866 1.153423,-1.354335 1.676068,-2.068107 0.216267,-0.283678 0.297367,-0.649715 0.234289,-0.997449 -0.06308,-0.347735 -0.252311,-0.658866 -0.549678,-0.860186 -2.18069,-1.4916 -4.802925,-1.217072 -7.118781,-0.979148 -0.594734,0.06406 -1.144412,0.118962 -1.69409,0.155565 -1.712111,0.10066 -3.442246,-0.10066 -5.100291,-0.594809 0.387478,-0.384339 0.80199,-0.704621 1.252545,-0.887639 0.396489,-0.155565 0.88309,-0.237924 1.387712,-0.320282 0.315389,-0.04575 0.639789,-0.10066 0.9732,-0.183018 2.360912,-0.530753 4.469513,-2.132163 5.649969,-4.282628 0.297367,-0.539904 0.180223,-1.217072 -0.279344,-1.619712 -1.414745,-1.262826 -3.23499,-1.079808 -4.820947,-0.933393 -0.847044,0.08236 -1.522878,0.128113 -2.0275,0.04575 0.180222,-0.411791 0.333411,-0.869337 0.378466,-1.363486 0.117145,-1.281128 -0.612755,-2.791029 -2.0275,-3.111311 -0.621767,-0.137264 -1.180457,-0.0183 -1.69409,0.137264 -3.207957,0.979148 -5.956347,2.937443 -8.497481,4.868286 l -0.666823,0.503301 c -1.099356,0.832733 -2.207723,1.683768 -3.352135,2.461596 -1.153422,0.777827 -2.333878,1.473297 -3.568401,2.00405 -0.513634,0.219622 -1.513867,0.347735 -2.469046,0.475847 -1.811234,0.237924 -3.80269,0.503301 -5.055235,1.528203 l -2.036508,-0.741213 c 4.613691,-4.648664 8.416381,-8.71167 11.200816,-11.768076 1.982445,-0.5033 3.919835,-1.345184 5.803158,-2.150465 0.865067,-0.375187 1.685078,-0.732073 2.514101,-1.052355 1.144411,-0.448395 2.324867,-0.90594 3.487301,-1.079808 1.540901,-0.228773 3.135868,0.0092 4.820947,0.256226 0.297367,0.04575 0.594733,0.09151 0.8921,0.128113 2.153657,0.30198 4.352369,0.466696 6.533058,0.5033 2.937624,0.0366 4.938091,-1.253675 5.09128,-3.294329 0.02703,-0.402641 -0.02703,-0.777828 -0.06308,-1.079808 -0.01802,-0.09151 -0.03605,-0.210471 -0.03605,-0.311131 0.234289,0.0092 0.594734,0.08236 0.829023,0.118962 0.414511,0.08236 0.847044,0.155565 1.2976,0.164716 0.01802,0 0.04506,0 0.06308,0 1.757167,0 3.325101,-1.363486 3.586424,-3.120462 0.144178,-0.969997 -0.117145,-1.939994 -0.657812,-2.70867 0.531656,-0.164717 1.144412,-0.283679 1.766179,-0.39349 0.306378,-0.0549 0.603745,-0.109811 0.901111,-0.173867 2.153657,-0.448395 4.496547,-1.80273 4.622702,-4.255175 0.02703,-0.521602 -0.252311,-1.006601 -0.711878,-1.235374 -2.919601,-1.473297 -6.379869,-1.756975 -9.506726,-0.777827 -0.711878,0.219621 -1.387712,0.5033 -2.045523,0.777827 -0.928145,0.384339 -1.802223,0.750375 -2.694323,0.924243 -1.153423,0.219622 -2.658279,0.0092 -3.234991,-0.988299 0.05407,-0.04575 0.126156,-0.10066 0.216267,-0.173868 4.694791,-3.477347 9.85816,-6.240923 15.336918,-8.20837 l 0.03604,-0.0183 c 1.027267,-0.375187 2.306845,-0.832733 3.162901,-1.930843 0.612756,-0.777827 0.847045,-1.866786 0.630778,-2.836783 -0.189233,-0.832733 -0.675833,-1.482448 -1.3787,-1.830183 -0.666823,-0.329433 -1.333645,-0.311131 -1.838268,-0.292829 -0.0811,0 -0.1622,0 -0.252311,0.0092 h -0.03604 c -0.991223,0 -2.000468,-0.366037 -2.775424,-1.015752 -0.135166,-0.118962 -0.198244,-0.183018 -0.216266,-0.219622 0.009,-0.05491 0.04506,-0.164716 0.135166,-0.30198 0.504623,-0.786979 1.549912,-1.125562 2.766413,-1.509901 z"
     id="path12107"
     style="stroke-width:4;fill:#008000;stroke:#000000;stroke-dasharray:none;stroke-linecap:round;paint-order:stroke markers fill;stroke-linejoin:round" /></svg>
