<?xml version="1.0" encoding="UTF-8" standalone="no"?>
<svg
   version="1.1"
   viewBox="-5.0 -10.0 110.0 135.0"
   id="svg23032"
   sodipodi:docname="peppers.svg"
   inkscape:version="1.2.2 (b0a8486541, 2022-12-01)"
   xmlns:inkscape="http://www.inkscape.org/namespaces/inkscape"
   xmlns:sodipodi="http://sodipodi.sourceforge.net/DTD/sodipodi-0.dtd"
   xmlns:xlink="http://www.w3.org/1999/xlink"
   xmlns="http://www.w3.org/2000/svg"
   xmlns:svg="http://www.w3.org/2000/svg">
  <defs
     id="defs23036">
    <inkscape:path-effect
       effect="fill_between_many"
       method="originald"
       linkedpaths="#g23026,0,1|"
       id="path-effect23155" />
    <inkscape:path-effect
       effect="fill_between_many"
       method="originald"
       linkedpaths="#path9097,0,1"
       id="path-effect9230"
       is_visible="true"
       lpeversion="0"
       join="true"
       close="true"
       autoreverse="true" />
    <linearGradient
       inkscape:collect="always"
       xlink:href="#linearGradient27081"
       id="linearGradient27083"
       x1="35.594311"
       y1="58.23547"
       x2="17.58655"
       y2="66.705414"
       gradientUnits="userSpaceOnUse" />
    <linearGradient
       inkscape:collect="always"
       id="linearGradient27081">
      <stop
         style="stop-color:#ff6600;stop-opacity:1;"
         offset="0"
         id="stop27077" />
      <stop
         style="stop-color:#ff0000;stop-opacity:1;"
         offset="1"
         id="stop27079" />
    </linearGradient>
  </defs>
  <sodipodi:namedview
     id="namedview23034"
     pagecolor="#ffffff"
     bordercolor="#000000"
     borderopacity="0.25"
     inkscape:showpageshadow="2"
     inkscape:pageopacity="0.0"
     inkscape:pagecheckerboard="0"
     inkscape:deskcolor="#d1d1d1"
     showgrid="false"
     inkscape:zoom="5.837037"
     inkscape:cx="55.250635"
     inkscape:cy="67.5"
     inkscape:window-width="1857"
     inkscape:window-height="1011"
     inkscape:window-x="0"
     inkscape:window-y="0"
     inkscape:window-maximized="1"
     inkscape:current-layer="svg23032" />
  <g
     id="g30339"
     transform="translate(-17.1696,-13.062392)">
    <path
       inkscape:original-d="M 0,0"
       inkscape:path-effect="#path-effect9230"
       d="m 84.658,34.1524 c -1.9523,-4.23 -5.0435,-6.3451 -10.087,-6.8332 -1.627,-0.1627 -3.2539,-0.1626 -4.7182,0.1627 -1.1388,-2.115 -3.2538,-4.0673 -6.0196,-4.8808 -3.4166,-1.1388 -7.1585,-0.8134 -10.5751,0.9762 -1.3016,-5.2062 -0.8135,-13.0155 -0.3254,-16.26941 0,-0.32539 0,-0.48808 -0.1627,-0.81347 C 52.2819,5.68095 50.9803,4.54206 48.8653,5.19284 46.7503,5.84361 45.2861,7.95867 45.1234,8.12136 44.9607,8.44675 44.798,8.7721 44.9607,9.09748 45.6114,12.6768 46.0995,20.1607 44.6353,25.855 h -0.1627 c -1.9524,-0.9762 -8.7855,-3.5793 -13.3409,1.7897 -1.4643,-0.3254 -3.0912,-0.3254 -4.8808,-0.1628 -10.4125,0.9762 -13.6664,9.4363 -11.714,30.0985 1.4642,15.6186 7.4839,33.5149 19.1979,33.5149 0.3254,0 0.4881,0 0.8135,0 2.115,-0.1626 4.0673,-0.6508 5.5315,-1.4642 2.4405,3.5792 5.857,5.3689 10.2498,5.3689 4.7181,0 8.2974,-1.7897 10.9005,-5.2062 1.3015,0.6507 2.7658,1.1389 4.8808,1.3015 0.1627,0 0.4881,0 0.6508,0 11.7139,0 17.7336,-17.8963 19.1979,-33.5149 1.4642,-11.2259 0.9761,-18.7099 -1.3016,-23.428 z"
       id="path9232"
       class="UnoptimicedTransforms" />
    <path
       d="m 84.658,34.1524 c -1.9523,-4.23 -5.0435,-6.3451 -10.087,-6.8332 -1.627,-0.1627 -3.2539,-0.1626 -4.7182,0.1627 -1.1388,-2.115 -3.2538,-4.0673 -6.0196,-4.8808 -3.4166,-1.1388 -7.1585,-0.8134 -10.5751,0.9762 -1.3016,-5.2062 -0.8135,-13.0155 -0.3254,-16.26941 0,-0.32539 0,-0.48808 -0.1627,-0.81347 C 52.2819,5.68095 50.9803,4.54206 48.8653,5.19284 46.7503,5.84361 45.2861,7.95867 45.1234,8.12136 44.9607,8.44675 44.798,8.7721 44.9607,9.09748 45.6114,12.6768 46.0995,20.1607 44.6353,25.855 h -0.1627 c -1.9524,-0.9762 -8.7855,-3.5793 -13.3409,1.7897 -1.4643,-0.3254 -3.0912,-0.3254 -4.8808,-0.1628 -10.4125,0.9762 -13.6664,9.4363 -11.714,30.0985 1.4642,15.6186 7.4839,33.5149 19.1979,33.5149 0.3254,0 0.4881,0 0.8135,0 2.115,-0.1626 4.0673,-0.6508 5.5315,-1.4642 2.4405,3.5792 5.857,5.3689 10.2498,5.3689 4.7181,0 8.2974,-1.7897 10.9005,-5.2062 1.3015,0.6507 2.7658,1.1389 4.8808,1.3015 0.1627,0 0.4881,0 0.6508,0 11.7139,0 17.7336,-17.8963 19.1979,-33.5149 1.4642,-11.2259 0.9761,-18.7099 -1.3016,-23.428 z M 63.0197,24.7161 c 1.9524,0.6508 3.4166,1.9524 4.3927,3.2539 -2.2777,0.8135 -4.23,2.2777 -6.0196,4.3928 -1.4643,-0.8135 -3.0912,-1.1389 -4.7182,-1.4643 0.6508,-1.6269 1.7897,-2.7658 1.7897,-2.7658 0.488,-0.4881 0.4881,-1.1389 0.1627,-1.7896 -0.4881,-0.4881 -1.1389,-0.4881 -1.7897,-0.1627 0,0 -0.6507,0.4881 -1.3015,1.4643 -0.6508,-0.4881 -1.1389,-1.1389 -1.627,-2.1151 3.2539,-1.3016 6.3451,-1.7896 9.1109,-0.8135 z M 47.4011,9.09748 c 0.4881,-0.48808 1.3015,-1.46424 2.2777,-1.62694 0.3254,-0.16269 0.6508,-0.16269 0.8135,0 -0.3254,2.76576 -1.3016,12.03936 0.9761,18.22176 0,0 0,0 0,0.1627 0.6508,1.7896 1.627,3.4166 3.0912,4.3927 -0.1627,0.3254 -0.1627,0.4881 -0.3254,0.8135 -0.4881,0 -0.9761,0 -1.4642,0 -2.6031,0 -6.3451,0.4881 -9.7617,2.6031 L 42.8456,33.5016 C 49.8415,27.97 47.8892,12.3514 47.4011,9.09748 Z m 3.0912,83.29942 c -3.9047,0 -6.8332,-1.627 -8.9482,-5.2062 -1.1389,-1.7897 -1.9524,-4.0674 -2.6031,-6.8332 -0.1627,-0.6508 -0.8135,-0.9761 -1.4643,-0.8134 -0.6507,0.1626 -0.9761,0.8134 -0.8134,1.4642 0.6507,2.6031 1.4642,4.7181 2.4404,6.5078 -1.3016,0.6507 -2.7658,0.9761 -4.5554,1.1388 C 24.7866,89.3057 18.7669,73.3617 17.14,57.4177 15.0249,35.4539 19.255,30.5731 26.5762,29.9224 c 3.2539,-0.3254 5.857,0.1627 8.1347,1.6269 0.6508,0.3254 1.3016,0.1627 1.627,-0.3254 0.3253,-0.4881 0.1627,-1.3016 -0.3254,-1.6269 -0.6508,-0.4881 -1.3016,-0.8135 -2.1151,-1.1389 3.0912,-2.7658 7.3213,-1.6269 9.599,-0.4881 0.1627,0 0.3254,0.1627 0.3254,0.1627 -0.8135,1.7896 -1.9523,3.2539 -3.5792,4.0674 0,0 -0.1628,0 -0.1628,0.1627 0,0 -0.1627,0 -0.1627,0.1627 l -0.1627,0.1626 c 0,0 0,0.1627 -0.1627,0.1627 0,0.1627 0,0.1627 0,0.3254 v 0.3254 c 0,0.1627 0,0.1627 0,0.3254 0,0.1627 0.1627,0.1627 0.1627,0.3254 0.1627,0.1627 0.1628,0.1627 0.3254,0.1627 0.3254,0.1627 0.4881,0.3254 0.8135,0.6508 -2.115,1.7896 -3.9046,4.5554 -4.8808,8.2973 -0.1627,0.6508 0.1627,1.3016 0.8135,1.4643 0.6507,0.1627 1.3015,-0.1627 1.4642,-0.8134 2.4404,-9.1109 9.9243,-10.4125 14.3171,-10.4125 3.7419,0 7.4839,0.4881 10.087,3.4166 3.5793,3.9046 4.8808,11.7139 3.742,23.4279 -1.9524,23.2653 -6.3451,32.0508 -15.944,32.0508 z M 83.8446,57.2549 C 81.5668,81.0083 72.944,88.9803 66.4363,88.4922 c -1.627,-0.1627 -2.7658,-0.4881 -3.742,-0.9761 3.5793,-6.0197 5.2062,-15.2933 6.3451,-27.17 1.1388,-12.5274 -0.3254,-20.8248 -4.3927,-25.3802 -0.3254,-0.4881 -0.8135,-0.8135 -1.3016,-1.1389 2.7658,-3.2539 6.1824,-4.5554 10.7378,-4.0673 4.2301,0.488 6.6705,1.9523 8.1347,5.3688 2.2777,4.2301 2.6031,11.5513 1.627,22.1264 z"
       fill="#000000"
       id="path9097"
       class="UnoptimicedTransforms" />
    <path
       d="m 80.9161,65.0643 c -0.6508,-0.1627 -1.3016,0.1627 -1.4643,0.8135 -3.5793,11.8766 -7.1585,18.059 -11.3886,18.8724 -0.6508,0.1627 -1.1388,0.8136 -0.9761,1.4643 0.1627,0.6508 0.6507,0.9762 1.1388,0.9762 h 0.1627 c 5.2062,-0.9762 9.2736,-7.3212 13.1783,-20.4995 0.3254,-0.8134 0,-1.4642 -0.6508,-1.6269 z"
       fill="#000000"
       id="path9099" />
    <path
       d="m 33.2467,84.5876 c -3.742,-0.8135 -7.3212,-5.5316 -9.2735,-12.2021 -0.1627,-0.6507 -0.8136,-0.9761 -1.4643,-0.8134 -0.6508,0.1627 -0.9762,0.8134 -0.8135,1.4642 2.115,7.6466 6.3451,12.8528 11.0632,13.9917 0.1627,0 0.1627,0 0.3254,0 0.4881,0 0.9762,-0.3254 1.1389,-0.9762 0.1627,-0.6507 -0.3254,-1.3015 -0.9762,-1.4642 z"
       fill="#000000"
       id="path9101" />
    <path
       style="fill:url(#linearGradient27083);fill-opacity:1;stroke-width:0.158629"
       d="m 38.291659,26.699938 c -1.595726,-0.01211 -3.204581,0.620048 -4.405374,1.635246 0.275406,0.601473 1.242037,0.64239 1.722306,1.115673 0.792069,0.378788 1.082623,1.521773 0.293094,2.053198 -1.100432,0.318715 -2.064551,-0.710787 -3.080571,-1.001348 -2.341342,-0.946156 -4.949593,-0.67573 -7.408801,-0.528868 -3.165,0.370163 -5.939814,2.596627 -7.09526,5.55141 -2.167356,5.27903 -1.770342,11.13032 -1.652596,16.710002 0.518051,8.649292 1.837545,17.400322 5.275358,25.411383 1.782553,3.895238 4.124047,7.925609 7.982283,10.07204 2.740567,1.487958 6.12449,1.203845 8.908965,0.01642 0.47961,-0.69402 -0.400866,-1.514358 -0.539404,-2.198505 -0.64108,-1.695894 -1.467519,-3.434073 -1.505739,-5.266064 0.365384,-0.951715 1.968163,-0.792957 2.040186,0.279151 1.062092,3.773252 2.515344,7.801314 5.823745,10.200927 3.090725,2.136767 7.290998,2.207284 10.685179,0.77022 3.536721,-1.604732 5.72365,-5.076373 7.035762,-8.594505 2.571089,-6.903095 3.298412,-14.310863 4.09038,-21.583532 0.351713,-5.022994 0.534323,-10.089261 0.06715,-15.10974 -0.696145,-4.071083 -2.022887,-8.572743 -5.65737,-10.977033 -2.952934,-1.877023 -6.641757,-1.924168 -10.022777,-1.746393 -4.18395,0.246744 -8.370706,2.248233 -10.663803,5.845973 -1.115506,1.554657 -1.480428,3.485337 -2.410114,5.122305 -0.87619,0.594991 -2.109494,-0.49846 -1.598688,-1.455858 0.825611,-2.798348 2.159219,-5.488749 4.279897,-7.547292 0.670709,-0.478441 0.01656,-1.222583 -0.562949,-1.322325 -0.467484,-0.834888 0.05854,-1.91534 0.957354,-2.195716 1.315344,-0.934079 2.444919,-2.282781 2.99444,-3.792236 -0.775555,-0.725609 -1.966161,-0.892588 -2.955094,-1.229068 -0.849108,-0.198862 -1.727687,-0.253785 -2.597557,-0.235465 z m -15.39604,44.913818 c 0.989139,0.217124 1.098203,1.51498 1.47135,2.27813 1.399944,3.900328 3.459708,7.96559 7.171166,10.118204 0.743918,0.574264 2.011042,0.45515 2.479825,1.342773 0.382429,0.840362 -0.375225,1.75672 -1.26129,1.485912 -3.079691,-0.616056 -5.369198,-3.068821 -7.167758,-5.472406 -1.63652,-2.610669 -3.054435,-5.424438 -3.763422,-8.435244 -0.164678,-0.649854 0.408518,-1.338094 1.070129,-1.317369 z"
       id="path9234" />
    <path
       style="fill:#d40000;stroke-width:0.158629"
       d="m 72.146963,29.623738 c -3.164735,-0.06715 -6.252712,1.286467 -8.418784,3.58139 -1.070408,0.559141 0.256709,1.125152 0.654926,1.65617 3.211865,3.620132 4.393121,8.633395 4.724461,13.345177 0.123989,5.50741 0.170684,11.028565 -0.629219,16.486144 -0.993414,7.766206 -2.035273,15.769391 -5.81476,22.745974 0.682291,0.700633 1.895128,0.795788 2.864934,1.010024 2.993561,0.556948 6.002645,-0.744191 8.158444,-2.77954 4.489285,-4.21133 6.656363,-10.230995 8.185346,-16.047173 1.84132,-7.541599 2.562449,-15.334277 2.571739,-23.08612 -0.09284,-4.883968 -0.630503,-10.188703 -3.84852,-14.109076 -2.130459,-2.272941 -5.480381,-2.7933 -8.448567,-2.80297 z m 8.488843,35.486522 c 0.775411,0.118625 1.171577,0.958408 0.798106,1.652286 -1.770838,5.623921 -3.603664,11.423901 -7.1486,16.216472 -1.505379,1.903901 -3.532493,3.820386 -6.066287,4.034188 -1.050021,0.02055 -1.418599,-1.587622 -0.401221,-1.994642 1.422516,-0.517389 2.834381,-1.17877 3.860087,-2.343811 3.15747,-3.408928 4.820486,-7.876714 6.355489,-12.185322 0.697221,-1.719972 0.966241,-3.678857 2.045054,-5.212796 0.14929,-0.139781 0.360105,-0.17549 0.557372,-0.166375 z"
       id="path9236" />
    <path
       style="fill:#008000;stroke-width:0.158629"
       d="m 59.530345,24.164345 c -1.947435,-0.01114 -3.894243,0.531241 -5.633514,1.359814 0.05348,0.709175 0.770465,1.284956 1.187243,1.851813 0.675626,0.520048 1.178924,-0.656644 1.656624,-0.960762 0.688825,-0.781122 2.243323,-0.171322 1.967996,0.913359 -0.456299,1.317758 -1.781754,2.190172 -2.122598,3.558938 1.554502,0.472066 3.202164,0.795537 4.685765,1.52433 1.06367,-0.608635 1.784428,-1.786063 2.825277,-2.486641 1.018043,-0.856221 2.29227,-1.320229 3.384818,-2.020976 -1.830002,-2.410963 -4.87596,-3.978789 -7.951611,-3.739875 z"
       id="path9238" />
    <path
       style="fill:#008000;stroke-width:0.158629"
       d="m 50.37848,7.1838689 c -1.224855,0.2037482 -2.373061,0.9018104 -3.056095,1.930198 0.794167,6.4276671 1.141888,13.1950551 -1.143248,19.3794371 -0.682687,1.925511 -1.930018,3.569816 -3.340203,5.012318 0.310652,0.489481 1.051494,-0.378719 1.50574,-0.43685 2.893772,-1.53869 6.197474,-1.846497 9.404991,-1.972644 0.658351,0.08423 1.105704,-0.747205 0.517715,-1.15688 -2.638877,-2.304913 -3.307341,-5.957987 -3.825047,-9.240085 -0.570816,-4.421976 -0.312799,-8.92341 0.121731,-13.3559352 0.02008,-0.1067813 -0.09606,-0.1805784 -0.185584,-0.1595589 z"
       id="path9240" />
    <path
       style="fill:#d40000;fill-opacity:1;stroke-width:0.158629"
       d="m 59.425935,23.973494 c -1.956711,0.03757 -4.010928,0.433785 -5.649625,1.539201 -0.18481,0.690479 0.622058,1.268339 0.996082,1.779005 0.724685,0.771813 1.59835,-0.272942 2.141187,-0.740787 0.587,-0.680678 2.031292,0.05337 1.416202,0.937834 -0.517346,1.1746 -1.588591,2.09693 -1.918425,3.341133 1.011869,0.73897 2.409118,0.824786 3.566994,1.304045 0.595256,0.14395 1.244298,0.779159 1.777455,0.134464 1.580912,-1.319388 3.038233,-2.827487 4.958719,-3.676052 0.538249,-0.173067 1.153985,-0.82345 0.52484,-1.293511 -1.89045,-2.16604 -4.716443,-3.49828 -7.610185,-3.327811 l -0.158618,0.0019 z"
       id="path9242" />
    <path
       style="fill:#ff6600;fill-opacity:1;stroke-width:0.158629"
       d="m 72.000107,29.32321 c -3.252066,-0.04866 -6.398825,1.382569 -8.628151,3.727423 -1.08803,0.592062 0.126501,1.384962 0.591801,1.918824 3.090246,3.41078 4.316826,8.024067 4.691813,12.513143 0.375816,7.143364 0.03297,14.259154 -1.099566,21.316724 -0.858247,6.174516 -2.078081,12.404188 -4.941836,18.000067 -0.75006,0.839949 0.338486,1.38535 1.049218,1.569911 2.779764,0.949814 5.958557,0.624613 8.398375,-1.050301 4.934236,-3.342864 7.550733,-9.032197 9.2665,-14.553322 2.385919,-8.08773 3.430844,-16.550616 3.342483,-24.975151 -0.0029,-3.706211 0.0358,-7.511612 -1.323891,-11.024856 -1.002059,-2.815068 -2.749067,-5.750265 -5.79113,-6.655093 -1.781792,-0.596665 -3.68456,-0.787519 -5.555616,-0.787369 z m 8.61742,36.144896 c 1.059291,0.375019 0.248679,1.554162 0.12269,2.253344 -1.658147,5.170872 -3.425592,10.455143 -6.650353,14.857257 -1.578181,1.828809 -3.42361,3.928404 -6.021103,4.036996 -0.612936,-0.215681 -0.572249,-1.18202 0.118042,-1.287935 2.039212,-0.875593 3.88171,-2.218352 5.097698,-4.102519 3.109099,-4.319929 4.678794,-9.469757 6.399219,-14.439465 0.236645,-0.441387 0.420826,-1.129277 0.933807,-1.317678 z"
       id="path26383" />
    <path
       style="fill:#ff6600;fill-opacity:1;stroke-width:0.158629"
       d="m 59.328031,23.674825 c -1.963448,0.08468 -4.148863,0.331851 -5.706632,1.635866 -0.513579,0.862183 0.457063,1.724342 1.012811,2.297338 1.018175,0.786162 1.985413,-0.457472 2.80421,-0.924202 0.455434,-0.10571 0.996812,0.420225 0.475608,0.79027 -0.510329,1.099935 -1.544278,2.006948 -1.742165,3.223798 0.241064,0.884547 1.459377,0.903968 2.143046,1.300018 1.016853,0.248132 2.023556,0.901651 3.06632,0.8768 1.983509,-1.33085 3.641452,-3.125377 5.813211,-4.188809 0.705009,-0.328896 0.870424,-1.283397 0.184655,-1.735939 -1.910979,-2.173637 -4.763834,-3.410807 -7.659138,-3.279788 -0.130642,0.0015 -0.261284,0.0031 -0.391926,0.0046 z"
       id="path26385" />
  </g>
  <g
     id="g30756"
     transform="matrix(0.68508533,0,0,0.68508533,36.317898,45.278619)">
    <path
       inkscape:original-d="M 0,0"
       inkscape:path-effect="#path-effect23155"
       d="M 0,0"
       id="path23157"
       class="UnoptimicedTransforms"
       style="fill:#aa0000" />
    <g
       id="g23026"
       class="UnoptimicedTransforms">
      <path
         d="m 91.102,4.6211 c -8.7891,0 -16.09,5.7109 -17.531,13.18 -3.7109,-2.3594 -11.391,-6.1797 -16.828,-1.5586 -3.7891,3.2188 -6.0703,8.6289 -8.6992,14.91 -4.1289,9.8281 -9.2812,22.07 -22.621,31.199 -16.832,11.5 -23.094,17.418 -23.934,22.598 -0.35156,2.1484 0.25,4.2188 1.8398,6.3281 1.4609,1.9297 5.0898,3.8281 11.32,3.8281 7.1797,0 17.801,-2.5195 32.512,-10.398 13.73,-7.3594 37.43,-24.828 39.16,-43.68 0.53906,-5.9297 -1.1914,-11.398 -5.1289,-16.32 0.28906,-5.0703 5.0586,-9.1289 10.879,-9.1289 1.8281,0 3.2891,-0.42969 4.3281,-1.2695 1.0312,-0.82031 1.6016,-2.0078 1.6016,-3.3477 0,-2.9922 -2.9492,-6.3398 -6.8984,-6.3398 z m -7.7734,36.129 c -1.3984,15.301 -20.469,32.129 -37.59,41.309 -26.512,14.199 -38.07,10 -40.031,7.4102 -1.1016,-1.4492 -1.4883,-2.6992 -1.2695,-4.0312 0.67188,-4.1406 7.0312,-9.9219 22.66,-20.609 14.094,-9.6367 19.422,-22.328 23.703,-32.527 2.4883,-5.9219 4.6289,-11.031 7.8789,-13.781 1.2383,-1.0508 2.7109,-1.4609 4.2383,-1.4609 5.1016,0 10.871,4.5312 10.941,4.5898 6.9414,5.5625 10.129,11.98 9.4688,19.102 z m 11.203,-28.781 c -0.48828,0.39062 -1.3594,0.60156 -2.4609,0.60156 -6.4102,0 -11.809,3.9609 -13.422,9.3281 -0.71875,-0.71094 -1.5,-1.4102 -2.3203,-2.0898 0.39844,-6.7812 6.8594,-12.199 14.77,-12.199 2.3398,0 3.8984,2.0117 3.8984,3.3398 0.0039,0.44141 -0.14453,0.76953 -0.46484,1.0195 z"
         id="path23022" />
      <path
         d="m 65.211,23.789 c -0.78125,-0.28125 -1.6406,0.12109 -1.9219,0.89844 -0.08984,0.23828 -8.9688,24.398 -22.309,36.422 -5.2305,4.7109 -10.82,8.0898 -15.762,11.07 -3.0195,1.8281 -5.6406,3.3984 -7.7188,5.0117 -0.64844,0.51172 -0.76953,1.4492 -0.26953,2.1094 0.30078,0.37891 0.73828,0.57812 1.1914,0.57812 0.32031,0 0.64844,-0.10156 0.92188,-0.30859 1.9414,-1.5117 4.4805,-3.0391 7.4297,-4.8203 4.8008,-2.8984 10.781,-6.5 16.219,-11.41 13.898,-12.531 22.75,-36.609 23.121,-37.629 0.27734,-0.78125 -0.125,-1.6406 -0.90234,-1.9219 z"
         id="path23024" />
    </g>
    <path
       style="fill:#d40000;stroke-width:0.17132"
       d="m 67.234989,27.102658 c -2.697823,-0.04482 -4.718504,2.220567 -6.145899,4.250111 -3.762757,5.978817 -5.903617,12.786733 -9.029957,19.08552 -4.014298,8.639438 -9.756653,16.631357 -17.425938,22.39122 -7.229559,5.362697 -14.965285,10.161415 -21.405433,16.514099 -1.876804,2.013131 -4.1548106,4.428752 -3.8456608,7.40289 0.3993863,2.776926 3.0613828,4.544902 5.6538878,5.010102 3.259679,0.68037 6.638209,0.30726 9.921922,0.004 10.342879,-1.74197 19.936274,-6.35219 29.011498,-11.441099 9.490051,-5.534683 18.282298,-12.439077 25.382832,-20.8562 4.357606,-5.322163 8.237399,-11.503886 9.014644,-18.478176 0.428104,-4.74513 -0.76684,-9.680415 -3.741398,-13.455947 -3.686335,-4.750205 -8.606901,-8.953673 -14.591158,-10.326722 -0.925749,-0.13401 -1.86705,-0.0949 -2.79934,-0.100048 z m 2.560093,6.719283 c 1.14202,0.04504 1.501246,1.400076 1.00438,2.281424 -2.242085,6.154582 -5.142157,12.106876 -8.31912,17.849781 -4.928343,8.795992 -11.006108,17.202539 -19.260298,23.162991 -5.9944,4.465185 -12.585901,8.049809 -18.793589,12.184641 -0.652931,0.484633 -1.680818,0.639684 -2.124432,-0.190057 -0.757168,-0.761422 0.0944,-1.68339 0.74208,-2.14259 4.516899,-3.336213 9.53973,-5.922387 14.172173,-9.09802 5.694026,-3.679809 10.999565,-8.074518 15.062181,-13.543212 6.736796,-8.782585 11.745418,-18.759261 15.892108,-28.983891 0.33653,-0.687965 0.665853,-1.631881 1.624517,-1.521067 z"
       id="path23159"
       transform="translate(-5,-10)" />
    <path
       style="fill:#008000;stroke-width:0.17132"
       d="m 96.236554,17.397659 c -5.895581,-0.173373 -12.05229,3.09958 -14.337995,8.695149 -0.363073,1.246457 -1.193096,2.710257 -0.51764,3.97917 0.653789,0.773119 1.403696,1.584416 2.289729,2.047138 0.705928,-0.583187 0.69922,-1.722149 1.285902,-2.449672 1.949813,-3.330524 5.324294,-5.762542 9.130486,-6.468347 1.827314,-0.593336 3.96351,0.09021 5.615732,-1.06939 1.265672,-1.13462 0.149504,-2.960721 -0.891063,-3.809858 -0.705115,-0.625879 -1.619843,-1.01281 -2.575151,-0.92419 z"
       id="path23163"
       transform="translate(-5,-10)" />
  </g>
</svg>
