<?xml version="1.0" encoding="UTF-8" standalone="no"?>
<svg
   version="1.1"
   x="0px"
   y="0px"
   viewBox="0 0 100 125"
   style="enable-background:new 0 0 100 100;"
   xml:space="preserve"
   id="svg10147"
   sodipodi:docname="raspberries.svg"
   inkscape:version="1.2.2 (b0a8486541, 2022-12-01)"
   xmlns:inkscape="http://www.inkscape.org/namespaces/inkscape"
   xmlns:sodipodi="http://sodipodi.sourceforge.net/DTD/sodipodi-0.dtd"
   xmlns="http://www.w3.org/2000/svg"
   xmlns:svg="http://www.w3.org/2000/svg"><defs
     id="defs10151"><inkscape:path-effect
       effect="fill_between_many"
       method="originald"
       linkedpaths="#path10141,0,1|"
       id="path-effect10491" /><inkscape:path-effect
       effect="fill_between_many"
       method="originald"
       linkedpaths="#path10493,0,1|"
       id="path-effect16674" /></defs><sodipodi:namedview
     id="namedview10149"
     pagecolor="#ffffff"
     bordercolor="#000000"
     borderopacity="0.25"
     inkscape:showpageshadow="2"
     inkscape:pageopacity="0.0"
     inkscape:pagecheckerboard="0"
     inkscape:deskcolor="#d1d1d1"
     showgrid="false"
     showguides="false"
     inkscape:zoom="7.7489221"
     inkscape:cx="50.845781"
     inkscape:cy="68.138509"
     inkscape:window-width="1857"
     inkscape:window-height="1011"
     inkscape:window-x="0"
     inkscape:window-y="0"
     inkscape:window-maximized="1"
     inkscape:current-layer="svg10147" /><path
     inkscape:original-d="M 0,0"
     inkscape:path-effect="#path-effect16674"
     d="M 0,0 Z"
     id="path16676"
     class="UnoptimicedTransforms"
     style="fill:#8800aa" /><path
     inkscape:original-d="M 0,0"
     inkscape:path-effect="#path-effect10491"
     d="m 84.218622,81.516259 c 0,-2.000305 -1.02594,-3.880066 -2.683472,-4.986328 -0.004,-0.01581 -0.0063,-0.03204 -0.01044,-0.04785 1.014099,-1.101867 1.585511,-2.549194 1.585511,-4.062011 0,-2.768555 -1.880066,-5.111451 -4.485352,-5.788697 0.02441,-0.220825 0.04004,-0.443542 0.04004,-0.668823 0,-3.04425 -2.280456,-5.560059 -5.221741,-5.943603 -0.283752,-3.04657 -2.852172,-5.439698 -5.971618,-5.439698 -0.08978,0 -0.177918,0.0092 -0.267029,0.01306 -1.094544,-1.732483 -2.97461,-2.792359 -5.059143,-2.792359 -1.403809,0 -2.757691,0.502137 -3.827942,1.389038 -0.824341,-0.417541 -1.743469,-0.657104 -2.703308,-0.657104 -0.358948,0 -0.70874,0.03729 -1.050476,0.09802 -0.524719,-1.569946 -1.839051,-2.742187 -3.437805,-3.100524 0.101501,-0.340699 0.15332,-0.694886 0.175659,-1.05365 2.077514,-1.951416 3.160461,-4.192322 3.206177,-4.289063 0.231445,-0.490234 0.03027,-1.075683 -0.453125,-1.320312 -0.124939,-0.06329 -2.659302,-1.314453 -5.760132,-1.461365 1.462463,-2.44574 1.882751,-4.902039 1.907593,-5.05426 0.08594,-0.535156 -0.269532,-1.041504 -0.802735,-1.14209 -0.224609,-0.04199 -5.59082,-1.010254 -9.568359,1.782715 -1.159363,0.814453 -2.051575,1.849304 -2.743775,2.911072 0.209229,-2.406189 1.19574,-5.443787 4.531861,-7.273377 0.484375,-0.265625 0.662109,-0.873535 0.396484,-1.35791 -0.264648,-0.483399 -0.873047,-0.66211 -1.357422,-0.395996 -4.477234,2.455444 -5.495117,6.645385 -5.5932,9.635376 -0.733033,-1.268616 -1.737183,-2.549317 -3.117737,-3.519165 -3.978516,-2.793946 -9.341797,-1.824707 -9.567383,-1.782715 -0.533203,0.100586 -0.888672,0.606934 -0.802734,1.14209 0.02484,0.152221 0.44519,2.608398 1.907836,5.054138 -3.106262,0.146484 -5.634338,1.398071 -5.760376,1.461487 -0.483398,0.244629 -0.68457,0.830078 -0.453125,1.320312 0.04395,0.09174 1.072205,2.223938 3.046814,4.138977 0.01306,0.425537 0.07648,0.8443 0.200501,1.245728 -2.027527,0.527771 -3.5354,2.357727 -3.5354,4.547912 0,1.248658 0.501464,2.43396 1.35614,3.305664 -0.836609,0.851441 -1.35614,2.015687 -1.35614,3.300782 0,1.452698 0.658691,2.777527 1.756164,3.660461 -0.422607,0.706543 -0.680969,1.522583 -0.680969,2.403992 0,1.746704 0.965637,3.257324 2.380676,4.072265 -0.152588,0.469483 -0.240051,0.960267 -0.240051,1.456543 0,1.408509 0.633362,2.66034 1.615662,3.525269 0.106811,0.09833 0.219421,0.188355 0.335266,0.276733 0.07147,0.05212 0.140564,0.105408 0.214965,0.153504 0.357056,0.241821 0.746277,0.436584 1.167786,0.574524 -0.007,0.105102 -0.02411,0.208923 -0.02411,0.314697 0,2.600098 2.115235,4.71582 4.71582,4.71582 0.213868,0 0.425782,-0.01416 0.632813,-0.04199 0.01288,-0.0017 0.02258,-0.01001 0.03528,-0.01221 0.770691,1.557678 2.361084,2.641113 4.213745,2.641113 1.085938,0 2.120606,-0.382629 2.94635,-1.043579 0.444519,0.771179 1.067322,1.434754 1.816773,1.94867 0.270874,1.271972 0.948547,2.391967 1.886536,3.226745 -0.01502,0.174256 -0.04028,0.346741 -0.04028,0.522461 0,3.308594 2.691407,6 6,6 0.487183,0 0.966614,-0.06982 1.434998,-0.184875 1.056335,0.926452 2.435608,1.492981 3.947815,1.492981 0.443359,0 0.878662,-0.05585 1.302673,-0.150391 1.092407,1.757385 2.994995,2.84082 5.085999,2.84082 1.34552,0 2.614318,-0.466186 3.663086,-1.282287 0.568481,0.17749 1.167968,0.276428 1.785156,0.276428 1.574829,0 3.005432,-0.614563 4.076965,-1.610413 0.691223,0.269532 1.41864,0.414124 2.172058,0.414124 2.077332,0 3.910401,-1.061707 4.987732,-2.670288 0.526306,0.148071 1.064575,0.247925 1.618713,0.247925 3.308594,0 6,-2.691407 6,-6 0,-0.671753 -0.11322,-1.323548 -0.322448,-1.934998 1.694336,-1.094299 2.750183,-2.992371 2.750183,-5.043518 z"
     id="path10493"
     class="UnoptimicedTransforms"
     style="fill:#d40044;fill-opacity:1" /><path
     d="m 85.205719,68.266983 c 0,-2.000305 -1.02594,-3.880066 -2.683472,-4.986328 -0.004,-0.01581 -0.0063,-0.03204 -0.01044,-0.04785 1.014099,-1.101867 1.585511,-2.549194 1.585511,-4.062011 0,-2.768555 -1.880066,-5.111451 -4.485352,-5.788697 0.02441,-0.220825 0.04004,-0.443542 0.04004,-0.668823 0,-3.04425 -2.280456,-5.560059 -5.221741,-5.943603 -0.283752,-3.04657 -2.852172,-5.439698 -5.971618,-5.439698 -0.08978,0 -0.177918,0.0092 -0.267029,0.01306 -1.094544,-1.732483 -2.97461,-2.792359 -5.059143,-2.792359 -1.403809,0 -2.757691,0.502137 -3.827942,1.389038 -0.824341,-0.417541 -1.743469,-0.657104 -2.703308,-0.657104 -0.358948,0 -0.70874,0.03729 -1.050476,0.09802 -0.524719,-1.569946 -1.839051,-2.742187 -3.437805,-3.100524 0.101501,-0.340699 0.15332,-0.694886 0.175659,-1.05365 2.077514,-1.951416 3.160461,-4.192322 3.206177,-4.289063 0.231445,-0.490234 0.03027,-1.075683 -0.453125,-1.320312 -0.124939,-0.06329 -2.659302,-1.314453 -5.760132,-1.461365 1.462463,-2.44574 1.882751,-4.902039 1.907593,-5.05426 0.08594,-0.535156 -0.269532,-1.041504 -0.802735,-1.14209 -0.224609,-0.04199 -5.59082,-1.010254 -9.568359,1.782715 -1.159363,0.814453 -2.051575,1.849304 -2.743775,2.911072 0.209229,-2.406189 1.19574,-5.443787 4.531861,-7.273377 0.484375,-0.265625 0.662109,-0.873535 0.396484,-1.35791 -0.264648,-0.483399 -0.873047,-0.66211 -1.357422,-0.395996 -4.477234,2.455444 -5.495117,6.645385 -5.5932,9.635376 -0.733033,-1.268616 -1.737183,-2.549317 -3.117737,-3.519165 -3.978516,-2.793946 -9.341797,-1.824707 -9.567383,-1.782715 -0.533203,0.100586 -0.888672,0.606934 -0.802734,1.14209 0.02484,0.152221 0.44519,2.608398 1.907836,5.054138 -3.106262,0.146484 -5.634338,1.398071 -5.760376,1.461487 -0.483398,0.244629 -0.68457,0.830078 -0.453125,1.320312 0.04395,0.09174 1.072205,2.223938 3.046814,4.138977 0.01306,0.425537 0.07648,0.8443 0.200501,1.245728 -2.027527,0.527771 -3.5354,2.357727 -3.5354,4.547912 0,1.248658 0.501464,2.43396 1.35614,3.305664 -0.836609,0.851441 -1.35614,2.015687 -1.35614,3.300782 0,1.452698 0.658691,2.777527 1.756164,3.660461 -0.422607,0.706543 -0.680969,1.522583 -0.680969,2.403992 0,1.746704 0.965637,3.257324 2.380676,4.072265 -0.152588,0.469483 -0.240051,0.960267 -0.240051,1.456543 0,1.408509 0.633362,2.66034 1.615662,3.525269 0.106811,0.09833 0.219421,0.188355 0.335266,0.276733 0.07147,0.05212 0.140564,0.105408 0.214965,0.153504 0.357056,0.241821 0.746277,0.436584 1.167786,0.574524 -0.007,0.105102 -0.02411,0.208923 -0.02411,0.314697 0,2.600098 2.115235,4.71582 4.71582,4.71582 0.213868,0 0.425782,-0.01416 0.632813,-0.04199 0.01288,-0.0017 0.02258,-0.01001 0.03528,-0.01221 0.770691,1.557678 2.361084,2.641113 4.213745,2.641113 1.085938,0 2.120606,-0.382629 2.94635,-1.043579 0.444519,0.771179 1.067322,1.434754 1.816773,1.94867 0.270874,1.271972 0.948547,2.391967 1.886536,3.226745 -0.01502,0.174256 -0.04028,0.346741 -0.04028,0.522461 0,3.308594 2.691407,6 6,6 0.487183,0 0.966614,-0.06982 1.434998,-0.184875 1.056335,0.926452 2.435608,1.492981 3.947815,1.492981 0.443359,0 0.878662,-0.05585 1.302673,-0.150391 1.092407,1.757385 2.994995,2.84082 5.085999,2.84082 1.34552,0 2.614318,-0.466186 3.663086,-1.282287 0.568481,0.17749 1.167968,0.276428 1.785156,0.276428 1.574829,0 3.005432,-0.614563 4.076965,-1.610413 0.691223,0.269532 1.41864,0.414124 2.172058,0.414124 2.077332,0 3.910401,-1.061707 4.987732,-2.670288 0.526306,0.148071 1.064575,0.247925 1.618713,0.247925 3.308594,0 6,-2.691407 6,-6 0,-0.671753 -0.11322,-1.323548 -0.322448,-1.934998 1.694336,-1.094299 2.750183,-2.992371 2.750183,-5.043518 z m -12.019531,7.288879 c 0.285766,-0.698913 0.446289,-1.461914 0.446289,-2.262512 0,-0.719543 -0.136597,-1.430176 -0.38617,-2.098816 1.193238,-0.40094 2.217286,-1.166931 2.944031,-2.165344 0.582825,0.707703 0.906983,1.594605 0.906983,2.535645 0,2.175109 -1.746949,3.942443 -3.911133,3.991027 z m -5.553711,1.737488 c -1.269165,0 -2.428406,-0.583557 -3.193482,-1.597412 0.0083,-0.128906 0.01965,-0.257019 0.01965,-0.387939 0,-0.487305 -0.06879,-0.961304 -0.180237,-1.420838 0.293396,0.0437 0.590515,0.07269 0.893127,0.07269 2.044129,0 3.850403,-1.028992 4.934204,-2.594482 0.359803,0.07581 0.724305,0.125061 1.094788,0.133667 0.278809,0.553467 0.431946,1.168274 0.431946,1.794311 0,2.205567 -1.793945,4 -4,4 z m -5.173828,-1.985351 c 0,2.205566 -1.793946,4 -4,4 -1.97815,0 -3.633484,-1.440186 -3.938233,-3.372559 0.506104,-0.626892 0.871521,-1.366028 1.092835,-2.168091 0.322204,0.05371 0.650757,0.0885 0.987976,0.0885 1.653137,0 3.152161,-0.672058 4.238403,-1.757141 0.004,0.0029 0.0075,0.0063 0.01147,0.0093 0.181946,0.190124 0.374145,0.367004 0.577453,0.530151 0.64972,0.721558 1.030091,1.661377 1.030091,2.6698 z M 45.847321,72.179581 c 0,-2.205567 1.793945,-4 4,-4 0.262695,0 0.520691,0.02985 0.774292,0.07959 0.140258,2.093506 1.352905,3.896973 3.0979,4.856812 -0.427673,1.768677 -2.016113,3.063599 -3.872192,3.063599 -2.206055,0 -4,-1.794434 -4,-4.000001 z m -6.931824,-2.787659 c -0.431214,-0.647766 -0.680481,-1.413147 -0.680481,-2.212341 0,-2.205567 1.793945,-4 4,-4 1.380249,0 2.598816,0.702636 3.317993,1.768737 -0.274353,-0.03827 -0.549133,-0.07684 -0.829712,-0.07684 -2.79718,0 -5.146301,1.926453 -5.8078,4.520447 z m -3.349426,-7.301697 c -0.516602,0.53125 -1.208985,0.824219 -1.949219,0.824219 -1.498047,0 -2.716797,-1.218262 -2.716797,-2.71582 0,-0.586609 0.187378,-1.138672 0.53418,-1.606568 0.936096,-0.21405 1.784851,-0.708801 2.433532,-1.41803 0.313721,0.235291 0.648621,0.441834 1.015808,0.593934 0.03082,0.02289 0.05078,0.05505 0.08484,0.07471 0.840821,0.483886 1.363282,1.386718 1.363282,2.355957 0,0.04816 0.02081,0.08942 0.0274,0.135742 -0.254089,0.494873 -0.443054,1.027771 -0.551574,1.590088 -0.08484,0.04669 -0.170716,0.09259 -0.241455,0.165771 z m -6.948243,-3.020508 c 0,1.497559 -1.21875,2.715821 -2.71582,2.715821 -0.544617,0 -1.050232,-0.164734 -1.475891,-0.441956 -0.03516,-0.02478 -0.07105,-0.04858 -0.104919,-0.07495 -0.05475,-0.03949 -0.104126,-0.08521 -0.155701,-0.12854 -0.551697,-0.500611 -0.895325,-1.218628 -0.895325,-2.009339 0,-0.316467 0.07153,-0.615905 0.175293,-0.905944 0.106384,0.0072 0.207764,0.03192 0.315918,0.03192 1.150757,0 2.243286,-0.433227 3.091248,-1.169922 0.453735,0.519959 1.007568,0.947815 1.647339,1.229492 0.07068,0.244019 0.117858,0.494507 0.117858,0.753418 z m -7.516296,-9.417541 c -0.696594,-0.50592 -1.131165,-1.292847 -1.131165,-2.17572 0,-1.497559 1.21875,-2.715821 2.715821,-2.715821 0.569946,0 1.109802,0.18042 1.565796,0.504822 -0.249817,0.57959 -0.385132,1.212708 -0.385132,1.866761 0,0.610229 0.125488,1.189636 0.337463,1.725463 -0.147094,-0.01392 -0.293213,-0.03259 -0.442932,-0.03259 -0.986816,-10e-7 -1.901855,0.306945 -2.659851,0.827087 z m 2.553284,-13.384705 c -0.232178,-0.407531 -0.36023,-0.863647 -0.36023,-1.336426 0,-1.497558 1.21875,-2.71582 2.715821,-2.71582 1.143554,0 2.171875,0.723145 2.557617,1.798828 0.0064,0.01795 0.02106,0.0296 0.02838,0.04694 -0.0531,0.282776 -0.08795,0.572144 -0.08795,0.870057 0,0.53778 0.09692,1.066467 0.273255,1.56665 -0.983582,0.15387 -1.868348,0.600708 -2.552124,1.264587 -0.67041,-0.762146 -1.576355,-1.283386 -2.574768,-1.494812 z m 26.270996,0.0437 c -0.957031,0.245911 -1.814575,0.782471 -2.448242,1.538819 -0.696473,-0.713013 -1.618042,-1.193054 -2.647095,-1.352844 0.176269,-0.49939 0.278564,-1.02594 0.278564,-1.566101 0,-0.306946 -0.03436,-0.605591 -0.09064,-0.896363 0.0067,-0.01581 0.0202,-0.02625 0.02618,-0.0426 0.391602,-1.0625 1.416016,-1.776856 2.549805,-1.776856 1.49707,0 2.71582,1.218262 2.71582,2.715821 0,0.490661 -0.136413,0.962707 -0.384399,1.380126 z m 3.810608,14.241883 c -0.679566,0.497558 -1.501953,0.776916 -2.359802,0.776916 -2.206055,0 -4,-1.794433 -4,-4 0,-2.048156 1.552795,-3.722168 3.540222,-3.953491 -0.20166,0.59967 -0.315613,1.239258 -0.315613,1.906128 0,2.271668 1.268982,4.252014 3.135193,5.270447 z m 4.896057,-2.298767 c 0,-2.205567 1.793945,-4 4,-4 2.206055,0 4,1.794433 4,4 0,1.301452 -0.621948,2.489685 -1.652527,3.234924 -1.094666,-1.468994 -2.8396,-2.426331 -4.808411,-2.426331 -0.486511,0 -0.957153,0.06458 -1.4104,0.174378 -0.08081,-0.31897 -0.128662,-0.64624 -0.128662,-0.982971 z m 9.892578,1.075073 c 2.174744,0.0365 3.933594,1.810486 3.933594,3.993286 0,0.725647 -0.216797,1.417542 -0.579224,2.028565 -1.091919,-1.498047 -2.854919,-2.477295 -4.846558,-2.477295 -0.223999,0 -0.442749,0.03497 -0.663147,0.05933 1.13379,-0.902466 1.897522,-2.174256 2.155335,-3.603882 z m 9.126953,10.753052 c 0,1.00531 -0.370605,1.937439 -1.016418,2.658203 -0.756165,-1.437195 -2.069153,-2.536682 -3.676941,-2.989624 0.04193,-0.28772 0.07422,-0.578675 0.07422,-0.877075 0,-0.50409 -0.06933,-0.991089 -0.18695,-1.459168 0.370727,-0.397644 0.676147,-0.844604 0.924499,-1.320373 2.150147,0.06427 3.881592,1.822998 3.881592,3.988037 z m -6.310547,9.427246 c -0.125427,0 -0.248901,-0.01642 -0.372986,-0.02795 0.127991,-0.487 0.203064,-0.99524 0.203064,-1.521851 0,-1.436706 -0.508545,-2.756225 -1.353698,-3.790344 1.090393,-0.570374 1.969665,-1.444275 2.528259,-2.516419 1.732788,0.451783 2.995361,2.026246 2.995361,3.856568 0,2.205566 -1.793945,4 -4,4 z m -9.123047,1.138183 c -0.06848,-0.07544 -0.134887,-0.152526 -0.197998,-0.233642 0.368531,-0.777344 0.580811,-1.642456 0.580811,-2.55835 0,-0.08905 -0.01556,-0.174072 -0.01953,-0.262207 1.530395,-0.674438 2.724304,-1.969482 3.26715,-3.565307 1.882813,0.323974 3.322693,1.957824 3.322693,3.931518 0,2.205567 -1.793945,4 -4,4 -0.872802,0 -1.698791,-0.281128 -2.375732,-0.782348 -0.179871,-0.188477 -0.372315,-0.364624 -0.577394,-0.529664 z M 52.601227,67.85585 c 0,-1.447876 0.804382,-2.763 2.026062,-3.464599 0.901489,2.176086 3.045959,3.71167 5.54425,3.71167 0.137329,0 0.27179,-0.01147 0.4068,-0.02057 -0.120118,2.098449 -1.848633,3.773498 -3.977112,3.773498 -2.206055,0 -4,-1.794433 -4,-4 z m -2.753906,-1.676269 c -0.427796,0 -0.844605,0.04681 -1.247315,0.132324 -0.158813,-0.134949 -0.325561,-0.257385 -0.495911,-0.374268 -0.116882,-0.553039 -0.310852,-1.077514 -0.56903,-1.563293 0.09601,-0.430054 0.160888,-0.86676 0.160888,-1.310974 0,-0.752137 -0.145141,-1.469422 -0.398925,-2.133362 1.344116,-1.134644 2.142089,-2.812988 2.142089,-4.582947 0,-0.161072 -0.01282,-0.321472 -0.02563,-0.48175 1.271728,-0.492493 2.342407,-1.409974 3.035827,-2.639771 0.894409,-0.162537 1.738526,-0.521667 2.470215,-1.057739 -0.475464,0.859131 -0.747986,1.84552 -0.747986,2.89508 0,1.276795 0.420532,2.488831 1.160706,3.507691 -0.726319,0.992309 -1.160706,2.21112 -1.160706,3.532348 0,0.09302 0.0097,0.183533 0.01392,0.275513 -1.647705,0.730713 -2.870056,2.173401 -3.34906,3.889221 -0.3255,-0.05408 -0.655029,-0.08807 -0.989074,-0.08807 z M 30.391266,56.718643 c -1.49707,0 -2.71582,-1.218261 -2.71582,-2.71582 0,-0.856262 0.412353,-1.65918 1.096618,-2.171265 0.791687,-0.03229 1.560181,-0.259277 2.235169,-0.664306 0.394836,0.236145 0.822815,0.417968 1.280945,0.530883 -0.210816,0.54065 -0.322693,1.120301 -0.322693,1.714356 0,0.802856 0.220459,1.547852 0.575805,2.210266 -0.509521,0.673096 -1.2948,1.095886 -2.150024,1.095886 z M 32.153961,41.14003 c 0,0.488831 0.09595,0.951294 0.23468,1.395019 -0.893554,0.198731 -1.694275,0.645997 -2.318298,1.273133 -0.01611,0.0022 -0.03113,-0.0037 -0.04724,-6.72e-4 -0.166992,0.03223 -0.338867,0.04834 -0.514648,0.04834 -1.497071,0 -2.715821,-1.218262 -2.715821,-2.71582 0,-1.497559 1.21875,-2.71582 2.715821,-2.71582 1.483398,0 2.645507,1.192871 2.645506,2.71582 z m 4.715821,-2.71582 c 1.49707,0 2.71582,1.218261 2.71582,2.71582 0,1.497558 -1.21875,2.71582 -2.71582,2.71582 -1.497071,0 -2.715821,-1.218262 -2.715821,-2.71582 0,-1.497559 1.21875,-2.71582 2.715821,-2.71582 z m 7.239257,0 c 1.497071,0 2.715821,1.218261 2.715821,2.71582 0,1.497558 -1.21875,2.71582 -2.715821,2.71582 -0.157898,0 -0.313171,-0.02533 -0.467712,-0.05212 -0.625733,-0.620849 -1.414612,-1.06427 -2.292725,-1.26123 0.140198,-0.445923 0.237,-0.910889 0.237,-1.402466 0,-0.271362 -0.03583,-0.533447 -0.08008,-0.79242 0.0024,-0.0073 0.0084,-0.01221 0.01074,-0.01959 0.356445,-1.138672 1.397461,-1.903808 2.592773,-1.903808 z m 3.125977,15.858398 c -2.121765,0 -3.845215,-1.664673 -3.975098,-3.753845 0.03864,-0.153748 0.03229,-0.312988 -0.0051,-0.470642 0.08148,-1.426453 0.918518,-2.677674 2.151673,-3.317627 -0.01904,0.194092 -0.02985,0.390503 -0.02985,0.589477 0,2.834534 1.97754,5.210205 4.624085,5.834534 -0.73053,0.704102 -1.706116,1.118103 -2.765686,1.118103 z m -9.766541,1.715759 c -0.25531,0.07727 -0.518066,0.129456 -0.78717,0.129456 -1.49707,0 -2.71582,-1.218262 -2.71582,-2.715332 0,-0.641541 0.231445,-1.24939 0.640136,-1.736817 0.880616,-0.232299 1.657715,-0.705688 2.258118,-1.355651 0.709106,0.768127 1.65741,1.28778 2.700256,1.460144 -1.224426,1.038513 -1.998352,2.544616 -2.09552,4.2182 z m -6.773498,-8.86615 c 0,-1.497558 1.21875,-2.71582 2.71582,-2.71582 0.02783,0 0.05487,0.0033 0.08252,0.0041 0.596862,0.614257 1.361267,1.055358 2.216308,1.273742 0.269776,0.429749 0.416992,0.923767 0.416992,1.437989 0,1.497558 -1.21875,2.71582 -2.71582,2.71582 -1.49707,0 -2.71582,-1.218262 -2.71582,-2.715821 z m 9.565796,-2.72937 c 0.02338,0.0016 0.04321,0.01355 0.06702,0.01355 1.14856,0 2.158814,0.730408 2.545716,1.781982 -0.872925,0.934327 -1.440613,2.133362 -1.58252,3.449646 -0.307922,0.117859 -0.628601,0.200013 -0.963196,0.200013 -1.007507,0 -1.927429,-0.56659 -2.39563,-1.450013 0.113953,-0.405456 0.194458,-0.824462 0.194458,-1.265808 0,-0.480529 -0.07361,-0.95166 -0.21344,-1.401672 0.911316,-0.207336 1.720765,-0.676392 2.347596,-1.327698 z m -13.388184,0.645752 c 0.595215,0.40271 1.293335,0.651184 2.03894,0.746887 -0.127258,0.426636 -0.216552,0.869324 -0.216552,1.336731 0,0.947022 0.286438,1.82605 0.76886,2.565674 -0.282044,0.09668 -0.579346,0.150147 -0.881165,0.150147 -1.49707,0 -2.71582,-1.218262 -2.71582,-2.715821 0,-0.822204 0.384399,-1.572937 1.005737,-2.083618 z m 12.735413,12.397034 c -0.10199,-0.355408 -0.168885,-0.719849 -0.168885,-1.098572 0,-1.584839 0.925049,-2.982056 2.319031,-3.625671 0.936768,2.095398 3.036987,3.561218 5.476868,3.561218 0.06628,0 0.129944,-0.01154 0.195801,-0.01367 4.88e-4,0.02631 0.0083,0.05176 0.0083,0.07813 0,1.066589 -0.435547,2.083923 -1.18097,2.829224 -1.101318,-1.29065 -2.736328,-2.112915 -4.562194,-2.112915 -0.735108,0 -1.436524,0.139343 -2.087952,0.382263 z m 31.424865,1.428284 c 0,1.816528 -1.205627,3.373474 -2.942016,3.848632 -0.587036,-0.328552 -1.235169,-0.55719 -1.921997,-0.67279 -0.01141,-1.300415 -0.441468,-2.5 -1.157654,-3.478699 0.739807,-1.018677 1.160339,-2.230896 1.160339,-3.508179 0,-0.02844 -0.0039,-0.05591 -0.0043,-0.08423 0.28302,-0.06256 0.570678,-0.104736 0.8656,-0.104736 2.206055,0 4,1.794433 4,4 z M 60.171539,66.10292 c -2.206054,0 -4,-1.794433 -4,-4 0,-2.205566 1.793946,-4 4,-4 2.206055,0 4,1.794434 4,4 0,2.205567 -1.793945,4 -4,4 z m 4,-11.040038 c 0,0.752136 -0.212402,1.47467 -0.600341,2.10144 -0.967225,-0.667908 -2.137757,-1.061401 -3.399659,-1.061401 -1.261535,0 -2.431762,0.39331 -3.398864,1.060852 -0.388245,-0.627076 -0.601136,-1.349488 -0.601136,-2.100891 0,-2.205567 1.793946,-4 4,-4 2.206055,0 4,1.794433 4,4 z m -21.0625,-20.131836 c 0,0.674194 -0.25,1.320495 -0.702392,1.820312 -0.753907,0.290588 -1.413941,0.768982 -1.926453,1.391663 -0.704895,-0.847657 -1.688293,-1.446167 -2.820373,-1.638916 0.177795,-0.501343 0.280273,-1.030396 0.280273,-1.57306 0,-0.344055 -0.04175,-0.677673 -0.112061,-1.000976 0.03095,-0.04541 0.07263,-0.08026 0.09644,-0.131836 0.441406,-0.961914 1.410156,-1.583008 2.46875,-1.583008 1.49707,0 2.71582,1.218262 2.71582,2.715821 z m -7.168945,0 c 0,0.664184 -0.243713,1.29895 -0.681641,1.795105 -0.83136,0.304687 -1.545349,0.834289 -2.082885,1.518432 -0.511475,-0.671509 -1.190918,-1.194763 -1.991822,-1.501526 -0.013,-0.01752 -0.01648,-0.03882 -0.03076,-0.05566 -0.416016,-0.489746 -0.644531,-1.113281 -0.644531,-1.756348 0,-1.497558 1.21875,-2.71582 2.71582,-2.71582 1.49707,0 2.71582,1.218262 2.71582,2.715821 z m 1.755859,28.132324 c 0,-2.205567 1.793946,-4 4,-4 1.914795,0 3.515198,1.353576 3.905457,3.152771 -0.960571,-0.653565 -2.119385,-1.03656 -3.366394,-1.03656 -1.80719,0 -3.426331,0.806579 -4.527222,2.074463 -0.0031,-0.06366 -0.01184,-0.126832 -0.01184,-0.190674 z m 40.516846,5.369995 c -0.296814,-0.483215 -0.665955,-0.923157 -1.097473,-1.312439 0.143555,-0.513611 0.226135,-1.052429 0.226135,-1.611267 0,-0.223633 -0.03638,-0.438843 -0.06079,-0.656983 1.020203,-0.779174 1.758301,-1.866089 2.118531,-3.083984 0.8208,0.749023 1.315307,1.823669 1.315307,2.96167 0,1.65509 -1.006287,3.101501 -2.501709,3.703003 z m 3.884522,-9.262573 c 0,0.718505 -0.212891,1.404235 -0.568665,2.011291 -0.502991,-0.684204 -1.147705,-1.260803 -1.90625,-1.684082 -0.112854,-1.16156 -0.56134,-2.22406 -1.242615,-3.096985 0.268555,-0.342956 0.494385,-0.711731 0.680298,-1.099243 1.760742,0.434326 3.037232,2.00592 3.037232,3.869019 z m -4.445313,-6.45752 c 0,0.848267 -0.27362,1.650879 -0.760925,2.326294 -0.737305,-0.47522 -1.58374,-0.792419 -2.49408,-0.905884 0.03656,-0.267578 0.06165,-0.537475 0.06165,-0.811035 0,-1.095398 -0.299927,-2.119934 -0.814698,-3.004761 0.280884,-0.485595 0.486939,-1.00238 0.62085,-1.542663 1.91394,0.297607 3.387207,1.94226 3.387207,3.938049 z m -5.193359,-5.383301 c 0,0.459717 -0.08301,0.905884 -0.232666,1.329163 -1.007691,-0.815613 -2.283265,-1.309815 -3.672608,-1.331665 -0.218017,-1.396546 -0.916687,-2.63263 -1.924499,-3.536011 0.560913,-0.290588 1.179199,-0.461487 1.829773,-0.461487 2.206054,0 4,1.794434 4,4 z m -6.394226,-5.50122 c -0.47754,0.207946 -0.92743,0.478881 -1.340332,0.809143 -0.652405,-0.243836 -1.355164,-0.383606 -2.091614,-0.383606 -0.282288,0 -0.557862,0.02637 -0.829895,0.06427 -0.233155,-0.408509 -0.508484,-0.782837 -0.823365,-1.119751 0.639649,-0.40979 1.382203,-0.648133 2.15326,-0.648133 1.138244,0 2.187927,0.472596 2.931946,1.278077 z m -6.226868,1.120483 c -1.903626,1.006958 -3.205078,3.005615 -3.205078,5.305054 0,0.358642 0.04065,0.709289 0.101928,1.055175 -0.04547,-0.0063 -0.08594,-0.02685 -0.133178,-0.02685 -2.206055,0 -4,-1.794434 -4,-4 0,-2.205566 1.793945,-4 4,-4 1.299316,0 2.493713,0.638489 3.236328,1.666626 z m -6.165466,-2.897949 c -0.61615,0.346374 -1.164002,0.798462 -1.621399,1.331421 -0.223633,-0.0249 -0.447327,-0.05273 -0.674073,-0.05273 -0.945434,0 -1.837036,0.225891 -2.6333,0.617005 0.04584,-0.263428 0.08154,-0.53064 0.08154,-0.806946 0,-0.478455 -0.09284,-0.931275 -0.225891,-1.36676 0.0046,-0.0095 0.01349,-0.01514 0.01788,-0.02484 0.44043,-0.968261 1.412109,-1.594238 2.475586,-1.594238 1.189575,0 2.226867,0.784973 2.579651,1.897095 z m -0.501526,-9.052857 c -0.312317,0.504517 -0.779114,1.167542 -1.368225,1.847229 -0.754334,-1.514587 -2.286438,-2.567749 -4.078736,-2.61737 0.01324,-0.01398 0.02527,-0.02863 0.03845,-0.04266 2.157776,-0.214233 4.237061,0.379456 5.408509,0.812805 z M 41.968414,25.378799 c 2.338868,-1.644043 5.415039,-1.688476 7.00293,-1.572265 -0.431641,1.531738 -1.514648,4.411621 -3.853516,6.054687 -0.649292,0.455994 -1.415222,0.805786 -2.253906,1.071289 -0.463013,-0.28717 -0.971557,-0.508484 -1.5224,-0.621399 l 4.045838,-2.922058 c 0.447265,-0.323242 0.547851,-0.948242 0.224609,-1.395996 -0.323242,-0.448242 -0.947266,-0.549804 -1.396484,-0.225097 l -5.517578,3.985046 c 0.614135,-1.473999 1.635253,-3.226074 3.270507,-4.374207 z m -10.18457,0 c 1.635071,1.148011 2.656372,2.899964 3.270752,4.373963 L 29.536774,25.76796 c -0.450196,-0.324707 -1.074219,-0.222657 -1.396485,0.225097 -0.323242,0.447754 -0.222656,1.072754 0.22461,1.395996 l 4.029663,2.910096 c -0.578064,0.103393 -1.114014,0.316467 -1.598877,0.610473 -0.80188,-0.262207 -1.533142,-0.608642 -2.159302,-1.048401 -2.34082,-1.643554 -3.423828,-4.525879 -3.855469,-6.057129 1.587891,-0.114257 4.654297,-0.07568 7.00293,1.574707 z m -5.790405,4.808655 c 0.0088,0.0093 0.01685,0.0191 0.0257,0.02844 -0.0029,0 -0.0058,-6.72e-4 -0.0087,-6.72e-4 -1.805542,0 -3.35852,1.031311 -4.150695,2.525086 -0.542908,-0.640992 -0.978333,-1.263184 -1.276062,-1.742371 1.173584,-0.43396 3.260498,-1.025085 5.40979,-0.810486 z m -3.307251,7.966736 c 1.003479,0 1.918518,0.561585 2.388427,1.438721 -0.170654,0.487182 -0.281982,1.00238 -0.281982,1.547119 0,0.896667 0.265137,1.727051 0.701416,2.441589 -0.02527,0.02197 -0.05219,0.04211 -0.0769,0.06451 -0.794068,-0.568481 -1.735718,-0.885498 -2.730957,-0.885498 -0.55658,0 -1.083252,0.114136 -1.579407,0.291993 -0.697937,-0.507874 -1.136414,-1.310364 -1.136414,-2.182618 0,-1.497558 1.21875,-2.71582 2.715821,-2.71582 z m 1.075195,12.670898 c 0.952942,0 1.825684,0.500123 2.314697,1.298462 -0.255737,0.586548 -0.400634,1.223145 -0.400634,1.879273 0,0.427368 0.07556,0.83374 0.182617,1.227722 -0.511231,0.631287 -1.272888,1.026184 -2.09668,1.026184 -1.49707,0 -2.71582,-1.218261 -2.71582,-2.71582 0,-1.497559 1.21875,-2.715821 2.71582,-2.715821 z m 5.450195,15.805176 c -1.49707,0 -2.71582,-1.218261 -2.71582,-2.71582 0,-0.06409 0.01013,-0.126831 0.01459,-0.19043 1.132996,-0.148193 2.134949,-0.688904 2.867981,-1.494812 0.250916,0.520935 0.587708,0.989746 1.002991,1.383301 -0.638977,0.821655 -1.003723,1.832398 -1.003723,2.888855 0,0.0401 0.01086,0.07715 0.01184,0.117004 -0.05933,0.0039 -0.117493,0.0119 -0.177857,0.0119 z m 4.881836,2.586914 c -1.49707,0 -2.71582,-1.218261 -2.71582,-2.71582 0,-0.69342 0.277893,-1.349182 0.749573,-1.851013 0.471008,0.158203 0.966064,0.264099 1.489685,0.264099 0.794433,0 1.546448,-0.215027 2.224548,-0.581238 0.114563,0.52887 0.294495,1.041626 0.546265,1.520264 -0.09692,0.427307 -0.152649,0.869934 -0.152649,1.326111 0,0.291931 0.02594,0.580139 0.06787,0.864807 -0.505615,0.720154 -1.322144,1.17279 -2.209473,1.17279 z m 10.629883,-2.345703 c 0.524719,0 1.03534,0.107727 1.511108,0.302124 0,0.002 6.11e-4,0.004 6.11e-4,0.006 0,0.06793 0.0257,0.127441 0.03863,0.191589 -1.469055,1.094666 -2.42633,2.839539 -2.42633,4.808411 0,0.958862 0.231811,1.86261 0.633423,2.667358 -2.091248,-0.128174 -3.757447,-1.852966 -3.757447,-3.975464 0,-2.205566 1.793945,-4 4,-4 z m -1.953064,9.667176 c 0.613281,0.211975 1.268616,0.332824 1.953064,0.332824 0.414429,0 0.822022,-0.05768 1.224243,-0.141235 0.05048,0.04333 0.10083,0.08637 0.15271,0.127991 -0.0057,0.106811 -0.01465,0.212829 -0.01465,0.32135 0,0.967834 0.235657,1.879699 0.644348,2.690002 -0.0092,6.1e-5 -0.01801,0.0019 -0.02716,0.0019 -1.977539,0 -3.612671,-1.445373 -3.932556,-3.332824 z m 5.391724,1.39569 c 0.535339,0.157044 1.099853,0.24524 1.685364,0.24524 1.083435,0 2.105346,-0.300415 2.992736,-0.814698 0.398682,1.092224 1.099305,2.019532 2.001526,2.704529 -0.737182,0.70221 -1.719177,1.110169 -2.755981,1.110169 -1.947571,0 -3.569275,-1.399964 -3.923645,-3.24524 z m 10.312317,5.935669 c -1.281311,0 -2.458863,-0.608276 -3.207154,-1.6156 0.530945,-0.332764 1.010193,-0.747193 1.419251,-1.236817 0.564026,0.174622 1.153442,0.290406 1.772278,0.290406 9.15e-4,0 0.0018,-1.22e-4 0.0027,-1.22e-4 0.387573,0.865417 0.962891,1.607116 1.674011,2.187927 -0.516906,0.237182 -1.077514,0.374206 -1.661132,0.374206 z m 5.448242,-1.005859 c -1.414978,0 -2.693787,-0.752136 -3.408752,-1.926392 1.459106,-0.534484 2.651611,-1.617187 3.329956,-3.000671 1.061218,0.862732 2.399475,1.356262 3.788757,1.356262 0.08368,0 0.165039,-0.0092 0.247925,-0.01257 -0.21167,2.007751 -1.894532,3.583374 -3.957886,3.583374 z m 6.249023,-1.196289 c -0.306701,0 -0.60675,-0.03534 -0.898803,-0.102417 0.41217,-0.813049 0.64978,-1.729065 0.64978,-2.701294 0,-0.009 -0.0015,-0.01764 -0.0015,-0.02661 0.773315,-0.320374 1.463257,-0.799195 2.034424,-1.393921 0.375,0.07263 0.75592,0.121216 1.141907,0.121216 0.362182,0 0.71521,-0.03772 1.059875,-0.09949 0.0034,0.06769 0.01434,0.134461 0.01434,0.202515 0,2.205566 -1.793945,4 -4,4 z m 6.606446,-2.422363 c -0.272461,0 -0.53949,-0.03223 -0.801819,-0.08563 0.122986,-0.478027 0.195373,-0.976135 0.195373,-1.492004 0,-0.307739 -0.02685,-0.61322 -0.07312,-0.915466 1.677307,-0.974121 2.838318,-2.734619 2.978027,-4.775147 1.040345,0.734497 1.701539,1.941834 1.701539,3.26825 0,2.205566 -1.793946,4 -4,4 z m 2.823486,-9.274537 c 1.492493,-0.819274 2.562805,-2.22998 2.94397,-3.898437 0.421447,0.639709 0.660278,1.393433 0.660278,2.194458 0,1.317993 -0.658936,2.535278 -1.717529,3.275574 -0.506714,-0.645203 -1.150696,-1.176148 -1.886719,-1.571595 z"
     id="path10141"
     class="UnoptimicedTransforms"
     transform="translate(-0.9870967,13.249276)" /><path
     style="fill:#008000;fill-opacity:1;stroke-width:0.12905"
     d="m 46.771626,36.880633 c -2.370764,0.05653 -4.861989,0.600019 -6.626426,2.291902 -1.075786,1.010454 -1.959059,2.285312 -2.46506,3.666084 0.302347,0.410738 0.751318,-0.342011 1.085584,-0.437057 1.677964,-1.093745 3.183556,-2.488204 4.982548,-3.377485 0.85242,-0.181619 1.230583,1.16524 0.469067,1.536504 -1.20668,1.035703 -2.654803,1.79357 -3.787321,2.903629 0.181907,0.450845 0.871615,0.553063 1.299828,0.763211 1.0968,-0.02418 2.083048,-0.751401 2.936901,-1.386281 1.678026,-1.427528 2.806024,-3.461337 3.357573,-5.57134 -0.173033,-0.464682 -0.865223,-0.384295 -1.252694,-0.389167 z"
     id="path16816" /><path
     style="fill:#008000;fill-opacity:1;stroke-width:0.12905"
     d="m 24.611538,36.859209 c -0.38393,-0.03422 -1.054128,0.119459 -0.821183,0.645755 0.698977,2.133107 1.786568,4.237795 3.647433,5.580918 0.894087,0.640257 2.039868,1.448185 3.166519,0.866804 0.704369,-0.08843 1.278458,-0.569355 0.315917,-0.927358 -1.221191,-0.990143 -2.693111,-1.727341 -3.721633,-2.93079 -0.399132,-0.764944 0.784631,-1.495349 1.342677,-0.872349 1.774848,1.121421 3.347438,2.574582 5.184441,3.585176 0.5827,-0.0226 0.04652,-0.777024 -0.0852,-1.019069 -1.341313,-2.642842 -4.039821,-4.527531 -7.007585,-4.767241 -0.669673,-0.09067 -1.34457,-0.168864 -2.021384,-0.161846 z"
     id="path16818" /><path
     style="fill:#008000;fill-opacity:1;stroke-width:0.12905"
     d="m 47.35336,43.302898 c -0.47475,0.09311 0.02835,0.503693 0.307503,0.439073 1.211159,0.302598 2.256622,1.172537 2.908922,2.202675 0.201896,0.531585 0.70663,-0.182262 0.872379,-0.407108 0.22535,-0.437088 0.897337,-0.886356 0.74579,-1.411441 -1.484687,-0.653131 -3.224378,-0.782447 -4.834594,-0.823199 z"
     id="path16820" /><path
     style="fill:#008000;fill-opacity:1;stroke-width:0.12905"
     d="m 23.602073,43.286262 c -1.404563,0.123394 -2.887745,0.314982 -4.148511,0.94242 0.327351,0.649588 0.846252,1.296138 1.340913,1.827119 0.935187,-0.978647 1.941481,-2.12636 3.359006,-2.37624 1.280747,-0.436299 -0.246474,-0.411803 -0.551408,-0.393299 z"
     id="path16822" /><path
     style="fill:#008000;fill-opacity:1;stroke-width:0.12905"
     d="m 47.504591,43.147886 c -0.533327,-0.08492 -0.48741,0.611368 -0.06175,0.716582 1.108534,0.383813 2.16507,0.995713 2.825494,1.997757 0.224932,0.380414 0.733724,0.591071 1.005936,0.135604 0.408378,-0.540876 1.111883,-1.081358 1.117595,-1.799142 -0.636356,-0.733234 -1.766224,-0.725303 -2.660324,-0.911725 -0.738174,-0.08923 -1.483405,-0.140384 -2.226948,-0.139076 z"
     id="path16824" /></svg>
