<?xml version="1.0" encoding="UTF-8" standalone="no"?>
<svg
   version="1.1"
   x="0px"
   y="0px"
   viewBox="0 0 122.977 157.58125"
   style="enable-background:new 0 0 122.977 126.065;"
   xml:space="preserve"
   id="svg9284"
   sodipodi:docname="rhubarb.svg"
   inkscape:version="1.2.2 (b0a8486541, 2022-12-01)"
   xmlns:inkscape="http://www.inkscape.org/namespaces/inkscape"
   xmlns:sodipodi="http://sodipodi.sourceforge.net/DTD/sodipodi-0.dtd"
   xmlns:xlink="http://www.w3.org/1999/xlink"
   xmlns="http://www.w3.org/2000/svg"
   xmlns:svg="http://www.w3.org/2000/svg"><defs
     id="defs9288"><linearGradient
       inkscape:collect="always"
       id="linearGradient9999"><stop
         style="stop-color:#ffb4b4;stop-opacity:1;"
         offset="0"
         id="stop9997" /><stop
         style="stop-color:#ea2b0e;stop-opacity:1;"
         offset="1"
         id="stop9995" /></linearGradient><linearGradient
       inkscape:collect="always"
       xlink:href="#linearGradient9999"
       id="linearGradient10001"
       x1="50.538519"
       y1="88.574426"
       x2="119.06211"
       y2="88.574426"
       gradientUnits="userSpaceOnUse"
       gradientTransform="matrix(1.0183965,0,0,1.0183965,-0.73965993,-2.3472132)" /><linearGradient
       inkscape:collect="always"
       xlink:href="#linearGradient9999"
       id="linearGradient10739"
       x1="46.907192"
       y1="95.20253"
       x2="67.368347"
       y2="104.17802"
       gradientUnits="userSpaceOnUse"
       gradientTransform="matrix(1.0183965,0,0,1.0183965,-0.73965993,-2.3472132)" /><linearGradient
       inkscape:collect="always"
       xlink:href="#linearGradient9999"
       id="linearGradient10873"
       x1="44.723705"
       y1="54.946186"
       x2="59.878426"
       y2="109.65218"
       gradientUnits="userSpaceOnUse"
       gradientTransform="matrix(1.0183965,0,0,1.0183965,-0.73965993,-2.3472132)" /></defs><sodipodi:namedview
     id="namedview9286"
     pagecolor="#ffffff"
     bordercolor="#000000"
     borderopacity="0.25"
     inkscape:showpageshadow="2"
     inkscape:pageopacity="0.0"
     inkscape:pagecheckerboard="0"
     inkscape:deskcolor="#d1d1d1"
     showgrid="false"
     inkscape:zoom="5.0005948"
     inkscape:cx="61.692661"
     inkscape:cy="65.99215"
     inkscape:window-width="1857"
     inkscape:window-height="1011"
     inkscape:window-x="0"
     inkscape:window-y="0"
     inkscape:window-maximized="1"
     inkscape:current-layer="svg9284" /><path
     d="m 122.09227,118.60356 c 0.19616,-0.62808 0.32197,-1.27398 0.32989,-1.92781 0.28036,-24.8467 -40.226648,-45.368176 -59.927861,-53.873965 1.865409,-3.006646 4.516409,-2.86102 7.820254,-2.678739 2.389465,0.132748 4.861158,0.268469 7.267464,-0.817292 0.04755,-0.0218 0.09411,-0.04656 0.137702,-0.07628 3.52278,-2.323094 5.279216,-4.378708 5.52589,-6.469988 0.274413,-2.326065 -1.403762,-4.117174 -2.883805,-5.698264 -1.836679,-1.960512 -2.906589,-3.277096 -2.291392,-4.979047 0.132749,-0.331869 0.303142,-0.66473 0.479479,-1.013442 0.73804,-1.458249 1.655389,-3.273134 1.056042,-6.182696 -1.833708,-8.108535 -5.887481,-9.892709 -9.464746,-11.467856 -3.144348,-1.383948 -5.859741,-2.579672 -6.987109,-8.130328 -0.410133,-1.704923 -1.035239,-2.96504 -1.770306,-3.935884 -0.01387,-0.01882 -0.02575,-0.03864 -0.04062,-0.05549 C 60.017654,9.5747287 58.33948,8.7881466 56.886185,8.1115269 54.825617,7.1515794 53.336658,6.4591096 52.999835,3.5792672 52.953274,3.1820134 52.671926,2.8511337 52.286561,2.7411707 c -0.383385,-0.1099631 -0.79748,0.023776 -1.047125,0.3368236 -1.672231,2.1061387 -3.686239,2.7084586 -5.633872,3.2909654 -2.503392,0.7479467 -5.092972,1.5226414 -5.778508,5.5040953 -0.593404,3.601041 -3.031412,4.229119 -5.852806,4.956262 -1.488959,0.384374 -3.124535,0.815311 -4.394558,1.811913 -0.04755,0.03368 -0.0961,0.06241 -0.137702,0.104019 -1.631613,1.363145 -2.577692,3.763509 -1.683127,8.377993 -1.281912,1.20365 -2.266626,2.734216 -2.862011,4.463905 -1.389893,-1.116473 -2.781768,-1.470137 -4.243978,-1.51967 -0.0069,-9.91e-4 -0.01387,-9.91e-4 -0.01982,-9.91e-4 -0.877723,-0.02873 -1.780212,0.04855 -2.723319,0.129777 -3.430648,0.294226 -8.1303287,0.696432 -15.8544886,-3.592125 -0.1030284,-0.05647 -0.2129914,-0.09015 -0.323945,-0.107981 -0.026748,-0.0039 -0.053495,-9.92e-4 -0.080243,-0.0029 -0.09114,-0.0069 -0.179309,-0.0039 -0.2684683,0.01387 -0.036654,0.0069 -0.070337,0.01882 -0.1060003,0.02971 -0.081233,0.02575 -0.1575147,0.06241 -0.2308234,0.109963 -0.020804,0.01387 -0.045571,0.01584 -0.0663738,0.03171 -0.0118878,0.009 -0.0168409,0.02278 -0.0287287,0.03269 -0.0158501,0.01289 -0.0356635,0.01982 -0.0505237,0.03368 -0.0594401,0.05549 -0.10401904,0.121852 -0.14760806,0.188226 -0.010897,0.01784 -0.0277379,0.03071 -0.0386359,0.04855 -0.0574575,0.102038 -0.0941118,0.212992 -0.11293491,0.326918 -0.004949,0.03269 -0.001982,0.0644 -0.003963,0.09808 -0.003963,0.08222 -9.9072e-4,0.16445 0.0148593,0.247666 0.007927,0.04161 0.0208042,0.08024 0.0336828,0.12086 0.0118878,0.03665 0.0148593,0.07529 0.0317002,0.110953 2.57967307,5.561553 2.49447657,6.939559 2.28841967,10.26916 -0.067365,1.086752 -0.15058,2.438008 -0.1495893,4.214258 0.3903192,9.506353 4.458951,12.299018 7.1525493,14.145604 0.8688077,0.596376 1.4305127,1.006508 1.7178027,1.429519 -2.207187,1.327481 -3.9309319,3.61392 -4.7402994,6.426397 -0.9688633,3.365266 -0.5319833,7.00197 1.1739295,10.35931 0.00693,0.01188 0.011888,0.02477 0.018823,0.03566 0.5339646,1.044153 1.1868081,2.062549 1.9634839,3.035376 0.009,0.01089 0.01783,0.0208 0.02675,0.03171 2.157654,2.48358 3.719921,3.05519 5.230674,3.607977 1.406734,0.515141 2.862011,1.047125 5.182132,3.37517 3.628779,3.469284 7.993617,5.421871 12.073147,5.421871 0.205066,0 0.409142,-0.005 0.612225,-0.01486 3.241434,-0.158505 6.131182,-1.609819 8.357191,-4.196427 3.067077,-3.565378 5.933049,-5.78247 5.961779,-5.804265 0.03566,-0.02675 0.06934,-0.05746 0.101046,-0.08916 3.671378,-3.714967 1.439426,-7.047541 -0.353666,-9.725289 -0.644917,-0.96391 -1.263088,-1.886211 -1.605856,-2.769879 1.065948,0.49533 2.524197,1.188791 4.287568,2.064531 0.115907,2.45584 0.976788,8.838649 2.436028,14.762785 1.03821,3.49603 1.760398,7.460643 2.524195,11.65806 1.387912,7.625099 2.937301,16.090259 6.83653,23.294329 0.02378,0.0545 0.05251,0.10303 0.0852,0.15257 0.78262,1.43051 1.649445,2.81446 2.638122,4.12708 1.700959,2.06354 5.950882,3.89229 9.492483,3.89229 0.833144,0 1.628643,-0.10203 2.340925,-0.32494 1.935745,-0.60727 3.094816,-2.06948 3.261246,-4.11617 0.0029,-0.0396 0.0039,-0.0782 0.0029,-0.11691 -0.142655,-3.91904 -1.157087,-6.19953 -2.747094,-8.75146 -9.91e-4,-10e-4 -9.91e-4,-0.002 -0.0019,-0.003 -0.406169,-0.65186 -0.848002,-1.31956 -1.324509,-2.03878 -3.473246,-5.23761 -8.667266,-13.07371 -14.14065,-36.437385 17.482139,10.020504 42.150504,27.417445 45.887254,47.432705 0.23479,1.25714 1.18284,2.20818 2.41523,2.42215 0.31304,0.0545 0.67365,0.0942 1.05703,0.12284 0.0168,9.9e-4 0.0337,0.007 0.0515,0.007 0.009,0 0.0168,-0.003 0.0258,-0.003 0.23479,0.0159 0.46957,0.0337 0.72616,0.0337 2.53905,0 6.08065,-0.88862 9.29138,-4.82649 0.54288,-0.66572 0.94608,-1.4206 1.21554,-2.21214 0.0188,-0.0584 0.0317,-0.11491 0.0435,-0.17436 z m -1.68114,-3.23548 c -1.5702,-2.08336 -2.87984,-2.64704 -3.0651,-2.71837 -0.0505,-0.0197 -0.10303,-0.0346 -0.15652,-0.0456 -3.04331,-0.63302 -5.726,0.3091 -7.21496,1.03228 -6.8306,-27.280743 -49.884578,-45.807036 -59.27007,-49.549741 1.077836,-0.965891 1.585052,-2.052643 1.834698,-3.185955 8.815864,3.374179 66.447382,26.495144 67.871952,54.467366 z M 23.382136,56.486341 c -0.861872,-1.396828 -0.932209,-2.673785 -1.001554,-4.133025 -0.03962,-0.835124 -0.09114,-1.721762 -0.283328,-2.672794 0.487403,0.411123 0.974806,0.820265 1.460228,1.227424 3.059153,2.569767 6.190622,5.212842 9.278502,8.073862 -3.003674,-1.095667 -6.256994,-2.03382 -9.453848,-2.495467 z m 6.9564,-35.85488 c 1.101612,0.557741 3.4782,1.874326 5.008766,3.531695 -1.155107,0.06439 -2.318139,0.242712 -3.439564,0.565666 -0.846023,0.242711 -1.634585,0.614208 -2.376588,1.060004 -0.399236,-2.657935 -0.04162,-4.191473 0.807386,-5.157365 z m 2.116044,6.001406 c 2.305261,-0.66275 4.870075,-0.675629 6.97126,-0.101046 -4.209305,3.502966 -5.511029,7.822235 -5.402057,12.403037 -3.019525,-2.141802 -6.267893,-2.736197 -7.879693,-2.899655 0.03072,-0.695442 0.0852,-1.403763 0.197141,-2.140813 0.52802,-3.495039 2.928385,-6.345163 6.113349,-7.261521 z M 49.206605,20.738452 C 48.846006,15.577125 47.147027,10.346451 46.379267,8.2046491 c 1.278941,-0.3833849 2.732235,-0.8529567 4.137979,-1.7950723 -0.474525,2.8055427 -1.00849,7.6944402 -0.674638,14.4051552 -0.214973,-0.02378 -0.428955,-0.04656 -0.636003,-0.07628 z M 51.77439,19.44069 c 2.657936,-0.685535 3.9448,-2.192325 5.080094,-3.545564 0.908433,-1.082789 1.774268,-2.110101 3.355358,-2.759974 0.409142,0.683555 0.754881,1.518679 1.010471,2.580665 0.304132,1.499857 0.726153,2.7253 1.228416,3.756574 -0.584489,1.24823 -3.042311,5.328749 -10.26916,5.876583 0,0 -9.89e-4,0 -0.0019,-9.91e-4 -0.214972,-2.112082 -0.342767,-4.083491 -0.403198,-5.907293 z m 2.693599,9.384502 c 0.985705,0.709312 3.07203,2.479617 3.109675,4.729401 -1.670249,-0.201104 -3.646612,-0.188225 -6.024191,0.159495 -4.130052,0.604302 -7.626083,3.01061 -9.351809,6.436305 -0.5409,1.072882 -0.921313,2.200251 -1.189781,3.35833 -0.887629,0.335833 -2.649019,1.115481 -3.93192,2.395411 -1.804979,-7.206045 -2.054625,-14.086164 4.896821,-18.828443 3.35833,-2.056606 9.098202,-0.693461 12.491205,1.749501 z m 7.804402,8.592967 c 0.0019,0.0019 0.0019,0.0039 0.0039,0.0059 0.0079,0.009 0.01982,0.01188 0.02873,0.01982 0.948058,0.828189 1.584062,1.89909 1.872343,3.199824 0.464618,2.099204 -0.94806,4.658073 -3.023488,5.477348 -0.06835,0.02675 -0.131758,0.05448 -0.199123,0.08124 -3.907154,-5.286149 -10.078952,-7.983711 -13.223301,-9.077398 1.221481,-0.720208 2.609393,-1.230397 4.111231,-1.450323 4.732372,-0.694451 8.332422,-0.06241 10.429645,1.743559 z m -7.263502,14.685512 c 0.339795,2.192325 1.097648,5.834974 2.60543,8.653396 -2.237897,-0.908433 -3.905174,-1.542454 -4.821532,-1.884231 0.01188,-0.190206 0.02179,-0.379423 0.03269,-0.568638 0.108973,-2.039764 0.235777,-4.122127 2.183412,-6.200527 z m 5.073159,8.900071 C 58.072003,58.2616 57.08927,53.113151 56.795044,50.570132 c 1.246247,-0.872769 2.893712,-1.742567 5.085048,-2.607411 1.282901,-0.506226 2.371635,-1.459239 3.142366,-2.62128 2.704496,-2.576702 5.160337,-2.842198 7.759824,-3.119582 0.570618,-0.06044 1.147181,-0.124823 1.728697,-0.212001 -3.801153,2.299316 -11.351948,8.076833 -14.428931,18.993884 z m -19.16824,-5.545703 c 0.207048,2.0784 0.402208,4.076556 0.382394,5.864693 -0.488394,-2.919468 -1.426547,-5.9806 -2.415223,-9.190332 -0.386356,-1.254172 -0.774695,-2.514289 -1.135295,-3.770444 0.473535,-1.093687 1.74554,-1.961502 2.87489,-2.522215 -0.34475,3.200815 -0.01387,6.53636 0.293234,9.618298 z M 34.240737,41.677987 c 0.476507,3.677322 1.638548,7.448758 2.746104,11.038902 0.893573,2.899655 1.750492,5.67845 2.245821,8.28487 -1.111518,-2.609392 -3.124535,-5.012728 -5.243552,-7.534943 -3.516836,-4.18652 -7.411111,-8.846574 -7.828179,-15.430487 1.725727,0.210019 5.263366,0.966882 8.079806,3.641658 z m 9.178444,22.123372 c -0.09808,-0.05349 -0.204075,-0.109964 -0.307103,-0.16544 0.354656,-2.470701 0.07529,-5.343609 -0.22686,-8.374031 -0.494339,-4.951307 -1.004528,-10.071027 1.08576,-14.219902 0.461647,-0.916359 1.091705,-1.732662 1.832718,-2.45287 1.947633,0.578544 9.006069,2.987825 13.265899,8.431489 -7.814309,3.679303 -8.043151,7.809357 -8.224442,11.177594 -0.119869,2.236904 -0.221907,3.936873 -2.593542,5.231663 -0.03665,0.01486 -0.06835,0.03368 -0.102037,0.05251 -0.878713,0.463628 -2.064532,0.87376 -3.655528,1.236341 -0.305123,-0.365552 -0.654825,-0.688507 -1.074865,-0.917349 z M 78.916434,48.415452 c 1.300734,1.388901 2.529151,2.701523 2.36272,4.11123 -0.167421,1.41664 -1.708886,3.099769 -4.581792,5.003813 -1.948625,0.852956 -4.146895,0.732096 -6.273838,0.614207 -2.63614,-0.145626 -5.529851,-0.301159 -7.855916,1.582081 3.29889,-9.370633 10.222598,-14.376428 13.366946,-16.239854 0.19615,1.952586 1.654399,3.511881 2.98188,4.928523 z M 77.670186,35.304095 c 0.341778,1.65638 0.04457,2.829319 -0.402206,3.861584 -1.51967,0.740021 -3.064105,0.912396 -4.695719,1.085761 -1.954568,0.208038 -4.09736,0.441834 -6.351107,1.724736 0.04953,-0.592414 0.01784,-1.186809 -0.109963,-1.761391 -0.165441,-0.747946 -0.611236,-2.120006 -1.746529,-3.437582 3.83979,-3.980463 5.25643,-8.898089 5.729964,-11.212266 3.169115,1.426548 6.082639,3.141377 7.57556,9.739158 z M 68.236152,24.734766 c -0.334843,1.818848 -1.571183,6.828604 -5.342619,10.713964 -0.865834,-0.61916 -1.966455,-1.151143 -3.341487,-1.517688 0.132747,-2.387484 -1.253183,-4.788839 -3.925977,-6.712696 -0.147609,-0.106001 -0.306114,-0.207048 -0.460657,-0.309085 4.878,-1.087743 7.345729,-3.76252 8.475078,-5.521927 1.315595,1.663314 2.937302,2.581654 4.595662,3.347432 z M 56.05007,9.9065999 c 1.006508,0.4685801 1.986268,0.9292371 2.841206,1.6603431 -1.67124,0.83017 -2.66586,1.995184 -3.55448,3.054197 -0.984714,1.173929 -1.871352,2.207186 -3.605004,2.77186 -0.03269,-4.388614 0.308095,-7.781616 0.648882,-10.0224852 1.002545,1.2868645 2.385503,1.9387175 3.669396,2.5360851 z M 41.782615,12.201953 c 0.350693,-2.039764 1.29479,-2.825357 2.710441,-3.3821058 0.691478,1.9327738 2.270587,6.7533158 2.69756,11.4985658 -4.196427,-1.169966 -6.097499,-3.703078 -6.736472,-4.786858 0.620151,-0.84107 1.095667,-1.915933 1.328471,-3.329602 z M 34.47057,18.74723 c 1.484005,-0.382394 3.152273,-0.817293 4.536222,-1.799034 1.222472,1.839652 4.376726,5.270299 10.961629,5.861722 0.04359,0.605292 0.09708,1.225443 0.155533,1.857483 -3.007636,-0.802432 -6.22034,-0.805404 -8.706891,0.468582 -1.067929,-0.463628 -2.271579,-0.767761 -3.544574,-0.908434 -1.29479,-2.128924 -3.889323,-3.848706 -5.622974,-4.822521 0.669685,-0.252619 1.417632,-0.45075 2.221055,-0.657798 z M 24.361897,33.780463 c -1.381968,9.649007 3.656518,15.658338 8.110516,20.96133 1.279929,1.523631 2.512309,3.000702 3.503957,4.475792 -3.697136,-3.563396 -7.473524,-6.741427 -11.14391,-9.825345 -1.756437,-1.47608 -3.527733,-2.965039 -5.306955,-4.508484 3.350405,-4.704633 2.852103,-10.125514 2.341916,-12.676458 0.866825,0.216955 1.655388,0.680583 2.494476,1.573165 z m -6.281761,-1.611801 c 0.629066,-0.05349 1.194733,-0.100057 1.719782,-0.12086 0.427963,1.850549 1.248228,7.111933 -1.769315,11.525314 -4.324222,-3.827902 -8.6870798,-8.059002 -13.0023852,-13.318404 5.9905082,2.513299 9.9917752,2.174495 13.0519182,1.91395 z M 4.6795061,32.926515 c 2.5073551,2.947208 5.0236262,5.574432 7.5339529,7.988666 -3.3682365,0.533964 -6.1460411,0.09609 -7.3922887,-0.178318 0.028729,-0.927257 0.07529,-1.732661 0.1208602,-2.459804 0.121851,-1.969428 0.1961502,-3.394985 -0.2625244,-5.350544 z M 11.088072,54.882466 C 8.6243058,53.191414 5.2729102,50.873274 4.8241422,42.763748 5.786071,42.953954 7.213609,43.15803 8.9749987,43.15803 c 1.4770713,0 3.1839743,-0.158505 5.0077753,-0.576562 1.192753,1.105573 2.382532,2.171522 3.569341,3.209732 0.0029,0.0019 0.0039,0.0059 0.0059,0.0079 0.0019,0.0019 0.005,0.0019 0.0069,0.0039 0.365552,0.319983 0.731105,0.636993 1.095667,0.952023 1.569203,2.187372 1.65539,3.891303 1.740585,5.69331 0.05746,1.216528 0.126805,2.463766 0.647892,3.793229 -2.672796,-0.177328 -5.251477,0.04457 -7.553766,0.855928 -0.508132,-0.90341 -1.434398,-1.548329 -2.407223,-2.215042 z M 8.8481945,64.918821 c 0.8222458,-2.855076 2.7312445,-5.056317 5.1236825,-5.893424 2.48457,-0.919331 5.40602,-1.027312 8.428517,-0.655815 -1.17492,1.409706 -1.787147,3.129488 -2.375597,4.814597 -1.335407,3.821958 -2.734216,7.762795 -10.4920575,9.855065 -1.1660047,-2.681712 -1.4374449,-5.505086 -0.684545,-8.120423 z m 2.7877115,11.632304 c -0.441833,-0.555759 -0.824227,-1.129349 -1.176901,-1.711857 8.415638,-2.41126 10.09084,-7.151558 11.435163,-11.001255 0.728134,-2.083353 1.375034,-3.891305 2.95216,-5.07415 4.669961,0.930229 9.366671,2.786721 12.906291,4.418334 -7.958944,1.702941 -10.395964,6.540324 -12.745803,11.243968 -1.344324,2.690626 -2.63416,5.239589 -4.908711,7.335821 -1.653407,-1.299743 -2.914515,-1.762381 -4.061697,-2.181429 -1.38593,-0.506226 -2.585616,-0.945088 -4.400502,-3.029432 z m 34.643304,2.144774 c -0.440842,0.34475 -3.195861,2.547972 -6.199536,6.039051 -1.889184,2.196289 -4.228127,3.377153 -6.951445,3.509901 -3.665435,0.172374 -7.850964,-1.638548 -11.20236,-4.842335 -0.115907,-0.116898 -0.221907,-0.20903 -0.334843,-0.318002 2.451879,-2.320121 3.846725,-5.085047 5.189067,-7.771711 2.592552,-5.188075 4.845307,-9.669811 14.091117,-10.614898 0.626095,0.320972 1.167985,0.609254 1.601894,0.84503 0.532974,0.289273 0.90348,0.85692 1.015425,1.557315 0.250636,1.56623 1.218508,3.01259 2.155671,4.410409 1.924848,2.875879 2.988814,4.767044 0.63501,7.18524 z m 29.45325,46.678811 c -2.873899,0.89853 -8.072871,-0.94904 -9.684671,-2.90263 -0.415086,-0.5518 -0.804414,-1.12043 -1.179873,-1.69898 0.861872,0.23875 1.796062,0.42995 2.814458,0.42995 2.374607,0 5.147458,-1.01146 8.184816,-4.66203 1.018395,1.86144 1.629632,3.70208 1.739594,6.50267 -0.115907,1.22446 -0.712283,1.96646 -1.874324,2.33102 z m -1.86838,-12.04244 c 0.325926,0.49137 0.626095,0.94905 0.913386,1.39584 -4.522353,5.81021 -7.891581,4.68482 -10.868508,3.67137 -0.186242,-0.0634 -0.361589,-0.11888 -0.540898,-0.17831 -3.645622,-6.87318 -5.141514,-15.06592 -6.485838,-22.451282 -0.773703,-4.251904 -1.50481,-8.26704 -2.561841,-11.82152 -1.276958,-5.185104 -2.03184,-10.48116 -2.285447,-13.20547 2.068493,1.056042 4.438146,2.309224 7.00296,3.737753 5.701236,25.083455 11.18849,33.364359 14.826186,38.851619 z m 35.34568,9.53706 c -5.38522,-28.843 -50.692953,-51.490429 -62.173686,-56.802337 0.605292,-0.204076 1.130341,-0.424992 1.611799,-0.655815 4.763085,1.848567 53.864047,21.56563 59.691107,49.930152 0,9.9e-4 9.8e-4,9.9e-4 9.8e-4,0.002 0.005,0.0258 0.0238,0.0486 0.0308,0.0743 0.0288,0.0971 0.0625,0.19218 0.11888,0.27541 0.003,0.004 0.003,0.0102 0.006,0.0139 0.0277,0.0396 0.0683,0.0625 0.10102,0.0971 0.0476,0.0515 0.0872,0.10897 0.14463,0.14958 0.17039,0.11988 3.97155,2.90758 1.48302,7.77964 -0.0693,-0.0102 -0.14167,-0.0198 -0.20705,-0.0308 -0.40914,-0.0704 -0.72616,-0.39825 -0.80739,-0.83315 z m 10.0839,-3.13345 c -2.36964,2.90461 -4.9087,3.8507 -6.90983,4.04981 1.6752,-4.06665 -0.10205,-6.99106 -1.40674,-8.43347 1.22643,-0.5726 3.34446,-1.28389 5.69629,-0.83116 0.31403,0.16643 1.79407,1.08577 3.36427,3.9557 -0.18723,0.44579 -0.42896,0.87377 -0.74399,1.25912 z"
     id="path9278"
     style="stroke-width:0.990658" /><path
     style="fill:#44aa00;stroke-width:0.203655"
     d="m 12.483203,42.698745 c -2.5199449,0.397922 -5.0874181,0.215254 -7.5861516,0.05052 -0.5967915,0.469564 0.08176,1.468151 0.00513,2.120805 0.3470587,3.393578 1.7323089,6.788354 4.5118739,8.902822 1.3590217,1.093212 2.8090827,2.110837 4.0241767,3.337239 1.16744,-0.01796 2.323498,-0.577215 3.518619,-0.582725 1.314023,-0.279808 2.792818,0.14322 4.050429,-0.327359 0.131444,-0.839964 -0.347997,-1.77782 -0.318189,-2.666542 -0.277325,-2.489327 -0.317923,-5.358125 -2.360353,-7.155042 -1.401194,-1.373656 -2.859854,-2.758057 -4.401655,-3.932691 -0.481294,0.08432 -0.962587,0.168651 -1.443882,0.252977 z"
     id="path9409" /><path
     style="fill:#44aa00;stroke-width:0.203655"
     d="m 4.7888596,33.266173 c -0.07648,2.473623 -0.025138,4.965256 -0.052903,7.445742 0.915543,0.435454 2.0986679,0.491072 3.1610291,0.598237 1.4146902,-0.01224 2.9022533,0.07732 4.2513003,-0.334917 C 11.197375,39.47679 9.6214566,38.227772 8.433904,36.82261 7.2477365,35.633346 6.18046,34.270203 4.9431919,33.169119 Z"
     id="path9411" /><path
     style="fill:#44aa00;stroke-width:0.203655"
     d="m 5.4789799,30.432106 c -0.5015759,0.488127 0.5290272,1.082586 0.7388639,1.513433 3.692752,4.011819 7.4868172,7.966907 11.5997702,11.547144 0.87713,-0.06325 1.04017,-1.385475 1.453429,-2.021437 1.280893,-2.80269 1.152857,-6.009245 0.818598,-8.997815 C 19.68191,31.683956 18.441024,32.213538 17.733756,32.059535 13.889135,32.34165 10.016024,32.014853 6.4145203,30.636159 6.1074091,30.566456 5.7980432,30.417297 5.4789799,30.432106 Z"
     id="path9413" /><path
     style="fill:#44aa00;stroke-width:0.203655"
     d="m 22.210518,32.177494 c -0.826542,0.332434 -0.08522,1.483434 -0.235743,2.130949 0.284005,3.331259 -0.357015,6.737364 -2.008427,9.674183 -0.382647,0.603925 -0.508,1.380608 0.305368,1.711206 4.919099,4.240804 9.93837,8.394749 14.702247,12.79773 0.783656,0.199065 0.247628,-0.875704 -0.110053,-1.04965 -3.722636,-4.78047 -8.313096,-9.295615 -9.88635,-15.326338 -0.810281,-2.843703 -0.517613,-5.833531 -0.697079,-8.71416 -0.668217,-0.37867 -1.26846,-1.135618 -2.069963,-1.22392 z"
     id="path9415" /><path
     style="fill:#44aa00;stroke-width:0.203655"
     d="m 22.071698,49.872018 c 0.08091,1.981323 0.130193,4.066656 0.79513,5.956115 0.851616,1.310117 2.729009,1.021254 4.029746,1.534175 1.793198,0.380574 3.516211,1.12619 5.30776,1.450645 0.424882,-0.5786 -0.703912,-1.08833 -1.000008,-1.522264 -2.931902,-2.553072 -5.837622,-5.166944 -8.900731,-7.550729 l -0.176972,0.100781 z"
     id="path9417" /><path
     style="fill:#44aa00;stroke-width:0.203655"
     d="m 19.364915,58.058395 c -3.202132,-0.01308 -6.804247,0.618573 -8.823595,3.380198 -2.5370538,3.176969 -2.9323816,7.900803 -1.1113521,11.49776 0.7032081,0.480875 1.6083341,-0.365541 2.3348071,-0.489056 3.250975,-1.092956 6.085631,-3.454048 7.384552,-6.67268 1.021161,-2.423383 1.831821,-4.945887 3.178133,-7.221801 -0.340698,-0.676258 -1.576671,-0.399946 -2.287142,-0.499576 -0.225158,-0.0027 -0.450268,0.0032 -0.675403,0.0052 z"
     id="path9419" /><path
     style="fill:#44aa00;stroke-width:0.203655"
     d="m 40.496914,64.627068 c -4.707731,0.315391 -9.42885,2.662787 -11.795573,6.875365 -2.253681,3.848193 -4.04232,8.009515 -6.99678,11.40586 -0.42854,0.687008 0.835129,1.036143 1.155807,1.504437 3.571584,2.922683 8.523698,5.016222 13.114369,3.382092 3.157883,-1.150062 5.002838,-4.214082 7.452027,-6.334043 1.449644,-1.663358 3.992541,-2.797748 4.270471,-5.211849 C 47.85172,73.629216 45.664,71.696027 44.628884,69.471035 43.62425,67.97702 43.678994,65.680542 41.747882,64.948859 41.364474,64.739372 40.939566,64.5945 40.496914,64.627068 Z"
     id="path9425" /><path
     style="fill:#44aa00;stroke-width:0.203655"
     d="m 24.93321,58.702773 c -1.257681,0.346406 -1.720566,1.880363 -2.307772,2.910697 -1.460919,3.507548 -2.501741,7.55196 -5.749728,9.871842 -1.889271,1.535279 -4.170649,2.460035 -6.439798,3.242173 -0.0782,0.870116 0.942108,1.524042 1.380639,2.21634 2.133915,2.532261 5.644671,2.993006 8.224563,4.900848 0.887779,-0.193883 1.305836,-1.345084 1.928756,-1.952622 3.404848,-4.469676 4.705129,-10.631547 9.57179,-13.91179 1.839023,-1.370776 4.093594,-2.005637 6.196762,-2.744571 -0.768004,-0.814506 -2.211491,-1.095168 -3.274914,-1.627661 -3.111671,-1.11974 -6.240411,-2.444392 -9.530298,-2.905256 z"
     id="path9427" /><path
     style="fill:#44aa00;stroke-width:0.203655"
     d="m 26.338113,37.880632 c -0.62856,0.602226 -0.01508,1.732986 -6.32e-4,2.501161 1.253312,6.771186 6.55517,11.607645 10.481709,16.908521 0.751273,0.770505 1.076796,1.949468 1.887787,2.638368 0.754946,-0.271548 -0.05859,-1.403326 -0.04454,-1.96217 -1.534965,-5.521615 -3.361987,-10.987166 -4.426719,-16.608628 -2.282067,-1.831338 -5.014882,-3.017777 -7.8976,-3.477252 z"
     id="path9429" /><path
     style="fill:#44aa00;stroke-width:0.203655"
     d="m 36.113159,26.0575 c -3.07327,-0.107796 -6.298631,1.010848 -8.148988,3.570725 -1.297347,1.756177 -1.972961,4.021838 -1.877843,6.193582 0.500375,0.810889 1.773527,0.417577 2.543124,0.842547 1.864953,0.42314 3.525435,1.436561 5.226796,2.207903 0.580683,-0.861434 0.267042,-2.134222 0.537378,-3.139948 0.43871,-3.578689 2.446496,-6.647533 5.027735,-9.07339 C 39.340971,25.982661 38.100096,26.210057 37.519899,26.07095 37.051491,26.04577 36.582,26.0481 36.113159,26.0575 Z"
     id="path9431" /><path
     style="fill:#44aa00;stroke-width:0.203655"
     d="m 30.331264,20.56995 c -1.009915,0.60325 -0.880356,2.115168 -1.026629,3.144721 0.09238,0.676638 -0.197263,1.573068 0.239852,2.132412 1.80048,-0.714102 3.714231,-1.558199 5.731777,-1.413653 0.463165,-0.522442 -0.724816,-1.131355 -1.116467,-1.52709 -1.226307,-0.803183 -2.427102,-1.899209 -3.828533,-2.33639 z"
     id="path9433" /><path
     style="fill:#44aa00;stroke-width:0.203655"
     d="m 37.857752,17.397783 c -1.813172,0.861979 -3.839146,1.190654 -5.671715,1.927564 0.864297,0.975348 2.31548,1.548606 3.285857,2.528162 1.259278,0.792347 1.823473,2.652841 3.492436,2.706012 1.149543,0.07924 2.22054,1.081199 3.343228,0.368366 2.463383,-0.925835 5.113942,-0.621684 7.655738,-0.268528 0.652469,-0.373639 0.330215,-1.706964 -0.382251,-1.925574 -2.701387,-0.621746 -5.477176,-1.297012 -7.709061,-3.0417 -1.17985,-0.731752 -1.926838,-2.057214 -3.008686,-2.797472 -0.335182,0.167723 -0.670364,0.335446 -1.005546,0.50317 z"
     id="path9435" /><path
     style="fill:#44aa00;stroke-width:0.203655"
     d="m 44.177821,8.7583534 c -1.511769,0.7204559 -2.481554,2.2442066 -2.666098,3.8948876 -0.195749,1.112788 -0.897879,2.0842 -1.158799,3.120075 1.596632,2.113396 3.862419,3.855504 6.427068,4.547237 0.853451,-0.350948 0.218541,-1.583179 0.256418,-2.270088 -0.605891,-3.096109 -1.181938,-6.286983 -2.536401,-9.1509058 -0.07509,-0.096421 -0.195823,-0.1699327 -0.322188,-0.1412058 z"
     id="path9437" /><path
     style="fill:#44aa00;stroke-width:0.203655"
     d="m 50.302191,6.4584826 c -1.269706,0.558202 -2.524235,1.2074807 -3.892915,1.5425279 -0.102609,1.2381045 0.73478,2.5494445 0.948784,3.8352215 0.80989,2.932051 1.412003,5.958638 1.785047,8.948908 0.624885,0.609434 0.848616,-0.512286 0.77564,-0.967758 0.120539,-4.406077 -0.0076,-8.873615 0.681767,-13.2192844 -0.052,-0.1115889 -0.182832,-0.1596109 -0.298323,-0.139615 z"
     id="path9439" /><path
     style="fill:#44aa00;stroke-width:0.203655"
     d="m 52.178044,7.4588586 c -0.337045,3.2478214 -0.650736,6.5337344 -0.62608,9.7957294 0.400632,0.657646 1.270461,-0.252296 1.702819,-0.503038 2.018458,-1.625702 3.578084,-3.829289 5.781904,-5.194132 C 57.134604,9.8430677 54.328628,9.2878707 52.496256,7.3872612 l -0.177005,-0.044152 z"
     id="path9441" /><path
     style="fill:#44aa00;stroke-width:0.203655"
     d="m 60.087578,13.088808 c -2.061581,0.78407 -3.225414,2.913749 -4.899654,4.259254 -0.991077,0.977731 -2.282999,1.581248 -3.511338,2.018145 0.107046,1.92411 0.0082,3.98736 0.429861,5.878263 1.24054,0.482036 2.64444,-0.220051 3.880187,-0.502773 2.561456,-0.787015 4.980052,-2.427424 6.360243,-4.748505 0.289062,-1.447213 -0.735392,-2.81669 -0.987658,-4.217538 -0.413234,-0.833356 -0.35268,-2.166956 -1.194076,-2.684857 l -0.04773,-0.0023 z"
     id="path9443" /><path
     style="fill:#44aa00;stroke-width:0.203655"
     d="m 45.679778,25.92942 c -3.885156,0.0983 -6.951788,3.242651 -8.581358,6.532077 -1.950021,4.255954 -1.300523,9.218812 -0.07916,13.551019 1.204385,-0.8823 2.608973,-1.723906 4.007471,-2.393743 0.835865,-2.387758 1.783781,-4.900066 3.788438,-6.594618 C 48.237281,33.853584 53.14627,33.4591 57.574502,33.597909 57.926138,32.865025 57.2621,31.773317 56.834262,31.027957 54.345375,27.59166 49.795143,25.985518 45.679768,25.92942 Z"
     id="path9445" /><path
     style="fill:#44aa00;stroke-width:0.203655"
     d="m 54.61395,35.285223 c -2.218234,0.100138 -4.667319,0.286977 -6.5281,1.592647 -0.214614,0.879962 1.2252,0.857157 1.720732,1.233355 4.128935,1.804436 7.887382,4.462282 10.893156,7.822931 0.746015,0.784497 1.636121,-0.465569 2.222306,-0.887809 2.377141,-2.279161 1.500801,-6.413992 -1.11533,-8.126314 -2.06276,-1.455924 -4.751926,-1.618745 -7.192764,-1.63481 z"
     id="path9447" /><path
     style="fill:#44aa00;stroke-width:0.203655"
     d="m 45.584711,38.48762 c -3.33755,3.48333 -3.392203,8.657459 -3.130188,13.170767 0.324467,4.008408 0.683513,8.00378 0.59166,12.031151 0.699089,0.914574 1.958026,1.326974 3.019065,0.739943 2.273706,-0.557231 4.695717,-2.185589 4.787396,-4.748851 0.23689,-2.945494 0.375932,-6.251113 2.6241,-8.48207 1.563431,-1.852913 3.76247,-3.003473 5.812124,-4.159416 -3.424944,-4.170551 -8.363754,-6.972965 -13.47942,-8.613974 l -0.19622,0.05453 z"
     id="path9449" /><path
     style="fill:#44aa00;stroke-width:0.203655"
     d="m 40.401054,45.816816 c -1.127849,0.567766 -2.284031,1.35078 -2.809406,2.525403 1.12889,3.674531 2.170978,7.395695 3.220295,11.076528 0.725416,0.292749 0.40012,-1.060913 0.4447,-1.441893 -0.308901,-3.991586 -0.665604,-7.975052 -0.552493,-11.982238 0.01421,-0.160234 -0.184651,-0.247675 -0.303096,-0.1778 z"
     id="path9451" /><path
     style="fill:#44aa00;stroke-width:0.203655"
     d="m 63.5525,21.483613 c -2.093107,2.337313 -4.638029,4.356298 -7.72895,5.125188 -0.613693,0.05766 -0.599948,0.756468 -0.05251,0.921618 1.978996,1.533564 3.446629,3.763903 3.755289,6.267167 0.626786,0.840548 1.927527,0.770859 2.710803,1.476244 0.973274,0.744545 1.645072,-0.857238 2.216696,-1.455957 1.900204,-2.72141 3.373402,-5.842253 3.910813,-9.118737 -1.569347,-0.942106 -3.262973,-1.829905 -4.530927,-3.221092 l -0.203615,0.004 z"
     id="path9453" /><path
     style="fill:#44aa00;stroke-width:0.203655"
     d="m 70.176858,25.46165 c -0.644465,0.61942 -0.543562,1.814591 -0.945205,2.633163 -0.99061,3.076102 -2.620011,5.902732 -4.728499,8.338754 -0.313125,0.913238 0.78972,1.607971 0.957817,2.48483 0.538976,0.891869 0.332778,2.148141 1.027423,2.909245 1.290691,-0.271336 2.576631,-0.922627 3.933486,-1.083906 2.253091,-0.525139 4.779333,-0.353391 6.844323,-1.510707 1.30462,-1.984041 0.44498,-4.542373 -0.220362,-6.612028 -1.067933,-3.22838 -3.67155,-5.827612 -6.760393,-7.156964 -0.0359,-0.0038 -0.07257,-0.0074 -0.10859,-0.0023 z"
     id="path9455" /><path
     style="fill:#44aa00;stroke-width:0.203655"
     d="m 73.475514,41.983566 c -3.063026,0.204503 -6.29801,0.949085 -8.470791,3.283821 -1.236056,1.365819 -2.695458,2.528586 -4.468069,3.104663 -1.27172,0.707815 -2.856993,1.137908 -3.807793,2.272426 0.09868,2.179474 0.756284,4.355754 1.348021,6.461275 0.489888,1.292092 0.887711,2.76473 1.863126,3.768415 0.752566,-0.307223 0.694817,-1.507641 1.06004,-2.169006 2.388381,-6.590521 7.096335,-12.277973 12.91937,-16.174669 0.368205,-0.353583 -0.0859,-0.629575 -0.443904,-0.546925 z"
     id="path9457" /><path
     style="fill:#44aa00;stroke-width:0.203655"
     d="m 54.830334,52.182629 c -0.91053,0.728854 -1.408527,1.978335 -1.750161,3.084657 -0.193564,1.243667 -0.383932,2.60875 -0.131659,3.809385 1.432495,0.454078 2.827335,1.375681 4.3046,1.555655 0.30973,-0.972133 -0.548066,-2.019926 -0.729897,-2.990787 -0.683209,-1.754044 -0.836766,-3.716841 -1.547699,-5.430272 -0.04325,-0.02446 -0.0959,-0.0347 -0.145184,-0.02864 z"
     id="path9459" /><path
     style="fill:#44aa00;stroke-width:0.203655"
     d="m 75.684694,43.417504 c -4.059587,2.609472 -7.618038,6.072983 -10.252761,10.119112 -0.981862,1.802591 -2.215537,3.568817 -2.730648,5.56591 0.260874,0.78911 1.162326,-0.102941 1.655095,-0.227124 4.10785,-1.602636 8.910755,0.681971 12.869251,-1.571962 1.618792,-1.19199 3.450352,-2.52182 4.12839,-4.494334 0.356551,-2.177116 -1.752558,-3.684784 -2.948622,-5.198376 -1.199476,-1.17863 -1.876482,-2.747345 -2.554837,-4.221467 z"
     id="path9461" /><path
     style="fill:#ffaaaa;stroke-width:0.203655"
     d="m 115.33539,114.26759 c -1.38008,0.14138 -3.02794,0.0496 -4.15743,0.95265 -0.18559,0.96629 0.95231,1.64639 1.14676,2.55086 0.86692,1.83064 0.54264,3.93272 0.093,5.81372 0.57234,0.58918 1.61828,-0.0751 2.2947,-0.25894 2.06178,-1.02486 4.26544,-2.36708 5.27435,-4.52338 0.16708,-1.18608 -1.00734,-2.07819 -1.61094,-2.98124 -0.77298,-0.87988 -1.77251,-1.76596 -3.0405,-1.55367 z"
     id="path9463" /><path
     style="fill:#ffd5d5;stroke-width:0.203655"
     d="m 75.803625,116.49269 c -2.133204,1.9739 -4.518096,4.63546 -7.688376,4.36968 -0.974664,0.17496 -2.540642,-0.37815 -3.111309,0.30802 1.61986,3.04606 5.301041,4.27144 8.541978,4.53332 1.580742,0.15272 3.984416,-0.37479 4.086228,-2.313 0.145538,-2.40432 -0.468887,-4.87532 -1.65072,-6.93939 z"
     id="path9534" /><path
     style="fill:#ffd5d5;stroke-width:0.203655"
     d="m 115.21287,114.09497 c -1.52218,0.12553 -3.20435,0.24943 -4.45733,1.17977 0.86393,1.55282 2.00895,3.10965 1.73649,5.01062 0.0337,1.24729 -0.095,2.50591 -0.25603,3.7179 2.08942,0.001 4.04936,-1.26632 5.71747,-2.46136 0.90032,-0.89874 2.23705,-1.93432 2.13996,-3.33803 -0.69067,-1.73956 -2.09709,-3.36026 -3.85432,-4.06197 -0.33799,-0.0617 -0.68421,-0.0559 -1.02624,-0.047 z"
     id="path9605" /><path
     style="fill:url(#linearGradient10001);fill-opacity:1;stroke-width:0.203655"
     d="m 52.435398,60.74887 c -0.238842,1.280246 -1.11819,2.293902 -1.706805,3.402074 5.969857,2.681553 12.023286,5.317364 17.788528,8.478182 9.189841,5.017721 18.164703,10.639797 25.843754,17.803491 4.752244,4.454286 9.222395,9.346371 12.251945,15.155373 1.47889,2.5844 2.3601,5.45302 3.38657,8.19394 2.28496,-1.05464 5.03146,-1.53681 7.51057,-0.85957 1.05179,0.45655 1.62313,1.67436 2.67854,2.04213 0.71792,-0.46984 0.0168,-1.61544 0.037,-2.30108 -1.63953,-8.58862 -7.56767,-15.576533 -13.84217,-21.321168 C 96.041278,82.133854 83.932285,75.153934 71.54642,69.083277 65.282603,66.088691 58.932156,63.126756 52.435398,60.74887 Z"
     id="path9607" /><path
     style="fill:url(#linearGradient10739);fill-opacity:1;stroke-width:0.203655"
     d="m 48.607319,65.432539 c -0.517171,0.104275 -2.139077,0.278799 -1.376238,0.860262 16.146711,7.847794 31.899699,17.040769 44.984699,29.46403 7.53278,7.275779 14.27549,15.982079 16.70248,26.366999 0.15785,0.56612 0.46605,2.05775 1.35478,1.55525 1.10367,-1.63481 1.12123,-3.95475 0.32298,-5.73297 -0.83923,-1.3501 -2.24934,-2.37401 -2.46454,-4.05515 C 105.76418,104.45641 98.958954,96.982962 91.931642,90.615866 81.13362,81.042938 68.325613,74.061714 55.286569,68.048235 c -2.206506,-0.854134 -4.34945,-2.177538 -6.67925,-2.615696 z"
     id="path10731" /><path
     style="fill:url(#linearGradient10873);fill-opacity:1;stroke-width:0.203655"
     d="m 52.117584,70.830194 c -0.526447,0.504113 0.108659,1.554179 0.0348,2.249753 1.045723,8.177402 3.549062,16.065703 4.846595,24.194215 1.446681,7.002488 2.635993,14.257688 6.101664,20.605538 1.022059,1.18641 2.820029,1.26448 4.273481,1.43014 3.141152,0.18376 5.684668,-2.16404 7.497543,-4.4639 -0.767544,-1.8055 -2.179317,-3.43 -3.141225,-5.20138 C 65.802927,99.81893 62.703403,88.619001 59.916479,77.557814 59.52489,76.507645 59.642238,75.116812 58.92965,74.275121 56.721397,73.038704 54.500456,71.681369 52.117582,70.830194 Z"
     id="path10865" /><path
     style="fill:#008000;stroke-width:0.203655"
     d="m 22.093178,49.486982 c -0.601038,0.553854 -0.116577,1.649785 -0.191325,2.383402 0.263395,1.54959 0.163409,3.435899 1.264491,4.662985 2.502681,0.984046 5.194456,1.442738 7.757384,2.269237 0.470237,0.168465 1.828603,0.521674 1.582111,-0.415657 -2.96673,-3.09546 -6.318461,-5.825058 -9.664071,-8.504191 -0.235593,-0.137908 -0.456965,-0.394959 -0.74859,-0.395776 z"
     id="path11672" /><path
     style="fill:#008000;stroke-width:0.203655"
     d="m 40.321899,45.619924 c -1.190058,0.500752 -2.364484,1.467652 -2.875037,2.667801 0.945033,3.737477 1.901741,7.513208 3.29428,11.113522 0.369952,0.676025 0.965128,-0.16615 0.764104,-0.657903 -0.307717,-4.301648 -0.280965,-8.644325 -0.859568,-12.918175 -0.03813,-0.139031 -0.174192,-0.246404 -0.323779,-0.205245 z"
     id="path11674" /><path
     style="fill:#008000;stroke-width:0.203655"
     d="m 54.930968,51.923684 c -1.698062,1.142157 -2.177065,3.429734 -2.362049,5.354096 -0.132965,0.911448 -0.01597,2.208364 1.114662,2.383206 1.173596,0.286082 2.269034,1.212153 3.4864,1.171813 0.792385,-0.736142 -0.06421,-1.978384 -0.253206,-2.827374 -0.724508,-1.966424 -0.993721,-4.116383 -1.773401,-6.037987 -0.06193,-0.04148 -0.139499,-0.05465 -0.212406,-0.04375 z"
     id="path11676" /><path
     style="fill:#008000;stroke-width:0.203655"
     d="m 37.620685,17.173843 c -1.769946,0.813807 -3.747676,1.141173 -5.498688,2.003933 -0.132271,0.742137 1.02507,1.082118 1.456611,1.552075 1.69455,1.029756 2.855612,2.770093 4.53411,3.812168 1.568836,0.56566 3.32032,1.263829 4.943806,0.463793 2.387359,-0.792357 4.959075,-0.02751 7.377326,-0.251784 0.344892,-1.039742 -0.220426,-2.196135 -1.340861,-2.372264 -3.432772,-0.789408 -6.786498,-2.197945 -9.204167,-4.847023 -0.746634,-0.986027 -1.234697,-1.008608 -2.268137,-0.360898 z"
     id="path11678" /><path
     style="fill:#008000;stroke-width:0.203655"
     d="m 63.585514,21.188075 c -2.216206,2.211805 -4.70104,4.285789 -7.754008,5.197978 -0.676096,0.14524 -0.852049,0.866942 -0.257751,1.26648 1.801747,1.692144 3.301731,3.728597 3.735002,6.182443 0.840631,0.933904 2.170686,1.408117 3.364286,1.741808 1.384418,-0.07084 1.892298,-1.733145 2.661041,-2.655471 1.524593,-2.523965 2.838393,-5.259338 3.277176,-8.201095 -1.460305,-1.244516 -3.381498,-2.086172 -4.750891,-3.534132 l -0.20365,0.0014 z"
     id="path11680" /></svg>
