<?xml version="1.0" encoding="UTF-8" standalone="no"?>
<svg
   version="1.1"
   x="0px"
   y="0px"
   viewBox="0 0 64 80"
   style="enable-background:new 0 0 64 64;"
   xml:space="preserve"
   id="svg26043"
   sodipodi:docname="sage.svg"
   inkscape:version="1.2.2 (b0a8486541, 2022-12-01)"
   xmlns:inkscape="http://www.inkscape.org/namespaces/inkscape"
   xmlns:sodipodi="http://sodipodi.sourceforge.net/DTD/sodipodi-0.dtd"
   xmlns="http://www.w3.org/2000/svg"
   xmlns:svg="http://www.w3.org/2000/svg"><defs
     id="defs26047" /><sodipodi:namedview
     id="namedview26045"
     pagecolor="#ffffff"
     bordercolor="#000000"
     borderopacity="0.25"
     inkscape:showpageshadow="2"
     inkscape:pageopacity="0.0"
     inkscape:pagecheckerboard="0"
     inkscape:deskcolor="#d1d1d1"
     showgrid="false"
     inkscape:zoom="9.85"
     inkscape:cx="32.030457"
     inkscape:cy="40.812183"
     inkscape:window-width="1857"
     inkscape:window-height="1011"
     inkscape:window-x="0"
     inkscape:window-y="0"
     inkscape:window-maximized="1"
     inkscape:current-layer="svg26043" /><path
     d="M22.6644363,3.750982c2.6864014,3.123801,5.1087532,6.4818001,7.1430683,10.067111  c1.0619316,1.8552227,1.9539547,3.8011408,2.9424114,5.6953974c2.0159492,3.9607182,4.1489944,7.9191399,5.3016243,12.2380428  c0.7198143,2.7151031,0.9517174,5.615036,0.2583046,8.3599854c3.023922,4.1007767,6.3050041,8.0270538,9.9706764,11.5698891  c-0.1790924-0.733593-0.3168564-1.4763718-0.4615097-2.2168541c-0.359333-0.0803642-0.7278519-0.1710587-1.0251923-0.3983688  c-2.0297241-1.5154037-3.3683319-3.836731-3.9033165-6.2923737c-0.8196983-4.0525627-1.5154037-8.1671143-1.4143791-12.3161106  c0.1262856-4.8343716,1.7599373-9.5883827,4.5083313-13.5559883c0.6486397-0.9241667,1.2915382-1.8506308,1.9424744-2.7713537  c0.2984886-0.4546213,0.8862801-0.6934128,1.4143753-0.5441685c0.4902115,0.1102114,0.8529892,0.5372801,0.9643517,1.0171585  c1.2915382,4.363677,2.0940132,8.8869314,2.2191467,13.441184c0.0952873,3.0250702,0.3363762,6.0466957,0.2996368,9.0752106  c-0.0298462,2.1605988-0.1986084,4.3361244-0.7485161,6.4335823c-0.4672508,1.8380013-1.2823563,3.6025314-2.4831963,5.077755  c-0.1848335,0.2330513-0.4178848,0.4201813-0.6509361,0.6027184c0.2651939,1.2823524,0.4833221,2.5842247,0.8690605,3.8355827  c1.6474304,1.5992088,3.3660355,3.1329842,5.0306854,4.7161217c0.4603615,0.4316635,0.5717201,1.1778831,0.2548637,1.72435  c-0.2537155,0.3926277-0.6015701,0.7129288-0.920723,1.0504494C53.9449234,60.8105736,53.6188812,60.9368591,53.2916908,61  h-0.3352242c-0.3225975-0.0746231-0.6268272-0.2227173-0.8656197-0.4534721  c-1.7897835-1.6589088-3.5669403-3.3315964-5.3865738-4.9583626c-2.6967354-2.260479-5.7045822-4.127182-8.8364182-5.7218018  c-0.4236259,0.3180084-0.9264641,0.4925079-1.4247131,0.6543808c-2.1387863,0.6968575-4.4463348,0.625679-6.6356373,0.2307549  c-2.546339-0.4661026-4.9996872-1.3156471-7.4427052-2.1537132c-2.1399345-0.753109-4.3280888-1.3856773-6.3968458-2.3259163  c-2.1605997-0.9425354-4.2431335-2.0607224-6.2372694-3.3166695c-0.3363733-0.2192764-0.7312975-0.4201813-0.901206-0.8082161  c-0.2537155-0.5326881-0.0367374-1.2444687,0.4902105-1.5222931c0.3490019-0.1756516,0.7301493-0.2720833,1.0963726-0.4018135  c1.1399975-0.3742599,2.2650709-0.8047714,3.432622-1.0883369c3.703557-0.9390907,7.6688681-0.8954659,11.3265047,0.2319031  c2.7770939,0.8151054,5.4106846,2.0435028,7.9765415,3.3683319c0.802475,0.3983688,1.5980644,0.8219948,2.3029556,1.3787918  c1.2479134,0.9631996,2.2547379,2.250145,2.8333473,3.7196274c0.1400604,0.3225975,0.1400604,0.6784897,0.1366158,1.0240479  c1.300724,0.6830826,2.5899658,1.3879738,3.8447685,2.1537132c-2.2432594-2.6450729-4.2683907-5.4715309-6.1006546-8.4150925  c-0.1607246-0.2250137-0.2594566-0.5694237-0.5809059-0.5981255c-2.4338303-0.5384254-4.634613-1.9263992-6.3004093-3.7655525  c-0.778368-0.8472481-1.4109344-1.8127441-2.0733509-2.7506866c-2.1755238-3.0755844-4.2144337-6.2682686-5.7952766-9.6951504  c-1.9734707-4.2247658-2.8804169-8.9317055-2.6657352-13.588131c0.0769196-2.5199356,0.6360111-4.9847646,1.0848923-7.4553337  c0.0815105-0.4098482,0.118248-0.8598778,0.3926277-1.1973999c0.3811474-0.4993949,1.1090012-0.6853764,1.684166-0.4339569  C22.2281837,3.2378106,22.4497547,3.5030067,22.6644363,3.750982z M21.0744095,4.4145455  c-0.2491226,1.2559495-0.4706936,2.5176392-0.7117805,3.7758842c-0.955164,5.127121-0.5246525,10.525177,1.3684559,15.3939896  c1.4338951,3.634676,3.492321,6.9823437,5.6919537,10.1968384c0.6991539,0.980423,1.3650131,1.9872475,2.0940151,2.945858  c1.3799362,1.7886353,3.2592678,3.215641,5.4210148,3.9113503c-2.3592072-3.9928627-4.4589634-8.136116-6.35322-12.3689194  c-1.5498447-3.4693584-2.9837399-6.993824-4.2396889-10.5802822c-0.1480961-0.3501511,0.0574017-0.7760715,0.4362526-0.8438053  c0.3271904-0.073473,0.6153469,0.1986103,0.7106323,0.4936543c3.122654,7.5839138,7.1338863,14.7993069,11.8970776,21.4751263  c0.5303917-2.9906273-0.1262817-6.0466957-1.0963707-8.8788948c-1.5360718-4.378603-3.8711739-8.4047585-5.9066372-12.5571976  c-2.3041039-4.7276049-5.3096581-9.0958748-8.7549076-13.0623322C21.5026264,4.0689874,21.0847416,4.1080208,21.0744095,4.4145455z   M48.914238,14.7480011c-0.645195,0.8529892-1.231842,1.7518997-1.8563728,2.6221104  c-2.7162476,3.8436184-4.3280869,8.4828243-4.4360008,13.1977997c-0.0849571,4.0445232,0.6015663,8.0534611,1.3994522,12.0038433  c0.4821739,2.2260399,1.7094231,4.3212013,3.5726814,5.664402c-0.9448318-5.6770287-1.2720222-11.4459-1.142292-17.1952553  c0.0654373-2.7070637,0.2227173-5.4141293,0.5407219-8.1028252c0.0206642-0.4477329,0.6164932-0.6853752,0.9413872-0.3799992  c0.3134155,0.2537155,0.1595764,0.6853771,0.137764,1.0251942c-0.5028381,4.7241611-0.6061592,9.4885025-0.4018097,14.233326  c0.1435051,3.3832588,0.4867668,6.7561836,1.0332298,10.0981102c1.0757065-1.3432007,1.8161888-2.9332275,2.2432594-4.5955811  c0.5545006-2.092865,0.7083359-4.2683907,0.7324448-6.4255486c0.0218124-2.9538918-0.2112389-5.9008942-0.3030815-8.8513412  c-0.1216888-4.4279671-0.9057999-8.8249378-2.1583023-13.0703688C49.2000999,14.840992,49.0646286,14.5447989,48.914238,14.7480011z   M32.3262939,33.3691139c1.7955246,3.5818672,3.7781792,7.0764847,5.9720726,10.4298897  c2.0102081,3.0170364,4.206398,5.9227104,6.7332191,8.5275993c1.3707542,1.4270058,2.8735313,2.7162476,4.3212013,4.0617447  c1.172142,1.161808,2.3936501,2.2719574,3.6082726,3.3889961c0.3134117,0.236496,0.5372772-0.2020531,0.7404785-0.3800011  c0.1641693-0.2204208,0.6015701-0.4787292,0.3467064-0.7749214c-1.1411438-1.0917816-2.3109894-2.1548615-3.4613228-3.2374573  c-1.757637-1.6474266-3.5646439-3.2477875-5.220108-5.0008354c-2.7173996-2.8586044-5.2338905-5.9054871-7.5908051-9.0660248  C35.7990952,38.7832451,34.064415,36.0681419,32.3262939,33.3691139z M15.1057806,40.0254173  c-1.8081541,0.3490028-3.5256128,1.0320816-5.2671804,1.6106911c2.0515366,1.3845291,4.2546139,2.5440445,6.5150928,3.550869  c1.9011459,0.8725052,3.9102039,1.4694824,5.8825283,2.152565c2.6829548,0.9092407,5.3647633,1.8931084,8.1728535,2.3431358  c2.0641651,0.3317833,4.240839,0.3271904,6.2143078-0.4362526c-6.3061504-2.9848862-13.0359268-5.047905-19.8931332-6.2946701  c-0.4488811-0.0895462-0.5740185-0.7462234-0.1997585-1.0033836c0.3754063-0.2548637,0.8438053,0.0045929,1.2490616,0.02985  c6.7068157,1.2926865,13.2804585,3.3568535,19.4522896,6.2935219c-0.6727486-1.7266426-2.0216866-3.1387253-3.6415634-4.0146751  c-2.8092403-1.4786682-5.6793251-2.8884506-8.7319489-3.7908058C21.7127171,39.5007629,18.3260155,39.3710365,15.1057806,40.0254173  z"
     id="path26037" /><path
     style="fill:#6f916f;stroke:#000000;stroke-width:0.203046;stroke-linecap:round;stroke-linejoin:round;paint-order:markers stroke fill"
     d="m 49.066862,14.534026 c -0.590821,0.330135 -0.886618,1.051554 -1.326688,1.554869 -2.238327,2.979123 -3.941487,6.379255 -4.74193,10.030984 -0.591266,2.611203 -0.539857,5.320934 -0.436965,7.980851 0.309042,3.239013 0.790997,6.476131 1.61127,9.62726 0.613317,1.799299 1.710208,3.492097 3.276293,4.597081 0.544714,-0.03059 0.141923,-0.764753 0.169934,-1.10133 -0.608606,-3.927142 -0.939436,-7.918802 -0.936055,-11.903865 -0.07123,-4.181795 -0.02761,-8.368754 0.528772,-12.511738 0.214328,-0.375781 0.844931,-0.176458 0.706496,0.278593 -0.24306,3.070307 -0.51541,6.172822 -0.510667,9.269697 -0.04194,5.205577 0.293662,10.421491 1.126744,15.562156 0.458451,0.448288 0.704992,-0.629018 1.010073,-0.907361 1.869176,-3.009829 2.292561,-6.646567 2.255047,-10.120554 -0.01444,-4.599886 -0.162287,-9.209885 -0.664391,-13.784506 -0.38565,-2.855062 -0.988627,-5.692233 -1.857947,-8.438293 -0.03927,-0.07822 -0.116717,-0.14173 -0.209986,-0.133844 z"
     id="path26235" /><path
     style="fill:#6f916f;stroke:#000000;stroke-width:0.203046;stroke-linecap:round;stroke-linejoin:round;paint-order:markers stroke fill"
     d="m 21.309288,4.0363261 c -0.539216,0.1668042 -0.432591,0.9304422 -0.59846,1.3609033 -0.586518,2.8676972 -1.098601,5.7790016 -0.931323,8.7190066 -0.06273,4.712311 1.379246,9.331305 3.617346,13.442456 1.897547,3.489956 4.092688,6.826371 6.554577,9.943223 1.309487,1.437742 2.937235,2.642897 4.798929,3.249791 0.53655,-0.128032 -0.02908,-0.719303 -0.134,-1.011623 -3.928935,-6.888722 -7.234164,-14.126476 -9.90189,-21.589504 -0.159349,-0.374667 -0.399468,-1.082048 0.226642,-1.148081 0.557634,0.494491 0.712303,1.333252 1.062421,1.978506 2.955377,6.950915 6.760741,13.511117 11.058823,19.71327 0.320368,0.625544 0.638449,-0.08152 0.593104,-0.483812 0.177589,-2.672163 -0.151682,-5.37424 -1.07293,-7.894789 C 35.173298,26.098516 32.953392,22.218477 31.000111,18.24119 29.146222,14.543675 27.130205,10.904871 24.549714,7.6568327 23.565945,6.4504124 22.719114,5.0849049 21.512532,4.0868893 21.450588,4.0540239 21.380362,4.029732 21.309288,4.0363261 Z"
     id="path26237" /><path
     style="fill:#6f916f;stroke:#000000;stroke-width:0.203046;stroke-linecap:round;stroke-linejoin:round;paint-order:markers stroke fill"
     d="m 18.985961,39.462048 c -3.171435,-0.03309 -6.224875,0.942184 -9.1822649,1.984058 -0.3674215,0.48589 0.6404159,0.67479 0.9297669,0.979735 3.173003,1.941237 6.570742,3.511475 10.120454,4.627939 3.767708,1.214188 7.515324,2.792504 11.51561,2.996981 1.469201,0.0097 3.018819,-0.09759 4.360129,-0.698167 -0.0564,-0.476509 -0.769536,-0.514104 -1.121586,-0.768018 -5.857604,-2.646448 -12.053504,-4.487459 -18.353425,-5.727169 -0.336699,-0.07043 -1.020251,-0.223841 -0.690757,-0.71472 0.869355,-0.20439 1.771714,0.201354 2.645501,0.3136 6.058582,1.272984 12.006893,3.206375 17.632893,5.811876 0.347986,0.230446 0.613929,-0.221804 0.384082,-0.504838 -0.951746,-1.85181 -2.587025,-3.281746 -4.477384,-4.127117 -4.278353,-2.180773 -8.850576,-4.281824 -13.763019,-4.17416 z"
     id="path26239" /><path
     style="fill:#447821;stroke:#000000;stroke-width:0.203046;stroke-linecap:round;stroke-linejoin:round;paint-order:markers stroke fill"
     d="m 32.870201,34.336929 c -0.285246,0.386864 0.277353,0.82258 0.377014,1.20602 3.733017,6.946594 8.018896,13.757247 13.918561,19.082738 1.964829,1.793593 3.858564,3.674078 5.879116,5.402073 0.510593,-3.5e-4 0.795761,-0.609781 1.111794,-0.946621 0.327258,-0.497405 -0.452706,-0.828641 -0.685366,-1.1855 -3.919931,-3.820808 -8.081107,-7.408846 -11.556068,-11.66051 -3.148094,-3.687633 -5.961261,-7.642581 -8.654624,-11.672748 -0.0946,-0.132216 -0.191767,-0.308207 -0.390427,-0.225452 z"
     id="path26314" /></svg>
