<?xml version="1.0" encoding="UTF-8" standalone="no"?>
<svg
   viewBox="0 0 200 250"
   x="0px"
   y="0px"
   version="1.1"
   id="svg32927"
   sodipodi:docname="spring-onion.svg"
   inkscape:version="1.2.2 (b0a8486541, 2022-12-01)"
   xmlns:inkscape="http://www.inkscape.org/namespaces/inkscape"
   xmlns:sodipodi="http://sodipodi.sourceforge.net/DTD/sodipodi-0.dtd"
   xmlns:xlink="http://www.w3.org/1999/xlink"
   xmlns="http://www.w3.org/2000/svg"
   xmlns:svg="http://www.w3.org/2000/svg"
   xmlns:rdf="http://www.w3.org/1999/02/22-rdf-syntax-ns#"
   xmlns:cc="http://creativecommons.org/ns#"
   xmlns:dc="http://purl.org/dc/elements/1.1/">
  <defs
     id="defs32931">
    <linearGradient
       inkscape:collect="always"
       id="linearGradient40129">
      <stop
         style="stop-color:#ecfff1;stop-opacity:1;"
         offset="0"
         id="stop40125" />
      <stop
         style="stop-color:#00bc1d;stop-opacity:1;"
         offset="1"
         id="stop40127" />
    </linearGradient>
    <linearGradient
       inkscape:collect="always"
       id="linearGradient33447">
      <stop
         style="stop-color:#e3f2e3;stop-opacity:1;"
         offset="0"
         id="stop33445" />
      <stop
         style="stop-color:#009e00;stop-opacity:1;"
         offset="1"
         id="stop33443" />
    </linearGradient>
    <inkscape:path-effect
       effect="fill_between_many"
       method="originald"
       linkedpaths="#path32917,0,1"
       id="path-effect33053" />
    <linearGradient
       inkscape:collect="always"
       xlink:href="#linearGradient33447"
       id="linearGradient33449"
       x1="21.305454"
       y1="134.96889"
       x2="108.53346"
       y2="51.302273"
       gradientUnits="userSpaceOnUse" />
    <inkscape:path-effect
       effect="fill_between_many"
       method="originald"
       linkedpaths="#path32917-5,0,1|"
       id="path-effect39758" />
    <linearGradient
       inkscape:collect="always"
       xlink:href="#linearGradient40129"
       id="linearGradient40131"
       x1="68.244789"
       y1="227.71753"
       x2="119.28449"
       y2="157.68004"
       gradientUnits="userSpaceOnUse" />
    <linearGradient
       inkscape:collect="always"
       xlink:href="#linearGradient33447"
       id="linearGradient33449-9"
       x1="21.305454"
       y1="134.96889"
       x2="108.53346"
       y2="51.302273"
       gradientUnits="userSpaceOnUse" />
    <inkscape:path-effect
       effect="fill_between_many"
       method="originald"
       linkedpaths="#path32917,0,1"
       id="path-effect33053-8"
       is_visible="true"
       lpeversion="0"
       join="true"
       close="true"
       autoreverse="true" />
    <inkscape:path-effect
       effect="fill_between_many"
       method="originald"
       linkedpaths="#path32917-5-2,0,1"
       id="path-effect39758-3"
       is_visible="true"
       lpeversion="0"
       join="true"
       close="true"
       autoreverse="true" />
    <linearGradient
       inkscape:collect="always"
       xlink:href="#linearGradient40129"
       id="linearGradient40212"
       gradientUnits="userSpaceOnUse"
       x1="68.244789"
       y1="227.71753"
       x2="119.28449"
       y2="157.68004" />
    <linearGradient
       inkscape:collect="always"
       xlink:href="#linearGradient33447"
       id="linearGradient33449-93"
       x1="21.305454"
       y1="134.96889"
       x2="108.53346"
       y2="51.302273"
       gradientUnits="userSpaceOnUse" />
    <inkscape:path-effect
       effect="fill_between_many"
       method="originald"
       linkedpaths="#path32917,0,1"
       id="path-effect33053-4"
       is_visible="true"
       lpeversion="0"
       join="true"
       close="true"
       autoreverse="true" />
    <inkscape:path-effect
       effect="fill_between_many"
       method="originald"
       linkedpaths="#path32917-5-3,0,1"
       id="path-effect39758-4"
       is_visible="true"
       lpeversion="0"
       join="true"
       close="true"
       autoreverse="true" />
    <linearGradient
       inkscape:collect="always"
       xlink:href="#linearGradient40129"
       id="linearGradient40263"
       gradientUnits="userSpaceOnUse"
       x1="68.244789"
       y1="227.71753"
       x2="119.28449"
       y2="157.68004" />
  </defs>
  <sodipodi:namedview
     id="namedview32929"
     pagecolor="#ffffff"
     bordercolor="#000000"
     borderopacity="0.25"
     inkscape:showpageshadow="2"
     inkscape:pageopacity="0.0"
     inkscape:pagecheckerboard="0"
     inkscape:deskcolor="#d1d1d1"
     showgrid="false"
     inkscape:zoom="2.3885645"
     inkscape:cx="106.96802"
     inkscape:cy="100.0601"
     inkscape:window-width="1857"
     inkscape:window-height="1011"
     inkscape:window-x="0"
     inkscape:window-y="0"
     inkscape:window-maximized="1"
     inkscape:current-layer="svg32927" />
  <title
     id="title32915">homegrown vegetable</title>
  <g
     id="g40220"
     transform="rotate(13.389893,279.95117,-9.0757253)">
    <path
       inkscape:original-d="M 0,0"
       inkscape:path-effect="#path-effect33053-8"
       d="M 0,0"
       id="path33055-6"
       class="UnoptimicedTransforms"
       style="fill:url(#linearGradient33449-9);fill-opacity:1"
       transform="translate(36.510068,48.694558)" />
    <path
       inkscape:original-d="M 0,0"
       inkscape:path-effect="#path-effect39758-3"
       d="m 164.9725,67.144017 c -2.34088,0.116255 -4.54512,1.483335 -5.62305,3.750001 -0.048,0.09075 -0.0892,0.18368 -0.12109,0.28125 -4.56511,12.87535 -10.58944,25.185816 -17.95704,36.689452 -6.02137,8.86616 -22.34809,29.86665 -29.44726,38.8125 a 2.0000731,2.0000731 0 0 0 -0.27539,0.14063 c -15.729987,18.54598 -33.536134,36.94341 -56.037112,57.90039 -0.033,0.031 -0.06561,0.0636 -0.09961,0.0996 -6.164994,6.59299 -6.009202,12.785 -5.033203,16.5 l -10.496094,4.93945 a 2,2 0 1 0 1.701172,3.61914 l 10.304687,-4.84961 a 17.444,17.444 0 0 0 3.378907,4.25195 l -7.810547,9.59375 a 2,2 0 1 0 3.099609,2.52539 l 7.933594,-9.74414 a 18.03,18.03 0 0 0 3.90039,1.69922 l -2.099609,12.5293 a 2.0004044,2.0004044 0 0 0 3.945313,0.66406 l 2.105468,-12.51562 c 0.294,0.016 0.587907,0.0293 0.878906,0.0293 5.356995,0 10.259223,-2.67374 13.699219,-7.55273 l 18.03125,-25.67188 5.67969,-8.08789 a 552.187,552.187 0 0 1 58.30078,-66.77539 c 5.70499,-5.82099 14.19937,-10.98788 21.69336,-15.54687 9.93299,-6.041 15.112,-9.36624 15,-13.115237 -0.035,-1.071999 -0.53814,-2.596673 -2.74414,-3.763672 a 9.978,9.978 0 0 0 -8.67774,-0.216797 c -2.26223,0.98407 -4.83554,2.261796 -7.54882,3.744141 l 12.14843,-18.367187 c 4.84889,-5.800434 -3.72938,-13.146368 -8.71484,-7.462891 l -18.45117,20.078125 c 3.47697,-8.699973 5.52367,-14.81211 5.76367,-15.53711 1.29452,-3.102823 -0.15324,-6.669425 -3.24414,-7.992187 -1.0273,-0.496236 -2.11958,-0.701281 -3.18359,-0.648438 z"
       id="path39760-1"
       class="UnoptimicedTransforms"
       style="fill:url(#linearGradient40212);fill-opacity:1"
       transform="translate(17.931968,0.02679844)" />
    <path
       id="path32917-5-2"
       d="m 145.79102,9.4609375 c -2.34088,0.1162553 -4.54512,1.4833345 -5.62305,3.7500005 -0.048,0.09075 -0.0892,0.18368 -0.12109,0.28125 -4.56511,12.87535 -10.58944,25.185816 -17.95704,36.689453 -6.02137,8.866155 -22.348088,29.866645 -29.447262,38.8125 a 2.0000731,2.0000731 0 0 0 -0.27539,0.140625 c -15.729985,18.545984 -33.536132,36.943414 -56.03711,57.900394 -0.033,0.031 -0.06561,0.0636 -0.09961,0.0996 -6.164994,6.59299 -6.009202,12.785 -5.033203,16.5 l -10.496094,4.93945 a 2,2 0 1 0 1.701172,3.61914 l 10.304687,-4.84961 a 17.444,17.444 0 0 0 3.378907,4.25195 l -7.810547,9.59375 a 2,2 0 1 0 3.099609,2.52539 l 7.933594,-9.74414 a 18.03,18.03 0 0 0 3.90039,1.69922 l -2.099609,12.5293 a 2.0004044,2.0004044 0 0 0 3.945313,0.66406 l 2.105468,-12.51562 c 0.294,0.016 0.587907,0.0293 0.878906,0.0293 5.356995,0 10.259223,-2.67374 13.699219,-7.55273 l 18.03125,-25.67188 5.679688,-8.08789 A 552.187,552.187 0 0 1 143.75,68.289062 c 5.70499,-5.820994 14.19937,-10.987879 21.69336,-15.546874 9.93299,-6.040994 15.112,-9.366239 15,-13.115235 -0.035,-1.071999 -0.53814,-2.596673 -2.74414,-3.763672 a 9.978,9.978 0 0 0 -8.67774,-0.216797 c -2.26223,0.98407 -4.83554,2.261796 -7.54882,3.744141 l 12.14843,-18.367187 c 4.84889,-5.800434 -3.72938,-13.1463676 -8.71484,-7.462891 l -18.45117,20.078125 c 3.47697,-8.699973 5.52367,-14.81211 5.76367,-15.53711 1.29452,-3.102823 -0.15324,-6.669425 -3.24414,-7.992187 -1.0273,-0.4962354 -2.11958,-0.7012807 -3.18359,-0.6484375 z m 0.48828,3.9960935 c 0.34001,0.02191 0.68065,0.112142 1.0039,0.277344 1.16047,0.444649 1.71257,1.772062 1.20899,2.908203 -0.02,0.048 -0.0387,0.09953 -0.0547,0.144531 -5.47273,15.994022 -12.19307,31.533187 -20.09961,46.47461 -1.16354,2.313709 2.2208,4.142141 3.51758,1.90039 3.79997,-7.030979 7.18006,-14.152221 10.03906,-20.658203 L 167.8496,16.267578 c 1.49987,-1.872534 4.2626,0.494055 2.64258,2.263672 L 154.4707,42.755859 c -0.26786,0.336194 -0.39593,0.685454 -0.43359,1.027344 -5.7029,3.611019 -11.4187,7.803324 -15.85938,12.013672 a 2,2 0 0 0 2.75196,2.900391 c 7.19199,-6.818994 19.95551,-15.15277 29.6875,-19.384766 a 6.084,6.084 0 0 1 5.21484,0.08398 2.33,2.33 0 0 1 0.59961,0.414063 c -0.416,1.820998 -7.71446,6.259675 -13.06445,9.513672 -7.69999,4.679995 -16.41474,9.9851 -22.42774,16.121093 A 556.459,556.459 0 0 0 82.199219,132.72852 l -3.466797,4.9375 a 2,2 0 0 0 -0.34375,-0.4004 l -3.044922,-2.5996 a 2,2 0 0 0 -2.599609,3.03906 l 3.042968,2.59961 a 1.987,1.987 0 0 0 0.800782,0.41015 l -0.09375,0.13282 -18.029297,25.66992 c -3.064997,4.34999 -7.368911,6.38928 -12.128906,5.73828 a 13.912,13.912 0 0 1 -10.644532,-7.875 2,2 0 0 0 -0.164062,-0.58594 2.06,2.06 0 0 0 -0.199219,-0.33008 c -1.554998,-4.44799 -0.214746,-9.25859 3.78125,-13.55859 10.990989,-10.22599 20.852978,-19.85246 29.917969,-29.18945 l 8.158203,6.98242 a 2,2 0 1 0 2.599609,-3.03906 l -7.976562,-6.82813 c 8.293746,-8.64555 15.91419,-17.07067 23.101562,-25.51953 7.89e-4,-4.3e-4 0.0012,-0.0015 0.002,-0.002 0.227159,-0.124316 0.434376,-0.294219 0.605469,-0.509766 7.045975,-8.871973 23.744655,-30.344558 29.890625,-39.394531 7.52895,-11.756091 13.69375,-24.330382 18.375,-37.482422 0.4677,-0.983518 1.47605,-1.532539 2.4961,-1.466797 z"
       class="UnoptimicedTransforms"
       transform="translate(37.113448,57.709878)" />
  </g>
  <path
     inkscape:original-d="M 0,0"
     inkscape:path-effect="#path-effect33053-4"
     d="M 0,0"
     id="path33055-5"
     class="UnoptimicedTransforms"
     style="fill:url(#linearGradient33449-93);fill-opacity:1"
     transform="rotate(-21.730252,116.87133,143.56037)" />
  <path
     inkscape:original-d="M 0,0"
     inkscape:path-effect="#path-effect39758-4"
     d="m 164.9725,67.144019 c -2.34088,0.116256 -4.54512,1.483335 -5.62305,3.750001 -0.048,0.09075 -0.0892,0.18368 -0.12109,0.28125 -4.56511,12.87535 -10.58944,25.185816 -17.95704,36.68945 -6.02137,8.86616 -22.34809,29.86665 -29.44726,38.8125 a 2.0000731,2.0000731 0 0 0 -0.27539,0.14063 c -15.729986,18.54598 -33.536133,36.94341 -56.037111,57.90039 -0.033,0.031 -0.06561,0.0636 -0.09961,0.0996 -6.164994,6.59299 -6.009202,12.785 -5.033203,16.5 l -10.496094,4.93945 a 2,2 0 1 0 1.701172,3.61914 l 10.304687,-4.84961 a 17.444,17.444 0 0 0 3.378907,4.25195 l -7.810547,9.59375 a 2,2 0 1 0 3.099609,2.52539 l 7.933594,-9.74414 a 18.03,18.03 0 0 0 3.90039,1.69922 l -2.099609,12.5293 a 2.0004044,2.0004044 0 0 0 3.945313,0.66406 l 2.105468,-12.51562 c 0.294,0.016 0.587907,0.0293 0.878906,0.0293 5.356995,0 10.259223,-2.67374 13.699219,-7.55273 l 18.03125,-25.67188 5.679689,-8.08789 a 552.187,552.187 0 0 1 58.30078,-66.77539 c 5.70499,-5.82099 14.19937,-10.98788 21.69336,-15.54687 9.93299,-6.04099 15.112,-9.36624 15,-13.115235 -0.035,-1.071999 -0.53814,-2.596673 -2.74414,-3.763672 a 9.978,9.978 0 0 0 -8.67774,-0.216797 c -2.26223,0.98407 -4.83554,2.261796 -7.54882,3.744141 L 192.80257,78.70652 c 4.84889,-5.800434 -3.72938,-13.146368 -8.71484,-7.462891 l -18.45117,20.078125 c 3.47697,-8.699973 5.52367,-14.81211 5.76367,-15.53711 1.29452,-3.102823 -0.15324,-6.669425 -3.24414,-7.992187 -1.0273,-0.496236 -2.11958,-0.701281 -3.18359,-0.648438 z"
     id="path39760-0"
     class="UnoptimicedTransforms"
     style="fill:url(#linearGradient40263);fill-opacity:1"
     transform="rotate(-25.174177,15.253455,203.69888)" />
  <path
     id="path32917-5-3"
     d="m 145.79102,9.4609375 c -2.34088,0.1162553 -4.54512,1.4833345 -5.62305,3.7500005 -0.048,0.09075 -0.0892,0.18368 -0.12109,0.28125 -4.56511,12.87535 -10.58944,25.185816 -17.95704,36.689453 -6.02137,8.866155 -22.348088,29.866645 -29.447262,38.8125 a 2.0000731,2.0000731 0 0 0 -0.27539,0.140625 c -15.729985,18.545984 -33.536132,36.943414 -56.03711,57.900394 -0.033,0.031 -0.06561,0.0636 -0.09961,0.0996 -6.164994,6.59299 -6.009202,12.785 -5.033203,16.5 l -10.496094,4.93945 a 2,2 0 1 0 1.701172,3.61914 l 10.304687,-4.84961 a 17.444,17.444 0 0 0 3.378907,4.25195 l -7.810547,9.59375 a 2,2 0 1 0 3.099609,2.52539 l 7.933594,-9.74414 a 18.03,18.03 0 0 0 3.90039,1.69922 l -2.099609,12.5293 a 2.0004044,2.0004044 0 0 0 3.945313,0.66406 l 2.105468,-12.51562 c 0.294,0.016 0.587907,0.0293 0.878906,0.0293 5.356995,0 10.259223,-2.67374 13.699219,-7.55273 l 18.03125,-25.67188 5.679688,-8.08789 A 552.187,552.187 0 0 1 143.75,68.289062 c 5.70499,-5.820994 14.19937,-10.987879 21.69336,-15.546874 9.93299,-6.040994 15.112,-9.366239 15,-13.115235 -0.035,-1.071999 -0.53814,-2.596673 -2.74414,-3.763672 a 9.978,9.978 0 0 0 -8.67774,-0.216797 c -2.26223,0.98407 -4.83554,2.261796 -7.54882,3.744141 l 12.14843,-18.367187 c 4.84889,-5.800434 -3.72938,-13.1463676 -8.71484,-7.462891 l -18.45117,20.078125 c 3.47697,-8.699973 5.52367,-14.81211 5.76367,-15.53711 1.29452,-3.102823 -0.15324,-6.669425 -3.24414,-7.992187 -1.0273,-0.4962354 -2.11958,-0.7012807 -3.18359,-0.6484375 z m 0.48828,3.9960935 c 0.34001,0.02191 0.68065,0.112142 1.0039,0.277344 1.16047,0.444649 1.71257,1.772062 1.20899,2.908203 -0.02,0.048 -0.0387,0.09953 -0.0547,0.144531 -5.47273,15.994022 -12.19307,31.533187 -20.09961,46.47461 -1.16354,2.313709 2.2208,4.142141 3.51758,1.90039 3.79997,-7.030979 7.18006,-14.152221 10.03906,-20.658203 L 167.8496,16.267578 c 1.49987,-1.872534 4.2626,0.494055 2.64258,2.263672 L 154.4707,42.755859 c -0.26786,0.336194 -0.39593,0.685454 -0.43359,1.027344 -5.7029,3.611019 -11.4187,7.803324 -15.85938,12.013672 a 2,2 0 0 0 2.75196,2.900391 c 7.19199,-6.818994 19.95551,-15.15277 29.6875,-19.384766 a 6.084,6.084 0 0 1 5.21484,0.08398 2.33,2.33 0 0 1 0.59961,0.414063 c -0.416,1.820998 -7.71446,6.259675 -13.06445,9.513672 -7.69999,4.679995 -16.41474,9.9851 -22.42774,16.121093 A 556.459,556.459 0 0 0 82.199219,132.72852 l -3.466797,4.9375 a 2,2 0 0 0 -0.34375,-0.4004 l -3.044922,-2.5996 a 2,2 0 0 0 -2.599609,3.03906 l 3.042968,2.59961 a 1.987,1.987 0 0 0 0.800782,0.41015 l -0.09375,0.13282 -18.029297,25.66992 c -3.064997,4.34999 -7.368911,6.38928 -12.128906,5.73828 a 13.912,13.912 0 0 1 -10.644532,-7.875 2,2 0 0 0 -0.164062,-0.58594 2.06,2.06 0 0 0 -0.199219,-0.33008 c -1.554998,-4.44799 -0.214746,-9.25859 3.78125,-13.55859 10.990989,-10.22599 20.852978,-19.85246 29.917969,-29.18945 l 8.158203,6.98242 a 2,2 0 1 0 2.599609,-3.03906 l -7.976562,-6.82813 c 8.293746,-8.64555 15.91419,-17.07067 23.101562,-25.51953 7.89e-4,-4.3e-4 0.0012,-0.0015 0.002,-0.002 0.227159,-0.124316 0.434376,-0.294219 0.605469,-0.509766 7.045975,-8.871973 23.744655,-30.344558 29.890625,-39.394531 7.52895,-11.756091 13.69375,-24.330382 18.375,-37.482422 0.4677,-0.983518 1.47605,-1.532539 2.4961,-1.466797 z"
     class="UnoptimicedTransforms"
     transform="rotate(-25.174177,134.82907,131.90537)" />
  <path
     inkscape:original-d="M 0,0"
     inkscape:path-effect="#path-effect33053"
     d="M 0,0"
     id="path33055"
     class="UnoptimicedTransforms"
     style="fill:url(#linearGradient33449);fill-opacity:1"
     transform="rotate(-3.4439249,286.42936,216.01179)" />
  <path
     inkscape:original-d="M 0,0"
     inkscape:path-effect="#path-effect39758"
     d="m 163.64292,61.171548 c -2.34088,0.116255 -4.54512,1.483334 -5.62305,3.75 -0.048,0.09075 -0.0892,0.18368 -0.12109,0.28125 -4.56511,12.87535 -10.58944,25.185816 -17.95704,36.689452 -6.02137,8.86616 -22.34808,29.86665 -29.44726,38.8125 a 2.0000731,2.0000731 0 0 0 -0.27539,0.14063 c -15.729983,18.54598 -33.53613,36.94341 -56.037108,57.90039 -0.033,0.031 -0.06561,0.0636 -0.09961,0.0996 -6.164994,6.59299 -6.009202,12.785 -5.033203,16.5 l -10.496094,4.93945 a 2,2 0 1 0 1.701172,3.61914 l 10.304687,-4.84961 a 17.444,17.444 0 0 0 3.378907,4.25195 l -7.810547,9.59375 a 2,2 0 1 0 3.099609,2.52539 l 7.933594,-9.74414 a 18.03,18.03 0 0 0 3.90039,1.69922 l -2.099609,12.5293 a 2.0004044,2.0004044 0 0 0 3.945313,0.66406 l 2.105468,-12.51562 c 0.294,0.016 0.587907,0.0293 0.878906,0.0293 5.356995,0 10.259223,-2.67374 13.699219,-7.55273 l 18.03125,-25.67188 5.679686,-8.08789 a 552.187,552.187 0 0 1 58.30078,-66.77539 c 5.70499,-5.82099 14.19937,-10.98788 21.69336,-15.54687 9.93299,-6.040996 15.112,-9.366241 15,-13.115237 -0.035,-1.071999 -0.53814,-2.596673 -2.74414,-3.763672 a 9.978,9.978 0 0 0 -8.67774,-0.216797 c -2.26223,0.98407 -4.83554,2.261796 -7.54882,3.744141 l 12.14843,-18.367187 c 4.84889,-5.800434 -3.72938,-13.146367 -8.71484,-7.462891 l -18.45117,20.078125 c 3.47697,-8.699973 5.52367,-14.81211 5.76367,-15.53711 1.29452,-3.102823 -0.15324,-6.669425 -3.24414,-7.992187 -1.0273,-0.496235 -2.11958,-0.70128 -3.18359,-0.648437 z"
     id="path39760"
     class="UnoptimicedTransforms"
     style="fill:url(#linearGradient40131);fill-opacity:1"
     transform="rotate(-3.4439249,-460.22323,572.66148)" />
  <path
     id="path32917-5"
     d="m 145.79102,9.4609375 c -2.34088,0.1162553 -4.54512,1.4833345 -5.62305,3.7500005 -0.048,0.09075 -0.0892,0.18368 -0.12109,0.28125 -4.56511,12.87535 -10.58944,25.185816 -17.95704,36.689453 -6.02137,8.866155 -22.348088,29.866645 -29.447262,38.8125 a 2.0000731,2.0000731 0 0 0 -0.27539,0.140625 c -15.729985,18.545984 -33.536132,36.943414 -56.03711,57.900394 -0.033,0.031 -0.06561,0.0636 -0.09961,0.0996 -6.164994,6.59299 -6.009202,12.785 -5.033203,16.5 l -10.496094,4.93945 a 2,2 0 1 0 1.701172,3.61914 l 10.304687,-4.84961 a 17.444,17.444 0 0 0 3.378907,4.25195 l -7.810547,9.59375 a 2,2 0 1 0 3.099609,2.52539 l 7.933594,-9.74414 a 18.03,18.03 0 0 0 3.90039,1.69922 l -2.099609,12.5293 a 2.0004044,2.0004044 0 0 0 3.945313,0.66406 l 2.105468,-12.51562 c 0.294,0.016 0.587907,0.0293 0.878906,0.0293 5.356995,0 10.259223,-2.67374 13.699219,-7.55273 l 18.03125,-25.67188 5.679688,-8.08789 A 552.187,552.187 0 0 1 143.75,68.289062 c 5.70499,-5.820994 14.19937,-10.987879 21.69336,-15.546874 9.93299,-6.040994 15.112,-9.366239 15,-13.115235 -0.035,-1.071999 -0.53814,-2.596673 -2.74414,-3.763672 a 9.978,9.978 0 0 0 -8.67774,-0.216797 c -2.26223,0.98407 -4.83554,2.261796 -7.54882,3.744141 l 12.14843,-18.367187 c 4.84889,-5.800434 -3.72938,-13.1463676 -8.71484,-7.462891 l -18.45117,20.078125 c 3.47697,-8.699973 5.52367,-14.81211 5.76367,-15.53711 1.29452,-3.102823 -0.15324,-6.669425 -3.24414,-7.992187 -1.0273,-0.4962354 -2.11958,-0.7012807 -3.18359,-0.6484375 z m 0.48828,3.9960935 c 0.34001,0.02191 0.68065,0.112142 1.0039,0.277344 1.16047,0.444649 1.71257,1.772062 1.20899,2.908203 -0.02,0.048 -0.0387,0.09953 -0.0547,0.144531 -5.47273,15.994022 -12.19307,31.533187 -20.09961,46.47461 -1.16354,2.313709 2.2208,4.142141 3.51758,1.90039 3.79997,-7.030979 7.18006,-14.152221 10.03906,-20.658203 L 167.8496,16.267578 c 1.49987,-1.872534 4.2626,0.494055 2.64258,2.263672 L 154.4707,42.755859 c -0.26786,0.336194 -0.39593,0.685454 -0.43359,1.027344 -5.7029,3.611019 -11.4187,7.803324 -15.85938,12.013672 a 2,2 0 0 0 2.75196,2.900391 c 7.19199,-6.818994 19.95551,-15.15277 29.6875,-19.384766 a 6.084,6.084 0 0 1 5.21484,0.08398 2.33,2.33 0 0 1 0.59961,0.414063 c -0.416,1.820998 -7.71446,6.259675 -13.06445,9.513672 -7.69999,4.679995 -16.41474,9.9851 -22.42774,16.121093 A 556.459,556.459 0 0 0 82.199219,132.72852 l -3.466797,4.9375 a 2,2 0 0 0 -0.34375,-0.4004 l -3.044922,-2.5996 a 2,2 0 0 0 -2.599609,3.03906 l 3.042968,2.59961 a 1.987,1.987 0 0 0 0.800782,0.41015 l -0.09375,0.13282 -18.029297,25.66992 c -3.064997,4.34999 -7.368911,6.38928 -12.128906,5.73828 a 13.912,13.912 0 0 1 -10.644532,-7.875 2,2 0 0 0 -0.164062,-0.58594 2.06,2.06 0 0 0 -0.199219,-0.33008 c -1.554998,-4.44799 -0.214746,-9.25859 3.78125,-13.55859 10.990989,-10.22599 20.852978,-19.85246 29.917969,-29.18945 l 8.158203,6.98242 a 2,2 0 1 0 2.599609,-3.03906 l -7.976562,-6.82813 c 8.293746,-8.64555 15.91419,-17.07067 23.101562,-25.51953 7.89e-4,-4.3e-4 0.0012,-0.0015 0.002,-0.002 0.227159,-0.124316 0.434376,-0.294219 0.605469,-0.509766 7.045975,-8.871973 23.744655,-30.344558 29.890625,-39.394531 7.52895,-11.756091 13.69375,-24.330382 18.375,-37.482422 0.4677,-0.983518 1.47605,-1.532539 2.4961,-1.466797 z"
     class="UnoptimicedTransforms"
     transform="rotate(-3.4439249,390.88921,249.89762)" />
  <metadata
     id="metadata33469">
    <rdf:RDF>
      <cc:Work
         rdf:about="">
        <dc:title>homegrown vegetable</dc:title>
      </cc:Work>
    </rdf:RDF>
  </metadata>
</svg>
