<?xml version="1.0" encoding="UTF-8" standalone="no"?>
<svg
   version="1.1"
   viewBox="-5.0 -10.0 110.0 135.0"
   id="svg21820"
   sodipodi:docname="strawberries.svg"
   inkscape:version="1.2.2 (b0a8486541, 2022-12-01)"
   xmlns:inkscape="http://www.inkscape.org/namespaces/inkscape"
   xmlns:sodipodi="http://sodipodi.sourceforge.net/DTD/sodipodi-0.dtd"
   xmlns="http://www.w3.org/2000/svg"
   xmlns:svg="http://www.w3.org/2000/svg">
  <defs
     id="defs21824" />
  <sodipodi:namedview
     id="namedview21822"
     pagecolor="#ffffff"
     bordercolor="#000000"
     borderopacity="0.25"
     inkscape:showpageshadow="2"
     inkscape:pageopacity="0.0"
     inkscape:pagecheckerboard="0"
     inkscape:deskcolor="#d1d1d1"
     showgrid="false"
     inkscape:zoom="5.837037"
     inkscape:cx="55.079315"
     inkscape:cy="61.503807"
     inkscape:window-width="1857"
     inkscape:window-height="1011"
     inkscape:window-x="0"
     inkscape:window-y="0"
     inkscape:window-maximized="1"
     inkscape:current-layer="svg21820" />
  <path
     d="m 81.062961,40.845445 c 1.514206,-0.1841 2.169286,-0.183144 2.183843,-1.371808 -1.447997,-9.502728 -12.050481,-13.050188 -18.676348,-14.941964 3.45127,-3.081238 7.951802,-5.114985 11.995218,-5.108279 1.152102,7e-4 1.835866,-0.505262 2.206192,-0.933251 1.4459,-1.562743 0.693001,-5.153786 -1.169961,-6.003198 -2.306521,-1.267398 -5.709742,0.337132 -7.745881,1.284556 -4.663683,2.222702 -8.411035,5.225515 -11.100564,8.832683 -6.878419,-3.147842 -18.023924,-9.447328 -26.745355,-2.472611 -0.775067,0.880717 -0.276845,1.352699 0.732464,2.472756 -5.421905,2.516761 -9.396622,7.028731 -11.817882,13.442418 -6.138003,16.258984 2.264598,51.823677 13.220865,55.959827 10.956267,4.13615 40.765413,-17.003054 46.903416,-33.262038 2.42126,-6.413687 2.419698,-12.426225 0.01017,-17.900001 z M 70.092464,15.910884 c 1.910067,-0.790434 7.026525,-3.714738 7.3819,-0.04406 0.07288,0.536902 -0.01689,1.029106 -0.235506,1.276381 -0.05179,0.05978 -0.205803,0.235458 -0.669394,0.235807 -6.772401,-0.02224 -14.673294,5.078504 -18.023397,11.509129 -0.259202,-0.01017 -0.728695,-0.237515 -0.911119,-0.439994 2.655809,-5.586113 6.525263,-9.465385 12.458805,-12.540957 z M 56.179805,23.64348 c 0.498728,0.238381 0.968211,0.465722 1.405327,0.668321 -0.703793,1.112209 -1.358345,2.293031 -1.934437,3.553603 -0.419316,1.077548 0.397712,2.308758 1.827961,2.844529 1.268142,0.478742 2.437921,0.122865 2.836848,-0.812105 0.673622,-1.319846 1.565582,-2.565498 2.593623,-3.718089 6.184712,1.73357 16.182139,4.605925 18.120812,12.619481 -1.452304,0.119788 -4.720419,-0.04926 -9.689435,-2.735155 -1.182605,-0.705324 -2.226493,1.042523 -1.049896,1.741421 0.0059,0.0064 0.01186,0.01283 0.01779,0.01924 0.488517,0.309685 4.488417,3.030551 3.268401,8.540667 -2.652375,-1.147448 -9.616599,-4.544806 -11.480224,-9.285886 -0.311698,-0.877585 -1.664668,-0.833032 -1.922132,0.05934 -0.01842,0.05985 -1.930273,5.809883 -7.418782,5.549973 -4.267236,-3.406351 -2.000885,-8.834645 -1.900266,-9.068049 0.396408,-0.839904 -0.584539,-1.769702 -1.403387,-1.314768 -4.535456,2.325302 -12.003472,0.274333 -14.752696,-0.617422 2.645836,-4.796552 7.250203,-4.373493 8.070159,-4.256027 0.498056,0.129569 1.027605,-0.13398 1.213847,-0.627316 0.231293,-0.601612 -0.160433,-1.267231 -0.798014,-1.370147 -5.513273,-1.267149 -8.076395,-3.303651 -9.079639,-4.350444 6.793449,-4.76729 16.295386,-0.207271 22.066382,2.555937 z M 34.8682,90.094047 C 25.662541,86.618777 16.671706,53.087366 22.834784,36.761958 25.192577,30.51639 29.133892,26.258817 34.525791,24.064756 c 0.913426,0.632928 2.109826,1.30171 3.642736,1.930504 -2.0742,0.782664 -4.333137,2.430968 -5.818403,5.878581 -0.235211,0.512453 0.04088,1.16363 0.569863,1.354992 0.430744,0.175138 9.038524,3.420524 15.435029,1.672508 -0.588734,2.842454 -0.165999,7.252575 3.671295,9.740808 4.52433,0.668338 7.754637,-2.358474 9.192566,-4.884513 3.645823,5.539127 12.236772,8.773998 12.68958,8.94494 0.52349,0.205975 1.161053,-0.100308 1.323136,-0.640357 1.162263,-3.565383 0.557485,-6.298843 -0.481989,-8.257071 1.566019,0.541091 2.905903,0.829799 4.009717,0.958408 2.596792,5.209909 2.741297,11.009724 0.383434,17.255479 -6.162726,16.324473 -35.069831,35.549929 -44.275677,32.074588 z"
     id="path21764" />
  <path
     d="m 50.587219,48.455297 c -0.789373,-0.298 -1.673953,0.09874 -1.973316,0.891723 -0.298,0.789373 -0.261369,2.627843 0.531615,2.927207 0.789373,0.298 2.035406,-1.056193 2.333424,-1.845613 0.298018,-0.78942 -0.09874,-1.673954 -0.891723,-1.973317 z"
     id="path21766" />
  <path
     d="m 74.981545,55.485051 c 0.829454,0.158645 1.825926,-1.385822 1.988143,-2.213895 0.158645,-0.829455 -0.380907,-1.63436 -1.210332,-1.793026 -0.829454,-0.158645 -1.634359,0.380907 -1.794402,1.213981 -0.158645,0.829454 0.187175,2.634278 1.020239,2.794317 z"
     id="path21768" />
  <path
     d="m 65.616083,68.149489 c -0.678738,-0.50258 -1.638743,-0.359776 -2.141261,0.318997 -0.502518,0.678772 -0.965511,2.458006 -0.286787,2.960612 0.678725,0.502607 2.245852,-0.463254 2.74846,-1.141982 0.50258,-0.678738 0.359776,-1.638744 -0.318997,-2.141261 z"
     id="path21770" />
  <path
     d="m 46.673555,79.395006 c -0.661776,-0.5254 -1.626725,-0.413696 -2.152115,0.248083 -0.5254,0.661776 -1.048187,2.422626 -0.386408,2.948016 0.661776,0.525399 2.25898,-0.387324 2.784339,-1.049019 0.525399,-0.661776 0.413696,-1.626725 -0.248083,-2.152115 z"
     id="path21772" />
  <path
     d="m 71.965874,60.630572 c -0.742058,-0.401221 -1.672616,-0.126217 -2.073856,0.615834 -0.401221,0.742057 -0.611443,2.570828 0.130626,2.972075 0.74207,0.401246 2.157838,-0.77204 2.559064,-1.514053 0.401221,-0.742058 0.126217,-1.672616 -0.615834,-2.073856 z"
     id="path21774" />
  <path
     d="m 49.929807,61.522227 c -0.789373,-0.298 -1.673953,0.09874 -1.973316,0.891723 -0.298,0.789373 -0.261369,2.627843 0.531615,2.927207 0.789373,0.297999 2.035406,-1.056193 2.333424,-1.845613 0.298018,-0.78942 -0.09874,-1.673954 -0.891723,-1.973317 z"
     id="path21776" />
  <path
     d="m 66.656652,55.205828 c -0.768679,-0.352816 -1.676932,-0.01512 -2.029766,0.753583 -0.352834,0.768705 -0.441008,2.60599 0.327742,2.958734 0.768749,0.352744 2.101424,-0.910273 2.454229,-1.678902 0.352806,-0.76863 0.01512,-1.676932 -0.753583,-2.029766 z"
     id="path21778" />
  <path
     d="m 57.77612,75.456439 c -0.687917,-0.489338 -1.646039,-0.329128 -2.133179,0.363841 -0.489338,0.687917 -0.918003,2.475941 -0.230112,2.965334 0.687917,0.489338 2.236357,-0.504357 2.725654,-1.192279 0.489338,-0.687916 0.329127,-1.646038 -0.363841,-2.133179 z"
     id="path21780" />
  <path
     d="m 64.55137,48.749165 c 0.570252,-1.930831 -2.287515,-2.821769 -2.919918,-0.914423 -0.250491,0.807309 -0.107309,2.640042 0.700025,2.890523 0.807334,0.250481 1.970822,-1.172499 2.221278,-1.979767 z"
     id="path21782" />
  <path
     d="m 59.247956,63.482597 c -0.768678,-0.352818 -1.678312,-0.01146 -2.026117,0.75496 -0.352817,0.768679 -0.435937,2.603629 0.332768,2.956463 0.768679,0.352816 2.099153,-0.915299 2.451958,-1.683929 0.352817,-0.768679 0.01146,-1.678312 -0.75496,-2.026117 z"
     id="path21784" />
  <path
     d="m 37.164987,83.754688 c -0.807309,-0.250491 -1.665552,0.197949 -1.919678,1.003896 -0.250491,0.807309 -0.107309,2.640042 0.700025,2.890523 0.807334,0.250481 1.970822,-1.172499 2.221278,-1.979767 0.25049,-0.807309 -0.197949,-1.665552 -1.003896,-1.919678 z"
     id="path21786" />
  <path
     d="m 56.439356,57.88382 c 0.807309,0.250491 1.970822,-1.172499 2.221278,-1.979767 0.25049,-0.807309 -0.197949,-1.665552 -1.003896,-1.919678 -0.807309,-0.250491 -1.665552,0.197949 -1.919678,1.003896 -0.250492,0.807309 -0.107309,2.640042 0.700025,2.890523 z"
     id="path21788" />
  <path
     d="m 51.534255,70.854315 c -0.772818,-0.341854 -1.677913,0.0096 -2.019787,0.782362 -0.341874,0.772799 -0.405324,2.611016 0.367467,2.952887 0.77279,0.34187 2.087796,-0.940429 2.429656,-1.713191 0.341859,-0.772763 -0.0096,-1.677913 -0.782362,-2.019787 z"
     id="path21790" />
  <path
     d="m 27.633183,37.610356 c 0.727362,0.429077 2.18329,-0.695625 2.612327,-1.42297 0.429076,-0.727363 0.182892,-1.667895 -0.544481,-2.096943 -0.727363,-0.429076 -1.667895,-0.182893 -2.093295,0.545858 -0.429076,0.727363 -0.701906,2.545014 0.0291,2.975433 z"
     id="path21792" />
  <path
     d="m 26.292899,53.304416 c -0.841536,-0.07135 -1.581765,0.551058 -1.65446,1.396253 -0.07135,0.841536 0.46659,2.601981 1.308101,2.673392 0.841511,0.07141 1.669917,-1.56999 1.741272,-2.411523 0.07136,-0.841532 -0.551058,-1.581764 -1.396253,-1.654459 z"
     id="path21794" />
  <path
     d="m 32.718196,75.21585 c -0.843885,-0.04301 -1.56402,0.603719 -1.60841,1.451262 -0.04301,0.843885 0.552536,2.584404 1.396463,2.627332 0.843885,0.04301 1.615167,-1.624008 1.65818,-2.467903 0.04301,-0.843885 -0.603719,-1.56402 -1.451262,-1.60841 z"
     id="path21796" />
  <path
     d="m 26.496104,43.465073 c -0.822076,-0.189262 -1.647089,0.326003 -1.832698,1.1495 -0.189262,0.822076 0.09794,2.638213 0.920073,2.827477 0.822139,0.189265 1.87286,-1.322141 2.062125,-2.14428 0.189262,-0.822075 -0.326003,-1.647088 -1.1495,-1.832697 z"
     id="path21798" />
  <path
     d="m 42.445379,58.696747 c -0.789373,-0.298 -1.673953,0.09874 -1.973316,0.891723 -0.298,0.789373 -0.261369,2.627843 0.531615,2.927206 0.789373,0.298 2.035407,-1.056193 2.333424,-1.845613 0.298018,-0.78942 -0.09874,-1.673953 -0.891723,-1.973316 z"
     id="path21800" />
  <path
     d="m 35.09124,44.809383 c 0.546945,-1.935461 -2.321898,-2.797232 -2.932336,-0.881529 -0.243182,0.810068 -0.07759,2.638755 0.732453,2.881921 0.810041,0.243166 1.958088,-1.19398 2.201246,-2.004003 z"
     id="path21802" />
  <path
     d="m 27.348178,63.969449 c -0.839673,-0.08735 -1.595392,0.520901 -1.682775,1.360551 -0.08735,0.839674 0.414412,2.607402 1.257746,2.69607 0.839673,0.08735 1.69961,-1.537938 1.786928,-2.377613 0.08735,-0.839673 -0.520902,-1.595392 -1.360552,-1.682775 z"
     id="path21804" />
  <path
     d="m 41.932951,38.674394 c -0.771439,-0.345508 -1.675155,0.0023 -2.022058,0.777336 -0.345509,0.771438 -0.412631,2.608258 0.358791,2.953781 0.771422,0.345522 2.090068,-0.935403 2.435577,-1.706788 0.345508,-0.771384 -0.0023,-1.675154 -0.777336,-2.022058 z"
     id="path21806" />
  <path
     d="m 34.156412,54.010174 c -0.810068,-0.243182 -1.663771,0.215318 -1.905567,1.02173 -0.243183,0.810067 -0.08263,2.641023 0.727427,2.884192 0.810067,0.243182 1.95671,-1.190332 2.203518,-1.998978 0.243182,-0.810067 -0.215318,-1.663771 -1.02173,-1.905566 z"
     id="path21808" />
  <path
     d="m 39.964259,51.664231 c 0.771438,0.345509 2.090068,-0.935402 2.435576,-1.706787 0.345509,-0.771438 -0.0023,-1.675155 -0.777336,-2.022058 -0.771437,-0.345509 -1.675154,0.0023 -2.022058,0.777336 -0.345508,0.771438 -0.41263,2.608258 0.358792,2.953781 z"
     id="path21810" />
  <path
     d="m 36.074235,66.558197 c 0.573909,-1.92945 -2.279699,-2.831432 -2.91716,-0.921729 -0.254146,0.805928 -0.114615,2.637283 0.69135,2.891416 0.805929,0.254147 1.973093,-1.167473 2.227198,-1.973364 z"
     id="path21812" />
  <path
     d="m 42.239196,70.313591 c -0.807308,-0.250491 -1.665552,0.197949 -1.919677,1.003896 -0.250492,0.807309 -0.107309,2.640042 0.700024,2.890523 0.807309,0.250491 1.970822,-1.172499 2.221278,-1.979767 0.250491,-0.807309 -0.197949,-1.665552 -1.003896,-1.919678 z"
     id="path21814" />
  <path
     style="fill:#ff0000;stroke:#000000;stroke-width:0.856599;stroke-linecap:round;stroke-linejoin:round;paint-order:fill markers stroke"
     d="m 39.467798,34.012333 c -4.185015,1.516174 -7.581899,4.808342 -9.842467,8.594626 -3.235365,5.570866 -4.095041,12.179221 -3.904087,18.527764 0.04225,7.987456 1.600812,15.928192 4.057305,23.510104 1.733874,4.920574 3.746859,9.987026 7.435323,13.794124 1.47934,1.575589 3.632125,2.446979 5.797875,2.187509 5.558042,-0.48902 10.632403,-3.161236 15.387163,-5.903316 8.746268,-5.324554 16.807003,-12.083067 22.648403,-20.558403 3.701846,-5.367669 5.76953,-12.110317 4.504911,-18.618009 -0.350351,-1.661035 -0.787377,-3.402367 -1.791231,-4.7909 -1.180097,-0.482416 -2.501721,-0.599232 -3.734571,-0.959659 -0.599826,0.285836 0.170456,1.099322 0.178012,1.578351 0.679941,2.117158 0.591259,4.505235 -0.162286,6.605182 -0.363082,1.082648 -1.563045,0.409108 -2.228496,0.09436 -4.268732,-1.907228 -8.415742,-4.407496 -11.332537,-8.126983 -0.548604,-0.476985 -0.888268,0.593004 -1.210614,0.906456 -1.831993,2.434399 -4.826812,3.978435 -7.915509,3.682528 -0.893397,-0.273914 -1.557082,-1.217427 -2.217456,-1.90977 -1.747618,-2.102971 -2.004084,-4.97978 -1.70617,-7.595289 -0.344677,-0.513443 -1.111117,0.08709 -1.615844,-0.0087 -4.547727,0.640755 -9.247793,-0.330026 -13.526551,-1.895255 -0.788338,-0.19675 -1.035969,-1.05154 -0.572851,-1.692787 1.114308,-2.302996 3.015321,-4.303716 5.432042,-5.231946 0.193281,-0.734415 -1.361031,-0.826703 -1.855072,-1.292929 -0.633934,-0.20984 -1.159698,-0.812602 -1.825292,-0.897087 z m -5.483237,10.077754 c 1.158487,0.0039 1.703252,1.486857 0.877679,2.264633 -0.514069,0.558976 -1.364669,1.375779 -2.16492,1.022565 -0.837761,-0.947219 -0.17525,-3.375548 1.287241,-3.287198 z m 12.467865,4.680845 c 1.074036,0.110221 1.67573,1.566245 0.776293,2.322855 -0.47636,0.506903 -1.228021,1.51529 -1.993265,1.04766 -0.624942,-0.921757 -0.562104,-2.54796 0.379446,-3.238345 0.266961,-0.09399 0.554675,-0.137484 0.837526,-0.13217 z m -7.857288,4.28333 c 0.971877,0.02009 1.806222,1.146383 1.146705,2.025053 -0.3235,0.717482 -1.118027,1.877151 -2.021373,1.360185 -0.567764,-0.887982 -0.670661,-2.326977 0.06123,-3.158709 0.225666,-0.18421 0.528999,-0.239954 0.813434,-0.226529 z m -7.364744,0.528346 c 0.99667,0.135197 1.516266,1.271712 1.038627,2.14016 -0.284514,0.675863 -1.011243,1.881862 -1.885187,1.373904 -0.905595,-1.016555 -0.958506,-3.462836 0.84656,-3.514064 z m 36.961243,3.415689 c 1.261933,0.02373 1.629863,1.6443 0.773281,2.42625 -0.409302,0.556518 -1.474178,1.718097 -1.981219,0.673567 -0.376671,-1.099115 -0.535846,-3.218687 1.207938,-3.099817 z m -22.14643,1.024907 c 1.24677,-0.02574 1.681886,1.582861 0.850576,2.379406 -0.440825,0.596249 -1.610888,1.721298 -2.183992,0.718404 -0.462252,-1.084717 -0.175312,-3.120178 1.333416,-3.09781 z m 8.928707,0.529686 c 1.196357,-0.04761 1.892814,1.522787 1.028252,2.370705 -0.462607,0.561098 -1.341228,1.552985 -2.094651,0.948616 -0.33324,-0.902423 -0.439403,-2.152227 0.194072,-2.952254 0.228832,-0.230095 0.548126,-0.363246 0.872327,-0.367067 z m 25.4788,3.072715 c 0.922348,0.06639 1.670234,1.078292 1.193551,1.96315 -0.274462,0.727171 -0.895856,1.90698 -1.823285,1.629546 -0.915317,-0.943944 -1.164558,-3.004971 0.314531,-3.548862 0.101721,-0.03167 0.208657,-0.04686 0.315203,-0.04383 z m -49.111899,1.885522 c 1.29306,0.07561 1.414073,1.86639 0.730786,2.692597 -0.237242,0.568784 -1.137653,1.494443 -1.60813,0.615681 -0.633729,-0.898398 -1.136184,-2.631316 0.164293,-3.184474 0.223722,-0.09587 0.469944,-0.140504 0.713051,-0.123804 z m 30.980107,0.626722 c 1.132068,0.05612 1.557134,1.45665 0.867306,2.267311 -0.364386,0.630572 -1.138689,1.607778 -1.940397,1.141686 -0.502071,-0.823973 -0.590003,-2.043523 -0.12414,-2.87998 0.28815,-0.355809 0.733398,-0.580139 1.197231,-0.529017 z m -23.536061,0.02443 c 1.097896,0.03974 1.678929,1.375725 0.952967,2.210426 -0.335062,0.653924 -1.280647,1.840622 -2.025389,1.080118 -0.427357,-0.933295 -0.678017,-2.456931 0.313864,-3.118221 0.226975,-0.135138 0.495933,-0.192469 0.758558,-0.172323 z m 32.259987,1.069075 c 1.196184,0.07457 1.823014,1.781592 0.766254,2.515255 -0.457171,0.494587 -1.552764,1.6046 -2.095656,0.648139 -0.466148,-1.08901 -0.124608,-3.100496 1.329402,-3.163394 z m -23.97306,3.568605 c 1.308846,0.113254 1.482566,2.012045 0.472868,2.657548 -0.389545,0.390563 -1.366201,1.446957 -1.778179,0.562394 -0.300598,-1.031207 -0.605684,-2.560967 0.641447,-3.085095 0.205147,-0.09972 0.435668,-0.150319 0.663864,-0.134847 z m 29.137079,1.863103 c 1.066553,-0.06413 1.805738,1.236349 1.110903,2.077586 -0.463989,0.67452 -1.478464,1.639099 -2.348956,1.184517 -0.586525,-0.998421 -0.203123,-3.264152 1.238053,-3.262103 z M 54.421474,71.64815 c 1.119948,-0.06555 1.726902,1.389387 0.989439,2.206077 -0.409506,0.589335 -1.085741,1.477239 -1.869461,1.314011 -0.854694,-0.807194 -0.807901,-2.48755 0.04082,-3.287199 0.240103,-0.177119 0.546685,-0.232904 0.8392,-0.232889 z m 9.19405,1.869127 c 1.232358,0.02076 1.799418,1.677209 0.821465,2.447999 -0.452615,0.460154 -1.0943,1.323505 -1.813915,1.08614 -0.875205,-0.887528 -0.545138,-2.635968 0.381789,-3.380889 0.182344,-0.110234 0.398135,-0.162233 0.610661,-0.15325 z m -31.472651,0.616684 c 1.163816,-0.0025 1.706598,1.357317 1.162432,2.305456 -0.263555,0.653895 -1.058484,1.93395 -1.808562,1.093836 -0.819151,-0.944644 -1.07426,-2.890523 0.34264,-3.375201 0.09934,-0.02278 0.201895,-0.02838 0.30349,-0.02409 z m 7.524687,0.647803 c 1.085136,0.06046 1.76062,1.449647 0.950959,2.276345 -0.383473,0.579385 -1.246331,1.693317 -2.001966,1.071753 -0.686276,-1.071499 -0.645139,-3.343489 1.051007,-3.348098 z m 30.103765,3.286529 c 1.314275,-0.03204 1.725415,1.891801 0.626724,2.50254 -0.605622,0.359427 -1.466617,1.184279 -2.148191,0.637766 -0.565652,-0.772226 -0.04629,-1.834289 0.38246,-2.569129 0.259145,-0.358602 0.681183,-0.62671 1.139007,-0.571177 z m -22.870857,2.370704 c 1.130473,0.105667 1.557323,1.547763 0.853587,2.383086 -0.375586,0.655367 -1.563169,1.757454 -2.113056,0.697325 -0.551153,-1.089627 -0.314732,-3.155455 1.259469,-3.080411 z m 9.059872,0.492545 c 1.16183,-0.0052 1.760558,1.554753 0.892402,2.33624 -0.437892,0.56008 -1.289307,1.483338 -2.055838,1.058703 -0.561819,-0.999613 -0.555908,-2.610047 0.517306,-3.266119 0.199246,-0.09868 0.424607,-0.140272 0.64613,-0.128824 z m 6.021958,4.408473 c 1.054251,0.13666 1.754426,1.521635 0.855261,2.294748 -0.534242,0.61908 -1.606402,1.477716 -2.394797,0.87835 -0.538343,-1.111715 0.136693,-3.095125 1.539536,-3.173098 z m -24.243759,0.06424 c 1.383578,0.0865 1.428318,1.827816 0.819792,2.733755 -0.180323,0.598953 -1.159853,1.454229 -1.589727,0.607651 -0.654058,-0.917841 -1.138939,-2.541368 0.113432,-3.201539 0.200768,-0.105221 0.43031,-0.153873 0.656503,-0.139867 z m 13.02432,3.797144 c 1.146056,0.08692 1.76603,1.590346 0.862957,2.368027 -0.590281,0.511122 -1.623402,1.381447 -2.396135,0.769267 -0.673525,-1.079964 0.196068,-2.711739 1.316687,-3.117887 0.07091,-0.01533 0.143922,-0.02326 0.216491,-0.01941 z m -8.995293,4.626636 c 1.035496,0.128605 1.716986,1.410382 0.984085,2.283707 -0.38674,0.564274 -0.977632,1.47801 -1.752682,1.350817 -0.85794,-0.661126 -0.702362,-1.937027 -0.469791,-2.856891 0.28891,-0.392202 0.711083,-0.810454 1.238388,-0.777633 z"
     id="path22085"
     transform="translate(-5,-10)" />
  <path
     style="fill:#008000;stroke:#000000;stroke-width:0.856599;stroke-linecap:round;stroke-linejoin:round;paint-order:fill markers stroke"
     d="m 45.70056,28.940665 c -2.31134,-0.05834 -4.667859,0.605814 -6.526883,1.981555 -0.142244,0.733987 0.901191,1.091168 1.346041,1.514078 2.377848,1.63121 5.17418,2.460394 7.89017,3.310648 0.869092,0.347609 0.375157,1.638539 -0.455068,1.465253 -2.446764,-0.122284 -5.145087,0.491849 -6.879895,2.388439 -0.480038,0.652666 -1.382738,1.300918 -1.358512,2.159901 1.659617,0.758412 3.561235,0.984662 5.344374,1.390635 3.222132,0.515637 6.607434,0.468595 9.698307,-0.661187 0.789076,-0.275104 1.201465,0.759783 0.830499,1.359181 -0.924516,2.850438 -0.758717,6.433021 1.618504,8.558963 1.007391,0.951512 2.49837,0.232212 3.604743,-0.140536 2.206945,-0.946533 3.595855,-3.019216 4.628646,-5.088732 0.287288,-0.658175 1.152184,-0.782087 1.435472,-0.03948 2.294751,4.599184 7.040735,7.195716 11.487126,9.329901 0.738488,-0.161892 0.451923,-1.291571 0.539724,-1.853399 0.07027,-2.099774 -0.641336,-4.191243 -2.129899,-5.702681 -0.520312,-0.770204 -2.024664,-1.2318 -1.687654,-2.362733 0.378109,-0.924201 1.538066,-0.06691 2.138335,0.121827 2.749182,1.367312 5.803872,2.425803 8.893388,2.254231 -0.119644,-1.766723 -1.294829,-3.327042 -2.284376,-4.754794 -3.807762,-4.503276 -9.703713,-6.304548 -15.154423,-7.943264 -1.084986,-0.693344 -1.535881,0.792544 -2.102766,1.429934 -0.795359,0.89994 -1.150003,2.230875 -2.156154,2.912938 -1.428252,0.490812 -3.411587,-0.417712 -3.653595,-1.984901 0.182797,-1.577637 1.349766,-2.835474 1.884182,-4.269945 -0.695755,-0.713452 -1.894625,-0.935303 -2.767661,-1.464828 -4.463141,-2.007396 -9.171751,-4.156643 -14.182625,-3.911 z"
     id="path22087"
     transform="translate(-5,-10)" />
  <path
     style="fill:#008000;stroke:#000000;stroke-width:0.856599;stroke-linecap:round;stroke-linejoin:round;paint-order:fill markers stroke"
     d="m 80.5715,23.935584 c -2.86393,0.28938 -5.442742,1.796372 -7.904431,3.187737 -4.248696,2.611908 -7.917849,6.38384 -9.944616,10.971911 -0.364465,0.734674 0.793842,1.213415 1.12964,0.510948 3.319705,-5.338296 8.735868,-9.578375 14.990817,-10.774744 1.118938,-0.286283 2.409581,-0.08565 3.458517,-0.585231 0.913745,-1.194703 -0.04412,-3.573616 -1.729927,-3.310621 z"
     id="path22089"
     transform="translate(-5,-10)" />
</svg>
