<?xml version="1.0" encoding="UTF-8" standalone="no"?>
<svg
   version="1.1"
   viewBox="-5.0 -10.0 110.0 135.0"
   id="svg21504"
   sodipodi:docname="sunflower.svg"
   inkscape:version="1.2.2 (b0a8486541, 2022-12-01)"
   xmlns:inkscape="http://www.inkscape.org/namespaces/inkscape"
   xmlns:sodipodi="http://sodipodi.sourceforge.net/DTD/sodipodi-0.dtd"
   xmlns="http://www.w3.org/2000/svg"
   xmlns:svg="http://www.w3.org/2000/svg">
  <defs
     id="defs21508" />
  <sodipodi:namedview
     id="namedview21506"
     pagecolor="#ffffff"
     bordercolor="#000000"
     borderopacity="0.25"
     inkscape:showpageshadow="2"
     inkscape:pageopacity="0.0"
     inkscape:pagecheckerboard="0"
     inkscape:deskcolor="#d1d1d1"
     showgrid="false"
     inkscape:zoom="5.837037"
     inkscape:cx="55.079315"
     inkscape:cy="67.5"
     inkscape:window-width="1857"
     inkscape:window-height="1011"
     inkscape:window-x="0"
     inkscape:window-y="0"
     inkscape:window-maximized="1"
     inkscape:current-layer="svg21504" />
  <path
     d="m89.523 68.641h-17.223c-8.1484 0-15.215 4.6953-18.652 11.52v-18.371c0.45312-0.95703 0.87109-2.0273 1.1992-3.1641 3.6641 2.9141 8.4062 4.3281 8.6367 4.3945 0.10156 0.03125 0.20703 0.042969 0.3125 0.042969 0.19141 0 0.38672-0.050781 0.55469-0.14844 0.26172-0.15234 0.45313-0.40234 0.52344-0.69922 0.054688-0.23047 1.207-5.0469 0.51172-9.6758 1.9453 0.48438 3.8633 0.62891 5.4023 0.62891 1.8555 0 3.1562-0.19922 3.2812-0.21875 0.33203-0.050781 0.62109-0.25 0.78906-0.54297 0.16797-0.28906 0.19531-0.64062 0.074219-0.95312-0.082032-0.21484-1.6172-4.1328-4.6953-7.3203 4.3555-1.7148 7.9531-5.1094 8.1211-5.2734 0.21875-0.21094 0.34375-0.5 0.34375-0.80469 0-0.30469-0.125-0.59375-0.34375-0.80469-0.17188-0.16406-3.7656-3.5586-8.1211-5.2734 3.0781-3.1875 4.6133-7.1055 4.6953-7.3203 0.12109-0.3125 0.09375-0.66406-0.074219-0.95312s-0.45703-0.48828-0.78906-0.54297c-0.22656-0.035156-4.3828-0.66406-8.6797 0.40625 0.69141-4.6289-0.45703-9.4414-0.51172-9.6719-0.070312-0.29688-0.26172-0.54688-0.52344-0.69922-0.26172-0.15234-0.57812-0.1875-0.86719-0.10547-0.22656 0.066406-4.9727 1.4805-8.6367 4.3945-1.2227-4.2578-3.8438-7.5469-3.9844-7.7227-0.42188-0.51953-1.3047-0.51953-1.7266 0-0.14453 0.17969-2.7656 3.4648-3.9844 7.7227-3.6641-2.9141-8.4062-4.3281-8.6367-4.3945-0.28906-0.085938-0.60547-0.046875-0.86719 0.10547-0.26172 0.15234-0.45312 0.40625-0.52344 0.69922-0.054687 0.23047-1.2031 5.043-0.51172 9.6719-4.2969-1.0703-8.4531-0.44141-8.6797-0.40625-0.33203 0.050782-0.62109 0.25-0.78906 0.54297-0.16797 0.28906-0.19531 0.64062-0.074219 0.95312 0.082031 0.21484 1.6172 4.1328 4.6953 7.3203-4.3555 1.7148-7.9531 5.1094-8.1211 5.2734-0.21875 0.21094-0.34375 0.5-0.34375 0.80469 0 0.30469 0.125 0.59375 0.34375 0.80469 0.17187 0.16406 3.7656 3.5586 8.1211 5.2734-3.0781 3.1875-4.6133 7.1055-4.6953 7.3203-0.12109 0.3125-0.09375 0.66406 0.074219 0.95312 0.16797 0.28906 0.45703 0.48828 0.78906 0.54297 0.125 0.019531 1.4258 0.21875 3.2812 0.21875 1.5352 0 3.457-0.14453 5.4023-0.62891-0.69141 4.6289 0.45703 9.4453 0.51172 9.6758 0.070313 0.29688 0.26172 0.54688 0.52344 0.69922 0.17188 0.097657 0.36328 0.14844 0.55469 0.14844 0.10547 0 0.21094-0.015625 0.3125-0.042969 0.22656-0.066406 4.9727-1.4805 8.6367-4.3945 0.32422 1.1367 0.74609 2.207 1.1992 3.1641v18.371c-3.4375-6.8242-10.504-11.52-18.652-11.52h-17.23c-0.61328 0-1.1094 0.49609-1.1094 1.1094 0 11.508 9.3633 20.875 20.875 20.875h39.523c11.508 0 20.875-9.3633 20.875-20.875 0-0.61328-0.49609-1.1094-1.1094-1.1094zm-40.957-7.3867c-0.94141-1.8867-1.8164-4.293-1.8164-6.7344 0-2.582 0.98438-4.8555 1.9453-6.4609 0.42578 0.054687 0.85938 0.09375 1.3008 0.09375s0.875-0.039063 1.3008-0.09375c0.96094 1.6055 1.9453 3.8789 1.9453 6.4609 0 2.4453-0.875 4.8516-1.8164 6.7344-0.070312 0.14062-0.14062 0.27734-0.21094 0.41016-0.054688 0.10547-0.10938 0.21094-0.16797 0.3125-0.070313 0.125-0.13672 0.24609-0.20312 0.36719-0.082031 0.14062-0.16016 0.27734-0.23828 0.41016-0.0625 0.10547-0.12109 0.20703-0.18359 0.30469-0.050781 0.085937-0.10156 0.16797-0.15234 0.24609-0.066406 0.10547-0.12891 0.20312-0.19141 0.29687-0.027344 0.042969-0.058594 0.09375-0.085937 0.13281-0.027344-0.042969-0.058594-0.089844-0.085938-0.13281-0.0625-0.09375-0.125-0.19531-0.19141-0.29687-0.050782-0.078126-0.10156-0.16406-0.15234-0.24609-0.058594-0.097656-0.12109-0.19922-0.18359-0.30469-0.078125-0.13281-0.15625-0.26953-0.23828-0.41016-0.066406-0.12109-0.13672-0.24219-0.20312-0.36719-0.054688-0.10156-0.10938-0.20703-0.16797-0.3125-0.070312-0.13281-0.14062-0.26953-0.21094-0.41016zm-6.4375-23.195c0-4.3398 3.5312-7.8672 7.8672-7.8672 4.3398 0 7.8672 3.5312 7.8672 7.8672 0 4.3398-3.5312 7.8672-7.8672 7.8672-4.3398 0-7.8672-3.5312-7.8672-7.8672zm20.82 22.438c-1.7695-0.65234-5.1992-2.1133-7.5938-4.3633 0.066406-0.53125 0.10938-1.0703 0.10938-1.6172 0-2.7734-0.93359-5.1992-1.9336-7.0195 1.0469-0.39453 2.0195-0.94922 2.8711-1.6484 1.0781 1.7734 2.7109 3.793 5.1094 5.1797 0.47266 0.27344 0.96094 0.5 1.4531 0.71094 0.75391 3.1992 0.30078 6.8984-0.019532 8.7578zm-0.32422-11.395c-2.2383-1.293-3.7148-3.2852-4.625-4.9219 0.52734-0.6875 0.97656-1.4414 1.3125-2.2539 1.8711-0.027343 4.3281 0.25781 6.5625 1.5469 3.2383 1.8672 5.3789 5.4648 6.3633 7.4258-2.1875 0.12891-6.3633 0.074218-9.6094-1.8008zm5.707-6.6562c-0.42969-0.32031-0.87891-0.625-1.3477-0.89453-2.4023-1.3867-4.9727-1.793-7.0469-1.8359 0.089844-0.53906 0.14844-1.0898 0.14844-1.6523 0-0.56641-0.058594-1.1133-0.14844-1.6523 2.0742-0.042968 4.6445-0.45312 7.0469-1.8398 0.47266-0.27344 0.91797-0.57422 1.3477-0.89453 3.1445 0.94922 6.1211 3.1836 7.5703 4.3867-1.4492 1.207-4.4219 3.4375-7.5703 4.3867zm3.9023-17.227c-0.98047 1.957-3.1172 5.5508-6.3633 7.4219-2.2305 1.2891-4.6914 1.5742-6.5625 1.5469-0.33984-0.8125-0.78516-1.5625-1.3125-2.25 0.91016-1.6367 2.3906-3.6289 4.625-4.9219 3.2383-1.8672 7.4219-1.9258 9.6133-1.7969zm-9.2852-9.5977c0.32031 1.8555 0.76953 5.5508 0.019531 8.7461-0.49609 0.21094-0.98438 0.44922-1.457 0.72266-2.3984 1.3828-4.0352 3.4023-5.1094 5.1797-0.85156-0.69922-1.8203-1.2539-2.8711-1.6484 1-1.8203 1.9336-4.2461 1.9336-7.0195 0-0.54687-0.046875-1.082-0.10938-1.6172 2.3945-2.25 5.8242-3.7109 7.5938-4.3633zm-12.953-3.2422c1.207 1.832 3.25 5.4844 3.25 9.2227 0 2.582-0.98438 4.8555-1.9453 6.4609-0.42578-0.054688-0.85938-0.09375-1.3047-0.09375-0.44141 0-0.875 0.039062-1.3047 0.09375-0.96094-1.6055-1.9453-3.8789-1.9453-6.4609 0-3.7383 2.043-7.3906 3.25-9.2227zm-12.953 3.2422c1.7695 0.65234 5.1992 2.1133 7.5938 4.3633-0.066407 0.53125-0.10938 1.0703-0.10938 1.6172 0 2.7734 0.93359 5.2031 1.9336 7.0195-1.0469 0.39453-2.0195 0.94922-2.8711 1.6484-1.0781-1.7734-2.7109-3.793-5.1094-5.1797-0.47266-0.27344-0.96094-0.51172-1.457-0.72266-0.75-3.1953-0.30078-6.8906 0.023437-8.7461zm0.32422 11.395c2.2383 1.293 3.7148 3.2852 4.625 4.9219-0.52734 0.6875-0.97656 1.4414-1.3125 2.25-1.8711 0.027344-4.3281-0.25781-6.5625-1.5469-3.2383-1.8672-5.3789-5.4648-6.3633-7.4258 2.1836-0.12891 6.3633-0.074219 9.6094 1.8008zm-5.707 6.6562c0.42969 0.32031 0.875 0.625 1.3477 0.89453 2.3984 1.3867 4.9727 1.793 7.0469 1.8398-0.089844 0.53906-0.14844 1.0898-0.14844 1.6523 0 0.56641 0.058594 1.1133 0.14844 1.6562-2.0742 0.042968-4.6445 0.44922-7.0469 1.8359-0.47266 0.27344-0.91797 0.57422-1.3477 0.89453-3.1406-0.94922-6.1172-3.1797-7.5703-4.3867 1.4492-1.207 4.4258-3.4414 7.5703-4.3867zm-3.9023 17.227c0.98047-1.957 3.1172-5.5508 6.3633-7.4219 2.2344-1.2891 4.6914-1.5742 6.5625-1.5469 0.33984 0.8125 0.78516 1.5625 1.3125 2.2539-0.91016 1.6367-2.3906 3.6289-4.625 4.9219-3.2383 1.8672-7.4219 1.9258-9.6133 1.7969zm9.2852 9.5977c-0.32031-1.8594-0.76953-5.5625-0.019531-8.7578 0.49219-0.21094 0.98047-0.4375 1.4531-0.71094 2.3984-1.3828 4.0352-3.4023 5.1094-5.1797 0.85156 0.69922 1.8203 1.2539 2.8711 1.6484-1 1.8203-1.9336 4.25-1.9336 7.0195 0 0.54688 0.046874 1.082 0.10937 1.6172-2.3945 2.25-5.8242 3.7109-7.5938 4.3633zm-25.426 10.367h16.078c9.6602 0 17.625 7.3789 18.555 16.797l-24.246-12.234c-0.54688-0.27734-1.2148-0.054687-1.4922 0.49219-0.27734 0.54688-0.054688 1.2148 0.49219 1.4922l21.785 10.992h-12.555c-9.9102 0-18.043-7.7695-18.617-17.539zm36.953-5.2695c0.3125 0.44141 0.52734 0.71094 0.56641 0.75781 0.21094 0.26172 0.52734 0.41016 0.86328 0.41016s0.65234-0.15234 0.86328-0.41016c0.039063-0.046874 0.25391-0.32031 0.56641-0.75781v22.812h-2.8555v-22.812zm21.191 22.812h-12.555l21.785-10.992c0.54687-0.27734 0.76953-0.94531 0.49219-1.4922s-0.94531-0.76562-1.4922-0.49219l-24.246 12.234c0.93359-9.418 8.8984-16.797 18.555-16.797h16.078c-0.57812 9.7695-8.707 17.539-18.617 17.539z"
     id="path21498" />
  <path
     style="fill:#008000;stroke:#000000;stroke-width:0.856599;stroke-linecap:round;stroke-linejoin:round;paint-order:fill markers stroke"
     d="m 16.545076,80.826806 c -0.05883,2.082781 0.604787,4.172045 1.344032,6.111198 2.811741,6.945405 10.08685,11.86588 17.61882,11.588744 4.039959,0.02721 8.104593,0.197349 12.131021,0.0066 0.146204,-0.691078 -1.144096,-0.720294 -1.532673,-1.141444 -6.552061,-3.424081 -13.244191,-6.581001 -19.757142,-10.076611 -0.789064,-0.202837 -1.046645,-1.351904 -0.271049,-1.728636 0.912114,-0.103402 1.764102,0.661481 2.616177,0.93841 7.335324,3.519119 14.484273,7.425737 21.880546,10.815065 0.431125,0.326594 1.001435,0.03312 0.718406,-0.527344 -1.015998,-7.46792 -6.942901,-13.947887 -14.300853,-15.59512 -3.453305,-0.724451 -7.022087,-0.346305 -10.524455,-0.468151 -3.301167,0.04835 -6.652558,-0.103596 -9.92283,0.07733 z"
     id="path21627"
     transform="translate(-5,-10)" />
  <path
     style="fill:#008000;stroke:#000000;stroke-width:0.856599;stroke-linecap:round;stroke-linejoin:round;paint-order:fill markers stroke"
     d="m 83.7543,80.791003 c -3.261681,0.05701 -6.542678,-0.03008 -9.792429,0.116004 -5.252625,1.184264 -10.146858,4.351403 -12.847214,9.081728 -1.269209,2.25095 -2.236129,4.774245 -2.444653,7.353701 0.577896,0.422514 1.351033,-0.399535 1.945416,-0.51329 7.408832,-3.514819 14.633362,-7.50023 22.063113,-10.913941 0.514247,-0.194716 1.550004,-0.74966 1.689105,0.210804 0.393979,0.811252 -0.841312,1.144359 -1.316017,1.525148 -6.880357,3.609908 -13.891983,7.000358 -20.782563,10.604762 -0.04105,0.820528 1.816931,0.155836 2.491727,0.355602 4.615112,-0.145108 9.265138,0.151969 13.855595,-0.426204 7.881611,-1.633502 14.294975,-8.769847 14.868391,-16.834375 0.213831,-1.210558 -1.679499,-0.367343 -2.383081,-0.606929 -2.449129,0.01566 -4.898261,0.03133 -7.34739,0.04699 z"
     id="path21629"
     transform="translate(-5,-10)" />
  <path
     style="fill:#008000;stroke:#000000;stroke-width:0.856599;stroke-linecap:round;stroke-linejoin:round;paint-order:fill markers stroke"
     d="m 53.358421,75.684536 c -0.0056,7.553312 -0.108119,15.124717 0.100382,22.677454 0.727263,0.508243 1.830354,0.127447 2.676872,0.26133 1.084298,-0.07772 0.254845,-1.83334 0.513092,-2.598574 -0.05862,-6.585963 0.109741,-13.178856 -0.115911,-19.760668 0.04633,-0.54846 -0.552834,-0.529062 -0.737813,-0.114771 -0.391379,0.415148 -1.005493,0.671827 -1.401342,0.106741 -0.313695,-0.145168 -0.676429,-0.907505 -1.03528,-0.571512 z"
     id="path21631"
     transform="translate(-5,-10)" />
  <path
     style="fill:#aa8800;stroke:#000000;stroke-width:0.856599;stroke-linecap:round;stroke-linejoin:round;paint-order:fill markers stroke"
     d="m 54.719945,40.093182 c -3.590027,-0.0048 -6.831504,2.767161 -7.513645,6.266223 -1.022419,4.078487 1.786933,8.591541 5.899156,9.478803 3.742226,0.941029 8.054084,-1.182702 9.328564,-4.890645 1.545662,-3.844295 -0.374388,-8.732751 -4.292526,-10.247813 -1.079162,-0.445409 -2.256034,-0.643561 -3.421549,-0.606568 z"
     id="path21633"
     transform="translate(-5,-10)" />
  <path
     style="fill:#ffcc00;stroke:#000000;stroke-width:0.856599;stroke-linecap:round;stroke-linejoin:round;paint-order:fill markers stroke"
     d="m 73.463401,43.652083 c -1.030503,0.186809 -1.790012,1.074188 -2.803019,1.36554 -1.664549,0.738507 -3.429505,1.152542 -5.225923,1.197565 -0.952099,0.435619 -0.397199,1.786192 -0.543409,2.584138 -0.409542,1.238396 0.7549,1.19458 1.62085,1.212001 2.29097,0.234228 4.451803,1.084651 6.387685,2.307464 1.388765,0.403995 2.674027,-0.705627 3.87027,-1.250261 1.467292,-0.91897 3.066412,-1.767322 4.281139,-2.987227 -1.607191,-1.579926 -3.67116,-2.720823 -5.67035,-3.774341 -0.617951,-0.255395 -1.231809,-0.634798 -1.917243,-0.654879 z"
     id="path21704"
     transform="translate(-5,-10)" />
  <path
     style="fill:#ffcc00;stroke:#000000;stroke-width:0.856599;stroke-linecap:round;stroke-linejoin:round;paint-order:fill markers stroke"
     d="m 75.027029,35.027872 c -3.411298,0.167368 -7.077712,0.965119 -9.529329,3.522428 -1.029189,1.016487 -2.19165,2.103046 -2.568124,3.525775 0.602777,0.674658 0.796261,2.000585 1.664881,2.27106 3.294429,-0.01954 6.621646,-1.191526 8.929508,-3.598454 1.591431,-1.597399 2.882337,-3.530104 3.857038,-5.530417 -0.640462,-0.310631 -1.616048,-0.139093 -2.353974,-0.190392 z"
     id="path21706"
     transform="translate(-5,-10)" />
  <path
     style="fill:#ffcc00;stroke:#000000;stroke-width:0.856599;stroke-linecap:round;stroke-linejoin:round;paint-order:fill markers stroke"
     d="m 67.679685,25.587883 c -2.674177,0.962484 -5.284569,2.359114 -7.385489,4.259572 0.09431,2.833723 -0.304927,5.721939 -1.646611,8.259154 -0.573817,0.867628 0.848381,1.019955 1.329736,1.416065 0.607331,0.145308 1.32898,1.340792 1.791831,0.449045 1.502225,-2.254331 3.571228,-4.110987 5.960724,-5.378839 1.010342,-0.757184 0.468093,-2.232662 0.646726,-3.301914 -0.09073,-1.793785 0.214136,-3.676456 -0.301075,-5.414984 -0.07161,-0.151739 -0.204338,-0.324503 -0.395842,-0.288099 z"
     id="path21708"
     transform="translate(-5,-10)" />
  <path
     style="fill:#ffcc00;stroke:#000000;stroke-width:0.856599;stroke-linecap:round;stroke-linejoin:round;paint-order:fill markers stroke"
     d="m 54.880557,22.350541 c -2.323633,3.434856 -3.953888,7.786412 -2.912102,11.958256 0.357912,1.336016 0.835266,2.735389 1.619842,3.838634 0.983863,-0.08526 2.065485,0.163191 2.992408,-0.116444 1.443286,-2.751423 2.230073,-5.95463 1.46268,-9.031492 -0.534489,-2.395848 -1.525533,-4.766809 -2.996862,-6.710856 l -0.160518,0.05987 z"
     id="path21710"
     transform="translate(-5,-10)" />
  <path
     style="fill:#ffcc00;stroke:#000000;stroke-width:0.856599;stroke-linecap:round;stroke-linejoin:round;paint-order:fill markers stroke"
     d="m 42.192185,25.597252 c -0.662878,0.32609 -0.371366,1.37946 -0.538464,1.989825 -0.05593,2.186775 -0.308872,4.44649 0.161359,6.595238 1.11965,1.015227 2.63479,1.527072 3.680824,2.663203 1.222869,1.000719 2.10814,2.351672 3.09735,3.530074 0.904346,-0.648187 1.985125,-1.071507 2.891691,-1.710186 -0.398197,-1.42678 -1.241392,-2.78204 -1.459655,-4.29647 -0.388519,-1.526685 -0.204572,-3.143416 -0.394413,-4.666032 -2.210711,-1.698337 -4.638457,-3.222746 -7.294476,-4.099294 -0.04769,-0.0068 -0.09611,-0.0097 -0.144216,-0.0064 z"
     id="path21712"
     transform="translate(-5,-10)" />
  <path
     style="fill:#ffcc00;stroke:#000000;stroke-width:0.856599;stroke-linecap:round;stroke-linejoin:round;paint-order:fill markers stroke"
     d="m 32.616345,35.084086 c 0.324014,1.156221 1.178051,2.231748 1.837493,3.275299 2.251828,3.369942 5.997817,5.895549 10.14073,5.937582 1.053526,0.356787 1.523527,-0.477976 1.910665,-1.29717 0.666005,-0.647561 0.618039,-1.414915 0.04122,-2.088496 -1.945299,-2.771675 -4.838822,-5.048837 -8.279899,-5.487252 -1.856034,-0.306391 -3.793282,-0.559673 -5.650207,-0.339963 z"
     id="path21714"
     transform="translate(-5,-10)" />
  <path
     style="fill:#ffcc00;stroke:#000000;stroke-width:0.856599;stroke-linecap:round;stroke-linejoin:round;paint-order:fill markers stroke"
     d="m 35.70077,43.846157 c -2.423879,0.965572 -4.688401,2.398043 -6.661061,4.088921 0.05497,0.69375 1.057479,0.95004 1.493749,1.425853 1.849453,1.323379 3.854981,2.594677 6.063061,3.164313 1.755101,-0.912454 3.494699,-1.930261 5.481898,-2.290733 0.959993,-0.267896 2.032038,-0.174115 2.976347,-0.444695 -0.06239,-1.073965 0.297499,-2.283979 -0.114771,-3.308948 -0.923272,-0.654894 -2.228223,-0.260657 -3.257091,-0.691942 -1.838129,-0.415553 -3.486975,-1.328835 -5.08471,-2.247598 -0.299141,0.10161 -0.598281,0.203219 -0.897422,0.304829 z"
     id="path21716"
     transform="translate(-5,-10)" />
  <path
     style="fill:#ffcc00;stroke:#000000;stroke-width:0.856599;stroke-linecap:round;stroke-linejoin:round;paint-order:fill markers stroke"
     d="m 44.56222,51.800481 c -2.946804,0.146015 -5.840784,1.285529 -7.913223,3.422958 -1.681583,1.645435 -3.11963,3.623604 -4.057748,5.759717 1.151441,0.278659 2.491094,0.07095 3.710378,0.02192 3.725218,-0.262909 7.417484,-1.931341 9.656582,-4.997217 0.458215,-0.69719 1.579251,-1.563409 0.796704,-2.440638 -0.521885,-0.68924 -0.704825,-2.076301 -1.834996,-1.771755 -0.119286,-0.0026 -0.23848,0.0021 -0.357697,0.005 z"
     id="path21718"
     transform="translate(-5,-10)" />
  <path
     style="fill:#ffcc00;stroke:#000000;stroke-width:0.856599;stroke-linecap:round;stroke-linejoin:round;paint-order:fill markers stroke"
     d="m 48.416581,55.847242 c -1.534768,2.384038 -3.657623,4.345698 -6.159148,5.670284 -0.999823,0.741872 -0.474069,2.19341 -0.64676,3.246369 0.07284,1.954058 -0.195437,4.014823 0.372716,5.890129 2.773906,-0.957269 5.516853,-2.424094 7.70939,-4.389066 -0.08876,-2.735188 0.271003,-5.525348 1.520129,-7.99615 0.250946,-0.409363 0.325547,-1.192353 -0.32959,-1.19857 -0.829579,-0.357059 -1.538773,-1.004397 -2.376058,-1.293264 z"
     id="path21720"
     transform="translate(-5,-10)" />
  <path
     style="fill:#ffcc00;stroke:#000000;stroke-width:0.856599;stroke-linecap:round;stroke-linejoin:round;paint-order:fill markers stroke"
     d="m 53.443411,58.160729 c -1.606128,2.833066 -2.309545,6.235472 -1.403546,9.417367 0.568324,2.230287 1.55408,4.405458 2.88921,6.252706 1.067663,-0.917962 1.497381,-2.444216 2.156357,-3.683783 1.738481,-3.643454 1.688656,-8.096355 -0.357173,-11.609874 -0.440423,-1.001939 -1.891661,-0.261725 -2.762523,-0.48851 -0.190203,0.01307 -0.375923,-0.05864 -0.522325,0.112094 z"
     id="path21722"
     transform="translate(-5,-10)" />
  <path
     style="fill:#ffcc00;stroke:#000000;stroke-width:0.856599;stroke-linecap:round;stroke-linejoin:round;paint-order:fill markers stroke"
     d="m 61.294677,55.786009 c -0.820587,0.590259 -1.750704,1.073863 -2.630362,1.499383 -0.24625,0.940136 0.642586,1.794757 0.809092,2.697498 0.810465,2.062525 0.749436,4.324289 0.896785,6.463032 2.271253,1.788366 4.858463,3.244415 7.567477,4.189364 0.663704,-1.481627 0.285655,-3.232922 0.426493,-4.82305 -0.113435,-1.295518 0.225536,-2.723667 -0.273577,-3.945378 -0.990877,-0.936249 -2.37299,-1.369049 -3.335717,-2.368697 -1.319118,-1.054878 -2.308655,-2.463396 -3.34609,-3.742936 z"
     id="path21724"
     transform="translate(-5,-10)" />
  <path
     style="fill:#ffcc00;stroke:#000000;stroke-width:0.856599;stroke-linecap:round;stroke-linejoin:round;paint-order:fill markers stroke"
     d="m 64.210459,51.892833 c -0.310102,0.836211 -1.331997,1.599658 -1.208183,2.488402 1.152061,2.162117 3.033332,3.948042 5.157876,5.150317 2.830098,1.389362 6.126216,1.680675 9.209474,1.496107 -0.312795,-1.134004 -1.148542,-2.189653 -1.800149,-3.210626 -2.051042,-2.966541 -5.111084,-5.466115 -8.802605,-5.867651 -0.833151,-0.104577 -1.753831,-0.281056 -2.556413,-0.05655 z"
     id="path21726"
     transform="translate(-5,-10)" />
</svg>
