<?xml version="1.0" encoding="UTF-8" standalone="no"?>
<svg
   version="1.1"
   x="0px"
   y="0px"
   viewBox="0 0 100 125"
   style="enable-background:new 0 0 100 100;"
   xml:space="preserve"
   id="svg17916"
   sodipodi:docname="swede.svg"
   inkscape:version="1.2.2 (b0a8486541, 2022-12-01)"
   xmlns:inkscape="http://www.inkscape.org/namespaces/inkscape"
   xmlns:sodipodi="http://sodipodi.sourceforge.net/DTD/sodipodi-0.dtd"
   xmlns:xlink="http://www.w3.org/1999/xlink"
   xmlns="http://www.w3.org/2000/svg"
   xmlns:svg="http://www.w3.org/2000/svg"><defs
     id="defs17920"><linearGradient
       inkscape:collect="always"
       id="linearGradient18573"><stop
         style="stop-color:#d3bc5f;stop-opacity:1;"
         offset="0"
         id="stop18569" /><stop
         style="stop-color:#554176;stop-opacity:1;"
         offset="1"
         id="stop18571" /></linearGradient><inkscape:path-effect
       effect="fill_between_many"
       method="originald"
       linkedpaths="#g17910,0,1|"
       id="path-effect18039" /><linearGradient
       inkscape:collect="always"
       xlink:href="#linearGradient18573"
       id="linearGradient18575"
       x1="24.673176"
       y1="55.044941"
       x2="25.708399"
       y2="28.991293"
       gradientUnits="userSpaceOnUse"
       gradientTransform="matrix(0.94575375,0,0,0.94575375,4.4094028,6.4256366)" /></defs><sodipodi:namedview
     id="namedview17918"
     pagecolor="#ffffff"
     bordercolor="#000000"
     borderopacity="0.25"
     inkscape:showpageshadow="2"
     inkscape:pageopacity="0.0"
     inkscape:pagecheckerboard="0"
     inkscape:deskcolor="#d1d1d1"
     showgrid="false"
     inkscape:zoom="6.304"
     inkscape:cx="50.206218"
     inkscape:cy="61.865482"
     inkscape:window-width="1857"
     inkscape:window-height="1011"
     inkscape:window-x="0"
     inkscape:window-y="0"
     inkscape:window-maximized="1"
     inkscape:current-layer="svg17916" /><path
     inkscape:original-d="M 0,0"
     inkscape:path-effect="#path-effect18039"
     d="M 0,0"
     id="path18041"
     class="UnoptimicedTransforms"
     style="fill:#d3bc5f"
     transform="matrix(0.94575375,0,0,0.94575375,4.4094028,6.4256366)" /><g
     id="g17910"
     class="UnoptimicedTransforms"
     transform="matrix(0.94575375,0,0,0.94575375,4.4094028,6.4256366)"><path
       d="m 90.9,38.7 c 0,-0.1 0,-0.3 0,-0.4 0,0 0,0 0,0 C 90.5,33.4 89.5,28.9 87.7,24.6 82.3,11.7 72.4,5.5 59,6.6 57.5,6.7 56,6.8 54.5,6.9 L 53.3,3 C 53.2,2.6 52.9,2.4 52.6,2.3 50.8,1.9 41.6,-0.1 38.9,1.8 37.9,2.5 37.5,4.8 37.3,6.5 34.6,6.3 32,6.4 29.3,6.6 21.8,7.8 8.8,14 7.3,29.3 c -1.4,13.9 -0.4,23 4,36.3 3.6,11 15.8,22.1 19.8,25.1 C 36.7,95 46.5,99 51.3,99 56.8,99 68.5,90.4 71.1,88.3 79,81.8 83.3,76.5 87.6,62.6 90.3,54 91.4,46 90.9,38.7 Z M 40.1,3.5 c 1.4,-1 7.3,-0.2 11.5,0.7 L 52.3,7 C 48.2,7.1 44,7 39.9,6.8 c -0.2,0 -0.4,0 -0.6,-0.1 0.2,-1.5 0.5,-3 0.8,-3.2 z M 85.7,62 C 81.5,75.4 77.4,80.5 69.8,86.7 65.6,90.2 55.5,97 51.3,97 47.4,97 38.1,93.5 32.3,89.1 30.4,87.7 26.7,84.5 23,80.3 c 4.9,1 9.8,1.5 14.8,1.5 0.9,0 1.9,0 2.8,-0.1 0.6,0 1,-0.5 1,-1 0,-0.6 -0.5,-1 -1,-1 -6.6,0.2 -13.2,-0.4 -19.7,-2 -3.2,-3.9 -6.2,-8.4 -7.6,-12.9 -2.1,-6.5 -3.5,-12 -4.1,-17.6 0.2,0 0.5,0.1 0.7,0.1 3.9,0.8 9.9,2 13.9,2.3 0,0 0,0 0.1,0 0.5,0 1,-0.4 1,-0.9 0,-0.6 -0.4,-1 -0.9,-1.1 C 20.2,47.3 14.1,46.1 10.4,45.4 9.9,45.3 9.5,45.2 9.1,45.1 8.7,40.3 8.9,35.3 9.4,29.4 c 0.5,-4.7 2.1,-8.5 4.4,-11.5 4.8,2.4 18,5.8 28.7,5.9 0,0 0,0 0,0 0.5,0 1,-0.4 1,-1 0,-0.6 -0.4,-1 -1,-1 -10.6,-0.1 -22.9,-3.4 -27.4,-5.5 4.4,-4.8 10.4,-7.1 14.5,-7.8 1.5,-0.2 3,-0.2 4.5,-0.2 1.3,0 2.6,0.1 4,0.2 0.1,0 0.1,0 0.2,0 0,0 0,0 0.1,0 0,0 0,0 0.1,0 0.5,0 0.9,0.1 1.4,0.1 6.2,0.6 12.7,0.5 19.1,0 0,0 0,0 0,0 7.9,-0.6 14.4,1.4 19.4,6 -2.4,0.9 -4.9,1.5 -7.4,2 -0.5,0.1 -0.9,0.6 -0.8,1.2 0.1,0.5 0.5,0.8 1,0.8 0.1,0 0.1,0 0.2,0 2.9,-0.6 5.8,-1.4 8.6,-2.4 2.3,2.5 4.2,5.6 5.8,9.2 1.6,3.9 2.6,8.1 3,12.5 -5.5,1.7 -11.3,2.8 -17,3.2 -0.6,0 -1,0.5 -0.9,1.1 0,0.5 0.5,0.9 1,0.9 0,0 0,0 0.1,0 5.8,-0.4 11.5,-1.5 17,-3.1 0.2,6.7 -0.8,14.1 -3.3,22 z"
       id="path17896" /><path
       d="m 64.4,53.1 c -6,1.4 -20.3,1.5 -23.1,1.2 -0.6,-0.1 -1,0.3 -1.1,0.9 -0.1,0.5 0.3,1 0.9,1.1 0.8,0.1 2.5,0.2 4.7,0.2 5.7,0 14.5,-0.4 19,-1.4 0.5,-0.1 0.9,-0.7 0.8,-1.2 -0.2,-0.6 -0.7,-0.9 -1.2,-0.8 z"
       id="path17898" /><path
       d="m 45.9,64.4 c -7.4,0 -14.7,-0.9 -21.9,-2.7 -0.5,-0.1 -1.1,0.2 -1.2,0.7 -0.1,0.5 0.2,1.1 0.7,1.2 7.3,1.8 14.8,2.7 22.3,2.7 0,0 0,0 0,0 0.6,0 1,-0.4 1,-1 0.1,-0.4 -0.4,-0.9 -0.9,-0.9 z"
       id="path17900" /><path
       d="m 29.9,37.1 c 6.1,1.1 12.2,1.6 18.4,1.6 0.9,0 1.8,0 2.7,0 0.6,0 1,-0.5 1,-1 0,-0.5 -0.5,-1 -1,-1 0,0 0,0 0,0 -6.9,0.2 -13.9,-0.3 -20.7,-1.6 -0.5,-0.1 -1.1,0.3 -1.2,0.8 -0.1,0.6 0.3,1.1 0.8,1.2 z"
       id="path17902" /><path
       d="m 60,31.4 c 7.8,0 14.6,-0.9 19.1,-2.4 0.5,-0.2 0.8,-0.7 0.6,-1.3 -0.2,-0.5 -0.7,-0.8 -1.3,-0.6 -4.3,1.5 -10.9,2.3 -18.5,2.3 -0.6,0 -1,0.4 -1,1 0,0.6 0.5,1 1.1,1 z"
       id="path17904" /><path
       d="m 77.8,67.6 h -0.2 c -6.1,1.4 -12,2.8 -20.1,2.8 -0.6,0 -1,0.4 -1,1 0,0.6 0.4,1 1,1 8.4,0 14.6,-1.4 20.6,-2.8 h 0.2 c 0.5,-0.1 0.9,-0.7 0.7,-1.2 -0.2,-0.6 -0.7,-0.9 -1.2,-0.8 z"
       id="path17906" /><path
       d="m 62.1,85.3 c -4.5,1.2 -9.2,1.8 -13.9,1.6 -0.6,0 -1,0.4 -1,1 0,0.6 0.4,1 1,1 0.6,0 1.2,0 1.7,0 4.3,0 8.6,-0.6 12.8,-1.7 0.5,-0.1 0.8,-0.7 0.7,-1.2 -0.2,-0.6 -0.7,-0.9 -1.3,-0.7 z"
       id="path17908" /></g><path
     style="fill:url(#linearGradient18575);fill-opacity:1;stroke-width:0.150024"
     d="m 35.557337,14.245365 c -2.430373,-0.05576 -4.860719,0.296658 -7.121762,1.214686 -3.616649,1.314475 -7.085383,3.31098 -9.632329,6.23174 -0.151395,0.561148 0.825757,0.545893 1.148967,0.783735 7.837098,2.857327 16.139702,4.300951 24.456563,4.708271 0.640646,-0.119541 1.296945,0.509357 0.906886,1.121373 -0.578424,0.962334 -1.8958,0.394262 -2.779239,0.470564 -7.755967,-0.530164 -15.500597,-1.909198 -22.822406,-4.576347 -0.789131,-0.243632 -1.551259,-0.765457 -2.348016,-0.839454 -2.898573,3.692203 -4.091324,8.424808 -4.335763,13.044796 -0.249639,4.211996 -0.273422,8.444979 -0.122188,12.658015 1.167708,0.52076 2.562605,0.556403 3.817283,0.863187 3.461843,0.661472 6.99233,1.162586 10.450271,1.68459 0.814235,0.132747 0.938863,1.345203 0.115448,1.548885 -2.725363,0.05308 -5.403927,-0.643371 -8.089022,-1.045347 -2.002389,-0.279667 -3.982908,-0.901646 -5.996861,-1.012213 -0.321952,0.669773 0.09694,1.535413 0.111321,2.258366 1.021777,5.869796 2.438521,11.716924 4.735463,17.227222 1.50363,3.431885 3.724005,6.505524 6.073937,9.391176 6.133543,1.526323 12.474122,2.006551 18.778247,2.008335 0.974069,-0.04698 0.881789,1.547717 -0.02257,1.572618 -5.405065,0.269339 -10.811859,-0.20296 -16.137291,-1.111118 -0.685103,0.01799 -0.08207,0.711989 0.186066,0.913333 3.563999,3.639643 7.199728,7.333785 11.706321,9.810222 4.109413,2.30084 8.525907,4.232795 13.196555,5.004978 3.255293,0.274198 6.170699,-1.583601 8.936122,-3.036528 5.851858,-3.418672 11.414847,-7.490946 15.949173,-12.559269 5.281232,-6.10828 7.881854,-13.953596 9.984529,-21.613324 1.45786,-5.453787 2.029451,-11.147873 1.925415,-16.763911 -3.253362,0.833982 -6.570962,1.632595 -9.911939,2.15363 -2.203098,0.304325 -4.423895,0.780759 -6.652862,0.646436 -0.79777,-0.346483 -0.586924,-1.658014 0.327299,-1.645874 5.274537,-0.359691 10.513389,-1.357933 15.57675,-2.876835 0.850294,-0.150708 0.274461,-1.243519 0.325248,-1.794433 -0.744985,-5.671373 -2.528787,-11.277385 -5.831904,-15.994885 -0.74847,-1.062913 -1.464687,-2.251725 -2.485073,-3.037115 -2.691961,0.922834 -5.450854,1.764808 -8.241964,2.253003 -0.895382,0.05059 -1.132952,-1.452284 -0.222107,-1.576427 2.353469,-0.759357 4.862488,-1.112276 7.133192,-2.068404 C 77.39044,18.955295 75.73981,17.891853 74.116681,17.00149 69.409747,14.472787 63.903579,14.096976 58.674568,14.58878 52.50667,14.939657 46.311891,14.857204 40.159495,14.343036 38.62679,14.267156 37.091911,14.231995 35.557333,14.245366 Z m 43.527292,17.921174 c 0.762371,0.04821 0.888451,1.286872 0.133615,1.497901 -3.641521,1.387232 -7.585719,1.747477 -11.437297,2.102048 -2.314425,0.101364 -4.648671,0.435914 -6.96003,0.184358 -0.879073,-0.104187 -0.750044,-1.748145 0.197201,-1.566757 5.555351,-0.27954 11.236846,-0.351866 16.626628,-1.952954 0.473442,-0.114176 0.949166,-0.258884 1.439883,-0.264596 z M 33.033001,39.72695 c 6.351977,1.19518 12.823354,1.528758 19.275746,1.601441 0.866541,-0.340761 1.640033,0.937782 0.769213,1.44124 -1.500174,0.382948 -3.11748,0.08194 -4.659444,0.149736 -5.305612,-0.122428 -10.634602,-0.507863 -15.83588,-1.586688 -0.926138,-0.271098 -0.427333,-1.731058 0.450365,-1.605729 z m 32.589576,17.064395 c 0.937891,0.07774 0.897497,1.648204 -0.08586,1.638547 -4.967987,1.020237 -10.063007,1.164807 -15.122825,1.246909 -2.404941,-0.0453 -4.844333,0.205378 -7.228758,-0.162455 -0.669779,-0.02781 -0.837349,-1.064518 -0.3818,-1.399153 2.317576,-0.37893 4.714209,-0.0717 7.064026,-0.176667 5.165869,-0.0068 10.337563,-0.310894 15.438753,-1.145423 0.105217,-0.0069 0.211241,-0.01219 0.316458,-0.0018 z m -38.691056,8.117432 c 5.189744,1.039134 10.409347,2.09417 15.714534,2.335115 1.873092,0.193166 3.809318,-0.03976 5.641673,0.379096 0.835874,0.616057 -0.336903,1.717816 -1.103208,1.429042 -6.820878,-0.06927 -13.643702,-0.905736 -20.26384,-2.542504 -0.769556,-0.01714 -1.20535,-1.144307 -0.474687,-1.518411 0.152321,-0.06601 0.320878,-0.0845 0.485528,-0.08234 z m 51.21692,5.588117 c 0.932106,-0.171156 1.241238,1.443009 0.300927,1.604557 -4.278282,1.104483 -8.653505,1.856085 -13.039691,2.380472 -2.372613,0.160167 -4.813371,0.419928 -7.161737,0.143571 -0.702852,-0.528032 -0.03104,-1.740674 0.803158,-1.518118 6.304105,0.07073 12.5103,-1.313907 18.633791,-2.571219 0.153771,-0.02034 0.308386,-0.0359 0.463552,-0.03927 z M 63.53249,87.213184 c 0.992754,-0.0186 0.915242,1.675997 -0.0841,1.652026 -4.473863,1.087817 -9.093003,1.760328 -13.702911,1.415855 -0.833965,-0.03541 -0.7554,-1.548356 0.117499,-1.451895 3.400237,-0.27981 6.862272,-0.176491 10.218824,-0.939921 1.15383,-0.196238 2.276819,-0.61571 3.450682,-0.676065 z"
     id="path18181" /><path
     style="fill:#006d00;fill-opacity:1;stroke-width:0.150024"
     d="m 44.20308,9.3007134 c -0.90289,-0.039932 -2.156729,0.1086024 -2.332704,1.2066416 -0.171071,0.783263 -0.328277,1.608802 -0.317044,2.396288 4.066357,0.208072 8.168222,0.312979 12.248964,0.189875 0.235699,-0.736259 -0.365996,-1.76093 -0.454438,-2.60631 C 52.872281,9.9782531 51.887507,10.154198 51.213113,9.9194406 48.901116,9.481186 46.558257,9.2375956 44.20308,9.3007134 Z"
     id="path19303" /></svg>
