<?xml version="1.0" encoding="UTF-8" standalone="no"?>
<svg
   version="1.1"
   x="0px"
   y="0px"
   viewBox="0 0 100 125"
   style="enable-background:new 0 0 100 100;"
   xml:space="preserve"
   id="svg17916"
   sodipodi:docname="swede.svg"
   inkscape:version="1.2.2 (b0a8486541, 2022-12-01)"
   xmlns:inkscape="http://www.inkscape.org/namespaces/inkscape"
   xmlns:sodipodi="http://sodipodi.sourceforge.net/DTD/sodipodi-0.dtd"
   xmlns:xlink="http://www.w3.org/1999/xlink"
   xmlns="http://www.w3.org/2000/svg"
   xmlns:svg="http://www.w3.org/2000/svg"><defs
     id="defs17920"><linearGradient
       inkscape:collect="always"
       id="linearGradient18573"><stop
         style="stop-color:#d3bc5f;stop-opacity:1;"
         offset="0"
         id="stop18569" /><stop
         style="stop-color:#554176;stop-opacity:1;"
         offset="1"
         id="stop18571" /></linearGradient><inkscape:path-effect
       effect="fill_between_many"
       method="originald"
       linkedpaths="#g17910,0,1|"
       id="path-effect18039" /><linearGradient
       inkscape:collect="always"
       xlink:href="#linearGradient18573"
       id="linearGradient18575"
       x1="24.673176"
       y1="55.044941"
       x2="25.708399"
       y2="28.991293"
       gradientUnits="userSpaceOnUse" /></defs><sodipodi:namedview
     id="namedview17918"
     pagecolor="#ffffff"
     bordercolor="#000000"
     borderopacity="0.25"
     inkscape:showpageshadow="2"
     inkscape:pageopacity="0.0"
     inkscape:pagecheckerboard="0"
     inkscape:deskcolor="#d1d1d1"
     showgrid="false"
     inkscape:zoom="6.304"
     inkscape:cx="50.047589"
     inkscape:cy="62.5"
     inkscape:window-width="1857"
     inkscape:window-height="1011"
     inkscape:window-x="0"
     inkscape:window-y="0"
     inkscape:window-maximized="1"
     inkscape:current-layer="svg17916" /><path
     inkscape:original-d="M 0,0"
     inkscape:path-effect="#path-effect18039"
     d="M 0,0"
     id="path18041"
     class="UnoptimicedTransforms"
     style="fill:#d3bc5f" /><g
     id="g17910"
     class="UnoptimicedTransforms"><path
       d="M90.9,38.7c0-0.1,0-0.3,0-0.4c0,0,0,0,0,0c-0.4-4.9-1.4-9.4-3.2-13.7c-5.4-12.9-15.3-19.1-28.7-18c-1.5,0.1-3,0.2-4.5,0.3   L53.3,3c-0.1-0.4-0.4-0.6-0.7-0.7c-1.8-0.4-11-2.4-13.7-0.5c-1,0.7-1.4,3-1.6,4.7c-2.7-0.2-5.3-0.1-8,0.1C21.8,7.8,8.8,14,7.3,29.3   c-1.4,13.9-0.4,23,4,36.3c3.6,11,15.8,22.1,19.8,25.1C36.7,95,46.5,99,51.3,99c5.5,0,17.2-8.6,19.8-10.7   c7.9-6.5,12.2-11.8,16.5-25.7C90.3,54,91.4,46,90.9,38.7z M40.1,3.5c1.4-1,7.3-0.2,11.5,0.7L52.3,7C48.2,7.1,44,7,39.9,6.8   c-0.2,0-0.4,0-0.6-0.1C39.5,5.2,39.8,3.7,40.1,3.5z M85.7,62c-4.2,13.4-8.3,18.5-15.9,24.7C65.6,90.2,55.5,97,51.3,97   c-3.9,0-13.2-3.5-19-7.9c-1.9-1.4-5.6-4.6-9.3-8.8c4.9,1,9.8,1.5,14.8,1.5c0.9,0,1.9,0,2.8-0.1c0.6,0,1-0.5,1-1c0-0.6-0.5-1-1-1   c-6.6,0.2-13.2-0.4-19.7-2c-3.2-3.9-6.2-8.4-7.6-12.9c-2.1-6.5-3.5-12-4.1-17.6c0.2,0,0.5,0.1,0.7,0.1c3.9,0.8,9.9,2,13.9,2.3   c0,0,0,0,0.1,0c0.5,0,1-0.4,1-0.9c0-0.6-0.4-1-0.9-1.1c-3.8-0.3-9.9-1.5-13.6-2.2c-0.5-0.1-0.9-0.2-1.3-0.3   c-0.4-4.8-0.2-9.8,0.3-15.7c0.5-4.7,2.1-8.5,4.4-11.5c4.8,2.4,18,5.8,28.7,5.9c0,0,0,0,0,0c0.5,0,1-0.4,1-1c0-0.6-0.4-1-1-1   c-10.6-0.1-22.9-3.4-27.4-5.5c4.4-4.8,10.4-7.1,14.5-7.8c1.5-0.2,3-0.2,4.5-0.2c1.3,0,2.6,0.1,4,0.2c0.1,0,0.1,0,0.2,0   c0,0,0,0,0.1,0c0,0,0,0,0.1,0c0.5,0,0.9,0.1,1.4,0.1C46.1,9.2,52.6,9.1,59,8.6c0,0,0,0,0,0C66.9,8,73.4,10,78.4,14.6   c-2.4,0.9-4.9,1.5-7.4,2c-0.5,0.1-0.9,0.6-0.8,1.2c0.1,0.5,0.5,0.8,1,0.8c0.1,0,0.1,0,0.2,0c2.9-0.6,5.8-1.4,8.6-2.4   c2.3,2.5,4.2,5.6,5.8,9.2c1.6,3.9,2.6,8.1,3,12.5c-5.5,1.7-11.3,2.8-17,3.2c-0.6,0-1,0.5-0.9,1.1c0,0.5,0.5,0.9,1,0.9   c0,0,0,0,0.1,0c5.8-0.4,11.5-1.5,17-3.1C89.2,46.7,88.2,54.1,85.7,62z"
       id="path17896" /><path
       d="M64.4,53.1c-6,1.4-20.3,1.5-23.1,1.2c-0.6-0.1-1,0.3-1.1,0.9c-0.1,0.5,0.3,1,0.9,1.1c0.8,0.1,2.5,0.2,4.7,0.2   c5.7,0,14.5-0.4,19-1.4c0.5-0.1,0.9-0.7,0.8-1.2C65.4,53.3,64.9,53,64.4,53.1z"
       id="path17898" /><path
       d="M45.9,64.4c-7.4,0-14.7-0.9-21.9-2.7c-0.5-0.1-1.1,0.2-1.2,0.7c-0.1,0.5,0.2,1.1,0.7,1.2c7.3,1.8,14.8,2.7,22.3,2.7   c0,0,0,0,0,0c0.6,0,1-0.4,1-1C46.9,64.9,46.4,64.4,45.9,64.4z"
       id="path17900" /><path
       d="M29.9,37.1c6.1,1.1,12.2,1.6,18.4,1.6c0.9,0,1.8,0,2.7,0c0.6,0,1-0.5,1-1c0-0.5-0.5-1-1-1c0,0,0,0,0,0   c-6.9,0.2-13.9-0.3-20.7-1.6c-0.5-0.1-1.1,0.3-1.2,0.8C29,36.5,29.4,37,29.9,37.1z"
       id="path17902" /><path
       d="M60,31.4c7.8,0,14.6-0.9,19.1-2.4c0.5-0.2,0.8-0.7,0.6-1.3c-0.2-0.5-0.7-0.8-1.3-0.6c-4.3,1.5-10.9,2.3-18.5,2.3   c-0.6,0-1,0.4-1,1S59.4,31.4,60,31.4z"
       id="path17904" /><path
       d="M77.8,67.6l-0.2,0c-6.1,1.4-12,2.8-20.1,2.8c-0.6,0-1,0.4-1,1s0.4,1,1,1c8.4,0,14.6-1.4,20.6-2.8l0.2,0   c0.5-0.1,0.9-0.7,0.7-1.2C78.8,67.8,78.3,67.5,77.8,67.6z"
       id="path17906" /><path
       d="M62.1,85.3c-4.5,1.2-9.2,1.8-13.9,1.6c-0.6,0-1,0.4-1,1c0,0.6,0.4,1,1,1c0.6,0,1.2,0,1.7,0c4.3,0,8.6-0.6,12.8-1.7   c0.5-0.1,0.8-0.7,0.7-1.2C63.2,85.4,62.7,85.1,62.1,85.3z"
       id="path17908" /></g><path
     style="fill:url(#linearGradient18575);stroke-width:0.158629;fill-opacity:1"
     d="m 32.934508,8.2682498 c -2.569774,-0.05896 -5.139519,0.3136738 -7.53025,1.2843571 -3.824092,1.3898701 -7.491784,3.5008901 -10.184817,6.5891781 -0.160079,0.593334 0.87312,0.577204 1.214869,0.828689 8.286616,3.021216 17.065438,4.547643 25.859335,4.978326 0.677392,-0.126397 1.371334,0.538573 0.958903,1.185693 -0.611601,1.017531 -2.004539,0.416875 -2.93865,0.497554 C 32.113066,23.071474 23.924222,21.613342 16.182451,18.793211 15.348058,18.535605 14.542216,17.983849 13.699759,17.905608 10.63493,21.809587 9.3737661,26.813644 9.1153063,31.698623 8.8513488,36.15221 8.826202,40.627987 8.98611,45.082673 c 1.234685,0.55063 2.70959,0.588317 4.036233,0.912697 3.660407,0.699413 7.393394,1.22927 11.049675,1.781215 0.860937,0.140361 0.992714,1.42236 0.12207,1.637725 -2.881684,0.05612 -5.713884,-0.680273 -8.55299,-1.105306 -2.117241,-0.295708 -4.211358,-0.953362 -6.3408273,-1.070271 -0.3404179,0.70819 0.1025002,1.623481 0.1177069,2.387901 1.0803834,6.206474 2.5783884,12.38898 5.0070774,18.215336 1.589875,3.62873 3.937606,6.878665 6.422324,9.929832 6.485349,1.613869 13.189609,2.121642 19.855324,2.123528 1.02994,-0.04967 0.932367,1.636491 -0.02386,1.66282 -5.715087,0.284788 -11.432002,-0.214601 -17.062889,-1.174849 -0.724399,0.01902 -0.08678,0.752827 0.196738,0.965719 3.768422,3.848405 7.612688,7.754435 12.377769,10.372914 4.345119,2.432811 9.014933,4.475579 13.953479,5.292052 3.442009,0.289926 6.524636,-1.674433 9.448677,-3.210696 6.187507,-3.614759 12.069576,-7.920609 16.863981,-13.27964 5.584151,-6.458637 8.333939,-14.753942 10.557218,-22.853014 1.54148,-5.766604 2.145856,-11.787289 2.035853,-17.72545 -3.439968,0.881817 -6.947857,1.726237 -10.480465,2.277157 -2.329463,0.32178 -4.677639,0.825541 -7.034455,0.683514 -0.843528,-0.366357 -0.620589,-1.753114 0.346072,-1.740278 5.577072,-0.380322 11.116413,-1.43582 16.470197,-3.041843 0.899065,-0.159353 0.290203,-1.314845 0.343903,-1.897358 -0.787715,-5.99667 -2.673832,-11.92423 -6.166408,-16.912314 -0.791401,-1.12388 -1.548699,-2.380879 -2.627611,-3.211317 -2.846366,0.975765 -5.763503,1.866033 -8.714705,2.38223 -0.946739,0.05349 -1.197935,-1.535584 -0.234846,-1.666848 2.488459,-0.802911 5.141389,-1.176073 7.542335,-2.187042 C 77.167065,13.24833 75.421759,12.123892 73.705531,11.18246 68.728618,8.5087155 62.906629,8.1113495 57.377694,8.6313625 50.85602,9.0023649 44.305922,8.915182 37.800639,8.3715222 36.180022,8.2912854 34.557105,8.2541124 32.934508,8.2682498 Z M 78.958425,27.217341 c 0.806099,0.05098 0.93941,1.360684 0.141278,1.583817 -3.85039,1.4668 -8.020818,1.847708 -12.093313,2.222616 -2.447175,0.107178 -4.915308,0.460917 -7.359242,0.194933 -0.929494,-0.110163 -0.793065,-1.848415 0.208512,-1.656623 5.873993,-0.295574 11.881366,-0.372048 17.580293,-2.064971 0.500598,-0.120725 1.003608,-0.273733 1.522472,-0.279772 z m -48.693043,7.994058 c 6.716311,1.263733 13.558872,1.616444 20.381358,1.693296 0.916244,-0.360306 1.734101,0.991571 0.813333,1.523907 -1.58622,0.404913 -3.296291,0.08664 -4.926699,0.158324 -5.60993,-0.12945 -11.244578,-0.536993 -16.744189,-1.677697 -0.97926,-0.286647 -0.451844,-1.830347 0.476197,-1.69783 z m 34.458838,18.04317 c 0.991687,0.0822 0.948976,1.742741 -0.09078,1.73253 -5.252939,1.078756 -10.640198,1.231618 -15.990235,1.318429 -2.542883,-0.0479 -5.122193,0.217158 -7.643383,-0.171773 -0.708196,-0.0294 -0.885378,-1.125576 -0.403699,-1.479405 2.450506,-0.400665 4.984605,-0.07581 7.469202,-0.186801 5.462171,-0.0072 10.930501,-0.328726 16.324284,-1.211121 0.111252,-0.0073 0.223357,-0.01289 0.334609,-0.0019 z m -40.910285,8.583029 c 5.487415,1.098736 11.006403,2.214287 16.615883,2.469052 1.980528,0.204245 4.027812,-0.04204 5.965266,0.40084 0.883818,0.651392 -0.356226,1.816346 -1.166485,1.511008 -7.212108,-0.07324 -14.426273,-0.957687 -21.426127,-2.688336 -0.813696,-0.01812 -1.274486,-1.209942 -0.501914,-1.605503 0.161058,-0.0698 0.339283,-0.08935 0.513377,-0.08706 z m 54.154604,5.908638 c 0.98557,-0.180973 1.312433,1.525777 0.318188,1.696591 -4.523675,1.167834 -9.14985,1.962546 -13.787618,2.517011 -2.508701,0.169353 -5.089455,0.444014 -7.572518,0.151805 -0.743166,-0.558318 -0.03282,-1.840515 0.849226,-1.605193 6.665693,0.07479 13.227862,-1.38927 19.702582,-2.718699 0.162591,-0.02151 0.326074,-0.03796 0.49014,-0.04152 z M 62.514251,85.421334 c 1.049696,-0.01967 0.967738,1.772129 -0.08892,1.746783 -4.730473,1.150211 -9.614556,1.861296 -14.488878,1.497065 -0.881799,-0.03744 -0.798728,-1.637166 0.124238,-1.535172 3.595267,-0.29586 7.255876,-0.186615 10.804953,-0.993833 1.220011,-0.207494 2.407412,-0.651026 3.648605,-0.714843 z"
     id="path18181" /><path
     style="fill:#006d00;stroke-width:0.158629;fill-opacity:1"
     d="M 42.07615,3.0399845 C 41.121473,2.9977624 39.795716,3.1548161 39.609648,4.3158362 39.428765,5.1440246 39.262542,6.0169148 39.274419,6.8495698 43.574013,7.069576 47.911151,7.1805003 52.225955,7.050335 52.475174,6.2718461 51.838967,5.1884021 51.745452,4.294534 51.242597,3.7563864 50.201338,3.942423 49.488263,3.6942005 47.043655,3.2308086 44.566415,2.9732464 42.07615,3.0399845 Z"
     id="path19303" /></svg>
