<?xml version="1.0" encoding="UTF-8" standalone="no"?>
<svg
   version="1.1"
   viewBox="-5.0 -10.0 110.0 135.0"
   id="svg31644"
   sodipodi:docname="sweetcorn.svg"
   inkscape:version="1.2.2 (b0a8486541, 2022-12-01)"
   xmlns:inkscape="http://www.inkscape.org/namespaces/inkscape"
   xmlns:sodipodi="http://sodipodi.sourceforge.net/DTD/sodipodi-0.dtd"
   xmlns="http://www.w3.org/2000/svg"
   xmlns:svg="http://www.w3.org/2000/svg">
  <defs
     id="defs31648" />
  <sodipodi:namedview
     id="namedview31646"
     pagecolor="#ffffff"
     bordercolor="#000000"
     borderopacity="0.25"
     inkscape:showpageshadow="2"
     inkscape:pageopacity="0.0"
     inkscape:pagecheckerboard="0"
     inkscape:deskcolor="#d1d1d1"
     showgrid="false"
     inkscape:zoom="5.0756995"
     inkscape:cx="59.794714"
     inkscape:cy="71.320219"
     inkscape:window-width="1857"
     inkscape:window-height="1011"
     inkscape:window-x="0"
     inkscape:window-y="0"
     inkscape:window-maximized="1"
     inkscape:current-layer="svg31644" />
  <path
     d="m 78.706289,47.026367 c -1.139747,-1.410931 -5.34732,1.912988 -7.320464,3.896158 0.532212,-8.897077 5.59835,-35.070825 6.115447,-36.919161 0.125523,-0.512136 -0.471968,-0.96904 -0.933885,-0.702933 -4.041789,2.159006 -7.38576,4.503744 -10.182428,6.923804 -0.11046,-0.0954 -0.220927,-0.19581 -0.341417,-0.271132 0.848539,-1.64178 0.331378,-4.182406 -1.35566,-5.056059 0.908783,-1.742295 0.301262,-3.841018 -0.868615,-4.870327 C 63.588303,9.8258804 63.297093,9.6802757 62.98078,9.5647869 64.020104,8.304538 63.151488,5.4827664 61.529747,5.1263384 c 0.57238,-1.5715998 -0.276144,-3.780734 -2.169031,-3.6903737 0.702933,-2.6560511 -1.059413,-3.5246919 -2.912094,-3.4041259 -0.02008,-2.0586195 -1.923014,-2.2041213 -3.464408,-1.4460208 -0.813384,-0.3866081 -1.792423,-0.3815953 -2.580729,-0.020084 -1.641781,-0.984091 -4.061969,-0.4669426 -3.715438,1.7372816 -0.778243,-0.050208 -1.531369,0.015064 -2.018388,0.1807462 -1.205018,0.3715439 -1.651935,2.18908275 -1.134723,3.2534826 -1.30039,0.085357 -2.169031,1.3556607 -2.108747,2.656051 C 39.161784,1.245212 31.409442,-7.6618907 31.042988,-4.5188198 32.494022,7.7573186 31.620393,14.716471 31.238799,24.180516 29.627096,21.047472 22.226297,13.335361 22.477326,16.679331 c 3.765695,10.845157 5.588324,29.638929 6.627531,42.827924 1.355661,17.151736 4.483693,27.650489 15.635021,30.476978 -0.828448,1.275313 -0.241004,3.198341 1.174888,3.871094 v 8.058513 c 0,0.6477 0.567367,0.97405 1.682012,0.97405 2.048594,0 9.891168,-1.46607 9.891168,-3.906309 v -5.066086 c 0.813383,-1.019246 1.08954,-2.666078 0.758151,-3.876108 11.62845,-3.037672 13.309818,-14.902369 14.816251,-25.596496 0.979079,-6.94887 1.902963,-13.516761 5.482796,-16.669729 0.210876,-0.185771 0.276146,-0.492045 0.16067,-0.753139 z m -4.528808,5.513002 C 71.36076,59.72937 66.846991,67.943026 62.197615,74.490608 58.898889,79.009391 55.05286,84.311468 50.23279,87.088085 52.823545,80.309911 56.569189,73.787264 60.395039,67.56616 64.65778,61.00881 69.613453,53.105953 75.969647,48.812877 c -0.728036,1.084516 -1.305403,2.349752 -1.787411,3.725464 z M 71.79251,64.268205 c -1.772371,15.258412 -5.538067,26.439688 -22.137614,25.149194 -0.01506,-0.190797 0.03514,-0.482007 0.08535,-0.702933 4.538834,-2.003349 7.807485,-6.170717 10.90544,-9.971503 4.548989,-5.884468 8.590777,-12.466884 11.839247,-19.129892 -0.251042,1.511317 -0.471968,3.06775 -0.692882,4.649376 z M 56.850295,92.506099 c -0.170707,0.44184 -0.406698,0.743088 -0.707946,0.94895 -1.526355,0.858577 -6.713007,0.220927 -8.93718,-0.461929 -1.104606,-0.165695 -2.008362,-1.430982 -1.325454,-2.400009 1.109618,-0.361505 2.219288,0.08033 3.3941,0.08535 2.560678,0.190797 5.317114,0.15063 7.727149,-0.346441 0.200836,0.63765 0.120502,1.496278 -0.145604,2.174044 z m -0.642676,6.472004 c -1.692036,1.827637 -7.892832,2.771477 -9.002476,2.620957 v -7.295396 c 2.405022,0.637651 6.42676,1.210043 9.002476,0.497072 z M 24.294903,18.116618 c 5.287039,3.780734 10.061863,13.998767 11.307112,21.419104 0.984092,4.232664 1.174889,8.716228 1.923015,13.009046 1.777385,10.558908 6.37149,20.802134 14.083601,28.27774 -0.813385,1.692038 -1.491266,3.168136 -2.14898,4.835109 C 36.043147,78.497821 31.385033,64.454452 29.275771,47.052073 28.216358,36.884683 26.680002,25.92346 24.295032,18.111092 Z m 8.455174,1.435995 c 0.351466,-6.351437 0.748113,-13.5064769 -0.276146,-22.8856893 2.389984,1.7221144 5.412488,5.0811244 8.500417,9.2937366 -1.014219,0.8184092 -1.546406,2.7012954 -0.893717,3.8007854 -0.120502,0.030125 -0.246029,0.060251 -0.35648,0.1054382 -2.048594,0.8184091 -2.279443,3.4894741 -1.325454,5.3573471 -1.782398,0.617573 -2.23934,3.670322 -1.049374,5.206703 -2.09371,0.843512 -2.49037,4.594105 -0.853551,6.050152 -1.988311,1.441008 -2.00335,4.945648 -0.05524,6.426757 -0.411711,0.140592 -0.712972,0.446866 -0.984091,0.79832 -0.883679,-2.841784 -1.902963,-5.271999 -2.982402,-7.35067 0.03514,-2.148979 0.145605,-4.373153 0.28117,-6.808381 z M 43.344204,3.0988243 c 0.617572,-0.2309649 1.591651,-0.2108748 2.279442,0.05021 C 45.016112,3.927276 44.955868,5.0620232 45.282231,5.9807927 44.333282,6.0008777 43.374255,5.6795448 42.907287,5.1874864 42.57591,4.6452222 42.57591,3.4904363 43.3441,3.0987896 Z M 44.76516,1.3414913 C 44.514118,0.92978026 44.509092,0.0058822 45.091524,-0.30028861 45.483158,-0.4408804 46.171013,-0.46095759 46.668136,-0.41074914 45.80956,0.57836768 45.859765,1.3165067 46.060602,1.9239639 45.558518,1.8335881 45.041357,1.6678962 44.760211,1.3415453 Z m 3.364022,-3.8861328 c 0.29121,-0.1004182 0.833474,-0.065271 1.220083,0.040167 -0.200836,0.3564795 -0.251043,0.7682034 -0.195811,1.2050173 -0.763178,0.010036 -1.621728,-0.5271998 -1.024272,-1.2451843 z m 4.021738,0.1857719 c 0.592471,0.075314 0.923847,0.7631777 0.63765,1.2652746 -0.577405,0.47698132 -2.706308,0.58241871 -2.359777,-0.6527144 0.2159,-0.6477018 1.129709,-0.7732163 1.722115,-0.6175731 z m 2.81672,-0.1757333 c 0.190798,0.1255236 0.251042,0.6677789 0.140593,0.938911 -0.04519,0.095398 -0.532214,0.3263637 -0.94895,0.3514666 0.05021,-0.3916338 0,-0.8033449 -0.175734,-1.1799144 0.396647,-0.1104605 0.833474,-0.1707077 0.984091,-0.1104605 z m 2.882017,2.07867103 c 0.401672,0.27113212 0.502084,0.77824199 0.316312,1.45103371 -0.185773,0.42174966 -0.778243,0.67781746 -1.265262,0.79330626 0.185772,-0.87364076 -0.185772,-1.90296337 -0.878654,-2.40000893 0.697908,-0.16066894 1.405917,-0.12552231 1.827641,0.15564325 z m 1.928027,3.24846977 c 0.627612,0.1255223 0.763178,1.5163296 0.5272,1.9732721 -0.401673,0.6627532 -1.174888,0.9991554 -2.284456,1.0744771 0.210875,-0.9238467 -0.03013,-1.8727577 -0.758152,-2.821733 0.75314,-0.3062736 1.872757,-0.4167367 2.515434,-0.2259391 z m 2.209263,5.9748296 C 61.344271,9.6761497 59.832954,10.208375 58.748503,9.992462 58.874025,9.1138083 58.713362,8.07446 58.271522,7.2610892 c 0.03013,-0.065271 0.06527,-0.1205016 0.125522,-0.1656946 0.798319,-0.080335 1.666973,-0.3414152 2.309648,-0.8384865 1.119658,-0.1104594 1.772372,1.6769986 1.285353,2.5054079 z m 3.891145,12.7932355 c 2.138954,3.605027 -2.51042,4.995777 -5.277011,4.353101 0.49707,-1.340622 0.271132,-3.107981 -0.687869,-4.197444 1.651934,0.522173 3.936389,0.246029 5.277011,-0.748114 0.301261,0.105436 0.492046,0.296235 0.687869,0.587444 z m 10.082043,-6.456837 c -1.64178,7.682034 -5.196677,26.480819 -6.010048,37.31505 -0.597483,0.652715 -1.205018,1.33561 -1.812603,2.068645 0.05021,-1.139747 -0.261081,-2.274429 -1.004181,-3.082788 1.93304,-1.486123 1.902963,-5.036008 0.165695,-6.823419 1.827641,-1.405917 1.857718,-4.89539 -0.05523,-6.456836 1.912989,-1.395764 1.722114,-5.000789 -0.005,-6.341411 1.802449,-1.466073 1.16485,-4.920457 -0.386608,-6.180743 1.029285,-0.979079 1.044348,-3.002454 0.336402,-4.328038 2.460292,-2.143966 5.337167,-4.222637 8.781524,-6.165703 z M 42.269778,6.7088764 c 0.130541,-0.035147 0.271132,-0.060251 0.426775,-0.080335 0.738075,0.4518784 1.671986,0.6276116 2.490369,0.6477017 -0.833473,0.8234221 -1.174888,2.1991085 -0.753139,3.3087529 -1.571599,0.07029 -4.051814,-0.8836796 -3.178289,-2.8569518 0.235978,-0.5121356 0.512135,-0.9188208 1.014219,-1.0142197 z M 61.595043,63.404461 c -0.341415,-0.05522 -0.622599,-0.145604 -0.873641,-0.26108 0.552303,-1.270288 0.562342,-3.228418 -0.155643,-4.523796 1.310416,0.446865 2.927131,0.411711 4.358114,0 -1.119657,1.526356 -2.254378,3.153096 -3.328804,4.784979 z m -0.913808,1.390751 c -0.04519,-0.08535 -0.08535,-0.170707 -0.135566,-0.251042 0.05021,-0.02008 0.100412,-0.03514 0.150631,-0.05021 0.05021,0.01506 0.105436,0.03013 0.155642,0.04016 -0.05522,0.08535 -0.11548,0.170707 -0.170707,0.256068 z M 47.325144,73.87301 c -0.728037,-1.049375 -1.410931,-2.09371 -2.023401,-3.198341 1.817617,0.512135 3.861068,0.391633 5.618402,-0.426776 0.863601,0.923847 1.024271,2.495382 0.44184,3.549757 -0.788281,0.888704 -2.174045,0.994142 -3.353998,1.034309 -0.251042,-0.306273 -0.466942,-0.632637 -0.687869,-0.958988 z M 41.857386,63.409474 c -0.542251,-1.420956 -1.049375,-2.90708 -1.46106,-4.297959 0.833474,-0.03013 1.687024,-0.135566 2.440112,-0.492046 -0.818409,1.466073 -0.572379,3.464409 0.09038,4.915443 -0.271132,0.110459 -0.587444,0.195811 -0.928873,0.26108 -0.05021,-0.13054 -0.0954,-0.256068 -0.145604,-0.386608 z m -2.676103,-9.138081 c -0.100424,-0.482007 -0.200836,-0.958987 -0.286197,-1.415943 1.169877,0.185772 2.339726,0.205862 3.514667,0 -0.37657,1.330597 -0.261081,3.042685 0.612547,4.202458 -0.853551,0.622599 -1.943067,0.803345 -2.987414,0.758152 -0.331378,-1.16485 -0.617574,-2.415048 -0.858578,-3.544743 z M 36.856596,34.122218 c 0.230965,-0.140591 0.577405,-0.235978 0.958988,-0.311299 1.531368,0.667779 3.474435,0.682843 5.015829,0.120502 0.100423,0.02008 0.220926,0.04017 0.311299,0.06527 -0.918821,1.174888 -1.280326,3.700399 -0.331376,4.995776 -1.983299,0.813383 -4.815057,0.572381 -6.241026,-1.149786 -0.29121,-1.240159 -0.994143,-2.90708 0.286196,-3.715437 z m -0.230965,-2.947312 c -0.707947,-1.104605 -0.341416,-3.369035 0.974053,-3.851042 1.506303,0.838487 3.790759,1.079489 5.397449,0.46193 0.145604,0.07029 0.235978,0.180746 0.326364,0.316311 -0.848539,0.843513 -1.5716,2.565692 -0.617573,4.468655 -1.963118,0.823435 -4.82007,0.627612 -6.080358,-1.395764 z m 1.119657,-9.524714 c 0.200837,-0.100424 0.451878,-0.180746 0.72301,-0.246029 1.265275,0.783268 3.318779,0.969039 4.890379,0.5272 0.005,0.005 0.01,0.005 0.01506,0.01 -1.270288,1.07949 -1.737281,3.198341 -0.888705,4.674439 -1.596664,0.50711 -4.292818,0.175733 -5.372385,-1.39075 -0.612547,-0.873641 -0.381595,-3.03266 0.63765,-3.574821 z m 0.431801,-2.304636 c -0.512135,-1.305403 -0.06527,-2.937285 1.159824,-3.092813 1.064426,0.763177 2.661064,1.164849 4.071995,1.049373 -0.547277,0.938912 -0.707946,2.309649 -0.316312,3.379062 -1.621728,0.416737 -3.976622,0.296235 -4.915442,-1.330596 z m 1.365686,-4.704645 c -0.798319,-1.521343 -0.451878,-3.866081 1.581626,-3.715438 0.858577,0.617573 2.189083,1.009207 3.258623,0.938911 -0.702932,1.16485 -0.85355,2.72636 -0.286196,3.93639 -1.104605,0.542251 -3.735489,0.09038 -4.559014,-1.159824 z M 47.254887,1.4557719 c -0.246029,-1.85270612 2.972375,-1.56144539 3.88112,-0.67781741 0.120502,0.12552232 0.431801,0.45690401 0.01506,1.18492741 -0.105437,0.1556432 -0.22594,0.271132 -0.366532,0.3715437 C 50.071567,2.7963553 49.388775,2.7160209 48.96191,2.6155963 48.289105,2.4599531 47.520902,2.1135122 47.259847,1.4507462 Z M 58.602101,12.958643 c 0.180746,0.903756 0.01506,1.902964 -0.557315,2.595768 -1.380725,1.094554 -3.836005,1.01422 -5.337167,0.120502 0.466943,-1.17489 0.256068,-2.485357 -0.195811,-3.308754 1.586638,0.602509 3.705413,0.29121 5.161459,-0.622585 0.532214,0.110459 0.803345,0.677817 0.928873,1.215055 z m 0.873641,10.669448 c 0.19581,0.928873 0.125523,2.058619 -0.702933,2.641012 -1.732269,1.064426 -4.378166,1.425971 -6.231,0.456905 0.607534,-1.250211 0.622598,-2.756438 -0.135567,-3.941403 0.04017,-0.03514 0.07532,-0.07531 0.115482,-0.110459 1.912988,0.783267 4.323024,0.622599 6.105421,-0.431801 0.441839,0.316312 0.70292,0.848538 0.848538,1.380725 z m 1.892938,3.715438 c 1.5716,0.08535 2.947311,-0.190797 4.378165,-0.91882 0.466943,0.145604 0.893718,0.753139 1.119657,1.59165 1.109619,3.559783 -3.19834,4.599119 -5.693723,3.640118 0.562342,-1.466073 0.416737,-3.233432 -0.622598,-4.428424 0.276144,0.05021 0.552303,0.0954 0.818409,0.11046 z m 4.769812,5.287038 c 1.410931,0.466943 1.48111,3.650143 0.436814,4.383307 -1.365686,0.928873 -3.333946,1.154812 -5.106317,0.974052 0.753139,-1.486123 0.502084,-3.489473 -0.652715,-4.925467 0.07532,-0.03013 0.140592,-0.06025 0.220926,-0.09038 1.596664,0.5272 3.459396,0.416736 4.985752,-0.366531 0.03514,0.01 0.08535,0.01506 0.120502,0.02511 z m -0.13054,6.28113 c 1.420957,0.396645 1.561445,2.771475 1.14476,3.790759 -0.933886,1.918002 -3.775721,2.219289 -5.743981,1.928028 0.547277,-1.812604 0.386608,-4.11711 -0.858576,-5.131382 0.612547,-0.371543 1.285352,-0.115481 1.968131,-0.135567 1.245184,0.100413 2.405021,-0.436813 3.489472,-0.446865 z m 1.104605,10.358135 c -0.813383,2.169031 -3.620065,2.214277 -5.683697,2.038441 0.612547,-1.707077 0.346441,-3.931378 -0.923846,-5.181512 0.135565,-0.120501 0.28117,-0.205862 0.441839,-0.286196 1.727256,0.366531 3.584975,0.180747 5.191664,-0.532212 1.114644,0.712971 1.345636,2.74641 0.974053,3.966467 z M 45.588055,9.0820216 c 0.19581,-0.8184093 0.793307,-1.3003905 1.596664,-1.380725 0.979078,0.3866081 2.184071,0.5271999 3.208367,0.2510421 1.189953,0.3866081 1.435994,2.3146613 0.517149,3.0777753 -1.451034,0.823422 -5.934727,0.617573 -5.322128,-1.9480796 z M 57.482572,9.779929 c -0.08535,1.631754 -3.976621,2.033427 -4.945648,1.119657 0.326364,-0.9740523 0.235978,-2.1489796 -0.251042,-2.9824017 0.005,-0.00502 0.01,-0.010047 0.01506,-0.015062 1.466072,0.6828432 3.308752,0.4619298 4.548988,-0.4117111 0.542265,0.5523029 0.717985,1.5614455 0.632638,2.2894688 z m -0.582419,54.366527 c -1.451033,0.180746 -3.263636,0.251043 -4.398345,-0.63765 0.622599,-1.275313 0.682844,-3.112993 0.11046,-4.503744 0.03013,-0.03514 0.06527,-0.07029 0.0954,-0.100412 0,0 0.01,-0.005 0.01506,-0.01 1.988311,1.084515 4.554002,1.089541 6.637686,0.220926 0.662753,1.154811 0.607534,2.766463 -0.005,3.9013 -0.582419,0.707946 -1.521342,0.933885 -2.455279,1.134721 z M 43.535065,36.756893 c 0.160669,-1.335608 0.416738,-2.088696 1.280326,-2.425072 2.1288,0.627611 4.021737,0.712971 6.251053,-0.155644 1.345634,0.964015 1.199991,3.770708 0.06025,4.684465 -1.963118,1.325454 -4.805031,0.933885 -6.733058,-0.110459 -0.68787,-0.346441 -0.913808,-1.435996 -0.858578,-1.993324 z m 0.296236,-7.215065 c 0.15063,-0.276145 0.331376,-0.502084 0.522173,-0.647701 0.200836,-0.155644 0.487033,-0.286197 0.743088,-0.401673 2.008363,0.50711 3.479448,0.632637 5.588325,0.01 1.149785,0.758153 1.019245,3.002454 0.401672,4.087033 -1.526355,1.300391 -4.51377,1.104593 -6.271104,0.35648 -1.275313,-0.502084 -1.581624,-2.425073 -0.989116,-3.404126 z m -0.42175,-5.261973 c 0.200835,-0.778242 0.707946,-1.466073 1.435995,-1.777384 1.702063,0.733048 3.805799,0.898743 5.653492,0.180746 1.606689,0.848537 1.551419,3.389087 0.155643,4.42341 -2.159005,1.024271 -8.043475,0.733048 -7.24013,-2.826747 z m 14.545041,-7.154783 c 0.0954,-0.04519 0.200837,-0.07532 0.291209,-0.125523 0.923847,0.582419 0.953975,2.3297 0.587446,3.23343 -0.180748,0.502084 -0.522175,0.768204 -0.974054,0.999156 -1.676998,0.863602 -3.961454,0.943936 -5.553105,-0.130541 0.567367,-1.094554 0.627611,-2.515432 0.170708,-3.610039 0.11548,-0.110459 0.215901,-0.230964 0.351466,-0.306273 1.476099,0.577406 3.64513,0.657741 5.131382,-0.05021 z m -4.36814,11.32215 c 1.802449,0.306274 3.715439,0.04016 5.382411,-0.798318 1.496279,0.672804 1.46106,2.806694 0.788281,4.077007 -1.405918,1.857719 -5.477784,2.27443 -7.210053,0.707946 0.35648,-1.194979 0.451879,-2.851939 -0.230964,-4.041789 0.07029,-0.09038 0.125524,-0.185772 0.230964,-0.230964 0.326364,0.125521 0.667779,0.220925 1.044349,0.286196 z m 6.356451,28.237896 c -0.542264,2.334712 -5.86943,2.179057 -7.20504,0.587444 0.763178,-1.305404 0.758152,-2.656052 0.411712,-3.886133 2.018387,0.672804 4.418396,0.63765 6.421746,-0.170707 0.697907,0.908782 0.692881,2.344738 0.366531,3.469421 z m 0.266106,-5.794109 c -0.597482,2.073657 -6.582415,2.204121 -7.606711,0.542263 0.893717,-1.189952 1.139746,-3.097955 0.517148,-4.594104 1.902963,0.712972 4.307985,0.728036 6.220846,-0.03515 1.119656,0.783268 1.350648,2.736386 0.863602,4.087033 z m -0.03013,-6.652725 c -0.5272,2.374944 -6.276115,2.339726 -7.561468,0.753139 0.73305,-1.169876 0.843513,-2.851939 0.411712,-4.202458 0.175732,-0.205862 0.426775,-0.336402 0.677817,-0.451877 1.767359,0.34644 3.690373,0.306273 5.417501,-0.266108 1.365686,0.627612 1.566587,2.329701 1.054387,4.167369 z m 0.281175,-7.124705 c -0.512135,1.646793 -2.344738,2.048593 -3.906312,2.123787 -1.250211,0.03013 -2.610807,0.110459 -3.635104,-0.682844 0.512135,-1.275313 0.547277,-3.128032 -0.175733,-4.408371 0.01506,-0.01506 0.03013,-0.02511 0.04017,-0.04017 2.033426,0.913808 4.855159,0.662753 6.798354,-0.49707 0.94895,0.913808 1.235147,2.425072 0.873641,3.504639 z M 45.156656,13.369274 c 0.09038,-0.487033 0.336403,-0.958989 0.702934,-1.280326 1.601677,0.733049 3.369035,0.853551 4.995776,0.361505 0.96904,0.522174 1.164851,2.405022 0.276145,3.359011 -1.466071,1.044347 -3.996672,1.074477 -5.467757,0.02511 -0.672805,-0.597484 -0.702934,-1.626741 -0.50711,-2.465305 z m -0.492045,4.343076 c 0.175733,-0.241004 0.497071,-0.35648 0.788281,-0.476982 1.611702,0.813383 3.750656,0.833474 5.457732,0.180746 0.878654,0.873641 0.748113,2.590755 -0.04017,3.519679 -1.506304,1.365687 -4.29796,1.074477 -5.894496,0.185773 -1.109618,-0.637651 -0.928871,-2.721347 -0.311299,-3.404126 z m -0.85355,23.367696 c 0.251041,-0.351466 0.617572,-0.507109 1.00418,-0.687869 1.907976,0.692882 4.508757,0.878654 6.381515,-0.05522 1.059413,0.80837 0.933886,2.585742 0.507109,3.675335 -2.053606,3.760682 -10.358135,1.882783 -7.892831,-2.932145 z m -0.286197,7.064423 c 0.110459,-0.73305 0.396646,-1.295378 1.024257,-1.591652 1.968132,1.004181 4.815057,0.979078 6.637687,-0.190797 1.385737,1.049374 1.260248,3.589988 0.03514,4.709658 -2.405021,1.451034 -8.259413,1.119656 -7.697072,-2.932145 z m 0.005,5.457732 c 0.07532,-0.522174 0.296236,-1.009207 0.662753,-1.360674 1.757333,1.039324 5.030996,1.189954 7.009152,0.316313 1.199992,1.089542 1.360674,4.142304 -0.502084,4.669426 -1.958105,0.577406 -4.69449,0.471968 -6.421746,-0.733049 -0.783267,-0.692882 -0.853551,-1.928027 -0.748114,-2.892042 z M 45.482958,63.78463 C 44.980873,63.634 44.453673,63.448228 44.137322,63.041542 43.740676,62.368738 43.625187,61.48511 43.620174,60.676751 c 0.01,-0.49707 0.09038,-1.210042 0.406699,-1.491264 0.436813,-0.341415 0.958987,-0.567367 1.501291,-0.702934 1.656947,0.436815 3.494614,0.512136 5.151433,0.0954 1.330595,0.793306 1.154811,3.293713 0.712972,4.287804 -0.256069,0.557316 -0.838487,0.743088 -1.46106,0.943938 -1.210043,0.351466 -3.148084,0.371543 -4.448475,-0.02008 z m 20.766144,-7.390773 c -1.134721,1.310416 -3.564795,1.491265 -5.206704,1.024271 0.542265,-1.531369 0.617574,-3.50464 -0.381594,-4.890379 0.02008,-0.01506 0.04017,-0.03514 0.05522,-0.05021 1.94808,0.366531 3.193328,0.286196 5.266987,-0.391634 1.159824,0.94895 1.114644,3.052711 0.26108,4.307985 z M 56.699343,5.6725872 c -0.662767,1.496278 -3.087802,1.8074618 -4.343076,0.7481134 0.266106,-0.7732164 0.291209,-1.6920372 0.05522,-2.4250734 0.03013,-0.040167 0.06025,-0.070293 0.09038,-0.1054405 1.114645,0.2359779 2.299623,-0.00502 3.308753,-0.5171484 0.843512,0.5824186 1.159825,1.6820115 0.893718,2.299623 z M 55.549557,1.8115188 c -0.361506,0.8836794 -2.570704,1.1246829 -3.223406,0.6477016 0.346441,-0.6928817 0.406698,-1.3706992 0.15063,-1.95309211 1.084516,-0.7079461 3.770708,-0.57740577 3.072762,1.30540341 z m -8.580753,1.8226289 c 0.165696,-0.065273 0.346442,-0.1154811 0.522174,-0.1757333 0.999156,0.5221742 2.299623,0.7179847 3.348984,0.276145 0.637651,0.6426759 0.717986,2.5857424 -0.426775,2.8669773 C 49.288505,7.0283121 47.375516,6.8023729 46.597235,5.7730889 46.25582,5.1203743 46.210627,4.1161417 46.968778,3.6341348 Z M 37.434065,40.076444 c 1.546406,0.717984 3.464408,0.838486 5.09115,0.336401 0.05522,0.02008 0.110459,0.04017 0.160669,0.06025 -0.79832,1.260249 -0.81841,3.44937 0.235978,4.754774 -1.446022,0.717985 -3.439345,0.667779 -5.025984,0.190797 -0.225939,-1.797435 -0.507109,-3.615051 -0.823422,-5.246805 0.115482,-0.03514 0.230966,-0.06527 0.366531,-0.0954 z m 0.692881,7.425863 c -0.02511,-0.246029 -0.05021,-0.476981 -0.08033,-0.717985 1.506304,0.371543 3.208367,0.366531 4.614156,-0.09038 -0.773216,1.441008 -0.502084,3.409139 0.492045,4.654388 -1.320441,0.456904 -3.077774,0.456904 -4.488705,0.155644 -0.220927,-1.285353 -0.416736,-2.816721 -0.537238,-4.0067 z m 5.36236,18.777705 c 0.06527,-0.662753 0.301261,-1.260249 0.642676,-1.656948 2.234326,1.009208 5.096162,1.004182 7.240129,-0.02511 0.627612,1.350648 0.532213,3.79076 -0.999155,4.493719 -2.485356,1.18494 -7.195014,0.818409 -6.883701,-2.811707 z m 6.66275,9.589881 c 0.923847,0.492047 1.014219,1.435996 0.868615,2.555666 -0.702934,-0.768204 -1.400777,-1.55142 -2.043453,-2.359778 0.396647,-0.04017 0.788281,-0.105436 1.174889,-0.200837 z m 2.18407,3.484461 c -0.06527,-0.08033 -0.115482,-0.165695 -0.160669,-0.261081 0.235977,-0.833473 0.241003,-1.782397 0.02511,-2.565691 0.120501,-0.180746 0.241003,-0.311299 0.421749,-0.416736 0.37657,0.185772 0.788281,0.281171 1.199992,0.381594 -0.502084,0.943924 -1.004181,1.91299 -1.48111,2.856953 z m 2.430086,-4.619297 c -0.11046,0.200836 -0.215901,0.396647 -0.326364,0.597483 -0.728036,-0.140592 -1.446021,-0.366531 -2.068645,-0.75314 0.743088,-1.139747 0.798318,-2.701295 0.210874,-4.08202 1.270288,0.647701 2.831759,0.758152 4.237677,0.607534 -0.712972,1.23012 -1.390751,2.415048 -2.053607,3.635104 z m 4.177393,-7.179848 c -0.426775,0.687869 -0.848538,1.385738 -1.260249,2.083684 -1.767358,0.401673 -4.112097,0.451879 -5.20169,-0.873641 0.507109,-1.064425 0.677818,-2.415046 0.446865,-3.595 1.958105,0.617573 4.277779,0.50711 6.170717,-0.366531 0.386608,0.346441 0.632637,0.853551 0.723011,1.350648 -0.296235,0.466943 -0.587444,0.933885 -0.873641,1.405918 z m 5.86943,-48.005321 c -1.044347,1.184941 -3.198341,1.340622 -4.684464,0.88368 0.351467,-1.159824 0.266107,-2.565691 -0.3113,-3.574821 1.330597,0.230966 3.027647,-0.205862 4.016725,-0.964013 1.240159,0.466942 1.762346,2.440112 0.979078,3.655283 z m -1.350646,-5.056059 c -0.788281,0.964014 -2.636001,1.375711 -3.866082,0.989116 0.512135,-1.365686 0.517149,-3.027646 -0.346441,-4.152329 0.848538,0.005 1.832655,-0.286196 2.545639,-0.712972 1.867745,0.02008 2.575717,2.319675 1.666974,3.876108 z M 36.851748,75.779404 c 2.922119,4.584079 7.350671,8.831782 12.160586,11.091174 -0.281171,0.813383 -0.562341,1.636766 -0.612548,2.470317 -10.589113,-1.285352 -15.629878,-7.05941 -17.854822,-28.187766 1.666973,6.090383 3.861069,10.875234 6.306193,14.63116 z"
     id="path31638"
     style="stroke-width:1.28535" />
  <path
     style="fill:#ffcc00;stroke-width:0.393047;stroke-linecap:round;stroke-linejoin:round;paint-order:markers stroke fill"
     d="m 50.986406,33.860279 c -1.88948,0.677529 -3.972442,0.746638 -5.897031,0.191355 -0.996779,-0.195069 -1.561788,0.941732 -1.753289,1.746734 -0.300552,1.164083 -0.193423,2.715917 1.010893,3.326268 2.016809,1.015927 4.553636,1.282167 6.620328,0.264752 1.297661,-0.698391 1.507085,-2.409828 1.320208,-3.729762 -0.124768,-0.71353 -0.500574,-1.693404 -1.301109,-1.799347 z"
     id="path31767" />
  <path
     style="fill:#ffcc00;stroke-width:0.319288;stroke-linecap:round;stroke-linejoin:round;paint-order:markers stroke fill"
     d="m 48.966442,-0.12564271 c -0.77454,-0.0128535 -1.796865,0.24752663 -1.940945,1.14546311 -0.123458,0.9236705 0.831857,1.5341407 1.610585,1.7467122 1.055678,0.3642751 2.555934,0.05698 2.917272,-1.1325338 0.247898,-0.85817542 -0.681378,-1.45000154 -1.399469,-1.61849317 -0.386689,-0.1022626 -0.787835,-0.14599798 -1.187443,-0.14114834 z"
     id="path31779" />
  <path
     style="fill:#ffcc00;stroke-width:0.319288;stroke-linecap:round;stroke-linejoin:round;paint-order:markers stroke fill"
     d="m 51.650546,-2.6567332 c -0.757498,-0.047725 -1.70339,0.6066411 -1.43719,1.4431211 0.350172,0.8204144 1.410761,0.74162361 2.129242,0.56991736 0.464878,-0.0676482 0.824633,-0.46399416 0.744833,-0.94910136 0.04691,-0.7323459 -0.821561,-1.0981377 -1.436885,-1.0639371 z"
     id="path31781" />
  <path
     style="fill:#ffcc00;stroke-width:0.319288;stroke-linecap:round;stroke-linejoin:round;paint-order:markers stroke fill"
     d="m 53.876981,-0.0833585 c -0.51473,0.05045003 -1.215153,0.02958877 -1.524191,0.51470502 -0.03006,0.61763468 0.0979,1.27692888 -0.208377,1.85683338 -0.118793,0.5231344 0.580196,0.6151257 0.950166,0.6290834 0.866544,-0.010414 1.886471,-0.084653 2.509038,-0.7618667 0.659609,-0.75704 0.13045,-2.06701923 -0.858147,-2.17487311 -0.285725,-0.05538586 -0.57802,-0.06931904 -0.868489,-0.06388199 z"
     id="path31783" />
  <path
     style="fill:#ffcc00;stroke-width:0.319288;stroke-linecap:round;stroke-linejoin:round;paint-order:markers stroke fill"
     d="m 54.701058,-2.8012285 c -0.377202,-0.00335 -1.028459,0.1283295 -0.870619,0.6493134 0.106825,0.3605939 -0.0854,1.1202382 0.473637,1.1456148 0.554987,-0.045694 1.274572,-0.4285748 1.10683,-1.0910105 -0.0483,-0.3787764 -0.289736,-0.7322546 -0.709848,-0.7039177 z"
     id="path31785" />
  <path
     style="fill:#ffcc00;stroke-width:0.319288;stroke-linecap:round;stroke-linejoin:round;paint-order:markers stroke fill"
     d="m 56.624511,-0.93542207 c -0.308305,0.0127252 -0.941721,0.0639851 -0.715175,0.50558027 0.563422,0.49886691 0.790371,1.23455089 0.819666,1.9654315 -0.01741,0.3356105 0.322825,0.5846076 0.618742,0.3731004 0.539012,-0.2210394 1.134602,-0.6138828 1.102231,-1.27321814 0.119294,-0.64268878 -0.244591,-1.38186384 -0.935985,-1.48100303 -0.290502,-0.0697176 -0.590956,-0.0992545 -0.889479,-0.0898979 z"
     id="path31787" />
  <path
     style="fill:#ffcc00;stroke-width:0.319288;stroke-linecap:round;stroke-linejoin:round;paint-order:markers stroke fill"
     d="m 48.675627,-2.7730897 c -0.434174,-0.074974 -0.914544,0.1222499 -0.989256,0.5960781 -0.02339,0.6373893 0.697871,1.021509 1.243415,1.1194541 0.544845,-0.052558 0.437999,-0.7561056 0.52079,-1.1395313 0.103891,-0.5065828 -0.362911,-0.6439125 -0.774949,-0.5760009 z"
     id="path31789" />
  <path
     style="fill:#ffcc00;stroke-width:0.319288;stroke-linecap:round;stroke-linejoin:round;paint-order:markers stroke fill"
     d="m 46.236404,-0.6516035 c -0.611931,0.016774 -1.392173,-0.0193057 -1.709448,0.62604214 -0.255609,0.63457949 -0.185037,1.60668976 0.549383,1.89212016 0.331427,0.1413939 0.996331,0.5127822 1.136033,-0.047764 -0.08306,-0.6393379 0.01067,-1.32272992 0.450672,-1.82732693 0.275962,-0.23663199 0.111414,-0.69873523 -0.270282,-0.64140347 -0.05209,-0.002823 -0.104224,-0.001545 -0.156358,-0.001668 z"
     id="path31791" />
  <path
     style="fill:#ffcc00;stroke-width:0.319288;stroke-linecap:round;stroke-linejoin:round;paint-order:markers stroke fill"
     d="m 44.232796,2.7248577 c -0.699774,-0.03743 -1.513863,0.2937941 -1.682679,1.03732 -0.122416,0.6679871 -0.119075,1.5517321 0.589822,1.8970174 0.631004,0.3707521 1.4158,0.6272363 2.14493,0.4758899 0.373349,-0.2910112 -0.02913,-0.7825966 0.05309,-1.1723848 -0.02946,-0.6213146 0.174501,-1.2325355 0.482282,-1.7703639 0.01078,-0.441706 -0.608603,-0.3649834 -0.931737,-0.4502909 -0.217754,-0.021774 -0.437112,-0.025218 -0.655702,-0.017185 z"
     id="path31793" />
  <path
     style="fill:#ffcc00;stroke-width:0.319288;stroke-linecap:round;stroke-linejoin:round;paint-order:markers stroke fill"
     d="m 47.369243,3.2909729 c -0.987996,0.064833 -1.443662,1.245452 -1.152764,2.0939564 0.205415,0.9673828 1.271544,1.3765399 2.130765,1.5915715 0.77704,0.087661 1.621179,0.06784 2.347506,-0.2473145 1.054685,-0.5861988 1.016553,-2.0683214 0.462992,-2.9878467 -0.381373,-0.4300659 -0.942104,0.055887 -1.409964,-0.026003 -0.760032,0.064191 -1.464531,-0.2311847 -2.182478,-0.4124939 -0.06493,-0.009 -0.130505,-0.013676 -0.196057,-0.011825 z"
     id="path31795" />
  <path
     style="fill:#ffcc00;stroke-width:0.319288;stroke-linecap:round;stroke-linejoin:round;paint-order:markers stroke fill"
     d="m 55.820663,3.1695971 c -0.826007,0.3128212 -1.676898,0.6093686 -2.579002,0.518903 -0.345055,0.048689 -1.122665,-0.1904249 -1.039236,0.3859475 0.191827,0.7848242 0.125849,1.5949803 -0.04706,2.3581437 0.248515,0.5056601 0.901523,0.6486708 1.404032,0.7836187 1.246464,0.2171999 2.833894,-0.2282168 3.345586,-1.4917948 0.33185,-0.9473699 -0.197981,-2.0307415 -0.980278,-2.5678992 l -0.07726,0.00977 z"
     id="path31797" />
  <path
     style="fill:#ffcc00;stroke-width:0.319288;stroke-linecap:round;stroke-linejoin:round;paint-order:markers stroke fill"
     d="m 59.010497,2.5169379 c -0.605108,0.048997 -1.291786,-0.014126 -1.820329,0.3257968 -0.269884,0.4084771 0.280726,0.7768692 0.385268,1.157327 0.328768,0.5936448 0.193773,1.297893 0.319326,1.9227 0.489303,0.2749046 1.125922,-0.011954 1.625877,-0.196065 C 60.138369,5.4785351 60.684415,4.910173 60.606937,4.199768 60.637284,3.575803 60.493273,2.6359589 59.72704,2.5526809 59.489865,2.5195189 59.249603,2.5153286 59.010497,2.5169354 Z"
     id="path31801" />
  <path
     style="fill:#ffcc00;stroke-width:0.319288;stroke-linecap:round;stroke-linejoin:round;paint-order:markers stroke fill"
     d="m 60.793715,6.0114278 c -0.541961,0.1596304 -0.989296,0.5835266 -1.567237,0.6765398 -0.387138,0.135138 -1.156633,0.088985 -1.114891,0.6838406 0.275572,0.8474749 0.547804,1.7499256 0.396956,2.6446538 0.147044,0.396102 0.702154,0.176552 1.047232,0.212691 1.069641,-0.08587 2.255958,-0.5736936 2.732775,-1.5944622 0.299129,-1.0665194 -0.269482,-2.5160711 -1.494835,-2.623263 z"
     id="path31803" />
  <path
     style="fill:#ffcc00;stroke-width:0.319288;stroke-linecap:round;stroke-linejoin:round;paint-order:markers stroke fill"
     d="m 56.78391,7.2863272 c -1.230119,0.7525426 -2.779634,1.0161516 -4.150497,0.5029941 -0.330504,-0.1703361 -0.642409,0.2173685 -0.41584,0.5074043 0.33715,0.8358656 0.263639,1.7831184 0.106014,2.6404504 0.223654,0.456605 0.851978,0.500764 1.294064,0.628933 1.116494,0.09938 2.325695,-0.0035 3.304061,-0.592429 0.888404,-0.483985 0.893983,-1.6298836 0.693118,-2.4930656 -0.123535,-0.4389977 -0.301497,-0.9083736 -0.646878,-1.2114737 -0.06135,0.00578 -0.1227,0.011439 -0.184042,0.017185 z"
     id="path31805" />
  <path
     style="fill:#ffcc00;stroke-width:0.319288;stroke-linecap:round;stroke-linejoin:round;paint-order:markers stroke fill"
     d="m 47.081319,7.4820799 c -1.027311,0.103201 -1.833358,1.0724281 -1.76101,2.1012571 -0.04489,1.06342 1.023909,1.695874 1.932274,1.923149 1.175593,0.29929 2.458132,0.22888 3.597462,-0.181455 0.884803,-0.49047 1.016184,-1.7639691 0.63684,-2.6205263 C 51.21353,8.1621363 50.675666,7.5915263 50.003532,7.785054 49.055324,7.9360468 48.104504,7.758846 47.197522,7.4874038 c -0.03853,-0.00462 -0.07742,-0.00642 -0.116208,-0.00527 z"
     id="path31807" />
  <path
     style="fill:#ffcc00;stroke-width:0.319288;stroke-linecap:round;stroke-linejoin:round;paint-order:markers stroke fill"
     d="m 42.46783,6.4304628 c -1.045918,0.098175 -1.634371,1.2689881 -1.630204,2.2208078 0.178182,1.3151399 1.589134,1.9501734 2.764933,2.1057074 0.350695,0.01247 1.039058,0.19334 1.000965,-0.336259 C 44.450535,9.6883798 44.466145,8.9441123 44.808037,8.2650892 44.93666,7.8770865 45.291892,7.6101767 45.404419,7.2265519 45.218516,6.8137972 44.667609,7.0949382 44.315081,6.9403002 43.6883,6.8763667 43.1433,6.5115209 42.529887,6.4295502 Z"
     id="path31809" />
  <path
     style="fill:#ffcc00;stroke-width:0.319288;stroke-linecap:round;stroke-linejoin:round;paint-order:markers stroke fill"
     d="m 40.884472,10.680737 c -0.946224,0.0032 -1.789282,0.760176 -1.89212,1.70382 -0.211599,1.141809 0.09309,2.521277 1.176186,3.126408 1.119281,0.678014 2.53143,0.895629 3.800213,0.587562 0.504454,-0.142253 0.224586,-0.696766 0.141908,-1.033973 -0.302098,-1.052735 0.01703,-2.186893 0.469204,-3.151981 -0.02003,-0.471924 -0.657188,-0.265616 -0.990449,-0.347225 -0.867935,-0.07341 -1.666989,-0.439508 -2.419603,-0.847499 -0.09219,-0.0286 -0.189033,-0.03951 -0.285339,-0.03711 z"
     id="path31811" />
  <path
     style="fill:#ffcc00;stroke-width:0.319288;stroke-linecap:round;stroke-linejoin:round;paint-order:markers stroke fill"
     d="m 45.621009,11.93921 c -0.739003,0.863658 -0.95817,2.121197 -0.660265,3.201698 0.216461,0.785361 0.956124,1.216684 1.689255,1.430709 1.419408,0.458569 3.055945,0.322609 4.356253,-0.418333 0.929549,-0.533564 1.031318,-1.812323 0.8005,-2.754526 -0.140671,-0.604307 -0.67237,-1.372806 -1.38639,-1.088577 -1.516457,0.375868 -3.147513,0.13485 -4.567537,-0.457831 -0.10009,-0.03077 -0.161437,0.02768 -0.231816,0.08687 z"
     id="path31813" />
  <path
     style="fill:#ffcc00;stroke-width:0.319288;stroke-linecap:round;stroke-linejoin:round;paint-order:markers stroke fill"
     d="m 57.645251,11.515004 c -1.04114,0.536007 -2.173481,0.969381 -3.366879,0.888012 -0.569869,0.02186 -1.137233,-0.0701 -1.675378,-0.244023 -0.501285,0.09371 -0.158159,0.644373 -0.06008,0.929786 0.241222,0.813339 0.22721,1.636721 -0.02191,2.462646 0.0817,0.586086 0.834772,0.650576 1.28433,0.823924 1.433491,0.390693 3.10636,0.272657 4.336211,-0.614179 0.862491,-0.97463 1.000144,-2.556274 0.337814,-3.67488 -0.194468,-0.257213 -0.48936,-0.614685 -0.83411,-0.571286 z"
     id="path31815" />
  <path
     style="fill:#ffcc00;stroke-width:0.319288;stroke-linecap:round;stroke-linejoin:round;paint-order:markers stroke fill"
     d="m 61.913167,10.403915 c -0.76862,0.168349 -1.467693,0.661285 -2.28408,0.646575 -0.294156,-0.05635 -0.656954,0.182756 -0.473942,0.502234 0.265206,0.572152 0.560538,1.149944 0.497546,1.80388 0.06248,0.713533 -0.06994,1.424229 -0.26955,2.099758 0.135423,0.509325 0.816209,0.314281 1.201125,0.358141 1.17737,0.02266 2.53767,-0.336141 3.188169,-1.398349 0.338494,-0.755215 0.343081,-1.653769 0.1413,-2.446069 -0.293037,-0.853947 -1.072997,-1.547486 -2.000568,-1.56617 z"
     id="path31817" />
  <path
     style="fill:#ffcc00;stroke-width:0.319288;stroke-linecap:round;stroke-linejoin:round;paint-order:markers stroke fill"
     d="m 63.789013,15.690901 c -1.075243,0.618951 -2.289787,1.051596 -3.547116,0.965833 -0.582778,-0.174658 -0.779407,0.380215 -0.433856,0.787116 0.37407,0.940123 0.242405,1.991509 0.136349,2.969898 0.139796,0.42877 0.738359,0.339853 1.098312,0.449456 1.345059,0.135727 2.871508,-0.09894 3.870633,-1.079148 0.890401,-1.188172 0.528374,-3.119848 -0.685668,-3.953901 -0.121375,-0.09097 -0.282359,-0.202299 -0.438654,-0.139254 z"
     id="path31819" />
  <path
     style="fill:#ffcc00;stroke-width:0.319288;stroke-linecap:round;stroke-linejoin:round;paint-order:markers stroke fill"
     d="m 58.217906,16.842143 c -0.755799,0.169202 -1.475854,0.52758 -2.270038,0.527006 -1.046789,0.105336 -2.078983,-0.13369 -3.087522,-0.368062 -0.463481,0.02328 -0.697263,0.577418 -0.478384,0.965569 0.2508,1.021307 0.103614,2.122863 -0.269086,3.088026 0.161403,0.508903 0.828943,0.63942 1.290264,0.81444 1.503478,0.514246 3.16287,0.230534 4.56924,-0.438481 0.888699,-0.375768 1.294731,-1.355856 1.266463,-2.272421 0.03603,-0.803706 -0.08121,-1.809026 -0.812257,-2.286113 -0.06636,-0.02486 -0.138135,-0.03329 -0.20868,-0.02996 z"
     id="path31821" />
  <path
     style="fill:#ffcc00;stroke-width:0.319288;stroke-linecap:round;stroke-linejoin:round;paint-order:markers stroke fill"
     d="m 45.423736,17.054474 c -1.051685,0.139874 -1.495588,1.339455 -1.477343,2.276628 -0.02995,0.901105 0.413418,1.867005 1.309578,2.182174 1.323207,0.648069 2.855673,0.642552 4.276586,0.393939 1.059855,-0.221668 1.958176,-1.067152 2.136103,-2.152755 0.174136,-0.814946 0.06586,-1.791958 -0.530235,-2.411452 -0.56702,-0.245376 -1.15897,0.197558 -1.741846,0.204422 -1.297082,0.191064 -2.61145,0.01797 -3.801731,-0.480941 -0.05641,-0.0099 -0.113882,-0.01367 -0.171112,-0.01196 z"
     id="path31823" />
  <path
     style="fill:#ffcc00;stroke-width:0.319288;stroke-linecap:round;stroke-linejoin:round;paint-order:markers stroke fill"
     d="m 39.198296,16.044988 c -1.066294,0.202699 -1.527839,1.453035 -1.456744,2.429825 0.0066,1.156145 0.964972,2.027668 1.997609,2.368008 1.023446,0.37435 2.164415,0.314467 3.214019,0.09902 0.485703,-0.202935 0.160636,-0.821728 0.236059,-1.203868 -0.05714,-0.779452 0.01183,-1.568379 0.372493,-2.273739 0.06964,-0.507712 -0.609391,-0.415705 -0.925832,-0.419034 -1.114021,-0.02577 -2.217599,-0.381203 -3.165499,-0.955947 -0.08702,-0.03113 -0.179546,-0.048 -0.272105,-0.04427 z"
     id="path31825" />
  <path
     style="fill:#ffcc00;stroke-width:0.319288;stroke-linecap:round;stroke-linejoin:round;paint-order:markers stroke fill"
     d="m 38.358096,21.206492 c -1.240336,0.142975 -1.841178,1.513968 -1.803141,2.635279 -0.06766,0.903637 0.382611,1.771374 1.121441,2.281072 1.352232,0.957495 3.155137,1.118001 4.737287,0.757119 0.492731,-0.213552 0.03838,-0.766998 -0.0074,-1.126755 -0.315468,-1.271002 0.148382,-2.620387 1.002793,-3.576623 0.195955,-0.330763 -0.23287,-0.535815 -0.499496,-0.385877 -1.463979,0.290213 -3.017553,0.09254 -4.367694,-0.565811 -0.06005,-0.01438 -0.122018,-0.02085 -0.183737,-0.01841 z"
     id="path31827" />
  <path
     style="fill:#ffcc00;stroke-width:0.319288;stroke-linecap:round;stroke-linejoin:round;paint-order:markers stroke fill"
     d="m 44.707347,22.277425 c -1.465149,0.698897 -2.170727,2.87359 -1.028042,4.148672 1.117297,1.258879 2.94534,1.456603 4.531423,1.400913 0.919376,-0.08507 1.934877,-0.120398 2.714758,-0.667336 1.297189,-1.08567 1.354839,-3.39022 0.02373,-4.465495 -0.305808,-0.321706 -0.732153,-0.198818 -1.084624,-0.04761 -1.650919,0.415693 -3.397093,0.280278 -4.963924,-0.376903 -0.06444,0.0026 -0.12888,0.0051 -0.193319,0.0077 z"
     id="path31829" />
  <path
     style="fill:#ffcc00;stroke-width:0.319288;stroke-linecap:round;stroke-linejoin:round;paint-order:markers stroke fill"
     d="m 58.52028,22.037717 c -1.794155,0.995775 -4.028709,1.128736 -5.943295,0.418274 -0.470726,0.0076 -0.362818,0.600285 -0.172176,0.859211 0.48885,1.024526 0.366297,2.225374 -0.01259,3.262691 -0.01323,0.563356 0.711666,0.609143 1.113827,0.754718 1.829434,0.428621 3.854617,0.100957 5.434836,-0.923137 0.95183,-0.680935 0.987834,-2.069496 0.673112,-3.093843 -0.172662,-0.515537 -0.491808,-1.024 -0.958157,-1.305444 l -0.07631,0.0155 z"
     id="path31831" />
  <path
     style="fill:#ffcc00;stroke-width:0.319288;stroke-linecap:round;stroke-linejoin:round;paint-order:markers stroke fill"
     d="m 65.086577,20.75643 c -1.411922,0.964571 -3.226964,1.130957 -4.873275,0.826508 -0.418432,-0.06303 -0.43543,0.456308 -0.200011,0.677149 0.678512,1.060859 0.687692,2.409263 0.407475,3.599894 0.147598,0.501754 0.832384,0.364419 1.235049,0.399566 1.283977,0.0062 2.645374,-0.09317 3.726899,-0.863165 0.863413,-0.542552 1.479217,-1.581614 1.207977,-2.617941 -0.188484,-0.80742 -0.541805,-1.804161 -1.418179,-2.054561 l -0.07283,0.02758 z"
     id="path31833" />
  <path
     style="fill:#ffcc00;stroke-width:0.319288;stroke-linecap:round;stroke-linejoin:round;paint-order:markers stroke fill"
     d="m 65.732848,26.253312 c -0.768198,0.187205 -1.470769,0.553374 -2.248033,0.703004 -0.970419,0.246829 -1.991478,0.02731 -2.970085,0.145979 -0.309196,0.364347 0.276899,0.72755 0.36629,1.109908 0.488733,1.062825 0.385363,2.266622 0.130502,3.37418 -0.0033,0.487356 0.644115,0.430769 0.984236,0.536761 1.54782,0.197422 3.318001,0.06864 4.484508,-1.092684 0.603378,-0.545294 0.839209,-1.37193 0.745134,-2.165695 -0.03575,-0.921458 -0.36435,-1.927637 -1.109565,-2.512133 -0.115399,-0.06743 -0.249043,-0.104191 -0.382987,-0.09932 z"
     id="path31835" />
  <path
     style="fill:#ffcc00;stroke-width:0.319288;stroke-linecap:round;stroke-linejoin:round;paint-order:markers stroke fill"
     d="m 58.96502,27.472391 c -0.735576,0.182978 -1.417379,0.577371 -2.183592,0.673353 -1.352303,0.286544 -2.755268,0.193525 -4.087022,-0.147544 -0.337958,-0.114089 -0.643783,0.211263 -0.502385,0.540866 0.242269,0.696115 0.413548,1.417395 0.347852,2.161489 0.05012,0.611234 -0.182242,1.206945 -0.149514,1.809073 0.256462,0.517849 0.923761,0.648814 1.414526,0.862101 1.089828,0.344855 2.267924,0.22061 3.381481,0.07376 1.154712,-0.304953 2.44744,-0.852742 2.960012,-2.016234 0.313179,-0.79388 0.265349,-1.690494 0.163658,-2.521509 -0.221212,-0.582794 -0.672978,-1.34782 -1.345016,-1.435364 z"
     id="path31837" />
  <path
     style="fill:#ffcc00;stroke-width:0.319288;stroke-linecap:round;stroke-linejoin:round;paint-order:markers stroke fill"
     d="m 44.94158,28.282018 c -1.032905,0.397718 -1.710561,1.481406 -1.619101,2.584021 -0.02154,1.13366 0.773739,2.193724 1.875574,2.476546 1.462421,0.447533 3.074234,0.574532 4.559612,0.168012 0.713722,-0.240666 1.584511,-0.541002 1.779719,-1.367224 0.351608,-1.137463 0.372995,-2.533644 -0.374014,-3.521412 -0.226335,-0.359028 -0.618278,-0.406747 -0.981766,-0.224294 -1.372343,0.323769 -2.807774,0.266704 -4.173501,0.06155 -0.35528,-0.04756 -0.707921,-0.225652 -1.066523,-0.177196 z"
     id="path31839" />
  <path
     style="fill:#ffcc00;stroke-width:0.319288;stroke-linecap:round;stroke-linejoin:round;paint-order:markers stroke fill"
     d="m 37.391199,27.140205 c -0.903035,0.51353 -1.385693,1.597519 -1.278551,2.615811 -0.06856,0.695105 0.109059,1.399077 0.587106,1.922388 1.251891,1.512445 3.446128,1.856261 5.268348,1.366828 0.357588,-0.07593 1.029399,-0.179982 0.854576,-0.702304 -0.317987,-0.943666 -0.423263,-1.979844 -0.06084,-2.934764 0.181169,-0.482669 0.564921,-0.840103 0.746658,-1.313229 -0.0024,-0.480152 -0.594493,-0.623909 -0.953666,-0.406562 -1.623946,0.348282 -3.333279,0.186234 -4.841377,-0.543218 -0.09325,-0.04867 -0.231,-0.05359 -0.322255,-0.005 z"
     id="path31841" />
  <path
     style="fill:#ffcc00;stroke-width:0.319288;stroke-linecap:round;stroke-linejoin:round;paint-order:markers stroke fill"
     d="m 37.731142,33.605963 c -0.924244,0.09003 -1.899117,0.810688 -1.823233,1.824271 0.04001,0.88843 0.15406,1.822741 0.553048,2.625558 0.893021,1.003457 2.260031,1.523377 3.580117,1.608813 0.999632,-0.03193 2.07024,-0.06398 2.969296,-0.519171 0.03503,-0.459354 -0.387584,-0.840775 -0.410946,-1.317999 -0.246175,-1.259493 0.0541,-2.572073 0.673927,-3.67802 0.122572,-0.468729 -0.474816,-0.503178 -0.772631,-0.362015 -1.489414,0.438009 -3.138243,0.383891 -4.600596,-0.174288 -0.05582,-0.0088 -0.112622,-0.01078 -0.168982,-0.0072 z"
     id="path31843" />
  <path
     style="fill:#ffcc00;stroke-width:0.319288;stroke-linecap:round;stroke-linejoin:round;paint-order:markers stroke fill"
     d="m 59.439723,33.415991 c -1.183662,0.636804 -2.512877,1.044297 -3.861963,0.951179 -0.825738,0.04349 -1.644577,-0.07174 -2.422949,-0.350386 -0.322726,-0.189247 -0.69401,0.139597 -0.485807,0.471661 0.325014,0.731205 0.377116,1.526729 0.333251,2.316632 0.03709,0.605623 -0.145196,1.190817 -0.307548,1.757045 0.13069,0.389207 0.66735,0.511738 1.027127,0.682022 1.509688,0.425329 3.128269,0.275224 4.641632,-0.05338 1.273845,-0.281759 2.502414,-1.403258 2.403478,-2.790117 0.04548,-0.755493 0.0014,-1.540822 -0.447325,-2.183087 -0.205881,-0.308333 -0.441113,-0.861746 -0.879896,-0.801565 z"
     id="path31845" />
  <path
     style="fill:#ffcc00;stroke-width:0.319288;stroke-linecap:round;stroke-linejoin:round;paint-order:markers stroke fill"
     d="m 66.067467,32.423237 c -0.666551,0.134778 -1.284267,0.48731 -1.978751,0.531046 -0.999274,0.174891 -2.011762,0.04541 -2.991866,-0.164183 -0.477767,-0.03506 -0.453337,0.553973 -0.20199,0.807346 0.77414,1.221921 0.972813,2.800247 0.453714,4.157493 -0.124782,0.455326 0.424784,0.569269 0.761715,0.525961 1.560602,-0.0356 3.26097,-0.134616 4.573943,-1.074584 0.888021,-0.747709 0.888247,-2.051689 0.734489,-3.109374 -0.140539,-0.675452 -0.562673,-1.616992 -1.351254,-1.673705 z"
     id="path31847" />
  <path
     style="fill:#ffcc00;stroke-width:0.319288;stroke-linecap:round;stroke-linejoin:round;paint-order:markers stroke fill"
     d="m 65.808441,38.710732 c -1.102882,0.08595 -2.171929,0.469535 -3.291433,0.398881 -0.65874,0.0391 -1.346296,-0.05066 -1.988403,0.107759 -0.381822,0.399859 0.276399,0.772531 0.421619,1.128883 0.705177,1.30962 0.541308,2.901153 0.233801,4.29158 0.113599,0.421216 0.722983,0.242589 1.066194,0.306101 1.616892,0.02551 3.422764,-0.180572 4.602691,-1.410583 0.957903,-1.021387 0.878689,-2.650237 0.342027,-3.855767 -0.25549,-0.532479 -0.750053,-1.022849 -1.386496,-0.966859 z"
     id="path31849" />
  <path
     style="fill:#ffcc00;stroke-width:0.319288;stroke-linecap:round;stroke-linejoin:round;paint-order:markers stroke fill"
     d="m 59.055519,39.909734 c -0.949356,0.151815 -1.884636,0.40207 -2.846814,0.39264 -0.856535,0.06383 -1.680529,-0.10567 -2.521848,-0.16966 -0.476326,0.05157 -0.96398,0.468706 -0.803543,0.989256 0.307067,1.251398 0.152399,2.603174 -0.435346,3.762307 -0.136212,0.463417 0.484655,0.661666 0.800841,0.867151 1.771901,0.789281 3.872506,0.777302 5.674232,0.09187 0.937133,-0.339719 1.570695,-1.246313 1.631878,-2.23252 0.05728,-1.057322 0.246268,-2.320301 -0.546362,-3.168034 -0.234355,-0.292829 -0.554172,-0.559246 -0.953038,-0.533008 z"
     id="path31851" />
  <path
     style="fill:#ffcc00;stroke-width:0.319288;stroke-linecap:round;stroke-linejoin:round;paint-order:markers stroke fill"
     d="m 51.140251,40.126781 c -1.946453,0.840216 -4.163255,0.695609 -6.14258,0.09746 -0.495853,-0.139083 -0.955042,0.297288 -1.286273,0.628668 -0.576095,0.87369 -0.744,2.064957 -0.36291,3.048231 0.777937,1.632712 2.724676,2.363975 4.446481,2.31002 1.648238,0.02214 3.537121,-0.686492 4.180156,-2.327817 0.366623,-1.048672 0.399233,-2.320093 -0.205333,-3.286569 -0.168995,-0.19135 -0.341496,-0.515094 -0.629541,-0.469988 z"
     id="path31853" />
  <path
     style="fill:#ffcc00;stroke-width:0.319288;stroke-linecap:round;stroke-linejoin:round;paint-order:markers stroke fill"
     d="m 37.286707,39.895133 c -0.489734,-0.0047 -0.463724,0.587019 -0.339639,0.912293 0.290694,1.563434 0.484398,3.144148 0.747025,4.698649 0.304085,0.316003 0.864891,0.257768 1.277574,0.401103 1.332993,0.127636 2.759231,0.136076 3.998701,-0.439263 0.404224,-0.323047 -0.165958,-0.719754 -0.264076,-1.065851 -0.528835,-1.219662 -0.416463,-2.643549 0.148784,-3.828414 0.100101,-0.448406 -0.453304,-0.407361 -0.726276,-0.301461 -1.496953,0.38591 -3.075739,0.169157 -4.516449,-0.334467 -0.106769,-0.02417 -0.215597,-0.04579 -0.325644,-0.04259 z"
     id="path31855" />
  <path
     style="fill:#ffcc00;stroke-width:0.319288;stroke-linecap:round;stroke-linejoin:round;paint-order:markers stroke fill"
     d="m 42.392846,46.526528 c -1.377991,0.345183 -2.857457,0.341914 -4.268831,0.03984 -0.541571,0.05964 -0.196223,0.726708 -0.22294,1.069508 0.18419,1.277728 0.25133,2.584632 0.54965,3.840118 0.313955,0.497074 1.025121,0.333791 1.518995,0.444665 1.079753,0.03555 2.213219,0.0074 3.23186,-0.363813 0.304935,-0.379981 -0.242187,-0.781246 -0.338291,-1.151026 -0.49072,-1.12074 -0.573899,-2.476265 0.0097,-3.579818 0.08533,-0.317588 -0.238215,-0.424882 -0.480026,-0.299484 z"
     id="path31857" />
  <path
     style="fill:#ffcc00;stroke-width:0.319288;stroke-linecap:round;stroke-linejoin:round;paint-order:markers stroke fill"
     d="m 51.103444,46.170615 c -0.976662,0.507437 -2.014514,0.867448 -3.126714,0.810235 -1.137319,0.05849 -2.281771,-0.118265 -3.311244,-0.621033 -0.485728,-0.07264 -0.863969,0.435489 -1.085047,0.826672 -0.668142,1.351904 -0.280419,3.194155 1.038538,4.007979 1.175374,0.864397 2.691342,0.920226 4.089503,0.813582 1.121484,-0.08022 2.442598,-0.300261 3.113025,-1.308362 0.447355,-0.632657 0.603302,-1.405109 0.535315,-2.169701 0.06123,-0.88139 -0.323252,-1.822018 -1.041184,-2.34003 -0.07146,-0.04436 -0.134646,-0.04962 -0.212192,-0.01935 z"
     id="path31859" />
  <path
     style="fill:#ffcc00;stroke-width:0.319288;stroke-linecap:round;stroke-linejoin:round;paint-order:markers stroke fill"
     d="m 59.260396,46.574592 c -1.80535,0.701083 -3.791664,0.647516 -5.654454,0.194046 -0.275441,-0.199873 -0.752294,-0.06525 -0.626653,0.339367 0.389578,1.356178 0.280215,2.909846 -0.513411,4.106243 -0.304425,0.47367 0.377131,0.783541 0.709163,1.002939 1.174125,0.557757 2.532151,0.688697 3.812683,0.542386 1.209452,-0.168608 2.691422,-0.391077 3.334179,-1.573166 0.459466,-1.008917 0.387688,-2.201582 0.104791,-3.250066 -0.199705,-0.549003 -0.576818,-1.071777 -1.070478,-1.374983 l -0.07715,0.01067 z"
     id="path31861" />
  <path
     style="fill:#ffcc00;stroke-width:0.319288;stroke-linecap:round;stroke-linejoin:round;paint-order:markers stroke fill"
     d="m 66.090282,45.084623 c -1.571657,0.655746 -3.313466,0.841627 -4.991304,0.568549 -0.426436,-0.05927 -1.096424,0.412615 -0.608221,0.807574 1.074172,1.270485 1.157012,3.047093 0.797129,4.607328 -0.131029,0.389236 0.290459,0.581356 0.616611,0.519572 1.370702,-0.04728 2.863425,0.08236 4.080532,-0.67289 0.955681,-0.538367 1.574264,-1.606004 1.504266,-2.709807 0.01981,-1.133995 -0.246855,-2.490506 -1.280457,-3.120989 -0.0365,-0.02912 -0.07843,-0.0054 -0.118561,6.63e-4 z"
     id="path31863" />
  <path
     style="fill:#ffcc00;stroke-width:0.319288;stroke-linecap:round;stroke-linejoin:round;paint-order:markers stroke fill"
     d="m 65.890879,51.868269 c -1.272371,0.434762 -2.620967,0.655647 -3.968281,0.527939 -0.436213,0.02278 -0.869297,-0.187878 -1.298171,-0.10388 -0.37642,0.349495 0.165636,0.788381 0.255072,1.160521 0.467396,1.195628 0.317333,2.546869 0.0064,3.785914 -0.101602,0.517197 0.573515,0.49398 0.91275,0.576914 1.55462,0.148194 3.375003,0.02956 4.508539,-1.183793 0.916845,-1.15952 1.094049,-2.954406 0.267847,-4.208294 -0.198046,-0.203969 -0.367375,-0.570619 -0.684145,-0.555316 z"
     id="path31865" />
  <path
     style="fill:#ffcc00;stroke-width:0.319288;stroke-linecap:round;stroke-linejoin:round;paint-order:markers stroke fill"
     d="m 59.493719,53.044456 c -1.851214,0.540953 -3.81242,0.811994 -5.708303,0.276062 -0.273169,-0.08573 -0.817513,-0.225139 -0.805672,0.225259 0.204023,1.129094 0.247852,2.35401 -0.345266,3.390911 -0.319377,0.507463 0.286164,0.895564 0.684752,1.073063 1.430299,0.728598 3.112671,0.802408 4.663226,0.492803 1.051222,-0.235977 2.135385,-0.950694 2.267197,-2.107189 0.219156,-1.083977 0.197863,-2.341214 -0.480634,-3.261475 -0.07563,-0.0642 -0.176448,-0.09663 -0.2753,-0.08943 z"
     id="path31867" />
  <path
     style="fill:#ffcc00;stroke-width:0.319288;stroke-linecap:round;stroke-linejoin:round;paint-order:markers stroke fill"
     d="m 44.1607,52.034819 c -0.457304,0.145458 -0.566364,0.725069 -0.770081,1.107133 -0.188556,0.848194 -0.161029,1.773809 0.107992,2.603491 0.483861,1.208433 1.872138,1.627326 3.02834,1.895227 1.474547,0.277799 3.034138,0.175041 4.463599,-0.275737 1.185349,-0.525668 1.48676,-2.018361 1.257292,-3.182315 -0.127237,-0.69676 -0.413885,-1.444342 -1.018461,-1.848011 -1.849541,0.66873 -3.909127,0.695938 -5.805188,0.167614 -0.445832,-0.08816 -0.825273,-0.39429 -1.263492,-0.467402 z"
     id="path31869" />
  <path
     style="fill:#ffcc00;stroke-width:0.319288;stroke-linecap:round;stroke-linejoin:round;paint-order:markers stroke fill"
     d="m 41.770453,52.695996 c -0.959159,0.11982 -1.935917,0.0023 -2.899212,-0.03044 -0.438376,0.220638 -0.0012,0.82171 -0.0151,1.20002 0.301739,1.348864 0.54994,2.725218 0.985082,4.034661 0.432124,0.337945 1.054464,0.09234 1.550351,0.05308 0.588349,-0.143089 1.290691,-0.246888 1.700475,-0.728406 0.174369,-0.537631 -0.385437,-0.982805 -0.449549,-1.501195 -0.214009,-0.822642 -0.224566,-1.714035 -0.06512,-2.546869 0.287867,-0.667335 -0.406462,-0.537811 -0.806928,-0.480857 z"
     id="path31871" />
  <path
     style="fill:#ffcc00;stroke-width:0.319288;stroke-linecap:round;stroke-linejoin:round;paint-order:markers stroke fill"
     d="m 52.56649,58.698914 c -0.401133,0.322951 0.08008,0.836594 0.0794,1.241591 0.06638,1.148673 0.172949,2.369733 -0.329601,3.442472 -0.0047,0.530727 0.668557,0.677184 1.062264,0.839591 1.317477,0.413614 2.743412,0.277972 4.080683,0.03878 1.005931,-0.221641 2.165452,-0.72374 2.408802,-1.838733 0.290109,-1.125351 0.259932,-2.412575 -0.319598,-3.435752 -0.384248,-0.232156 -0.857552,0.183859 -1.280946,0.231316 -1.793857,0.4813 -3.764783,0.300054 -5.432242,-0.50847 -0.08712,-0.02991 -0.179532,-0.04541 -0.268759,-0.01078 z"
     id="path31873" />
  <path
     style="fill:#ffcc00;stroke-width:0.319288;stroke-linecap:round;stroke-linejoin:round;paint-order:markers stroke fill"
     d="m 45.514083,58.286571 c -0.858431,0.143701 -1.911106,0.639457 -2.051977,1.599178 -0.03222,1.138899 -0.163187,2.458239 0.612353,3.399428 0.642549,0.651079 1.612722,0.822671 2.482115,0.954273 1.552445,0.06756 3.264651,0.141674 4.623831,-0.738443 0.869788,-0.807528 0.714481,-2.107541 0.681863,-3.178427 -0.02827,-0.779082 -0.44053,-1.603648 -1.150178,-1.956763 -0.86876,0.09906 -1.752178,0.287321 -2.626609,0.235602 -0.871226,0.01089 -1.714504,-0.221661 -2.571398,-0.314848 z"
     id="path31875" />
  <path
     style="fill:#ffcc00;stroke-width:0.319288;stroke-linecap:round;stroke-linejoin:round;paint-order:markers stroke fill"
     d="m 42.630424,58.493125 c -0.732802,0.23578 -1.511569,0.275348 -2.251683,0.473181 -0.40588,0.27082 0.04633,0.78903 0.07888,1.146132 0.434803,1.268736 0.816869,2.574725 1.360594,3.794674 0.361342,0.219257 0.813851,-0.03793 1.171928,-0.158183 0.281935,-0.360934 -0.11306,-0.819857 -0.173143,-1.20548 -0.303185,-0.885834 -0.185486,-1.848637 -0.15372,-2.76706 -0.01,-0.415675 0.509916,-0.908856 0.127765,-1.258168 -0.05056,-0.02332 -0.105903,-0.03023 -0.160618,-0.02511 z"
     id="path31877" />
  <path
     style="fill:#ffcc00;stroke-width:0.319288;stroke-linecap:round;stroke-linejoin:round;paint-order:markers stroke fill"
     d="m 44.121458,64.432313 c -0.531756,0.180061 -0.607618,0.875508 -0.768408,1.341063 -0.409249,1.374457 0.259994,2.961685 1.562977,3.583773 1.460893,0.731559 3.207451,0.655487 4.752356,0.256744 0.963209,-0.235615 1.857737,-0.907382 2.095477,-1.908851 0.25674,-1.002743 0.257899,-2.12377 -0.138259,-3.087776 -0.340916,-0.421218 -0.861286,0.05015 -1.267294,0.124872 -1.952588,0.55573 -4.139882,0.494052 -6.041096,-0.2861 -0.06395,-0.0151 -0.12976,-0.02732 -0.195753,-0.02373 z"
     id="path31879" />
  <path
     style="fill:#ffcc00;stroke-width:0.319288;stroke-linecap:round;stroke-linejoin:round;paint-order:markers stroke fill"
     d="m 59.053237,64.574982 c -1.880816,0.7994 -4.0377,0.98081 -6.012348,0.381466 -0.558183,0.04353 -0.211685,0.724192 -0.257353,1.096335 0.03194,0.928469 -0.214108,1.831358 -0.507709,2.70205 0.06902,0.44121 0.592337,0.643138 0.931611,0.868491 1.358824,0.680956 2.966072,0.555995 4.408609,0.261458 0.606114,-0.382613 0.805848,-1.156273 1.231077,-1.704533 0.38768,-0.70339 0.942114,-1.350275 1.179095,-2.120925 -0.123072,-0.554364 -0.390465,-1.14077 -0.836396,-1.496662 l -0.07756,0.0069 z"
     id="path31881" />
  <path
     style="fill:#ffcc00;stroke-width:0.319288;stroke-linecap:round;stroke-linejoin:round;paint-order:markers stroke fill"
     d="m 64.77249,58.430154 c -1.33155,0.310743 -2.721095,0.322459 -4.05878,0.02479 -0.451833,0.0071 -0.293275,0.516721 -0.151035,0.764149 0.446132,1.243507 0.374039,2.616962 -0.03316,3.859074 0.05261,0.426655 0.625394,0.471228 0.972829,0.523679 0.488441,-0.07324 0.608146,-0.695824 0.922178,-1.002343 0.854019,-1.293739 1.80274,-2.528474 2.634826,-3.833667 0.04943,-0.165226 -0.111453,-0.366725 -0.28686,-0.335683 z"
     id="path31883" />
  <path
     style="fill:#ffcc00;stroke-width:0.319288;stroke-linecap:round;stroke-linejoin:round;paint-order:markers stroke fill"
     d="m 50.855673,70.037643 c -1.24176,0.527033 -2.591176,0.775532 -3.939383,0.661938 -0.543479,0.01673 -1.067793,-0.205964 -1.603738,-0.194079 -0.434714,0.288177 0.111761,0.748344 0.237851,1.067223 0.715428,1.151157 1.441709,2.314167 2.254284,3.389783 0.66831,0.160887 1.419206,0.03446 2.097624,-0.123226 0.853966,-0.204595 1.803428,-0.695716 1.947333,-1.654388 0.211315,-1.082255 -0.02553,-2.351175 -0.823373,-3.136747 -0.04402,-0.05262 -0.115746,6.81e-4 -0.170598,-0.01056 z"
     id="path31885" />
  <path
     style="fill:#ffcc00;stroke-width:0.319288;stroke-linecap:round;stroke-linejoin:round;paint-order:markers stroke fill"
     d="m 52.665507,70.346101 c -0.490987,0.16457 -0.07831,0.71737 -0.03742,1.048119 0.132736,0.986356 0.138596,2.044725 -0.373709,2.932635 -0.221185,0.55221 0.515644,0.726274 0.890088,0.882026 0.461523,0.1191 0.951484,0.423721 1.423805,0.295529 0.848449,-1.366281 1.619036,-2.787982 2.385683,-4.203579 0.101046,-0.492447 -0.542942,-0.405654 -0.846282,-0.386029 -1.132381,0.05746 -2.294775,-0.164443 -3.369465,-0.56931 z"
     id="path31887" />
  <path
     style="fill:#ffcc00;stroke-width:0.319288;stroke-linecap:round;stroke-linejoin:round;paint-order:markers stroke fill"
     d="m 52.64832,75.940328 c -0.461267,0.03282 -0.799109,0.548711 -0.592125,0.977088 0.122262,0.763356 -0.02748,1.534932 -0.06357,2.303246 0.03993,0.380057 0.591858,0.390727 0.670151,0.02159 0.451261,-0.909694 0.998778,-1.795412 1.335286,-2.749464 -0.184508,-0.42173 -0.778195,-0.357682 -1.155128,-0.523405 -0.06317,-0.01789 -0.128471,-0.03283 -0.194608,-0.02906 z"
     id="path31889" />
  <path
     style="fill:#ffcc00;stroke-width:0.319288;stroke-linecap:round;stroke-linejoin:round;paint-order:markers stroke fill"
     d="m 50.018058,75.655597 c -0.380625,0.100802 -0.925323,0.01858 -1.157022,0.396068 -0.04783,0.480142 0.505136,0.751184 0.731357,1.121262 0.433781,0.428085 0.759987,0.998914 1.28579,1.318418 0.479705,0.109737 0.466695,-0.528733 0.420403,-0.835484 0.0028,-0.803426 -0.347644,-1.907535 -1.280528,-2.000264 z"
     id="path31891" />
  <path
     style="fill:#ffcc00;stroke-width:0.0856178;stroke-linecap:round;stroke-linejoin:round;paint-order:markers stroke fill"
     d="m 60.705238,64.24955 c -0.187459,0.0068 -0.425859,0.103524 -0.406147,0.327021 0.05607,0.148197 0.121504,0.311368 0.249244,0.412712 0.159418,0.09057 0.339173,-0.01118 0.4108,-0.163737 0.114577,-0.132306 0.183559,-0.357784 0.02474,-0.485989 -0.07548,-0.06186 -0.181737,-0.09114 -0.278634,-0.09001 z"
     id="path31893" />
  <path
     style="fill:#37c837;fill-opacity:1;stroke-width:0.421192;stroke-linecap:round;stroke-linejoin:round;paint-order:markers stroke fill"
     d="m 47.147516,94.171821 c -0.251323,0.810241 -0.07971,1.725819 -0.149927,2.573656 0.01545,1.650106 -0.05648,3.322083 0.03596,4.957843 0.427143,0.34823 1.118732,0.0537 1.656121,0.0438 2.52218,-0.37089 5.158469,-0.83752 7.319494,-2.27169 0.761793,-0.374662 0.317612,-1.336935 0.434996,-2.00002 -0.06843,-0.903672 0.140306,-1.869417 -0.134632,-2.738993 -0.358909,-0.317779 -0.875177,0.102458 -1.293752,0.05318 -2.577309,0.254214 -5.170882,-0.09181 -7.686474,-0.693024 l -0.09492,0.0393 z"
     id="path31895" />
  <path
     style="fill:#37c837;fill-opacity:1;stroke-width:0.421192;stroke-linecap:round;stroke-linejoin:round;paint-order:markers stroke fill"
     d="m 56.802107,90.158336 c -3.099822,0.528469 -6.257769,0.414758 -9.377172,0.147686 -0.623668,0.01808 -1.642731,-0.283553 -1.923101,0.493575 -0.281138,1.023633 0.419069,2.151791 1.468513,2.343321 2.209249,0.625008 4.504952,0.994643 6.80583,0.873396 1.060606,-0.04666 2.51948,0.113959 3.080103,-1.030702 0.370622,-0.798987 0.683041,-1.80227 0.336683,-2.655122 -0.08495,-0.125836 -0.240056,-0.196198 -0.390856,-0.172154 z"
     id="path32035" />
  <path
     style="fill:#37c837;stroke-width:0.421192;stroke-linecap:round;stroke-linejoin:round;paint-order:markers stroke fill"
     d="m 72.235848,59.873525 c -0.928329,1.35287 -1.55659,2.907682 -2.3965,4.32265 -3.953759,7.127784 -8.518011,13.988118 -14.148356,19.910418 -1.737168,1.771314 -3.742546,3.27489 -5.948546,4.39302 -0.51509,0.315961 -0.315423,1.277544 0.357949,1.17718 4.062646,0.239087 8.349133,-0.169561 11.900816,-2.318112 3.749949,-2.203764 6.068837,-6.147406 7.416592,-10.174991 1.890395,-5.531209 2.350924,-11.410746 3.214115,-17.146238 -0.0843,-0.1917 -0.202242,-0.235061 -0.39607,-0.163927 z"
     id="path32175" />
  <path
     style="fill:#37c837;stroke-width:0.421192;stroke-linecap:round;stroke-linejoin:round;paint-order:markers stroke fill"
     d="m 75.633956,48.774096 c -2.457644,1.675095 -4.488717,3.89137 -6.504727,6.058122 -4.094254,4.945665 -7.575387,10.366887 -10.893119,15.853615 -3.017961,5.107265 -5.908466,10.329153 -8.028771,15.881176 -0.212324,0.319079 0.102379,0.810115 0.456464,0.521073 2.965706,-1.783685 5.352186,-4.349741 7.554312,-6.982553 6.423732,-7.980787 11.750233,-16.854453 15.692845,-26.312761 0.610218,-1.612321 1.340344,-3.158518 2.072919,-4.713492 0.03944,-0.200146 -0.154456,-0.376052 -0.349923,-0.30518 z"
     id="path32177" />
  <path
     style="fill:#37c837;stroke-width:0.421192;stroke-linecap:round;stroke-linejoin:round;paint-order:markers stroke fill"
     d="m 24.342915,18.01135 c -0.506771,0.186663 -0.01984,0.739881 0.0012,1.084985 2.353391,8.599473 3.528387,17.454178 4.517279,26.295505 0.835864,7.448412 2.088688,14.932664 4.803291,21.95148 2.504904,6.500539 6.61214,12.541895 12.419257,16.511165 1.04931,0.714473 2.123746,1.406314 3.257993,1.97636 0.568781,-0.04334 0.539001,-0.852196 0.808997,-1.230549 0.520275,-1.266037 1.176422,-2.495264 1.64709,-3.768283 C 51.364674,80.083288 50.560428,79.510434 49.99992,78.811362 46.954628,75.445158 44.407407,71.647083 42.499433,67.524354 39.558007,61.67441 38.029465,55.268701 37.232236,48.802772 36.513745,42.774543 35.702435,36.6495 33.319065,31.01041 31.562797,26.826314 29.375881,22.717136 26.1901,19.439072 25.620466,18.945476 25.109984,18.305279 24.405115,18.010549 Z"
     id="path32179" />
  <path
     style="fill:#37c837;stroke-width:0.421192;stroke-linecap:round;stroke-linejoin:round;paint-order:markers stroke fill"
     d="m 30.742858,62.093853 c -0.504746,0.181927 -0.134078,0.862178 -0.177771,1.247804 0.774253,5.834476 1.661698,11.795711 4.256328,17.143183 1.619273,3.307452 4.252791,6.261773 7.738977,7.625524 1.777215,0.728111 3.668856,1.231891 5.580513,1.403706 0.72524,-0.110004 0.522881,-1.043198 0.76947,-1.545161 0.05308,-0.467256 0.652077,-1.158506 0.0018,-1.426383 -5.974962,-2.957345 -10.617555,-8.160195 -13.68472,-13.997928 -1.758239,-3.249043 -2.973246,-6.754225 -4.186639,-10.235254 -0.05173,-0.123937 -0.155547,-0.21684 -0.297957,-0.215491 z"
     id="path32181" />
  <path
     style="fill:#37c837;stroke-width:0.421192;stroke-linecap:round;stroke-linejoin:round;paint-order:markers stroke fill"
     d="m 75.822963,14.972195 c -1.42529,0.638174 -2.680474,1.628651 -4.000041,2.462506 -1.592222,1.123511 -3.256138,2.203605 -4.616619,3.607779 -0.350579,0.518018 0.183955,1.122912 0.16473,1.684207 0.21446,0.970667 -0.107415,1.949018 -0.623603,2.769289 0.05205,0.562257 0.673719,0.935092 0.839095,1.499213 0.597562,1.337106 0.752219,3.046314 -0.182187,4.288164 -0.61169,0.397441 -0.168145,0.913243 0.212684,1.264059 0.856805,1.06234 0.75653,2.541799 0.555783,3.802404 -0.116067,0.744651 -0.776357,1.209633 -1.101534,1.823053 0.940774,1.0365 1.570128,2.495342 1.301778,3.921587 -0.113638,0.901616 -0.639681,1.742502 -1.22844,2.421273 0.07643,0.504827 0.611093,0.894093 0.771172,1.418652 0.763892,1.712796 0.555119,3.986199 -0.896477,5.275535 -0.180447,0.508116 0.464217,0.893399 0.561803,1.39889 0.283937,0.617235 0.244496,1.335024 0.487765,1.945645 0.61275,0.03569 0.877557,-0.822176 1.333381,-1.169671 0.457377,-0.477232 0.954649,-0.963196 0.840443,-1.686423 0.73309,-8.108577 2.126336,-16.154112 3.53932,-24.178386 0.713917,-4.101934 1.590458,-8.174037 2.335492,-12.270886 -0.0051,-0.140815 -0.137132,-0.304606 -0.294545,-0.27689 z"
     id="path32183" />
  <path
     style="fill:#37c837;stroke-width:0.421192;stroke-linecap:round;stroke-linejoin:round;paint-order:markers stroke fill"
     d="m 32.572331,-3.402385 c -0.492892,0.222551 -0.134415,0.9246357 -0.197498,1.3423918 0.816244,8.2113791 0.454917,16.4823852 0.01182,24.7133672 -0.0431,1.306719 -0.15062,2.622157 -0.0964,3.925277 1.224557,2.282924 2.106702,4.760955 2.98776,7.185054 0.428337,0.262754 0.710846,-0.432324 1.112804,-0.575238 0.426933,-0.456174 -0.332223,-0.865063 -0.519869,-1.258438 -1.036944,-1.594197 -0.749539,-3.878769 0.636442,-5.178824 0.410986,-0.478135 -0.342713,-0.810855 -0.41493,-1.264057 -0.799848,-1.666383 -0.265603,-3.894195 1.310205,-4.899126 0.237276,-0.621399 -0.536922,-1.138776 -0.41714,-1.793557 -0.09699,-1.031324 0.03802,-2.15995 0.826654,-2.910343 0.30154,-0.330762 1.022755,-0.550164 0.644913,-1.100365 -0.421112,-1.138926 -0.554128,-2.553927 0.132982,-3.614769 0.380652,-0.583219 0.950027,-1.0311 1.59656,-1.2579595 C 40.372281,9.4734897 39.898117,8.9578848 40.032911,8.4518662 40.056188,7.5224888 40.603784,6.7447544 41.1198,6.0114316 41.07602,5.4104037 40.444741,4.9990281 40.159083,4.4885327 38.028695,1.7144965 35.731626,-0.96896588 33.03886,-3.2139808 32.901146,-3.3070531 32.749557,-3.425614 32.572363,-3.402385 Z"
     id="path32185" />
</svg>
