<?xml version="1.0" encoding="UTF-8" standalone="no"?>
<svg
   version="1.1"
   x="0px"
   y="0px"
   viewBox="0 0 100 125"
   style="enable-background:new 0 0 100 100;"
   xml:space="preserve"
   id="svg17195"
   sodipodi:docname="sweetcorn.svg"
   inkscape:version="1.2.2 (b0a8486541, 2022-12-01)"
   xmlns:inkscape="http://www.inkscape.org/namespaces/inkscape"
   xmlns:sodipodi="http://sodipodi.sourceforge.net/DTD/sodipodi-0.dtd"
   xmlns="http://www.w3.org/2000/svg"
   xmlns:svg="http://www.w3.org/2000/svg"><defs
     id="defs17199"><inkscape:path-effect
       effect="fill_between_many"
       method="originald"
       linkedpaths="#path17189,0,1|"
       id="path-effect17318" /><inkscape:path-effect
       effect="fill_between_many"
       method="originald"
       linkedpaths="#path17320,0,1|"
       id="path-effect17397" /></defs><sodipodi:namedview
     id="namedview17197"
     pagecolor="#ffffff"
     bordercolor="#000000"
     borderopacity="0.25"
     inkscape:showpageshadow="2"
     inkscape:pageopacity="0.0"
     inkscape:pagecheckerboard="0"
     inkscape:deskcolor="#d1d1d1"
     showgrid="false"
     inkscape:zoom="6.304"
     inkscape:cx="50.206218"
     inkscape:cy="62.5"
     inkscape:window-width="1857"
     inkscape:window-height="1011"
     inkscape:window-x="0"
     inkscape:window-y="0"
     inkscape:window-maximized="1"
     inkscape:current-layer="svg17195" /><path
     inkscape:original-d="M 0,0"
     inkscape:path-effect="#path-effect17318"
     d="m 59.193551,20.790694 c -1.099999,-1.5 -3,-2.4 -5.599999,-2.4 -0.6,0 -1.3,0 -1.900001,0.2 0.100001,-0.3 0.100001,-0.6 0.100001,-0.9 0.1,-1.2 -0.3,-2.2 -0.900001,-2.9 0.5,-0.6 0.8,-1.5 0.900001,-2.6 0.1,-1.3 -0.3,-2.4 -1.100001,-3.1 0.5,-0.7 0.7,-1.6 0.600001,-2.7 -0.100001,-1.2 -0.5,-2.2 -1.2,-2.8 0.399999,-0.7 0.7,-1.6 0.599999,-2.6 -0.1,-1.3 -0.599999,-2.3 -1.399999,-3 0.399999,-0.8 0.5,-1.8 0.3,-2.9 -0.3,-1.2 -0.900001,-2.1 -1.600001,-2.6 0.3,-0.7 0.4,-1.7 0.2,-2.7 -0.3,-1.3 -1,-2.3 -1.899999,-2.7 0.2,-0.9 0.1,-2 -0.5,-3 -0.600001,-1.2 -1.400001,-1.9 -2.300001,-2.2 0.100001,-0.8 -0.1,-1.7 -0.6,-2.6 -0.799999,-1.5 -2.2,-2.3 -3.5,-2.2 -0.799999,-1.1 -2.4,-1.5 -4.099999,-1 -1.400001,0.4 -2.300001,1.2 -2.7,2.2 -1.200001,0 -2.4,0.8 -3.200001,2.2 -0.5,0.9 -0.7,1.8 -0.6,2.6 -0.9,0.3 -1.7,1 -2.3,2.1 -0.6,1.1 -0.7,2.1 -0.5,3 -0.9,0.5 -1.6,1.5 -1.9,2.7 -0.2,1 -0.2,2 0.200001,2.7 -0.8,0.5 -1.4,1.4 -1.6,2.6 -0.200001,1.1 -0.100001,2.1 0.299999,2.9 -0.799999,0.6 -1.299999,1.7 -1.4,3 -0.1,1 0.100001,1.9 0.600001,2.6 -0.700001,0.6 -1.100001,1.6 -1.200001,2.8 -0.1,1.1 0.200001,2 0.6,2.7 -0.7,0.7 -1.1,1.8 -1.1,3.1 0.1,1 0.4,1.9 0.9,2.6 -0.6,0.7 -0.9,1.7 -0.9,2.9 0.1,1.1 0.4,2 1,2.7 -0.4,0.5 -0.6,1.3 -0.7,2.1 0,0.7 0.1,1.5 0.3,2.3 -1.4,0.1 -2.6,0.7 -3.5,1.8 -3.1,3.6 -2.4,11.1 -2.4,11.4 0,0.5 0.5,0.9 1,0.9 0.5,0 0.9,-0.4 1,-0.9 0.2,-1.9 2.1,-6.2 3,-6.6 0.1,0.1 0.2,0.3 0.4,0.7 1.5,3.7 2.6,12.5 3.1,23.6 0.3,6.8 2.2,8.8 6.6,9.4 0,0 0,0 0,0 0.5,2.2 0.7,4.4 0.8,6.6 0,0.5 0.5,1 1,1 h 6.500001 c 0.5,0 0.899999,-0.4 1,-0.9 0.2,-1.4 0.599999,-5.2 1.2,-6.9 1.2,-0.4 2.099999,-0.9 2.7,-1.6 0.2,-0.2 0.3,-0.5 0.5,-0.8 2.7,-4.5 7,-23.5 7.8,-32.6 0.399999,-4.5 2.099999,-6.7 3.5,-6.9 1,-0.1 2,0.8 2.599999,2.4 0.1,0.4 0.5,0.7 1,0.7 0.400001,0 0.8,-0.3 0.900001,-0.7 0.1,-0.2 1.099999,-3.3 -0.600001,-5.7 z"
     id="path17320"
     class="UnoptimicedTransforms"
     transform="translate(10.942333,36.156358)"
     style="fill:#ffff00" /><path
     inkscape:original-d="M 0,0"
     inkscape:path-effect="#path-effect17397"
     d="M 10.942333,36.156358 Z"
     id="path17399"
     class="UnoptimicedTransforms" /><path
     d="m 70.6,45.9 c -1.1,-1.5 -3,-2.4 -5.6,-2.4 -0.6,0 -1.3,0 -1.9,0.2 0.1,-0.3 0.1,-0.6 0.1,-0.9 0.1,-1.2 -0.3,-2.2 -0.9,-2.9 0.5,-0.6 0.8,-1.5 0.9,-2.6 0.1,-1.3 -0.3,-2.4 -1.1,-3.1 0.5,-0.7 0.7,-1.6 0.6,-2.7 -0.1,-1.2 -0.5,-2.2 -1.2,-2.8 0.4,-0.7 0.7,-1.6 0.6,-2.6 -0.1,-1.3 -0.6,-2.3 -1.4,-3 0.4,-0.8 0.5,-1.8 0.3,-2.9 -0.3,-1.2 -0.9,-2.1 -1.6,-2.6 0.3,-0.7 0.4,-1.7 0.2,-2.7 -0.3,-1.3 -1,-2.3 -1.9,-2.7 0.2,-0.9 0.1,-2 -0.5,-3 C 56.6,8 55.8,7.3 54.9,7 55,6.2 54.8,5.3 54.3,4.4 53.5,2.9 52.1,2.1 50.8,2.2 50,1.1 48.4,0.7 46.7,1.2 45.3,1.6 44.4,2.4 44,3.4 c -1.2,0 -2.4,0.8 -3.2,2.2 -0.5,0.9 -0.7,1.8 -0.6,2.6 -0.9,0.3 -1.7,1 -2.3,2.1 -0.6,1.1 -0.7,2.1 -0.5,3 -0.9,0.5 -1.6,1.5 -1.9,2.7 -0.2,1 -0.2,2 0.2,2.7 -0.8,0.5 -1.4,1.4 -1.6,2.6 -0.2,1.1 -0.1,2.1 0.3,2.9 -0.8,0.6 -1.3,1.7 -1.4,3 -0.1,1 0.1,1.9 0.6,2.6 -0.7,0.6 -1.1,1.6 -1.2,2.8 -0.1,1.1 0.2,2 0.6,2.7 -0.7,0.7 -1.1,1.8 -1.1,3.1 0.1,1 0.4,1.9 0.9,2.6 -0.6,0.7 -0.9,1.7 -0.9,2.9 0.1,1.1 0.4,2 1,2.7 -0.4,0.5 -0.6,1.3 -0.7,2.1 0,0.7 0.1,1.5 0.3,2.3 -1.4,0.1 -2.6,0.7 -3.5,1.8 -3.1,3.6 -2.4,11.1 -2.4,11.4 0,0.5 0.5,0.9 1,0.9 0.5,0 0.9,-0.4 1,-0.9 0.2,-1.9 2.1,-6.2 3,-6.6 0.1,0.1 0.2,0.3 0.4,0.7 1.5,3.7 2.6,12.5 3.1,23.6 0.3,6.8 2.2,8.8 6.6,9.4 0,0 0,0 0,0 0.5,2.2 0.7,4.4 0.8,6.6 0,0.5 0.5,1 1,1 H 50 c 0.5,0 0.9,-0.4 1,-0.9 0.2,-1.4 0.6,-5.2 1.2,-6.9 1.2,-0.4 2.1,-0.9 2.7,-1.6 0.2,-0.2 0.3,-0.5 0.5,-0.8 2.7,-4.5 7,-23.5 7.8,-32.6 0.4,-4.5 2.1,-6.7 3.5,-6.9 1,-0.1 2,0.8 2.6,2.4 0.1,0.4 0.5,0.7 1,0.7 0.4,0 0.8,-0.3 0.9,-0.7 0.1,-0.2 1.1,-3.3 -0.6,-5.7 z M 37.7,16.5 c 0.1,-0.6 0.6,-1.7 1.5,-1.5 0.5,0.1 1.1,-0.3 1.2,-0.8 0.1,-0.4 -0.2,-0.9 -0.5,-1 0,0 0,0 0,0 -0.4,-0.3 -0.3,-1.2 0.1,-1.9 0.3,-0.5 1,-1.5 1.8,-1.1 0,0 0,0 0.1,0 0.1,0 0.2,0.1 0.3,0.1 0,0 0,0 0.1,0 0,0 0,0 0,0 0.1,0 0.2,0 0.3,-0.1 0,0 0,0 0.1,0 0.1,0 0.2,-0.1 0.3,-0.1 0,0 0,0 0,0 0.1,-0.1 0.1,-0.1 0.2,-0.2 0,0 0,0 0,0 0,0 0,0 0,0 0,0 0,-0.1 0,-0.1 0,-0.1 0,-0.1 0,-0.2 0,-0.1 0,-0.1 0,-0.2 0,-0.1 0,-0.1 0,-0.2 0,-0.1 0,-0.1 -0.1,-0.2 C 43.1,8.9 43,8.9 43,8.8 43,8.7 42.9,8.7 42.9,8.7 c 0,0 -0.1,-0.1 -0.1,-0.1 -0.4,-0.3 -0.3,-1.2 0.1,-1.9 0.3,-0.5 1,-1.5 1.8,-1.1 0,0 0,0 0,0 0.1,0.1 0.3,0.1 0.5,0.1 0.1,0 0.2,0 0.2,0 C 45.9,5.6 46.3,5 46.1,4.5 46,4 46.7,3.5 47.5,3.2 c 0.6,-0.2 1.7,-0.3 2,0.5 0,0.1 0,0.1 0,0.2 0.2,0.5 0.8,0.7 1.2,0.5 0,0 0,0 0,0 0,0 0,0 0,0 0,0 0.1,0 0.1,0 0.8,-0.4 1.5,0.5 1.8,1.1 0.4,0.5 0.5,1.4 0.1,1.7 0,0 -0.1,0.1 -0.1,0.1 -0.1,0 -0.1,0.1 -0.1,0.1 0,0.1 -0.1,0.1 -0.1,0.2 0,0.1 -0.1,0.1 -0.1,0.2 0,0.1 0,0.1 0,0.2 0,0.1 0,0.1 0,0.2 0,0.1 0,0.1 0,0.2 0,0 0,0.1 0,0.1 0,0 0,0 0,0 0,0 0,0 0,0 0.1,0.1 0.1,0.2 0.2,0.2 0,0 0,0 0,0 0.1,0.1 0.2,0.1 0.3,0.2 0,0 0,0 0.1,0 C 53,9 53.1,9 53.2,9 c 0,0 0,0 0,0 0,0 0,0 0.1,0 0.1,0 0.2,0 0.3,-0.1 0,0 0,0 0.1,0 0.8,-0.4 1.5,0.5 1.8,1.1 0.4,0.7 0.5,1.6 0.1,1.9 0,0 0,0 0,0 -0.4,0.2 -0.6,0.6 -0.5,1 0.1,0.5 0.6,0.9 1.2,0.8 0.9,-0.2 1.3,0.9 1.5,1.5 0.2,0.8 0.1,1.7 -0.4,1.8 -0.1,0 -0.1,0 -0.1,0.1 -0.1,0 -0.1,0.1 -0.2,0.1 -0.1,0 -0.1,0.1 -0.1,0.1 0,0 -0.1,0.1 -0.1,0.1 0,0.1 -0.1,0.1 -0.1,0.2 0,0.1 0,0.1 -0.1,0.2 0,0.1 0,0.1 0,0.2 0,0.1 0,0.1 0,0.2 0,0 0,0 0,0 0,0 0,0 0,0 0,0.1 0.1,0.1 0.1,0.2 0,0 0,0.1 0,0.1 0.1,0.1 0.2,0.2 0.2,0.3 0,0 0.1,0 0.1,0 0.1,0 0.2,0.1 0.2,0.1 0,0 0.1,0 0.1,0 0,0 0.1,0 0.1,0 0,0 0.1,0 0.1,0 0,0 0,0 0.1,0 0.9,-0.1 1.3,0.9 1.5,1.5 0.2,0.8 0.1,1.7 -0.4,1.8 0,0 -0.1,0 -0.1,0 0,0 -0.1,0 -0.1,0.1 -0.1,0 -0.2,0.1 -0.2,0.2 0,0 0,0 0,0.1 -0.3,0.2 -0.4,0.3 -0.4,0.4 0,0 0,0 0,0 0,0.1 -0.1,0.2 -0.1,0.3 0,0 0,0 0,0 0,0 0,0 0,0 0,0.1 0,0.1 0,0.2 0,0 0,0.1 0.1,0.1 0,0 0,0 0,0 0.1,0.1 0.1,0.2 0.2,0.3 0,0 0,0 0,0 0.1,0.1 0.2,0.1 0.3,0.2 0,0 0,0 0,0 0.1,0 0.2,0.1 0.4,0.1 0,0 0,0 0,0 0,0 0,0 0,0 0,0 0,0 0,0 0.8,0 1.1,1.1 1.2,1.7 0.1,0.8 -0.2,1.7 -0.7,1.7 -0.1,0 -0.1,0 -0.1,0 -0.1,0 -0.1,0 -0.2,0.1 0,0.2 -0.1,0.3 -0.1,0.3 -0.1,0 -0.1,0.1 -0.1,0.1 0,0 -0.1,0.1 -0.1,0.2 0,0.1 -0.1,0.1 -0.1,0.2 0,0.1 0,0.1 0,0.2 0,0.1 0,0.1 0,0.1 0,0 0,0 0,0 0,0 0,0 0,0 0,0.1 0,0.1 0,0.2 0,0.1 0,0.1 0,0.2 0,0.1 0.1,0.1 0.1,0.2 0,0 0.1,0.1 0.1,0.1 0.1,0.1 0.1,0.1 0.2,0.1 0,0 0.1,0.1 0.1,0.1 0.1,0 0.2,0.1 0.4,0.1 0,0 0,0 0,0 0,0 0,0 0,0 0,0 0,0 0,0 0.8,0 1.1,1.1 1.2,1.7 0.1,0.8 -0.2,1.7 -0.7,1.7 -0.5,0.1 -0.9,0.6 -0.9,1.1 0.1,0.5 0.5,0.9 1,0.9 0,0 0,0 0.1,0 0.8,0.1 1,1.3 1,1.9 0,0.8 -0.4,1.6 -0.9,1.6 0,0 -0.1,0 -0.1,0 -0.1,0 -0.1,0 -0.2,0 -0.1,0 -0.1,0 -0.1,0.1 -0.1,0 -0.1,0.1 -0.2,0.1 0,0 -0.1,0.1 -0.1,0.1 0,0.1 -0.1,0.1 -0.1,0.2 0,0.1 0,0.1 -0.1,0.2 0,0.1 0,0.1 0,0.1 0,0 0,0 0,0 0,0 0,0 0,0 0,0.1 0,0.1 0,0.1 0,0.1 0,0.1 0,0.2 0,0.1 0.1,0.1 0.1,0.2 0,0.1 0.1,0.1 0.1,0.2 0,0 0.1,0.1 0.1,0.1 0.1,0 0.1,0.1 0.2,0.1 0.1,0 0.1,0 0.2,0.1 0,0 0.1,0 0.1,0 0.9,0.1 1,1.3 1,1.9 0,0.8 -0.4,1.6 -0.9,1.6 -0.5,0 -1,0.4 -1,1 -1.6,1.1 -3.1,2.6 -4.4,4.5 0,0 0,-0.2 0,-0.5 0.1,-1.1 -0.1,-2.1 -0.6,-2.8 0.7,-0.7 1.1,-1.8 1.1,-3.1 0,-1 -0.3,-1.9 -0.8,-2.6 0.6,-0.7 1,-1.7 0.9,-2.9 0,-1.1 -0.4,-2 -0.9,-2.6 0.6,-0.8 0.9,-1.9 0.7,-3.2 -0.2,-1 -0.6,-1.9 -1.1,-2.4 0.5,-0.8 0.8,-1.8 0.6,-3 -0.2,-1.1 -0.7,-2 -1.3,-2.6 0.5,-0.8 0.7,-1.8 0.4,-3 -0.2,-1.1 -0.7,-1.9 -1.3,-2.4 0.2,-0.4 0.4,-0.8 0.4,-1.2 0.2,-1.6 -0.5,-3.4 -1.7,-4.3 -0.5,-0.3 -1.1,-0.2 -1.4,0.2 -0.3,0.4 -0.2,1.1 0.2,1.4 0.6,0.4 1,1.6 0.9,2.4 -0.1,0.7 -0.5,0.8 -0.6,0.9 0,0 0,0 0,0 -0.5,0.1 -0.8,0.6 -0.7,1.1 0.1,0.5 0.6,0.9 1.1,0.8 0.5,-0.1 1,0.7 1.1,1.5 0.1,0.6 0.1,1.8 -0.7,2 -0.5,0.1 -0.9,0.7 -0.7,1.2 0.1,0.5 0.5,0.8 1,0.8 0,0 0.1,0 0.1,0 0.1,0 0.1,0 0.2,0 0.5,-0.1 0.9,0.8 1.1,1.5 0.1,0.6 0,1.8 -0.8,2 -0.1,0 -0.1,0 -0.1,0.1 -0.1,0 -0.1,0 -0.2,0.1 -0.1,0 -0.1,0.1 -0.1,0.1 0,0 -0.1,0.1 -0.1,0.1 0,0.1 -0.1,0.1 -0.1,0.2 0,0.1 -0.1,0.1 -0.1,0.2 0,0.1 0,0.1 0,0.2 0,0.1 0,0.1 0,0.1 0,0 0,0 0,0 0,0 0,0 0,0 0,0.1 0,0.1 0.1,0.2 0,0 0,0.1 0,0.1 0,0.1 0.1,0.1 0.2,0.2 0,0 0.1,0.1 0.1,0.1 0.1,0.1 0.2,0.1 0.2,0.1 0,0 0.1,0 0.1,0 0.1,0 0.1,0 0.2,0 0,0 0.1,0 0.1,0 0,0 0,0 0,0 0.5,-0.1 0.9,0.8 1.1,1.5 0.1,0.6 0,1.8 -0.8,2 0,0 0,0 0,0 -0.5,0 -0.9,0.4 -0.9,1 0,0.6 0.4,1 1,1 0.5,0 0.8,0.9 0.9,1.6 0,0.6 -0.2,1.8 -1,1.9 -0.1,0 -0.1,0 -0.2,0 -0.1,0 -0.1,0 -0.2,0 -0.1,0 -0.1,0.1 -0.2,0.1 0,0 -0.1,0 -0.1,0.1 -0.1,0.1 -0.1,0.1 -0.1,0.2 0,0 -0.1,0.1 -0.1,0.1 0,0.1 0,0.1 0,0.2 0,0 0,0.1 0,0.1 0,0 0,0 0,0 0,0 0,0 0,0 0,0.1 0,0.1 0,0.2 0,0.1 0,0.1 0,0.2 0,0.1 0.1,0.1 0.1,0.2 0,0 0.1,0.1 0.1,0.1 0.1,0.1 0.1,0.1 0.2,0.1 0,0 0.1,0.1 0.1,0.1 0.1,0 0.2,0 0.3,0.1 0,0 0.1,0 0.1,0 0.5,0 0.8,0.9 0.9,1.6 0,0.6 -0.2,1.8 -1,1.9 0,0 -0.1,0 -0.1,0 -0.1,0 -0.1,0 -0.2,0.1 0,0 -0.1,0 -0.1,0.1 -0.1,0 -0.1,0.1 -0.2,0.2 0,0 -0.1,0 -0.1,0.1 -0.1,0.1 -0.1,0.2 -0.1,0.3 0,0 0,0 0,0.1 0,0 0,0.1 0,0.1 0,0.1 0,0.1 0,0.2 0,0 0,0 0,0 0,0 0,0 0,0 0,0.1 0,0.2 0.1,0.3 0,0 0,0 0,0 0,0.1 0.1,0.2 0.2,0.2 0,0 0,0 0.1,0.1 0.1,0.1 0.1,0.1 0.2,0.1 0,0 0.1,0 0.1,0 0,0 0.1,0 0.1,0 0.5,0.1 0.7,1 0.6,1.8 -0.1,0.6 -0.4,1.7 -1.2,1.7 0,0 0,0 -0.1,0 -0.1,0 -0.1,0 -0.2,0 0,0 0,0 0,0 -0.5,-0.1 -1.1,0.3 -1.2,0.8 -0.1,0.5 0.3,1.1 0.8,1.2 0.2,0 0.3,0.2 0.5,0.4 0.3,0.5 0.4,1.4 0.2,2 0,0 0,0 0,0 -1.5,3.3 -2.8,7.1 -3.7,11.5 -1.2,-2.1 -2.5,-4.1 -3.8,-5.9 0,0 0,0 0,0 -0.3,-0.7 -0.3,-1.7 0,-2.2 0.1,-0.3 0.3,-0.3 0.4,-0.3 0.1,0 0.1,0 0.2,-0.1 0,0 0.1,0 0.1,-0.1 0.1,0 0.2,-0.1 0.2,-0.2 0,0 0,0 0.1,-0.1 0.1,-0.1 0.1,-0.2 0.2,-0.2 0,0 0,0 0,-0.1 0,-0.1 0,-0.2 0,-0.3 0,0 0,0 0,-0.1 0,0 0,0 0,0 0,0 0,-0.1 0,-0.1 0,-0.1 0,-0.1 -0.1,-0.2 0,0 0,-0.1 0,-0.1 0,-0.1 -0.1,-0.2 -0.2,-0.2 0,0 -0.1,-0.1 -0.1,-0.1 -0.1,0 -0.1,-0.1 -0.2,-0.1 C 45.1,56 45,56 45,56 c -0.1,0 -0.1,0 -0.2,0 -0.1,0 -0.1,0 -0.2,0 -0.8,0 -1.2,-1.1 -1.2,-1.7 -0.1,-0.8 0.2,-1.7 0.7,-1.7 0.1,0 0.1,0 0.1,-0.1 0.1,0 0.1,0 0.2,-0.1 0,0 0.1,-0.1 0.1,-0.1 0.1,-0.1 0.1,-0.1 0.2,-0.2 0,0 0,0 0,-0.1 0.1,-0.1 0.1,-0.2 0.1,-0.3 0,0 0,0 0,0 0,-0.1 0,-0.2 0,-0.3 0,0 0,-0.1 0,-0.1 0,0 0,0 0,0 0,0 0,0 0,0 0,-0.1 -0.1,-0.3 -0.1,-0.4 0,0 0,0 0,0 -0.1,-0.1 -0.1,-0.2 -0.2,-0.3 0,0 -0.1,0 -0.1,-0.1 -0.1,0 -0.1,-0.1 -0.2,-0.1 -0.1,0 -0.1,0 -0.2,0 -0.1,0 -0.1,0 -0.2,0 -0.8,0 -1.2,-1.1 -1.2,-1.7 -0.1,-0.8 0.2,-1.7 0.7,-1.7 0,0 0.1,0 0.1,0 0,0 0.1,0 0.1,0 0.1,0 0.1,-0.1 0.2,-0.1 0,0 0,0 0.1,-0.1 0.1,-0.1 0.1,-0.1 0.2,-0.2 0,0 0,0 0,0 0,-0.1 0.1,-0.2 0.1,-0.3 0,0 0,0 0,0 0,0 0,0 0,0 0,-0.1 0,-0.1 0,-0.2 0,0 0,-0.1 0,-0.1 0,0 0,0 0,-0.1 0,-0.1 -0.1,-0.2 -0.1,-0.3 0,0 0,0 -0.1,-0.1 -0.1,-0.1 -0.1,-0.1 -0.2,-0.2 0,0 -0.1,0 -0.1,-0.1 -0.1,0 -0.1,-0.1 -0.2,-0.1 0,0 0,0 -0.1,0 -0.8,-0.1 -1,-1.3 -1,-1.9 0,-0.8 0.4,-1.6 0.9,-1.6 0,0 0,0 0,0 0,0 0,0 0,0 0,0 0.1,0 0.1,0 0.3,0 0.5,-0.2 0.7,-0.4 0,0 0.1,-0.1 0.1,-0.1 0,-0.1 0,-0.1 0.1,-0.2 0,-0.1 0,-0.1 0,-0.2 0,0 0,0 0,0 0,0 0,0 0,0 0,-0.1 0,-0.1 0,-0.2 0,-0.1 0,-0.1 0,-0.2 0,-0.1 -0.1,-0.1 -0.1,-0.2 C 44.1,40 44,40 44,39.9 c 0,0 -0.1,-0.1 -0.1,-0.1 -0.1,0 -0.1,-0.1 -0.2,-0.1 -0.1,0 -0.1,0 -0.2,-0.1 0,0 -0.1,0 -0.1,0 -0.9,-0.1 -1,-1.3 -1,-1.9 0,-0.8 0.4,-1.6 0.9,-1.6 0,0 0,0 0,0 0.6,0 1,-0.4 1,-1 0,-0.5 -0.4,-0.9 -0.9,-1 0,0 0,0 0,0 -0.8,-0.2 -0.8,-1.4 -0.7,-2 0.1,-0.8 0.6,-1.6 1.1,-1.5 0,0 0,0 0,0 0,0 0.1,0 0.1,0 0.1,0 0.1,0 0.2,0 0,0 0.1,0 0.1,0 0.1,0 0.2,-0.1 0.3,-0.2 0,0 0,0 0,0 0.1,-0.1 0.2,-0.2 0.2,-0.3 0,0 0,-0.1 0,-0.1 0,-0.1 0.1,-0.1 0.1,-0.2 0,0 0,0 0,0 0,0 0,0 0,0 0,-0.1 0,-0.1 0,-0.2 0,-0.1 0,-0.1 0,-0.2 0,-0.1 0,-0.1 -0.1,-0.2 0,-0.1 0,-0.1 -0.1,-0.2 0,-0.1 -0.1,-0.1 -0.1,-0.1 0,0 -0.1,-0.1 -0.1,-0.1 -0.1,0 -0.1,-0.1 -0.2,-0.1 0,0 -0.1,-0.1 -0.1,-0.1 -0.8,-0.2 -0.8,-1.4 -0.7,-2 0.1,-0.8 0.6,-1.6 1.1,-1.5 0.1,0 0.1,0 0.2,0 0,0 0,0 0.1,0 0.4,0 0.9,-0.3 1,-0.8 0.1,-0.5 -0.2,-1.1 -0.7,-1.2 -0.8,-0.2 -0.8,-1.4 -0.7,-2 0.2,-0.8 0.6,-1.6 1.1,-1.5 0.5,0.1 1.1,-0.3 1.1,-0.8 0.1,-0.5 -0.3,-1 -0.7,-1.1 0,0 0,0 0,0 -0.8,-0.3 -0.7,-1.5 -0.5,-2.1 0.2,-0.7 0.8,-1.5 1.3,-1.3 0,0 0.1,0 0.1,0 0.1,0 0.1,0 0.2,0 0,0 0.1,0 0.1,0 0,0 0.1,0 0.1,0 0.1,0 0.2,0 0.2,-0.1 0,0 0.1,0 0.1,0 0.1,-0.1 0.2,-0.1 0.3,-0.2 0,0 0,0 0,0 0.1,-0.1 0.1,-0.2 0.1,-0.2 0,0 0,0 0,0 0,0 0,0 0,0 0,-0.1 0,-0.1 0,-0.2 0,-0.1 0,-0.1 0,-0.2 0,-0.1 0,-0.1 0,-0.2 0,-0.1 0,-0.1 -0.1,-0.2 0,-0.1 -0.1,-0.1 -0.1,-0.2 0,-0.1 -0.1,-0.1 -0.1,-0.1 0,0 -0.1,-0.1 -0.2,-0.1 0,0 -0.1,-0.1 -0.1,-0.1 C 46.5,12.2 46.6,11 46.8,10.4 47,9.7 47.6,8.9 48.1,9.1 48.6,9.2 49.2,8.9 49.3,8.4 49.4,7.9 49.1,7.3 48.6,7.2 47.1,6.8 45.5,7.9 44.9,9.9 44.5,11 44.6,12.1 45,13 c -0.7,0.5 -1.2,1.2 -1.5,2.2 -0.4,1.3 -0.3,2.4 0.2,3.3 -0.6,0.5 -1.1,1.4 -1.3,2.4 -0.2,1.2 -0.1,2.2 0.4,3 -0.7,0.5 -1.1,1.4 -1.3,2.5 -0.2,1.2 0,2.2 0.5,3 -0.6,0.5 -1,1.4 -1.2,2.4 -0.2,1.3 0,2.5 0.6,3.3 -0.5,0.6 -0.9,1.5 -1,2.6 -0.1,1.2 0.2,2.2 0.8,3 -0.5,0.6 -0.9,1.5 -0.9,2.5 -0.1,1.3 0.3,2.4 1,3.1 -0.5,0.7 -0.7,1.7 -0.6,2.8 0.1,1.2 0.6,2.2 1.3,2.8 -0.4,0.7 -0.6,1.6 -0.5,2.7 0.1,1.2 0.6,2.2 1.3,2.8 0,0 0,0 0,0.1 -0.1,0.2 -0.1,0.4 -0.2,0.5 -2.4,-3 -4.8,-5.2 -6.9,-6.2 -0.1,-0.1 -0.2,-0.2 -0.4,-0.2 -0.3,-0.2 -1,-1.6 -0.8,-2.9 0.1,-0.9 0.6,-1 0.8,-1 0.5,-0.1 0.9,-0.6 0.8,-1.2 -0.1,-0.5 -0.5,-0.8 -1,-0.8 0,0 -0.1,0 -0.1,0 -0.5,0 -0.9,-0.8 -0.9,-1.6 0,-0.6 0.1,-1.8 1,-1.9 0.1,0 0.1,0 0.1,0 0.1,0 0.1,0 0.2,-0.1 0.1,0 0.1,-0.1 0.2,-0.1 0.1,0 0.1,-0.1 0.1,-0.1 0,0 0.1,-0.1 0.1,-0.2 0,-0.1 0.1,-0.1 0.1,-0.2 0,-0.1 0,-0.1 0,-0.2 0,-0.1 0,-0.1 0,-0.1 0,0 0,0 0,0 0,0 0,0 0,0 0,-0.1 0,-0.1 0,-0.1 0,-0.1 0,-0.1 -0.1,-0.2 0,-0.1 -0.1,-0.1 -0.1,-0.2 0,0 -0.1,-0.1 -0.1,-0.1 -0.1,-0.1 -0.1,-0.1 -0.2,-0.1 0,0 -0.1,-0.1 -0.1,-0.1 -0.1,0 -0.1,0 -0.2,0 0,0 -0.1,0 -0.1,0 -0.5,0 -0.9,-0.8 -0.9,-1.6 0,-0.6 0.1,-1.8 1,-1.9 0,0 0,0 0.1,0 0.5,0 0.9,-0.4 1,-0.9 0.1,-0.5 -0.3,-1 -0.9,-1.1 -0.5,-0.1 -0.8,-0.9 -0.7,-1.7 0,-0.6 0.4,-1.7 1.2,-1.7 0,0 0,0 0,0 0,0 0,0 0,0 0.1,0 0.1,0 0.2,0 0.1,0 0.3,-0.1 0.4,-0.2 0,0 0.1,0 0.1,-0.1 0,0 0.1,-0.1 0.1,-0.1 0,-0.1 0.1,-0.1 0.1,-0.2 0,0 0,-0.1 0,-0.2 0,-0.1 0,-0.1 0.1,-0.2 0,0 0,0 0,0 0,0 0,0 0,0 0,-0.1 0,-0.1 0,-0.1 0,-0.1 0,-0.1 0,-0.2 0,-0.1 -0.1,-0.1 -0.1,-0.2 0,-0.1 -0.1,-0.1 -0.1,-0.2 0,0 -0.1,-0.1 -0.1,-0.1 -0.1,0 -0.1,-0.1 -0.2,-0.1 -0.1,0 -0.1,0 -0.2,-0.1 0,0 -0.1,0 -0.1,0 -0.5,-0.1 -0.8,-0.9 -0.7,-1.7 0,-0.6 0.3,-1.7 1.2,-1.7 0,0 0,0 0,0 0,0 0,0 0,0 0,0 0,0 0,0 0.4,0 0.7,-0.2 0.9,-0.6 0,0 0,0 0,0 0,0 0,-0.1 0.1,-0.1 0,-0.1 0,-0.1 0,-0.2 0,0 0,0 0,0 0,0 0,0 0,0 0,-0.1 0,-0.2 -0.1,-0.3 0,0 0,0 0,0 0,-0.1 -0.1,-0.2 -0.2,-0.3 0,0 0,0 0,0 -0.1,-0.1 -0.1,-0.1 -0.2,-0.2 0,0 -0.1,0 -0.1,-0.1 0,0 0,0 -0.1,0 -0.5,-0.1 -0.6,-1 -0.4,-1.8 0.1,-0.6 0.6,-1.7 1.5,-1.5 0,0 0,0 0.1,0 0,0 0.1,0 0.1,0 0,0 0.1,0 0.1,0 0,0 0.1,0 0.1,0 0.1,0 0.2,-0.1 0.3,-0.1 0,0 0,0 0.1,0 0.1,-0.1 0.2,-0.2 0.2,-0.3 0,0 0,0 0,-0.1 0,-0.1 0.1,-0.1 0.1,-0.2 0,0 0,0 0,0 0,0 0,0 0,0 0,-0.1 0,-0.1 0,-0.2 0,-0.1 0,-0.1 0,-0.2 0,-0.1 0,-0.1 -0.1,-0.2 0,-0.1 0,-0.1 -0.1,-0.2 0,-0.1 -0.1,-0.1 -0.1,-0.1 0,0 -0.1,-0.1 -0.1,-0.1 -0.1,0 -0.1,-0.1 -0.2,-0.1 0,0 -0.1,-0.1 -0.1,-0.1 -0.6,-0.9 -0.8,-1.8 -0.6,-2.6 z M 49.3,97 h -4.6 c -0.1,-1.8 -0.3,-3.6 -0.7,-5.4 1.1,0.1 2.4,0.1 3.8,0.1 0.9,0 1.7,0 2.4,-0.1 -0.4,1.7 -0.7,4.1 -0.9,5.4 z m -1.5,-7.3 c -8.2,0 -10.2,0 -10.5,-7.8 -0.2,-5.4 -1,-18.7 -3.2,-24.3 -0.6,-1.6 -1.5,-2 -2.2,-2 -0.1,0 -0.2,0 -0.3,0 -0.9,0.1 -1.7,1 -2.4,2.1 0.3,-1.4 0.8,-2.7 1.6,-3.6 0.6,-0.7 1.4,-1.1 2.4,-1.2 3.3,-0.2 9.8,7.5 14.7,16.8 0,0.1 0.1,0.2 0.1,0.2 2.5,4.8 4.6,10 5.6,14.8 l 0.1,0.3 c 0.3,1.2 0.5,2.5 -0.1,3.3 -0.6,0.6 -2,1.4 -5.8,1.4 z M 66.6,47.2 c -2.8,0.4 -4.8,3.8 -5.2,8.7 -0.7,7.7 -3.6,21 -5.9,27.9 -1,-4.5 -3.1,-9.8 -5.6,-14.7 2.4,-14 8.5,-23.7 15,-23.7 0.1,0 0.1,0 0.2,0 2,0.1 3.3,0.6 4,1.6 0.2,0.3 0.4,0.7 0.5,1 -1,-0.6 -2,-0.9 -3,-0.8 z"
     id="path17189"
     class="UnoptimicedTransforms"
     transform="translate(-0.4641155,11.047052)" /><path
     style="fill:#008000;stroke-width:0.158629"
     d="m 32.66837,63.880882 c -2.199344,0.08776 -3.468094,2.390379 -3.852031,4.306851 0.312495,0.441248 0.686514,-0.402346 0.94713,-0.567286 0.674702,-0.896665 2.074078,-1.189118 2.884453,-0.306415 1.308488,1.447065 1.488436,3.537573 1.982868,5.350645 1.521862,7.386464 1.749328,14.948162 2.309422,22.452572 0.123302,1.865145 0.63259,4.048733 2.505539,4.905121 2.325093,1.10906 4.999213,0.64267 7.486541,0.75006 2.063837,-0.11026 4.512867,0.17011 6.159309,-1.342133 1.053524,-1.408861 0.144135,-3.24727 -0.110606,-4.770037 C 50.763433,86.07524 46.63612,78.028621 41.34057,70.94181 39.312993,68.43624 37.238298,65.746889 34.311672,64.250501 33.795284,64.023343 33.236233,63.869816 32.66837,63.880882 Z"
     id="path17401" /><path
     style="fill:#008000;stroke-width:0.158629"
     d="m 62.568161,56.496247 c -1.875865,0.770538 -3.567888,1.918556 -4.894276,3.460105 -3.41622,3.708073 -5.312559,8.532172 -6.756744,13.291131 -0.647853,2.274908 -1.176233,4.595901 -1.581526,6.918632 2.256749,4.632729 4.272222,9.422886 5.572789,14.400888 0.55397,0.09713 0.473717,-0.889378 0.704023,-1.223343 2.495192,-8.233251 4.146793,-16.711097 5.300601,-25.230364 0.376151,-3.109306 0.755952,-6.7351 3.319193,-8.858693 1.273266,-1.079682 3.052769,-1.113683 4.489957,-0.360325 0.603422,0.141433 0.277061,-0.675574 0.0043,-0.864406 -1.385341,-2.016791 -4.083946,-1.467053 -6.158354,-1.533625 z"
     id="path17403" /><path
     style="fill:#008000;stroke-width:0.158629"
     d="m 43.472832,102.62333 c 0.321535,1.71173 0.434098,3.49624 0.676034,5.2261 0.96669,0.47016 2.178715,0.13392 3.230216,0.25375 0.717917,0.0957 1.751785,-0.0322 1.721687,-0.97935 0.154604,-1.51368 0.508611,-3.02468 0.702679,-4.51134 -2.080069,-0.0739 -4.257218,-0.0986 -6.330616,0.0108 z"
     id="path17405" /></svg>
