<?xml version="1.0" encoding="UTF-8" standalone="no"?>
<svg
   data-name="17 Thyme "
   viewBox="0 0 512 640"
   x="0px"
   y="0px"
   version="1.1"
   id="svg15284"
   sodipodi:docname="thyme.svg"
   inkscape:version="1.2.2 (b0a8486541, 2022-12-01)"
   xmlns:inkscape="http://www.inkscape.org/namespaces/inkscape"
   xmlns:sodipodi="http://sodipodi.sourceforge.net/DTD/sodipodi-0.dtd"
   xmlns="http://www.w3.org/2000/svg"
   xmlns:svg="http://www.w3.org/2000/svg">
  <defs
     id="defs15288" />
  <sodipodi:namedview
     id="namedview15286"
     pagecolor="#ffffff"
     bordercolor="#000000"
     borderopacity="0.25"
     inkscape:showpageshadow="2"
     inkscape:pageopacity="0.0"
     inkscape:pagecheckerboard="0"
     inkscape:deskcolor="#d1d1d1"
     showgrid="false"
     inkscape:zoom="1.23125"
     inkscape:cx="257.05584"
     inkscape:cy="320"
     inkscape:window-width="1857"
     inkscape:window-height="1011"
     inkscape:window-x="0"
     inkscape:window-y="0"
     inkscape:window-maximized="1"
     inkscape:current-layer="svg15284" />
  <path
     d="m 197.87292,143.40464 c 0,0 0,0 0,0 26.58,-26.57999 30.79,-54.669995 30.95,-55.859995 0.35,-2.49 -0.49,-4.99 -2.27,-6.77 -1.78,-1.78 -4.29,-2.62 -6.77,-2.27 -1.17,0.16 -28.69,4.3 -55.02,30.140005 0.08,-2.03 0.13,-4.1 0.13,-6.22 0,-41.930005 -16.63,-67.370005 -17.34,-68.440005 -1.48,-2.23 -3.98,-3.56 -6.66,-3.56 -2.68,0 -5.17,1.34 -6.66,3.56 -0.71,1.06 -17.34,26.51 -17.34,68.440005 0,2.12 0.05,4.18 0.13,6.22 C 90.692919,82.804645 63.172919,78.664645 62.002919,78.504645 c -2.48,-0.35 -4.99,0.49 -6.77,2.27 -1.78,1.78 -2.61,4.28 -2.27,6.77 0.17,1.18 4.37,29.280005 30.95,55.859995 19.020001,19.02 38.820001,26.58 48.970001,29.41 v 66.93 c -3.97,-5.94 -8.9,-12.15 -15.03,-18.27 -26.580001,-26.58 -54.680001,-30.79 -55.860001,-30.95 -2.48,-0.35 -4.99,0.49 -6.77,2.27 -1.78,1.78 -2.61,4.28 -2.27,6.77 0.17,1.18 4.37,29.28 30.95,55.86 19.020001,19.02 38.820001,26.58 48.970001,29.41 v 66.93 c -3.97,-5.94 -8.9,-12.15 -15.03,-18.27 -26.580001,-26.58 -54.680001,-30.79 -55.860001,-30.95 -2.48,-0.35 -4.99,0.49 -6.77,2.27 -1.78,1.78 -2.61,4.28 -2.27,6.77 0.17,1.18 4.37,29.28 30.95,55.86 19.020001,19.02 38.820001,26.58 48.970001,29.41 v 81.62 c 0,4.42 3.58,8 8,8 4.42,0 8,-3.58 8,-8 v -81.62 c 10.15,-2.82 29.95,-10.38 48.97,-29.41 0,0 0,0 0,0 26.58,-26.58 30.79,-54.67 30.95,-55.86 0.35,-2.49 -0.49,-4.99 -2.27,-6.77 -1.78,-1.78 -4.29,-2.61 -6.77,-2.27 -1.18,0.17 -29.28,4.37 -55.86,30.95 -6.13,6.13 -11.05,12.33 -15.03,18.27 v -66.93 c 10.15,-2.82 29.95,-10.38 48.97,-29.41 0,0 0,0 0,0 26.58,-26.58 30.79,-54.67 30.95,-55.86 0.35,-2.49 -0.49,-4.99 -2.27,-6.77 -1.78,-1.78 -4.29,-2.61 -6.77,-2.27 -1.18,0.17 -29.28,4.37 -55.86,30.95 -6.13,6.13 -11.05,12.33 -15.03,18.27 v -66.93 c 10.15,-2.82 29.95,-10.38 48.97,-29.41 z"
     id="path15276"
     style="fill:#217844;stroke:#000000;stroke-width:5;stroke-dasharray:none;stroke-linejoin:round;stroke-linecap:round;paint-order:fill markers stroke" />
  <path
     d="m 478.72048,176.02114 c -1.14,-2.4 -3.39,-4.08 -6.01,-4.48 -1.24,-0.19 -30.46,-4.45 -63.75,11.1 0.75,-1.89 1.49,-3.82 2.19,-5.82 13.94,-39.54 6.72,-69.07 6.4,-70.31 -0.66,-2.59 -2.57,-4.69 -5.09,-5.58 -2.52,-0.89 -5.32,-0.46 -7.46,1.15 -1.02,0.77 -25.17,19.23 -39.11,58.78 -0.7,2 -1.34,3.96 -1.94,5.91 -16.24,-33.13 -40.82,-46.17 -41.87,-46.72 -2.23,-1.16 -4.87,-1.2 -7.14,-0.11 -2.27,1.08 -3.89,3.17 -4.39,5.63 -0.24,1.17 -5.61,29.07 10.62,62.97 11.61,24.27 27.77,37.98 36.4,44.02 l -22.26,63.12 c -1.77,-6.92 -4.36,-14.41 -8.1,-22.23 -16.23,-33.91 -41.33,-47.21 -42.39,-47.76 -2.23,-1.16 -4.87,-1.2 -7.14,-0.11 -2.26,1.08 -3.89,3.17 -4.39,5.63 -0.24,1.17 -5.61,29.06 10.62,62.97 11.61,24.27 27.77,37.98 36.4,44.02 l -22.26,63.12 c -1.77,-6.92 -4.36,-14.42 -8.1,-22.23 -16.23,-33.91 -41.33,-47.21 -42.39,-47.76 -2.23,-1.16 -4.87,-1.2 -7.14,-0.11 -2.27,1.08 -3.89,3.17 -4.39,5.63 -0.24,1.17 -5.61,29.06 10.62,62.97 11.61,24.27 27.77,37.98 36.4,44.02 l -27.14,76.98 c -1.47,4.17 0.72,8.74 4.88,10.21 0.88,0.31 1.78,0.46 2.66,0.46 3.3,0 6.39,-2.05 7.54,-5.34 l 27.14,-76.98 c 1.79,0.12 3.88,0.21 6.25,0.21 11.56,0 29.57,-2.02 49.71,-11.66 33.91,-16.23 47.22,-41.33 47.77,-42.39 1.16,-2.23 1.2,-4.87 0.11,-7.14 -1.08,-2.26 -3.17,-3.89 -5.63,-4.39 -1.17,-0.24 -29.06,-5.62 -62.97,10.62 -7.82,3.74 -14.53,7.96 -20.25,12.24 l 22.26,-63.12 c 1.79,0.12 3.88,0.21 6.25,0.21 11.56,0 29.57,-2.02 49.71,-11.66 33.91,-16.23 47.22,-41.33 47.77,-42.39 1.16,-2.23 1.2,-4.87 0.11,-7.14 -1.08,-2.26 -3.17,-3.89 -5.63,-4.39 -1.17,-0.24 -29.06,-5.61 -62.97,10.62 -7.82,3.74 -14.53,7.96 -20.25,12.24 l 22.26,-63.12 c 1.79,0.12 3.88,0.21 6.25,0.21 11.56,0 29.57,-2.02 49.71,-11.66 33.69,-16.13 49.12,-41.83 49.76,-42.92 1.35,-2.29 1.47,-5.09 0.34,-7.49 z"
     id="path15278"
     style="fill:#217844;stroke:#000000;stroke-width:5;stroke-dasharray:none;stroke-linejoin:round;stroke-linecap:round;paint-order:fill markers stroke" />
</svg>
